<svg version="1.1" viewBox="0.0 0.0 600.0 371.0" fill="none" stroke="none" stroke-linecap="square" stroke-miterlimit="10" width="600" height="371" xmlns:xlink="http://www.w3.org/1999/xlink" xmlns="http://www.w3.org/2000/svg"><path fill="#ffffff" d="M0 0L600.0 0L600.0 371.0L0 371.0L0 0Z" fill-rule="nonzero"/><path stroke="#333333" stroke-width="1.0" stroke-linecap="butt" d="M84.5 332.5L581.5 332.5" fill-rule="nonzero"/><path stroke="#cccccc" stroke-width="1.0" stroke-linecap="butt" d="M84.5 271.5L581.5 271.5" fill-rule="nonzero"/><path stroke="#cccccc" stroke-width="1.0" stroke-linecap="butt" d="M84.5 209.5L581.5 209.5" fill-rule="nonzero"/><path stroke="#cccccc" stroke-width="1.0" stroke-linecap="butt" d="M84.5 148.5L581.5 148.5" fill-rule="nonzero"/><path stroke="#cccccc" stroke-width="1.0" stroke-linecap="butt" d="M84.5 86.5L581.5 86.5" fill-rule="nonzero"/><path stroke="#cccccc" stroke-width="1.0" stroke-linecap="butt" d="M84.5 25.5L581.5 25.5" fill-rule="nonzero"/><clipPath id="id_0"><path d="M84.55 25.55L581.45 25.55L581.45 332.45L84.55 332.45L84.55 25.55Z" clip-rule="nonzero"/></clipPath><path stroke="#000000" stroke-width="0.0" stroke-linecap="butt" stroke-opacity="0.0" clip-path="url(#id_0)" d="M199.0 332.0L125.0 332.0L125.0 331.5C125.0 331.22385 125.223854 331.0 125.5 331.0L198.5 331.0C198.77614 331.0 199.0 331.22385 199.0 331.5Z" fill-rule="nonzero"/><path fill="#4285f4" clip-path="url(#id_0)" d="M199.0 332.0L125.0 332.0L125.0 331.5C125.0 331.22385 125.223854 331.0 125.5 331.0L198.5 331.0C198.77614 331.0 199.0 331.22385 199.0 331.5Z" fill-rule="nonzero"/><path stroke="#000000" stroke-width="0.0" stroke-linecap="butt" stroke-opacity="0.0" clip-path="url(#id_0)" d="M313.0 332.0L239.0 332.0L239.0 196.0C239.0 194.89543 239.89543 194.0 241.0 194.0L311.0 194.0C312.10458 194.0 313.0 194.89543 313.0 196.0Z" fill-rule="nonzero"/><path fill="#4285f4" clip-path="url(#id_0)" d="M313.0 332.0L239.0 332.0L239.0 196.0C239.0 194.89543 239.89543 194.0 241.0 194.0L311.0 194.0C312.10458 194.0 313.0 194.89543 313.0 196.0Z" fill-rule="nonzero"/><path stroke="#000000" stroke-width="0.0" stroke-linecap="butt" stroke-opacity="0.0" clip-path="url(#id_0)" d="M427.0 332.0L353.0 332.0L353.0 79.0C353.0 77.89543 353.89542 77.0 355.0 77.0L425.0 77.0C426.10458 77.0 427.0 77.89543 427.0 79.0Z" fill-rule="nonzero"/><path fill="#4285f4" clip-path="url(#id_0)" d="M427.0 332.0L353.0 332.0L353.0 79.0C353.0 77.89543 353.89542 77.0 355.0 77.0L425.0 77.0C426.10458 77.0 427.0 77.89543 427.0 79.0Z" fill-rule="nonzero"/><path stroke="#000000" stroke-width="0.0" stroke-linecap="butt" stroke-opacity="0.0" clip-path="url(#id_0)" d="M541.0 332.0L467.0 332.0L467.0 75.0C467.0 73.89543 467.89542 73.0 469.0 73.0L539.0 73.0C540.10455 73.0 541.0 73.89543 541.0 75.0Z" fill-rule="nonzero"/><path fill="#4285f4" clip-path="url(#id_0)" d="M541.0 332.0L467.0 332.0L467.0 75.0C467.0 73.89543 467.89542 73.0 469.0 73.0L539.0 73.0C540.10455 73.0 541.0 73.89543 541.0 75.0Z" fill-rule="nonzero"/><path stroke="#ffffff" stroke-width="3.0" stroke-linejoin="round" stroke-linecap="round" d="M151.35938 312.58694Q151.03125 312.9932 150.54688 313.2432Q150.07812 313.47757 149.51562 313.47757Q148.78125 313.47757 148.23438 313.1182Q147.6875 312.75882 147.39062 312.10257Q147.09375 311.4307 147.09375 310.63382Q147.09375 309.79007 147.40625 309.10257Q147.73438 308.41507 148.32812 308.0557Q148.9375 307.6807 149.73438 307.6807Q151.0 307.6807 151.71875 308.63382Q152.45312 309.58694 152.45312 311.21194L152.45312 311.52444Q152.45312 314.02444 151.46875 315.16507Q150.48438 316.3057 148.5 316.33694L148.28125 316.33694L148.28125 315.4307L148.51562 315.4307Q149.85938 315.39944 150.57812 314.72757Q151.29688 314.0557 151.35938 312.58694ZM149.6875 312.58694Q150.23438 312.58694 150.6875 312.25882Q151.15625 311.91507 151.375 311.4307L151.375 310.9932Q151.375 309.9307 150.90625 309.25882Q150.4375 308.58694 149.73438 308.58694Q149.01562 308.58694 148.57812 309.13382Q148.15625 309.6807 148.15625 310.58694Q148.15625 311.46194 148.5625 312.02444Q148.98438 312.58694 149.6875 312.58694ZM154.34375 315.77444Q154.34375 315.4932 154.5 315.3057Q154.67188 315.1182 155.0 315.1182Q155.34375 315.1182 155.51562 315.3057Q155.6875 315.4932 155.6875 315.77444Q155.6875 316.04007 155.51562 316.22757Q155.34375 316.39944 155.0 316.39944Q154.67188 316.39944 154.5 316.22757Q154.34375 316.04007 154.34375 315.77444ZM162.5625 312.69632Q162.5625 314.60257 161.90625 315.54007Q161.26562 316.46194 159.875 316.46194Q158.51562 316.46194 157.85938 315.5557Q157.20312 314.64944 157.17188 312.83694L157.17188 311.39944Q157.17188 309.50882 157.8125 308.60257Q158.46875 307.6807 159.85938 307.6807Q161.23438 307.6807 161.89062 308.57132Q162.54688 309.44632 162.5625 311.29007L162.5625 312.69632ZM161.46875 311.21194Q161.46875 309.83694 161.07812 309.21194Q160.70312 308.57132 159.85938 308.57132Q159.03125 308.57132 158.64062 309.21194Q158.26562 309.83694 158.26562 311.13382L158.26562 312.8682Q158.26562 314.2432 158.65625 314.91507Q159.0625 315.57132 159.875 315.57132Q160.67188 315.57132 161.0625 314.94632Q161.45312 314.32132 161.46875 312.9932L161.46875 311.21194ZM168.46875 307.8057L168.46875 308.71194L168.26562 308.71194Q167.0 308.7432 166.25 309.47757Q165.5 310.19632 165.375 311.50882Q166.0625 310.7432 167.21875 310.7432Q168.32812 310.7432 169.0 311.52444Q169.67188 312.3057 169.67188 313.5557Q169.67188 314.8682 168.95312 315.66507Q168.23438 316.46194 167.01562 316.46194Q165.79688 316.46194 165.03125 315.52444Q164.28125 314.57132 164.28125 313.08694L164.28125 312.6807Q164.28125 310.32132 165.28125 309.07132Q166.28125 307.82132 168.26562 307.8057L168.46875 307.8057ZM167.04688 311.64944Q166.48438 311.64944 166.01562 311.97757Q165.54688 312.3057 165.35938 312.82132L165.35938 313.21194Q165.35938 314.27444 165.82812 314.91507Q166.3125 315.5557 167.01562 315.5557Q167.75 315.5557 168.17188 315.02444Q168.59375 314.47757 168.59375 313.60257Q168.59375 312.72757 168.17188 312.19632Q167.75 311.64944 167.04688 311.64944ZM176.71875 308.41507L173.1875 316.33694L172.04688 316.33694L175.5625 308.69632L170.95312 308.69632L170.95312 307.8057L176.71875 307.8057L176.71875 308.41507Z" fill-rule="nonzero"/><path fill="#4285f4" d="M151.35938 312.58694Q151.03125 312.9932 150.54688 313.2432Q150.07812 313.47757 149.51562 313.47757Q148.78125 313.47757 148.23438 313.1182Q147.6875 312.75882 147.39062 312.10257Q147.09375 311.4307 147.09375 310.63382Q147.09375 309.79007 147.40625 309.10257Q147.73438 308.41507 148.32812 308.0557Q148.9375 307.6807 149.73438 307.6807Q151.0 307.6807 151.71875 308.63382Q152.45312 309.58694 152.45312 311.21194L152.45312 311.52444Q152.45312 314.02444 151.46875 315.16507Q150.48438 316.3057 148.5 316.33694L148.28125 316.33694L148.28125 315.4307L148.51562 315.4307Q149.85938 315.39944 150.57812 314.72757Q151.29688 314.0557 151.35938 312.58694ZM149.6875 312.58694Q150.23438 312.58694 150.6875 312.25882Q151.15625 311.91507 151.375 311.4307L151.375 310.9932Q151.375 309.9307 150.90625 309.25882Q150.4375 308.58694 149.73438 308.58694Q149.01562 308.58694 148.57812 309.13382Q148.15625 309.6807 148.15625 310.58694Q148.15625 311.46194 148.5625 312.02444Q148.98438 312.58694 149.6875 312.58694ZM154.34375 315.77444Q154.34375 315.4932 154.5 315.3057Q154.67188 315.1182 155.0 315.1182Q155.34375 315.1182 155.51562 315.3057Q155.6875 315.4932 155.6875 315.77444Q155.6875 316.04007 155.51562 316.22757Q155.34375 316.39944 155.0 316.39944Q154.67188 316.39944 154.5 316.22757Q154.34375 316.04007 154.34375 315.77444ZM162.5625 312.69632Q162.5625 314.60257 161.90625 315.54007Q161.26562 316.46194 159.875 316.46194Q158.51562 316.46194 157.85938 315.5557Q157.20312 314.64944 157.17188 312.83694L157.17188 311.39944Q157.17188 309.50882 157.8125 308.60257Q158.46875 307.6807 159.85938 307.6807Q161.23438 307.6807 161.89062 308.57132Q162.54688 309.44632 162.5625 311.29007L162.5625 312.69632ZM161.46875 311.21194Q161.46875 309.83694 161.07812 309.21194Q160.70312 308.57132 159.85938 308.57132Q159.03125 308.57132 158.64062 309.21194Q158.26562 309.83694 158.26562 311.13382L158.26562 312.8682Q158.26562 314.2432 158.65625 314.91507Q159.0625 315.57132 159.875 315.57132Q160.67188 315.57132 161.0625 314.94632Q161.45312 314.32132 161.46875 312.9932L161.46875 311.21194ZM168.46875 307.8057L168.46875 308.71194L168.26562 308.71194Q167.0 308.7432 166.25 309.47757Q165.5 310.19632 165.375 311.50882Q166.0625 310.7432 167.21875 310.7432Q168.32812 310.7432 169.0 311.52444Q169.67188 312.3057 169.67188 313.5557Q169.67188 314.8682 168.95312 315.66507Q168.23438 316.46194 167.01562 316.46194Q165.79688 316.46194 165.03125 315.52444Q164.28125 314.57132 164.28125 313.08694L164.28125 312.6807Q164.28125 310.32132 165.28125 309.07132Q166.28125 307.82132 168.26562 307.8057L168.46875 307.8057ZM167.04688 311.64944Q166.48438 311.64944 166.01562 311.97757Q165.54688 312.3057 165.35938 312.82132L165.35938 313.21194Q165.35938 314.27444 165.82812 314.91507Q166.3125 315.5557 167.01562 315.5557Q167.75 315.5557 168.17188 315.02444Q168.59375 314.47757 168.59375 313.60257Q168.59375 312.72757 168.17188 312.19632Q167.75 311.64944 167.04688 311.64944ZM176.71875 308.41507L173.1875 316.33694L172.04688 316.33694L175.5625 308.69632L170.95312 308.69632L170.95312 307.8057L176.71875 307.8057L176.71875 308.41507Z" fill-rule="nonzero"/><path stroke="#4285f4" stroke-width="3.0" stroke-linejoin="round" stroke-linecap="round" d="M257.76562 210.762L256.6875 210.762L256.6875 203.54324L254.5 204.34012L254.5 203.35574L257.60938 202.18387L257.76562 202.18387L257.76562 210.762ZM264.76562 210.762L263.6875 210.762L263.6875 203.54324L261.5 204.34012L261.5 203.35574L264.60938 202.18387L264.76562 202.18387L264.76562 210.762ZM273.79688 210.762L268.20312 210.762L268.20312 209.98074L271.15625 206.6995Q271.8125 205.9495 272.0625 205.49637Q272.3125 205.02762 272.3125 204.52762Q272.3125 203.85574 271.90625 203.43387Q271.51562 202.99637 270.82812 202.99637Q270.03125 202.99637 269.57812 203.46512Q269.125 203.91824 269.125 204.74637L268.04688 204.74637Q268.04688 203.55887 268.79688 202.84012Q269.5625 202.10574 270.82812 202.10574Q272.03125 202.10574 272.71875 202.73074Q273.40625 203.35574 273.40625 204.40262Q273.40625 205.65262 271.79688 207.40262L269.51562 209.87137L273.79688 209.87137L273.79688 210.762ZM280.39062 204.4495Q280.39062 205.09012 280.04688 205.59012Q279.70312 206.09012 279.14062 206.37137Q279.79688 206.65262 280.1875 207.21512Q280.57812 207.762 280.57812 208.46512Q280.57812 209.55887 279.82812 210.23074Q279.09375 210.887 277.875 210.887Q276.64062 210.887 275.89062 210.23074Q275.15625 209.55887 275.15625 208.46512Q275.15625 207.762 275.53125 207.21512Q275.90625 206.65262 276.57812 206.37137Q276.01562 206.09012 275.6875 205.59012Q275.35938 205.09012 275.35938 204.4495Q275.35938 203.37137 276.04688 202.74637Q276.73438 202.10574 277.875 202.10574Q279.0 202.10574 279.6875 202.74637Q280.39062 203.37137 280.39062 204.4495ZM279.5 208.43387Q279.5 207.71512 279.04688 207.27762Q278.59375 206.8245 277.85938 206.8245Q277.125 206.8245 276.67188 207.27762Q276.23438 207.71512 276.23438 208.4495Q276.23438 209.16824 276.67188 209.59012Q277.10938 209.99637 277.875 209.99637Q278.625 209.99637 279.0625 209.5745Q279.5 209.15262 279.5 208.43387ZM277.875 202.99637Q277.23438 202.99637 276.82812 203.40262Q276.4375 203.79324 276.4375 204.48074Q276.4375 205.12137 276.82812 205.52762Q277.21875 205.93387 277.85938 205.93387Q278.51562 205.93387 278.90625 205.52762Q279.29688 205.12137 279.29688 204.48074Q279.29688 203.8245 278.89062 203.41824Q278.48438 202.99637 277.875 202.99637ZM282.34375 210.1995Q282.34375 209.91824 282.5 209.73074Q282.67188 209.54324 283.0 209.54324Q283.34375 209.54324 283.51562 209.73074Q283.6875 209.91824 283.6875 210.1995Q283.6875 210.46512 283.51562 210.65262Q283.34375 210.8245 283.0 210.8245Q282.67188 210.8245 282.5 210.65262Q282.34375 210.46512 282.34375 210.1995ZM288.76562 210.762L287.6875 210.762L287.6875 203.54324L285.5 204.34012L285.5 203.35574L288.60938 202.18387L288.76562 202.18387L288.76562 210.762ZM297.79688 210.762L292.20312 210.762L292.20312 209.98074L295.15625 206.6995Q295.8125 205.9495 296.0625 205.49637Q296.3125 205.02762 296.3125 204.52762Q296.3125 203.85574 295.90625 203.43387Q295.51562 202.99637 294.82812 202.99637Q294.03125 202.99637 293.57812 203.46512Q293.125 203.91824 293.125 204.74637L292.04688 204.74637Q292.04688 203.55887 292.79688 202.84012Q293.5625 202.10574 294.82812 202.10574Q296.03125 202.10574 296.71875 202.73074Q297.40625 203.35574 297.40625 204.40262Q297.40625 205.65262 295.79688 207.40262L293.51562 209.87137L297.79688 209.87137L297.79688 210.762Z" fill-rule="nonzero"/><path fill="#ffffff" d="M257.76562 210.762L256.6875 210.762L256.6875 203.54324L254.5 204.34012L254.5 203.35574L257.60938 202.18387L257.76562 202.18387L257.76562 210.762ZM264.76562 210.762L263.6875 210.762L263.6875 203.54324L261.5 204.34012L261.5 203.35574L264.60938 202.18387L264.76562 202.18387L264.76562 210.762ZM273.79688 210.762L268.20312 210.762L268.20312 209.98074L271.15625 206.6995Q271.8125 205.9495 272.0625 205.49637Q272.3125 205.02762 272.3125 204.52762Q272.3125 203.85574 271.90625 203.43387Q271.51562 202.99637 270.82812 202.99637Q270.03125 202.99637 269.57812 203.46512Q269.125 203.91824 269.125 204.74637L268.04688 204.74637Q268.04688 203.55887 268.79688 202.84012Q269.5625 202.10574 270.82812 202.10574Q272.03125 202.10574 272.71875 202.73074Q273.40625 203.35574 273.40625 204.40262Q273.40625 205.65262 271.79688 207.40262L269.51562 209.87137L273.79688 209.87137L273.79688 210.762ZM280.39062 204.4495Q280.39062 205.09012 280.04688 205.59012Q279.70312 206.09012 279.14062 206.37137Q279.79688 206.65262 280.1875 207.21512Q280.57812 207.762 280.57812 208.46512Q280.57812 209.55887 279.82812 210.23074Q279.09375 210.887 277.875 210.887Q276.64062 210.887 275.89062 210.23074Q275.15625 209.55887 275.15625 208.46512Q275.15625 207.762 275.53125 207.21512Q275.90625 206.65262 276.57812 206.37137Q276.01562 206.09012 275.6875 205.59012Q275.35938 205.09012 275.35938 204.4495Q275.35938 203.37137 276.04688 202.74637Q276.73438 202.10574 277.875 202.10574Q279.0 202.10574 279.6875 202.74637Q280.39062 203.37137 280.39062 204.4495ZM279.5 208.43387Q279.5 207.71512 279.04688 207.27762Q278.59375 206.8245 277.85938 206.8245Q277.125 206.8245 276.67188 207.27762Q276.23438 207.71512 276.23438 208.4495Q276.23438 209.16824 276.67188 209.59012Q277.10938 209.99637 277.875 209.99637Q278.625 209.99637 279.0625 209.5745Q279.5 209.15262 279.5 208.43387ZM277.875 202.99637Q277.23438 202.99637 276.82812 203.40262Q276.4375 203.79324 276.4375 204.48074Q276.4375 205.12137 276.82812 205.52762Q277.21875 205.93387 277.85938 205.93387Q278.51562 205.93387 278.90625 205.52762Q279.29688 205.12137 279.29688 204.48074Q279.29688 203.8245 278.89062 203.41824Q278.48438 202.99637 277.875 202.99637ZM282.34375 210.1995Q282.34375 209.91824 282.5 209.73074Q282.67188 209.54324 283.0 209.54324Q283.34375 209.54324 283.51562 209.73074Q283.6875 209.91824 283.6875 210.1995Q283.6875 210.46512 283.51562 210.65262Q283.34375 210.8245 283.0 210.8245Q282.67188 210.8245 282.5 210.65262Q282.34375 210.46512 282.34375 210.1995ZM288.76562 210.762L287.6875 210.762L287.6875 203.54324L285.5 204.34012L285.5 203.35574L288.60938 202.18387L288.76562 202.18387L288.76562 210.762ZM297.79688 210.762L292.20312 210.762L292.20312 209.98074L295.15625 206.6995Q295.8125 205.9495 296.0625 205.49637Q296.3125 205.02762 296.3125 204.52762Q296.3125 203.85574 295.90625 203.43387Q295.51562 202.99637 294.82812 202.99637Q294.03125 202.99637 293.57812 203.46512Q293.125 203.91824 293.125 204.74637L292.04688 204.74637Q292.04688 203.55887 292.79688 202.84012Q293.5625 202.10574 294.82812 202.10574Q296.03125 202.10574 296.71875 202.73074Q297.40625 203.35574 297.40625 204.40262Q297.40625 205.65262 295.79688 207.40262L293.51562 209.87137L297.79688 209.87137L297.79688 210.762Z" fill-rule="nonzero"/><path stroke="#4285f4" stroke-width="3.0" stroke-linejoin="round" stroke-linecap="round" d="M373.79688 93.39115L368.20312 93.39115L368.20312 92.6099L371.15625 89.32865Q371.8125 88.57865 372.0625 88.12553Q372.3125 87.65678 372.3125 87.15678Q372.3125 86.4849 371.90625 86.06303Q371.51562 85.62553 370.82812 85.62553Q370.03125 85.62553 369.57812 86.09428Q369.125 86.5474 369.125 87.37553L368.04688 87.37553Q368.04688 86.18803 368.79688 85.46928Q369.5625 84.7349 370.82812 84.7349Q372.03125 84.7349 372.71875 85.3599Q373.40625 85.9849 373.40625 87.03178Q373.40625 88.28178 371.79688 90.03178L369.51562 92.50053L373.79688 92.50053L373.79688 93.39115ZM380.5625 89.75053Q380.5625 91.65678 379.90625 92.59428Q379.26562 93.51615 377.875 93.51615Q376.51562 93.51615 375.85938 92.6099Q375.20312 91.70365 375.17188 89.89115L375.17188 88.45365Q375.17188 86.56303 375.8125 85.65678Q376.46875 84.7349 377.85938 84.7349Q379.23438 84.7349 379.89062 85.62553Q380.54688 86.50053 380.5625 88.34428L380.5625 89.75053ZM379.46875 88.26615Q379.46875 86.89115 379.07812 86.26615Q378.70312 85.62553 377.85938 85.62553Q377.03125 85.62553 376.64062 86.26615Q376.26562 86.89115 376.26562 88.18803L376.26562 89.9224Q376.26562 91.2974 376.65625 91.96928Q377.0625 92.62553 377.875 92.62553Q378.67188 92.62553 379.0625 92.00053Q379.45312 91.37553 379.46875 90.0474L379.46875 88.26615ZM387.39062 87.07865Q387.39062 87.71928 387.04688 88.21928Q386.70312 88.71928 386.14062 89.00053Q386.79688 89.28178 387.1875 89.84428Q387.57812 90.39115 387.57812 91.09428Q387.57812 92.18803 386.82812 92.8599Q386.09375 93.51615 384.875 93.51615Q383.64062 93.51615 382.89062 92.8599Q382.15625 92.18803 382.15625 91.09428Q382.15625 90.39115 382.53125 89.84428Q382.90625 89.28178 383.57812 89.00053Q383.01562 88.71928 382.6875 88.21928Q382.35938 87.71928 382.35938 87.07865Q382.35938 86.00053 383.04688 85.37553Q383.73438 84.7349 384.875 84.7349Q386.0 84.7349 386.6875 85.37553Q387.39062 86.00053 387.39062 87.07865ZM386.5 91.06303Q386.5 90.34428 386.04688 89.90678Q385.59375 89.45365 384.85938 89.45365Q384.125 89.45365 383.67188 89.90678Q383.23438 90.34428 383.23438 91.07865Q383.23438 91.7974 383.67188 92.21928Q384.10938 92.62553 384.875 92.62553Q385.625 92.62553 386.0625 92.20365Q386.5 91.78178 386.5 91.06303ZM384.875 85.62553Q384.23438 85.62553 383.82812 86.03178Q383.4375 86.4224 383.4375 87.1099Q383.4375 87.75053 383.82812 88.15678Q384.21875 88.56303 384.85938 88.56303Q385.51562 88.56303 385.90625 88.15678Q386.29688 87.75053 386.29688 87.1099Q386.29688 86.45365 385.89062 86.0474Q385.48438 85.62553 384.875 85.62553ZM393.78125 90.53178L394.96875 90.53178L394.96875 91.40678L393.78125 91.40678L393.78125 93.39115L392.70312 93.39115L392.70312 91.40678L388.8125 91.40678L388.8125 90.76615L392.625 84.8599L393.78125 84.8599L393.78125 90.53178ZM390.04688 90.53178L392.70312 90.53178L392.70312 86.34428L392.5625 86.57865L390.04688 90.53178ZM396.34375 92.82865Q396.34375 92.5474 396.5 92.3599Q396.67188 92.1724 397.0 92.1724Q397.34375 92.1724 397.51562 92.3599Q397.6875 92.5474 397.6875 92.82865Q397.6875 93.09428 397.51562 93.28178Q397.34375 93.45365 397.0 93.45365Q396.67188 93.45365 396.5 93.28178Q396.34375 93.09428 396.34375 92.82865ZM404.79688 93.39115L399.20312 93.39115L399.20312 92.6099L402.15625 89.32865Q402.8125 88.57865 403.0625 88.12553Q403.3125 87.65678 403.3125 87.15678Q403.3125 86.4849 402.90625 86.06303Q402.51562 85.62553 401.82812 85.62553Q401.03125 85.62553 400.57812 86.09428Q400.125 86.5474 400.125 87.37553L399.04688 87.37553Q399.04688 86.18803 399.79688 85.46928Q400.5625 84.7349 401.82812 84.7349Q403.03125 84.7349 403.71875 85.3599Q404.40625 85.9849 404.40625 87.03178Q404.40625 88.28178 402.79688 90.03178L400.51562 92.50053L404.79688 92.50053L404.79688 93.39115ZM411.79688 93.39115L406.20312 93.39115L406.20312 92.6099L409.15625 89.32865Q409.8125 88.57865 410.0625 88.12553Q410.3125 87.65678 410.3125 87.15678Q410.3125 86.4849 409.90625 86.06303Q409.51562 85.62553 408.82812 85.62553Q408.03125 85.62553 407.57812 86.09428Q407.125 86.5474 407.125 87.37553L406.04688 87.37553Q406.04688 86.18803 406.79688 85.46928Q407.5625 84.7349 408.82812 84.7349Q410.03125 84.7349 410.71875 85.3599Q411.40625 85.9849 411.40625 87.03178Q411.40625 88.28178 409.79688 90.03178L407.51562 92.50053L411.79688 92.50053L411.79688 93.39115Z" fill-rule="nonzero"/><path fill="#ffffff" d="M373.79688 93.39115L368.20312 93.39115L368.20312 92.6099L371.15625 89.32865Q371.8125 88.57865 372.0625 88.12553Q372.3125 87.65678 372.3125 87.15678Q372.3125 86.4849 371.90625 86.06303Q371.51562 85.62553 370.82812 85.62553Q370.03125 85.62553 369.57812 86.09428Q369.125 86.5474 369.125 87.37553L368.04688 87.37553Q368.04688 86.18803 368.79688 85.46928Q369.5625 84.7349 370.82812 84.7349Q372.03125 84.7349 372.71875 85.3599Q373.40625 85.9849 373.40625 87.03178Q373.40625 88.28178 371.79688 90.03178L369.51562 92.50053L373.79688 92.50053L373.79688 93.39115ZM380.5625 89.75053Q380.5625 91.65678 379.90625 92.59428Q379.26562 93.51615 377.875 93.51615Q376.51562 93.51615 375.85938 92.6099Q375.20312 91.70365 375.17188 89.89115L375.17188 88.45365Q375.17188 86.56303 375.8125 85.65678Q376.46875 84.7349 377.85938 84.7349Q379.23438 84.7349 379.89062 85.62553Q380.54688 86.50053 380.5625 88.34428L380.5625 89.75053ZM379.46875 88.26615Q379.46875 86.89115 379.07812 86.26615Q378.70312 85.62553 377.85938 85.62553Q377.03125 85.62553 376.64062 86.26615Q376.26562 86.89115 376.26562 88.18803L376.26562 89.9224Q376.26562 91.2974 376.65625 91.96928Q377.0625 92.62553 377.875 92.62553Q378.67188 92.62553 379.0625 92.00053Q379.45312 91.37553 379.46875 90.0474L379.46875 88.26615ZM387.39062 87.07865Q387.39062 87.71928 387.04688 88.21928Q386.70312 88.71928 386.14062 89.00053Q386.79688 89.28178 387.1875 89.84428Q387.57812 90.39115 387.57812 91.09428Q387.57812 92.18803 386.82812 92.8599Q386.09375 93.51615 384.875 93.51615Q383.64062 93.51615 382.89062 92.8599Q382.15625 92.18803 382.15625 91.09428Q382.15625 90.39115 382.53125 89.84428Q382.90625 89.28178 383.57812 89.00053Q383.01562 88.71928 382.6875 88.21928Q382.35938 87.71928 382.35938 87.07865Q382.35938 86.00053 383.04688 85.37553Q383.73438 84.7349 384.875 84.7349Q386.0 84.7349 386.6875 85.37553Q387.39062 86.00053 387.39062 87.07865ZM386.5 91.06303Q386.5 90.34428 386.04688 89.90678Q385.59375 89.45365 384.85938 89.45365Q384.125 89.45365 383.67188 89.90678Q383.23438 90.34428 383.23438 91.07865Q383.23438 91.7974 383.67188 92.21928Q384.10938 92.62553 384.875 92.62553Q385.625 92.62553 386.0625 92.20365Q386.5 91.78178 386.5 91.06303ZM384.875 85.62553Q384.23438 85.62553 383.82812 86.03178Q383.4375 86.4224 383.4375 87.1099Q383.4375 87.75053 383.82812 88.15678Q384.21875 88.56303 384.85938 88.56303Q385.51562 88.56303 385.90625 88.15678Q386.29688 87.75053 386.29688 87.1099Q386.29688 86.45365 385.89062 86.0474Q385.48438 85.62553 384.875 85.62553ZM393.78125 90.53178L394.96875 90.53178L394.96875 91.40678L393.78125 91.40678L393.78125 93.39115L392.70312 93.39115L392.70312 91.40678L388.8125 91.40678L388.8125 90.76615L392.625 84.8599L393.78125 84.8599L393.78125 90.53178ZM390.04688 90.53178L392.70312 90.53178L392.70312 86.34428L392.5625 86.57865L390.04688 90.53178ZM396.34375 92.82865Q396.34375 92.5474 396.5 92.3599Q396.67188 92.1724 397.0 92.1724Q397.34375 92.1724 397.51562 92.3599Q397.6875 92.5474 397.6875 92.82865Q397.6875 93.09428 397.51562 93.28178Q397.34375 93.45365 397.0 93.45365Q396.67188 93.45365 396.5 93.28178Q396.34375 93.09428 396.34375 92.82865ZM404.79688 93.39115L399.20312 93.39115L399.20312 92.6099L402.15625 89.32865Q402.8125 88.57865 403.0625 88.12553Q403.3125 87.65678 403.3125 87.15678Q403.3125 86.4849 402.90625 86.06303Q402.51562 85.62553 401.82812 85.62553Q401.03125 85.62553 400.57812 86.09428Q400.125 86.5474 400.125 87.37553L399.04688 87.37553Q399.04688 86.18803 399.79688 85.46928Q400.5625 84.7349 401.82812 84.7349Q403.03125 84.7349 403.71875 85.3599Q404.40625 85.9849 404.40625 87.03178Q404.40625 88.28178 402.79688 90.03178L400.51562 92.50053L404.79688 92.50053L404.79688 93.39115ZM411.79688 93.39115L406.20312 93.39115L406.20312 92.6099L409.15625 89.32865Q409.8125 88.57865 410.0625 88.12553Q410.3125 87.65678 410.3125 87.15678Q410.3125 86.4849 409.90625 86.06303Q409.51562 85.62553 408.82812 85.62553Q408.03125 85.62553 407.57812 86.09428Q407.125 86.5474 407.125 87.37553L406.04688 87.37553Q406.04688 86.18803 406.79688 85.46928Q407.5625 84.7349 408.82812 84.7349Q410.03125 84.7349 410.71875 85.3599Q411.40625 85.9849 411.40625 87.03178Q411.40625 88.28178 409.79688 90.03178L407.51562 92.50053L411.79688 92.50053L411.79688 93.39115Z" fill-rule="nonzero"/><path stroke="#4285f4" stroke-width="3.0" stroke-linejoin="round" stroke-linecap="round" d="M487.79688 89.713264L482.20312 89.713264L482.20312 88.932014L485.15625 85.650764Q485.8125 84.900764 486.0625 84.44764Q486.3125 83.97889 486.3125 83.47889Q486.3125 82.807014 485.90625 82.38514Q485.51562 81.94764 484.82812 81.94764Q484.03125 81.94764 483.57812 82.41639Q483.125 82.869514 483.125 83.69764L482.04688 83.69764Q482.04688 82.51014 482.79688 81.79139Q483.5625 81.057014 484.82812 81.057014Q486.03125 81.057014 486.71875 81.682014Q487.40625 82.307014 487.40625 83.35389Q487.40625 84.60389 485.79688 86.35389L483.51562 88.82264L487.79688 88.82264L487.79688 89.713264ZM492.76562 89.713264L491.6875 89.713264L491.6875 82.494514L489.5 83.29139L489.5 82.307014L492.60938 81.13514L492.76562 81.13514L492.76562 89.713264ZM499.76562 89.713264L498.6875 89.713264L498.6875 82.494514L496.5 83.29139L496.5 82.307014L499.60938 81.13514L499.76562 81.13514L499.76562 89.713264ZM507.78125 86.85389L508.96875 86.85389L508.96875 87.72889L507.78125 87.72889L507.78125 89.713264L506.70312 89.713264L506.70312 87.72889L502.8125 87.72889L502.8125 87.088264L506.625 81.182014L507.78125 81.182014L507.78125 86.85389ZM504.04688 86.85389L506.70312 86.85389L506.70312 82.66639L506.5625 82.900764L504.04688 86.85389ZM510.34375 89.150764Q510.34375 88.869514 510.5 88.682014Q510.67188 88.494514 511.0 88.494514Q511.34375 88.494514 511.51562 88.682014Q511.6875 88.869514 511.6875 89.150764Q511.6875 89.41639 511.51562 89.60389Q511.34375 89.775764 511.0 89.775764Q510.67188 89.775764 510.5 89.60389Q510.34375 89.41639 510.34375 89.150764ZM516.7656 89.713264L515.6875 89.713264L515.6875 82.494514L513.5 83.29139L513.5 82.307014L516.6094 81.13514L516.7656 81.13514L516.7656 89.713264ZM525.3906 83.400764Q525.3906 84.04139 525.0469 84.54139Q524.7031 85.04139 524.1406 85.32264Q524.7969 85.60389 525.1875 86.16639Q525.5781 86.713264 525.5781 87.41639Q525.5781 88.51014 524.8281 89.182014Q524.09375 89.838264 522.875 89.838264Q521.6406 89.838264 520.8906 89.182014Q520.15625 88.51014 520.15625 87.41639Q520.15625 86.713264 520.53125 86.16639Q520.90625 85.60389 521.5781 85.32264Q521.0156 85.04139 520.6875 84.54139Q520.3594 84.04139 520.3594 83.400764Q520.3594 82.32264 521.0469 81.69764Q521.7344 81.057014 522.875 81.057014Q524.0 81.057014 524.6875 81.69764Q525.3906 82.32264 525.3906 83.400764ZM524.5 87.38514Q524.5 86.66639 524.0469 86.22889Q523.59375 85.775764 522.8594 85.775764Q522.125 85.775764 521.6719 86.22889Q521.2344 86.66639 521.2344 87.400764Q521.2344 88.119514 521.6719 88.54139Q522.1094 88.94764 522.875 88.94764Q523.625 88.94764 524.0625 88.525764Q524.5 88.10389 524.5 87.38514ZM522.875 81.94764Q522.2344 81.94764 521.8281 82.35389Q521.4375 82.744514 521.4375 83.432014Q521.4375 84.07264 521.8281 84.47889Q522.21875 84.88514 522.8594 84.88514Q523.5156 84.88514 523.90625 84.47889Q524.2969 84.07264 524.2969 83.432014Q524.2969 82.775764 523.8906 82.369514Q523.4844 81.94764 522.875 81.94764Z" fill-rule="nonzero"/><path fill="#ffffff" d="M487.79688 89.713264L482.20312 89.713264L482.20312 88.932014L485.15625 85.650764Q485.8125 84.900764 486.0625 84.44764Q486.3125 83.97889 486.3125 83.47889Q486.3125 82.807014 485.90625 82.38514Q485.51562 81.94764 484.82812 81.94764Q484.03125 81.94764 483.57812 82.41639Q483.125 82.869514 483.125 83.69764L482.04688 83.69764Q482.04688 82.51014 482.79688 81.79139Q483.5625 81.057014 484.82812 81.057014Q486.03125 81.057014 486.71875 81.682014Q487.40625 82.307014 487.40625 83.35389Q487.40625 84.60389 485.79688 86.35389L483.51562 88.82264L487.79688 88.82264L487.79688 89.713264ZM492.76562 89.713264L491.6875 89.713264L491.6875 82.494514L489.5 83.29139L489.5 82.307014L492.60938 81.13514L492.76562 81.13514L492.76562 89.713264ZM499.76562 89.713264L498.6875 89.713264L498.6875 82.494514L496.5 83.29139L496.5 82.307014L499.60938 81.13514L499.76562 81.13514L499.76562 89.713264ZM507.78125 86.85389L508.96875 86.85389L508.96875 87.72889L507.78125 87.72889L507.78125 89.713264L506.70312 89.713264L506.70312 87.72889L502.8125 87.72889L502.8125 87.088264L506.625 81.182014L507.78125 81.182014L507.78125 86.85389ZM504.04688 86.85389L506.70312 86.85389L506.70312 82.66639L506.5625 82.900764L504.04688 86.85389ZM510.34375 89.150764Q510.34375 88.869514 510.5 88.682014Q510.67188 88.494514 511.0 88.494514Q511.34375 88.494514 511.51562 88.682014Q511.6875 88.869514 511.6875 89.150764Q511.6875 89.41639 511.51562 89.60389Q511.34375 89.775764 511.0 89.775764Q510.67188 89.775764 510.5 89.60389Q510.34375 89.41639 510.34375 89.150764ZM516.7656 89.713264L515.6875 89.713264L515.6875 82.494514L513.5 83.29139L513.5 82.307014L516.6094 81.13514L516.7656 81.13514L516.7656 89.713264ZM525.3906 83.400764Q525.3906 84.04139 525.0469 84.54139Q524.7031 85.04139 524.1406 85.32264Q524.7969 85.60389 525.1875 86.16639Q525.5781 86.713264 525.5781 87.41639Q525.5781 88.51014 524.8281 89.182014Q524.09375 89.838264 522.875 89.838264Q521.6406 89.838264 520.8906 89.182014Q520.15625 88.51014 520.15625 87.41639Q520.15625 86.713264 520.53125 86.16639Q520.90625 85.60389 521.5781 85.32264Q521.0156 85.04139 520.6875 84.54139Q520.3594 84.04139 520.3594 83.400764Q520.3594 82.32264 521.0469 81.69764Q521.7344 81.057014 522.875 81.057014Q524.0 81.057014 524.6875 81.69764Q525.3906 82.32264 525.3906 83.400764ZM524.5 87.38514Q524.5 86.66639 524.0469 86.22889Q523.59375 85.775764 522.8594 85.775764Q522.125 85.775764 521.6719 86.22889Q521.2344 86.66639 521.2344 87.400764Q521.2344 88.119514 521.6719 88.54139Q522.1094 88.94764 522.875 88.94764Q523.625 88.94764 524.0625 88.525764Q524.5 88.10389 524.5 87.38514ZM522.875 81.94764Q522.2344 81.94764 521.8281 82.35389Q521.4375 82.744514 521.4375 83.432014Q521.4375 84.07264 521.8281 84.47889Q522.21875 84.88514 522.8594 84.88514Q523.5156 84.88514 523.90625 84.47889Q524.2969 84.07264 524.2969 83.432014Q524.2969 82.775764 523.8906 82.369514Q523.4844 81.94764 522.875 81.94764Z" fill-rule="nonzero"/><path fill="#000000" d="M29.550013 236.0625L20.956263 236.0625L20.956263 232.25Q20.956263 231.09375 21.190638 230.5Q21.425013 229.90625 22.018763 229.54688Q22.596888 229.1875 23.300013 229.1875Q24.221888 229.1875 24.846888 229.78125Q25.471888 230.375 25.643763 231.60938Q25.862513 231.15625 26.065638 230.92188Q26.518763 230.42188 27.206263 229.98438L29.550013 228.48438L29.550013 229.92188L27.768763 231.04688Q26.987513 231.54688 26.581263 231.875Q26.175013 232.1875 26.018763 232.45312Q25.846888 232.70312 25.768763 232.96875Q25.737513 233.15625 25.737513 233.59375L25.737513 234.92188L29.550013 234.92188L29.550013 236.0625ZM24.753138 234.92188L24.753138 232.46875Q24.753138 231.70312 24.596888 231.26562Q24.425013 230.8125 24.081263 230.59375Q23.721888 230.35938 23.300013 230.35938Q22.690638 230.35938 22.300013 230.8125Q21.909388 231.25 21.909388 232.20312L21.909388 234.92188L24.753138 234.92188ZM29.550013 223.125L28.628138 223.125Q29.690638 223.85938 29.690638 225.10938Q29.690638 225.65625 29.487513 226.14062Q29.268763 226.60938 28.956263 226.84375Q28.628138 227.07812 28.159388 227.17188Q27.862513 227.23438 27.175013 227.23438L23.331263 227.23438L23.331263 226.17188L26.784388 226.17188Q27.596888 226.17188 27.893763 226.10938Q28.300013 226.01562 28.550013 225.70312Q28.784388 225.375 28.784388 224.89062Q28.784388 224.42188 28.550013 224.01562Q28.300013 223.59375 27.878138 223.42188Q27.456263 223.23438 26.659388 223.23438L23.331263 223.23438L23.331263 222.1875L29.550013 222.1875L29.550013 223.125ZM29.550013 220.20312L23.331263 220.20312L23.331263 219.26562L24.206263 219.26562Q23.190638 218.57812 23.190638 217.28125Q23.190638 216.71875 23.393763 216.25Q23.596888 215.76562 23.925013 215.53125Q24.253138 215.29688 24.690638 215.20312Q24.987513 215.15625 25.721888 215.15625L29.550013 215.15625L29.550013 216.20312L25.768763 216.20312Q25.112513 216.20312 24.800013 216.32812Q24.487513 216.45312 24.300013 216.76562Q24.096888 217.07812 24.096888 217.5Q24.096888 218.17188 24.534388 218.67188Q24.956263 219.15625 26.143763 219.15625L29.550013 219.15625L29.550013 220.20312ZM28.612513 210.90625L29.534388 210.75Q29.628138 211.20312 29.628138 211.54688Q29.628138 212.125 29.456263 212.4375Q29.268763 212.75 28.971888 212.89062Q28.675013 213.01562 27.721888 213.01562L24.143763 213.01562L24.143763 213.78125L23.331263 213.78125L23.331263 213.01562L21.784388 213.01562L21.159388 211.96875L23.331263 211.96875L23.331263 210.90625L24.143763 210.90625L24.143763 211.96875L27.784388 211.96875Q28.237513 211.96875 28.362513 211.92188Q28.487513 211.85938 28.565638 211.73438Q28.643763 211.60938 28.643763 211.375Q28.643763 211.1875 28.612513 210.90625ZM22.175013 210.20312L20.956263 210.20312L20.956263 209.14062L22.175013 209.14062L22.175013 210.20312ZM29.550013 210.20312L23.331263 210.20312L23.331263 209.14062L29.550013 209.14062L29.550013 210.20312ZM29.550013 207.20312L23.331263 207.20312L23.331263 206.26562L24.206263 206.26562Q23.737513 205.96875 23.471888 205.48438Q23.190638 205.0 23.190638 204.375Q23.190638 203.6875 23.471888 203.25Q23.753138 202.79688 24.268763 202.625Q23.190638 201.875 23.190638 200.70312Q23.190638 199.76562 23.706263 199.28125Q24.206263 198.78125 25.284388 198.78125L29.550013 198.78125L29.550013 199.82812L25.628138 199.82812Q25.003138 199.82812 24.721888 199.9375Q24.440638 200.03125 24.268763 200.29688Q24.096888 200.5625 24.096888 200.9375Q24.096888 201.59375 24.534388 202.03125Q24.971888 202.45312 25.940638 202.45312L29.550013 202.45312L29.550013 203.51562L25.503138 203.51562Q24.800013 203.51562 24.456263 203.78125Q24.096888 204.03125 24.096888 204.60938Q24.096888 205.0625 24.331263 205.4375Q24.565638 205.8125 25.018763 205.98438Q25.471888 206.15625 26.315638 206.15625L29.550013 206.15625L29.550013 207.20312ZM27.550013 192.95312L27.675013 191.85938Q28.628138 192.10938 29.159388 192.8125Q29.690638 193.51562 29.690638 194.59375Q29.690638 195.95312 28.846888 196.76562Q28.003138 197.5625 26.487513 197.5625Q24.925013 197.5625 24.065638 196.75Q23.190638 195.9375 23.190638 194.65625Q23.190638 193.40625 24.034388 192.625Q24.878138 191.82812 26.425013 191.82812Q26.518763 191.82812 26.706263 191.82812L26.706263 196.46875Q27.737513 196.40625 28.284388 195.89062Q28.815638 195.375 28.815638 194.59375Q28.815638 194.01562 28.518763 193.60938Q28.206263 193.1875 27.550013 192.95312ZM25.846888 196.40625L25.846888 192.9375Q25.050013 193.0 24.659388 193.32812Q24.050013 193.84375 24.050013 194.64062Q24.050013 195.375 24.534388 195.875Q25.018763 196.35938 25.846888 196.40625ZM32.08126 185.1875Q30.971888 186.0625 29.503138 186.67188Q28.018763 187.26562 26.440638 187.26562Q25.050013 187.26562 23.768763 186.82812Q22.284388 186.29688 20.815638 185.1875L20.815638 184.4375Q22.034388 185.14062 22.550013 185.375Q23.362513 185.73438 24.237513 185.9375Q25.331263 186.1875 26.440638 186.1875Q29.268763 186.1875 32.08126 184.4375L32.08126 185.1875ZM27.690638 183.625L27.534388 182.59375Q28.159388 182.5 28.487513 182.10938Q28.815638 181.70312 28.815638 180.96875Q28.815638 180.25 28.534388 179.90625Q28.237513 179.54688 27.831263 179.54688Q27.471888 179.54688 27.268763 179.85938Q27.128138 180.07812 26.909388 180.9375Q26.612513 182.09375 26.409388 182.54688Q26.190638 182.98438 25.815638 183.21875Q25.440638 183.45312 24.971888 183.45312Q24.565638 183.45312 24.206263 183.26562Q23.846888 183.07812 23.612513 182.75Q23.440638 182.5 23.315638 182.07812Q23.190638 181.65625 23.190638 181.15625Q23.190638 180.4375 23.409388 179.89062Q23.612513 179.32812 23.971888 179.0625Q24.331263 178.79688 24.925013 178.70312L25.065638 179.73438Q24.596888 179.79688 24.331263 180.14062Q24.050013 180.46875 24.050013 181.09375Q24.050013 181.8125 24.300013 182.125Q24.534388 182.4375 24.862513 182.4375Q25.065638 182.4375 25.221888 182.3125Q25.393763 182.17188 25.503138 181.90625Q25.565638 181.75 25.768763 180.96875Q26.081263 179.84375 26.268763 179.40625Q26.456263 178.96875 26.815638 178.71875Q27.175013 178.46875 27.721888 178.46875Q28.253138 178.46875 28.721888 178.78125Q29.175013 179.07812 29.440638 179.65625Q29.690638 180.23438 29.690638 180.96875Q29.690638 182.1875 29.190638 182.82812Q28.675013 183.45312 27.690638 183.625ZM27.550013 172.95312L27.675013 171.85938Q28.628138 172.10938 29.159388 172.8125Q29.690638 173.51562 29.690638 174.59375Q29.690638 175.95312 28.846888 176.76562Q28.003138 177.5625 26.487513 177.5625Q24.925013 177.5625 24.065638 176.75Q23.190638 175.9375 23.190638 174.65625Q23.190638 173.40625 24.034388 172.625Q24.878138 171.82812 26.425013 171.82812Q26.518763 171.82812 26.706263 171.82812L26.706263 176.46875Q27.737513 176.40625 28.284388 175.89062Q28.815638 175.375 28.815638 174.59375Q28.815638 174.01562 28.518763 173.60938Q28.206263 173.1875 27.550013 172.95312ZM25.846888 176.40625L25.846888 172.9375Q25.050013 173.0 24.659388 173.32812Q24.050013 173.84375 24.050013 174.64062Q24.050013 175.375 24.534388 175.875Q25.018763 176.35938 25.846888 176.40625ZM27.268763 166.14062L27.409388 165.10938Q28.471888 165.28125 29.081263 165.98438Q29.690638 166.6875 29.690638 167.70312Q29.690638 168.98438 28.862513 169.76562Q28.018763 170.53125 26.456263 170.53125Q25.456263 170.53125 24.706263 170.20312Q23.940638 169.85938 23.565638 169.1875Q23.190638 168.5 23.190638 167.6875Q23.190638 166.6875 23.706263 166.04688Q24.206263 165.39062 25.159388 165.20312L25.315638 166.23438Q24.690638 166.375 24.378138 166.75Q24.050013 167.125 24.050013 167.65625Q24.050013 168.45312 24.628138 168.95312Q25.190638 169.45312 26.425013 169.45312Q27.690638 169.45312 28.253138 168.96875Q28.815638 168.48438 28.815638 167.71875Q28.815638 167.09375 28.440638 166.6875Q28.065638 166.26562 27.268763 166.14062ZM26.440638 164.59375Q24.706263 164.59375 23.878138 163.64062Q23.190638 162.84375 23.190638 161.6875Q23.190638 160.40625 24.034388 159.59375Q24.862513 158.76562 26.346888 158.76562Q27.550013 158.76562 28.237513 159.125Q28.925013 159.48438 29.315638 160.1875Q29.690638 160.875 29.690638 161.6875Q29.690638 162.98438 28.862513 163.79688Q28.018763 164.59375 26.440638 164.59375ZM26.440638 163.51562Q27.628138 163.51562 28.221888 163.0Q28.815638 162.46875 28.815638 161.6875Q28.815638 160.89062 28.221888 160.375Q27.628138 159.85938 26.409388 159.85938Q25.253138 159.85938 24.659388 160.39062Q24.065638 160.90625 24.065638 161.6875Q24.065638 162.46875 24.659388 163.0Q25.237513 163.51562 26.440638 163.51562ZM29.550013 157.20312L23.331263 157.20312L23.331263 156.26562L24.206263 156.26562Q23.190638 155.57812 23.190638 154.28125Q23.190638 153.71875 23.393763 153.25Q23.596888 152.76562 23.925013 152.53125Q24.253138 152.29688 24.690638 152.20312Q24.987513 152.15625 25.721888 152.15625L29.550013 152.15625L29.550013 153.20312L25.768763 153.20312Q25.112513 153.20312 24.800013 153.32812Q24.487513 153.45312 24.300013 153.76562Q24.096888 154.07812 24.096888 154.5Q24.096888 155.17188 24.534388 155.67188Q24.956263 156.15625 26.143763 156.15625L29.550013 156.15625L29.550013 157.20312ZM29.550013 146.17188L28.768763 146.17188Q29.690638 146.76562 29.690638 147.90625Q29.690638 148.65625 29.284388 149.28125Q28.862513 149.90625 28.128138 150.25Q27.393763 150.59375 26.440638 150.59375Q25.518763 150.59375 24.753138 150.28125Q23.987513 149.96875 23.596888 149.34375Q23.190638 148.71875 23.190638 147.95312Q23.190638 147.39062 23.425013 146.95312Q23.659388 146.51562 24.034388 146.23438L20.956263 146.23438L20.956263 145.1875L29.550013 145.1875L29.550013 146.17188ZM26.440638 149.5Q27.643763 149.5 28.237513 149.0Q28.815638 148.5 28.815638 147.8125Q28.815638 147.125 28.253138 146.64062Q27.690638 146.15625 26.534388 146.15625Q25.253138 146.15625 24.659388 146.65625Q24.065638 147.14062 24.065638 147.85938Q24.065638 148.5625 24.643763 149.03125Q25.206263 149.5 26.440638 149.5ZM27.690638 143.625L27.534388 142.59375Q28.159388 142.5 28.487513 142.10938Q28.815638 141.70312 28.815638 140.96875Q28.815638 140.25 28.534388 139.90625Q28.237513 139.54688 27.831263 139.54688Q27.471888 139.54688 27.268763 139.85938Q27.128138 140.07812 26.909388 140.9375Q26.612513 142.09375 26.409388 142.54688Q26.190638 142.98438 25.815638 143.21875Q25.440638 143.45312 24.971888 143.45312Q24.565638 143.45312 24.206263 143.26562Q23.846888 143.07812 23.612513 142.75Q23.440638 142.5 23.315638 142.07812Q23.190638 141.65625 23.190638 141.15625Q23.190638 140.4375 23.409388 139.89062Q23.612513 139.32812 23.971888 139.0625Q24.331263 138.79688 24.925013 138.70312L25.065638 139.73438Q24.596888 139.79688 24.331263 140.14062Q24.050013 140.46875 24.050013 141.09375Q24.050013 141.8125 24.300013 142.125Q24.534388 142.4375 24.862513 142.4375Q25.065638 142.4375 25.221888 142.3125Q25.393763 142.17188 25.503138 141.90625Q25.565638 141.75 25.768763 140.96875Q26.081263 139.84375 26.268763 139.40625Q26.456263 138.96875 26.815638 138.71875Q27.175013 138.46875 27.721888 138.46875Q28.253138 138.46875 28.721888 138.78125Q29.175013 139.07812 29.440638 139.65625Q29.690638 140.23438 29.690638 140.96875Q29.690638 142.1875 29.190638 142.82812Q28.675013 143.45312 27.690638 143.625ZM32.08126 136.51562L32.08126 137.26562Q29.268763 135.51562 26.440638 135.51562Q25.346888 135.51562 24.253138 135.76562Q23.378138 135.96875 22.565638 136.32812Q22.050013 136.5625 20.815638 137.26562L20.815638 136.51562Q22.284388 135.42188 23.768763 134.89062Q25.050013 134.4375 26.440638 134.4375Q28.018763 134.4375 29.503138 135.04688Q30.971888 135.65625 32.08126 136.51562Z" fill-rule="nonzero"/><path fill="#000000" d="M72.05 332.21564Q72.05 330.6844 72.3625 329.7625Q72.675 328.825 73.28438 328.325Q73.90938 327.825 74.84688 327.825Q75.53438 327.825 76.05 328.10626Q76.58125 328.3875 76.925 328.91876Q77.26875 329.4344 77.45625 330.1844Q77.64375 330.9344 77.64375 332.21564Q77.64375 333.73126 77.33125 334.65314Q77.03438 335.575 76.40938 336.09064Q75.8 336.59064 74.84688 336.59064Q73.6125 336.59064 72.89375 335.7Q72.05 334.6375 72.05 332.21564ZM73.12813 332.21564Q73.12813 334.325 73.62813 335.02814Q74.12813 335.73126 74.84688 335.73126Q75.58125 335.73126 76.06563 335.02814Q76.56563 334.325 76.56563 332.21564Q76.56563 330.09064 76.06563 329.40314Q75.58125 328.7 74.83125 328.7Q74.1125 328.7 73.675 329.3094Q73.12813 330.09064 73.12813 332.21564Z" fill-rule="nonzero"/><path fill="#000000" d="M58.05 272.82L59.159374 272.72626Q59.284374 273.53876 59.721874 273.945Q60.175 274.35126 60.815624 274.35126Q61.565624 274.35126 62.096874 273.77313Q62.628124 273.195 62.628124 272.2575Q62.628124 271.35126 62.1125 270.83563Q61.6125 270.30438 60.784374 270.30438Q60.284374 270.30438 59.8625 270.53876Q59.45625 270.77313 59.221874 271.1325L58.2375 271.0075L59.065624 266.60126L63.346874 266.60126L63.346874 267.60126L59.909374 267.60126L59.45625 269.91376Q60.221874 269.36688 61.065624 269.36688Q62.190624 269.36688 62.95625 270.14813Q63.7375 270.92938 63.7375 272.16376Q63.7375 273.32 63.065624 274.17938Q62.2375 275.21063 60.815624 275.21063Q59.64375 275.21063 58.89375 274.55438Q58.159374 273.89813 58.05 272.82ZM65.05 270.83563Q65.05 269.30438 65.3625 268.3825Q65.675 267.445 66.28438 266.945Q66.90938 266.445 67.84688 266.445Q68.53438 266.445 69.05 266.72626Q69.58125 267.0075 69.925 267.53876Q70.26875 268.05438 70.45625 268.80438Q70.64375 269.55438 70.64375 270.83563Q70.64375 272.35126 70.33125 273.27313Q70.03438 274.195 69.40938 274.71063Q68.8 275.21063 67.84688 275.21063Q66.6125 275.21063 65.89375 274.32Q65.05 273.2575 65.05 270.83563ZM66.12813 270.83563Q66.12813 272.945 66.62813 273.64813Q67.12813 274.35126 67.84688 274.35126Q68.58125 274.35126 69.06563 273.64813Q69.56563 272.945 69.56563 270.83563Q69.56563 268.71063 69.06563 268.02313Q68.58125 267.32 67.83125 267.32Q67.1125 267.32 66.675 267.92938Q66.12813 268.71063 66.12813 270.83563ZM72.05 270.83563Q72.05 269.30438 72.3625 268.3825Q72.675 267.445 73.28438 266.945Q73.90938 266.445 74.84688 266.445Q75.53438 266.445 76.05 266.72626Q76.58125 267.0075 76.925 267.53876Q77.26875 268.05438 77.45625 268.80438Q77.64375 269.55438 77.64375 270.83563Q77.64375 272.35126 77.33125 273.27313Q77.03438 274.195 76.40938 274.71063Q75.8 275.21063 74.84688 275.21063Q73.6125 275.21063 72.89375 274.32Q72.05 273.2575 72.05 270.83563ZM73.12813 270.83563Q73.12813 272.945 73.62813 273.64813Q74.12813 274.35126 74.84688 274.35126Q75.58125 274.35126 76.06563 273.64813Q76.56563 272.945 76.56563 270.83563Q76.56563 268.71063 76.06563 268.02313Q75.58125 267.32 74.83125 267.32Q74.1125 267.32 73.675 267.92938Q73.12813 268.71063 73.12813 270.83563Z" fill-rule="nonzero"/><path fill="#000000" d="M55.01875 213.69L53.971874 213.69L53.971874 206.97125Q53.58125 207.33063 52.95625 207.70563Q52.346874 208.065 51.8625 208.23688L51.8625 207.22125Q52.7375 206.79938 53.39375 206.22125Q54.065624 205.6275 54.346874 205.065L55.01875 205.065L55.01875 213.69ZM58.05 209.45563Q58.05 207.92438 58.3625 207.0025Q58.675 206.065 59.284374 205.565Q59.909374 205.065 60.846874 205.065Q61.534374 205.065 62.05 205.34625Q62.58125 205.6275 62.925 206.15875Q63.26875 206.67438 63.45625 207.42438Q63.64375 208.17438 63.64375 209.45563Q63.64375 210.97125 63.33125 211.89313Q63.034374 212.815 62.409374 213.33063Q61.8 213.83063 60.846874 213.83063Q59.6125 213.83063 58.89375 212.94Q58.05 211.8775 58.05 209.45563ZM59.128124 209.45563Q59.128124 211.565 59.628124 212.26813Q60.128124 212.97125 60.846874 212.97125Q61.58125 212.97125 62.065624 212.26813Q62.565624 211.565 62.565624 209.45563Q62.565624 207.33063 62.065624 206.64313Q61.58125 205.94 60.83125 205.94Q60.1125 205.94 59.675 206.54938Q59.128124 207.33063 59.128124 209.45563ZM65.05 209.45563Q65.05 207.92438 65.3625 207.0025Q65.675 206.065 66.28438 205.565Q66.90938 205.065 67.84688 205.065Q68.53438 205.065 69.05 205.34625Q69.58125 205.6275 69.925 206.15875Q70.26875 206.67438 70.45625 207.42438Q70.64375 208.17438 70.64375 209.45563Q70.64375 210.97125 70.33125 211.89313Q70.03438 212.815 69.40938 213.33063Q68.8 213.83063 67.84688 213.83063Q66.6125 213.83063 65.89375 212.94Q65.05 211.8775 65.05 209.45563ZM66.12813 209.45563Q66.12813 211.565 66.62813 212.26813Q67.12813 212.97125 67.84688 212.97125Q68.58125 212.97125 69.06563 212.26813Q69.56563 211.565 69.56563 209.45563Q69.56563 207.33063 69.06563 206.64313Q68.58125 205.94 67.83125 205.94Q67.1125 205.94 66.675 206.54938Q66.12813 207.33063 66.12813 209.45563ZM72.05 209.45563Q72.05 207.92438 72.3625 207.0025Q72.675 206.065 73.28438 205.565Q73.90938 205.065 74.84688 205.065Q75.53438 205.065 76.05 205.34625Q76.58125 205.6275 76.925 206.15875Q77.26875 206.67438 77.45625 207.42438Q77.64375 208.17438 77.64375 209.45563Q77.64375 210.97125 77.33125 211.89313Q77.03438 212.815 76.40938 213.33063Q75.8 213.83063 74.84688 213.83063Q73.6125 213.83063 72.89375 212.94Q72.05 211.8775 72.05 209.45563ZM73.12813 209.45563Q73.12813 211.565 73.62813 212.26813Q74.12813 212.97125 74.84688 212.97125Q75.58125 212.97125 76.06563 212.26813Q76.56563 211.565 76.56563 209.45563Q76.56563 207.33063 76.06563 206.64313Q75.58125 205.94 74.83125 205.94Q74.1125 205.94 73.675 206.54938Q73.12813 207.33063 73.12813 209.45563Z" fill-rule="nonzero"/><path fill="#000000" d="M55.01875 152.31L53.971874 152.31L53.971874 145.59125Q53.58125 145.95062 52.95625 146.32562Q52.346874 146.685 51.8625 146.85687L51.8625 145.84125Q52.7375 145.41937 53.39375 144.84125Q54.065624 144.2475 54.346874 143.685L55.01875 143.685L55.01875 152.31ZM58.05 150.06L59.159374 149.96625Q59.284374 150.77875 59.721874 151.185Q60.175 151.59125 60.815624 151.59125Q61.565624 151.59125 62.096874 151.01312Q62.628124 150.435 62.628124 149.4975Q62.628124 148.59125 62.1125 148.07562Q61.6125 147.54437 60.784374 147.54437Q60.284374 147.54437 59.8625 147.77875Q59.45625 148.01312 59.221874 148.3725L58.2375 148.2475L59.065624 143.84125L63.346874 143.84125L63.346874 144.84125L59.909374 144.84125L59.45625 147.15375Q60.221874 146.60687 61.065624 146.60687Q62.190624 146.60687 62.95625 147.38812Q63.7375 148.16937 63.7375 149.40375Q63.7375 150.56 63.065624 151.41937Q62.2375 152.45062 60.815624 152.45062Q59.64375 152.45062 58.89375 151.79437Q58.159374 151.13812 58.05 150.06ZM65.05 148.07562Q65.05 146.54437 65.3625 145.6225Q65.675 144.685 66.28438 144.185Q66.90938 143.685 67.84688 143.685Q68.53438 143.685 69.05 143.96625Q69.58125 144.2475 69.925 144.77875Q70.26875 145.29437 70.45625 146.04437Q70.64375 146.79437 70.64375 148.07562Q70.64375 149.59125 70.33125 150.51312Q70.03438 151.435 69.40938 151.95062Q68.8 152.45062 67.84688 152.45062Q66.6125 152.45062 65.89375 151.56Q65.05 150.4975 65.05 148.07562ZM66.12813 148.07562Q66.12813 150.185 66.62813 150.88812Q67.12813 151.59125 67.84688 151.59125Q68.58125 151.59125 69.06563 150.88812Q69.56563 150.185 69.56563 148.07562Q69.56563 145.95062 69.06563 145.26312Q68.58125 144.56 67.83125 144.56Q67.1125 144.56 66.675 145.16937Q66.12813 145.95062 66.12813 148.07562ZM72.05 148.07562Q72.05 146.54437 72.3625 145.6225Q72.675 144.685 73.28438 144.185Q73.90938 143.685 74.84688 143.685Q75.53438 143.685 76.05 143.96625Q76.58125 144.2475 76.925 144.77875Q77.26875 145.29437 77.45625 146.04437Q77.64375 146.79437 77.64375 148.07562Q77.64375 149.59125 77.33125 150.51312Q77.03438 151.435 76.40938 151.95062Q75.8 152.45062 74.84688 152.45062Q73.6125 152.45062 72.89375 151.56Q72.05 150.4975 72.05 148.07562ZM73.12813 148.07562Q73.12813 150.185 73.62813 150.88812Q74.12813 151.59125 74.84688 151.59125Q75.58125 151.59125 76.06563 150.88812Q76.56563 150.185 76.56563 148.07562Q76.56563 145.95062 76.06563 145.26312Q75.58125 144.56 74.83125 144.56Q74.1125 144.56 73.675 145.16937Q73.12813 145.95062 73.12813 148.07562Z" fill-rule="nonzero"/><path fill="#000000" d="M56.596874 89.914375L56.596874 90.93L50.909374 90.93Q50.909374 90.555 51.034374 90.195625Q51.253124 89.6175 51.721874 89.055Q52.20625 88.4925 53.1125 87.758125Q54.51875 86.601875 55.003124 85.93Q55.503124 85.258125 55.503124 84.664375Q55.503124 84.039375 55.05 83.6175Q54.596874 83.18 53.878124 83.18Q53.1125 83.18 52.659374 83.633125Q52.20625 84.08625 52.190624 84.89875L51.1125 84.789375Q51.221874 83.570625 51.940624 82.945625Q52.675 82.305 53.909374 82.305Q55.14375 82.305 55.8625 82.9925Q56.58125 83.68 56.58125 84.695625Q56.58125 85.21125 56.3625 85.71125Q56.159374 86.195625 55.659374 86.758125Q55.175 87.305 54.05 88.258125Q53.096874 89.055 52.815624 89.351875Q52.55 89.633125 52.378124 89.914375L56.596874 89.914375ZM58.05 86.695625Q58.05 85.164375 58.3625 84.2425Q58.675 83.305 59.284374 82.805Q59.909374 82.305 60.846874 82.305Q61.534374 82.305 62.05 82.58625Q62.58125 82.8675 62.925 83.39875Q63.26875 83.914375 63.45625 84.664375Q63.64375 85.414375 63.64375 86.695625Q63.64375 88.21125 63.33125 89.133125Q63.034374 90.055 62.409374 90.570625Q61.8 91.070625 60.846874 91.070625Q59.6125 91.070625 58.89375 90.18Q58.05 89.1175 58.05 86.695625ZM59.128124 86.695625Q59.128124 88.805 59.628124 89.508125Q60.128124 90.21125 60.846874 90.21125Q61.58125 90.21125 62.065624 89.508125Q62.565624 88.805 62.565624 86.695625Q62.565624 84.570625 62.065624 83.883125Q61.58125 83.18 60.83125 83.18Q60.1125 83.18 59.675 83.789375Q59.128124 84.570625 59.128124 86.695625ZM65.05 86.695625Q65.05 85.164375 65.3625 84.2425Q65.675 83.305 66.28438 82.805Q66.90938 82.305 67.84688 82.305Q68.53438 82.305 69.05 82.58625Q69.58125 82.8675 69.925 83.39875Q70.26875 83.914375 70.45625 84.664375Q70.64375 85.414375 70.64375 86.695625Q70.64375 88.21125 70.33125 89.133125Q70.03438 90.055 69.40938 90.570625Q68.8 91.070625 67.84688 91.070625Q66.6125 91.070625 65.89375 90.18Q65.05 89.1175 65.05 86.695625ZM66.12813 86.695625Q66.12813 88.805 66.62813 89.508125Q67.12813 90.21125 67.84688 90.21125Q68.58125 90.21125 69.06563 89.508125Q69.56563 88.805 69.56563 86.695625Q69.56563 84.570625 69.06563 83.883125Q68.58125 83.18 67.83125 83.18Q67.1125 83.18 66.675 83.789375Q66.12813 84.570625 66.12813 86.695625ZM72.05 86.695625Q72.05 85.164375 72.3625 84.2425Q72.675 83.305 73.28438 82.805Q73.90938 82.305 74.84688 82.305Q75.53438 82.305 76.05 82.58625Q76.58125 82.8675 76.925 83.39875Q77.26875 83.914375 77.45625 84.664375Q77.64375 85.414375 77.64375 86.695625Q77.64375 88.21125 77.33125 89.133125Q77.03438 90.055 76.40938 90.570625Q75.8 91.070625 74.84688 91.070625Q73.6125 91.070625 72.89375 90.18Q72.05 89.1175 72.05 86.695625ZM73.12813 86.695625Q73.12813 88.805 73.62813 89.508125Q74.12813 90.21125 74.84688 90.21125Q75.58125 90.21125 76.06563 89.508125Q76.56563 88.805 76.56563 86.695625Q76.56563 84.570625 76.06563 83.883125Q75.58125 83.18 74.83125 83.18Q74.1125 83.18 73.675 83.789375Q73.12813 84.570625 73.12813 86.695625Z" fill-rule="nonzero"/><path fill="#000000" d="M56.596874 28.534374L56.596874 29.55L50.909374 29.55Q50.909374 29.175 51.034374 28.815624Q51.253124 28.2375 51.721874 27.675Q52.20625 27.1125 53.1125 26.378124Q54.51875 25.221874 55.003124 24.55Q55.503124 23.878124 55.503124 23.284374Q55.503124 22.659374 55.05 22.2375Q54.596874 21.8 53.878124 21.8Q53.1125 21.8 52.659374 22.253124Q52.20625 22.70625 52.190624 23.51875L51.1125 23.409374Q51.221874 22.190624 51.940624 21.565624Q52.675 20.925 53.909374 20.925Q55.14375 20.925 55.8625 21.6125Q56.58125 22.3 56.58125 23.315624Q56.58125 23.83125 56.3625 24.33125Q56.159374 24.815624 55.659374 25.378124Q55.175 25.925 54.05 26.878124Q53.096874 27.675 52.815624 27.971874Q52.55 28.253124 52.378124 28.534374L56.596874 28.534374ZM58.05 27.3L59.159374 27.20625Q59.284374 28.01875 59.721874 28.425Q60.175 28.83125 60.815624 28.83125Q61.565624 28.83125 62.096874 28.253124Q62.628124 27.675 62.628124 26.7375Q62.628124 25.83125 62.1125 25.315624Q61.6125 24.784374 60.784374 24.784374Q60.284374 24.784374 59.8625 25.01875Q59.45625 25.253124 59.221874 25.6125L58.2375 25.4875L59.065624 21.08125L63.346874 21.08125L63.346874 22.08125L59.909374 22.08125L59.45625 24.39375Q60.221874 23.846874 61.065624 23.846874Q62.190624 23.846874 62.95625 24.628124Q63.7375 25.409374 63.7375 26.64375Q63.7375 27.8 63.065624 28.659374Q62.2375 29.690624 60.815624 29.690624Q59.64375 29.690624 58.89375 29.034374Q58.159374 28.378124 58.05 27.3ZM65.05 25.315624Q65.05 23.784374 65.3625 22.8625Q65.675 21.925 66.28438 21.425Q66.90938 20.925 67.84688 20.925Q68.53438 20.925 69.05 21.20625Q69.58125 21.4875 69.925 22.01875Q70.26875 22.534374 70.45625 23.284374Q70.64375 24.034374 70.64375 25.315624Q70.64375 26.83125 70.33125 27.753124Q70.03438 28.675 69.40938 29.190624Q68.8 29.690624 67.84688 29.690624Q66.6125 29.690624 65.89375 28.8Q65.05 27.7375 65.05 25.315624ZM66.12813 25.315624Q66.12813 27.425 66.62813 28.128124Q67.12813 28.83125 67.84688 28.83125Q68.58125 28.83125 69.06563 28.128124Q69.56563 27.425 69.56563 25.315624Q69.56563 23.190624 69.06563 22.503124Q68.58125 21.8 67.83125 21.8Q67.1125 21.8 66.675 22.409374Q66.12813 23.190624 66.12813 25.315624ZM72.05 25.315624Q72.05 23.784374 72.3625 22.8625Q72.675 21.925 73.28438 21.425Q73.90938 20.925 74.84688 20.925Q75.53438 20.925 76.05 21.20625Q76.58125 21.4875 76.925 22.01875Q77.26875 22.534374 77.45625 23.284374Q77.64375 24.034374 77.64375 25.315624Q77.64375 26.83125 77.33125 27.753124Q77.03438 28.675 76.40938 29.190624Q75.8 29.690624 74.84688 29.690624Q73.6125 29.690624 72.89375 28.8Q72.05 27.7375 72.05 25.315624ZM73.12813 25.315624Q73.12813 27.425 73.62813 28.128124Q74.12813 28.83125 74.84688 28.83125Q75.58125 28.83125 76.06563 28.128124Q76.56563 27.425 76.56563 25.315624Q76.56563 23.190624 76.06563 22.503124Q75.58125 21.8 74.83125 21.8Q74.1125 21.8 73.675 22.409374Q73.12813 23.190624 73.12813 25.315624Z" fill-rule="nonzero"/><path fill="#000000" d="M134.57704 349.45L134.57704 340.85626L137.54579 340.85626Q138.54579 340.85626 139.07704 340.98126Q139.81142 341.15314 140.32704 341.59064Q141.01454 342.16876 141.34267 343.075Q141.68642 343.96564 141.68642 345.10626Q141.68642 346.09064 141.45204 346.84064Q141.23329 347.59064 140.87392 348.09064Q140.51454 348.59064 140.07704 348.8719Q139.65517 349.15314 139.06142 349.3094Q138.46767 349.45 137.68642 349.45L134.57704 349.45ZM135.71767 348.4344L137.54579 348.4344Q138.40517 348.4344 138.88954 348.27814Q139.37392 348.1219 139.65517 347.825Q140.06142 347.4344 140.28017 346.7469Q140.51454 346.0594 140.51454 345.09064Q140.51454 343.7469 140.06142 343.02814Q139.62392 342.29376 138.99892 342.04376Q138.53017 341.8719 137.53017 341.8719L135.71767 341.8719L135.71767 348.4344ZM146.03017 349.45L142.70204 340.85626L143.93642 340.85626L146.17079 347.10626Q146.43642 347.85626 146.62392 348.5125Q146.82704 347.8094 147.09267 347.10626L149.40517 340.85626L150.56142 340.85626L147.20204 349.45L146.03017 349.45ZM157.71767 346.4344L158.84267 346.73126Q158.48329 348.1219 157.56142 348.85626Q156.63954 349.59064 155.29579 349.59064Q153.90517 349.59064 153.03017 349.02814Q152.15517 348.46564 151.70204 347.40314Q151.24892 346.325 151.24892 345.09064Q151.24892 343.7469 151.76454 342.7469Q152.28017 341.7469 153.21767 341.23126Q154.17079 340.71564 155.31142 340.71564Q156.59267 340.71564 157.46767 341.3719Q158.35829 342.02814 158.70204 343.21564L157.57704 343.48126Q157.28017 342.54376 156.70204 342.1219Q156.13954 341.6844 155.28017 341.6844Q154.29579 341.6844 153.62392 342.16876Q152.96767 342.6375 152.68642 343.4344Q152.42079 344.23126 152.42079 345.09064Q152.42079 346.1844 152.73329 346.9969Q153.06142 347.8094 153.73329 348.21564Q154.40517 348.6219 155.20204 348.6219Q156.15517 348.6219 156.81142 348.075Q157.48329 347.52814 157.71767 346.4344ZM167.12392 349.45L166.07704 349.45L166.07704 342.73126Q165.68642 343.09064 165.06142 343.46564Q164.45204 343.825 163.96767 343.9969L163.96767 342.98126Q164.84267 342.5594 165.49892 341.98126Q166.17079 341.3875 166.45204 340.825L167.12392 340.825L167.12392 349.45ZM170.74892 349.45L170.74892 348.2469L171.95204 348.2469L171.95204 349.45L170.74892 349.45ZM173.15517 345.21564Q173.15517 343.6844 173.46767 342.7625Q173.78017 341.825 174.38954 341.325Q175.01454 340.825 175.95204 340.825Q176.63954 340.825 177.15517 341.10626Q177.68642 341.3875 178.03017 341.91876Q178.37392 342.4344 178.56142 343.1844Q178.74892 343.9344 178.74892 345.21564Q178.74892 346.73126 178.43642 347.65314Q178.13954 348.575 177.51454 349.09064Q176.90517 349.59064 175.95204 349.59064Q174.71767 349.59064 173.99892 348.7Q173.15517 347.6375 173.15517 345.21564ZM174.23329 345.21564Q174.23329 347.325 174.73329 348.02814Q175.23329 348.73126 175.95204 348.73126Q176.68642 348.73126 177.17079 348.02814Q177.67079 347.325 177.67079 345.21564Q177.67079 343.09064 177.17079 342.40314Q176.68642 341.7 175.93642 341.7Q175.21767 341.7 174.78017 342.3094Q174.23329 343.09064 174.23329 345.21564ZM180.74892 349.45L180.74892 348.2469L181.95204 348.2469L181.95204 349.45L180.74892 349.45ZM183.15517 345.21564Q183.15517 343.6844 183.46767 342.7625Q183.78017 341.825 184.38954 341.325Q185.01454 340.825 185.95204 340.825Q186.63954 340.825 187.15517 341.10626Q187.68642 341.3875 188.03017 341.91876Q188.37392 342.4344 188.56142 343.1844Q188.74892 343.9344 188.74892 345.21564Q188.74892 346.73126 188.43642 347.65314Q188.13954 348.575 187.51454 349.09064Q186.90517 349.59064 185.95204 349.59064Q184.71767 349.59064 183.99892 348.7Q183.15517 347.6375 183.15517 345.21564ZM184.23329 345.21564Q184.23329 347.325 184.73329 348.02814Q185.23329 348.73126 185.95204 348.73126Q186.68642 348.73126 187.17079 348.02814Q187.67079 347.325 187.67079 345.21564Q187.67079 343.09064 187.17079 342.40314Q186.68642 341.7 185.93642 341.7Q185.21767 341.7 184.78017 342.3094Q184.23329 343.09064 184.23329 345.21564Z" fill-rule="nonzero"/><path fill="#000000" d="M245.30693 349.45L245.30693 340.85626L248.27568 340.85626Q249.27568 340.85626 249.80693 340.98126Q250.5413 341.15314 251.05693 341.59064Q251.74443 342.16876 252.07256 343.075Q252.4163 343.96564 252.4163 345.10626Q252.4163 346.09064 252.18193 346.84064Q251.96318 347.59064 251.6038 348.09064Q251.24443 348.59064 250.80693 348.8719Q250.38506 349.15314 249.7913 349.3094Q249.19756 349.45 248.4163 349.45L245.30693 349.45ZM246.44756 348.4344L248.27568 348.4344Q249.13506 348.4344 249.61943 348.27814Q250.1038 348.1219 250.38506 347.825Q250.7913 347.4344 251.01006 346.7469Q251.24443 346.0594 251.24443 345.09064Q251.24443 343.7469 250.7913 343.02814Q250.3538 342.29376 249.7288 342.04376Q249.26006 341.8719 248.26006 341.8719L246.44756 341.8719L246.44756 348.4344ZM256.76007 349.45L253.43193 340.85626L254.6663 340.85626L256.9007 347.10626Q257.16632 347.85626 257.35382 348.5125Q257.55695 347.8094 257.82257 347.10626L260.13507 340.85626L261.29132 340.85626L257.93195 349.45L256.76007 349.45ZM268.44757 346.4344L269.57257 346.73126Q269.2132 348.1219 268.29132 348.85626Q267.36945 349.59064 266.0257 349.59064Q264.63507 349.59064 263.76007 349.02814Q262.88507 348.46564 262.43195 347.40314Q261.97882 346.325 261.97882 345.09064Q261.97882 343.7469 262.49445 342.7469Q263.01007 341.7469 263.94757 341.23126Q264.9007 340.71564 266.04132 340.71564Q267.32257 340.71564 268.19757 341.3719Q269.0882 342.02814 269.43195 343.21564L268.30695 343.48126Q268.01007 342.54376 267.43195 342.1219Q266.86945 341.6844 266.01007 341.6844Q265.0257 341.6844 264.35382 342.16876Q263.69757 342.6375 263.41632 343.4344Q263.1507 344.23126 263.1507 345.09064Q263.1507 346.1844 263.4632 346.9969Q263.79132 347.8094 264.4632 348.21564Q265.13507 348.6219 265.93195 348.6219Q266.88507 348.6219 267.54132 348.075Q268.2132 347.52814 268.44757 346.4344ZM273.88507 345.21564Q273.88507 343.6844 274.19757 342.7625Q274.51007 341.825 275.11945 341.325Q275.74445 340.825 276.68195 340.825Q277.36945 340.825 277.88507 341.10626Q278.41632 341.3875 278.76007 341.91876Q279.10382 342.4344 279.29132 343.1844Q279.47882 343.9344 279.47882 345.21564Q279.47882 346.73126 279.16632 347.65314Q278.86945 348.575 278.24445 349.09064Q277.63507 349.59064 276.68195 349.59064Q275.44757 349.59064 274.72882 348.7Q273.88507 347.6375 273.88507 345.21564ZM274.9632 345.21564Q274.9632 347.325 275.4632 348.02814Q275.9632 348.73126 276.68195 348.73126Q277.41632 348.73126 277.9007 348.02814Q278.4007 347.325 278.4007 345.21564Q278.4007 343.09064 277.9007 342.40314Q277.41632 341.7 276.66632 341.7Q275.94757 341.7 275.51007 342.3094Q274.9632 343.09064 274.9632 345.21564ZM281.47882 349.45L281.47882 348.2469L282.68195 348.2469L282.68195 349.45L281.47882 349.45ZM284.04132 347.46564L285.05695 347.3719Q285.18195 348.09064 285.54132 348.41876Q285.91632 348.73126 286.47882 348.73126Q286.9632 348.73126 287.32257 348.5125Q287.69757 348.27814 287.93195 347.91876Q288.16632 347.54376 288.32257 346.91876Q288.47882 346.27814 288.47882 345.6219Q288.47882 345.54376 288.47882 345.40314Q288.16632 345.90314 287.61945 346.23126Q287.07257 346.54376 286.43195 346.54376Q285.35382 346.54376 284.61945 345.77814Q283.88507 344.9969 283.88507 343.73126Q283.88507 342.41876 284.6507 341.6219Q285.43195 340.825 286.5882 340.825Q287.41632 340.825 288.10382 341.27814Q288.80695 341.73126 289.16632 342.575Q289.5257 343.40314 289.5257 344.98126Q289.5257 346.6219 289.16632 347.60626Q288.82257 348.575 288.10382 349.09064Q287.4007 349.59064 286.4632 349.59064Q285.44757 349.59064 284.80695 349.04376Q284.16632 348.48126 284.04132 347.46564ZM288.35382 343.66876Q288.35382 342.7625 287.86945 342.23126Q287.4007 341.7 286.7132 341.7Q286.01007 341.7 285.47882 342.27814Q284.9632 342.84064 284.9632 343.7625Q284.9632 344.575 285.4632 345.09064Q285.9632 345.60626 286.68195 345.60626Q287.41632 345.60626 287.88507 345.09064Q288.35382 344.575 288.35382 343.66876ZM294.85382 349.45L293.80695 349.45L293.80695 342.73126Q293.41632 343.09064 292.79132 343.46564Q292.18195 343.825 291.69757 343.9969L291.69757 342.98126Q292.57257 342.5594 293.22882 341.98126Q293.9007 341.3875 294.18195 340.825L294.85382 340.825L294.85382 349.45ZM298.47882 349.45L298.47882 348.2469L299.68195 348.2469L299.68195 349.45L298.47882 349.45ZM300.88507 345.21564Q300.88507 343.6844 301.19757 342.7625Q301.51007 341.825 302.11945 341.325Q302.74445 340.825 303.68195 340.825Q304.36945 340.825 304.88507 341.10626Q305.41632 341.3875 305.76007 341.91876Q306.10382 342.4344 306.29132 343.1844Q306.47882 343.9344 306.47882 345.21564Q306.47882 346.73126 306.16632 347.65314Q305.86945 348.575 305.24445 349.09064Q304.63507 349.59064 303.68195 349.59064Q302.44757 349.59064 301.72882 348.7Q300.88507 347.6375 300.88507 345.21564ZM301.9632 345.21564Q301.9632 347.325 302.4632 348.02814Q302.9632 348.73126 303.68195 348.73126Q304.41632 348.73126 304.9007 348.02814Q305.4007 347.325 305.4007 345.21564Q305.4007 343.09064 304.9007 342.40314Q304.41632 341.7 303.66632 341.7Q302.94757 341.7 302.51007 342.3094Q301.9632 343.09064 301.9632 345.21564Z" fill-rule="nonzero"/><path fill="#000000" d="M373.89618 349.45L373.89618 343.23126L374.8493 343.23126L374.8493 344.16876Q375.20868 343.5125 375.50555 343.3094Q375.81805 343.09064 376.19305 343.09064Q376.7243 343.09064 377.27118 343.41876L376.9118 344.40314Q376.52118 344.16876 376.14618 344.16876Q375.7868 344.16876 375.50555 344.3875Q375.23993 344.59064 375.13055 344.96564Q374.94305 345.52814 374.94305 346.1844L374.94305 349.45L373.89618 349.45ZM381.9743 347.16876L383.00555 347.3094Q382.83368 348.3719 382.13055 348.98126Q381.42743 349.59064 380.4118 349.59064Q379.13055 349.59064 378.3493 348.7625Q377.58368 347.91876 377.58368 346.35626Q377.58368 345.35626 377.9118 344.60626Q378.25555 343.84064 378.92743 343.46564Q379.61493 343.09064 380.42743 343.09064Q381.42743 343.09064 382.06805 343.60626Q382.7243 344.10626 382.9118 345.0594L381.88055 345.21564Q381.73993 344.59064 381.36493 344.27814Q380.98993 343.95 380.45868 343.95Q379.6618 343.95 379.1618 344.52814Q378.6618 345.09064 378.6618 346.325Q378.6618 347.59064 379.14618 348.15314Q379.63055 348.71564 380.39618 348.71564Q381.02118 348.71564 381.42743 348.34064Q381.8493 347.96564 381.9743 347.16876ZM383.88055 349.45L383.88055 340.85626L384.94305 340.85626L384.94305 349.45L383.88055 349.45ZM386.52118 346.34064Q386.52118 344.60626 387.4743 343.77814Q388.27118 343.09064 389.42743 343.09064Q390.70868 343.09064 391.52118 343.9344Q392.3493 344.7625 392.3493 346.2469Q392.3493 347.45 391.98993 348.1375Q391.63055 348.825 390.92743 349.21564Q390.23993 349.59064 389.42743 349.59064Q388.13055 349.59064 387.31805 348.7625Q386.52118 347.91876 386.52118 346.34064ZM387.5993 346.34064Q387.5993 347.52814 388.11493 348.1219Q388.64618 348.71564 389.42743 348.71564Q390.2243 348.71564 390.73993 348.1219Q391.25555 347.52814 391.25555 346.3094Q391.25555 345.15314 390.7243 344.5594Q390.20868 343.96564 389.42743 343.96564Q388.64618 343.96564 388.11493 344.5594Q387.5993 345.1375 387.5993 346.34064ZM393.9118 349.45L393.9118 343.23126L394.8493 343.23126L394.8493 344.10626Q395.5368 343.09064 396.83368 343.09064Q397.39618 343.09064 397.86493 343.29376Q398.3493 343.4969 398.58368 343.825Q398.81805 344.15314 398.9118 344.59064Q398.95868 344.8875 398.95868 345.6219L398.95868 349.45L397.9118 349.45L397.9118 345.66876Q397.9118 345.0125 397.7868 344.7Q397.6618 344.3875 397.3493 344.2Q397.0368 343.9969 396.61493 343.9969Q395.94305 343.9969 395.44305 344.4344Q394.95868 344.85626 394.95868 346.04376L394.95868 349.45L393.9118 349.45ZM405.1618 347.45L406.25555 347.575Q406.00555 348.52814 405.30243 349.0594Q404.5993 349.59064 403.52118 349.59064Q402.1618 349.59064 401.3493 348.7469Q400.55243 347.90314 400.55243 346.3875Q400.55243 344.825 401.36493 343.96564Q402.17743 343.09064 403.45868 343.09064Q404.70868 343.09064 405.48993 343.9344Q406.2868 344.77814 406.2868 346.325Q406.2868 346.41876 406.2868 346.60626L401.64618 346.60626Q401.70868 347.6375 402.2243 348.1844Q402.73993 348.71564 403.52118 348.71564Q404.0993 348.71564 404.50555 348.41876Q404.92743 348.10626 405.1618 347.45ZM401.70868 345.7469L405.17743 345.7469Q405.11493 344.95 404.7868 344.5594Q404.27118 343.95 403.4743 343.95Q402.73993 343.95 402.23993 344.4344Q401.75555 344.91876 401.70868 345.7469Z" fill-rule="nonzero"/><path fill="#000000" d="M447.62607 349.45L447.62607 343.23126L448.5792 343.23126L448.5792 344.16876Q448.93857 343.5125 449.23544 343.3094Q449.54794 343.09064 449.92294 343.09064Q450.4542 343.09064 451.00107 343.41876L450.6417 344.40314Q450.25107 344.16876 449.87607 344.16876Q449.5167 344.16876 449.23544 344.3875Q448.96982 344.59064 448.86044 344.96564Q448.67294 345.52814 448.67294 346.1844L448.67294 349.45L447.62607 349.45ZM455.7042 347.16876L456.73544 347.3094Q456.56357 348.3719 455.86044 348.98126Q455.15732 349.59064 454.1417 349.59064Q452.86044 349.59064 452.0792 348.7625Q451.31357 347.91876 451.31357 346.35626Q451.31357 345.35626 451.6417 344.60626Q451.98544 343.84064 452.65732 343.46564Q453.34482 343.09064 454.15732 343.09064Q455.15732 343.09064 455.79794 343.60626Q456.4542 344.10626 456.6417 345.0594L455.61044 345.21564Q455.46982 344.59064 455.09482 344.27814Q454.71982 343.95 454.18857 343.95Q453.3917 343.95 452.8917 344.52814Q452.3917 345.09064 452.3917 346.325Q452.3917 347.59064 452.87607 348.15314Q453.36044 348.71564 454.12607 348.71564Q454.75107 348.71564 455.15732 348.34064Q455.5792 347.96564 455.7042 347.16876ZM457.61044 349.45L457.61044 340.85626L458.67294 340.85626L458.67294 349.45L457.61044 349.45ZM460.25107 346.34064Q460.25107 344.60626 461.2042 343.77814Q462.00107 343.09064 463.15732 343.09064Q464.43857 343.09064 465.25107 343.9344Q466.0792 344.7625 466.0792 346.2469Q466.0792 347.45 465.71982 348.1375Q465.36044 348.825 464.65732 349.21564Q463.96982 349.59064 463.15732 349.59064Q461.86044 349.59064 461.04794 348.7625Q460.25107 347.91876 460.25107 346.34064ZM461.3292 346.34064Q461.3292 347.52814 461.84482 348.1219Q462.37607 348.71564 463.15732 348.71564Q463.9542 348.71564 464.46982 348.1219Q464.98544 347.52814 464.98544 346.3094Q464.98544 345.15314 464.4542 344.5594Q463.93857 343.96564 463.15732 343.96564Q462.37607 343.96564 461.84482 344.5594Q461.3292 345.1375 461.3292 346.34064ZM467.6417 349.45L467.6417 343.23126L468.5792 343.23126L468.5792 344.10626Q469.2667 343.09064 470.56357 343.09064Q471.12607 343.09064 471.59482 343.29376Q472.0792 343.4969 472.31357 343.825Q472.54794 344.15314 472.6417 344.59064Q472.68857 344.8875 472.68857 345.6219L472.68857 349.45L471.6417 349.45L471.6417 345.66876Q471.6417 345.0125 471.5167 344.7Q471.3917 344.3875 471.0792 344.2Q470.7667 343.9969 470.34482 343.9969Q469.67294 343.9969 469.17294 344.4344Q468.68857 344.85626 468.68857 346.04376L468.68857 349.45L467.6417 349.45ZM478.8917 347.45L479.98544 347.575Q479.73544 348.52814 479.03232 349.0594Q478.3292 349.59064 477.25107 349.59064Q475.8917 349.59064 475.0792 348.7469Q474.28232 347.90314 474.28232 346.3875Q474.28232 344.825 475.09482 343.96564Q475.90732 343.09064 477.18857 343.09064Q478.43857 343.09064 479.21982 343.9344Q480.0167 344.77814 480.0167 346.325Q480.0167 346.41876 480.0167 346.60626L475.37607 346.60626Q475.43857 347.6375 475.9542 348.1844Q476.46982 348.71564 477.25107 348.71564Q477.8292 348.71564 478.23544 348.41876Q478.65732 348.10626 478.8917 347.45ZM475.43857 345.7469L478.90732 345.7469Q478.84482 344.95 478.5167 344.5594Q478.00107 343.95 477.2042 343.95Q476.46982 343.95 475.96982 344.4344Q475.48544 344.91876 475.43857 345.7469ZM486.65732 351.98126Q485.78232 350.8719 485.17294 349.40314Q484.5792 347.91876 484.5792 346.34064Q484.5792 344.95 485.0167 343.66876Q485.54794 342.1844 486.65732 340.71564L487.40732 340.71564Q486.7042 341.9344 486.46982 342.45Q486.11044 343.2625 485.90732 344.1375Q485.65732 345.23126 485.65732 346.34064Q485.65732 349.16876 487.40732 351.98126L486.65732 351.98126ZM488.21982 346.8719L488.21982 345.8094L491.46982 345.8094L491.46982 346.8719L488.21982 346.8719ZM492.21982 346.8719L492.21982 345.8094L495.46982 345.8094L495.46982 346.8719L492.21982 346.8719ZM496.6417 349.45L496.6417 343.23126L497.5792 343.23126L497.5792 344.10626Q498.2667 343.09064 499.56357 343.09064Q500.12607 343.09064 500.59482 343.29376Q501.0792 343.4969 501.31357 343.825Q501.54794 344.15314 501.6417 344.59064Q501.68857 344.8875 501.68857 345.6219L501.68857 349.45L500.6417 349.45L500.6417 345.66876Q500.6417 345.0125 500.5167 344.7Q500.3917 344.3875 500.0792 344.2Q499.7667 343.9969 499.34482 343.9969Q498.67294 343.9969 498.17294 344.4344Q497.68857 344.85626 497.68857 346.04376L497.68857 349.45L496.6417 349.45ZM503.25107 346.34064Q503.25107 344.60626 504.2042 343.77814Q505.00107 343.09064 506.15732 343.09064Q507.43857 343.09064 508.25107 343.9344Q509.0792 344.7625 509.0792 346.2469Q509.0792 347.45 508.71982 348.1375Q508.36044 348.825 507.65732 349.21564Q506.96982 349.59064 506.15732 349.59064Q504.86044 349.59064 504.04794 348.7625Q503.25107 347.91876 503.25107 346.34064ZM504.3292 346.34064Q504.3292 347.52814 504.84482 348.1219Q505.37607 348.71564 506.15732 348.71564Q506.9542 348.71564 507.46982 348.1219Q507.98544 347.52814 507.98544 346.3094Q507.98544 345.15314 507.4542 344.5594Q506.93857 343.96564 506.15732 343.96564Q505.37607 343.96564 504.84482 344.5594Q504.3292 345.1375 504.3292 346.34064ZM510.21982 346.8719L510.21982 345.8094L513.46985 345.8094L513.46985 346.8719L510.21982 346.8719ZM516.9386 348.5125L517.09485 349.4344Q516.6417 349.52814 516.298 349.52814Q515.71985 349.52814 515.40735 349.35626Q515.09485 349.16876 514.9542 348.8719Q514.8292 348.575 514.8292 347.6219L514.8292 344.04376L514.0636 344.04376L514.0636 343.23126L514.8292 343.23126L514.8292 341.6844L515.8761 341.0594L515.8761 343.23126L516.9386 343.23126L516.9386 344.04376L515.8761 344.04376L515.8761 347.6844Q515.8761 348.1375 515.923 348.2625Q515.9855 348.3875 516.1105 348.46564Q516.2355 348.54376 516.46985 348.54376Q516.65735 348.54376 516.9386 348.5125ZM517.6261 349.45L517.6261 343.23126L518.5792 343.23126L518.5792 344.16876Q518.9386 343.5125 519.2355 343.3094Q519.548 343.09064 519.923 343.09064Q520.4542 343.09064 521.0011 343.41876L520.6417 344.40314Q520.2511 344.16876 519.8761 344.16876Q519.5167 344.16876 519.2355 344.3875Q518.96985 344.59064 518.8605 344.96564Q518.673 345.52814 518.673 346.1844L518.673 349.45L517.6261 349.45ZM525.7042 348.6844Q525.1105 349.1844 524.5636 349.3875Q524.03235 349.59064 523.40735 349.59064Q522.3761 349.59064 521.8292 349.09064Q521.28235 348.59064 521.28235 347.8094Q521.28235 347.35626 521.4855 346.98126Q521.6886 346.59064 522.03235 346.3719Q522.3761 346.1375 522.798 346.02814Q523.09485 345.9344 523.7355 345.85626Q525.0011 345.71564 525.6105 345.4969Q525.6105 345.27814 525.6105 345.23126Q525.6105 344.575 525.3136 344.3094Q524.90735 343.96564 524.1105 343.96564Q523.3761 343.96564 523.0167 344.23126Q522.65735 344.48126 522.4855 345.1375L521.4542 344.9969Q521.59485 344.34064 521.923 343.9344Q522.2511 343.52814 522.8605 343.3094Q523.46985 343.09064 524.2667 343.09064Q525.0636 343.09064 525.5636 343.27814Q526.0636 343.46564 526.298 343.7469Q526.53235 344.02814 526.6261 344.46564Q526.673 344.73126 526.673 345.4344L526.673 346.84064Q526.673 348.3094 526.7355 348.7Q526.8136 349.09064 527.0167 349.45L525.90735 349.45Q525.7511 349.1219 525.7042 348.6844ZM525.6105 346.325Q525.03235 346.5594 523.8917 346.73126Q523.2355 346.825 522.96985 346.95Q522.7042 347.0594 522.548 347.27814Q522.40735 347.4969 522.40735 347.77814Q522.40735 348.2 522.71985 348.48126Q523.048 348.7625 523.65735 348.7625Q524.2667 348.7625 524.7355 348.4969Q525.21985 348.23126 525.4386 347.7625Q525.6105 347.40314 525.6105 346.71564L525.6105 346.325ZM530.3605 349.45L528.0011 343.23126L529.1105 343.23126L530.4542 346.95Q530.65735 347.5594 530.84485 348.2Q530.9855 347.71564 531.2355 347.02814L532.6261 343.23126L533.7042 343.23126L531.34485 349.45L530.3605 349.45ZM538.8917 347.45L539.9855 347.575Q539.7355 348.52814 539.03235 349.0594Q538.3292 349.59064 537.2511 349.59064Q535.8917 349.59064 535.0792 348.7469Q534.28235 347.90314 534.28235 346.3875Q534.28235 344.825 535.09485 343.96564Q535.90735 343.09064 537.1886 343.09064Q538.4386 343.09064 539.21985 343.9344Q540.0167 344.77814 540.0167 346.325Q540.0167 346.41876 540.0167 346.60626L535.3761 346.60626Q535.4386 347.6375 535.9542 348.1844Q536.46985 348.71564 537.2511 348.71564Q537.8292 348.71564 538.2355 348.41876Q538.65735 348.10626 538.8917 347.45ZM535.4386 345.7469L538.90735 345.7469Q538.84485 344.95 538.5167 344.5594Q538.0011 343.95 537.2042 343.95Q536.46985 343.95 535.96985 344.4344Q535.4855 344.91876 535.4386 345.7469ZM541.6261 349.45L541.6261 343.23126L542.5792 343.23126L542.5792 344.16876Q542.9386 343.5125 543.2355 343.3094Q543.548 343.09064 543.923 343.09064Q544.4542 343.09064 545.0011 343.41876L544.6417 344.40314Q544.2511 344.16876 543.8761 344.16876Q543.5167 344.16876 543.2355 344.3875Q542.96985 344.59064 542.8605 344.96564Q542.673 345.52814 542.673 346.1844L542.673 349.45L541.6261 349.45ZM545.21985 347.59064L546.2511 347.4344Q546.34485 348.0594 546.7355 348.3875Q547.1417 348.71564 547.8761 348.71564Q548.59485 348.71564 548.9386 348.4344Q549.298 348.1375 549.298 347.73126Q549.298 347.3719 548.9855 347.16876Q548.7667 347.02814 547.90735 346.8094Q546.7511 346.5125 546.298 346.3094Q545.8605 346.09064 545.6261 345.71564Q545.3917 345.34064 545.3917 344.8719Q545.3917 344.46564 545.5792 344.10626Q545.7667 343.7469 546.09485 343.5125Q546.34485 343.34064 546.7667 343.21564Q547.1886 343.09064 547.6886 343.09064Q548.40735 343.09064 548.9542 343.3094Q549.5167 343.5125 549.78235 343.8719Q550.048 344.23126 550.1417 344.825L549.1105 344.96564Q549.048 344.4969 548.7042 344.23126Q548.3761 343.95 547.7511 343.95Q547.03235 343.95 546.71985 344.2Q546.40735 344.4344 546.40735 344.7625Q546.40735 344.96564 546.53235 345.1219Q546.673 345.29376 546.9386 345.40314Q547.09485 345.46564 547.8761 345.66876Q549.0011 345.98126 549.4386 346.16876Q549.8761 346.35626 550.1261 346.71564Q550.3761 347.075 550.3761 347.6219Q550.3761 348.15314 550.0636 348.6219Q549.7667 349.075 549.1886 349.34064Q548.6105 349.59064 547.8761 349.59064Q546.65735 349.59064 546.0167 349.09064Q545.3917 348.575 545.21985 347.59064ZM555.8917 347.45L556.9855 347.575Q556.7355 348.52814 556.03235 349.0594Q555.3292 349.59064 554.2511 349.59064Q552.8917 349.59064 552.0792 348.7469Q551.28235 347.90314 551.28235 346.3875Q551.28235 344.825 552.09485 343.96564Q552.90735 343.09064 554.1886 343.09064Q555.4386 343.09064 556.21985 343.9344Q557.0167 344.77814 557.0167 346.325Q557.0167 346.41876 557.0167 346.60626L552.3761 346.60626Q552.4386 347.6375 552.9542 348.1844Q553.46985 348.71564 554.2511 348.71564Q554.8292 348.71564 555.2355 348.41876Q555.65735 348.10626 555.8917 347.45ZM552.4386 345.7469L555.90735 345.7469Q555.84485 344.95 555.5167 344.5594Q555.0011 343.95 554.2042 343.95Q553.46985 343.95 552.96985 344.4344Q552.4855 344.91876 552.4386 345.7469ZM559.3292 351.98126L558.5792 351.98126Q560.3292 349.16876 560.3292 346.34064Q560.3292 345.2469 560.0792 344.15314Q559.8761 343.27814 559.5167 342.46564Q559.28235 341.95 558.5792 340.71564L559.3292 340.71564Q560.423 342.1844 560.9542 343.66876Q561.40735 344.95 561.40735 346.34064Q561.40735 347.91876 560.798 349.40314Q560.1886 350.8719 559.3292 351.98126Z" fill-rule="nonzero"/></svg>