<?xml version="1.0" encoding="UTF-8"?>
<svg width="319px" height="145px" viewBox="0 0 319 145" version="1.1" xmlns="http://www.w3.org/2000/svg" xmlns:xlink="http://www.w3.org/1999/xlink">
    <!-- Generator: Sketch 62 (91390) - https://sketch.com -->
    <title>Group 4</title>
    <desc>Created with Sketch.</desc>
    <defs>
        <radialGradient cx="50%" cy="50.0903724%" fx="50%" fy="50.0903724%" r="129.203431%" gradientTransform="translate(0.500000,0.500904),scale(0.382923,1.000000),translate(-0.500000,-0.500904)" id="radialGradient-1">
            <stop stop-color="#009EFF" offset="31.23%"></stop>
            <stop stop-color="#029FFF" offset="53.4%"></stop>
            <stop stop-color="#09A2FF" offset="63.26%"></stop>
            <stop stop-color="#16A6FF" offset="70.68%"></stop>
            <stop stop-color="#28ADFF" offset="76.88%"></stop>
            <stop stop-color="#3FB6FF" offset="82.32%"></stop>
            <stop stop-color="#5CC1FF" offset="87.22%"></stop>
            <stop stop-color="#7FCEFF" offset="91.72%"></stop>
            <stop stop-color="#A6DDFF" offset="95.86%"></stop>
            <stop stop-color="#D2EDFF" offset="99.66%"></stop>
            <stop stop-color="#D6EFFF" offset="100%"></stop>
        </radialGradient>
    </defs>
    <g id="Page-1" stroke="none" stroke-width="1" fill="none" fill-rule="evenodd">
        <g id="Group-3" transform="translate(0.000000, 0.000000)">
            <g id="Group-4">
                <g id="Group-2">
                    <g id="visualization-(5)" transform="translate(0.674888, 20.000000)">
                        <rect id="Rectangle" fill="#FFFFFF" fill-rule="nonzero" x="0" y="0" width="317.71223" height="124.932692"></rect>
                        <g id="Group" transform="translate(2.043165, 5.120192)">
                            <g>
                                <g>
                                    <polygon id="Path" stroke="#DDDDDD" points="105.733813 0.512019231 310.05036 0.512019231 310.05036 82.4350962 105.733813 82.4350962"></polygon>
                                    <g>
                                        <g transform="translate(104.712230, 0.512019)">
                                            <g transform="translate(1.021583, 81.923077)"></g>
                                            <g id="Path" stroke="#DDDDDD">
                                                <g>
                                                    <line x1="1.02158273" y1="81.9230769" x2="1.02158273" y2="0"></line>
                                                    <line x1="52.1007194" y1="81.9230769" x2="52.1007194" y2="0"></line>
                                                    <line x1="103.179856" y1="81.9230769" x2="103.179856" y2="0"></line>
                                                    <line x1="154.258993" y1="81.9230769" x2="154.258993" y2="0"></line>
                                                    <line x1="205.338129" y1="81.9230769" x2="205.338129" y2="0"></line>
                                                </g>
                                            </g>
                                        </g>
                                        <g transform="translate(104.712230, 81.411058)">
                                            <g transform="translate(1.021583, 1.024038)"></g>
                                            <g>
                                                <g transform="translate(0.000000, 1.024038)" id="Path" stroke="#888888">
                                                    <line x1="1.02158273" y1="0" x2="1.02158273" y2="5.12019231"></line>
                                                    <line x1="52.1007194" y1="0" x2="52.1007194" y2="5.12019231"></line>
                                                    <line x1="103.179856" y1="0" x2="103.179856" y2="5.12019231"></line>
                                                    <line x1="154.258993" y1="0" x2="154.258993" y2="5.12019231"></line>
                                                    <line x1="205.338129" y1="0" x2="205.338129" y2="5.12019231"></line>
                                                </g>
                                                <g transform="translate(1.021583, 5.120192)" fill="#000000" font-family="BrandonGrotesque-Medium, Brandon Grotesque" font-size="10" font-weight="400">
                                                    <text id="-0.4">
                                                        <tspan x="0" y="11">-0.4</tspan>
                                                    </text>
                                                    <text id="-0.2">
                                                        <tspan x="41.8848921" y="11">-0.2</tspan>
                                                    </text>
                                                    <text id="0.0">
                                                        <tspan x="94.4964029" y="11">0.0</tspan>
                                                    </text>
                                                    <text id="0.2">
                                                        <tspan x="146.086331" y="11">0.2</tspan>
                                                    </text>
                                                    <text id="0.4">
                                                        <tspan x="188.992806" y="11">0.4</tspan>
                                                    </text>
                                                </g>
                                                <line x1="1.02158273" y1="1.02403846" x2="205.338129" y2="1.02403846" id="Path" stroke="#888888"></line>
                                                <text id="Log-odds-YOU-are-the-asshole" fill="#000000" font-family="BrandonGrotesque-Bold, Brandon Grotesque" font-size="11" font-weight="bold">
                                                    <tspan x="36.7769784" y="31.4567308">Log odds YOU are the asshole</tspan>
                                                </text>
                                            </g>
                                        </g>
                                        <g transform="translate(0.510791, 0.512019)">
                                            <g transform="translate(105.223022, 0.000000)"></g>
                                            <g>
                                                <g transform="translate(100.115108, 9.216346)" id="Path" stroke="#888888">
                                                    <line x1="5.10791367" y1="1.02403846" x2="0" y2="1.02403846"></line>
                                                    <line x1="5.10791367" y1="21.5048077" x2="0" y2="21.5048077"></line>
                                                    <line x1="5.10791367" y1="41.9855769" x2="0" y2="41.9855769"></line>
                                                    <line x1="5.10791367" y1="62.4663462" x2="0" y2="62.4663462"></line>
                                                </g>
                                                <g transform="translate(18.388489, 1.024038)" fill="#000000" font-family="BrandonGrotesque-Medium, Brandon Grotesque" font-size="10" font-weight="400">
                                                    <text id="Dad">
                                                        <tspan x="62.3165468" y="11.5120192">Dad</tspan>
                                                    </text>
                                                    <text id="Mom">
                                                        <tspan x="57.2086331" y="31.9927885">Mom</tspan>
                                                    </text>
                                                    <text id="Husband/Boyfriend">
                                                        <tspan x="0" y="52.4735577">Husband/Boyfriend</tspan>
                                                    </text>
                                                    <text id="Wife/Girlfriend">
                                                        <tspan x="17.3669065" y="72.9543269">Wife/Girlfriend</tspan>
                                                    </text>
                                                </g>
                                                <line x1="105.223022" y1="0" x2="105.223022" y2="81.9230769" id="Path" stroke="#888888"></line>
                                                <text id="If-you-mention..." fill="#000000" transform="translate(8.734707, 40.769231) rotate(-90.000000) translate(-8.734707, -40.769231) " font-family="BrandonGrotesque-Bold, Brandon Grotesque" font-size="11" font-weight="bold">
                                                    <tspan x="-28.0422715" y="44.7692308">If you mention...</tspan>
                                                </text>
                                            </g>
                                        </g>
                                        <g transform="translate(110.330935, 1.024038)" fill-rule="nonzero" id="Path">
                                            <polygon fill="#4C78A8" points="5.85872993 20.4807692 97.0503597 20.4807692 97.0503597 38.9134615 5.85872993 38.9134615"></polygon>
                                            <polygon fill="#4C78A8" points="0.481293885 0 97.0503597 0 97.0503597 18.4326923 0.481293885 18.4326923"></polygon>
                                            <polygon fill="#F58518" points="97.0503597 61.4423077 185.347361 61.4423077 185.347361 79.875 97.0503597 79.875"></polygon>
                                            <polygon fill="#4C78A8" points="46.5695514 40.9615385 97.0503597 40.9615385 97.0503597 59.3942308 46.5695514 59.3942308"></polygon>
                                        </g>
                                    </g>
                                </g>
                            </g>
                        </g>
                    </g>
                    <rect id="Rectangle" fill="#FFFFFF" x="0.674887892" y="0" width="317.71" height="21"></rect>
                </g>
                <g id="Emoji_u1f47c" transform="translate(108.000000, 2.000000)" fill-rule="nonzero">
                    <g id="Group" transform="translate(0.000000, 1.533333)">
                        <g transform="translate(0.000000, 13.189381)">
                            <g>
                                <g id="SVGID_1_-link" fill="#E0E0E0">
                                    <path d="M8.69610215,3.75530973 C8.19405914,2.89433628 7.54857527,1.41053097 7.18997312,0.897610619 C6.61620968,0.0549557522 5.61212366,-0.183185841 4.75147849,0.366371681 C3.20948925,1.35557522 2.1336828,1.64867257 1.05787634,1.74026549 C0.717204301,1.77690265 0.322741935,1.79522124 0.125510753,2.08831858 C-0.0537903226,2.34477876 0.0179301075,2.71115044 0.21516129,2.94929204 C0.753064516,3.62707965 1.93645161,3.75530973 2.58193548,3.82858407 C2.3847043,3.93849558 2.04403226,4.15831858 2.1516129,4.45141593 C2.36677419,5.0559292 3.98048387,5.22079646 4.75147849,5.25743363 C4.64389785,5.31238938 4.26736559,5.64212389 4.37494624,5.8619469 C4.64389785,6.33823009 6.15002688,6.50309735 6.9030914,6.37486726 C6.9030914,6.37486726 6.45483871,6.79619469 6.72379032,7.07097345 C7.24376344,7.54725664 8.66024194,7.58389381 9.39537634,7.3640708 C10.1305108,7.1259292 10.3277419,6.77787611 10.3994624,6.39318584 C10.507043,5.80699115 9.41330645,4.98265487 8.69610215,3.75530973 Z" id="SVGID_1_"></path>
                                </g>
                                <path d="M2.56400538,3.81026549 C3.71153226,3.81026549 5.19973118,3.35230088 5.37903226,3.29734513 C5.16387097,3.48053097 4.32115591,3.82858407 4.07013441,3.92017699 C3.49637097,4.12168142 2.74330645,4.21327434 2.1336828,4.15831858 C2.25919355,4.01176991 2.3847043,3.90185841 2.56400538,3.81026549 Z" id="Path" fill="#B0BEC5"></path>
                                <path d="M4.66182796,5.22079646 C5.07422043,5.23911504 5.54040323,5.14752212 5.9527957,5.00097345 C6.27553763,4.87274336 6.63413978,4.74451327 6.95688172,4.5979646 C6.75965054,4.74451327 6.22174731,5.14752212 5.86314516,5.2940708 C4.98456989,5.62380531 4.48252688,5.56884956 4.32115591,5.55053097 C4.41080645,5.45893805 4.55424731,5.27575221 4.66182796,5.22079646 Z" id="Path" fill="#B0BEC5"></path>
                                <path d="M6.84930108,6.35654867 C7.51271505,6.24663717 7.90717742,6.11840708 8.42715054,5.93522124 C8.24784946,6.06345133 7.88924731,6.3199115 7.6202957,6.41150442 C7.3872043,6.48477876 7.01067204,6.61300885 6.63413978,6.64964602 C6.67,6.57637168 6.79551075,6.42982301 6.84930108,6.35654867 Z" id="Path" fill="#B0BEC5"></path>
                            </g>
                            <g transform="translate(11.654570, 0.000000)">
                                <g id="SVGID_3_-link" fill="#E0E0E0">
                                    <path d="M1.88266129,3.75530973 C2.3847043,2.89433628 3.03018817,1.41053097 3.38879032,0.897610619 C3.96255376,0.0549557522 4.96663978,-0.183185841 5.82728495,0.366371681 C7.36927419,1.35557522 8.44508065,1.64867257 9.5208871,1.74026549 C9.86155914,1.77690265 10.2560215,1.79522124 10.4532527,2.08831858 C10.6325538,2.34477876 10.5608333,2.71115044 10.3636022,2.94929204 C9.82569892,3.62707965 8.64231183,3.75530973 7.99682796,3.82858407 C8.19405914,3.93849558 8.53473118,4.15831858 8.42715054,4.45141593 C8.21198925,5.0559292 6.59827957,5.22079646 5.82728495,5.25743363 C5.93486559,5.31238938 6.31139785,5.64212389 6.2038172,5.8619469 C5.93486559,6.33823009 4.42873656,6.50309735 3.67567204,6.37486726 C3.67567204,6.37486726 4.12392473,6.79619469 3.85497312,7.07097345 C3.335,7.54725664 1.91852151,7.58389381 1.1833871,7.3640708 C0.448252688,7.1259292 0.251021505,6.77787611 0.179301075,6.39318584 C0.0717204301,5.80699115 1.16545699,4.98265487 1.88266129,3.75530973 Z" id="SVGID_3_"></path>
                                </g>
                                <path d="M8.01475806,3.81026549 C6.86723118,3.81026549 5.37903226,3.35230088 5.19973118,3.29734513 C5.41489247,3.48053097 6.25760753,3.82858407 6.50862903,3.92017699 C7.08239247,4.12168142 7.83545699,4.21327434 8.44508065,4.15831858 C8.31956989,4.01176991 8.19405914,3.90185841 8.01475806,3.81026549 Z" id="Path" fill="#B0BEC5"></path>
                                <path d="M5.91693548,5.22079646 C5.50454301,5.23911504 5.03836022,5.14752212 4.62596774,5.00097345 C4.30322581,4.87274336 3.94462366,4.74451327 3.62188172,4.5979646 C3.8191129,4.74451327 4.35701613,5.14752212 4.71561828,5.2940708 C5.59419355,5.62380531 6.09623656,5.56884956 6.25760753,5.55053097 C6.16795699,5.45893805 6.02451613,5.27575221 5.91693548,5.22079646 Z" id="Path" fill="#B0BEC5"></path>
                                <path d="M3.72946237,6.35654867 C3.06604839,6.24663717 2.67158602,6.11840708 2.1516129,5.93522124 C2.33091398,6.06345133 2.68951613,6.3199115 2.95846774,6.41150442 C3.19155914,6.48477876 3.5680914,6.61300885 3.94462366,6.64964602 C3.90876344,6.57637168 3.78325269,6.42982301 3.72946237,6.35654867 Z" id="Path" fill="#B0BEC5"></path>
                            </g>
                        </g>
                        <g transform="translate(2.330914, 0.000000)">
                            <ellipse id="XMLID_167_" fill="#6D4C41" cx="8.78575269" cy="8.6280531" rx="8.78575269" ry="8.46318584"></ellipse>
                            <g id="XMLID_164_" transform="translate(0.179301, 10.624779)" fill="#E49500">
                                <path d="M15.8143548,0.0915929204 C15.8143548,0.0915929204 17.1591129,0.329734513 17.1591129,1.79522124 C17.1591129,3.09584071 16.172957,3.60876106 15.2047312,3.60876106 L15.2047312,0.0915929204 L15.8143548,0.0915929204 Z" id="XMLID_166_"></path>
                                <path d="M1.39854839,0.0915929204 C1.39854839,0.0915929204 0.0537903226,0.329734513 0.0537903226,1.79522124 C0.0537903226,3.09584071 1.03994624,3.60876106 2.00817204,3.60876106 L2.00817204,0.0915929204 L1.39854839,0.0915929204 Z" id="XMLID_165_"></path>
                            </g>
                            <g id="XMLID_163_" transform="translate(1.793011, 4.030088)" fill="#FBC11B">
                                <path d="M12.0848925,2.25318584 C10.8656452,0.714424779 8.76782258,0.0366371681 6.99274194,0.0366371681 C5.21766129,0.0366371681 3.11983871,0.696106195 1.9005914,2.25318584 C0.717204301,3.77362832 0.0896505376,5.73371681 0.0896505376,8.35327434 C0.107580645,10.4782301 0.627553763,12.1085841 2.1336828,13.390885 C3.53223118,14.5815929 5.14594086,15.2227434 6.88516129,15.2227434 C8.60645161,15.2227434 10.4891129,14.6182301 11.833871,13.4092035 C13.3041398,12.0902655 13.8779032,10.4782301 13.8958333,8.37159292 C13.9137634,5.73371681 13.2862097,3.77362832 12.0848925,2.25318584 Z" id="Path"></path>
                            </g>
                            <path d="M9.78983871,13.9953982 C9.43123656,14.1053097 9.07263441,14.1419469 8.78575269,14.1419469 C8.49887097,14.1419469 8.14026882,14.0869912 7.78166667,13.9953982 C7.63822581,13.9587611 7.56650538,14.1053097 7.6202957,14.1969027 C7.72787634,14.3984071 8.19405914,14.8014159 8.78575269,14.8014159 C9.37744624,14.8014159 9.84362903,14.3984071 9.95120968,14.1969027 C10.005,14.0869912 9.95120968,13.9404425 9.78983871,13.9953982 Z" id="XMLID_162_" fill="#E49500"></path>
                            <path d="M10.8656452,15.6623894 C10.5787634,15.6623894 8.78575269,15.6623894 8.78575269,15.6623894 C8.78575269,15.6623894 6.99274194,15.6623894 6.70586022,15.6623894 C6.47276882,15.6623894 6.36518817,15.8272566 6.52655914,16.0653982 C6.74172043,16.4134513 7.56650538,17.0729204 8.8036828,17.0729204 C10.0229301,17.0729204 10.8477151,16.4134513 11.0808065,16.0653982 C11.2063172,15.8272566 11.1166667,15.6623894 10.8656452,15.6623894 Z" id="XMLID_161_" fill="#513F35"></path>
                            <g id="XMLID_158_" transform="translate(4.123925, 11.174336)" fill="#444444">
                                <path d="M1.9005914,1.28230088 C1.9005914,1.90513274 1.48819892,2.4180531 0.986155914,2.4180531 C0.484112903,2.4180531 0.0537903226,1.90513274 0.0537903226,1.28230088 C0.0537903226,0.659469027 0.466182796,0.146548673 0.986155914,0.146548673 C1.48819892,0.146548673 1.9005914,0.659469027 1.9005914,1.28230088" id="XMLID_160_"></path>
                                <path d="M9.26986559,1.28230088 C9.26986559,1.90513274 8.85747312,2.4180531 8.35543011,2.4180531 C7.8533871,2.4180531 7.42306452,1.90513274 7.42306452,1.28230088 C7.42306452,0.659469027 7.83545699,0.146548673 8.35543011,0.146548673 C8.85747312,0.146548673 9.26986559,0.659469027 9.26986559,1.28230088" id="XMLID_159_"></path>
                            </g>
                            <path d="M1.50612903,11.9620354 C1.50612903,11.9620354 3.51430108,9.81876106 4.24943548,9.10433628 C4.30322581,9.06769912 4.37494624,9.10433628 4.35701613,9.15929204 C4.32115591,9.45238938 4.30322581,9.78212389 4.2852957,9.98362832 C4.2852957,10.0752212 4.35701613,10.1484956 4.44666667,10.130177 C5.88107527,9.85539823 7.26169355,9.23256637 7.63822581,9.06769912 C7.69201613,9.04938053 7.72787634,9.0860177 7.72787634,9.14097345 C7.72787634,9.41575221 7.72787634,9.67221239 7.72787634,9.83707965 C7.72787634,9.92867257 7.79959677,9.98362832 7.88924731,9.98362832 C9.21607527,9.78212389 10.3098118,9.21424779 10.668414,9.03106195 C10.7580645,8.97610619 10.8477151,8.97610619 10.9373656,9.01274336 C11.6187097,9.26920354 12.4434946,9.76380531 12.7483065,9.94699115 C12.8200269,9.98362832 12.8917473,9.96530973 12.9455376,9.8920354 C13.0531183,9.67221239 13.2144892,9.36079646 13.2862097,9.1959292 C13.3041398,9.15929204 13.3579301,9.14097345 13.3937903,9.17761062 C14.4695968,10.2584071 16.0295161,11.9986726 16.0295161,11.9986726 L17.1411828,8.35327434 C17.1411828,8.35327434 15.348172,1.88681416 9.10849462,1.88681416 C2.8688172,1.88681416 0.537903226,8.75628319 0.537903226,8.75628319 L1.50612903,11.9620354 Z" id="XMLID_156_" fill="#6D4C41"></path>
                        </g>
                    </g>
                    <g id="Group" transform="translate(3.066667, 0.000000)">
                        <path d="M8.05,0 C3.65909091,0 0.0914772727,1.36083333 0.0914772727,3.0475 C0.0914772727,4.73416667 3.65909091,6.095 8.05,6.095 C12.4409091,6.095 16.0085227,4.73416667 16.0085227,3.0475 C16.0085227,1.36083333 12.4409091,0 8.05,0 Z M8.05,3.54583333 C5.56181818,3.54583333 3.53102273,2.83666667 3.53102273,1.955 C3.53102273,1.07333333 5.54352273,0.364166667 8.05,0.364166667 C10.5381818,0.364166667 12.5506818,1.07333333 12.5506818,1.955 C12.5506818,2.8175 10.5381818,3.54583333 8.05,3.54583333 Z" id="Shape" fill="url(#radialGradient-1)"></path>
                        <path d="M8.05,0 C4.70193182,0 1.97590909,0.958333333 1.97590909,2.14666667 C1.97590909,3.335 4.70193182,4.29333333 8.05,4.29333333 C11.3980682,4.29333333 14.1240909,3.335 14.1240909,2.14666667 C14.1240909,0.958333333 11.3980682,0 8.05,0 Z M8.05,3.54583333 C5.56181818,3.54583333 3.53102273,2.83666667 3.53102273,1.955 C3.53102273,1.07333333 5.54352273,0.364166667 8.05,0.364166667 C10.5381818,0.364166667 12.5506818,1.07333333 12.5506818,1.955 C12.5506818,2.8175 10.5381818,3.54583333 8.05,3.54583333 Z" id="Shape" fill="#CCE8FF"></path>
                    </g>
                </g>
                <g id="Emoji_u1fa" transform="translate(289.000000, 1.000000)" fill-rule="nonzero">
                    <path d="M9.01354199,0.000503772215 C8.63951662,-0.00858779921 8.48056456,0.104713815 8.3650154,0.394359058 C8.2962391,0.566759829 8.3183881,0.691893301 8.46155175,0.940484201 C8.71846175,1.38658629 8.78654963,1.78393626 8.66916488,2.15178643 C8.63692581,2.2528136 8.45266651,2.5827233 8.25969304,2.88495382 C7.75904542,3.66905832 7.64499252,3.92851672 7.58660812,4.41585123 C7.55924127,4.64429742 7.58155442,5.09267617 7.63074071,5.30241317 C7.64966058,5.38309389 7.62777907,5.40269646 7.34195271,5.56146546 C5.98502297,6.31519517 5.22770449,7.13324932 4.89904647,8.20025874 C4.82494708,8.44082889 4.80444432,8.58374103 4.79089889,8.95496432 C4.78092067,9.22842446 4.78982766,9.50973746 4.81299149,9.65325417 C4.84743415,9.86668103 4.97877234,10.3974717 5.03540086,10.5520317 C5.04848566,10.5877409 5.03933607,10.6095285 5.01115004,10.6098439 C4.94343458,10.610501 4.32147551,10.930385 4.09623556,11.0802629 C2.74647899,11.978403 2.24527685,13.4801913 2.6654481,15.3675023 L2.7104027,15.5693865 L2.35348933,15.7568562 C1.83172992,16.0309209 1.41126219,16.3401132 1.04703388,16.7175727 C0.499409233,17.2850912 0.203788027,17.8460053 0.0432376301,18.6221272 C-0.0218782055,18.9369052 -0.0115130822,19.8763172 0.0613225616,20.2630753 C0.18034,20.8950627 0.254759808,21.1138815 0.459080151,21.432691 C1.17579103,22.5510036 2.3334349,23.0177787 4.0158827,22.8667739 C4.57177379,22.8168803 5.05438027,22.7398336 6.31601345,22.4995986 C6.85687988,22.3966112 7.44942132,22.286497 7.6327959,22.2549082 L7.96623005,22.1974706 L8.83290188,22.3201132 C11.4254679,22.686904 13.0246954,22.8598509 14.6331666,22.9474612 C15.1763898,22.9770655 17.1238893,22.9347783 17.616709,22.8826866 C18.9293937,22.7439309 20.066428,22.462355 21.0245708,22.0387706 C21.4273351,21.8607145 21.6146506,21.7400499 21.9212466,21.461142 C22.3613409,21.0607942 22.7669415,20.4043446 22.8987894,19.8790246 C23.0337853,19.3411499 22.9885824,18.6655216 22.7812396,18.1219725 C22.41145,17.1525685 21.5221418,16.2410982 20.5402948,15.8251695 C20.3973312,15.7646072 20.2799319,15.7049583 20.2794559,15.6926172 C20.2789518,15.6802629 20.3237302,15.5252035 20.3789211,15.3480542 C20.5605373,14.7650929 20.5998027,14.5140873 20.5984533,13.9436545 C20.5967204,13.200186 20.4595726,12.6882882 20.1119169,12.1272393 C19.9003462,11.785801 19.3863466,11.2454686 19.0501163,11.0110395 C18.8282104,10.8563217 18.2130448,10.5075169 18.0855719,10.4641619 C18.0445046,10.4501976 18.0458424,10.4084493 18.0951279,10.1695352 C18.1524414,9.89171489 18.1733166,9.28042089 18.1321195,9.08607089 C17.9478706,8.2168976 17.4272797,7.55987632 16.5666226,7.11025917 C16.3335661,6.98850703 15.8524738,6.80224646 15.599201,6.7357436 L15.4652109,6.70059632 L15.4774387,6.44663689 C15.5311522,5.33211274 14.7546725,3.78843784 13.4706172,2.45691527 C12.1816033,1.12025122 10.7316322,0.248246958 9.46565645,0.0484029151 C9.28682956,0.0201753436 9.13821742,0.00353451507 9.0135423,0.000503772215 L9.01354199,0.000503772215 Z" id="path82-8" fill="#784421"></path>
                    <path d="M15.1283507,9.65160803 C15.1028742,9.65166389 15.0774138,9.65226517 15.0520562,9.65357946 C14.5748919,9.67795946 14.1209365,9.91249703 13.7226864,10.3404547 C13.1929076,10.9097507 12.8859499,11.708061 12.8452257,12.6224687 C12.7965713,13.7149392 13.1236152,14.7096267 13.7471421,15.3657937 C14.1127267,15.7505115 14.4988552,15.960301 14.9210973,16.0036987 C15.0155974,16.0134245 15.3580075,15.9977516 15.4887581,15.9777087 C15.8304603,15.9253476 16.172694,15.7334816 16.4847457,15.4194232 C17.0164134,14.8843282 17.3496034,14.1188586 17.4356228,13.2349193 C17.4577343,13.0076793 17.4445707,12.5034405 17.4104488,12.2707757 C17.3085018,11.5756665 17.0653297,10.9635445 16.7071025,10.5003836 C16.6016702,10.3640692 16.3800548,10.1435945 16.2549357,10.0505923 C15.9041243,9.7898216 15.5104805,9.65081617 15.1283503,9.65153622 L15.1283507,9.65160803 Z M7.78421877,9.65226517 C7.64950871,9.6542366 7.514281,9.67312946 7.37993611,9.70943332 C7.02946747,9.80410789 6.7155997,9.99290832 6.4328084,10.2791893 C6.20370067,10.5111246 6.03720651,10.7495985 5.88277064,11.067005 C5.69135771,11.4604102 5.57413963,11.8727542 5.51840748,12.3488706 C5.49342885,12.5622745 5.49684734,13.1629885 5.52421419,13.3701823 C5.61949595,14.091597 5.84685315,14.6738617 6.22293623,15.1596513 C6.33664508,15.3065293 6.5797409,15.5469516 6.71574053,15.6470542 C6.97617332,15.838746 7.25750112,15.9644279 7.4978464,15.9964373 C7.7137244,16.0251873 8.07111573,16.0074773 8.25262007,15.9589867 C9.25700707,15.6907312 10.034661,14.460241 10.0983761,13.0384237 C10.1475727,11.9405976 9.79489673,10.9145676 9.14323395,10.2598463 C8.73978874,9.85450746 8.26532678,9.64529617 7.78421971,9.65226517 L7.78421877,9.65226517 Z M15.1768488,11.044914 C15.4220544,11.0432887 15.6657214,11.1564257 15.8646279,11.3763156 C16.0600517,11.5923513 16.2422073,11.9716279 16.3051308,12.2934702 C16.3672762,12.6113335 16.3645588,13.0716817 16.2986058,13.4011502 C16.21533,13.8171709 15.9607282,14.2680695 15.7058214,14.4509687 C15.6185393,14.5135945 15.4798735,14.5753067 15.3764457,14.5975576 C15.2585527,14.6229233 15.0911039,14.6325077 15.003196,14.6189476 C14.835779,14.593089 14.5917726,14.417231 14.4176557,14.1969075 C14.2317385,13.9616536 14.1101208,13.6733749 14.0455346,13.3147392 C14.0180512,13.1621276 14.0139266,12.5915206 14.0390599,12.4204072 C14.088095,12.0866147 14.1984068,11.7959703 14.3699773,11.5486875 C14.4436151,11.4425523 14.6616454,11.2232046 14.7431271,11.1732617 C14.8820745,11.0880927 15.0297235,11.0458845 15.1768463,11.044914 L15.1768488,11.044914 Z M7.84761748,11.1070721 C8.08283659,11.1057699 8.3207196,11.2117309 8.52748425,11.4300009 C8.74357744,11.6581182 8.90120684,11.9939215 8.98530114,12.4054506 C9.01653388,12.5582889 9.01893249,12.5927626 9.01927849,12.8887792 C9.01956893,13.1661395 9.015997,13.2273983 8.99162015,13.3603252 C8.95641156,13.552316 8.88157397,13.7913517 8.80702404,13.9501175 C8.62526103,14.3372042 8.30583293,14.6221249 7.98520379,14.6831767 C7.81482389,14.7156067 7.64778119,14.6877439 7.47339015,14.597827 C7.14084071,14.4263456 6.882356,14.0422325 6.76295418,13.5420613 C6.70503766,13.299454 6.69934311,13.2380506 6.69986392,12.8627957 C6.70030501,12.5405526 6.70316584,12.491441 6.72868638,12.3689102 C6.77926968,12.12604 6.894615,11.841231 7.02538638,11.636278 C7.24717538,11.2886757 7.545193,11.1089735 7.84761748,11.1070721 L7.84761748,11.1070721 Z M15.1815758,17.1965412 C15.0162947,17.1971983 14.98349,17.2006155 14.603743,17.255799 C13.8075196,17.3715087 13.2706618,17.4254996 12.4820957,17.4690945 C12.1902446,17.4852273 10.9137554,17.4853916 10.6294555,17.4693146 C9.8763769,17.426758 9.39708179,17.3792499 8.61369423,17.2696286 C8.21628416,17.2140179 8.02681458,17.197172 7.86380097,17.202922 C7.76304585,17.2064706 7.71760037,17.2122206 7.67324534,17.2269735 C7.56283558,17.2636815 7.48914137,17.3600843 7.48895702,17.4680759 C7.48879952,17.5580979 7.54151521,17.645925 7.71650425,17.8474116 C7.84212584,17.9920553 8.15644951,18.3150345 8.30933901,18.4565995 C8.95337997,19.0529336 9.57176333,19.3926929 10.4176806,19.6149123 C10.5755278,19.656378 10.8497007,19.7188329 10.9382289,19.7334806 C10.9846086,19.7411692 11.5614886,19.738902 11.7758729,19.7301949 C12.1582573,19.7147192 12.3155619,19.6940225 12.572159,19.6253937 C13.1201879,19.478818 13.6381167,19.2390003 14.1009211,18.9175162 C14.4423366,18.68035 14.707968,18.4493545 15.049231,18.0929432 C15.3993376,17.7272925 15.5356807,17.5451883 15.5560618,17.4158725 C15.5694302,17.3310353 15.506735,17.2518365 15.3979223,17.2161306 C15.3434029,17.1982235 15.317427,17.1959235 15.1815758,17.1965149 L15.1815758,17.1965412 Z" id="path53-6" fill="#FFFFFF"></path>
                    <path d="M15.1802248,11.0509469 C15.1208218,11.0510365 15.0614336,11.0552257 15.024862,11.06344 C14.892094,11.0933072 14.7598005,11.1563337 14.675193,11.2300159 C14.60368,11.2922966 14.4456174,11.4561256 14.3989923,11.516287 C14.2027024,11.7695597 14.0571149,12.1716819 14.0327797,12.5278467 C14.0247895,12.6448905 14.0248022,12.989276 14.0328323,13.1361245 C14.0401986,13.270842 14.0503785,13.3388267 14.0831815,13.4736692 C14.1663057,13.8153703 14.3085242,14.0879335 14.5164404,14.3038673 C14.661353,14.4543662 14.8336359,14.5711405 14.9621325,14.6059427 C14.9987687,14.6158656 15.0308659,14.6186913 15.1099941,14.6189671 C15.2823876,14.6196113 15.4117188,14.5951985 15.5432533,14.5373009 C15.6685772,14.482137 15.7514525,14.4217423 15.8483275,14.3150059 C16.0577829,14.0842272 16.2355911,13.7145909 16.2996197,13.3767932 C16.3565418,13.0764822 16.361824,12.6553127 16.312465,12.3522122 C16.2666459,12.0708532 16.1283264,11.7383717 15.9566308,11.4967765 C15.8947778,11.4097445 15.7745709,11.2848873 15.6982576,11.228511 C15.5913715,11.1495455 15.4643832,11.0915986 15.3356418,11.0630063 C15.2990327,11.0548906 15.2396303,11.050882 15.1802273,11.0509469 L15.1802248,11.0509469 Z M7.87991736,11.1113359 C7.74395774,11.1064073 7.60749559,11.1376216 7.47702195,11.2057969 C7.17621912,11.3629526 6.93613189,11.6983977 6.78446516,12.1734233 C6.74818881,12.2870433 6.72302366,12.3963262 6.71330852,12.4824645 C6.7030814,12.5731239 6.69857277,12.9477216 6.70570592,13.1134563 C6.71304071,13.2839027 6.72522756,13.3720782 6.76345325,13.5312086 C6.85116359,13.8963369 6.99955581,14.1836562 7.20986434,14.3954829 C7.37070303,14.5574817 7.56036418,14.6589807 7.75589505,14.6877537 C7.81051312,14.6958037 7.93513185,14.6907109 7.99469334,14.6779952 C8.2643277,14.6204097 8.52621673,14.4145597 8.7147367,14.1120473 C8.82183226,13.9401946 8.90736296,13.7180639 8.96776663,13.4550129 C9.0119427,13.2626343 9.01149219,13.2687195 9.01149219,12.8955477 C9.01149219,12.5197869 9.01287436,12.536889 8.96488942,12.329544 C8.85971295,11.8749589 8.65942422,11.5203712 8.38793001,11.3082323 C8.22869597,11.1838089 8.05472334,11.1176773 7.8799183,11.1113293 L7.87991736,11.1113359 Z" id="path93" fill="#000000"></path>
                </g>
            </g>
        </g>
    </g>
</svg>