<svg height="50" viewBox="0 0 50 50" width="50" xmlns="http://www.w3.org/2000/svg"><g fill="none" fill-rule="evenodd"><path d="m15.383 0h19.234c5.349 0 7.289.557 9.244 1.603a10.904 10.904 0 0 1 4.536 4.536c1.046 1.955 1.603 3.895 1.603 9.244v19.234c0 5.349-.557 7.289-1.603 9.244a10.904 10.904 0 0 1 -4.536 4.536c-1.955 1.046-3.895 1.603-9.244 1.603h-19.234c-5.349 0-7.289-.557-9.244-1.603a10.904 10.904 0 0 1 -4.536-4.536c-1.046-1.955-1.603-3.895-1.603-9.244v-19.234c0-5.349.557-7.289 1.603-9.244a10.904 10.904 0 0 1 4.536-4.536c1.955-1.046 3.895-1.603 9.244-1.603z" fill="#f46737" opacity=".3"/><g transform="translate(11 10)"><path d="m25 24.125v-10c0-6.083-3-9.125-9-9.125h-2" stroke="#f46737" stroke-linecap="square" stroke-width="4"/><path d="m16 10-5.86-4.186a1 1 0 0 1 0-1.628l5.86-4.186z" fill="#f46737"/><g opacity=".6" transform="translate(0 1)"><path d="m4 23v-20" stroke="#f46737" stroke-linecap="square" stroke-width="4"/><g fill="#f46737"><circle cx="4" cy="24" r="4"/><circle cx="4" cy="4" r="4"/></g></g><circle cx="25" cy="25" fill="#f46737" r="4"/></g></g></svg>