<svg height="32" viewBox="0 0 32 32" width="32" xmlns="http://www.w3.org/2000/svg"><g fill="none" fill-rule="nonzero"><path d="m15.9625 1c-8.12307692 0-14.9625 6.58557692-14.9625 14.7115385v15.2336538l14.9596154-.0144231c8.1230769 0 14.7115384-6.839423 14.7115384-14.9625 0-8.12307689-6.5942307-14.9682692-14.7086538-14.9682692z" fill="#838d93"/><path d="m16.1067308 6.69423077c-3.2128863.00189633-6.18781647 1.6940153-7.83160337 4.45455993-1.6437869 2.7605446-1.71396371 6.1823206-.18474281 9.0079401l-1.65 5.3076923 5.92499998-1.3384616c3.3928844 1.5286327 7.3742505.84207 10.0591918-1.7346474 2.6849412-2.5767174 3.5346348-6.5264851 2.1468084-9.9793564-1.3878264-3.45287125-4.7346592-5.71591234-8.4560002-5.71772693z" fill="#eef4f8"/><path d="m23.3413462 10.2653846c2.5284878 3.3151279 2.4854198 7.9232474-.1045881 11.1905372-2.5900079 3.2672899-7.0666998 4.3608387-10.8713735 2.6556167l-5.92499998 1.3557692 6.03173078-.7125c3.9986217 2.3423619 9.1183229 1.3117607 11.8991858-2.3953185s2.3377181-8.9106454-1.029955-12.0941046z" fill="#eef4f8" opacity=".3"/><path d="m21.6625 8.58365385c2.8606079 3.03302065 3.2988145 7.62029875 1.06417 11.14005095-2.2346445 3.5197523-6.5725105 5.0747646-10.5343623 3.7762952l-5.75192308 1.9673077 5.92499998-1.3413462c4.2197649 1.906122 9.1981534.3458165 11.5751088-3.6278216 2.3769554-3.973638 1.3972033-9.0979909-2.2779934-11.91448605z" fill="#838d93" opacity=".3"/><path d="m8.63557692 20.3586538c-1.65136064-3.9805386-.29047363-8.5736907 3.26275608-11.01218172 3.5532298-2.43849099 8.3284869-2.05641815 11.4487824.91602792-2.8898587-3.79243001-8.2135595-4.71813216-12.2139682-2.12380395-4.00040874 2.59432825-5.32665727 7.83262745-3.04276258 12.01803475l-1.65 5.3076923z" fill="#838d93" opacity=".3"/><path d="m8.09038462 20.1567308c-2.04902358-3.7847671-1.17265546-8.4869071 2.10221908-11.27942498 3.2748746-2.7925179 8.0564178-2.91493484 11.4698963-.29365197-3.2744191-3.44783171-8.6486131-3.80067019-12.34571097-.81054795-3.69709789 2.9901222-4.47582335 8.3192913-1.78890441 12.2422787l-1.08461539 5.4519231z" fill="#eef4f8" opacity=".3"/></g></svg>