<svg height="660" viewBox="0 0 940 660" width="940" xmlns="http://www.w3.org/2000/svg"><g fill="none"><path d="m0 0h940v660h-940z" fill="#dee8ed"/><g opacity=".05" transform="translate(250 194)"><path d="m0 207.327143v-197.65428586c0-1.59238891.55029357-2.9359469 1.65089723-4.03071428 1.10060365-1.09476738 2.35127086-1.64214286 3.75203915-1.64214286h73.23980422c29.0159144 0 53.8291524 10.2010885 74.4404564 30.6035714 20.611305 20.402483 30.916803 44.9348568 30.916803 73.5978576 0 28.862049-10.305498 53.543707-30.916803 74.045714-20.611304 20.502008-45.424542 30.752857-74.4404564 30.752857h-73.23980422c-1.40076829 0-2.6514355-.547376-3.75203915-1.642143-1.10060366-1.094767-1.65089723-2.438325-1.65089723-4.030714zm46.8254486-38.515714h28.8156607c16.8092194 0 30.7666657-5.822085 41.8727567-17.466429 11.106092-11.644344 16.659054-26.025391 16.659054-43.143571 0-16.9191326-5.552962-31.2006565-16.659054-42.8450004-11.106091-11.644344-25.0635373-17.4664286-41.8727567-17.4664286h-28.8156607z" fill="#000"/><path d="m213.114608 261.715493-93.401831-200.9521127c-.997887-1.9906203-.947994-3.7821516.149683-5.3746479 1.097676-1.5924962 2.744167-2.3887324 4.93952-2.3887324h39.815524c2.594508 0 4.290892 1.0948249 5.089202 3.2845071l49.395199 108.9859159h1.796189l49.395199-108.9859159c.798311-2.1896822 2.494695-3.2845071 5.089202-3.2845071h39.815524c2.195354 0 3.841844.7962362 4.93952 2.3887324 1.097678 1.5924963 1.147572 3.3840276.149683 5.3746479l-94.000561 200.9521127c-1.197465 2.189683-2.893849 3.284507-5.089202 3.284507h-2.993649c-2.195352 0-3.891735-1.094824-5.089202-3.284507z" fill="#464646"/><path d="m289.263328 183.944444c-20.842322-20.902882-31.263328-46.284572-31.263328-76.145833 0-29.8612603 10.47063-55.292719 31.412201-76.2951388 20.941572-21.0024198 46.299352-31.5034722 76.0741-31.5034722 27.789764 0 51.8077 9.25685188 72.054528 27.7708333 2.977475 2.787051 3.076722 5.5740602.297746 8.3611111l-23.224187 24.1875c-2.580477 2.388901-5.061669 2.388901-7.443649 0-11.314404-10.1528285-24.712839-15.2291666-40.195708-15.2291666-16.673859 0-30.568533 6.0219306-41.684438 18.0659722s-16.673775 26.5265358-16.673775 43.447917c0 16.722305 5.607493 31.005727 16.822648 42.850694 11.215154 11.844967 25.159452 17.767361 41.833311 17.767361 15.482869 0 28.782057-4.77773 39.897962-14.333333 2.778976-2.388901 5.359415-2.289365 7.741395.298611l23.224187 24.784722c2.580477 2.587976 2.48123 5.27545-.297746 8.0625-19.849831 19.310281-43.967015 28.965278-72.352274 28.965278-29.774748 0-55.182152-10.351747-76.222973-31.055556z" fill="#000"/></g></g></svg>