<svg height="32" viewBox="0 0 32 32" width="32" xmlns="http://www.w3.org/2000/svg"><path d="m15.9986187 1c-8.28202212 0-14.9986187 6.71567574-14.9986187 15.0004604 0 6.6272753 4.29755364 12.2489948 10.2581417 14.2324811.7504835.1381258 1.0239725-.3250561 1.0239725-.7228583 0-.3554437-.0128917-1.2993032-.0202584-2.5507229-4.1723196.9061052-5.05264128-2.0111114-5.05264128-2.0111114-.68234138-1.7330182-1.66579698-2.1943584-1.66579698-2.1943584-1.36192026-.9300469.10313392-.9116301.10313392-.9116301 1.50557107.1058964 2.29749225 1.5460879 2.29749225 1.5460879 1.33797845 2.2919672 3.51115749 1.6298843 4.36569569 1.2458946.1362841-.9687222.5239572-1.6298843.9521471-2.0046656-3.33067314-.3784646-6.83262225-1.665797-6.83262225-7.4136713 0-1.637251.5847325-2.9770712 1.54424629-4.0249855-.15470088-.3793855-.66944964-1.90521498.14733418-3.96973507 0 0 1.25878633-.4033273 4.12443598 1.53780042 1.1961693-.33334357 2.4798183-.49909451 3.7551797-.50554038 1.2744406.00644587 2.5571687.17219681 3.7551797.50554038 2.863808-1.94112772 4.1207527-1.53780042 4.1207527-1.53780042.8186255 2.06452009.3038767 3.59034957.1500967 3.96973507.9613554 1.0479143 1.5414837 2.3877345 1.5414837 4.0249855 0 5.7626078-3.5074741 7.0306025-6.8482765 7.4017004.5377698.4631818 1.0175267 1.3784954 1.0175267 2.77817 0 2.0046656-.0184168 3.622579-.0184168 4.1143068 0 .4014856.2707265.8683508 1.0313392.7219374 5.9559839-1.9880905 10.2498542-7.6061266 10.2498542-14.2315602 0-8.28478466-6.7165966-15.0004604-15.0013813-15.0004604" fill="#838d93" fill-rule="evenodd"/></svg>