<svg height="40" viewBox="0 0 40 40" width="40" xmlns="http://www.w3.org/2000/svg"><g fill="#fff" fill-rule="evenodd"><path d="m26.958 15.088c0 7.353-3.66 8.088-10.979 8.088-1.535 0-2.91-.032-4.123-.15l-1.714 1.66a1 1 0 0 1 -1.696-.704l-.022-1.742c-2.284-1.003-3.424-3.046-3.424-7.152 0-7.245 3.553-8.065 10.659-8.088h.32c7.32 0 10.98.735 10.98 8.088z" opacity=".6"/><path d="m13.042 24.13c0 7.353 3.66 8.088 10.979 8.088 1.535 0 2.91-.032 4.123-.151l1.714 1.661a1 1 0 0 0 1.696-.704l.022-1.743c2.284-1.003 3.424-3.045 3.424-7.151 0-7.245-3.553-8.065-10.659-8.088h-.32c-7.32 0-10.98.735-10.98 8.088z"/></g></svg>