<svg height="50" viewBox="0 0 50 50" width="50" xmlns="http://www.w3.org/2000/svg"><g fill="#13ADC7" fill-rule="evenodd"><path d="M15.383 0h19.234c5.349 0 7.289.557 9.244 1.603a10.904 10.904 0 0 1 4.536 4.536C49.443 8.094 50 10.034 50 15.383v19.234c0 5.349-.557 7.289-1.603 9.244a10.904 10.904 0 0 1-4.536 4.536C41.906 49.443 39.966 50 34.617 50H15.383c-5.349 0-7.289-.557-9.244-1.603a10.904 10.904 0 0 1-4.536-4.536C.557 41.906 0 39.966 0 34.617V15.383c0-5.349.557-7.289 1.603-9.244a10.904 10.904 0 0 1 4.536-4.536C8.094.557 10.034 0 15.383 0z" opacity=".3"/><path d="M39 13.55v22.757a1 1 0 0 1-.929.997L25 38.238l-13.071-.934a1 1 0 0 1-.929-.997V13.55a1 1 0 0 1 1.071-.997L25 13.476l12.929-.923A1 1 0 0 1 39 13.55z" opacity=".6"/><path d="M15 11.198a1 1 0 0 1 .179.016l9.321 1.694v24L14 35V12.198a1 1 0 0 1 1-1zm20.984.821a1 1 0 0 1 .016.18V35l-10.5 1.908v-24l9.321-1.694a1 1 0 0 1 1.163.805z"/></g></svg>
