<svg height="50" viewBox="0 0 50 50" width="50" xmlns="http://www.w3.org/2000/svg"><g fill="#955DD6" fill-rule="evenodd"><path d="M15.383 0h19.234c5.349 0 7.289.557 9.244 1.603a10.904 10.904 0 0 1 4.536 4.536C49.443 8.094 50 10.034 50 15.383v19.234c0 5.349-.557 7.289-1.603 9.244a10.904 10.904 0 0 1-4.536 4.536C41.906 49.443 39.966 50 34.617 50H15.383c-5.349 0-7.289-.557-9.244-1.603a10.904 10.904 0 0 1-4.536-4.536C.557 41.906 0 39.966 0 34.617V15.383c0-5.349.557-7.289 1.603-9.244a10.904 10.904 0 0 1 4.536-4.536C8.094.557 10.034 0 15.383 0z" opacity=".3"/><path d="M32 19.8c0 7.89-3.891 8.777-11.673 8.8H20c-1.679 0-3.181-.035-4.507-.165l-2.03 1.96a1 1 0 0 1-1.693-.707l-.029-2.107C9.247 26.489 8 24.267 8 19.8c0-7.89 3.891-8.777 11.673-8.8H20c8 0 12 .8 12 8.8z" opacity=".6"/><path d="M18 29.8c0 7.89 3.891 8.777 11.673 8.8H30c1.679 0 3.181-.035 4.507-.165l2.03 1.96a1 1 0 0 0 1.693-.707l.029-2.107C40.753 36.489 42 34.267 42 29.8c0-7.89-3.891-8.777-11.673-8.8H30c-8 0-12 .8-12 8.8z"/></g></svg>
