<svg xmlns="http://www.w3.org/2000/svg" width="30" height="30" viewBox="0 0 30 30">
    <g fill="#945DD6" fill-rule="evenodd">
        <path d="M10 10.417c0 .322-.224.583-.5.583s-.5-.261-.5-.583V4.583C9 4.261 9.224 4 9.5 4s.5.261.5.583v5.834zm-4 0c0 .322-.224.583-.5.583s-.5-.261-.5-.583V4.583C5 4.261 5.224 4 5.5 4s.5.261.5.583v5.834zm7-5.834c0-.322.224-.583.5-.583s.5.261.5.583v5.834c0 .322-.224.583-.5.583s-.5-.261-.5-.583V4.583zM17 6.6c0-.331.224-.6.5-.6s.5.269.5.6v4.8c0 .331-.224.6-.5.6s-.5-.269-.5-.6V6.6zm-4.222 15.275c0-5.17 4.298-9.375 9.583-9.375.216 0 .427.019.639.031V6.875a.619.619 0 0 0-.188-.442L16.423.183a.646.646 0 0 0-.45-.183H.638A.632.632 0 0 0 0 .625v11.25c0 .345.286.625.639.625h.639V15h-.64a.632.632 0 0 0-.638.625v13.75c0 .345.286.625.639.625H17.6c-2.877-1.62-4.822-4.651-4.822-8.125z"/>
        <path d="M27.963 23.803C27.24 25.716 25.297 27 23.128 27a5.813 5.813 0 0 1-3.846-1.474v.407c0 .333-.286.6-.64.6-.355 0-.642-.267-.642-.6V23.6c0-.331.287-.6.641-.6h2.493c.355 0 .641.269.641.6 0 .332-.286.6-.641.6H19.74c.736.958 2.027 1.6 3.388 1.6 1.627 0 3.085-.964 3.627-2.398.117-.312.482-.476.818-.366.334.11.508.455.39.767m-10.926-3.605C17.76 18.285 19.703 17 21.872 17c1.45 0 2.85.572 3.846 1.476v-.41c0-.33.286-.6.64-.6.355 0 .642.27.642.6V20.4c0 .332-.287.6-.641.6h-2.493c-.354 0-.641-.268-.641-.6 0-.331.287-.6.641-.6h1.394c-.736-.957-2.029-1.6-3.388-1.6-1.627 0-3.085.964-3.626 2.398a.641.641 0 0 1-.604.4.66.66 0 0 1-.214-.034c-.335-.112-.51-.454-.391-.766M22 14c-4.411 0-8 3.589-8 8s3.589 8 8 8 8-3.589 8-8-3.589-8-8-8"/>
    </g>
</svg>
