<svg xmlns="http://www.w3.org/2000/svg" width="29" height="29" viewBox="0 0 29 29">
    <g fill="#9FD87D" fill-rule="evenodd">
        <path d="M28.972 24.222c-.072-2.132-1.445-3.948-3.377-4.76.906-.658 1.501-1.69 1.501-2.862 0-1.985-1.684-3.6-3.757-3.6-2.071 0-3.757 1.615-3.757 3.6 0 1.171.595 2.202 1.5 2.86-1.449.61-2.575 1.789-3.082 3.237A6.716 6.716 0 0 1 20.059 25h8.315a.613.613 0 0 0 .626-.6.561.561 0 0 0-.028-.178M11 22.676c-.51-1.44-1.644-2.607-3.09-3.215.908-.658 1.505-1.69 1.505-2.861 0-1.986-1.689-3.6-3.766-3.6-2.076 0-3.766 1.614-3.766 3.6 0 1.17.596 2.2 1.504 2.858C1.397 20.295 0 22.192 0 24.4c0 .331.281.6.628.6h8.295A6.724 6.724 0 0 1 11 22.676"/>
        <path d="M19.973 28.222c-.07-2.132-1.407-3.948-3.289-4.76.883-.658 1.462-1.69 1.462-2.862 0-1.985-1.64-3.6-3.658-3.6-2.017 0-3.659 1.615-3.659 3.6 0 1.171.58 2.202 1.461 2.86C10.357 24.296 9 26.193 9 28.4c0 .332.273.6.61.6h9.78a.604.604 0 0 0 .583-.778M19.373 3h-8.746C10.281 3 10 2.776 10 2.5s.281-.5.627-.5h8.746c.346 0 .627.224.627.5s-.281.5-.627.5m0 3h-8.746C10.281 6 10 5.776 10 5.5s.281-.5.627-.5h8.746c.346 0 .627.224.627.5s-.281.5-.627.5m0 2h-8.746C10.281 8 10 7.776 10 7.5s.281-.5.627-.5h8.746c.346 0 .627.224.627.5s-.281.5-.627.5m1.806-8H7.82C6.817 0 6 .828 6 1.846v8.616c0 1.017.817 1.846 1.821 1.846h.963l3.466 3.511a.601.601 0 0 0 .662.134.614.614 0 0 0 .374-.568v-3.077h7.893c1.004 0 1.821-.829 1.821-1.846V1.846C23 .828 22.183 0 21.179 0"/>
    </g>
</svg>
