<svg xmlns="http://www.w3.org/2000/svg" xmlns:xlink="http://www.w3.org/1999/xlink" viewBox="0 0 650 450">
  <rect width="650" height="450" fill="#DEE8ED" />
  <g transform="translate(201.224 161.46)" fill-rule="nonzero" opacity=".05">
    <path fill="#000" d="M-7.10542736e-15,113.324 L-7.10542736e-15,4.756 C-7.10542736e-15,3.88132896 0.30066366,3.14333634 0.902,2.542 C1.50333634,1.94066366 2.18666284,1.64 2.952,1.64 L42.968,1.64 C58.8214126,1.64 72.3786104,7.2432773 83.64,18.45 C94.9013896,29.6567227 100.532,43.1319213 100.532,58.876 C100.532,74.7294126 94.9013896,88.2866104 83.64,99.548 C72.3786104,110.80939 58.8214126,116.44 42.968,116.44 L2.952,116.44 C2.18666284,116.44 1.50333634,116.139336 0.902,115.538 C0.30066366,114.936664 -7.10542736e-15,114.198671 -7.10542736e-15,113.324 Z M25.584,92.168 L41.328,92.168 C50.5120459,92.168 58.1379697,88.970032 64.206,82.574 C70.2740303,76.177968 73.308,68.2787137 73.308,58.876 C73.308,49.5826202 70.2740303,41.738032 64.206,35.342 C58.1379697,28.945968 50.5120459,25.748 41.328,25.748 L25.584,25.748 L25.584,92.168 Z"/>
    <path fill="#464646" d="M116.994478,143.609333 L65.8264783,33.2373333 C65.2798089,32.1439945 65.307142,31.1600044 65.9084783,30.2853333 C66.5098147,29.4106623 67.4118057,28.9733333 68.6144783,28.9733333 L90.4264783,28.9733333 C91.8478188,28.9733333 92.7771428,29.5746607 93.2144783,30.7773333 L120.274478,90.6373333 L121.258478,90.6373333 L148.318478,30.7773333 C148.755814,29.5746607 149.685138,28.9733333 151.106478,28.9733333 L172.918478,28.9733333 C174.121151,28.9733333 175.023142,29.4106623 175.624478,30.2853333 C176.225815,31.1600044 176.253148,32.1439945 175.706478,33.2373333 L124.210478,143.609333 C123.554475,144.812006 122.625151,145.413333 121.422478,145.413333 L119.782478,145.413333 C118.579806,145.413333 117.650482,144.812006 116.994478,143.609333 Z"/>
    <path fill="#000" d="M158.506,101.024 C147.025943,89.5439426 141.286,75.604082 141.286,59.204 C141.286,42.803918 147.053276,28.8367243 158.588,17.302 C170.122724,5.76727566 184.089918,0 200.49,0 C215.796743,0 229.025944,5.08394916 240.178,15.252 C241.818008,16.7826743 241.872674,18.3133257 240.342,19.844 L227.55,33.128 C226.12866,34.4400066 224.762007,34.4400066 223.45,33.128 C217.217969,27.5519721 209.838043,24.764 201.31,24.764 C192.125954,24.764 184.472697,28.0713003 178.35,34.686 C172.227303,41.3006997 169.166,49.2546202 169.166,58.548 C169.166,67.7320459 172.254636,75.5766341 178.432,82.082 C184.609364,88.5873659 192.289954,91.84 201.474,91.84 C210.002043,91.84 217.327303,89.2160262 223.45,83.968 C224.980674,82.6559934 226.401993,82.7106596 227.714,84.132 L240.506,97.744 C241.92734,99.1653404 241.872674,100.641326 240.342,102.172 C229.408612,112.777386 216.124745,118.08 200.49,118.08 C184.089918,118.08 170.095391,112.394724 158.506,101.024 Z"/>
  </g>
</svg>
