<svg width="20" height="20" viewBox="0 0 20 20" fill="none" xmlns="http://www.w3.org/2000/svg">
<g clip-path="url(#clip0_17_233)">
<path fill-rule="evenodd" clip-rule="evenodd" d="M2.22183 18.132C2.61235 18.5225 3.24552 18.5225 3.63604 18.132L9.82322 11.9448C9.92085 11.8471 10.0791 11.8471 10.1768 11.9448L16.364 18.132C16.7545 18.5225 17.3876 18.5225 17.7782 18.132L18.1317 17.7784C18.5223 17.3879 18.5222 16.7547 18.1317 16.3642L11.9445 10.177C11.8469 10.0794 11.8469 9.92109 11.9445 9.82346L18.1317 3.63627C18.5223 3.24575 18.5223 2.61258 18.1317 2.22206L17.7782 1.86851C17.3877 1.47798 16.7545 1.47798 16.364 1.86851L10.1768 8.05569C10.0791 8.15332 9.92085 8.15332 9.82322 8.05569L3.63604 1.86851C3.24551 1.47798 2.61235 1.47798 2.22182 1.86851L1.86827 2.22206C1.47775 2.61259 1.47775 3.24575 1.86827 3.63628L8.05546 9.82346C8.15309 9.92109 8.15309 10.0794 8.05546 10.177L1.86827 16.3642C1.47775 16.7547 1.47775 17.3879 1.86827 17.7784L2.22183 18.132Z" fill="white"/>
</g>
<defs>
<clipPath id="clip0_17_233">
<rect width="20" height="20" fill="white"/>
</clipPath>
</defs>
</svg>
