<svg width="16" height="16" viewBox="0 0 16 16" fill="none" xmlns="http://www.w3.org/2000/svg">
<g clip-path="url(#clip0)">
<path d="M4.57143 12.5716C7.09616 12.5716 9.04762 10.4287 10.3333 9.19061V6.42871C6.71428 9.76204 5.99159 10.5716 4.57143 10.5716C3.15127 10.5716 2 9.4203 2 8.00014H0C0 10.5249 2.0467 12.5716 4.57143 12.5716Z" fill="#8669AC"/>
<path d="M4.57143 12.5716C7.09616 12.5716 9.04762 10.4287 10.3333 9.19061V6.42871C6.71428 9.76204 5.99159 10.5716 4.57143 10.5716C3.15127 10.5716 2 9.4203 2 8.00014H0C0 10.5249 2.0467 12.5716 4.57143 12.5716Z" fill="url(#paint0_linear)"/>
<path d="M4.57143 3.42868C7.09616 3.42868 9.04762 5.57154 10.3333 6.80963V9.57153C6.71428 6.2382 5.99159 5.42868 4.57143 5.42868C3.15127 5.42868 2 6.57994 2 8.0001H0C0 5.47537 2.0467 3.42868 4.57143 3.42868Z" fill="#8669AC"/>
<path d="M4.57143 3.42868C7.09616 3.42868 9.04762 5.57154 10.3333 6.80963V9.57153C6.71428 6.2382 5.99159 5.42868 4.57143 5.42868C3.15127 5.42868 2 6.57994 2 8.0001H0C0 5.47537 2.0467 3.42868 4.57143 3.42868Z" fill="url(#paint1_linear)"/>
<path d="M4.57143 3.42847C2.0467 3.42847 0 5.47516 0 7.9999C0 10.5246 2.0467 12.5713 4.57143 12.5713V10.5713C3.15127 10.5713 2 9.42006 2 7.9999C2 6.57973 3.15127 5.42847 4.57143 5.42847V3.42847Z" fill="#27AFC8"/>
<path d="M4.57143 3.42847C2.0467 3.42847 0 5.47516 0 7.9999C0 10.5246 2.0467 12.5713 4.57143 12.5713V10.5713C3.15127 10.5713 2 9.42006 2 7.9999C2 6.57973 3.15127 5.42847 4.57143 5.42847V3.42847Z" fill="url(#paint2_linear)"/>
<path d="M15.9997 7.99995C15.9997 6.3694 14.6778 5.04757 13.0473 5.04757C11.6663 5.04757 11.1425 5.71424 10.333 6.42853L10.333 9.19043C10.9044 8.66662 12.1902 7.04757 13.0473 7.04757C13.5733 7.04757 13.9997 7.47397 13.9997 7.99995L15.9997 7.99995Z" fill="url(#paint3_linear)"/>
<path d="M15.9997 8.00005C15.9997 9.6306 14.6778 10.9524 13.0473 10.9524C11.6663 10.9524 11.1425 10.2858 10.333 9.57148L10.333 6.80957C10.9044 7.33338 12.1902 8.95243 13.0473 8.95243C13.5733 8.95243 13.9997 8.52603 13.9997 8.00005L15.9997 8.00005Z" fill="url(#paint4_linear)"/>
<path d="M13.0479 10.9524C14.6784 10.9524 16.0002 9.63054 16.0002 7.99999C16.0002 6.36943 14.6784 5.04761 13.0479 5.04761V7.04761C13.5738 7.04761 14.0002 7.474 14.0002 7.99999C14.0002 8.52597 13.5738 8.95237 13.0479 8.95237V10.9524Z" fill="url(#paint5_linear)"/>
</g>
<defs>
<linearGradient id="paint0_linear" x1="2.47619" y1="10.143" x2="9.61905" y2="8.57157" gradientUnits="userSpaceOnUse">
<stop offset="0.264498" stop-color="#8A56C8"/>
<stop offset="0.704109" stop-color="#5C53BC"/>
<stop offset="0.985436" stop-color="#155C9D"/>
</linearGradient>
<linearGradient id="paint1_linear" x1="4.7619" y1="5.38106" x2="10.381" y2="7.33344" gradientUnits="userSpaceOnUse">
<stop stop-color="#EB6237"/>
<stop offset="0.370218" stop-color="#E95962"/>
<stop offset="1" stop-color="#6E5CDE"/>
</linearGradient>
<linearGradient id="paint2_linear" x1="4.57143" y1="10.5713" x2="4.57143" y2="5.47609" gradientUnits="userSpaceOnUse">
<stop stop-color="#8A56C8"/>
<stop offset="0.251771" stop-color="#9E5597"/>
<stop offset="0.554757" stop-color="#AD5464"/>
<stop offset="0.804829" stop-color="#D65A44"/>
<stop offset="1" stop-color="#EB6136"/>
</linearGradient>
<linearGradient id="paint3_linear" x1="10.9044" y1="8.19043" x2="13.5711" y2="7.47614" gradientUnits="userSpaceOnUse">
<stop stop-color="#155C9D"/>
<stop offset="0.201687" stop-color="#1871B2"/>
<stop offset="0.342321" stop-color="#2281B7"/>
<stop offset="0.581426" stop-color="#259ACC"/>
<stop offset="0.755678" stop-color="#09AADD"/>
<stop offset="1" stop-color="#1DB9E8"/>
</linearGradient>
<linearGradient id="paint4_linear" x1="10.333" y1="8.881" x2="13.2854" y2="8.85719" gradientUnits="userSpaceOnUse">
<stop stop-color="#6E5CDE"/>
<stop offset="0.203274" stop-color="#5C72E1"/>
<stop offset="0.410033" stop-color="#588FE0"/>
<stop offset="0.759012" stop-color="#36B1E6"/>
<stop offset="1" stop-color="#1DB9E8"/>
</linearGradient>
<linearGradient id="paint5_linear" x1="13.0479" y1="7.5238" x2="16.0002" y2="7.5238" gradientUnits="userSpaceOnUse">
<stop stop-color="#23BAE8" stop-opacity="0"/>
<stop offset="0.417914" stop-color="#23D0E8" stop-opacity="0.38"/>
<stop offset="1" stop-color="#21D6EF"/>
</linearGradient>
<clipPath id="clip0">
<rect width="16" height="16" fill="white"/>
</clipPath>
</defs>
</svg>
