<svg width="80" height="64" viewBox="0 0 80 64" fill="none" xmlns="http://www.w3.org/2000/svg">
<path d="M49.4501 25.4677C43.3725 19.5144 34.6824 11 23.7146 11C11.7217 11 2 20.7217 2 32.7146H11.5C11.5 25.9688 16.9688 20.5 23.7146 20.5C29.8065 20.5 33.1972 23.6366 46.4616 35.909C48.4724 37.7694 50.4912 39.6195 52.5099 41.4697C55.6354 44.3331 58.2598 46.7382 63.9764 46.7382C71.7213 46.7382 78 40.4595 78 32.7146H68.5C68.5 33.9143 68.0234 35.0649 67.1751 35.9133C66.3267 36.7616 65.1762 37.2382 63.9764 37.2382C60.8296 37.2382 56.4667 32.6442 53.3934 29.4086C52.1125 28.0588 50.7785 26.77 49.4501 25.4677Z" fill="url(#paint0_linear)"/>
<path d="M56.6345 32.7146C55.4771 31.6023 54.3703 30.437 53.3934 29.4086C52.3334 28.2924 51.2377 27.2173 50.1389 26.1422L51.0833 25.25C51.5773 24.8146 52.0492 24.3815 52.5107 23.9596C55.6354 21.0953 58.2598 18.6902 63.9764 18.6902C71.7213 18.6902 78 24.9689 78 32.7154H68.5C68.5001 32.1213 68.3832 31.533 68.1559 30.9841C67.9286 30.4351 67.5954 29.9364 67.1754 29.5162C66.7553 29.0961 66.2566 28.7628 65.7077 28.5354C65.1588 28.3081 64.5705 28.191 63.9764 28.191C61.8294 28.191 59.1172 30.3285 56.6345 32.7154V32.7146Z" fill="url(#paint1_linear)"/>
<path d="M43.0036 32.7146C44.0771 33.7034 45.2266 34.7666 46.4616 35.909C47.6831 37.0395 48.9078 38.1652 50.1341 39.291L49.4501 39.9607C43.3733 45.9141 34.6824 54.4284 23.7146 54.4284C11.7217 54.4284 2 44.7068 2 32.7154H11.5C11.5 39.4604 16.9688 44.9292 23.7146 44.9292C29.2397 44.9292 32.5417 42.3492 43.0036 32.7154V32.7146Z" fill="url(#paint2_linear)"/>
<defs>
<linearGradient id="paint0_linear" x1="30" y1="17.5" x2="56" y2="43.5" gradientUnits="userSpaceOnUse">
<stop stop-color="#F46837"/>
<stop offset="0.457699" stop-color="#945DD6"/>
<stop offset="1" stop-color="#13ADC7"/>
</linearGradient>
<linearGradient id="paint1_linear" x1="53.4583" y1="29.6042" x2="63" y2="20.0625" gradientUnits="userSpaceOnUse">
<stop stop-color="#1497B8"/>
<stop offset="0.452509" stop-color="#13ADC7"/>
</linearGradient>
<linearGradient id="paint2_linear" x1="24" y1="33" x2="41" y2="50" gradientUnits="userSpaceOnUse">
<stop stop-color="#F46837"/>
<stop offset="0.582702" stop-color="#945DD6"/>
<stop offset="1" stop-color="#7E51C2"/>
</linearGradient>
</defs>
</svg>
