<svg xmlns="http://www.w3.org/2000/svg" xmlns:xlink="http://www.w3.org/1999/xlink" version="1.1" class="marks" width="444" height="364" viewBox="0 0 444 364"><rect width="444" height="364" fill="white"/><g fill="none" stroke-miterlimit="10" transform="translate(47,27)"><g class="mark-group role-frame root" role="graphics-object" aria-roledescription="group mark container"><g transform="translate(0,0)"><path class="background" aria-hidden="true" d="M0.5,0.5h300v300h-300Z" stroke="#ddd"/><g><g class="mark-group role-axis" aria-hidden="true"><g transform="translate(0.5,300.5)"><path class="background" aria-hidden="true" d="M0,0h0v0h0Z" pointer-events="none"/><g><g class="mark-rule role-axis-grid" pointer-events="none"><line transform="translate(0,-300)" x2="0" y2="300" stroke="#ddd" stroke-width="1" opacity="1"/><line transform="translate(33,-300)" x2="0" y2="300" stroke="#ddd" stroke-width="1" opacity="1"/><line transform="translate(67,-300)" x2="0" y2="300" stroke="#ddd" stroke-width="1" opacity="1"/><line transform="translate(100,-300)" x2="0" y2="300" stroke="#ddd" stroke-width="1" opacity="1"/><line transform="translate(133,-300)" x2="0" y2="300" stroke="#ddd" stroke-width="1" opacity="1"/><line transform="translate(167,-300)" x2="0" y2="300" stroke="#ddd" stroke-width="1" opacity="1"/><line transform="translate(200,-300)" x2="0" y2="300" stroke="#ddd" stroke-width="1" opacity="1"/><line transform="translate(233,-300)" x2="0" y2="300" stroke="#ddd" stroke-width="1" opacity="1"/><line transform="translate(267,-300)" x2="0" y2="300" stroke="#ddd" stroke-width="1" opacity="1"/><line transform="translate(300,-300)" x2="0" y2="300" stroke="#ddd" stroke-width="1" opacity="1"/></g></g><path class="foreground" aria-hidden="true" d="" pointer-events="none" display="none"/></g></g><g class="mark-group role-axis" aria-hidden="true"><g transform="translate(0.5,0.5)"><path class="background" aria-hidden="true" d="M0,0h0v0h0Z" pointer-events="none"/><g><g class="mark-rule role-axis-grid" pointer-events="none"><line transform="translate(0,300)" x2="300" y2="0" stroke="#ddd" stroke-width="1" opacity="1"/><line transform="translate(0,270)" x2="300" y2="0" stroke="#ddd" stroke-width="1" opacity="1"/><line transform="translate(0,240)" x2="300" y2="0" stroke="#ddd" stroke-width="1" opacity="1"/><line transform="translate(0,210)" x2="300" y2="0" stroke="#ddd" stroke-width="1" opacity="1"/><line transform="translate(0,180)" x2="300" y2="0" stroke="#ddd" stroke-width="1" opacity="1"/><line transform="translate(0,150)" x2="300" y2="0" stroke="#ddd" stroke-width="1" opacity="1"/><line transform="translate(0,120)" x2="300" y2="0" stroke="#ddd" stroke-width="1" opacity="1"/><line transform="translate(0,90)" x2="300" y2="0" stroke="#ddd" stroke-width="1" opacity="1"/><line transform="translate(0,60)" x2="300" y2="0" stroke="#ddd" stroke-width="1" opacity="1"/><line transform="translate(0,30)" x2="300" y2="0" stroke="#ddd" stroke-width="1" opacity="1"/><line transform="translate(0,0)" x2="300" y2="0" stroke="#ddd" stroke-width="1" opacity="1"/></g></g><path class="foreground" aria-hidden="true" d="" pointer-events="none" display="none"/></g></g><g class="mark-group role-axis" role="graphics-symbol" aria-roledescription="axis" aria-label="X-axis titled 'step' for a linear scale with values from 0 to 9"><g transform="translate(0.5,300.5)"><path class="background" aria-hidden="true" d="M0,0h0v0h0Z" pointer-events="none"/><g><g class="mark-rule role-axis-tick" pointer-events="none"><line transform="translate(0,0)" x2="0" y2="5" stroke="#888" stroke-width="1" opacity="1"/><line transform="translate(33,0)" x2="0" y2="5" stroke="#888" stroke-width="1" opacity="1"/><line transform="translate(67,0)" x2="0" y2="5" stroke="#888" stroke-width="1" opacity="1"/><line transform="translate(100,0)" x2="0" y2="5" stroke="#888" stroke-width="1" opacity="1"/><line transform="translate(133,0)" x2="0" y2="5" stroke="#888" stroke-width="1" opacity="1"/><line transform="translate(167,0)" x2="0" y2="5" stroke="#888" stroke-width="1" opacity="1"/><line transform="translate(200,0)" x2="0" y2="5" stroke="#888" stroke-width="1" opacity="1"/><line transform="translate(233,0)" x2="0" y2="5" stroke="#888" stroke-width="1" opacity="1"/><line transform="translate(267,0)" x2="0" y2="5" stroke="#888" stroke-width="1" opacity="1"/><line transform="translate(300,0)" x2="0" y2="5" stroke="#888" stroke-width="1" opacity="1"/></g><g class="mark-text role-axis-label" pointer-events="none"><text text-anchor="start" transform="translate(0,15)" font-family="sans-serif" font-size="10px" fill="#000" opacity="1">0</text><text text-anchor="middle" transform="translate(33.33333333333333,15)" font-family="sans-serif" font-size="10px" fill="#000" opacity="1">1</text><text text-anchor="middle" transform="translate(66.66666666666666,15)" font-family="sans-serif" font-size="10px" fill="#000" opacity="1">2</text><text text-anchor="middle" transform="translate(100,15)" font-family="sans-serif" font-size="10px" fill="#000" opacity="1">3</text><text text-anchor="middle" transform="translate(133.33333333333331,15)" font-family="sans-serif" font-size="10px" fill="#000" opacity="1">4</text><text text-anchor="middle" transform="translate(166.66666666666669,15)" font-family="sans-serif" font-size="10px" fill="#000" opacity="1">5</text><text text-anchor="middle" transform="translate(200,15)" font-family="sans-serif" font-size="10px" fill="#000" opacity="1">6</text><text text-anchor="middle" transform="translate(233.33333333333334,15)" font-family="sans-serif" font-size="10px" fill="#000" opacity="1">7</text><text text-anchor="middle" transform="translate(266.66666666666663,15)" font-family="sans-serif" font-size="10px" fill="#000" opacity="1">8</text><text text-anchor="end" transform="translate(300,15)" font-family="sans-serif" font-size="10px" fill="#000" opacity="1">9</text></g><g class="mark-rule role-axis-domain" pointer-events="none"><line transform="translate(0,0)" x2="300" y2="0" stroke="#888" stroke-width="1" opacity="1"/></g><g class="mark-text role-axis-title" pointer-events="none"><text text-anchor="middle" transform="translate(150,30)" font-family="sans-serif" font-size="11px" font-weight="bold" fill="#000" opacity="1">step</text></g></g><path class="foreground" aria-hidden="true" d="" pointer-events="none" display="none"/></g></g><g class="mark-group role-axis" role="graphics-symbol" aria-roledescription="axis" aria-label="Y-axis titled 'train_loss' for a linear scale with values from 0.01 to 0.11"><g transform="translate(0.5,0.5)"><path class="background" aria-hidden="true" d="M0,0h0v0h0Z" pointer-events="none"/><g><g class="mark-rule role-axis-tick" pointer-events="none"><line transform="translate(0,300)" x2="-5" y2="0" stroke="#888" stroke-width="1" opacity="1"/><line transform="translate(0,270)" x2="-5" y2="0" stroke="#888" stroke-width="1" opacity="1"/><line transform="translate(0,240)" x2="-5" y2="0" stroke="#888" stroke-width="1" opacity="1"/><line transform="translate(0,210)" x2="-5" y2="0" stroke="#888" stroke-width="1" opacity="1"/><line transform="translate(0,180)" x2="-5" y2="0" stroke="#888" stroke-width="1" opacity="1"/><line transform="translate(0,150)" x2="-5" y2="0" stroke="#888" stroke-width="1" opacity="1"/><line transform="translate(0,120)" x2="-5" y2="0" stroke="#888" stroke-width="1" opacity="1"/><line transform="translate(0,90)" x2="-5" y2="0" stroke="#888" stroke-width="1" opacity="1"/><line transform="translate(0,60)" x2="-5" y2="0" stroke="#888" stroke-width="1" opacity="1"/><line transform="translate(0,30)" x2="-5" y2="0" stroke="#888" stroke-width="1" opacity="1"/><line transform="translate(0,0)" x2="-5" y2="0" stroke="#888" stroke-width="1" opacity="1"/></g><g class="mark-text role-axis-label" pointer-events="none"><text text-anchor="end" transform="translate(-7,303)" font-family="sans-serif" font-size="10px" fill="#000" opacity="1">0.01</text><text text-anchor="end" transform="translate(-7,273)" font-family="sans-serif" font-size="10px" fill="#000" opacity="1">0.02</text><text text-anchor="end" transform="translate(-7,243)" font-family="sans-serif" font-size="10px" fill="#000" opacity="1">0.03</text><text text-anchor="end" transform="translate(-7,213)" font-family="sans-serif" font-size="10px" fill="#000" opacity="1">0.04</text><text text-anchor="end" transform="translate(-7,183.00000000000003)" font-family="sans-serif" font-size="10px" fill="#000" opacity="1">0.05</text><text text-anchor="end" transform="translate(-7,153)" font-family="sans-serif" font-size="10px" fill="#000" opacity="1">0.06</text><text text-anchor="end" transform="translate(-7,123)" font-family="sans-serif" font-size="10px" fill="#000" opacity="1">0.07</text><text text-anchor="end" transform="translate(-7,92.99999999999999)" font-family="sans-serif" font-size="10px" fill="#000" opacity="1">0.08</text><text text-anchor="end" transform="translate(-7,63.00000000000002)" font-family="sans-serif" font-size="10px" fill="#000" opacity="1">0.09</text><text text-anchor="end" transform="translate(-7,32.99999999999999)" font-family="sans-serif" font-size="10px" fill="#000" opacity="1">0.10</text><text text-anchor="end" transform="translate(-7,3)" font-family="sans-serif" font-size="10px" fill="#000" opacity="1">0.11</text></g><g class="mark-rule role-axis-domain" pointer-events="none"><line transform="translate(0,300)" x2="0" y2="-300" stroke="#888" stroke-width="1" opacity="1"/></g><g class="mark-text role-axis-title" pointer-events="none"><text text-anchor="middle" transform="translate(-30.46666717529297,150) rotate(-90) translate(0,-2)" font-family="sans-serif" font-size="11px" font-weight="bold" fill="#000" opacity="1">train_loss</text></g></g><path class="foreground" aria-hidden="true" d="" pointer-events="none" display="none"/></g></g><g class="mark-group role-scope layer_0_layer_0_pathgroup" role="graphics-object" aria-roledescription="group mark container"><g transform="translate(0,0)"><path class="background" aria-hidden="true" d="M0,0h300v300h-300Z"/><g><g class="mark-line role-mark layer_0_layer_0_marks" role="graphics-object" aria-roledescription="line mark container"><path aria-label="step: 0; train_loss: 0.05912219733; rev: bitty-tass" role="graphics-symbol" aria-roledescription="line mark" d="M0,152.63340801000598L33.33333333333333,222.0506983995438L66.66666666666666,200.40196359157565L100,254.90081302821636L133.33333333333331,199.06967684626582L166.66666666666669,270.68505987524986L200,179.43922609090808L233.33333333333334,277.4770165979862L266.66666666666663,175.48924863338473L300,268.86118568480015" stroke="#4c78a8" stroke-width="2"/></g></g><path class="foreground" aria-hidden="true" d="" display="none"/></g><g transform="translate(0,0)"><path class="background" aria-hidden="true" d="M0,0h300v300h-300Z"/><g><g class="mark-line role-mark layer_0_layer_0_marks" role="graphics-object" aria-roledescription="line mark container"><path aria-label="step: 0; train_loss: 0.0583667084575; rev: murky-emeu" role="graphics-symbol" aria-roledescription="line mark" d="M0,154.8998746275902L33.33333333333333,222.86064729094508L66.66666666666666,188.20275172591212L100,247.83749498426917L133.33333333333331,194.88016694784167L166.66666666666669,269.0353951603174L200,214.2488117516041L233.33333333333334,285.50360530614853L266.66666666666663,233.35627645254138L300,280.81171207129955" stroke="#f58518" stroke-width="2"/></g></g><path class="foreground" aria-hidden="true" d="" display="none"/></g><g transform="translate(0,0)"><path class="background" aria-hidden="true" d="M0,0h300v300h-300Z"/><g><g class="mark-line role-mark layer_0_layer_0_marks" role="graphics-object" aria-roledescription="line mark container"><path aria-label="step: 0; train_loss: 0.107198596001; rev: named-gaby" role="graphics-symbol" aria-roledescription="line mark" d="M0,8.404211997985833L33.33333333333333,210.6201294064522L66.66666666666666,168.21872994303706L100,218.6523507535458L133.33333333333331,186.14056885242465L166.66666666666669,225.4674303531647L200,192.75030300021174L233.33333333333334,230.81823617219928L266.66666666666663,194.90149050951007L300,236.38295933604243" stroke="#e45756" stroke-width="2"/></g></g><path class="foreground" aria-hidden="true" d="" display="none"/></g><g transform="translate(0,0)"><path class="background" aria-hidden="true" d="M0,0h300v300h-300Z"/><g><g class="mark-line role-mark layer_0_layer_0_marks" role="graphics-object" aria-roledescription="line mark container"><path aria-label="step: 0; train_loss: 0.0606422573328; rev: quare-foil" role="graphics-symbol" aria-roledescription="line mark" d="M0,148.07322800159457L33.33333333333333,214.05033946037295L66.66666666666666,188.5232086479664L100,256.11289769411087L133.33333333333331,195.65714702010158L166.66666666666669,262.8861068934202L200,202.38847464323047L233.33333333333334,268.2166061550379L266.66666666666663,207.06500664353374L300,269.41231817007065" stroke="#72b7b2" stroke-width="2"/></g></g><path class="foreground" aria-hidden="true" d="" display="none"/></g><g transform="translate(0,0)"><path class="background" aria-hidden="true" d="M0,0h300v300h-300Z"/><g><g class="mark-line role-mark layer_0_layer_0_marks" role="graphics-object" aria-roledescription="line mark container"><path aria-label="step: 0; train_loss: 0.068151421845; rev: sworn-wage" role="graphics-symbol" aria-roledescription="line mark" d="M0,125.54573446512225L33.33333333333333,215.27296856045726L66.66666666666666,183.21870446205142L100,233.9040729403496L133.33333333333331,180.76832771301272L166.66666666666669,245.86024314165118L200,199.74639818072322L233.33333333333334,259.14857156574726L266.66666666666663,203.29851463437083L300,270.84043242037296" stroke="#54a24b" stroke-width="2"/></g></g><path class="foreground" aria-hidden="true" d="" display="none"/></g></g><g class="mark-symbol role-mark layer_0_layer_1_marks" role="graphics-object" aria-roledescription="symbol mark container"><path aria-label="step: 8; train_loss: 0.0515035837889; rev: bitty-tass" role="graphics-symbol" aria-roledescription="circle" transform="translate(266.66666666666663,175.48924863338473)" d="M2.7386127875258306,0A2.7386127875258306,2.7386127875258306,0,1,1,-2.7386127875258306,0A2.7386127875258306,2.7386127875258306,0,1,1,2.7386127875258306,0" fill="#4c78a8" stroke-width="2" opacity="0.7"/></g><g class="mark-rule role-mark layer_0_layer_2_marks" role="graphics-object" aria-roledescription="rule mark container"><line aria-label="step: 0; train_loss: 0.05912219733; rev: bitty-tass" role="graphics-symbol" aria-roledescription="rule mark" transform="translate(0,152.63340801000598)" x2="0" y2="147.36659198999402"/><line aria-label="step: 1; train_loss: 0.0359831005335; rev: bitty-tass" role="graphics-symbol" aria-roledescription="rule mark" transform="translate(33.33333333333333,222.0506983995438)" x2="0" y2="77.94930160045621"/><line aria-label="step: 2; train_loss: 0.0431993454695; rev: bitty-tass" role="graphics-symbol" aria-roledescription="rule mark" transform="translate(66.66666666666666,200.40196359157565)" x2="0" y2="99.59803640842435"/><line aria-label="step: 3; train_loss: 0.0250330623239; rev: bitty-tass" role="graphics-symbol" aria-roledescription="rule mark" transform="translate(100,254.90081302821636)" x2="0" y2="45.09918697178364"/><line aria-label="step: 4; train_loss: 0.0436434410512; rev: bitty-tass" role="graphics-symbol" aria-roledescription="rule mark" transform="translate(133.33333333333331,199.06967684626582)" x2="0" y2="100.93032315373418"/><line aria-label="step: 5; train_loss: 0.0197716467083; rev: bitty-tass" role="graphics-symbol" aria-roledescription="rule mark" transform="translate(166.66666666666669,270.68505987524986)" x2="0" y2="29.314940124750137"/><line aria-label="step: 6; train_loss: 0.0501869246364; rev: bitty-tass" role="graphics-symbol" aria-roledescription="rule mark" transform="translate(200,179.43922609090808)" x2="0" y2="120.56077390909192"/><line aria-label="step: 7; train_loss: 0.017507661134; rev: bitty-tass" role="graphics-symbol" aria-roledescription="rule mark" transform="translate(233.33333333333334,277.4770165979862)" x2="0" y2="22.52298340201378"/><line aria-label="step: 8; train_loss: 0.0515035837889; rev: bitty-tass" role="graphics-symbol" aria-roledescription="rule mark" transform="translate(266.66666666666663,175.48924863338473)" x2="0" y2="124.51075136661527" stroke="1"/><line aria-label="step: 9; train_loss: 0.0203796047717; rev: bitty-tass" role="graphics-symbol" aria-roledescription="rule mark" transform="translate(300,268.86118568480015)" x2="0" y2="31.138814315199852"/><line aria-label="step: 0; train_loss: 0.0583667084575; rev: murky-emeu" role="graphics-symbol" aria-roledescription="rule mark" transform="translate(0,154.8998746275902)" x2="0" y2="145.1001253724098"/><line aria-label="step: 1; train_loss: 0.0357131175697; rev: murky-emeu" role="graphics-symbol" aria-roledescription="rule mark" transform="translate(33.33333333333333,222.86064729094508)" x2="0" y2="77.13935270905492"/><line aria-label="step: 2; train_loss: 0.0472657494247; rev: murky-emeu" role="graphics-symbol" aria-roledescription="rule mark" transform="translate(66.66666666666666,188.20275172591212)" x2="0" y2="111.79724827408788"/><line aria-label="step: 3; train_loss: 0.0273875016719; rev: murky-emeu" role="graphics-symbol" aria-roledescription="rule mark" transform="translate(100,247.83749498426917)" x2="0" y2="52.16250501573083"/><line aria-label="step: 4; train_loss: 0.0450399443507; rev: murky-emeu" role="graphics-symbol" aria-roledescription="rule mark" transform="translate(133.33333333333331,194.88016694784167)" x2="0" y2="105.11983305215833"/><line aria-label="step: 5; train_loss: 0.0203215349466; rev: murky-emeu" role="graphics-symbol" aria-roledescription="rule mark" transform="translate(166.66666666666669,269.0353951603174)" x2="0" y2="30.96460483968258"/><line aria-label="step: 6; train_loss: 0.0385837294161; rev: murky-emeu" role="graphics-symbol" aria-roledescription="rule mark" transform="translate(200,214.2488117516041)" x2="0" y2="85.75118824839589"/><line aria-label="step: 7; train_loss: 0.0148321315646; rev: murky-emeu" role="graphics-symbol" aria-roledescription="rule mark" transform="translate(233.33333333333334,285.50360530614853)" x2="0" y2="14.496394693851471"/><line aria-label="step: 8; train_loss: 0.0322145745158; rev: murky-emeu" role="graphics-symbol" aria-roledescription="rule mark" transform="translate(266.66666666666663,233.35627645254138)" x2="0" y2="66.64372354745862"/><line aria-label="step: 9; train_loss: 0.0163960959762; rev: murky-emeu" role="graphics-symbol" aria-roledescription="rule mark" transform="translate(300,280.81171207129955)" x2="0" y2="19.188287928700447"/><line aria-label="step: 0; train_loss: 0.107198596001; rev: named-gaby" role="graphics-symbol" aria-roledescription="rule mark" transform="translate(0,8.404211997985833)" x2="0" y2="291.59578800201416"/><line aria-label="step: 1; train_loss: 0.0397932901978; rev: named-gaby" role="graphics-symbol" aria-roledescription="rule mark" transform="translate(33.33333333333333,210.6201294064522)" x2="0" y2="89.37987059354779"/><line aria-label="step: 2; train_loss: 0.053927090019; rev: named-gaby" role="graphics-symbol" aria-roledescription="rule mark" transform="translate(66.66666666666666,168.21872994303706)" x2="0" y2="131.78127005696294"/><line aria-label="step: 3; train_loss: 0.0371158830822; rev: named-gaby" role="graphics-symbol" aria-roledescription="rule mark" transform="translate(100,218.6523507535458)" x2="0" y2="81.34764924645421"/><line aria-label="step: 4; train_loss: 0.0479531437159; rev: named-gaby" role="graphics-symbol" aria-roledescription="rule mark" transform="translate(133.33333333333331,186.14056885242465)" x2="0" y2="113.85943114757535"/><line aria-label="step: 5; train_loss: 0.0348441898823; rev: named-gaby" role="graphics-symbol" aria-roledescription="rule mark" transform="translate(166.66666666666669,225.4674303531647)" x2="0" y2="74.5325696468353"/><line aria-label="step: 6; train_loss: 0.0457498989999; rev: named-gaby" role="graphics-symbol" aria-roledescription="rule mark" transform="translate(200,192.75030300021174)" x2="0" y2="107.24969699978826"/><line aria-label="step: 7; train_loss: 0.0330605879426; rev: named-gaby" role="graphics-symbol" aria-roledescription="rule mark" transform="translate(233.33333333333334,230.81823617219928)" x2="0" y2="69.18176382780072"/><line aria-label="step: 8; train_loss: 0.0450328364968; rev: named-gaby" role="graphics-symbol" aria-roledescription="rule mark" transform="translate(266.66666666666663,194.90149050951007)" x2="0" y2="105.09850949048993"/><line aria-label="step: 9; train_loss: 0.0312056802213; rev: named-gaby" role="graphics-symbol" aria-roledescription="rule mark" transform="translate(300,236.38295933604243)" x2="0" y2="63.61704066395757"/><line aria-label="step: 0; train_loss: 0.0606422573328; rev: quare-foil" role="graphics-symbol" aria-roledescription="rule mark" transform="translate(0,148.07322800159457)" x2="0" y2="151.92677199840543"/><line aria-label="step: 1; train_loss: 0.0386498868465; rev: quare-foil" role="graphics-symbol" aria-roledescription="rule mark" transform="translate(33.33333333333333,214.05033946037295)" x2="0" y2="85.94966053962705"/><line aria-label="step: 2; train_loss: 0.0471589304507; rev: quare-foil" role="graphics-symbol" aria-roledescription="rule mark" transform="translate(66.66666666666666,188.5232086479664)" x2="0" y2="111.47679135203359"/><line aria-label="step: 3; train_loss: 0.024629034102; rev: quare-foil" role="graphics-symbol" aria-roledescription="rule mark" transform="translate(100,256.11289769411087)" x2="0" y2="43.88710230588913"/><line aria-label="step: 4; train_loss: 0.0447809509933; rev: quare-foil" role="graphics-symbol" aria-roledescription="rule mark" transform="translate(133.33333333333331,195.65714702010158)" x2="0" y2="104.34285297989842"/><line aria-label="step: 5; train_loss: 0.0223712977022; rev: quare-foil" role="graphics-symbol" aria-roledescription="rule mark" transform="translate(166.66666666666669,262.8861068934202)" x2="0" y2="37.11389310657978"/><line aria-label="step: 6; train_loss: 0.0425371751189; rev: quare-foil" role="graphics-symbol" aria-roledescription="rule mark" transform="translate(200,202.38847464323047)" x2="0" y2="97.61152535676953"/><line aria-label="step: 7; train_loss: 0.020594464615; rev: quare-foil" role="graphics-symbol" aria-roledescription="rule mark" transform="translate(233.33333333333334,268.2166061550379)" x2="0" y2="31.78339384496212"/><line aria-label="step: 8; train_loss: 0.0409783311188; rev: quare-foil" role="graphics-symbol" aria-roledescription="rule mark" transform="translate(266.66666666666663,207.06500664353374)" x2="0" y2="92.93499335646626"/><line aria-label="step: 9; train_loss: 0.0201958939433; rev: quare-foil" role="graphics-symbol" aria-roledescription="rule mark" transform="translate(300,269.41231817007065)" x2="0" y2="30.587681829929352"/><line aria-label="step: 0; train_loss: 0.068151421845; rev: sworn-wage" role="graphics-symbol" aria-roledescription="rule mark" transform="translate(0,125.54573446512225)" x2="0" y2="174.45426553487775"/><line aria-label="step: 1; train_loss: 0.0382423438132; rev: sworn-wage" role="graphics-symbol" aria-roledescription="rule mark" transform="translate(33.33333333333333,215.27296856045726)" x2="0" y2="84.72703143954274"/><line aria-label="step: 2; train_loss: 0.0489270985126; rev: sworn-wage" role="graphics-symbol" aria-roledescription="rule mark" transform="translate(66.66666666666666,183.21870446205142)" x2="0" y2="116.78129553794858"/><line aria-label="step: 3; train_loss: 0.0320319756866; rev: sworn-wage" role="graphics-symbol" aria-roledescription="rule mark" transform="translate(100,233.9040729403496)" x2="0" y2="66.09592705965039"/><line aria-label="step: 4; train_loss: 0.0497438907623; rev: sworn-wage" role="graphics-symbol" aria-roledescription="rule mark" transform="translate(133.33333333333331,180.76832771301272)" x2="0" y2="119.23167228698728"/><line aria-label="step: 5; train_loss: 0.0280465856194; rev: sworn-wage" role="graphics-symbol" aria-roledescription="rule mark" transform="translate(166.66666666666669,245.86024314165118)" x2="0" y2="54.13975685834882"/><line aria-label="step: 6; train_loss: 0.0434178672731; rev: sworn-wage" role="graphics-symbol" aria-roledescription="rule mark" transform="translate(200,199.74639818072322)" x2="0" y2="100.25360181927678"/><line aria-label="step: 7; train_loss: 0.0236171428114; rev: sworn-wage" role="graphics-symbol" aria-roledescription="rule mark" transform="translate(233.33333333333334,259.14857156574726)" x2="0" y2="40.85142843425274"/><line aria-label="step: 8; train_loss: 0.0422338284552; rev: sworn-wage" role="graphics-symbol" aria-roledescription="rule mark" transform="translate(266.66666666666663,203.29851463437083)" x2="0" y2="96.70148536562917"/><line aria-label="step: 9; train_loss: 0.0197198558599; rev: sworn-wage" role="graphics-symbol" aria-roledescription="rule mark" transform="translate(300,270.84043242037296)" x2="0" y2="29.159567579627037"/></g><g class="mark-path role-mark layer_0_layer_2_voronoi" role="graphics-symbol" aria-roledescription="path mark container"><path transform="translate(0,0)" d="M0,150.35331800580028L35.68813933278246,150.35331800580028L34.8901731923636,153.7666413187981L0,153.7666413187981Z" stroke-width="0.35"/><path transform="translate(0,0)" d="M0,218.66183348000052L54.829076643489415,218.66183348000052L57.293031313155275,222.45567284524444L0,222.45567284524444Z" stroke-width="0.35"/><path transform="translate(0,0)" d="M91.58136095760592,194.46258611977103L74.16193633796658,226.2782118469477L65.60487340630007,234.79216623967278L57.293031313155275,222.45567284524444L54.829076643489415,218.66183348000052L53.044475980430725,214.6616540104151L52.091920515966954,212.33523443341258L46.61314999537406,194.46258611977103Z" stroke-width="0.35"/><path transform="translate(0,0)" d="M60.66469911900155,251.36915400624278L133.4673994593323,251.36915400624278L133.87477038773187,254.3731750175357L133.73897882733576,255.50685536116362L58.676109561256666,255.50685536116347Z" stroke-width="0.35"/><path transform="translate(0,0)" d="M109.9120530245141,197.36341193318367L161.80386767095524,197.3634119331837L133.7292367056533,232.81419496789007L126.89892595867872,226.2782118469477Z" stroke-width="0.35"/><path transform="translate(0,0)" d="M125.33299307615916,300L131.92101786686146,269.86022751778364L200.01515857074614,269.86022751778364L200.1257422312982,272.84681137651205L199.24514810554575,281.4903109520674L195.1308480845168,300Z" stroke-width="0.35"/><path transform="translate(0,0)" d="M166.99887237231783,186.0947645455599L166.73346740817624,183.4544482827187L163.46885922980712,19.704331959806012L180.31951270199232,0L222.81863727687755,0L233.79140030255138,185.1953695714474L233.58280005895404,186.0947645455599Z" stroke-width="0.35"/><path transform="translate(0,0)" d="M200.1257422312982,272.84681137651205L266.5360673375867,272.846811376512L266.83264907078177,275.82607224583626L266.5493214031803,281.4903109520674L199.24514810554575,281.4903109520674Z" stroke-width="0.35"/><path transform="translate(0,0)" d="M300,0L300,185.1953695714474L233.79140030255138,185.1953695714474L222.81863727687755,0Z" stroke-width="0.35"/><path transform="translate(0,0)" d="M300,269.1367519274354L266.66088618050384,269.1367519274354L266.68406266048345,266.7396874940082L281.72140181753025,252.6220725104213L300,252.6220725104213Z" stroke-width="0.35"/><path transform="translate(0,0)" d="M0,153.7666413187981L34.8901731923636,153.7666413187981L30.785176699583005,174.3139350892055L0,192.7304437847482Z" stroke-width="0.35"/><path transform="translate(0,0)" d="M0,300L0,222.45567284524444L57.293031313155275,222.45567284524444L65.60487340630007,234.79216623967278L64.59794196323372,240.8707839623094L60.66469911900155,251.36915400624278L58.676109561256666,255.50685536116347L36.483651759933686,300Z" stroke-width="0.35"/><path transform="translate(0,0)" d="M99.51743815827835,185.71072809398177L97.09463777575561,188.36298018693927L42.56967472670085,188.36298018693927L40.78597862054592,185.71072809398177Z" stroke-width="0.35"/><path transform="translate(0,0)" d="M64.59794196323372,240.8707839623094L133.1560306366245,240.8707839623094L133.4673994593323,251.36915400624278L60.66469911900155,251.36915400624278Z" stroke-width="0.35"/><path transform="translate(0,0)" d="M105.0735258386004,190.51036790013313L166.56108290818074,190.51036790013313L166.61095908450466,192.0715373003166L163.67722482743568,195.26865698397162L108.4669735196509,195.26865698397157Z" stroke-width="0.35"/><path transform="translate(0,0)" d="M132.67688249296214,265.9607510268688L199.96726584358953,265.9607510268688L200.01515857074614,269.86022751778364L131.92101786686146,269.86022751778364Z" stroke-width="0.35"/><path transform="translate(0,0)" d="M179.4496233058524,208.3186431974173L223.73263844091358,208.3186431974173L205.50721901551685,244.98340386897326L200.80300451659292,248.4757866926947L188.65288221654842,235.66383674740794Z" stroke-width="0.35"/><path transform="translate(0,0)" d="M195.1308480845168,300L199.24514810554575,281.4903109520674L266.5493214031803,281.4903109520674L267.85200367552756,300Z" stroke-width="0.35"/><path transform="translate(0,0)" d="M250.90429979997947,220.21064154803756L284.66437551723897,220.21064154803756L281.72140181753025,252.6220725104213L266.68406266048345,266.7396874940082L263.4869186714567,263.68258886039257L249.0180717412032,244.98340386897326Z" stroke-width="0.35"/><path transform="translate(0,0)" d="M300,300L267.85200367552756,300L266.5493214031803,281.4903109520674L266.83264907078177,275.82607224583626L300,275.82607224583626Z" stroke-width="0.35"/><path transform="translate(0,0)" d="M0,0L180.31951270199232,0L163.46885922980712,19.704331959806012L123.28695192106805,50.78729617738728L84.48156484514061,66.97497323155403L0,66.97497323155403Z" stroke-width="0.35"/><path transform="translate(0,0)" d="M46.61314999537406,194.46258611977103L52.091920515966954,212.33523443341258L0,212.33523443341258L0,192.7304437847482L30.785176699583005,174.3139350892055L32.572118525985104,175.71871720254424L40.78597862054592,185.71072809398177L42.56967472670085,188.36298018693927Z" stroke-width="0.35"/><path transform="translate(0,0)" d="M99.76936568060997,175.71871720254427L32.572118525985104,175.71871720254424L30.785176699583005,174.3139350892055L34.8901731923636,153.7666413187981L35.68813933278246,150.35331800580028L39.78085018268957,136.8094812333584L84.48156484514061,66.97497323155403L123.28695192106805,50.78729617738728Z" stroke-width="0.35"/><path transform="translate(0,0)" d="M99.97361767946433,185.28158840244566L105.0735258386004,190.51036790013313L108.4669735196509,195.26865698397157L109.9120530245141,197.36341193318367L126.89892595867872,226.2782118469477L74.16193633796658,226.2782118469477L91.58136095760592,194.46258611977103L97.09463777575561,188.36298018693927L99.51743815827835,185.71072809398177Z" stroke-width="0.35"/><path transform="translate(0,0)" d="M100.0536975142451,183.4544482827187L166.73346740817624,183.4544482827187L166.99887237231783,186.0947645455599L166.56108290818074,190.51036790013313L105.0735258386004,190.51036790013313L99.97361767946433,185.28158840244566Z" stroke-width="0.35"/><path transform="translate(0,0)" d="M133.7292367056533,232.81419496789007L161.80386767095524,197.3634119331837L163.67722482743568,195.26865698397162L166.61095908450466,192.0715373003166L170.7105590548058,196.24835059046748L174.42911489850977,201.06743641197684L179.4496233058524,208.3186431974173L188.65288221654842,235.66383674740794L134.08985784358282,235.66383674740794Z" stroke-width="0.35"/><path transform="translate(0,0)" d="M166.99887237231783,186.0947645455599L233.58280005895404,186.0947645455599L233.25516604683818,196.24835059046748L170.7105590548058,196.24835059046748L166.61095908450466,192.0715373003166L166.56108290818074,190.51036790013313Z" stroke-width="0.35"/><path transform="translate(0,0)" d="M205.50721901551685,244.98340386897326L223.73263844091358,208.3186431974173L229.91714083213293,201.06743641197684L233.33863636429192,197.3969148579171L235.17371741226674,199.10000257194045L240.19476606620498,205.18176063895228L250.90429979997947,220.21064154803756L249.0180717412032,244.98340386897326Z" stroke-width="0.35"/><path transform="translate(0,0)" d="M233.25516604683818,196.24835059046748L233.58280005895404,186.0947645455599L233.79140030255138,185.1953695714474L300,185.1953695714474L300,199.10000257194045L235.17371741226674,199.10000257194045L233.33863636429192,197.3969148579171Z" stroke-width="0.35"/><path transform="translate(0,0)" d="M300,252.6220725104213L281.72140181753025,252.6220725104213L284.66437551723897,220.21064154803756L297.8828561026562,205.18176063895228L300,203.04868982935736Z" stroke-width="0.35"/><path transform="translate(0,0)" d="M0,136.8094812333584L39.78085018268957,136.8094812333584L35.68813933278246,150.35331800580028L0,150.35331800580028Z" stroke-width="0.35"/><path transform="translate(0,0)" d="M0,212.33523443341258L52.091920515966954,212.33523443341258L53.044475980430725,214.6616540104151L0,214.6616540104151Z" stroke-width="0.35"/><path transform="translate(0,0)" d="M97.09463777575561,188.36298018693927L91.58136095760592,194.46258611977103L46.61314999537406,194.46258611977103L42.56967472670085,188.36298018693927Z" stroke-width="0.35"/><path transform="translate(0,0)" d="M36.483651759933686,300L58.676109561256666,255.50685536116347L133.73897882733576,255.50685536116362L132.67688249296214,265.9607510268688L131.92101786686146,269.86022751778364L125.33299307615916,300Z" stroke-width="0.35"/><path transform="translate(0,0)" d="M108.4669735196509,195.26865698397157L163.67722482743568,195.26865698397162L161.80386767095524,197.3634119331837L109.9120530245141,197.36341193318367Z" stroke-width="0.35"/><path transform="translate(0,0)" d="M133.87477038773187,254.3731750175357L199.62750802301917,254.37317501753571L200.14942196978325,263.68258886039257L199.96726584358953,265.9607510268688L132.67688249296214,265.9607510268688L133.73897882733576,255.50685536116362Z" stroke-width="0.35"/><path transform="translate(0,0)" d="M174.42911489850977,201.06743641197684L229.91714083213293,201.06743641197684L223.73263844091358,208.3186431974173L179.4496233058524,208.3186431974173Z" stroke-width="0.35"/><path transform="translate(0,0)" d="M200.14942196978325,263.68258886039257L263.4869186714567,263.68258886039257L266.68406266048345,266.7396874940082L266.66088618050384,269.1367519274354L266.64313661223554,270.1263752952218L266.5360673375867,272.846811376512L200.1257422312982,272.84681137651205L200.01515857074614,269.86022751778364L199.96726584358953,265.9607510268688Z" stroke-width="0.35"/><path transform="translate(0,0)" d="M240.19476606620498,205.18176063895228L297.8828561026562,205.18176063895228L284.66437551723897,220.21064154803756L250.90429979997947,220.21064154803756Z" stroke-width="0.35"/><path transform="translate(0,0)" d="M300,270.1263752952218L266.64313661223554,270.1263752952218L266.66088618050384,269.1367519274354L300,269.1367519274354Z" stroke-width="0.35"/><path transform="translate(0,0)" d="M0,66.97497323155403L84.48156484514061,66.97497323155403L39.78085018268957,136.8094812333584L0,136.8094812333584Z" stroke-width="0.35"/><path transform="translate(0,0)" d="M0,214.6616540104151L53.044475980430725,214.6616540104151L54.829076643489415,218.66183348000052L0,218.66183348000052Z" stroke-width="0.35"/><path transform="translate(0,0)" d="M100.0536975142451,183.4544482827187L99.97361767946433,185.28158840244566L99.51743815827835,185.71072809398177L40.78597862054592,185.71072809398177L32.572118525985104,175.71871720254424L99.76936568060997,175.71871720254427Z" stroke-width="0.35"/><path transform="translate(0,0)" d="M74.16193633796658,226.2782118469477L126.89892595867872,226.2782118469477L133.7292367056533,232.81419496789007L134.08985784358282,235.66383674740794L133.1560306366245,240.8707839623094L64.59794196323372,240.8707839623094L65.60487340630007,234.79216623967278Z" stroke-width="0.35"/><path transform="translate(0,0)" d="M100.0536975142451,183.4544482827187L99.76936568060997,175.71871720254427L123.28695192106805,50.78729617738728L163.46885922980712,19.704331959806012L166.73346740817624,183.4544482827187Z" stroke-width="0.35"/><path transform="translate(0,0)" d="M134.08985784358282,235.66383674740794L188.65288221654842,235.66383674740794L200.80300451659292,248.4757866926947L199.62750802301917,254.37317501753571L133.87477038773187,254.3731750175357L133.4673994593323,251.36915400624278L133.1560306366245,240.8707839623094Z" stroke-width="0.35"/><path transform="translate(0,0)" d="M170.7105590548058,196.24835059046748L233.25516604683818,196.24835059046748L233.33863636429192,197.3969148579171L229.91714083213293,201.06743641197684L174.42911489850977,201.06743641197684Z" stroke-width="0.35"/><path transform="translate(0,0)" d="M205.50721901551685,244.98340386897326L249.0180717412032,244.98340386897326L263.4869186714567,263.68258886039257L200.14942196978325,263.68258886039257L199.62750802301917,254.37317501753571L200.80300451659292,248.4757866926947Z" stroke-width="0.35"/><path transform="translate(0,0)" d="M235.17371741226674,199.10000257194045L300,199.10000257194045L300,203.04868982935736L297.8828561026562,205.18176063895228L240.19476606620498,205.18176063895228Z" stroke-width="0.35"/><path transform="translate(0,0)" d="M300,275.82607224583626L266.83264907078177,275.82607224583626L266.5360673375867,272.846811376512L266.64313661223554,270.1263752952218L300,270.1263752952218Z" stroke-width="0.35"/></g><g class="mark-group role-legend" role="graphics-symbol" aria-roledescription="legend" aria-label="Symbol legend titled 'rev' for fill color and stroke color with 5 values: bitty-tass, murky-emeu, named-gaby, quare-foil, sworn-wage"><g transform="translate(320,0)"><path class="background" aria-hidden="true" d="M0,0h72v93h-72Z" pointer-events="none"/><g><g class="mark-group role-legend-entry"><g transform="translate(0,16)"><path class="background" aria-hidden="true" d="M0,0h0v0h0Z" pointer-events="none"/><g><g class="mark-group role-scope" role="graphics-object" aria-roledescription="group mark container"><g transform="translate(0,0)"><path class="background" aria-hidden="true" d="M0,0h71.63333511352539v12.5h-71.63333511352539Z" pointer-events="none" opacity="1"/><g><g class="mark-symbol role-legend-symbol" pointer-events="none"><path transform="translate(6,6)" d="M5,0A5,5,0,1,1,-5,0A5,5,0,1,1,5,0" fill="#4c78a8" stroke="#4c78a8" stroke-width="1.5" opacity="0.7"/></g><g class="mark-text role-legend-label" pointer-events="none"><text text-anchor="start" transform="translate(16,9)" font-family="sans-serif" font-size="10px" fill="#000" opacity="1">bitty-tass</text></g></g><path class="foreground" aria-hidden="true" d="" pointer-events="none" display="none"/></g><g transform="translate(0,16)"><path class="background" aria-hidden="true" d="M0,0h71.63333511352539v12.5h-71.63333511352539Z" pointer-events="none" opacity="1"/><g><g class="mark-symbol role-legend-symbol" pointer-events="none"><path transform="translate(6,6)" d="M5,0A5,5,0,1,1,-5,0A5,5,0,1,1,5,0" fill="#f58518" stroke="#f58518" stroke-width="1.5" opacity="0.7"/></g><g class="mark-text role-legend-label" pointer-events="none"><text text-anchor="start" transform="translate(16,9)" font-family="sans-serif" font-size="10px" fill="#000" opacity="1">murky-emeu</text></g></g><path class="foreground" aria-hidden="true" d="" pointer-events="none" display="none"/></g><g transform="translate(0,32)"><path class="background" aria-hidden="true" d="M0,0h71.63333511352539v12.5h-71.63333511352539Z" pointer-events="none" opacity="1"/><g><g class="mark-symbol role-legend-symbol" pointer-events="none"><path transform="translate(6,6)" d="M5,0A5,5,0,1,1,-5,0A5,5,0,1,1,5,0" fill="#e45756" stroke="#e45756" stroke-width="1.5" opacity="0.7"/></g><g class="mark-text role-legend-label" pointer-events="none"><text text-anchor="start" transform="translate(16,9)" font-family="sans-serif" font-size="10px" fill="#000" opacity="1">named-gaby</text></g></g><path class="foreground" aria-hidden="true" d="" pointer-events="none" display="none"/></g><g transform="translate(0,48)"><path class="background" aria-hidden="true" d="M0,0h71.63333511352539v12.5h-71.63333511352539Z" pointer-events="none" opacity="1"/><g><g class="mark-symbol role-legend-symbol" pointer-events="none"><path transform="translate(6,6)" d="M5,0A5,5,0,1,1,-5,0A5,5,0,1,1,5,0" fill="#72b7b2" stroke="#72b7b2" stroke-width="1.5" opacity="0.7"/></g><g class="mark-text role-legend-label" pointer-events="none"><text text-anchor="start" transform="translate(16,9)" font-family="sans-serif" font-size="10px" fill="#000" opacity="1">quare-foil</text></g></g><path class="foreground" aria-hidden="true" d="" pointer-events="none" display="none"/></g><g transform="translate(0,64)"><path class="background" aria-hidden="true" d="M0,0h71.63333511352539v12.5h-71.63333511352539Z" pointer-events="none" opacity="1"/><g><g class="mark-symbol role-legend-symbol" pointer-events="none"><path transform="translate(6,6)" d="M5,0A5,5,0,1,1,-5,0A5,5,0,1,1,5,0" fill="#54a24b" stroke="#54a24b" stroke-width="1.5" opacity="0.7"/></g><g class="mark-text role-legend-label" pointer-events="none"><text text-anchor="start" transform="translate(16,9)" font-family="sans-serif" font-size="10px" fill="#000" opacity="1">sworn-wage</text></g></g><path class="foreground" aria-hidden="true" d="" pointer-events="none" display="none"/></g></g></g><path class="foreground" aria-hidden="true" d="" pointer-events="none" display="none"/></g></g><g class="mark-text role-legend-title" pointer-events="none"><text text-anchor="start" transform="translate(0,9)" font-family="sans-serif" font-size="11px" font-weight="bold" fill="#000" opacity="1">rev</text></g></g><path class="foreground" aria-hidden="true" d="" pointer-events="none" display="none"/></g></g><g class="mark-group role-title"><g transform="translate(150,-22)"><path class="background" aria-hidden="true" d="M0,0h0v0h0Z" pointer-events="none"/><g><g class="mark-text role-title-text" role="graphics-symbol" aria-roledescription="title" aria-label="Title text 'dvclive/dvc.yaml::dvclive/plots/metrics/train_loss.tsv'" pointer-events="none"><text text-anchor="middle" transform="translate(0,10)" font-family="sans-serif" font-size="13px" font-weight="bold" fill="#000" opacity="1">dvclive/dvc.yaml::dvclive/plots/metrics/train_loss.tsv</text></g></g><path class="foreground" aria-hidden="true" d="" pointer-events="none" display="none"/></g></g></g><path class="foreground" aria-hidden="true" d="" display="none"/></g></g></g></svg>