<svg xmlns="http://www.w3.org/2000/svg" width="20" height="8" viewBox="0 0 20 8">
    <g fill="#40364D" fill-rule="evenodd">
        <path d="M1.802 7.228c.505.309 1.166.463 2.02.469h3.486c.79 0 2.296-.005 2.307-1.542.003-.424-.356-.765-.78-.769-.39-.004-.71.192-.758.76-.166.047-.589.01-.793.01l-3.45.002c-.746-.004-1.532-.13-1.526-.881V2.51c.006-.872.824-.974 1.538-.97h3.485c.449.003.636.03.707.072.03.016.058.033.056.176a.769.769 0 0 0 .764.774h.006c.422 0 .766-.34.769-.762.005-.672-.289-1.212-.827-1.522C8.436.065 7.972.005 7.344 0L3.846.002C2.114.002.782.805.769 2.498v2.767c-.008 1.095.557 1.671 1.033 1.963M18.198 7.228c-.505.309-1.166.463-2.02.469h-3.486c-.79 0-2.296-.005-2.307-1.542-.003-.424.356-.765.78-.769.39-.004.71.192.758.76.166.047.589.01.793.01l3.45.002c.746-.004 1.532-.13 1.526-.881V2.51c-.006-.872-.824-.974-1.538-.97h-3.485c-.449.003-.636.03-.707.072-.03.016-.058.033-.056.176a.769.769 0 0 1-.764.774h-.006a.768.768 0 0 1-.769-.762c-.005-.672.289-1.212.827-1.522.37-.213.834-.273 1.462-.278l3.498.002c1.732 0 3.064.803 3.077 2.496v2.767c.008 1.095-.557 1.671-1.033 1.963"/>
        <path d="M14.592 3.846a.769.769 0 0 0-.77-.77H6.13a.769.769 0 1 0 0 1.54h7.692a.77.77 0 0 0 .77-.77"/>
    </g>
</svg>
