<svg width="80" height="64" viewBox="0 0 80 64" fill="none" xmlns="http://www.w3.org/2000/svg">
<path d="M52.2467 44.6421C48.5417 41.0541 46.8257 36.7056 46.8257 31.5771C46.8257 26.4193 48.5319 22.0513 52.2467 18.434C54.0201 16.6692 56.1303 15.2789 58.4518 14.346C60.7733 13.413 63.2587 12.9564 65.7602 13.0033C70.477 12.9259 75.0491 14.6322 78.562 17.7808C79.0983 18.2683 79.108 18.7558 78.6205 19.2238L74.4962 23.387C74.038 23.7965 73.5895 23.7965 73.1702 23.387C71.1965 21.6554 68.6488 20.7204 66.0235 20.7643C63.0595 20.7643 60.5927 21.7978 58.6135 23.8843C57.6706 24.8776 56.935 26.0487 56.4496 27.3293C55.9641 28.6099 55.7385 29.9744 55.786 31.3431C55.786 34.2291 56.6635 36.6861 58.6525 38.7238C59.6113 39.7202 60.767 40.506 62.0461 41.0314C63.3252 41.5568 64.6996 41.8102 66.082 41.7756C68.6647 41.8339 71.1817 40.9579 73.1702 39.3088C73.6577 38.8993 74.116 38.9188 74.5352 39.3576L78.6693 43.6281C79.1275 44.0766 79.108 44.5348 78.6205 45.0126C75.1606 48.3076 70.537 50.0989 65.7602 49.9948C63.2644 50.0435 60.784 49.5944 58.4637 48.6737C56.1435 47.7529 54.03 46.3791 52.2467 44.6323V44.6421Z" fill="url(#paint0_linear)"/>
<path d="M1.00057 48.9226V14.0176C0.996097 13.885 1.01986 13.753 1.07029 13.6303C1.12072 13.5076 1.19666 13.397 1.29307 13.3058C1.37448 13.2129 1.47499 13.1387 1.58774 13.0882C1.70048 13.0377 1.82279 13.0122 1.94632 13.0133H14.6896C19.9156 13.4033 23.8156 14.8658 27.4036 18.4734C31.0111 22.0809 32.4444 26.1759 32.9026 31.4409C33.3414 36.5109 31.2256 40.8984 27.6376 44.5059C25.9685 46.253 23.9575 47.6377 21.7298 48.5737C19.5022 49.5097 17.1057 49.977 14.6896 49.9464H1.94632C1.82309 49.9457 1.70136 49.9193 1.58889 49.8689C1.47642 49.8186 1.37567 49.7453 1.29307 49.6539C1.1964 49.5609 1.1204 49.4486 1.07 49.3243C1.01961 49.2 0.995947 49.0664 1.00057 48.9324V48.9226ZM9.15159 22.5001V42.1269H14.1631C17.0881 42.1269 19.5256 41.0934 21.4561 39.0361C23.3866 36.9823 24.4274 34.2488 24.3519 31.4311C24.3519 28.4379 23.3769 25.9126 21.4561 23.8554C20.531 22.8502 19.4017 22.0544 18.1438 21.5213C16.886 20.9883 15.5288 20.7303 14.1631 20.7646H9.15159V22.5001Z" fill="url(#paint1_linear)"/>
<path d="M47.8494 25.22L39.9519 42.5751H39.6301L31.1963 24.011C32.1518 26.2341 32.6589 28.6716 32.9026 31.4308C33.2244 35.1358 32.1811 38.4703 30.2018 41.4148L38.5869 59.3841C38.8014 59.7741 39.0939 59.9691 39.4839 59.9691H40.0104C40.4004 59.9691 40.6929 59.7839 40.8976 59.3939L49.4387 41.2101C47.6611 38.3128 46.7541 34.9656 46.8256 31.5673C46.8256 29.3053 47.1571 27.1798 47.8494 25.22Z" fill="url(#paint2_linear)"/>
<defs>
<linearGradient id="paint0_linear" x1="62.9128" y1="31.525" x2="62.9128" y2="49.9991" gradientUnits="userSpaceOnUse">
<stop stop-color="#F46837"/>
<stop offset="1" stop-color="#DD5236"/>
</linearGradient>
<linearGradient id="paint1_linear" x1="16.9799" y1="31.5253" x2="16.9799" y2="49.9478" gradientUnits="userSpaceOnUse">
<stop stop-color="#13ADC7"/>
<stop offset="1" stop-color="#1497B8"/>
</linearGradient>
<linearGradient id="paint2_linear" x1="32.6875" y1="42.2501" x2="32.6875" y2="59.8001" gradientUnits="userSpaceOnUse">
<stop stop-color="#7E51C2"/>
<stop offset="1" stop-color="#945DD6"/>
</linearGradient>
</defs>
</svg>
