<svg width="36px" height="22px" viewBox="0 0 36 22" version="1.1" 
    xmlns="http://www.w3.org/2000/svg" 
    xmlns:xlink="http://www.w3.org/1999/xlink">
    <path d="M-7.10542736e-15,16.584 L-7.10542736e-15,0.696 C-7.10542736e-15,0.56799936 0.04399956,0.46000044 0.132,0.372 C0.22000044,0.28399956 0.31999944,0.24 0.432,0.24 L6.288,0.24 C8.6080116,0.24 10.5919918,1.0599918 12.24,2.7 C13.8880082,4.3400082 14.712,6.31198848 14.712,8.616 C14.712,10.9360116 13.8880082,12.9199918 12.24,14.568 C10.5919918,16.2160082 8.6080116,17.04 6.288,17.04 L0.432,17.04 C0.31999944,17.04 0.22000044,16.9960004 0.132,16.908 C0.04399956,16.8199996 -7.10542736e-15,16.7120006 -7.10542736e-15,16.584 Z M3.744,13.488 L6.048,13.488 C7.39200672,13.488 8.50799556,13.0200047 9.396,12.084 C10.2840044,11.1479953 10.728,9.99200688 10.728,8.616 C10.728,7.2559932 10.2840044,6.10800468 9.396,5.172 C8.50799556,4.23599532 7.39200672,3.768 6.048,3.768 L3.744,3.768 L3.744,13.488 Z" fill="#13ADC7"></path>
    <path d="M17.1211432,21.016 L9.63314317,4.864 C9.55314277,4.7039992 9.55714273,4.56000064 9.64514317,4.432 C9.73314361,4.30399936 9.86514229,4.24 10.0411432,4.24 L13.2331432,4.24 C13.4411442,4.24 13.5771429,4.32799912 13.6411432,4.504 L17.6011432,13.264 L17.7451432,13.264 L21.7051432,4.504 C21.7691435,4.32799912 21.9051421,4.24 22.1131432,4.24 L25.3051432,4.24 C25.4811441,4.24 25.6131427,4.30399936 25.7011432,4.432 C25.7891436,4.56000064 25.7931436,4.7039992 25.7131432,4.864 L18.1771432,21.016 C18.0811427,21.1920009 17.9451441,21.28 17.7691432,21.28 L17.5291432,21.28 C17.3531423,21.28 17.2171437,21.1920009 17.1211432,21.016 Z" fill="#945DD6"></path>
    <path d="M23.196,14.784 C21.5159916,13.1039916 20.676,11.064012 20.676,8.664 C20.676,6.263988 21.5199916,4.22000844 23.208,2.532 C24.8960084,0.84399156 26.939988,0 29.34,0 C31.5800112,0 33.5159918,0.74399256 35.148,2.232 C35.3880012,2.45600112 35.3960011,2.67999888 35.172,2.904 L33.3,4.848 C33.091999,5.04000096 32.892001,5.04000096 32.7,4.848 C31.7879954,4.03199592 30.7080062,3.624 29.46,3.624 C28.1159933,3.624 26.9960045,4.10799516 26.1,5.076 C25.2039955,6.04400484 24.756,7.2079932 24.756,8.568 C24.756,9.91200672 25.2079955,11.0599952 26.112,12.012 C27.0160045,12.9640048 28.1399933,13.44 29.484,13.44 C30.7320062,13.44 31.8039955,13.0560038 32.7,12.288 C32.9240011,12.095999 33.131999,12.103999 33.324,12.312 L35.196,14.304 C35.404001,14.512001 35.3960011,14.7279989 35.172,14.952 C33.571992,16.5040078 31.6280114,17.28 29.34,17.28 C26.939988,17.28 24.8920085,16.4480083 23.196,14.784 Z" fill="#F46737"></path>
</svg>
