<svg width="41" height="40" viewBox="0 0 41 40" fill="none" xmlns="http://www.w3.org/2000/svg">
<g clip-path="url(#clip0)">
<path d="M26.9912 20.3064L20.4834 34.6708C20.3743 34.8756 20.2219 34.9757 20.0254 34.9757H19.7561C19.56 34.9757 19.4072 34.8756 19.2985 34.6708L12.5195 19.6138L14.9346 15.2845C15.1698 15.2845 15.3223 15.3851 15.3922 15.5894L19.8338 25.7151H19.9995L24.4411 15.5894C24.5107 15.3851 24.6631 15.2845 24.8988 15.2845L26.9912 20.3064Z" fill="#945DD6"/>
<path d="M26.9912 20.3064L24.5151 25.7706C23.3557 24.0429 22.8197 22.0654 22.8197 19.867C22.8197 19.6625 22.824 19.458 22.8326 19.2535L24.4411 15.5913C24.5107 15.3869 24.6631 15.2864 24.8988 15.2864L26.9912 20.3064ZM15.3441 25.8885L12.5195 19.6138L14.9346 15.2845C15.1698 15.2845 15.3223 15.3851 15.3922 15.5894L17.0877 19.456L17.1139 19.7262C17.31 22.0252 16.6212 24.0976 15.3441 25.8873V25.8885Z" fill="#71548F"/>
<path d="M26.3083 26.8246C24.3993 24.9173 23.5273 22.6017 23.5273 19.867C23.5273 17.1323 24.3993 14.8075 26.3083 12.8825C28.2172 10.9575 30.5323 10 33.2478 10C35.7799 10 37.9695 10.8476 39.8166 12.5429C40.0911 12.8016 40.1 13.0525 39.8469 13.309L37.7286 15.5211C37.4933 15.7386 37.2666 15.7386 37.0486 15.5211C36.0155 14.5935 34.7935 14.1291 33.3828 14.1279C31.8616 14.1279 30.5946 14.6794 29.5819 15.7824C28.5664 16.884 28.1217 18.2077 28.1217 19.7562C28.1217 21.2887 28.5705 22.595 29.5949 23.6793C30.6193 24.7636 31.8886 25.3035 33.4091 25.3035C34.8213 25.3035 36.0345 24.8666 37.0486 23.9927C37.3014 23.7751 37.5368 23.7839 37.7548 24.0189L39.8732 26.2876C40.1085 26.5271 40.1 26.771 39.8469 27.0267C38.0339 28.7941 35.8342 29.678 33.2478 29.6782C30.5323 29.6782 28.2192 28.7262 26.3083 26.822V26.8246Z" fill="#F46737"/>
<path d="M0.000334086 29.1017V10.5355C-0.00219254 10.4656 0.00963352 10.3959 0.0350836 10.3308C0.0605336 10.2656 0.0990685 10.2064 0.148314 10.1567C0.189692 10.1079 0.241133 10.0687 0.299113 10.0416C0.357092 10.0146 0.420239 10.0004 0.484227 10H7.02678C9.71187 10.1959 11.7126 10.9797 13.5564 12.8954C15.4002 14.8112 16.1412 16.9886 16.3765 19.7931C16.6033 22.4842 15.5178 24.8223 13.6785 26.747C11.8391 28.6716 9.61605 29.638 7.02678 29.638H0.484227C0.420182 29.6375 0.356999 29.6232 0.299016 29.596C0.241033 29.5688 0.189622 29.5294 0.148314 29.4805C0.0990685 29.4308 0.0605336 29.3716 0.0350836 29.3064C0.00963352 29.2413 -0.00219254 29.1716 0.000334086 29.1017ZM4.18483 15.0466V25.4842H6.75671C8.26117 25.4842 9.50926 24.937 10.501 23.8427C11.4927 22.7483 11.9879 21.3984 11.9867 19.7931C11.9867 18.204 11.4898 16.8585 10.5006 15.765C9.51135 14.6715 8.26019 14.1235 6.75634 14.1235H4.18483V15.0473V15.0466Z" fill="#13ADC7"/>
</g>
<defs>
<clipPath id="clip0">
<rect width="40.043" height="40" fill="white"/>
</clipPath>
</defs>
</svg>
