<svg class="marks" width="743" height="414" viewBox="0 0 743 414" version="1.1" xmlns="http://www.w3.org/2000/svg" xmlns:xlink="http://www.w3.org/1999/xlink"><rect width="743" height="414" style="fill: white;"></rect><defs><linearGradient id="gradient_0" x1="0" x2="0" y1="1" y2="0"><stop offset="0" stop-color="rgb(239, 249, 189)"></stop><stop offset="0.05" stop-color="rgb(229, 245, 185)"></stop><stop offset="0.1" stop-color="rgb(219, 241, 180)"></stop><stop offset="0.15" stop-color="rgb(204, 235, 181)"></stop><stop offset="0.2" stop-color="rgb(189, 229, 181)"></stop><stop offset="0.25" stop-color="rgb(169, 221, 183)"></stop><stop offset="0.3" stop-color="rgb(148, 213, 185)"></stop><stop offset="0.35" stop-color="rgb(126, 205, 188)"></stop><stop offset="0.4" stop-color="rgb(105, 197, 190)"></stop><stop offset="0.45" stop-color="rgb(87, 189, 192)"></stop><stop offset="0.5" stop-color="rgb(69, 180, 194)"></stop><stop offset="0.55" stop-color="rgb(57, 169, 193)"></stop><stop offset="0.6" stop-color="rgb(44, 158, 192)"></stop><stop offset="0.65" stop-color="rgb(39, 144, 188)"></stop><stop offset="0.7" stop-color="rgb(33, 130, 184)"></stop><stop offset="0.75" stop-color="rgb(33, 115, 177)"></stop><stop offset="0.8" stop-color="rgb(33, 99, 170)"></stop><stop offset="0.85" stop-color="rgb(34, 85, 163)"></stop><stop offset="0.9" stop-color="rgb(35, 71, 156)"></stop><stop offset="0.95" stop-color="rgb(32, 60, 145)"></stop><stop offset="1" stop-color="rgb(28, 49, 133)"></stop></linearGradient></defs><g transform="translate(67,47)"><g class="mark-group role-frame root"><g transform="translate(0,0)"><path class="background" d="M0,0h0v0h0Z" style="fill: none;"></path><g><g class="mark-group role-column-title facet-title"><g transform="translate(311,-21)"><path class="background" d="M0,0h0v0h0Z" style="fill: none;"></path><g><g class="mark-group role-title"><g transform="translate(0,-21)"><path class="background" d="M0,0h0v0h0Z" style="pointer-events: none; fill: none;"></path><g><g class="mark-text role-title-text" style="pointer-events: none;"><text text-anchor="middle" transform="translate(0,9)" style="font-family: sans-serif; font-size: 11px; font-weight: bold; fill: #000; opacity: 1;">rev</text></g></g><path class="foreground" d="" style="pointer-events: none; display: none; fill: none;"></path></g></g></g><path class="foreground" d="" style="display: none; fill: none;"></path></g></g><g class="mark-group role-row-header row_header"><g transform="translate(-1,0)"><path class="background" d="M0,0h0v300h0Z" style="fill: none;"></path><g><g class="mark-group role-axis"><g transform="translate(0.5,0.5)"><path class="background" d="M0,0h0v0h0Z" style="pointer-events: none; fill: none;"></path><g><g class="mark-rule role-axis-tick" style="pointer-events: none;"><line transform="translate(0,30)" x2="-5" y2="0" style="fill: none; stroke: #888; stroke-width: 1; opacity: 1;"></line><line transform="translate(0,90)" x2="-5" y2="0" style="fill: none; stroke: #888; stroke-width: 1; opacity: 1;"></line><line transform="translate(0,150)" x2="-5" y2="0" style="fill: none; stroke: #888; stroke-width: 1; opacity: 1;"></line><line transform="translate(0,210)" x2="-5" y2="0" style="fill: none; stroke: #888; stroke-width: 1; opacity: 1;"></line><line transform="translate(0,270)" x2="-5" y2="0" style="fill: none; stroke: #888; stroke-width: 1; opacity: 1;"></line></g><g class="mark-text role-axis-label" style="pointer-events: none;"><text text-anchor="end" transform="translate(-7,32.5)" style="font-family: sans-serif; font-size: 10px; fill: #000; opacity: 1;">bird</text><text text-anchor="end" transform="translate(-7,92.5)" style="font-family: sans-serif; font-size: 10px; fill: #000; opacity: 1;">cat</text><text text-anchor="end" transform="translate(-7,152.5)" style="font-family: sans-serif; font-size: 10px; fill: #000; opacity: 1;">dinosaur</text><text text-anchor="end" transform="translate(-7,212.5)" style="font-family: sans-serif; font-size: 10px; fill: #000; opacity: 1;">dog</text><text text-anchor="end" transform="translate(-7,272.5)" style="font-family: sans-serif; font-size: 10px; fill: #000; opacity: 1;">turtle</text></g><g class="mark-rule role-axis-domain" style="pointer-events: none;"><line transform="translate(0,0)" x2="0" y2="300" style="fill: none; stroke: #888; stroke-width: 1; opacity: 1;"></line></g><g class="mark-text role-axis-title" style="pointer-events: none;"><text text-anchor="middle" transform="translate(-49.359375,150) rotate(-90) translate(0,-2)" style="font-family: sans-serif; font-size: 11px; font-weight: bold; fill: #000; opacity: 1;">actual</text></g></g><path class="foreground" d="" style="pointer-events: none; display: none; fill: none;"></path></g></g></g><path class="foreground" d="" style="display: none; fill: none;"></path></g></g><g class="mark-group role-column-footer column_footer"><g transform="translate(0,301)"><path class="background" d="M0,0h300v0h-300Z" style="fill: none;"></path><g><g class="mark-group role-axis"><g transform="translate(0.5,0.5)"><path class="background" d="M0,0h0v0h0Z" style="pointer-events: none; fill: none;"></path><g><g class="mark-rule role-axis-tick" style="pointer-events: none;"><line transform="translate(30,0)" x2="0" y2="5" style="fill: none; stroke: #888; stroke-width: 1; opacity: 1;"></line><line transform="translate(90,0)" x2="0" y2="5" style="fill: none; stroke: #888; stroke-width: 1; opacity: 1;"></line><line transform="translate(150,0)" x2="0" y2="5" style="fill: none; stroke: #888; stroke-width: 1; opacity: 1;"></line><line transform="translate(210,0)" x2="0" y2="5" style="fill: none; stroke: #888; stroke-width: 1; opacity: 1;"></line><line transform="translate(270,0)" x2="0" y2="5" style="fill: none; stroke: #888; stroke-width: 1; opacity: 1;"></line></g><g class="mark-text role-axis-label" style="pointer-events: none;"><text text-anchor="end" transform="translate(29.5,7) rotate(270) translate(0,3)" style="font-family: sans-serif; font-size: 10px; fill: #000; opacity: 1;">bird</text><text text-anchor="end" transform="translate(89.5,7) rotate(270) translate(0,3)" style="font-family: sans-serif; font-size: 10px; fill: #000; opacity: 1;">cat</text><text text-anchor="end" transform="translate(149.5,7) rotate(270) translate(0,3)" style="font-family: sans-serif; font-size: 10px; fill: #000; opacity: 1;">dinosaur</text><text text-anchor="end" transform="translate(209.5,7) rotate(270) translate(0,3)" style="font-family: sans-serif; font-size: 10px; fill: #000; opacity: 1;">dog</text><text text-anchor="end" transform="translate(269.5,7) rotate(270) translate(0,3)" style="font-family: sans-serif; font-size: 10px; fill: #000; opacity: 1;">turtle</text></g><g class="mark-rule role-axis-domain" style="pointer-events: none;"><line transform="translate(0,0)" x2="300" y2="0" style="fill: none; stroke: #888; stroke-width: 1; opacity: 1;"></line></g><g class="mark-text role-axis-title" style="pointer-events: none;"><text text-anchor="middle" transform="translate(150,58.359375)" style="font-family: sans-serif; font-size: 11px; font-weight: bold; fill: #000; opacity: 1;">predicted</text></g></g><path class="foreground" d="" style="pointer-events: none; display: none; fill: none;"></path></g></g></g><path class="foreground" d="" style="display: none; fill: none;"></path></g><g transform="translate(322,301)"><path class="background" d="M0,0h300v0h-300Z" style="fill: none;"></path><g><g class="mark-group role-axis"><g transform="translate(0.5,0.5)"><path class="background" d="M0,0h0v0h0Z" style="pointer-events: none; fill: none;"></path><g><g class="mark-rule role-axis-tick" style="pointer-events: none;"><line transform="translate(30,0)" x2="0" y2="5" style="fill: none; stroke: #888; stroke-width: 1; opacity: 1;"></line><line transform="translate(90,0)" x2="0" y2="5" style="fill: none; stroke: #888; stroke-width: 1; opacity: 1;"></line><line transform="translate(150,0)" x2="0" y2="5" style="fill: none; stroke: #888; stroke-width: 1; opacity: 1;"></line><line transform="translate(210,0)" x2="0" y2="5" style="fill: none; stroke: #888; stroke-width: 1; opacity: 1;"></line><line transform="translate(270,0)" x2="0" y2="5" style="fill: none; stroke: #888; stroke-width: 1; opacity: 1;"></line></g><g class="mark-text role-axis-label" style="pointer-events: none;"><text text-anchor="end" transform="translate(29.5,7) rotate(270) translate(0,3)" style="font-family: sans-serif; font-size: 10px; fill: #000; opacity: 1;">bird</text><text text-anchor="end" transform="translate(89.5,7) rotate(270) translate(0,3)" style="font-family: sans-serif; font-size: 10px; fill: #000; opacity: 1;">cat</text><text text-anchor="end" transform="translate(149.5,7) rotate(270) translate(0,3)" style="font-family: sans-serif; font-size: 10px; fill: #000; opacity: 1;">dinosaur</text><text text-anchor="end" transform="translate(209.5,7) rotate(270) translate(0,3)" style="font-family: sans-serif; font-size: 10px; fill: #000; opacity: 1;">dog</text><text text-anchor="end" transform="translate(269.5,7) rotate(270) translate(0,3)" style="font-family: sans-serif; font-size: 10px; fill: #000; opacity: 1;">turtle</text></g><g class="mark-rule role-axis-domain" style="pointer-events: none;"><line transform="translate(0,0)" x2="300" y2="0" style="fill: none; stroke: #888; stroke-width: 1; opacity: 1;"></line></g><g class="mark-text role-axis-title" style="pointer-events: none;"><text text-anchor="middle" transform="translate(150,58.359375)" style="font-family: sans-serif; font-size: 11px; font-weight: bold; fill: #000; opacity: 1;">predicted</text></g></g><path class="foreground" d="" style="pointer-events: none; display: none; fill: none;"></path></g></g></g><path class="foreground" d="" style="display: none; fill: none;"></path></g></g><g class="mark-group role-scope cell"><g transform="translate(0,0)"><path class="background" d="M0.5,0.5h300v300h-300Z" style="fill: none; stroke: #ddd;"></path><g><g class="mark-rect role-mark child_layer_0_marks"><path d="M180,180h60v60h-60Z" style="fill: rgb(33, 130, 184);"></path><path d="M60,180h60v60h-60Z" style="fill: rgb(234, 247, 187);"></path><path d="M240,180h60v60h-60Z" style="fill: rgb(219, 241, 180);"></path><path d="M120,180h60v60h-60Z" style="fill: rgb(204, 235, 181);"></path><path d="M0,180h60v60h-60Z" style="fill: rgb(234, 247, 187);"></path><path d="M0,0h60v60h-60Z" style="fill: rgb(33, 130, 184);"></path><path d="M60,0h60v60h-60Z" style="fill: rgb(219, 241, 180);"></path><path d="M240,0h60v60h-60Z" style="fill: rgb(229, 245, 185);"></path><path d="M120,0h60v60h-60Z" style="fill: rgb(224, 243, 182);"></path><path d="M180,0h60v60h-60Z" style="fill: rgb(224, 243, 182);"></path><path d="M60,60h60v60h-60Z" style="fill: rgb(33, 130, 184);"></path><path d="M120,60h60v60h-60Z" style="fill: rgb(219, 241, 180);"></path><path d="M240,60h60v60h-60Z" style="fill: rgb(229, 245, 185);"></path><path d="M180,60h60v60h-60Z" style="fill: rgb(229, 245, 185);"></path><path d="M0,60h60v60h-60Z" style="fill: rgb(219, 241, 180);"></path><path d="M120,120h60v60h-60Z" style="fill: rgb(33, 130, 184);"></path><path d="M240,120h60v60h-60Z" style="fill: rgb(204, 235, 181);"></path><path d="M60,120h60v60h-60Z" style="fill: rgb(212, 238, 180);"></path><path d="M0,120h60v60h-60Z" style="fill: rgb(234, 247, 187);"></path><path d="M240,240h60v60h-60Z" style="fill: rgb(33, 130, 184);"></path><path d="M0,240h60v60h-60Z" style="fill: rgb(204, 235, 181);"></path><path d="M120,240h60v60h-60Z" style="fill: rgb(234, 247, 187);"></path><path d="M180,240h60v60h-60Z" style="fill: rgb(219, 241, 180);"></path><path d="M60,240h60v60h-60Z" style="fill: rgb(234, 247, 187);"></path><path d="M180,120h60v60h-60Z" style="fill: rgb(239, 249, 189);"></path></g><g class="mark-text role-mark child_layer_1_marks"><text text-anchor="middle" transform="translate(210,213)" style="font-family: sans-serif; font-size: 11px; fill: white;">28</text><text text-anchor="middle" transform="translate(90,213)" style="font-family: sans-serif; font-size: 11px; fill: black;">1</text><text text-anchor="middle" transform="translate(270,213)" style="font-family: sans-serif; font-size: 11px; fill: black;">4</text><text text-anchor="middle" transform="translate(150,213)" style="font-family: sans-serif; font-size: 11px; fill: black;">6</text><text text-anchor="middle" transform="translate(30,213)" style="font-family: sans-serif; font-size: 11px; fill: black;">1</text><text text-anchor="middle" transform="translate(30,33)" style="font-family: sans-serif; font-size: 11px; fill: white;">28</text><text text-anchor="middle" transform="translate(90,33)" style="font-family: sans-serif; font-size: 11px; fill: black;">4</text><text text-anchor="middle" transform="translate(270,33)" style="font-family: sans-serif; font-size: 11px; fill: black;">2</text><text text-anchor="middle" transform="translate(150,33)" style="font-family: sans-serif; font-size: 11px; fill: black;">3</text><text text-anchor="middle" transform="translate(210,33)" style="font-family: sans-serif; font-size: 11px; fill: black;">3</text><text text-anchor="middle" transform="translate(90,93)" style="font-family: sans-serif; font-size: 11px; fill: white;">28</text><text text-anchor="middle" transform="translate(150,93)" style="font-family: sans-serif; font-size: 11px; fill: black;">4</text><text text-anchor="middle" transform="translate(270,93)" style="font-family: sans-serif; font-size: 11px; fill: black;">2</text><text text-anchor="middle" transform="translate(210,93)" style="font-family: sans-serif; font-size: 11px; fill: black;">2</text><text text-anchor="middle" transform="translate(30,93)" style="font-family: sans-serif; font-size: 11px; fill: black;">4</text><text text-anchor="middle" transform="translate(150,153)" style="font-family: sans-serif; font-size: 11px; fill: white;">28</text><text text-anchor="middle" transform="translate(270,153)" style="font-family: sans-serif; font-size: 11px; fill: black;">6</text><text text-anchor="middle" transform="translate(90,153)" style="font-family: sans-serif; font-size: 11px; fill: black;">5</text><text text-anchor="middle" transform="translate(30,153)" style="font-family: sans-serif; font-size: 11px; fill: black;">1</text><text text-anchor="middle" transform="translate(270,273)" style="font-family: sans-serif; font-size: 11px; fill: white;">28</text><text text-anchor="middle" transform="translate(30,273)" style="font-family: sans-serif; font-size: 11px; fill: black;">6</text><text text-anchor="middle" transform="translate(150,273)" style="font-family: sans-serif; font-size: 11px; fill: black;">1</text><text text-anchor="middle" transform="translate(210,273)" style="font-family: sans-serif; font-size: 11px; fill: black;">4</text><text text-anchor="middle" transform="translate(90,273)" style="font-family: sans-serif; font-size: 11px; fill: black;">1</text><text text-anchor="middle" transform="translate(210,153)" style="font-family: sans-serif; font-size: 11px; fill: black;">0</text></g><g class="mark-group role-title"><g transform="translate(150,-20)"><path class="background" d="M0,0h0v0h0Z" style="pointer-events: none; fill: none;"></path><g><g class="mark-text role-title-text" style="pointer-events: none;"><text text-anchor="middle" transform="translate(0,8)" style="font-family: sans-serif; font-size: 10px; fill: #000; opacity: 1;">HEAD</text></g></g><path class="foreground" d="" style="pointer-events: none; display: none; fill: none;"></path></g></g></g><path class="foreground" d="" style="display: none; fill: none;"></path></g><g transform="translate(322,0)"><path class="background" d="M0.5,0.5h300v300h-300Z" style="fill: none; stroke: #ddd;"></path><g><g class="mark-rect role-mark child_layer_0_marks"><path d="M180,180h60v60h-60Z" style="fill: rgb(35, 71, 156);"></path><path d="M0,180h60v60h-60Z" style="fill: rgb(234, 247, 187);"></path><path d="M60,180h60v60h-60Z" style="fill: rgb(229, 245, 185);"></path><path d="M120,180h60v60h-60Z" style="fill: rgb(234, 247, 187);"></path><path d="M60,60h60v60h-60Z" style="fill: rgb(35, 71, 156);"></path><path d="M180,60h60v60h-60Z" style="fill: rgb(229, 245, 185);"></path><path d="M120,60h60v60h-60Z" style="fill: rgb(229, 245, 185);"></path><path d="M0,0h60v60h-60Z" style="fill: rgb(35, 71, 156);"></path><path d="M240,0h60v60h-60Z" style="fill: rgb(229, 245, 185);"></path><path d="M60,0h60v60h-60Z" style="fill: rgb(234, 247, 187);"></path><path d="M120,0h60v60h-60Z" style="fill: rgb(234, 247, 187);"></path><path d="M120,120h60v60h-60Z" style="fill: rgb(35, 71, 156);"></path><path d="M0,120h60v60h-60Z" style="fill: rgb(229, 245, 185);"></path><path d="M240,120h60v60h-60Z" style="fill: rgb(234, 247, 187);"></path><path d="M180,120h60v60h-60Z" style="fill: rgb(234, 247, 187);"></path><path d="M240,240h60v60h-60Z" style="fill: rgb(35, 71, 156);"></path><path d="M180,240h60v60h-60Z" style="fill: rgb(229, 245, 185);"></path><path d="M60,240h60v60h-60Z" style="fill: rgb(234, 247, 187);"></path><path d="M0,240h60v60h-60Z" style="fill: rgb(234, 247, 187);"></path><path d="M240,180h60v60h-60Z" style="fill: rgb(239, 249, 189);"></path><path d="M240,60h60v60h-60Z" style="fill: rgb(239, 249, 189);"></path><path d="M0,60h60v60h-60Z" style="fill: rgb(239, 249, 189);"></path><path d="M180,0h60v60h-60Z" style="fill: rgb(239, 249, 189);"></path><path d="M60,120h60v60h-60Z" style="fill: rgb(239, 249, 189);"></path><path d="M120,240h60v60h-60Z" style="fill: rgb(239, 249, 189);"></path></g><g class="mark-text role-mark child_layer_1_marks"><text text-anchor="middle" transform="translate(210,213)" style="font-family: sans-serif; font-size: 11px; fill: white;">36</text><text text-anchor="middle" transform="translate(30,213)" style="font-family: sans-serif; font-size: 11px; fill: black;">1</text><text text-anchor="middle" transform="translate(90,213)" style="font-family: sans-serif; font-size: 11px; fill: black;">2</text><text text-anchor="middle" transform="translate(150,213)" style="font-family: sans-serif; font-size: 11px; fill: black;">1</text><text text-anchor="middle" transform="translate(90,93)" style="font-family: sans-serif; font-size: 11px; fill: white;">36</text><text text-anchor="middle" transform="translate(210,93)" style="font-family: sans-serif; font-size: 11px; fill: black;">2</text><text text-anchor="middle" transform="translate(150,93)" style="font-family: sans-serif; font-size: 11px; fill: black;">2</text><text text-anchor="middle" transform="translate(30,33)" style="font-family: sans-serif; font-size: 11px; fill: white;">36</text><text text-anchor="middle" transform="translate(270,33)" style="font-family: sans-serif; font-size: 11px; fill: black;">2</text><text text-anchor="middle" transform="translate(90,33)" style="font-family: sans-serif; font-size: 11px; fill: black;">1</text><text text-anchor="middle" transform="translate(150,33)" style="font-family: sans-serif; font-size: 11px; fill: black;">1</text><text text-anchor="middle" transform="translate(150,153)" style="font-family: sans-serif; font-size: 11px; fill: white;">36</text><text text-anchor="middle" transform="translate(30,153)" style="font-family: sans-serif; font-size: 11px; fill: black;">2</text><text text-anchor="middle" transform="translate(270,153)" style="font-family: sans-serif; font-size: 11px; fill: black;">1</text><text text-anchor="middle" transform="translate(210,153)" style="font-family: sans-serif; font-size: 11px; fill: black;">1</text><text text-anchor="middle" transform="translate(270,273)" style="font-family: sans-serif; font-size: 11px; fill: white;">36</text><text text-anchor="middle" transform="translate(210,273)" style="font-family: sans-serif; font-size: 11px; fill: black;">2</text><text text-anchor="middle" transform="translate(90,273)" style="font-family: sans-serif; font-size: 11px; fill: black;">1</text><text text-anchor="middle" transform="translate(30,273)" style="font-family: sans-serif; font-size: 11px; fill: black;">1</text><text text-anchor="middle" transform="translate(270,213)" style="font-family: sans-serif; font-size: 11px; fill: black;">0</text><text text-anchor="middle" transform="translate(270,93)" style="font-family: sans-serif; font-size: 11px; fill: black;">0</text><text text-anchor="middle" transform="translate(30,93)" style="font-family: sans-serif; font-size: 11px; fill: black;">0</text><text text-anchor="middle" transform="translate(210,33)" style="font-family: sans-serif; font-size: 11px; fill: black;">0</text><text text-anchor="middle" transform="translate(90,153)" style="font-family: sans-serif; font-size: 11px; fill: black;">0</text><text text-anchor="middle" transform="translate(150,273)" style="font-family: sans-serif; font-size: 11px; fill: black;">0</text></g><g class="mark-group role-title"><g transform="translate(150,-20)"><path class="background" d="M0,0h0v0h0Z" style="pointer-events: none; fill: none;"></path><g><g class="mark-text role-title-text" style="pointer-events: none;"><text text-anchor="middle" transform="translate(0,8)" style="font-family: sans-serif; font-size: 10px; fill: #000; opacity: 1;">workspace</text></g></g><path class="foreground" d="" style="pointer-events: none; display: none; fill: none;"></path></g></g></g><path class="foreground" d="" style="display: none; fill: none;"></path></g></g><g class="mark-group role-legend"><g transform="translate(641,0)"><path class="background" d="M0,0h30v200h-30Z" style="pointer-events: none; fill: none;"></path><g><g class="mark-group role-legend-entry"><g transform="translate(0,0)"><path class="background" d="M0,0h0v0h0Z" style="pointer-events: none; fill: none;"></path><g><g class="mark-rect role-legend-gradient" style="pointer-events: none;"><path d="M0,0h16v200h-16Z" style="fill: url(#gradient_0); stroke: #ddd; stroke-width: 0; opacity: 1;"></path></g><g class="mark-text role-legend-label" style="pointer-events: none;"><text text-anchor="start" transform="translate(18,198)" style="font-family: sans-serif; font-size: 10px; fill: #000; opacity: 1;">0</text><text text-anchor="start" transform="translate(18,153)" style="font-family: sans-serif; font-size: 10px; fill: #000; opacity: 1;">10</text><text text-anchor="start" transform="translate(18,103)" style="font-family: sans-serif; font-size: 10px; fill: #000; opacity: 1;">20</text><text text-anchor="start" transform="translate(18,53)" style="font-family: sans-serif; font-size: 10px; fill: #000; opacity: 1;">30</text><text text-anchor="start" transform="translate(18,8)" style="font-family: sans-serif; font-size: 10px; fill: #000; opacity: 1;">40</text></g></g><path class="foreground" d="" style="pointer-events: none; display: none; fill: none;"></path></g></g></g><path class="foreground" d="" style="pointer-events: none; display: none; fill: none;"></path></g></g></g><path class="foreground" d="" style="display: none; fill: none;"></path></g></g></g></svg>