<svg class="marks" width="336" height="247" viewBox="0 0 330 242" version="1.1" xmlns="http://www.w3.org/2000/svg" xmlns:xlink="http://www.w3.org/1999/xlink"><rect width="330" height="242" style="fill: white;"></rect><g transform="translate(41,5)"><g class="mark-group role-frame root"><g transform="translate(0,0)"><path class="background" d="M0.5,0.5h200v200h-200Z" style="fill: none; stroke: #ddd;"></path><g><g class="mark-group role-axis"><g transform="translate(0.5,200.5)"><path class="background" d="M0,0h0v0h0Z" style="pointer-events: none; fill: none;"></path><g><g class="mark-rule role-axis-grid" style="pointer-events: none;"><line transform="translate(0,-200)" x2="0" y2="200" style="fill: none; stroke: #ddd; stroke-width: 1; opacity: 1;"></line><line transform="translate(40,-200)" x2="0" y2="200" style="fill: none; stroke: #ddd; stroke-width: 1; opacity: 1;"></line><line transform="translate(80,-200)" x2="0" y2="200" style="fill: none; stroke: #ddd; stroke-width: 1; opacity: 1;"></line><line transform="translate(120,-200)" x2="0" y2="200" style="fill: none; stroke: #ddd; stroke-width: 1; opacity: 1;"></line><line transform="translate(160,-200)" x2="0" y2="200" style="fill: none; stroke: #ddd; stroke-width: 1; opacity: 1;"></line><line transform="translate(200,-200)" x2="0" y2="200" style="fill: none; stroke: #ddd; stroke-width: 1; opacity: 1;"></line></g></g><path class="foreground" d="" style="pointer-events: none; display: none; fill: none;"></path></g></g><g class="mark-group role-axis"><g transform="translate(0.5,0.5)"><path class="background" d="M0,0h0v0h0Z" style="pointer-events: none; fill: none;"></path><g><g class="mark-rule role-axis-grid" style="pointer-events: none;"><line transform="translate(0,200)" x2="200" y2="0" style="fill: none; stroke: #ddd; stroke-width: 1; opacity: 1;"></line><line transform="translate(0,138)" x2="200" y2="0" style="fill: none; stroke: #ddd; stroke-width: 1; opacity: 1;"></line><line transform="translate(0,75)" x2="200" y2="0" style="fill: none; stroke: #ddd; stroke-width: 1; opacity: 1;"></line><line transform="translate(0,13)" x2="200" y2="0" style="fill: none; stroke: #ddd; stroke-width: 1; opacity: 1;"></line></g></g><path class="foreground" d="" style="pointer-events: none; display: none; fill: none;"></path></g></g><g class="mark-group role-axis"><g transform="translate(0.5,200.5)"><path class="background" d="M0,0h0v0h0Z" style="pointer-events: none; fill: none;"></path><g><g class="mark-rule role-axis-tick" style="pointer-events: none;"><line transform="translate(0,0)" x2="0" y2="5" style="fill: none; stroke: #888; stroke-width: 1; opacity: 1;"></line><line transform="translate(40,0)" x2="0" y2="5" style="fill: none; stroke: #888; stroke-width: 1; opacity: 1;"></line><line transform="translate(80,0)" x2="0" y2="5" style="fill: none; stroke: #888; stroke-width: 1; opacity: 1;"></line><line transform="translate(120,0)" x2="0" y2="5" style="fill: none; stroke: #888; stroke-width: 1; opacity: 1;"></line><line transform="translate(160,0)" x2="0" y2="5" style="fill: none; stroke: #888; stroke-width: 1; opacity: 1;"></line><line transform="translate(200,0)" x2="0" y2="5" style="fill: none; stroke: #888; stroke-width: 1; opacity: 1;"></line></g><g class="mark-text role-axis-label" style="pointer-events: none;"><text text-anchor="start" transform="translate(0,15)" style="font-family: sans-serif; font-size: 10px; fill: #000; opacity: 1;">0</text><text text-anchor="middle" transform="translate(40,15)" style="font-family: sans-serif; font-size: 10px; fill: #000; opacity: 1;">200</text><text text-anchor="middle" transform="translate(80,15)" style="font-family: sans-serif; font-size: 10px; fill: #000; opacity: 1;">400</text><text text-anchor="middle" transform="translate(120,15)" style="font-family: sans-serif; font-size: 10px; fill: #000; opacity: 1;">600</text><text text-anchor="middle" transform="translate(160,15)" style="font-family: sans-serif; font-size: 10px; fill: #000; opacity: 1;">800</text><text text-anchor="end" transform="translate(200,15)" style="font-family: sans-serif; font-size: 10px; fill: #000; opacity: 1;">1,000</text></g><g class="mark-rule role-axis-domain" style="pointer-events: none;"><line transform="translate(0,0)" x2="200" y2="0" style="fill: none; stroke: #888; stroke-width: 1; opacity: 1;"></line></g><g class="mark-text role-axis-title" style="pointer-events: none;"><text text-anchor="middle" transform="translate(100,30)" style="font-family: sans-serif; font-size: 11px; font-weight: bold; fill: #000; opacity: 1;">index</text></g></g><path class="foreground" d="" style="pointer-events: none; display: none; fill: none;"></path></g></g><g class="mark-group role-axis"><g transform="translate(0.5,0.5)"><path class="background" d="M0,0h0v0h0Z" style="pointer-events: none; fill: none;"></path><g><g class="mark-rule role-axis-tick" style="pointer-events: none;"><line transform="translate(0,200)" x2="-5" y2="0" style="fill: none; stroke: #888; stroke-width: 1; opacity: 1;"></line><line transform="translate(0,138)" x2="-5" y2="0" style="fill: none; stroke: #888; stroke-width: 1; opacity: 1;"></line><line transform="translate(0,75)" x2="-5" y2="0" style="fill: none; stroke: #888; stroke-width: 1; opacity: 1;"></line><line transform="translate(0,13)" x2="-5" y2="0" style="fill: none; stroke: #888; stroke-width: 1; opacity: 1;"></line></g><g class="mark-text role-axis-label" style="pointer-events: none;"><text text-anchor="end" transform="translate(-7,203)" style="font-family: sans-serif; font-size: 10px; fill: #000; opacity: 1;">0.0</text><text text-anchor="end" transform="translate(-7,140.5)" style="font-family: sans-serif; font-size: 10px; fill: #000; opacity: 1;">0.5</text><text text-anchor="end" transform="translate(-7,78)" style="font-family: sans-serif; font-size: 10px; fill: #000; opacity: 1;">1.0</text><text text-anchor="end" transform="translate(-7,15.5)" style="font-family: sans-serif; font-size: 10px; fill: #000; opacity: 1;">1.5</text></g><g class="mark-rule role-axis-domain" style="pointer-events: none;"><line transform="translate(0,200)" x2="0" y2="-200" style="fill: none; stroke: #888; stroke-width: 1; opacity: 1;"></line></g><g class="mark-text role-axis-title" style="pointer-events: none;"><text text-anchor="middle" transform="translate(-24.9013671875,100) rotate(-90) translate(0,-2)" style="font-family: sans-serif; font-size: 11px; font-weight: bold; fill: #000; opacity: 1;">y</text></g></g><path class="foreground" d="" style="pointer-events: none; display: none; fill: none;"></path></g></g><g class="mark-group role-scope pathgroup"><g transform="translate(0,0)"><path class="background" d="M0,0h200v200h-200Z" style="fill: none;"></path><g><g class="mark-line role-mark marks"><path d="M0,56.455362243161986L0.2,72.39749186293977L0.4,54.67010647947295L0.6,33.68374294099594L0.8,19.247855236205737L1,33.39164502656875L1.2,23.85117044582279L1.4000000000000001,68.06902748147934L1.6,62.66435093261726L1.7999999999999998,58.37842655736867L2,71.39224984062713L2.1999999999999997,73.96809915110558L2.4,24.015586975085768L2.6,32.5653971831914L2.8000000000000003,34.60742090742153L3,46.265869526074695L3.2,19.834502032018108L3.4000000000000004,71.61059529040146L3.5999999999999996,50.051700480407725L3.8,15.168387971721643L4,24.184957824263886L4.2,59.03867198890698L4.3999999999999995,44.825680632271194L4.6,44.02105584783889L4.8,65.67580043912503L5,52.30905954734737L5.2,36.658070381360154L5.4,45.67864176969525L5.6000000000000005,46.19012925230606L5.800000000000001,73.42081428036322L6,21.493563354153245L6.2,13.516135427231424L6.4,72.93416297024939L6.6000000000000005,49.04480746151343L6.800000000000001,51.3993490163666L7.000000000000001,50.741594024747805L7.199999999999999,31.598261268943382L7.3999999999999995,55.268991058635585L7.6,13.4937285150325L7.8,59.91854899380211L8,72.32818835403465L8.200000000000001,37.99174780653682L8.4,47.76710176490329L8.6,60.12141123095019L8.799999999999999,39.24260912494086L9,44.54948306385058L9.2,64.81282227239484L9.4,20.69424623147036L9.6,34.958285493369075L9.8,15.82124094671633L10,73.10131235923967L10.2,53.761199957228875L10.4,74.23907821461562L10.6,42.813996834723135L10.8,55.39241725749571L11,53.858554352413094L11.200000000000001,14.958023952261312L11.4,26.127439733488966L11.600000000000001,69.08979992839926L11.799999999999999,32.75660613697951L12,35.03171433280994L12.2,24.080362592709225L12.4,75.4458439267889L12.6,73.07406630452589L12.8,72.80294235359885L13,28.80595277042699L13.200000000000001,50.130902224171805L13.4,31.07358504154767L13.600000000000001,44.31340756334659L13.8,17.724469852622704L14.000000000000002,32.06674945656231L14.2,72.7676873722675L14.399999999999999,28.69938715300706L14.6,16.52618495754725L14.799999999999999,40.14015727166358L15,61.88339468609099L15.2,18.027095627244073L15.4,53.553243863928834L15.6,34.41609130616108L15.8,70.15070087601939L16,17.14206808808627L16.2,74.00434386140364L16.400000000000002,36.101429923934525L16.6,25.29984971141397L16.8,74.339820062503L17,16.79873536195895L17.2,15.184497505248906L17.4,64.64236062699003L17.599999999999998,72.2527776651246L17.8,46.46273971954733L18,60.569474723748385L18.2,54.515749941861394L18.4,48.951024223577264L18.6,39.369051267042906L18.8,41.79348923436847L19,39.68587813425548L19.2,53.28983781526679L19.400000000000002,26.057234071602764L19.6,72.79544020800259L19.8,46.46198191578104L20,19.53323569130163L20.200000000000003,41.100227891887144L20.4,49.07718998048281L20.599999999999998,36.833029404014674L20.8,22.229797937209185L21,59.63478572174938L21.2,20.418463942089836L21.4,19.50883733158779L21.6,76.41112793289118L21.8,60.580059094538164L22,27.163157674974727L22.2,20.04647014513543L22.400000000000002,41.435725686628544L22.6,42.47315556432778L22.8,70.57387749971025L23,68.90941037651376L23.200000000000003,71.62686685702823L23.400000000000002,46.54835392686068L23.599999999999998,58.1477320703935L23.799999999999997,67.32476474638582L24,26.860100021434707L24.2,48.642264273864114L24.4,43.94152132761406L24.6,42.03120573189925L24.8,47.10594531636414L25,52.142666760246705L25.2,63.121729109088754L25.4,37.88371296540962L25.6,32.077429590624675L25.8,23.24765916129148L26,57.85469944297388L26.200000000000003,38.69824960622002L26.400000000000002,44.42985763016232L26.6,15.512464143603122L26.8,52.275774597423606L27,30.836283025472923L27.200000000000003,67.19930921574455L27.400000000000002,51.8231742885106L27.6,52.363655625682036L27.800000000000004,15.052578845527286L28.000000000000004,72.66714065829409L28.199999999999996,46.728226038385316L28.4,38.02596544866701L28.599999999999998,30.12016395369226L28.799999999999997,54.396449131232L28.999999999999996,58.063828771126566L29.2,17.685214305965413L29.4,70.034145491833L29.599999999999998,36.354032999529416L29.799999999999997,69.11874708064174L30,20.0888190195855L30.2,63.06869726188311L30.4,39.08798280134944L30.599999999999998,60.34528384252973L30.8,29.76243619476664L31,24.495305395464495L31.2,51.28557571778592L31.4,37.49281076647739L31.6,38.66043876533598L31.8,27.089501323317002L32,46.21306181355216L32.2,16.077920986994165L32.4,50.60968897265583L32.6,44.52588384644631L32.800000000000004,74.99886688991695L33,35.528257005424926L33.2,37.33518693955875L33.4,67.12028817202953L33.6,62.03627757661161L33.800000000000004,39.5806479822981L34,22.497526601969575L34.2,72.76581093719095L34.4,34.76934433640471L34.599999999999994,63.26078868531504L34.8,47.990609353877446L35,46.57862671127167L35.199999999999996,61.79351343568216L35.4,39.500630299839656L35.6,56.023120874114475L35.8,31.594545760660363L36,34.227079460690035L36.199999999999996,21.827621590295475L36.4,31.243051839357207L36.6,40.529647701385166L36.8,52.40376335972663L37,40.38093150807933L37.2,57.01673018313302L37.4,72.54467527911805L37.6,30.464657279733064L37.8,57.97751959045849L38,18.902697957027257L38.2,27.81080132710536L38.4,17.473762279076176L38.6,75.84571825393651L38.800000000000004,78.7128963025278L39,78.39618670760305L39.2,77.44728855894176L39.4,63.1974807801331L39.6,68.43707246195612L39.800000000000004,33.98016828973991L40,57.387847710747764L40.2,40.454886401254164L40.400000000000006,18.077659329225114L40.6,29.108632407100398L40.8,32.91459879818734L41,30.9616737526901L41.199999999999996,21.530660049377914L41.4,74.19853831715729L41.6,67.90701360478091L41.8,42.71836532671318L42,44.20254132476153L42.199999999999996,39.12273427353501L42.4,34.444442323584944L42.6,54.619086203888536L42.8,36.753748240851536L43,68.21604033861242L43.2,24.540913437772694L43.4,24.31281857246934L43.6,23.730966249782036L43.8,47.775843347982814L44,66.69460900493884L44.2,76.38273656729669L44.4,35.358920468320676L44.6,43.9154870834614L44.800000000000004,51.963571383209086L45,49.544481529818476L45.2,77.05206830012537L45.4,64.12142285799207L45.6,22.03712364501429L45.800000000000004,63.42209166619603L46,27.81494640288642L46.2,41.15377814669945L46.400000000000006,36.84631190054623L46.6,41.918013058815816L46.800000000000004,67.6077783082829L47,53.80410741046413L47.199999999999996,38.079910700040486L47.4,81.62138107566503L47.599999999999994,60.76135346257363L47.8,25.05787794291838L48,43.272243224030426L48.199999999999996,32.53752528901164L48.4,80.53538640079043L48.6,62.57828420099452L48.8,37.09996465964775L49,42.17401929787181L49.2,68.64038641628802L49.4,59.654074966104645L49.6,24.640204277717714L49.8,35.50003985465138L50,59.65750343112386L50.2,80.29849022257945L50.4,26.489482899033547L50.6,79.23085678357786L50.8,57.72710886795396L51,39.17652957944293L51.2,74.03078553333361L51.4,54.180736872846346L51.6,62.38699759798016L51.800000000000004,31.0720825737697L52,61.886856132032534L52.2,36.63763146542254L52.400000000000006,25.038077998605402L52.6,51.790395068809005L52.800000000000004,65.93579329663959L53,29.651683597338163L53.2,83.37490617503363L53.400000000000006,80.16030381257997L53.6,64.92838435856123L53.800000000000004,32.03273765408623L54,39.16767245707034L54.2,31.914009262065935L54.400000000000006,78.93740870528903L54.6,67.49655852935791L54.800000000000004,54.70628784652152L55.00000000000001,74.23228426622246L55.2,32.879517225342305L55.400000000000006,83.68045464840135L55.60000000000001,56.83831708943947L55.800000000000004,40.75638810692732L56.00000000000001,45.037918917944594L56.2,76.95832996167107L56.39999999999999,47.17178634526569L56.599999999999994,56.43573127426469L56.8,42.7195272205934L56.99999999999999,33.31749921763838L57.199999999999996,47.52802717227922L57.4,80.09534347553667L57.599999999999994,34.221653182513265L57.8,25.81882210569273L57.99999999999999,34.391405504653406L58.199999999999996,54.759357143449684L58.4,38.83657510087299L58.599999999999994,47.42871558759158L58.8,77.14437405470606L59,62.80955502338641L59.199999999999996,68.23906775906974L59.4,49.40593515032392L59.599999999999994,43.45499817309055L59.8,70.86913239825425L60,76.47523538879948L60.199999999999996,73.52061274951043L60.4,76.71829539004362L60.6,41.04951537221662L60.8,76.85859377769945L61,81.96355065024738L61.199999999999996,80.83210889930868L61.4,25.86088590275992L61.6,33.48602409678385L61.8,78.64489751533247L62,71.86544135297595L62.2,40.07658972037611L62.4,78.0250233257657L62.6,68.81684054986718L62.8,67.07387065186332L63,65.45399356967978L63.2,87.34226598053219L63.4,70.68644134980117L63.6,43.434953570058084L63.800000000000004,43.18599978038831L64,40.472670653143L64.2,80.43278316449802L64.4,38.11723511982406L64.60000000000001,71.09258990997685L64.8,45.98984391749854L65,41.69093531962902L65.2,57.291759563076724L65.4,77.5836018689613L65.60000000000001,60.038845773645754L65.8,46.98457381722974L66,68.73321645953614L66.2,67.37373820530873L66.4,62.138552460320675L66.60000000000001,75.15848724097238L66.8,83.950065230469L67,70.73919073028847L67.2,84.10011471299951L67.4,77.7722226359959L67.60000000000001,75.01082260734347L67.80000000000001,65.61391027712016L68,41.79370187753144L68.2,64.60938934094487L68.4,66.72167123974724L68.60000000000001,79.6522488690918L68.8,70.62573171567298L69,64.09376443499775L69.19999999999999,69.7843084482571L69.39999999999999,28.23673332922891L69.6,30.699067927727853L69.8,43.362236856430684L70,83.26745790896344L70.19999999999999,86.83784513940296L70.39999999999999,78.47842847536901L70.6,74.57570298418992L70.8,89.8061514799329L71,76.9654890282379L71.2,68.66503668304247L71.39999999999999,53.37939506430094L71.6,35.95002132505818L71.8,51.61103632354218L72,83.7979544387745L72.2,54.86103984599045L72.39999999999999,52.96114437077615L72.6,77.19691748981494L72.8,49.217898183233565L73,33.76090130673379L73.2,72.05041164665069L73.4,79.26414444485906L73.6,63.75643877024639L73.8,83.89373782226292L74,81.67735372691551L74.2,55.99761714424856L74.4,56.565281953740445L74.6,45.35362150222557L74.8,77.12771752109715L75,79.08243205267837L75.2,40.23607397869577L75.4,51.42154205338731L75.6,44.47191358267577L75.8,51.8756909956207L76,40.77863886016579L76.2,91.46686583096046L76.4,49.232542706549424L76.6,33.93125056014106L76.8,35.14413774281482L77,65.85366222023153L77.2,48.041644850074206L77.4,63.41727090384906L77.60000000000001,56.81858036745824L77.8,93.93602755365846L78,43.796024719092316L78.2,82.50016172492498L78.4,76.12657009835478L78.60000000000001,87.04191548065332L78.8,46.388969020539925L79,69.82275499644652L79.2,37.571131311611715L79.4,45.617912052716704L79.60000000000001,52.42979795307103L79.80000000000001,71.62867046481995L80,35.68201276550125L80.2,75.99988130856671L80.4,69.45614661771104L80.60000000000001,93.10328280262053L80.80000000000001,79.55168916084946L81,52.62611593864719L81.2,87.90835760748476L81.39999999999999,50.49346702355455L81.6,35.89428105995975L81.8,50.52394486317395L82,59.41622642188291L82.19999999999999,60.195158442491234L82.39999999999999,38.00178178000455L82.6,53.782842165898394L82.8,41.238576123940085L83,70.63501662203832L83.2,34.20605593060655L83.39999999999999,75.84767002155999L83.6,82.23637872173151L83.8,77.54762537965554L84,71.53784836422928L84.2,87.66091036006078L84.39999999999999,50.92092780508788L84.6,54.4911504994936L84.8,46.10276204879602L85,86.68576264889705L85.2,96.69071369823776L85.39999999999999,85.74529219983107L85.6,45.77826776322813L85.8,93.42591243199927L86,79.20737181624924L86.2,97.26166807216829L86.4,56.341671123466L86.6,90.75330944278079L86.8,79.30982692250899L87,47.14191207095635L87.2,93.69624460373636L87.4,53.86687370029652L87.6,86.89237792221611L87.8,38.0305612423073L88,54.424205363533076L88.2,78.04447218787811L88.4,86.01922569988265L88.6,65.73870768309709L88.8,78.48318839582191L89,65.35155460752455L89.2,44.68592187640708L89.4,66.95135920005168L89.60000000000001,59.91218347440357L89.8,87.40529032446072L90,57.684610267176865L90.2,58.233647929518064L90.4,91.62784796999112L90.60000000000001,56.19753584564573L90.8,77.70212645414955L91,63.553242596817604L91.2,47.406985935576216L91.4,63.87756474827542L91.60000000000001,39.43262065405364L91.8,86.91691277578511L92,99.65714151676708L92.2,67.58945015857618L92.4,40.94681185264959L92.60000000000001,92.17932455567883L92.80000000000001,99.22162911626022L93,77.16085141826579L93.2,66.60499707319605L93.4,79.99134702259587L93.60000000000001,63.70159015284062L93.8,54.116360474786205L94,83.93682206627903L94.19999999999999,96.12929211168822L94.39999999999999,79.19332999394528L94.6,41.15671790856332L94.8,78.77715125445226L95,43.81805420725091L95.19999999999999,68.93418484382363L95.39999999999999,75.24059679511757L95.6,55.514334048179L95.8,88.27313543054387L96,101.78403912441026L96.2,89.6072632796651L96.39999999999999,74.49657255786049L96.6,103.83625871211146L96.8,78.73141076028823L97,80.94699288141216L97.2,98.43454258631598L97.39999999999999,43.93351262514966L97.6,86.67769227166795L97.8,63.439195696642955L98,95.36496211960748L98.2,81.81317259278475L98.4,76.14822791539552L98.6,70.24873568695065L98.8,52.24924919388685L99,65.45235370732641L99.2,81.73815733438026L99.4,61.42980227165851L99.6,91.8120071842448L99.8,102.55042621863475L100,51.753325001369L100.2,99.9660281783906L100.4,85.6129106390848L100.6,47.50902338848852L100.8,47.98483407716358L101,74.70227484459429L101.2,50.482961979512076L101.4,67.94201375354302L101.6,65.51425754093687L101.8,106.44082363284093L102,76.35959266533747L102.2,71.8435467050547L102.4,50.03253992559007L102.60000000000001,62.93512158505759L102.8,50.028333921440904L103,98.93299314018607L103.2,89.7974497880969L103.4,85.04126570743568L103.60000000000001,80.0660340007681L103.8,60.33896512365793L104,75.3318618487911L104.2,77.5213138019699L104.4,87.25018728870606L104.60000000000001,61.23489263174897L104.80000000000001,105.9280476389344L105,53.86390722224359L105.2,75.45501480705568L105.4,96.50749920135124L105.60000000000001,86.52737744118603L105.80000000000001,84.32417682954994L106,53.351996500484056L106.2,95.54001695362602L106.4,108.81679579097803L106.60000000000001,95.06693416706815L106.80000000000001,80.73031888603896L107,53.72041443296736L107.2,64.66170032078426L107.4,52.57678475663412L107.60000000000001,55.41623916619476L107.80000000000001,83.57423537087729L108,71.12582363130848L108.2,85.58759847088938L108.4,107.88523147488553L108.60000000000001,65.54683953078975L108.80000000000001,104.25287883322713L109.00000000000001,83.30166428578198L109.2,102.45658392722903L109.4,75.5817722914445L109.60000000000001,105.68401311215044L109.80000000000001,107.59072022656862L110.00000000000001,86.38180502326409L110.2,61.060613620881085L110.4,88.77886559333663L110.60000000000001,68.96926524910955L110.80000000000001,87.4969077141399L111.00000000000001,77.4139330467006L111.20000000000002,69.9219678073757L111.4,97.25679550834418L111.60000000000001,101.58289593942693L111.80000000000001,99.02924750191082L112.00000000000001,107.44232215955346L112.20000000000002,69.27489065050018L112.4,69.9032307317288L112.6,68.08460886051925L112.79999999999998,67.87508985676607L112.99999999999999,54.307321832270404L113.19999999999999,68.13548126763452L113.39999999999999,95.48482492365842L113.6,53.98697075096093L113.79999999999998,99.09884716012911L113.99999999999999,56.41384918320813L114.19999999999999,96.53382101195915L114.39999999999999,93.28584629320969L114.6,106.09871448216737L114.8,100.13244552622571L114.99999999999999,65.8278726227121L115.19999999999999,109.3073868438451L115.39999999999999,110.09034862530811L115.6,103.77901150095138L115.8,76.41939955477532L115.99999999999999,82.68265815611808L116.19999999999999,99.74618912263693L116.39999999999999,90.45308642818281L116.6,73.29789873025376L116.8,70.0833712248411L117,77.48415184819481L117.19999999999999,90.86265045109663L117.39999999999999,100.04607398114427L117.6,96.0496965403274L117.8,67.18554342654241L118,77.11594532996307L118.19999999999999,98.248096398333L118.39999999999999,84.94174657935577L118.6,67.90337946080471L118.8,113.3178808064764L119,69.37983322056044L119.19999999999999,60.36042943004054L119.39999999999999,95.80304046168364L119.6,118.76283599195845L119.8,79.97665869607486L120,110.40811011808664L120.19999999999999,102.3093223534616L120.39999999999999,101.97968636185242L120.6,71.74276615643696L120.8,98.1603478816121L121,92.9907291937325L121.2,100.90039292922435L121.39999999999999,78.36887716918883L121.6,76.46389762309845L121.8,72.60155930025218L122,73.58191075899472L122.2,89.04484427629964L122.39999999999999,109.22534788024892L122.6,109.57870111334995L122.8,83.08473620193982L123,116.6299194582006L123.2,76.3811316196793L123.4,113.56138802657263L123.6,88.9118959578949L123.8,74.86591153690563L124,99.85744634012117L124.2,92.0144292693698L124.4,109.39748583597402L124.6,98.00644201652725L124.8,122.30211017853317L125,70.6216800752663L125.2,107.98299315279922L125.4,119.98057576222736L125.6,98.52677660429848L125.8,106.46483629203041L126,81.0444770351465L126.2,86.85452552075459L126.4,89.73209615905651L126.6,87.17353188812204L126.8,78.96031132613234L127,66.60898971595262L127.2,69.45769706596671L127.4,94.42012551116092L127.60000000000001,79.98271041925456L127.8,88.45996488151602L128,96.41557062324048L128.2,88.44667628065986L128.4,94.1000812736492L128.6,115.71676584703528L128.8,65.66548948520938L129,126.43945718333103L129.20000000000002,105.09102790597673L129.4,79.26879953774993L129.6,69.65566877687135L129.8,66.39472076243658L130,105.85824872453917L130.20000000000002,97.16826002890859L130.4,114.19570840105307L130.6,87.47577000237507L130.8,104.50446925610038L131,72.39446480892767L131.20000000000002,96.82242695622779L131.4,71.17563698222989L131.6,100.99977749337117L131.8,80.35919263463552L132,122.74013669729571L132.20000000000002,105.6778103901677L132.4,109.6586293556765L132.6,78.82317032434204L132.8,95.51580625212901L133,129.73378379092114L133.20000000000002,87.0247182638999L133.4,87.72961192272454L133.6,81.13468349617835L133.8,96.42161884190479L134,109.22171982189255L134.20000000000002,73.72771957370033L134.4,79.5416219751105L134.60000000000002,89.81797659601358L134.8,129.63277620487673L135,112.18552254254747L135.20000000000002,127.26841571905638L135.4,126.95343304464173L135.60000000000002,110.59813741671691L135.8,85.21547973362276L136,83.0525725385306L136.20000000000002,109.88759616137942L136.4,77.68856844409274L136.60000000000002,107.5039010746595L136.8,117.66818717515402L137,83.62799099026257L137.20000000000002,111.90233917767102L137.4,133.0026670380726L137.6,110.02235956317384L137.79999999999998,74.64485961323095L138,131.21797639492775L138.2,87.89383300226963L138.39999999999998,122.17681488939812L138.6,114.7073657083592L138.79999999999998,80.35709566803564L139,119.5079429471996L139.2,120.64992560738203L139.39999999999998,88.04511026622815L139.6,101.11903320065787L139.79999999999998,120.11024712086851L140,90.52802570681588L140.2,88.1546972871142L140.39999999999998,127.3645304274893L140.6,97.66227047387149L140.79999999999998,130.66118952429412L141,134.12556801731236L141.2,125.49316485904447L141.4,109.79063727999244L141.6,108.32420683604091L141.79999999999998,132.69759142734637L142,93.26787053168954L142.2,116.64171233142243L142.4,90.32550134599495L142.6,85.12754353870228L142.79999999999998,115.95203313806266L143,109.54148203426355L143.2,78.78954675534011L143.4,109.03133997155577L143.6,129.17905246329272L143.79999999999998,93.17072883561426L144,135.34560672516312L144.2,83.6543716847898L144.4,93.77491785648976L144.6,115.86370576797749L144.79999999999998,79.47559210497768L145,100.76736628903076L145.2,86.63746628787649L145.4,135.07468595643516L145.6,129.60926633164803L145.79999999999998,118.6288797035539L146,128.59966998122405L146.2,116.29163894173709L146.4,94.76606372256029L146.6,122.11588580384789L146.8,100.02096574199824L147,126.29421805926509L147.2,140.75398728778924L147.4,118.304206471745L147.6,104.46149881156805L147.8,128.25325628859326L148,135.87252916459377L148.2,129.89435053494537L148.4,120.85078395167889L148.6,117.54263857630846L148.8,96.21949653106101L149,124.09542159285118L149.2,117.27766669778723L149.4,114.18700676609114L149.6,113.9136257017129L149.8,86.43399546644501L150,84.63971498768996L150.2,101.43732794147266L150.4,103.64804961552582L150.6,95.14353424348676L150.8,121.14615444375096L151,107.01288849987793L151.2,106.49926565682884L151.4,98.6362988116357L151.6,145.8237304217568L151.8,118.41231434226054L152,114.7762570466512L152.2,137.63727983049193L152.4,99.99565540784315L152.6,94.9181320381916L152.8,111.99391192458567L153,108.49391623783724L153.2,142.9587942052303L153.4,134.79074777175012L153.6,139.11157889744825L153.8,96.76454954255209L154,126.2859404409542L154.20000000000002,90.46482478228299L154.4,101.59426449636308L154.6,137.06467648690386L154.8,149.44837946932518L155,88.3302727505309L155.20000000000002,130.34106121705312L155.4,111.5487246549014L155.6,142.94264937386941L155.8,133.55378619946987L156,89.35444768695781L156.20000000000002,136.47547247605183L156.4,91.3710674670549L156.6,118.28755269636146L156.8,143.7771027328539L157,130.6791060522769L157.20000000000002,135.42431271267213L157.4,96.4855291918984L157.6,99.92407767604703L157.8,138.41057741797937L158,138.96960942305085L158.20000000000002,142.41646648132976L158.4,116.02134056784905L158.6,108.63085478932813L158.8,104.534067460644L159,110.88864407152607L159.20000000000002,128.8409708997925L159.4,140.9282356404665L159.60000000000002,105.26455330852839L159.8,136.2877780639431L160,98.4381326497922L160.20000000000002,93.8554260842973L160.4,104.28463832958718L160.60000000000002,124.89109346442966L160.8,120.53896193603602L161,100.12143481380333L161.20000000000002,96.3371172705108L161.4,112.13691236154656L161.60000000000002,100.37619678805369L161.8,117.94476057144678L162,121.020416050091L162.20000000000002,147.08547809602047L162.4,95.45658252683182L162.6,125.71293087815891L162.79999999999998,137.30716900704502L163,156.09550998912036L163.2,117.69345367698752L163.39999999999998,119.1204504040046L163.6,104.8684054324033L163.79999999999998,104.763239323005L164,152.62267116455484L164.2,116.7199817908568L164.39999999999998,134.87133574009187L164.6,126.79684886108613L164.79999999999998,118.5991101615065L165,143.08705297556358L165.2,145.03965493507422L165.39999999999998,114.89100510555686L165.6,132.71958325123882L165.79999999999998,156.22340989798153L166,128.10140809005867L166.2,133.50294118672807L166.4,105.4611472757533L166.6,155.52434854375457L166.79999999999998,125.41616875007469L167,115.25063111113379L167.2,153.17518452348114L167.4,146.8375138662144L167.6,110.61247612511833L167.79999999999998,114.99827041502972L168,108.48906379104952L168.2,111.52661191737594L168.4,125.50836741894669L168.6,111.41369844428613L168.79999999999998,157.74112213657799L169,142.91674367423659L169.2,161.64152649951737L169.4,103.49780882979938L169.6,106.87229467884949L169.79999999999998,138.1220352518729L170,119.6755799973154L170.2,143.689425806101L170.4,156.24064616631384L170.6,112.54117976864362L170.79999999999998,118.29909369395335L171,154.32927021241082L171.2,163.63199206460632L171.4,166.5262596058219L171.6,156.63260636419747L171.8,141.24115840542052L172,107.8077636862242L172.2,139.24712246390754L172.4,132.69194494233804L172.6,134.63918534003668L172.8,116.83071641977112L173,118.77376784406621L173.2,162.49644342856422L173.4,107.35149943142628L173.6,164.43536571692988L173.8,152.2406610082163L174,123.57806860391207L174.2,138.5114524746225L174.4,146.47928491935068L174.6,109.33909290875485L174.8,168.80002246793987L175,130.96825534144844L175.2,129.95018435202948L175.4,169.94368016994238L175.6,148.65821977509987L175.8,134.39020332532368L176,110.01084549064993L176.2,121.61110935170151L176.4,115.49580666189226L176.6,125.68325025923639L176.8,158.78498428864026L177,118.48819207285071L177.2,139.42169517731887L177.4,131.84385556704035L177.6,172.6442762392113L177.8,138.08262529005074L178,119.04400543660851L178.2,171.64944744197533L178.4,171.91586244160814L178.6,115.25997782908699L178.8,115.50924658968424L179,142.68748338563094L179.20000000000002,173.83381385176915L179.4,153.80036106159127L179.6,116.29326652464358L179.8,173.55869690910217L180,164.25830695527165L180.20000000000002,138.87465759571617L180.4,173.69107441437862L180.6,164.877947795043L180.8,141.95358433760072L181,153.02765431314876L181.20000000000002,128.6334082498013L181.4,166.91729826614L181.6,120.75520294424729L181.8,176.43723859269943L182,137.2734414025777L182.20000000000002,166.91569438165047L182.4,125.99909970278003L182.6,151.08757365969814L182.8,153.96171736223988L183,118.38682084248133L183.20000000000002,148.51131958193707L183.4,126.36015834957375L183.6,142.06989802071675L183.8,178.16161841523058L184,130.44177428497542L184.20000000000002,150.9843315027283L184.4,157.19894713864898L184.60000000000002,169.21564830613832L184.8,154.4138957761527L185,171.66307887273896L185.20000000000002,180.4416204188686L185.4,148.21542617205517L185.60000000000002,172.73107809639683L185.8,149.3896968645468L186,122.45377644276148L186.20000000000002,155.4079737097361L186.4,157.280003660042L186.60000000000002,129.92092966759188L186.8,161.92577993758474L187,130.45580444596823L187.20000000000002,175.934818873337L187.4,155.6914678716514L187.6,147.20219628720423L187.79999999999998,127.76370251279762L188,184.9620280124152L188.2,151.42769369825976L188.39999999999998,154.5530615616201L188.6,139.76833891065658L188.79999999999998,126.37095757795085L189,153.12835507903915L189.2,142.20771929199967L189.39999999999998,157.31324643949557L189.6,157.6987875914156L189.79999999999998,135.3934079012988L190,153.8515849488361L190.2,129.97806808416007L190.39999999999998,170.8570812931034L190.6,176.2876858982396L190.79999999999998,185.83297331222266L191,148.63563395393254L191.2,133.9396399726267L191.4,136.82095037193056L191.6,132.30101642102116L191.79999999999998,165.6395473750056L192,134.92755539813032L192.2,169.85459448197994L192.4,178.10292008106344L192.6,140.95656565974113L192.79999999999998,144.0068788650995L193,135.29483912431436L193.2,137.31600322752925L193.4,172.3025892311986L193.6,188.06967805093052L193.79999999999998,176.37182413978863L194,143.89147240655367L194.2,137.75362162516222L194.4,175.30515581261773L194.6,132.68121381562483L194.79999999999998,141.3041200354307L195,146.57657498798844L195.2,145.08328101262546L195.4,137.6216357729678L195.6,145.72094935674625L195.79999999999998,146.2079936028448L196,152.66405490208038L196.2,171.68225910886562L196.4,134.77858109647198L196.6,164.20538750174165L196.8,147.77721934858258L197,160.9888968165641L197.2,195.20533945648012L197.4,191.19646965712033L197.6,150.07169088700007L197.8,183.92147815916113L198,178.40351519409538L198.2,196.7335146214815L198.4,164.2753017436432L198.6,168.1862037986523L198.8,184.34158806937643L199,161.28040585441778L199.2,143.961387276049L199.4,140.88441152877886L199.6,186.98047506481933L199.8,158.57554233877943" style="fill: none; stroke: #4c78a8; stroke-width: 2;"></path></g></g><path class="foreground" d="" style="display: none; fill: none;"></path></g></g><g class="mark-group role-legend"><g transform="translate(220,0)"><path class="background" d="M0,0h64v27h-64Z" style="pointer-events: none; fill: none;"></path><g><g class="mark-group role-legend-entry"><g transform="translate(0,16)"><path class="background" d="M0,0h0v0h0Z" style="pointer-events: none; fill: none;"></path><g><g class="mark-group role-scope"><g transform="translate(0,0)"><path class="background" d="M0,0h63.7978515625v11h-63.7978515625Z" style="pointer-events: none; fill: none; opacity: 1;"></path><g><g class="mark-symbol role-legend-symbol" style="pointer-events: none;"><path transform="translate(6,6)" d="M-5,0L5,0" style="fill: none; stroke: #4c78a8; stroke-width: 1.5; opacity: 1;"></path></g><g class="mark-text role-legend-label" style="pointer-events: none;"><text text-anchor="start" transform="translate(16,9)" style="font-family: sans-serif; font-size: 10px; fill: #000; opacity: 1;">workspace</text></g></g><path class="foreground" d="" style="pointer-events: none; display: none; fill: none;"></path></g></g></g><path class="foreground" d="" style="pointer-events: none; display: none; fill: none;"></path></g></g><g class="mark-text role-legend-title" style="pointer-events: none;"><text text-anchor="start" transform="translate(0,9)" style="font-family: sans-serif; font-size: 11px; font-weight: bold; fill: #000; opacity: 1;">rev</text></g></g><path class="foreground" d="" style="pointer-events: none; display: none; fill: none;"></path></g></g></g><path class="foreground" d="" style="display: none; fill: none;"></path></g></g></g></svg>