<svg xmlns="http://www.w3.org/2000/svg" xmlns:xlink="http://www.w3.org/1999/xlink" version="1.1" class="marks" width="434" height="360" viewBox="0 0 434 360"><rect width="434" height="360" fill="white"/><g fill="none" stroke-miterlimit="10" transform="translate(47,23)"><g class="mark-group role-frame root" role="graphics-object" aria-roledescription="group mark container"><g transform="translate(0,0)"><path class="background" aria-hidden="true" d="M0.5,0.5h300v300h-300Z" stroke="#ddd"/><g><g class="mark-group role-axis" aria-hidden="true"><g transform="translate(0.5,300.5)"><path class="background" aria-hidden="true" d="M0,0h0v0h0Z" pointer-events="none"/><g><g class="mark-rule role-axis-grid" pointer-events="none"><line transform="translate(0,-300)" x2="0" y2="300" stroke="#ddd" stroke-width="1" opacity="1"/><line transform="translate(30,-300)" x2="0" y2="300" stroke="#ddd" stroke-width="1" opacity="1"/><line transform="translate(60,-300)" x2="0" y2="300" stroke="#ddd" stroke-width="1" opacity="1"/><line transform="translate(90,-300)" x2="0" y2="300" stroke="#ddd" stroke-width="1" opacity="1"/><line transform="translate(120,-300)" x2="0" y2="300" stroke="#ddd" stroke-width="1" opacity="1"/><line transform="translate(150,-300)" x2="0" y2="300" stroke="#ddd" stroke-width="1" opacity="1"/><line transform="translate(180,-300)" x2="0" y2="300" stroke="#ddd" stroke-width="1" opacity="1"/><line transform="translate(210,-300)" x2="0" y2="300" stroke="#ddd" stroke-width="1" opacity="1"/><line transform="translate(240,-300)" x2="0" y2="300" stroke="#ddd" stroke-width="1" opacity="1"/><line transform="translate(270,-300)" x2="0" y2="300" stroke="#ddd" stroke-width="1" opacity="1"/><line transform="translate(300,-300)" x2="0" y2="300" stroke="#ddd" stroke-width="1" opacity="1"/></g></g><path class="foreground" aria-hidden="true" d="" pointer-events="none" display="none"/></g></g><g class="mark-group role-axis" aria-hidden="true"><g transform="translate(0.5,0.5)"><path class="background" aria-hidden="true" d="M0,0h0v0h0Z" pointer-events="none"/><g><g class="mark-rule role-axis-grid" pointer-events="none"><line transform="translate(0,279)" x2="300" y2="0" stroke="#ddd" stroke-width="1" opacity="1"/><line transform="translate(0,225)" x2="300" y2="0" stroke="#ddd" stroke-width="1" opacity="1"/><line transform="translate(0,171)" x2="300" y2="0" stroke="#ddd" stroke-width="1" opacity="1"/><line transform="translate(0,118)" x2="300" y2="0" stroke="#ddd" stroke-width="1" opacity="1"/><line transform="translate(0,64)" x2="300" y2="0" stroke="#ddd" stroke-width="1" opacity="1"/><line transform="translate(0,11)" x2="300" y2="0" stroke="#ddd" stroke-width="1" opacity="1"/></g></g><path class="foreground" aria-hidden="true" d="" pointer-events="none" display="none"/></g></g><g class="mark-group role-axis" role="graphics-symbol" aria-roledescription="axis" aria-label="X-axis titled 'step' for a linear scale with values from 0 to 100"><g transform="translate(0.5,300.5)"><path class="background" aria-hidden="true" d="M0,0h0v0h0Z" pointer-events="none"/><g><g class="mark-rule role-axis-tick" pointer-events="none"><line transform="translate(0,0)" x2="0" y2="5" stroke="#888" stroke-width="1" opacity="1"/><line transform="translate(30,0)" x2="0" y2="5" stroke="#888" stroke-width="1" opacity="1"/><line transform="translate(60,0)" x2="0" y2="5" stroke="#888" stroke-width="1" opacity="1"/><line transform="translate(90,0)" x2="0" y2="5" stroke="#888" stroke-width="1" opacity="1"/><line transform="translate(120,0)" x2="0" y2="5" stroke="#888" stroke-width="1" opacity="1"/><line transform="translate(150,0)" x2="0" y2="5" stroke="#888" stroke-width="1" opacity="1"/><line transform="translate(180,0)" x2="0" y2="5" stroke="#888" stroke-width="1" opacity="1"/><line transform="translate(210,0)" x2="0" y2="5" stroke="#888" stroke-width="1" opacity="1"/><line transform="translate(240,0)" x2="0" y2="5" stroke="#888" stroke-width="1" opacity="1"/><line transform="translate(270,0)" x2="0" y2="5" stroke="#888" stroke-width="1" opacity="1"/><line transform="translate(300,0)" x2="0" y2="5" stroke="#888" stroke-width="1" opacity="1"/></g><g class="mark-text role-axis-label" pointer-events="none"><text text-anchor="start" transform="translate(0,15)" font-family="sans-serif" font-size="10px" fill="#000" opacity="1">0</text><text text-anchor="middle" transform="translate(30,15)" font-family="sans-serif" font-size="10px" fill="#000" opacity="1">10</text><text text-anchor="middle" transform="translate(60,15)" font-family="sans-serif" font-size="10px" fill="#000" opacity="1">20</text><text text-anchor="middle" transform="translate(90,15)" font-family="sans-serif" font-size="10px" fill="#000" opacity="1">30</text><text text-anchor="middle" transform="translate(120,15)" font-family="sans-serif" font-size="10px" fill="#000" opacity="1">40</text><text text-anchor="middle" transform="translate(150,15)" font-family="sans-serif" font-size="10px" fill="#000" opacity="1">50</text><text text-anchor="middle" transform="translate(180,15)" font-family="sans-serif" font-size="10px" fill="#000" opacity="1">60</text><text text-anchor="middle" transform="translate(210,15)" font-family="sans-serif" font-size="10px" fill="#000" opacity="1">70</text><text text-anchor="middle" transform="translate(240,15)" font-family="sans-serif" font-size="10px" fill="#000" opacity="1">80</text><text text-anchor="middle" transform="translate(270,15)" font-family="sans-serif" font-size="10px" fill="#000" opacity="1">90</text><text text-anchor="end" transform="translate(300,15)" font-family="sans-serif" font-size="10px" fill="#000" opacity="1">100</text></g><g class="mark-rule role-axis-domain" pointer-events="none"><line transform="translate(0,0)" x2="300" y2="0" stroke="#888" stroke-width="1" opacity="1"/></g><g class="mark-text role-axis-title" pointer-events="none"><text text-anchor="middle" transform="translate(150,30)" font-family="sans-serif" font-size="11px" font-weight="bold" fill="#000" opacity="1">step</text></g></g><path class="foreground" aria-hidden="true" d="" pointer-events="none" display="none"/></g></g><g class="mark-group role-axis" role="graphics-symbol" aria-roledescription="axis" aria-label="Y-axis titled 'loss' for a linear scale with values from −0.02 to 0.26"><g transform="translate(0.5,0.5)"><path class="background" aria-hidden="true" d="M0,0h0v0h0Z" pointer-events="none"/><g><g class="mark-rule role-axis-tick" pointer-events="none"><line transform="translate(0,279)" x2="-5" y2="0" stroke="#888" stroke-width="1" opacity="1"/><line transform="translate(0,225)" x2="-5" y2="0" stroke="#888" stroke-width="1" opacity="1"/><line transform="translate(0,171)" x2="-5" y2="0" stroke="#888" stroke-width="1" opacity="1"/><line transform="translate(0,118)" x2="-5" y2="0" stroke="#888" stroke-width="1" opacity="1"/><line transform="translate(0,64)" x2="-5" y2="0" stroke="#888" stroke-width="1" opacity="1"/><line transform="translate(0,11)" x2="-5" y2="0" stroke="#888" stroke-width="1" opacity="1"/></g><g class="mark-text role-axis-label" pointer-events="none"><text text-anchor="end" transform="translate(-7,281.57142857142856)" font-family="sans-serif" font-size="10px" fill="#000" opacity="1">0.00</text><text text-anchor="end" transform="translate(-7,228)" font-family="sans-serif" font-size="10px" fill="#000" opacity="1">0.05</text><text text-anchor="end" transform="translate(-7,174.42857142857142)" font-family="sans-serif" font-size="10px" fill="#000" opacity="1">0.10</text><text text-anchor="end" transform="translate(-7,120.8571428571429)" font-family="sans-serif" font-size="10px" fill="#000" opacity="1">0.15</text><text text-anchor="end" transform="translate(-7,67.28571428571429)" font-family="sans-serif" font-size="10px" fill="#000" opacity="1">0.20</text><text text-anchor="end" transform="translate(-7,13.71428571428571)" font-family="sans-serif" font-size="10px" fill="#000" opacity="1">0.25</text></g><g class="mark-rule role-axis-domain" pointer-events="none"><line transform="translate(0,300)" x2="0" y2="-300" stroke="#888" stroke-width="1" opacity="1"/></g><g class="mark-text role-axis-title" pointer-events="none"><text text-anchor="middle" transform="translate(-30.462890625,150) rotate(-90) translate(0,-2)" font-family="sans-serif" font-size="11px" font-weight="bold" fill="#000" opacity="1">loss</text></g></g><path class="foreground" aria-hidden="true" d="" pointer-events="none" display="none"/></g></g><g class="mark-group role-scope layer_0_layer_0_pathgroup" role="graphics-object" aria-roledescription="group mark container"><g transform="translate(0,0)"><path class="background" aria-hidden="true" d="M0,0h300v300h-300Z"/><g><g class="mark-line role-mark layer_0_layer_0_marks" role="graphics-object" aria-roledescription="line mark container" pointer-events="none"><path aria-label="step: 0; loss: 0.243183539164; rev: workspace" role="graphics-symbol" aria-roledescription="line mark" d="M0,18.017636610353428L3,25.803843590553853L6,33.49302419020227L9,41.06069059685238L12,48.519335191065785L15,55.898044972416386L18,63.237530587649324L21.000000000000004,70.60676502451966L24,78.13283059340895L27,85.61854763260385L30,90.95070296716999L33,95.6611279394956L36,100.07515743016644L39,104.28191063269632L42.00000000000001,108.23022098128455L45,111.98492457898969L48,115.74844271422074L51.00000000000001,119.73448448762682L54,123.98742824186834L57,128.36749745597632L60,132.96438096405132L63,137.86822313204578L66,142.70454004174633L69,147.29497160305186L72,151.3503326954501L75,154.79848506093242L78,157.7631096558725L81,160.28206011340157L84.00000000000001,162.51162482871646L87,164.7352639171428L90,166.9893481170557L93,169.45804405524157L96,172.27771489078282L99,175.38441667911832L102.00000000000001,178.3464637329439L105,180.8352883581183L108,182.9052875707113L111,184.69790836345618L114,186.52517280954274L117,188.71661038029853L120,191.1644217100585L122.99999999999999,193.48862116400122L126,195.46511778296102L129,197.1745312775149L132,199.01254068365566L135,201.31285955551766L138,204.18435676577283L141,207.68364434329402L144,211.5287881097637L147,215.2015886893652L150,218.42096234008892L153,221.07357156425675L156,223.1467087322871L159,224.78283200448934L162,226.02279524413305L165,226.91710223728603L168.00000000000003,227.56537019480896L170.99999999999997,228.31404155149087L174,229.38149817744375L177,230.60596091829234L180,231.83747032228118L183,233.0690714265176L186,234.2946965475669L189,235.7270521016538L192,237.46566680371507L195,239.5957650932511L198,241.97981823726093L201,244.28713239832086L204.00000000000003,246.28958828218498L206.99999999999997,247.97291857107635L210,249.3000058957533L213,250.48148584401724L216,251.80357656115552L219,253.3816038458844L222,255.01830358224166L225,256.44399786874874L228,257.66805491421104L231,258.8611087722402L234,260.1844284657919L237,261.7269549557359L240,263.39321329792034L243.00000000000003,265.1344838656981L245.99999999999997,266.8948446671828L249,268.63917523498003L252,270.42851995104763L255,272.4131049001785L258,274.5366395407849L261,276.62777894557195L264,278.5506366241275L267,280.2822188603673L270,281.7497441824704L273,283.2816994626238L276,284.8275299225066L279,286.3580370975002L282,287.8516893754422L285,289.3056823711495L288,290.7289366935501L291,292.13125407723754L294,293.52019446848544" stroke="#4c78a8" stroke-width="2"/></g></g><path class="foreground" aria-hidden="true" d="" display="none"/></g></g><g class="mark-symbol role-mark layer_0_layer_1_marks" role="graphics-object" aria-roledescription="symbol mark container"><path aria-label="step: 0; loss: 0.243183539164; rev: workspace" role="graphics-symbol" aria-roledescription="point" transform="translate(0,18.017636610353428)" d="M2.7386127875258306,0A2.7386127875258306,2.7386127875258306,0,1,1,-2.7386127875258306,0A2.7386127875258306,2.7386127875258306,0,1,1,2.7386127875258306,0" stroke="#4c78a8" stroke-width="2" opacity="0"/><path aria-label="step: 1; loss: 0.235916412649; rev: workspace" role="graphics-symbol" aria-roledescription="point" transform="translate(3,25.803843590553853)" d="M2.7386127875258306,0A2.7386127875258306,2.7386127875258306,0,1,1,-2.7386127875258306,0A2.7386127875258306,2.7386127875258306,0,1,1,2.7386127875258306,0" stroke="#4c78a8" stroke-width="2" opacity="0"/><path aria-label="step: 2; loss: 0.228739844089; rev: workspace" role="graphics-symbol" aria-roledescription="point" transform="translate(6,33.49302419020227)" d="M2.7386127875258306,0A2.7386127875258306,2.7386127875258306,0,1,1,-2.7386127875258306,0A2.7386127875258306,2.7386127875258306,0,1,1,2.7386127875258306,0" stroke="#4c78a8" stroke-width="2" opacity="0"/><path aria-label="step: 3; loss: 0.221676688776; rev: workspace" role="graphics-symbol" aria-roledescription="point" transform="translate(9,41.06069059685238)" d="M2.7386127875258306,0A2.7386127875258306,2.7386127875258306,0,1,1,-2.7386127875258306,0A2.7386127875258306,2.7386127875258306,0,1,1,2.7386127875258306,0" stroke="#4c78a8" stroke-width="2" opacity="0"/><path aria-label="step: 4; loss: 0.214715287155; rev: workspace" role="graphics-symbol" aria-roledescription="point" transform="translate(12,48.519335191065785)" d="M2.7386127875258306,0A2.7386127875258306,2.7386127875258306,0,1,1,-2.7386127875258306,0A2.7386127875258306,2.7386127875258306,0,1,1,2.7386127875258306,0" stroke="#4c78a8" stroke-width="2" opacity="0"/><path aria-label="step: 5; loss: 0.207828491359; rev: workspace" role="graphics-symbol" aria-roledescription="point" transform="translate(15,55.898044972416386)" d="M2.7386127875258306,0A2.7386127875258306,2.7386127875258306,0,1,1,-2.7386127875258306,0A2.7386127875258306,2.7386127875258306,0,1,1,2.7386127875258306,0" stroke="#4c78a8" stroke-width="2" opacity="0"/><path aria-label="step: 6; loss: 0.200978304785; rev: workspace" role="graphics-symbol" aria-roledescription="point" transform="translate(18,63.237530587649324)" d="M2.7386127875258306,0A2.7386127875258306,2.7386127875258306,0,1,1,-2.7386127875258306,0A2.7386127875258306,2.7386127875258306,0,1,1,2.7386127875258306,0" stroke="#4c78a8" stroke-width="2" opacity="0"/><path aria-label="step: 7; loss: 0.194100352644; rev: workspace" role="graphics-symbol" aria-roledescription="point" transform="translate(21.000000000000004,70.60676502451966)" d="M2.7386127875258306,0A2.7386127875258306,2.7386127875258306,0,1,1,-2.7386127875258306,0A2.7386127875258306,2.7386127875258306,0,1,1,2.7386127875258306,0" stroke="#4c78a8" stroke-width="2" opacity="0"/><path aria-label="step: 8; loss: 0.187076024779; rev: workspace" role="graphics-symbol" aria-roledescription="point" transform="translate(24,78.13283059340895)" d="M2.7386127875258306,0A2.7386127875258306,2.7386127875258306,0,1,1,-2.7386127875258306,0A2.7386127875258306,2.7386127875258306,0,1,1,2.7386127875258306,0" stroke="#4c78a8" stroke-width="2" opacity="0"/><path aria-label="step: 9; loss: 0.180089355543; rev: workspace" role="graphics-symbol" aria-roledescription="point" transform="translate(27,85.61854763260385)" d="M2.7386127875258306,0A2.7386127875258306,2.7386127875258306,0,1,1,-2.7386127875258306,0A2.7386127875258306,2.7386127875258306,0,1,1,2.7386127875258306,0" stroke="#4c78a8" stroke-width="2" opacity="0"/><path aria-label="step: 10; loss: 0.175112677231; rev: workspace" role="graphics-symbol" aria-roledescription="point" transform="translate(30,90.95070296716999)" d="M2.7386127875258306,0A2.7386127875258306,2.7386127875258306,0,1,1,-2.7386127875258306,0A2.7386127875258306,2.7386127875258306,0,1,1,2.7386127875258306,0" stroke="#4c78a8" stroke-width="2" opacity="0"/><path aria-label="step: 11; loss: 0.17071628059; rev: workspace" role="graphics-symbol" aria-roledescription="point" transform="translate(33,95.6611279394956)" d="M2.7386127875258306,0A2.7386127875258306,2.7386127875258306,0,1,1,-2.7386127875258306,0A2.7386127875258306,2.7386127875258306,0,1,1,2.7386127875258306,0" stroke="#4c78a8" stroke-width="2" opacity="0"/><path aria-label="step: 12; loss: 0.166596519732; rev: workspace" role="graphics-symbol" aria-roledescription="point" transform="translate(36,100.07515743016644)" d="M2.7386127875258306,0A2.7386127875258306,2.7386127875258306,0,1,1,-2.7386127875258306,0A2.7386127875258306,2.7386127875258306,0,1,1,2.7386127875258306,0" stroke="#4c78a8" stroke-width="2" opacity="0"/><path aria-label="step: 13; loss: 0.162670216743; rev: workspace" role="graphics-symbol" aria-roledescription="point" transform="translate(39,104.28191063269632)" d="M2.7386127875258306,0A2.7386127875258306,2.7386127875258306,0,1,1,-2.7386127875258306,0A2.7386127875258306,2.7386127875258306,0,1,1,2.7386127875258306,0" stroke="#4c78a8" stroke-width="2" opacity="0"/><path aria-label="step: 14; loss: 0.158985127084; rev: workspace" role="graphics-symbol" aria-roledescription="point" transform="translate(42.00000000000001,108.23022098128455)" d="M2.7386127875258306,0A2.7386127875258306,2.7386127875258306,0,1,1,-2.7386127875258306,0A2.7386127875258306,2.7386127875258306,0,1,1,2.7386127875258306,0" stroke="#4c78a8" stroke-width="2" opacity="0"/><path aria-label="step: 15; loss: 0.15548073706; rev: workspace" role="graphics-symbol" aria-roledescription="point" transform="translate(45,111.98492457898969)" d="M2.7386127875258306,0A2.7386127875258306,2.7386127875258306,0,1,1,-2.7386127875258306,0A2.7386127875258306,2.7386127875258306,0,1,1,2.7386127875258306,0" stroke="#4c78a8" stroke-width="2" opacity="0"/><path aria-label="step: 16; loss: 0.151968120133; rev: workspace" role="graphics-symbol" aria-roledescription="point" transform="translate(48,115.74844271422074)" d="M2.7386127875258306,0A2.7386127875258306,2.7386127875258306,0,1,1,-2.7386127875258306,0A2.7386127875258306,2.7386127875258306,0,1,1,2.7386127875258306,0" stroke="#4c78a8" stroke-width="2" opacity="0"/><path aria-label="step: 17; loss: 0.148247814478; rev: workspace" role="graphics-symbol" aria-roledescription="point" transform="translate(51.00000000000001,119.73448448762682)" d="M2.7386127875258306,0A2.7386127875258306,2.7386127875258306,0,1,1,-2.7386127875258306,0A2.7386127875258306,2.7386127875258306,0,1,1,2.7386127875258306,0" stroke="#4c78a8" stroke-width="2" opacity="0"/><path aria-label="step: 18; loss: 0.144278400308; rev: workspace" role="graphics-symbol" aria-roledescription="point" transform="translate(54,123.98742824186834)" d="M2.7386127875258306,0A2.7386127875258306,2.7386127875258306,0,1,1,-2.7386127875258306,0A2.7386127875258306,2.7386127875258306,0,1,1,2.7386127875258306,0" stroke="#4c78a8" stroke-width="2" opacity="0"/><path aria-label="step: 19; loss: 0.140190335708; rev: workspace" role="graphics-symbol" aria-roledescription="point" transform="translate(57,128.36749745597632)" d="M2.7386127875258306,0A2.7386127875258306,2.7386127875258306,0,1,1,-2.7386127875258306,0A2.7386127875258306,2.7386127875258306,0,1,1,2.7386127875258306,0" stroke="#4c78a8" stroke-width="2" opacity="0"/><path aria-label="step: 20; loss: 0.1358999111; rev: workspace" role="graphics-symbol" aria-roledescription="point" transform="translate(60,132.96438096405132)" d="M2.7386127875258306,0A2.7386127875258306,2.7386127875258306,0,1,1,-2.7386127875258306,0A2.7386127875258306,2.7386127875258306,0,1,1,2.7386127875258306,0" stroke="#4c78a8" stroke-width="2" opacity="0"/><path aria-label="step: 21; loss: 0.131322991743; rev: workspace" role="graphics-symbol" aria-roledescription="point" transform="translate(63,137.86822313204578)" d="M2.7386127875258306,0A2.7386127875258306,2.7386127875258306,0,1,1,-2.7386127875258306,0A2.7386127875258306,2.7386127875258306,0,1,1,2.7386127875258306,0" stroke="#4c78a8" stroke-width="2" opacity="0"/><path aria-label="step: 22; loss: 0.126809095961; rev: workspace" role="graphics-symbol" aria-roledescription="point" transform="translate(66,142.70454004174633)" d="M2.7386127875258306,0A2.7386127875258306,2.7386127875258306,0,1,1,-2.7386127875258306,0A2.7386127875258306,2.7386127875258306,0,1,1,2.7386127875258306,0" stroke="#4c78a8" stroke-width="2" opacity="0"/><path aria-label="step: 23; loss: 0.12252469317; rev: workspace" role="graphics-symbol" aria-roledescription="point" transform="translate(69,147.29497160305186)" d="M2.7386127875258306,0A2.7386127875258306,2.7386127875258306,0,1,1,-2.7386127875258306,0A2.7386127875258306,2.7386127875258306,0,1,1,2.7386127875258306,0" stroke="#4c78a8" stroke-width="2" opacity="0"/><path aria-label="step: 24; loss: 0.118739689484; rev: workspace" role="graphics-symbol" aria-roledescription="point" transform="translate(72,151.3503326954501)" d="M2.7386127875258306,0A2.7386127875258306,2.7386127875258306,0,1,1,-2.7386127875258306,0A2.7386127875258306,2.7386127875258306,0,1,1,2.7386127875258306,0" stroke="#4c78a8" stroke-width="2" opacity="0"/><path aria-label="step: 25; loss: 0.115521413943; rev: workspace" role="graphics-symbol" aria-roledescription="point" transform="translate(75,154.79848506093242)" d="M2.7386127875258306,0A2.7386127875258306,2.7386127875258306,0,1,1,-2.7386127875258306,0A2.7386127875258306,2.7386127875258306,0,1,1,2.7386127875258306,0" stroke="#4c78a8" stroke-width="2" opacity="0"/><path aria-label="step: 26; loss: 0.112754430988; rev: workspace" role="graphics-symbol" aria-roledescription="point" transform="translate(78,157.7631096558725)" d="M2.7386127875258306,0A2.7386127875258306,2.7386127875258306,0,1,1,-2.7386127875258306,0A2.7386127875258306,2.7386127875258306,0,1,1,2.7386127875258306,0" stroke="#4c78a8" stroke-width="2" opacity="0"/><path aria-label="step: 27; loss: 0.110403410561; rev: workspace" role="graphics-symbol" aria-roledescription="point" transform="translate(81,160.28206011340157)" d="M2.7386127875258306,0A2.7386127875258306,2.7386127875258306,0,1,1,-2.7386127875258306,0A2.7386127875258306,2.7386127875258306,0,1,1,2.7386127875258306,0" stroke="#4c78a8" stroke-width="2" opacity="0"/><path aria-label="step: 28; loss: 0.108322483493; rev: workspace" role="graphics-symbol" aria-roledescription="point" transform="translate(84.00000000000001,162.51162482871646)" d="M2.7386127875258306,0A2.7386127875258306,2.7386127875258306,0,1,1,-2.7386127875258306,0A2.7386127875258306,2.7386127875258306,0,1,1,2.7386127875258306,0" stroke="#4c78a8" stroke-width="2" opacity="0"/><path aria-label="step: 29; loss: 0.106247087011; rev: workspace" role="graphics-symbol" aria-roledescription="point" transform="translate(87,164.7352639171428)" d="M2.7386127875258306,0A2.7386127875258306,2.7386127875258306,0,1,1,-2.7386127875258306,0A2.7386127875258306,2.7386127875258306,0,1,1,2.7386127875258306,0" stroke="#4c78a8" stroke-width="2" opacity="0"/><path aria-label="step: 30; loss: 0.104143275091; rev: workspace" role="graphics-symbol" aria-roledescription="point" transform="translate(90,166.9893481170557)" d="M2.7386127875258306,0A2.7386127875258306,2.7386127875258306,0,1,1,-2.7386127875258306,0A2.7386127875258306,2.7386127875258306,0,1,1,2.7386127875258306,0" stroke="#4c78a8" stroke-width="2" opacity="0"/><path aria-label="step: 31; loss: 0.101839158882; rev: workspace" role="graphics-symbol" aria-roledescription="point" transform="translate(93,169.45804405524157)" d="M2.7386127875258306,0A2.7386127875258306,2.7386127875258306,0,1,1,-2.7386127875258306,0A2.7386127875258306,2.7386127875258306,0,1,1,2.7386127875258306,0" stroke="#4c78a8" stroke-width="2" opacity="0"/><path aria-label="step: 32; loss: 0.0992074661019; rev: workspace" role="graphics-symbol" aria-roledescription="point" transform="translate(96,172.27771489078282)" d="M2.7386127875258306,0A2.7386127875258306,2.7386127875258306,0,1,1,-2.7386127875258306,0A2.7386127875258306,2.7386127875258306,0,1,1,2.7386127875258306,0" stroke="#4c78a8" stroke-width="2" opacity="0"/><path aria-label="step: 33; loss: 0.0963078777662; rev: workspace" role="graphics-symbol" aria-roledescription="point" transform="translate(99,175.38441667911832)" d="M2.7386127875258306,0A2.7386127875258306,2.7386127875258306,0,1,1,-2.7386127875258306,0A2.7386127875258306,2.7386127875258306,0,1,1,2.7386127875258306,0" stroke="#4c78a8" stroke-width="2" opacity="0"/><path aria-label="step: 34; loss: 0.0935433005159; rev: workspace" role="graphics-symbol" aria-roledescription="point" transform="translate(102.00000000000001,178.3464637329439)" d="M2.7386127875258306,0A2.7386127875258306,2.7386127875258306,0,1,1,-2.7386127875258306,0A2.7386127875258306,2.7386127875258306,0,1,1,2.7386127875258306,0" stroke="#4c78a8" stroke-width="2" opacity="0"/><path aria-label="step: 35; loss: 0.0912203975324; rev: workspace" role="graphics-symbol" aria-roledescription="point" transform="translate(105,180.8352883581183)" d="M2.7386127875258306,0A2.7386127875258306,2.7386127875258306,0,1,1,-2.7386127875258306,0A2.7386127875258306,2.7386127875258306,0,1,1,2.7386127875258306,0" stroke="#4c78a8" stroke-width="2" opacity="0"/><path aria-label="step: 36; loss: 0.0892883982673; rev: workspace" role="graphics-symbol" aria-roledescription="point" transform="translate(108,182.9052875707113)" d="M2.7386127875258306,0A2.7386127875258306,2.7386127875258306,0,1,1,-2.7386127875258306,0A2.7386127875258306,2.7386127875258306,0,1,1,2.7386127875258306,0" stroke="#4c78a8" stroke-width="2" opacity="0"/><path aria-label="step: 37; loss: 0.0876152855274; rev: workspace" role="graphics-symbol" aria-roledescription="point" transform="translate(111,184.69790836345618)" d="M2.7386127875258306,0A2.7386127875258306,2.7386127875258306,0,1,1,-2.7386127875258306,0A2.7386127875258306,2.7386127875258306,0,1,1,2.7386127875258306,0" stroke="#4c78a8" stroke-width="2" opacity="0"/><path aria-label="step: 38; loss: 0.0859098387111; rev: workspace" role="graphics-symbol" aria-roledescription="point" transform="translate(114,186.52517280954274)" d="M2.7386127875258306,0A2.7386127875258306,2.7386127875258306,0,1,1,-2.7386127875258306,0A2.7386127875258306,2.7386127875258306,0,1,1,2.7386127875258306,0" stroke="#4c78a8" stroke-width="2" opacity="0"/><path aria-label="step: 39; loss: 0.0838644969784; rev: workspace" role="graphics-symbol" aria-roledescription="point" transform="translate(117,188.71661038029853)" d="M2.7386127875258306,0A2.7386127875258306,2.7386127875258306,0,1,1,-2.7386127875258306,0A2.7386127875258306,2.7386127875258306,0,1,1,2.7386127875258306,0" stroke="#4c78a8" stroke-width="2" opacity="0"/><path aria-label="step: 40; loss: 0.0815798730706; rev: workspace" role="graphics-symbol" aria-roledescription="point" transform="translate(120,191.1644217100585)" d="M2.7386127875258306,0A2.7386127875258306,2.7386127875258306,0,1,1,-2.7386127875258306,0A2.7386127875258306,2.7386127875258306,0,1,1,2.7386127875258306,0" stroke="#4c78a8" stroke-width="2" opacity="0"/><path aria-label="step: 41; loss: 0.0794106202469; rev: workspace" role="graphics-symbol" aria-roledescription="point" transform="translate(122.99999999999999,193.48862116400122)" d="M2.7386127875258306,0A2.7386127875258306,2.7386127875258306,0,1,1,-2.7386127875258306,0A2.7386127875258306,2.7386127875258306,0,1,1,2.7386127875258306,0" stroke="#4c78a8" stroke-width="2" opacity="0"/><path aria-label="step: 42; loss: 0.0775658900692; rev: workspace" role="graphics-symbol" aria-roledescription="point" transform="translate(126,195.46511778296102)" d="M2.7386127875258306,0A2.7386127875258306,2.7386127875258306,0,1,1,-2.7386127875258306,0A2.7386127875258306,2.7386127875258306,0,1,1,2.7386127875258306,0" stroke="#4c78a8" stroke-width="2" opacity="0"/><path aria-label="step: 43; loss: 0.0759704374743; rev: workspace" role="graphics-symbol" aria-roledescription="point" transform="translate(129,197.1745312775149)" d="M2.7386127875258306,0A2.7386127875258306,2.7386127875258306,0,1,1,-2.7386127875258306,0A2.7386127875258306,2.7386127875258306,0,1,1,2.7386127875258306,0" stroke="#4c78a8" stroke-width="2" opacity="0"/><path aria-label="step: 44; loss: 0.0742549620286; rev: workspace" role="graphics-symbol" aria-roledescription="point" transform="translate(132,199.01254068365566)" d="M2.7386127875258306,0A2.7386127875258306,2.7386127875258306,0,1,1,-2.7386127875258306,0A2.7386127875258306,2.7386127875258306,0,1,1,2.7386127875258306,0" stroke="#4c78a8" stroke-width="2" opacity="0"/><path aria-label="step: 45; loss: 0.0721079977482; rev: workspace" role="graphics-symbol" aria-roledescription="point" transform="translate(135,201.31285955551766)" d="M2.7386127875258306,0A2.7386127875258306,2.7386127875258306,0,1,1,-2.7386127875258306,0A2.7386127875258306,2.7386127875258306,0,1,1,2.7386127875258306,0" stroke="#4c78a8" stroke-width="2" opacity="0"/><path aria-label="step: 46; loss: 0.0694279336853; rev: workspace" role="graphics-symbol" aria-roledescription="point" transform="translate(138,204.18435676577283)" d="M2.7386127875258306,0A2.7386127875258306,2.7386127875258306,0,1,1,-2.7386127875258306,0A2.7386127875258306,2.7386127875258306,0,1,1,2.7386127875258306,0" stroke="#4c78a8" stroke-width="2" opacity="0"/><path aria-label="step: 47; loss: 0.0661619319463; rev: workspace" role="graphics-symbol" aria-roledescription="point" transform="translate(141,207.68364434329402)" d="M2.7386127875258306,0A2.7386127875258306,2.7386127875258306,0,1,1,-2.7386127875258306,0A2.7386127875258306,2.7386127875258306,0,1,1,2.7386127875258306,0" stroke="#4c78a8" stroke-width="2" opacity="0"/><path aria-label="step: 48; loss: 0.0625731310976; rev: workspace" role="graphics-symbol" aria-roledescription="point" transform="translate(144,211.5287881097637)" d="M2.7386127875258306,0A2.7386127875258306,2.7386127875258306,0,1,1,-2.7386127875258306,0A2.7386127875258306,2.7386127875258306,0,1,1,2.7386127875258306,0" stroke="#4c78a8" stroke-width="2" opacity="0"/><path aria-label="step: 49; loss: 0.0591451838899; rev: workspace" role="graphics-symbol" aria-roledescription="point" transform="translate(147,215.2015886893652)" d="M2.7386127875258306,0A2.7386127875258306,2.7386127875258306,0,1,1,-2.7386127875258306,0A2.7386127875258306,2.7386127875258306,0,1,1,2.7386127875258306,0" stroke="#4c78a8" stroke-width="2" opacity="0"/><path aria-label="step: 50; loss: 0.0561404351493; rev: workspace" role="graphics-symbol" aria-roledescription="point" transform="translate(150,218.42096234008892)" d="M2.7386127875258306,0A2.7386127875258306,2.7386127875258306,0,1,1,-2.7386127875258306,0A2.7386127875258306,2.7386127875258306,0,1,1,2.7386127875258306,0" stroke="#4c78a8" stroke-width="2" opacity="0"/><path aria-label="step: 51; loss: 0.05366466654; rev: workspace" role="graphics-symbol" aria-roledescription="point" transform="translate(153,221.07357156425675)" d="M2.7386127875258306,0A2.7386127875258306,2.7386127875258306,0,1,1,-2.7386127875258306,0A2.7386127875258306,2.7386127875258306,0,1,1,2.7386127875258306,0" stroke="#4c78a8" stroke-width="2" opacity="0"/><path aria-label="step: 52; loss: 0.0517297385165; rev: workspace" role="graphics-symbol" aria-roledescription="point" transform="translate(156,223.1467087322871)" d="M2.7386127875258306,0A2.7386127875258306,2.7386127875258306,0,1,1,-2.7386127875258306,0A2.7386127875258306,2.7386127875258306,0,1,1,2.7386127875258306,0" stroke="#4c78a8" stroke-width="2" opacity="0"/><path aria-label="step: 53; loss: 0.0502026901291; rev: workspace" role="graphics-symbol" aria-roledescription="point" transform="translate(159,224.78283200448934)" d="M2.7386127875258306,0A2.7386127875258306,2.7386127875258306,0,1,1,-2.7386127875258306,0A2.7386127875258306,2.7386127875258306,0,1,1,2.7386127875258306,0" stroke="#4c78a8" stroke-width="2" opacity="0"/><path aria-label="step: 54; loss: 0.0490453911055; rev: workspace" role="graphics-symbol" aria-roledescription="point" transform="translate(162,226.02279524413305)" d="M2.7386127875258306,0A2.7386127875258306,2.7386127875258306,0,1,1,-2.7386127875258306,0A2.7386127875258306,2.7386127875258306,0,1,1,2.7386127875258306,0" stroke="#4c78a8" stroke-width="2" opacity="0"/><path aria-label="step: 55; loss: 0.0482107045785; rev: workspace" role="graphics-symbol" aria-roledescription="point" transform="translate(165,226.91710223728603)" d="M2.7386127875258306,0A2.7386127875258306,2.7386127875258306,0,1,1,-2.7386127875258306,0A2.7386127875258306,2.7386127875258306,0,1,1,2.7386127875258306,0" stroke="#4c78a8" stroke-width="2" opacity="0"/><path aria-label="step: 56; loss: 0.0476056544848; rev: workspace" role="graphics-symbol" aria-roledescription="point" transform="translate(168.00000000000003,227.56537019480896)" d="M2.7386127875258306,0A2.7386127875258306,2.7386127875258306,0,1,1,-2.7386127875258306,0A2.7386127875258306,2.7386127875258306,0,1,1,2.7386127875258306,0" stroke="#4c78a8" stroke-width="2" opacity="0"/><path aria-label="step: 57; loss: 0.0469068945519; rev: workspace" role="graphics-symbol" aria-roledescription="point" transform="translate(170.99999999999997,228.31404155149087)" d="M2.7386127875258306,0A2.7386127875258306,2.7386127875258306,0,1,1,-2.7386127875258306,0A2.7386127875258306,2.7386127875258306,0,1,1,2.7386127875258306,0" stroke="#4c78a8" stroke-width="2" opacity="0"/><path aria-label="step: 58; loss: 0.0459106017011; rev: workspace" role="graphics-symbol" aria-roledescription="point" transform="translate(174,229.38149817744375)" d="M2.7386127875258306,0A2.7386127875258306,2.7386127875258306,0,1,1,-2.7386127875258306,0A2.7386127875258306,2.7386127875258306,0,1,1,2.7386127875258306,0" stroke="#4c78a8" stroke-width="2" opacity="0"/><path aria-label="step: 59; loss: 0.0447677698096; rev: workspace" role="graphics-symbol" aria-roledescription="point" transform="translate(177,230.60596091829234)" d="M2.7386127875258306,0A2.7386127875258306,2.7386127875258306,0,1,1,-2.7386127875258306,0A2.7386127875258306,2.7386127875258306,0,1,1,2.7386127875258306,0" stroke="#4c78a8" stroke-width="2" opacity="0"/><path aria-label="step: 60; loss: 0.0436183610325; rev: workspace" role="graphics-symbol" aria-roledescription="point" transform="translate(180,231.83747032228118)" d="M2.7386127875258306,0A2.7386127875258306,2.7386127875258306,0,1,1,-2.7386127875258306,0A2.7386127875258306,2.7386127875258306,0,1,1,2.7386127875258306,0" stroke="#4c78a8" stroke-width="2" opacity="0"/><path aria-label="step: 61; loss: 0.0424688666686; rev: workspace" role="graphics-symbol" aria-roledescription="point" transform="translate(183,233.0690714265176)" d="M2.7386127875258306,0A2.7386127875258306,2.7386127875258306,0,1,1,-2.7386127875258306,0A2.7386127875258306,2.7386127875258306,0,1,1,2.7386127875258306,0" stroke="#4c78a8" stroke-width="2" opacity="0"/><path aria-label="step: 62; loss: 0.0413249498889; rev: workspace" role="graphics-symbol" aria-roledescription="point" transform="translate(186,234.2946965475669)" d="M2.7386127875258306,0A2.7386127875258306,2.7386127875258306,0,1,1,-2.7386127875258306,0A2.7386127875258306,2.7386127875258306,0,1,1,2.7386127875258306,0" stroke="#4c78a8" stroke-width="2" opacity="0"/><path aria-label="step: 63; loss: 0.0399880847051; rev: workspace" role="graphics-symbol" aria-roledescription="point" transform="translate(189,235.7270521016538)" d="M2.7386127875258306,0A2.7386127875258306,2.7386127875258306,0,1,1,-2.7386127875258306,0A2.7386127875258306,2.7386127875258306,0,1,1,2.7386127875258306,0" stroke="#4c78a8" stroke-width="2" opacity="0"/><path aria-label="step: 64; loss: 0.0383653776499; rev: workspace" role="graphics-symbol" aria-roledescription="point" transform="translate(192,237.46566680371507)" d="M2.7386127875258306,0A2.7386127875258306,2.7386127875258306,0,1,1,-2.7386127875258306,0A2.7386127875258306,2.7386127875258306,0,1,1,2.7386127875258306,0" stroke="#4c78a8" stroke-width="2" opacity="0"/><path aria-label="step: 65; loss: 0.036377285913; rev: workspace" role="graphics-symbol" aria-roledescription="point" transform="translate(195,239.5957650932511)" d="M2.7386127875258306,0A2.7386127875258306,2.7386127875258306,0,1,1,-2.7386127875258306,0A2.7386127875258306,2.7386127875258306,0,1,1,2.7386127875258306,0" stroke="#4c78a8" stroke-width="2" opacity="0"/><path aria-label="step: 66; loss: 0.0341521696452; rev: workspace" role="graphics-symbol" aria-roledescription="point" transform="translate(198,241.97981823726093)" d="M2.7386127875258306,0A2.7386127875258306,2.7386127875258306,0,1,1,-2.7386127875258306,0A2.7386127875258306,2.7386127875258306,0,1,1,2.7386127875258306,0" stroke="#4c78a8" stroke-width="2" opacity="0"/><path aria-label="step: 67; loss: 0.0319986764282; rev: workspace" role="graphics-symbol" aria-roledescription="point" transform="translate(201,244.28713239832086)" d="M2.7386127875258306,0A2.7386127875258306,2.7386127875258306,0,1,1,-2.7386127875258306,0A2.7386127875258306,2.7386127875258306,0,1,1,2.7386127875258306,0" stroke="#4c78a8" stroke-width="2" opacity="0"/><path aria-label="step: 68; loss: 0.0301297176033; rev: workspace" role="graphics-symbol" aria-roledescription="point" transform="translate(204.00000000000003,246.28958828218498)" d="M2.7386127875258306,0A2.7386127875258306,2.7386127875258306,0,1,1,-2.7386127875258306,0A2.7386127875258306,2.7386127875258306,0,1,1,2.7386127875258306,0" stroke="#4c78a8" stroke-width="2" opacity="0"/><path aria-label="step: 69; loss: 0.0285586093337; rev: workspace" role="graphics-symbol" aria-roledescription="point" transform="translate(206.99999999999997,247.97291857107635)" d="M2.7386127875258306,0A2.7386127875258306,2.7386127875258306,0,1,1,-2.7386127875258306,0A2.7386127875258306,2.7386127875258306,0,1,1,2.7386127875258306,0" stroke="#4c78a8" stroke-width="2" opacity="0"/><path aria-label="step: 70; loss: 0.0273199944973; rev: workspace" role="graphics-symbol" aria-roledescription="point" transform="translate(210,249.3000058957533)" d="M2.7386127875258306,0A2.7386127875258306,2.7386127875258306,0,1,1,-2.7386127875258306,0A2.7386127875258306,2.7386127875258306,0,1,1,2.7386127875258306,0" stroke="#4c78a8" stroke-width="2" opacity="0"/><path aria-label="step: 71; loss: 0.0262172798789; rev: workspace" role="graphics-symbol" aria-roledescription="point" transform="translate(213,250.48148584401724)" d="M2.7386127875258306,0A2.7386127875258306,2.7386127875258306,0,1,1,-2.7386127875258306,0A2.7386127875258306,2.7386127875258306,0,1,1,2.7386127875258306,0" stroke="#4c78a8" stroke-width="2" opacity="0"/><path aria-label="step: 72; loss: 0.0249833285429; rev: workspace" role="graphics-symbol" aria-roledescription="point" transform="translate(216,251.80357656115552)" d="M2.7386127875258306,0A2.7386127875258306,2.7386127875258306,0,1,1,-2.7386127875258306,0A2.7386127875258306,2.7386127875258306,0,1,1,2.7386127875258306,0" stroke="#4c78a8" stroke-width="2" opacity="0"/><path aria-label="step: 73; loss: 0.0235105030772; rev: workspace" role="graphics-symbol" aria-roledescription="point" transform="translate(219,253.3816038458844)" d="M2.7386127875258306,0A2.7386127875258306,2.7386127875258306,0,1,1,-2.7386127875258306,0A2.7386127875258306,2.7386127875258306,0,1,1,2.7386127875258306,0" stroke="#4c78a8" stroke-width="2" opacity="0"/><path aria-label="step: 74; loss: 0.0219829166566; rev: workspace" role="graphics-symbol" aria-roledescription="point" transform="translate(222,255.01830358224166)" d="M2.7386127875258306,0A2.7386127875258306,2.7386127875258306,0,1,1,-2.7386127875258306,0A2.7386127875258306,2.7386127875258306,0,1,1,2.7386127875258306,0" stroke="#4c78a8" stroke-width="2" opacity="0"/><path aria-label="step: 75; loss: 0.0206522686558; rev: workspace" role="graphics-symbol" aria-roledescription="point" transform="translate(225,256.44399786874874)" d="M2.7386127875258306,0A2.7386127875258306,2.7386127875258306,0,1,1,-2.7386127875258306,0A2.7386127875258306,2.7386127875258306,0,1,1,2.7386127875258306,0" stroke="#4c78a8" stroke-width="2" opacity="0"/><path aria-label="step: 76; loss: 0.0195098154134; rev: workspace" role="graphics-symbol" aria-roledescription="point" transform="translate(228,257.66805491421104)" d="M2.7386127875258306,0A2.7386127875258306,2.7386127875258306,0,1,1,-2.7386127875258306,0A2.7386127875258306,2.7386127875258306,0,1,1,2.7386127875258306,0" stroke="#4c78a8" stroke-width="2" opacity="0"/><path aria-label="step: 77; loss: 0.0183962984792; rev: workspace" role="graphics-symbol" aria-roledescription="point" transform="translate(231,258.8611087722402)" d="M2.7386127875258306,0A2.7386127875258306,2.7386127875258306,0,1,1,-2.7386127875258306,0A2.7386127875258306,2.7386127875258306,0,1,1,2.7386127875258306,0" stroke="#4c78a8" stroke-width="2" opacity="0"/><path aria-label="step: 78; loss: 0.0171612000986; rev: workspace" role="graphics-symbol" aria-roledescription="point" transform="translate(234,260.1844284657919)" d="M2.7386127875258306,0A2.7386127875258306,2.7386127875258306,0,1,1,-2.7386127875258306,0A2.7386127875258306,2.7386127875258306,0,1,1,2.7386127875258306,0" stroke="#4c78a8" stroke-width="2" opacity="0"/><path aria-label="step: 79; loss: 0.015721508708; rev: workspace" role="graphics-symbol" aria-roledescription="point" transform="translate(237,261.7269549557359)" d="M2.7386127875258306,0A2.7386127875258306,2.7386127875258306,0,1,1,-2.7386127875258306,0A2.7386127875258306,2.7386127875258306,0,1,1,2.7386127875258306,0" stroke="#4c78a8" stroke-width="2" opacity="0"/><path aria-label="step: 80; loss: 0.0141663342553; rev: workspace" role="graphics-symbol" aria-roledescription="point" transform="translate(240,263.39321329792034)" d="M2.7386127875258306,0A2.7386127875258306,2.7386127875258306,0,1,1,-2.7386127875258306,0A2.7386127875258306,2.7386127875258306,0,1,1,2.7386127875258306,0" stroke="#4c78a8" stroke-width="2" opacity="0"/><path aria-label="step: 81; loss: 0.012541148392; rev: workspace" role="graphics-symbol" aria-roledescription="point" transform="translate(243.00000000000003,265.1344838656981)" d="M2.7386127875258306,0A2.7386127875258306,2.7386127875258306,0,1,1,-2.7386127875258306,0A2.7386127875258306,2.7386127875258306,0,1,1,2.7386127875258306,0" stroke="#4c78a8" stroke-width="2" opacity="0"/><path aria-label="step: 82; loss: 0.0108981449773; rev: workspace" role="graphics-symbol" aria-roledescription="point" transform="translate(245.99999999999997,266.8948446671828)" d="M2.7386127875258306,0A2.7386127875258306,2.7386127875258306,0,1,1,-2.7386127875258306,0A2.7386127875258306,2.7386127875258306,0,1,1,2.7386127875258306,0" stroke="#4c78a8" stroke-width="2" opacity="0"/><path aria-label="step: 83; loss: 0.00927010311402; rev: workspace" role="graphics-symbol" aria-roledescription="point" transform="translate(249,268.63917523498003)" d="M2.7386127875258306,0A2.7386127875258306,2.7386127875258306,0,1,1,-2.7386127875258306,0A2.7386127875258306,2.7386127875258306,0,1,1,2.7386127875258306,0" stroke="#4c78a8" stroke-width="2" opacity="0"/><path aria-label="step: 84; loss: 0.00760004804569; rev: workspace" role="graphics-symbol" aria-roledescription="point" transform="translate(252,270.42851995104763)" d="M2.7386127875258306,0A2.7386127875258306,2.7386127875258306,0,1,1,-2.7386127875258306,0A2.7386127875258306,2.7386127875258306,0,1,1,2.7386127875258306,0" stroke="#4c78a8" stroke-width="2" opacity="0"/><path aria-label="step: 85; loss: 0.00574776875983; rev: workspace" role="graphics-symbol" aria-roledescription="point" transform="translate(255,272.4131049001785)" d="M2.7386127875258306,0A2.7386127875258306,2.7386127875258306,0,1,1,-2.7386127875258306,0A2.7386127875258306,2.7386127875258306,0,1,1,2.7386127875258306,0" stroke="#4c78a8" stroke-width="2" opacity="0"/><path aria-label="step: 86; loss: 0.00376580309527; rev: workspace" role="graphics-symbol" aria-roledescription="point" transform="translate(258,274.5366395407849)" d="M2.7386127875258306,0A2.7386127875258306,2.7386127875258306,0,1,1,-2.7386127875258306,0A2.7386127875258306,2.7386127875258306,0,1,1,2.7386127875258306,0" stroke="#4c78a8" stroke-width="2" opacity="0"/><path aria-label="step: 87; loss: 0.00181407298413; rev: workspace" role="graphics-symbol" aria-roledescription="point" transform="translate(261,276.62777894557195)" d="M2.7386127875258306,0A2.7386127875258306,2.7386127875258306,0,1,1,-2.7386127875258306,0A2.7386127875258306,2.7386127875258306,0,1,1,2.7386127875258306,0" stroke="#4c78a8" stroke-width="2" opacity="0"/><path aria-label="step: 88; loss: 0.000019405817481; rev: workspace" role="graphics-symbol" aria-roledescription="point" transform="translate(264,278.5506366241275)" d="M2.7386127875258306,0A2.7386127875258306,2.7386127875258306,0,1,1,-2.7386127875258306,0A2.7386127875258306,2.7386127875258306,0,1,1,2.7386127875258306,0" stroke="#4c78a8" stroke-width="2" opacity="0"/><path aria-label="step: 89; loss: −0.00159673760301; rev: workspace" role="graphics-symbol" aria-roledescription="point" transform="translate(267,280.2822188603673)" d="M2.7386127875258306,0A2.7386127875258306,2.7386127875258306,0,1,1,-2.7386127875258306,0A2.7386127875258306,2.7386127875258306,0,1,1,2.7386127875258306,0" stroke="#4c78a8" stroke-width="2" opacity="0"/><path aria-label="step: 90; loss: −0.00296642790364; rev: workspace" role="graphics-symbol" aria-roledescription="point" transform="translate(270,281.7497441824704)" d="M2.7386127875258306,0A2.7386127875258306,2.7386127875258306,0,1,1,-2.7386127875258306,0A2.7386127875258306,2.7386127875258306,0,1,1,2.7386127875258306,0" stroke="#4c78a8" stroke-width="2" opacity="0"/><path aria-label="step: 91; loss: −0.00439625283178; rev: workspace" role="graphics-symbol" aria-roledescription="point" transform="translate(273,283.2816994626238)" d="M2.7386127875258306,0A2.7386127875258306,2.7386127875258306,0,1,1,-2.7386127875258306,0A2.7386127875258306,2.7386127875258306,0,1,1,2.7386127875258306,0" stroke="#4c78a8" stroke-width="2" opacity="0"/><path aria-label="step: 92; loss: −0.00583902792767; rev: workspace" role="graphics-symbol" aria-roledescription="point" transform="translate(276,284.8275299225066)" d="M2.7386127875258306,0A2.7386127875258306,2.7386127875258306,0,1,1,-2.7386127875258306,0A2.7386127875258306,2.7386127875258306,0,1,1,2.7386127875258306,0" stroke="#4c78a8" stroke-width="2" opacity="0"/><path aria-label="step: 93; loss: −0.007267501291; rev: workspace" role="graphics-symbol" aria-roledescription="point" transform="translate(279,286.3580370975002)" d="M2.7386127875258306,0A2.7386127875258306,2.7386127875258306,0,1,1,-2.7386127875258306,0A2.7386127875258306,2.7386127875258306,0,1,1,2.7386127875258306,0" stroke="#4c78a8" stroke-width="2" opacity="0"/><path aria-label="step: 94; loss: −0.00866157675041; rev: workspace" role="graphics-symbol" aria-roledescription="point" transform="translate(282,287.8516893754422)" d="M2.7386127875258306,0A2.7386127875258306,2.7386127875258306,0,1,1,-2.7386127875258306,0A2.7386127875258306,2.7386127875258306,0,1,1,2.7386127875258306,0" stroke="#4c78a8" stroke-width="2" opacity="0"/><path aria-label="step: 95; loss: −0.0100186368797; rev: workspace" role="graphics-symbol" aria-roledescription="point" transform="translate(285,289.3056823711495)" d="M2.7386127875258306,0A2.7386127875258306,2.7386127875258306,0,1,1,-2.7386127875258306,0A2.7386127875258306,2.7386127875258306,0,1,1,2.7386127875258306,0" stroke="#4c78a8" stroke-width="2" opacity="0"/><path aria-label="step: 96; loss: −0.0113470075806; rev: workspace" role="graphics-symbol" aria-roledescription="point" transform="translate(288,290.7289366935501)" d="M2.7386127875258306,0A2.7386127875258306,2.7386127875258306,0,1,1,-2.7386127875258306,0A2.7386127875258306,2.7386127875258306,0,1,1,2.7386127875258306,0" stroke="#4c78a8" stroke-width="2" opacity="0"/><path aria-label="step: 97; loss: −0.0126558371388; rev: workspace" role="graphics-symbol" aria-roledescription="point" transform="translate(291,292.13125407723754)" d="M2.7386127875258306,0A2.7386127875258306,2.7386127875258306,0,1,1,-2.7386127875258306,0A2.7386127875258306,2.7386127875258306,0,1,1,2.7386127875258306,0" stroke="#4c78a8" stroke-width="2" opacity="0"/><path aria-label="step: 98; loss: −0.0139521815039; rev: workspace" role="graphics-symbol" aria-roledescription="point" transform="translate(294,293.52019446848544)" d="M2.7386127875258306,0A2.7386127875258306,2.7386127875258306,0,1,1,-2.7386127875258306,0A2.7386127875258306,2.7386127875258306,0,1,1,2.7386127875258306,0" stroke="#4c78a8" stroke-width="2" opacity="0"/></g><g class="mark-path role-mark layer_0_layer_1_voronoi" role="graphics-symbol" aria-roledescription="path mark container"><path transform="translate(0,0)" d="M0,300L0,0L1.5000002074463834,0L1.5005852651594718,300Z" stroke-width="0.35"/><path transform="translate(0,0)" d="M4.499999796705546,0L4.499426448610979,300L1.5005852651594718,300L1.5000002074463834,0Z" stroke-width="0.35"/><path transform="translate(0,0)" d="M4.499426448610979,300L4.499999796705546,0L7.500000195073259,0L7.500550357061681,300Z" stroke-width="0.35"/><path transform="translate(0,0)" d="M10.499999817051812,0L10.499483851211249,300L7.500550357061681,300L7.500000195073259,0Z" stroke-width="0.35"/><path transform="translate(0,0)" d="M10.499483851211249,300L10.499999817051812,0L13.50000016716074,0L13.500471607922645,300Z" stroke-width="0.35"/><path transform="translate(0,0)" d="M16.49999985197167,0L16.499582370039757,300L13.500471607922645,300L13.50000016716074,0Z" stroke-width="0.35"/><path transform="translate(0,0)" d="M16.499582370039757,300L16.49999985197167,0L19.500000125932342,0L19.500355290894476,300Z" stroke-width="0.35"/><path transform="translate(0,0)" d="M22.499999898683427,0L22.49971415716489,300L19.500355290894476,300L19.500000125932342,0Z" stroke-width="0.35"/><path transform="translate(0,0)" d="M22.49971415716489,300L22.499999898683427,0L25.500000074672286,0L25.50021067172593,300Z" stroke-width="0.35"/><path transform="translate(0,0)" d="M28.49999995346604,0L28.499868714479927,300L25.50021067172593,300L25.500000074672286,0Z" stroke-width="0.35"/><path transform="translate(0,0)" d="M31.500000017463915,0L31.50004927065791,300L28.499868714479927,300L28.49999995346604,0Z" stroke-width="0.35"/><path transform="translate(0,0)" d="M34.50000001195554,0L34.50003372998242,300L31.50004927065791,300L31.500000017463915,0Z" stroke-width="0.35"/><path transform="translate(0,0)" d="M37.49999995886438,0L37.49988394473985,300L34.50003372998242,300L34.50000001195554,0Z" stroke-width="0.35"/><path transform="translate(0,0)" d="M40.50000006949267,0L40.500196058558544,300L37.49988394473985,300L37.49999995886438,0Z" stroke-width="0.35"/><path transform="translate(0,0)" d="M43.49999990354167,0L43.49972786366555,300L40.500196058558544,300L40.50000006949267,0Z" stroke-width="0.35"/><path transform="translate(0,0)" d="M46.50000012149402,0L46.50034276913824,300L43.49972786366555,300L43.49999990354167,0Z" stroke-width="0.35"/><path transform="translate(0,0)" d="M49.49999985590274,0L49.499593460705974,300L46.50034276913825,300L46.500000121494026,0Z" stroke-width="0.35"/><path transform="translate(0,0)" d="M52.500000163817184,0L52.50046217479837,300L49.499593460705974,300L49.49999985590274,0Z" stroke-width="0.35"/><path transform="translate(0,0)" d="M55.49999981974246,0L55.49949144230017,300L52.50046217479837,300L52.500000163817184,0Z" stroke-width="0.35"/><path transform="translate(0,0)" d="M58.50000019309071,0L58.50054476374953,300L55.49949144230017,300L55.49999981974246,0Z" stroke-width="0.35"/><path transform="translate(0,0)" d="M61.49999979794136,0L61.499429935193824,300L58.50054476374954,300L58.50000019309072,0Z" stroke-width="0.35"/><path transform="translate(0,0)" d="M64.50000020698272,0L64.50058395704069,300L61.49942993519382,300L61.499999797941356,0Z" stroke-width="0.35"/><path transform="translate(0,0)" d="M67.49999979223611,0L67.49941383906175,300L64.50058395704069,300L64.50000020698272,0Z" stroke-width="0.35"/><path transform="translate(0,0)" d="M67.49941383906175,300L67.49999979223611,0L70.5000002043866,0L70.50057663262295,300Z" stroke-width="0.35"/><path transform="translate(0,0)" d="M73.49999980308122,0L73.49944443618577,300L70.50057663262294,300L70.50000020438658,0Z" stroke-width="0.35"/><path transform="translate(0,0)" d="M73.49944443618575,300L73.49999980308121,0L76.50000018550915,0L76.50052337402951,300Z" stroke-width="0.35"/><path transform="translate(0,0)" d="M79.49999982961278,0L79.49951928928597,300L76.50052337402953,300L76.50000018550917,0Z" stroke-width="0.35"/><path transform="translate(0,0)" d="M79.49951928928598,300L79.49999982961279,0L82.50000015185422,0L82.50042842386854,300Z" stroke-width="0.35"/><path transform="translate(0,0)" d="M85.49999986971736,0L85.49963243565145,300L82.50042842386854,300L82.50000015185422,0Z" stroke-width="0.35"/><path transform="translate(0,0)" d="M85.49963243565145,300L85.49999986971736,0L88.5000001061027,0L88.50029934584094,300Z" stroke-width="0.35"/><path transform="translate(0,0)" d="M91.49999992020021,0L91.49977486211249,300L88.50029934584094,300L88.5000001061027,0Z" stroke-width="0.35"/><path transform="translate(0,0)" d="M91.49977486211249,300L91.49999992020021,0L94.50000005189914,0L94.50014642221237,300Z" stroke-width="0.35"/><path transform="translate(0,0)" d="M97.49999997703989,0L97.49993522302314,300L94.50014642221237,300L94.50000005189914,0Z" stroke-width="0.35"/><path transform="translate(0,0)" d="M100.49999999356136,0L100.49998183473879,300L97.49993522302314,300L97.49999997703989,0Z" stroke-width="0.35"/><path transform="translate(0,0)" d="M103.5000000357086,0L103.50010074405992,300L100.49998183473879,300L100.49999999356136,0Z" stroke-width="0.35"/><path transform="translate(0,0)" d="M106.49999993573647,0L106.49981869429125,300L103.50010074405992,300L103.5000000357086,0Z" stroke-width="0.35"/><path transform="translate(0,0)" d="M109.50000009153273,0L109.50025823983749,300L106.49981869429125,300L106.49999993573647,0Z" stroke-width="0.35"/><path transform="translate(0,0)" d="M112.49999988303072,0L112.49966999647408,300L109.5002582398375,300L109.50000009153274,0Z" stroke-width="0.35"/><path transform="translate(0,0)" d="M115.5000001400654,0L115.5003951642722,300L112.49966999647408,300L112.49999988303072,0Z" stroke-width="0.35"/><path transform="translate(0,0)" d="M118.49999983964267,0L118.49954758642451,300L115.5003951642722,300L115.5000001400654,0Z" stroke-width="0.35"/><path transform="translate(0,0)" d="M121.50000017744048,0L121.50050061001468,300L118.49954758642451,300L118.49999983964267,0Z" stroke-width="0.35"/><path transform="translate(0,0)" d="M124.49999980902854,0L124.49946121524998,300L121.50050061001468,300L121.50000017744048,0Z" stroke-width="0.35"/><path transform="translate(0,0)" d="M127.50000020068073,0L127.50056617733165,300L124.49946121524997,300L124.49999980902852,0Z" stroke-width="0.35"/><path transform="translate(0,0)" d="M130.499999793627,0L130.4994177632627,300L127.50056617733165,300L127.50000020068073,0Z" stroke-width="0.35"/><path transform="translate(0,0)" d="M133.50000020793482,0L133.50058664321938,300L130.49941776326273,300L130.49999979362704,0Z" stroke-width="0.35"/><path transform="translate(0,0)" d="M136.49999979466506,0L136.4994206918874,300L133.50058664321938,300L133.50000020793482,0Z" stroke-width="0.35"/><path transform="translate(0,0)" d="M139.50000019862497,0L139.50056037744932,300L136.4994206918874,300L136.49999979466506,0Z" stroke-width="0.35"/><path transform="translate(0,0)" d="M142.49999981206,0L142.49946976790605,300L139.50056037744932,300L139.50000019862497,0Z" stroke-width="0.35"/><path transform="translate(0,0)" d="M145.50000017349277,0L145.50048947240842,300L142.49946976790605,300L142.49999981206,0Z" stroke-width="0.35"/><path transform="translate(0,0)" d="M148.49999984442616,0L148.49956108201255,300L145.50048947240845,300L145.5000001734928,0Z" stroke-width="0.35"/><path transform="translate(0,0)" d="M148.49956108201255,300L148.49999984442616,0L151.5000001345403,0L151.50037957639884,300Z" stroke-width="0.35"/><path transform="translate(0,0)" d="M151.50037957639884,300L151.5000001345403,0L154.4999998891853,0L154.4996873602068,300Z" stroke-width="0.35"/><path transform="translate(0,0)" d="M154.4996873602068,300L154.4999998891853,0L157.5000000848705,0L157.50023944368263,300Z" stroke-width="0.35"/><path transform="translate(0,0)" d="M157.5002394436826,300L157.50000008487046,0L160.4999999427719,0L160.49983854322804,300Z" stroke-width="0.35"/><path transform="translate(0,0)" d="M160.49983854322804,300L160.4999999427719,0L163.5000000284399,0L163.50008023711928,300Z" stroke-width="0.35"/><path transform="translate(0,0)" d="M163.5000802371193,300L163.50000002843993,0L166.50000000091728,0L166.50000258787378,300Z" stroke-width="0.35"/><path transform="translate(0,0)" d="M169.4999999697439,0L169.4999146389492,300L166.50000258787378,300L166.50000000091728,0Z" stroke-width="0.35"/><path transform="translate(0,0)" d="M169.4999146389492,300L169.4999999697439,0L172.50000005898954,0L172.50016642636976,300Z" stroke-width="0.35"/><path transform="translate(0,0)" d="M175.49999991345805,0L175.4997558405531,300L172.50016642636976,300L172.50000005898954,0Z" stroke-width="0.35"/><path transform="translate(0,0)" d="M175.4997558405531,300L175.49999991345805,0L178.5000001123628,0L178.50031700736403,300Z" stroke-width="0.35"/><path transform="translate(0,0)" d="M181.499999864066,0L181.49961649165755,300L178.50031700736403,300L178.5000001123628,0Z" stroke-width="0.35"/><path transform="translate(0,0)" d="M181.49961649165758,300L181.49999986406604,0L184.5000001567852,0L184.50044233561204,300Z" stroke-width="0.35"/><path transform="translate(0,0)" d="M187.49999982550239,0L187.4995076926847,300L184.50044233561204,300L184.5000001567852,0Z" stroke-width="0.35"/><path transform="translate(0,0)" d="M187.4995076926847,300L187.49999982550239,0L190.50000018871816,0L190.50053242752662,300Z" stroke-width="0.35"/><path transform="translate(0,0)" d="M193.49999980083908,0L193.49943811050852,300L190.50053242752662,300L190.50000018871816,0Z" stroke-width="0.35"/><path transform="translate(0,0)" d="M193.49943811050852,300L193.49999980083908,0L196.5000002056179,0L196.50058010646796,300Z" stroke-width="0.35"/><path transform="translate(0,0)" d="M196.50058010646796,300L196.5000002056179,0L199.4999997920408,0L199.49941328805355,300Z" stroke-width="0.35"/><path transform="translate(0,0)" d="M199.49941328805355,300L199.4999997920408,0L202.50000020613822,0L202.50058157442106,300Z" stroke-width="0.35"/><path transform="translate(0,0)" d="M202.50058157442106,300L202.50000020613822,0L205.49999979980842,0L205.49943520273348,300Z" stroke-width="0.35"/><path transform="translate(0,0)" d="M205.49943520273348,300L205.49999979980842,0L208.50000019023767,0L208.50053671452417,300Z" stroke-width="0.35"/><path transform="translate(0,0)" d="M208.50053671452417,300L208.50000019023767,0L211.4999998235232,0L211.49950210890944,300Z" stroke-width="0.35"/><path transform="translate(0,0)" d="M211.49950210890947,300L211.49999982352324,0L214.50000015918297,0L214.50044910035467,300Z" stroke-width="0.35"/><path transform="translate(0,0)" d="M214.50044910035467,300L214.50000015918297,0L217.49999986129612,0L217.49960867692408,300Z" stroke-width="0.35"/><path transform="translate(0,0)" d="M217.49960867692408,300L217.49999986129612,0L220.50000011544788,0L220.50032571123978,300Z" stroke-width="0.35"/><path transform="translate(0,0)" d="M220.50032571123978,300L220.50000011544788,0L223.4999999101181,0L223.49974641764317,300Z" stroke-width="0.35"/><path transform="translate(0,0)" d="M223.49974641764314,300L223.49999991011808,0L226.5000000625163,0L226.5001763762775,300Z" stroke-width="0.35"/><path transform="translate(0,0)" d="M226.5001763762775,300L226.5000000625163,0L229.49999996610006,0L229.49990435869145,300Z" stroke-width="0.35"/><path transform="translate(0,0)" d="M229.49990435869145,300L229.49999996610006,0L232.50000000460477,0L232.50001299135857,300Z" stroke-width="0.35"/><path transform="translate(0,0)" d="M232.50001299135857,300L232.50000000460477,0L235.5000000247825,0L235.50006991851447,300Z" stroke-width="0.35"/><path transform="translate(0,0)" d="M235.50006991851447,300L235.5000000247825,0L238.4999999463264,0L238.4998485715614,300Z" stroke-width="0.35"/><path transform="translate(0,0)" d="M238.4998485715614,300L238.4999999463264,0L241.5000000814908,0L241.50022990863715,300Z" stroke-width="0.35"/><path transform="translate(0,0)" d="M244.49999989232364,0L244.49969621440027,300L241.50022990863715,300L241.5000000814908,0Z" stroke-width="0.35"/><path transform="translate(0,0)" d="M244.49969621440027,300L244.49999989232364,0L247.5000001317075,0L247.50037158427335,300Z" stroke-width="0.35"/><path transform="translate(0,0)" d="M250.49999984689828,0L250.49956805650766,300L247.50037158427335,300L247.5000001317075,0Z" stroke-width="0.35"/><path transform="translate(0,0)" d="M250.49956805650766,300L250.49999984689828,0L253.50000017143242,0L253.50048365958858,300Z" stroke-width="0.35"/><path transform="translate(0,0)" d="M256.4999998136688,0L256.499474306853,300L253.50048365958858,300L253.50000017143242,0Z" stroke-width="0.35"/><path transform="translate(0,0)" d="M256.499474306853,300L256.4999998136688,0L259.5000001975011,0L259.50055720673373,300Z" stroke-width="0.35"/><path transform="translate(0,0)" d="M262.4999997952824,0L262.49942243350694,300L259.50055720673373,300L259.5000001975011,0Z" stroke-width="0.35"/><path transform="translate(0,0)" d="M262.49942243350694,300L262.4999997952824,0L265.50000020783693,0L265.50058636703056,300Z" stroke-width="0.35"/><path transform="translate(0,0)" d="M268.49999979320364,0L268.49941656873034,300L265.50058636703056,300L265.50000020783693,0Z" stroke-width="0.35"/><path transform="translate(0,0)" d="M268.49941656873034,300L268.49999979320364,0L271.5000002016166,0L271.5005688176565,300Z" stroke-width="0.35"/><path transform="translate(0,0)" d="M274.4999998075982,0L274.4994571797823,300L271.5005688176565,300L271.5000002016166,0Z" stroke-width="0.35"/><path transform="translate(0,0)" d="M274.4994571797823,300L274.4999998075982,0L277.5000001793356,0L277.5005059566574,300Z" stroke-width="0.35"/><path transform="translate(0,0)" d="M280.4999998373193,0L280.4995410316753,300L277.5005059566574,300L277.5000001793356,0Z" stroke-width="0.35"/><path transform="translate(0,0)" d="M280.4995410316753,300L280.4999998373193,0L283.50000014276884,0L283.5004027915575,300Z" stroke-width="0.35"/><path transform="translate(0,0)" d="M286.4999998799996,0L286.49966144485194,300L283.5004027915575,300L283.50000014276884,0Z" stroke-width="0.35"/><path transform="translate(0,0)" d="M286.49966144485194,300L286.4999998799996,0L289.5000000948294,0L289.50026754044643,300Z" stroke-width="0.35"/><path transform="translate(0,0)" d="M292.4999999322391,0L292.4998088272634,300L289.50026754044643,300L289.5000000948294,0Z" stroke-width="0.35"/><path transform="translate(0,0)" d="M292.4998088272634,300L292.4999999322391,0L300,0L300,300Z" stroke-width="0.35"/></g><g class="mark-rule role-mark layer_1_layer_0_marks" role="graphics-symbol" aria-roledescription="rule mark container" pointer-events="none"/><g class="mark-text role-mark layer_1_layer_1_layer_0_marks" role="graphics-object" aria-roledescription="text mark container" pointer-events="none"/><g class="mark-group role-legend" role="graphics-symbol" aria-roledescription="legend" aria-label="Symbol legend titled 'rev' for fill color and stroke color with 1 value: workspace"><g transform="translate(318,0)"><path class="background" aria-hidden="true" d="M0,0h64v29h-64Z" pointer-events="none"/><g><g class="mark-group role-legend-entry"><g transform="translate(0,16)"><path class="background" aria-hidden="true" d="M0,0h0v0h0Z" pointer-events="none"/><g><g class="mark-group role-scope" role="graphics-object" aria-roledescription="group mark container"><g transform="translate(0,0)"><path class="background" aria-hidden="true" d="M0,0h63.7978515625v12.5h-63.7978515625Z" pointer-events="none" opacity="1"/><g><g class="mark-symbol role-legend-symbol" pointer-events="none"><path transform="translate(6,6)" d="M5,0A5,5,0,1,1,-5,0A5,5,0,1,1,5,0" fill="#4c78a8" stroke="#4c78a8" stroke-width="1.5" opacity="1"/></g><g class="mark-text role-legend-label" pointer-events="none"><text text-anchor="start" transform="translate(16,9)" font-family="sans-serif" font-size="10px" fill="#000" opacity="1">workspace</text></g></g><path class="foreground" aria-hidden="true" d="" pointer-events="none" display="none"/></g></g></g><path class="foreground" aria-hidden="true" d="" pointer-events="none" display="none"/></g></g><g class="mark-text role-legend-title" pointer-events="none"><text text-anchor="start" transform="translate(0,9)" font-family="sans-serif" font-size="11px" font-weight="bold" fill="#000" opacity="1">rev</text></g></g><path class="foreground" aria-hidden="true" d="" pointer-events="none" display="none"/></g></g><g class="mark-group role-title"><g transform="translate(150,-17.7)"><path class="background" aria-hidden="true" d="M0,0h0v0h0Z" pointer-events="none"/><g><g class="mark-text role-title-text" role="graphics-symbol" aria-roledescription="title" aria-label="Title text 'data.csv'" pointer-events="none"><text text-anchor="middle" transform="translate(0,10)" font-family="sans-serif" font-size="13px" font-weight="bold" fill="#000" opacity="1">data.csv</text></g></g><path class="foreground" aria-hidden="true" d="" pointer-events="none" display="none"/></g></g></g><path class="foreground" aria-hidden="true" d="" display="none"/></g></g></g></svg>