<svg xmlns="http://www.w3.org/2000/svg" xmlns:xlink="http://www.w3.org/1999/xlink" version="1.1" class="marks" width="440" height="364" viewBox="0 0 440 364"><rect width="440" height="364" fill="white"/><g fill="none" stroke-miterlimit="10" transform="translate(53,27)"><g class="mark-group role-frame root" role="graphics-object" aria-roledescription="group mark container"><g transform="translate(0,0)"><path class="background" aria-hidden="true" d="M0.5,0.5h300v300h-300Z" stroke="#ddd"/><g><g class="mark-group role-axis" aria-hidden="true"><g transform="translate(0.5,300.5)"><path class="background" aria-hidden="true" d="M0,0h0v0h0Z" pointer-events="none"/><g><g class="mark-rule role-axis-grid" pointer-events="none"><line transform="translate(0,-300)" x2="0" y2="300" stroke="#ddd" stroke-width="1" opacity="1"/><line transform="translate(30,-300)" x2="0" y2="300" stroke="#ddd" stroke-width="1" opacity="1"/><line transform="translate(60,-300)" x2="0" y2="300" stroke="#ddd" stroke-width="1" opacity="1"/><line transform="translate(90,-300)" x2="0" y2="300" stroke="#ddd" stroke-width="1" opacity="1"/><line transform="translate(120,-300)" x2="0" y2="300" stroke="#ddd" stroke-width="1" opacity="1"/><line transform="translate(150,-300)" x2="0" y2="300" stroke="#ddd" stroke-width="1" opacity="1"/><line transform="translate(180,-300)" x2="0" y2="300" stroke="#ddd" stroke-width="1" opacity="1"/><line transform="translate(210,-300)" x2="0" y2="300" stroke="#ddd" stroke-width="1" opacity="1"/><line transform="translate(240,-300)" x2="0" y2="300" stroke="#ddd" stroke-width="1" opacity="1"/><line transform="translate(270,-300)" x2="0" y2="300" stroke="#ddd" stroke-width="1" opacity="1"/><line transform="translate(300,-300)" x2="0" y2="300" stroke="#ddd" stroke-width="1" opacity="1"/></g></g><path class="foreground" aria-hidden="true" d="" pointer-events="none" display="none"/></g></g><g class="mark-group role-axis" aria-hidden="true"><g transform="translate(0.5,0.5)"><path class="background" aria-hidden="true" d="M0,0h0v0h0Z" pointer-events="none"/><g><g class="mark-rule role-axis-grid" pointer-events="none"><line transform="translate(0,300)" x2="300" y2="0" stroke="#ddd" stroke-width="1" opacity="1"/><line transform="translate(0,263)" x2="300" y2="0" stroke="#ddd" stroke-width="1" opacity="1"/><line transform="translate(0,225)" x2="300" y2="0" stroke="#ddd" stroke-width="1" opacity="1"/><line transform="translate(0,187)" x2="300" y2="0" stroke="#ddd" stroke-width="1" opacity="1"/><line transform="translate(0,150)" x2="300" y2="0" stroke="#ddd" stroke-width="1" opacity="1"/><line transform="translate(0,113)" x2="300" y2="0" stroke="#ddd" stroke-width="1" opacity="1"/><line transform="translate(0,75)" x2="300" y2="0" stroke="#ddd" stroke-width="1" opacity="1"/><line transform="translate(0,38)" x2="300" y2="0" stroke="#ddd" stroke-width="1" opacity="1"/><line transform="translate(0,0)" x2="300" y2="0" stroke="#ddd" stroke-width="1" opacity="1"/></g></g><path class="foreground" aria-hidden="true" d="" pointer-events="none" display="none"/></g></g><g class="mark-group role-axis" role="graphics-symbol" aria-roledescription="axis" aria-label="X-axis titled 'step' for a linear scale with values from 0 to 100"><g transform="translate(0.5,300.5)"><path class="background" aria-hidden="true" d="M0,0h0v0h0Z" pointer-events="none"/><g><g class="mark-rule role-axis-tick" pointer-events="none"><line transform="translate(0,0)" x2="0" y2="5" stroke="#888" stroke-width="1" opacity="1"/><line transform="translate(30,0)" x2="0" y2="5" stroke="#888" stroke-width="1" opacity="1"/><line transform="translate(60,0)" x2="0" y2="5" stroke="#888" stroke-width="1" opacity="1"/><line transform="translate(90,0)" x2="0" y2="5" stroke="#888" stroke-width="1" opacity="1"/><line transform="translate(120,0)" x2="0" y2="5" stroke="#888" stroke-width="1" opacity="1"/><line transform="translate(150,0)" x2="0" y2="5" stroke="#888" stroke-width="1" opacity="1"/><line transform="translate(180,0)" x2="0" y2="5" stroke="#888" stroke-width="1" opacity="1"/><line transform="translate(210,0)" x2="0" y2="5" stroke="#888" stroke-width="1" opacity="1"/><line transform="translate(240,0)" x2="0" y2="5" stroke="#888" stroke-width="1" opacity="1"/><line transform="translate(270,0)" x2="0" y2="5" stroke="#888" stroke-width="1" opacity="1"/><line transform="translate(300,0)" x2="0" y2="5" stroke="#888" stroke-width="1" opacity="1"/></g><g class="mark-text role-axis-label" pointer-events="none"><text text-anchor="start" transform="translate(0,15)" font-family="sans-serif" font-size="10px" fill="#000" opacity="1">0</text><text text-anchor="middle" transform="translate(30,15)" font-family="sans-serif" font-size="10px" fill="#000" opacity="1">10</text><text text-anchor="middle" transform="translate(60,15)" font-family="sans-serif" font-size="10px" fill="#000" opacity="1">20</text><text text-anchor="middle" transform="translate(90,15)" font-family="sans-serif" font-size="10px" fill="#000" opacity="1">30</text><text text-anchor="middle" transform="translate(120,15)" font-family="sans-serif" font-size="10px" fill="#000" opacity="1">40</text><text text-anchor="middle" transform="translate(150,15)" font-family="sans-serif" font-size="10px" fill="#000" opacity="1">50</text><text text-anchor="middle" transform="translate(180,15)" font-family="sans-serif" font-size="10px" fill="#000" opacity="1">60</text><text text-anchor="middle" transform="translate(210,15)" font-family="sans-serif" font-size="10px" fill="#000" opacity="1">70</text><text text-anchor="middle" transform="translate(240,15)" font-family="sans-serif" font-size="10px" fill="#000" opacity="1">80</text><text text-anchor="middle" transform="translate(270,15)" font-family="sans-serif" font-size="10px" fill="#000" opacity="1">90</text><text text-anchor="end" transform="translate(300,15)" font-family="sans-serif" font-size="10px" fill="#000" opacity="1">100</text></g><g class="mark-rule role-axis-domain" pointer-events="none"><line transform="translate(0,0)" x2="300" y2="0" stroke="#888" stroke-width="1" opacity="1"/></g><g class="mark-text role-axis-title" pointer-events="none"><text text-anchor="middle" transform="translate(150,30)" font-family="sans-serif" font-size="11px" font-weight="bold" fill="#000" opacity="1">step</text></g></g><path class="foreground" aria-hidden="true" d="" pointer-events="none" display="none"/></g></g><g class="mark-group role-axis" role="graphics-symbol" aria-roledescription="axis" aria-label="Y-axis titled 'loss' for a linear scale with values from −0.1 to 0.3"><g transform="translate(0.5,0.5)"><path class="background" aria-hidden="true" d="M0,0h0v0h0Z" pointer-events="none"/><g><g class="mark-rule role-axis-tick" pointer-events="none"><line transform="translate(0,300)" x2="-5" y2="0" stroke="#888" stroke-width="1" opacity="1"/><line transform="translate(0,263)" x2="-5" y2="0" stroke="#888" stroke-width="1" opacity="1"/><line transform="translate(0,225)" x2="-5" y2="0" stroke="#888" stroke-width="1" opacity="1"/><line transform="translate(0,187)" x2="-5" y2="0" stroke="#888" stroke-width="1" opacity="1"/><line transform="translate(0,150)" x2="-5" y2="0" stroke="#888" stroke-width="1" opacity="1"/><line transform="translate(0,113)" x2="-5" y2="0" stroke="#888" stroke-width="1" opacity="1"/><line transform="translate(0,75)" x2="-5" y2="0" stroke="#888" stroke-width="1" opacity="1"/><line transform="translate(0,38)" x2="-5" y2="0" stroke="#888" stroke-width="1" opacity="1"/><line transform="translate(0,0)" x2="-5" y2="0" stroke="#888" stroke-width="1" opacity="1"/></g><g class="mark-text role-axis-label" pointer-events="none"><text text-anchor="end" transform="translate(-7,303)" font-family="sans-serif" font-size="10px" fill="#000" opacity="1">−0.05</text><text text-anchor="end" transform="translate(-7,265.5)" font-family="sans-serif" font-size="10px" fill="#000" opacity="1">0.00</text><text text-anchor="end" transform="translate(-7,228)" font-family="sans-serif" font-size="10px" fill="#000" opacity="1">0.05</text><text text-anchor="end" transform="translate(-7,190.49999999999997)" font-family="sans-serif" font-size="10px" fill="#000" opacity="1">0.10</text><text text-anchor="end" transform="translate(-7,152.99999999999997)" font-family="sans-serif" font-size="10px" fill="#000" opacity="1">0.15</text><text text-anchor="end" transform="translate(-7,115.5)" font-family="sans-serif" font-size="10px" fill="#000" opacity="1">0.20</text><text text-anchor="end" transform="translate(-7,78)" font-family="sans-serif" font-size="10px" fill="#000" opacity="1">0.25</text><text text-anchor="end" transform="translate(-7,40.5)" font-family="sans-serif" font-size="10px" fill="#000" opacity="1">0.30</text><text text-anchor="end" transform="translate(-7,3)" font-family="sans-serif" font-size="10px" fill="#000" opacity="1">0.35</text></g><g class="mark-rule role-axis-domain" pointer-events="none"><line transform="translate(0,300)" x2="0" y2="-300" stroke="#888" stroke-width="1" opacity="1"/></g><g class="mark-text role-axis-title" pointer-events="none"><text text-anchor="middle" transform="translate(-36.302734375,150) rotate(-90) translate(0,-2)" font-family="sans-serif" font-size="11px" font-weight="bold" fill="#000" opacity="1">loss</text></g></g><path class="foreground" aria-hidden="true" d="" pointer-events="none" display="none"/></g></g><g class="mark-group role-scope layer_0_layer_0_pathgroup" role="graphics-object" aria-roledescription="group mark container"><g transform="translate(0,0)"><path class="background" aria-hidden="true" d="M0,0h300v300h-300Z"/><g><g class="mark-line role-mark layer_0_layer_0_marks" role="graphics-object" aria-roledescription="line mark container" pointer-events="none"><path aria-label="step: 0; loss: 0.24; rev: workspace" role="graphics-symbol" aria-roledescription="line mark" d="M0,82.5L3,29.999999999999993L6,67.5L9,127.50000000000001L12,105L15,134.99999999999994L18,112.5L21.000000000000004,75L24,127.50000000000001L27,82.5L30,157.49999999999997L33,127.50000000000001L36,149.99999999999997L39,105L42.00000000000001,165L45,142.49999999999997L48,142.49999999999997L51.00000000000001,120L54,172.5L57,127.50000000000001L60,172.5L63,142.49999999999997L66,172.5L69,165L72,187.49999999999997L75,187.49999999999997L78,165L81,194.99999999999997L84.00000000000001,187.49999999999997L87,157.49999999999997L90,180L93,194.99999999999997L96,187.49999999999997L99,172.5L102.00000000000001,180L105,194.99999999999997L108,210L111,202.5L114,210L117,210L120,202.5L122.99999999999999,187.49999999999997L126,187.49999999999997L129,187.49999999999997L132,210L135,210L138,217.5L141,210L144,217.5L147,225L150,217.5L153,225L156,225L159,217.5L162,232.5L165,232.5L168.00000000000003,225L170.99999999999997,240L174,225L177,217.5L180,232.5L183,225L186,225L189,225L192,247.5L195,247.5L198,232.5L201,232.5L204.00000000000003,247.5L206.99999999999997,232.5L210,247.5L213,240L216,255L219,240L222,247.5L225,240L228,247.5L231,247.5L234,255L237,255L240,247.5L243.00000000000003,255L245.99999999999997,247.5L249,255L252,255L255,270L258,255L261,255L264,262.5L267,270L270,262.5L273,270L276,277.5L279,262.5L282,262.5L285,270L288,270L291,277.5L294,270" stroke="#4c78a8" stroke-width="2"/></g></g><path class="foreground" aria-hidden="true" d="" display="none"/></g></g><g class="mark-symbol role-mark layer_0_layer_1_marks" role="graphics-object" aria-roledescription="symbol mark container"><path aria-label="step: 0; loss: 0.24; rev: workspace" role="graphics-symbol" aria-roledescription="point" transform="translate(0,82.5)" d="M2.7386127875258306,0A2.7386127875258306,2.7386127875258306,0,1,1,-2.7386127875258306,0A2.7386127875258306,2.7386127875258306,0,1,1,2.7386127875258306,0" stroke="#4c78a8" stroke-width="2" opacity="0"/><path aria-label="step: 1; loss: 0.31; rev: workspace" role="graphics-symbol" aria-roledescription="point" transform="translate(3,29.999999999999993)" d="M2.7386127875258306,0A2.7386127875258306,2.7386127875258306,0,1,1,-2.7386127875258306,0A2.7386127875258306,2.7386127875258306,0,1,1,2.7386127875258306,0" stroke="#4c78a8" stroke-width="2" opacity="0"/><path aria-label="step: 2; loss: 0.26; rev: workspace" role="graphics-symbol" aria-roledescription="point" transform="translate(6,67.5)" d="M2.7386127875258306,0A2.7386127875258306,2.7386127875258306,0,1,1,-2.7386127875258306,0A2.7386127875258306,2.7386127875258306,0,1,1,2.7386127875258306,0" stroke="#4c78a8" stroke-width="2" opacity="0"/><path aria-label="step: 3; loss: 0.18; rev: workspace" role="graphics-symbol" aria-roledescription="point" transform="translate(9,127.50000000000001)" d="M2.7386127875258306,0A2.7386127875258306,2.7386127875258306,0,1,1,-2.7386127875258306,0A2.7386127875258306,2.7386127875258306,0,1,1,2.7386127875258306,0" stroke="#4c78a8" stroke-width="2" opacity="0"/><path aria-label="step: 4; loss: 0.21; rev: workspace" role="graphics-symbol" aria-roledescription="point" transform="translate(12,105)" d="M2.7386127875258306,0A2.7386127875258306,2.7386127875258306,0,1,1,-2.7386127875258306,0A2.7386127875258306,2.7386127875258306,0,1,1,2.7386127875258306,0" stroke="#4c78a8" stroke-width="2" opacity="0"/><path aria-label="step: 5; loss: 0.17; rev: workspace" role="graphics-symbol" aria-roledescription="point" transform="translate(15,134.99999999999994)" d="M2.7386127875258306,0A2.7386127875258306,2.7386127875258306,0,1,1,-2.7386127875258306,0A2.7386127875258306,2.7386127875258306,0,1,1,2.7386127875258306,0" stroke="#4c78a8" stroke-width="2" opacity="0"/><path aria-label="step: 6; loss: 0.2; rev: workspace" role="graphics-symbol" aria-roledescription="point" transform="translate(18,112.5)" d="M2.7386127875258306,0A2.7386127875258306,2.7386127875258306,0,1,1,-2.7386127875258306,0A2.7386127875258306,2.7386127875258306,0,1,1,2.7386127875258306,0" stroke="#4c78a8" stroke-width="2" opacity="0"/><path aria-label="step: 7; loss: 0.25; rev: workspace" role="graphics-symbol" aria-roledescription="point" transform="translate(21.000000000000004,75)" d="M2.7386127875258306,0A2.7386127875258306,2.7386127875258306,0,1,1,-2.7386127875258306,0A2.7386127875258306,2.7386127875258306,0,1,1,2.7386127875258306,0" stroke="#4c78a8" stroke-width="2" opacity="0"/><path aria-label="step: 8; loss: 0.18; rev: workspace" role="graphics-symbol" aria-roledescription="point" transform="translate(24,127.50000000000001)" d="M2.7386127875258306,0A2.7386127875258306,2.7386127875258306,0,1,1,-2.7386127875258306,0A2.7386127875258306,2.7386127875258306,0,1,1,2.7386127875258306,0" stroke="#4c78a8" stroke-width="2" opacity="0"/><path aria-label="step: 9; loss: 0.24; rev: workspace" role="graphics-symbol" aria-roledescription="point" transform="translate(27,82.5)" d="M2.7386127875258306,0A2.7386127875258306,2.7386127875258306,0,1,1,-2.7386127875258306,0A2.7386127875258306,2.7386127875258306,0,1,1,2.7386127875258306,0" stroke="#4c78a8" stroke-width="2" opacity="0"/><path aria-label="step: 10; loss: 0.14; rev: workspace" role="graphics-symbol" aria-roledescription="point" transform="translate(30,157.49999999999997)" d="M2.7386127875258306,0A2.7386127875258306,2.7386127875258306,0,1,1,-2.7386127875258306,0A2.7386127875258306,2.7386127875258306,0,1,1,2.7386127875258306,0" stroke="#4c78a8" stroke-width="2" opacity="0"/><path aria-label="step: 11; loss: 0.18; rev: workspace" role="graphics-symbol" aria-roledescription="point" transform="translate(33,127.50000000000001)" d="M2.7386127875258306,0A2.7386127875258306,2.7386127875258306,0,1,1,-2.7386127875258306,0A2.7386127875258306,2.7386127875258306,0,1,1,2.7386127875258306,0" stroke="#4c78a8" stroke-width="2" opacity="0"/><path aria-label="step: 12; loss: 0.15; rev: workspace" role="graphics-symbol" aria-roledescription="point" transform="translate(36,149.99999999999997)" d="M2.7386127875258306,0A2.7386127875258306,2.7386127875258306,0,1,1,-2.7386127875258306,0A2.7386127875258306,2.7386127875258306,0,1,1,2.7386127875258306,0" stroke="#4c78a8" stroke-width="2" opacity="0"/><path aria-label="step: 13; loss: 0.21; rev: workspace" role="graphics-symbol" aria-roledescription="point" transform="translate(39,105)" d="M2.7386127875258306,0A2.7386127875258306,2.7386127875258306,0,1,1,-2.7386127875258306,0A2.7386127875258306,2.7386127875258306,0,1,1,2.7386127875258306,0" stroke="#4c78a8" stroke-width="2" opacity="0"/><path aria-label="step: 14; loss: 0.13; rev: workspace" role="graphics-symbol" aria-roledescription="point" transform="translate(42.00000000000001,165)" d="M2.7386127875258306,0A2.7386127875258306,2.7386127875258306,0,1,1,-2.7386127875258306,0A2.7386127875258306,2.7386127875258306,0,1,1,2.7386127875258306,0" stroke="#4c78a8" stroke-width="2" opacity="0"/><path aria-label="step: 15; loss: 0.16; rev: workspace" role="graphics-symbol" aria-roledescription="point" transform="translate(45,142.49999999999997)" d="M2.7386127875258306,0A2.7386127875258306,2.7386127875258306,0,1,1,-2.7386127875258306,0A2.7386127875258306,2.7386127875258306,0,1,1,2.7386127875258306,0" stroke="#4c78a8" stroke-width="2" opacity="0"/><path aria-label="step: 16; loss: 0.16; rev: workspace" role="graphics-symbol" aria-roledescription="point" transform="translate(48,142.49999999999997)" d="M2.7386127875258306,0A2.7386127875258306,2.7386127875258306,0,1,1,-2.7386127875258306,0A2.7386127875258306,2.7386127875258306,0,1,1,2.7386127875258306,0" stroke="#4c78a8" stroke-width="2" opacity="0"/><path aria-label="step: 17; loss: 0.19; rev: workspace" role="graphics-symbol" aria-roledescription="point" transform="translate(51.00000000000001,120)" d="M2.7386127875258306,0A2.7386127875258306,2.7386127875258306,0,1,1,-2.7386127875258306,0A2.7386127875258306,2.7386127875258306,0,1,1,2.7386127875258306,0" stroke="#4c78a8" stroke-width="2" opacity="0"/><path aria-label="step: 18; loss: 0.12; rev: workspace" role="graphics-symbol" aria-roledescription="point" transform="translate(54,172.5)" d="M2.7386127875258306,0A2.7386127875258306,2.7386127875258306,0,1,1,-2.7386127875258306,0A2.7386127875258306,2.7386127875258306,0,1,1,2.7386127875258306,0" stroke="#4c78a8" stroke-width="2" opacity="0"/><path aria-label="step: 19; loss: 0.18; rev: workspace" role="graphics-symbol" aria-roledescription="point" transform="translate(57,127.50000000000001)" d="M2.7386127875258306,0A2.7386127875258306,2.7386127875258306,0,1,1,-2.7386127875258306,0A2.7386127875258306,2.7386127875258306,0,1,1,2.7386127875258306,0" stroke="#4c78a8" stroke-width="2" opacity="0"/><path aria-label="step: 20; loss: 0.12; rev: workspace" role="graphics-symbol" aria-roledescription="point" transform="translate(60,172.5)" d="M2.7386127875258306,0A2.7386127875258306,2.7386127875258306,0,1,1,-2.7386127875258306,0A2.7386127875258306,2.7386127875258306,0,1,1,2.7386127875258306,0" stroke="#4c78a8" stroke-width="2" opacity="0"/><path aria-label="step: 21; loss: 0.16; rev: workspace" role="graphics-symbol" aria-roledescription="point" transform="translate(63,142.49999999999997)" d="M2.7386127875258306,0A2.7386127875258306,2.7386127875258306,0,1,1,-2.7386127875258306,0A2.7386127875258306,2.7386127875258306,0,1,1,2.7386127875258306,0" stroke="#4c78a8" stroke-width="2" opacity="0"/><path aria-label="step: 22; loss: 0.12; rev: workspace" role="graphics-symbol" aria-roledescription="point" transform="translate(66,172.5)" d="M2.7386127875258306,0A2.7386127875258306,2.7386127875258306,0,1,1,-2.7386127875258306,0A2.7386127875258306,2.7386127875258306,0,1,1,2.7386127875258306,0" stroke="#4c78a8" stroke-width="2" opacity="0"/><path aria-label="step: 23; loss: 0.13; rev: workspace" role="graphics-symbol" aria-roledescription="point" transform="translate(69,165)" d="M2.7386127875258306,0A2.7386127875258306,2.7386127875258306,0,1,1,-2.7386127875258306,0A2.7386127875258306,2.7386127875258306,0,1,1,2.7386127875258306,0" stroke="#4c78a8" stroke-width="2" opacity="0"/><path aria-label="step: 24; loss: 0.1; rev: workspace" role="graphics-symbol" aria-roledescription="point" transform="translate(72,187.49999999999997)" d="M2.7386127875258306,0A2.7386127875258306,2.7386127875258306,0,1,1,-2.7386127875258306,0A2.7386127875258306,2.7386127875258306,0,1,1,2.7386127875258306,0" stroke="#4c78a8" stroke-width="2" opacity="0"/><path aria-label="step: 25; loss: 0.1; rev: workspace" role="graphics-symbol" aria-roledescription="point" transform="translate(75,187.49999999999997)" d="M2.7386127875258306,0A2.7386127875258306,2.7386127875258306,0,1,1,-2.7386127875258306,0A2.7386127875258306,2.7386127875258306,0,1,1,2.7386127875258306,0" stroke="#4c78a8" stroke-width="2" opacity="0"/><path aria-label="step: 26; loss: 0.13; rev: workspace" role="graphics-symbol" aria-roledescription="point" transform="translate(78,165)" d="M2.7386127875258306,0A2.7386127875258306,2.7386127875258306,0,1,1,-2.7386127875258306,0A2.7386127875258306,2.7386127875258306,0,1,1,2.7386127875258306,0" stroke="#4c78a8" stroke-width="2" opacity="0"/><path aria-label="step: 27; loss: 0.09; rev: workspace" role="graphics-symbol" aria-roledescription="point" transform="translate(81,194.99999999999997)" d="M2.7386127875258306,0A2.7386127875258306,2.7386127875258306,0,1,1,-2.7386127875258306,0A2.7386127875258306,2.7386127875258306,0,1,1,2.7386127875258306,0" stroke="#4c78a8" stroke-width="2" opacity="0"/><path aria-label="step: 28; loss: 0.1; rev: workspace" role="graphics-symbol" aria-roledescription="point" transform="translate(84.00000000000001,187.49999999999997)" d="M2.7386127875258306,0A2.7386127875258306,2.7386127875258306,0,1,1,-2.7386127875258306,0A2.7386127875258306,2.7386127875258306,0,1,1,2.7386127875258306,0" stroke="#4c78a8" stroke-width="2" opacity="0"/><path aria-label="step: 29; loss: 0.14; rev: workspace" role="graphics-symbol" aria-roledescription="point" transform="translate(87,157.49999999999997)" d="M2.7386127875258306,0A2.7386127875258306,2.7386127875258306,0,1,1,-2.7386127875258306,0A2.7386127875258306,2.7386127875258306,0,1,1,2.7386127875258306,0" stroke="#4c78a8" stroke-width="2" opacity="0"/><path aria-label="step: 30; loss: 0.11; rev: workspace" role="graphics-symbol" aria-roledescription="point" transform="translate(90,180)" d="M2.7386127875258306,0A2.7386127875258306,2.7386127875258306,0,1,1,-2.7386127875258306,0A2.7386127875258306,2.7386127875258306,0,1,1,2.7386127875258306,0" stroke="#4c78a8" stroke-width="2" opacity="0"/><path aria-label="step: 31; loss: 0.09; rev: workspace" role="graphics-symbol" aria-roledescription="point" transform="translate(93,194.99999999999997)" d="M2.7386127875258306,0A2.7386127875258306,2.7386127875258306,0,1,1,-2.7386127875258306,0A2.7386127875258306,2.7386127875258306,0,1,1,2.7386127875258306,0" stroke="#4c78a8" stroke-width="2" opacity="0"/><path aria-label="step: 32; loss: 0.1; rev: workspace" role="graphics-symbol" aria-roledescription="point" transform="translate(96,187.49999999999997)" d="M2.7386127875258306,0A2.7386127875258306,2.7386127875258306,0,1,1,-2.7386127875258306,0A2.7386127875258306,2.7386127875258306,0,1,1,2.7386127875258306,0" stroke="#4c78a8" stroke-width="2" opacity="0"/><path aria-label="step: 33; loss: 0.12; rev: workspace" role="graphics-symbol" aria-roledescription="point" transform="translate(99,172.5)" d="M2.7386127875258306,0A2.7386127875258306,2.7386127875258306,0,1,1,-2.7386127875258306,0A2.7386127875258306,2.7386127875258306,0,1,1,2.7386127875258306,0" stroke="#4c78a8" stroke-width="2" opacity="0"/><path aria-label="step: 34; loss: 0.11; rev: workspace" role="graphics-symbol" aria-roledescription="point" transform="translate(102.00000000000001,180)" d="M2.7386127875258306,0A2.7386127875258306,2.7386127875258306,0,1,1,-2.7386127875258306,0A2.7386127875258306,2.7386127875258306,0,1,1,2.7386127875258306,0" stroke="#4c78a8" stroke-width="2" opacity="0"/><path aria-label="step: 35; loss: 0.09; rev: workspace" role="graphics-symbol" aria-roledescription="point" transform="translate(105,194.99999999999997)" d="M2.7386127875258306,0A2.7386127875258306,2.7386127875258306,0,1,1,-2.7386127875258306,0A2.7386127875258306,2.7386127875258306,0,1,1,2.7386127875258306,0" stroke="#4c78a8" stroke-width="2" opacity="0"/><path aria-label="step: 36; loss: 0.07; rev: workspace" role="graphics-symbol" aria-roledescription="point" transform="translate(108,210)" d="M2.7386127875258306,0A2.7386127875258306,2.7386127875258306,0,1,1,-2.7386127875258306,0A2.7386127875258306,2.7386127875258306,0,1,1,2.7386127875258306,0" stroke="#4c78a8" stroke-width="2" opacity="0"/><path aria-label="step: 37; loss: 0.08; rev: workspace" role="graphics-symbol" aria-roledescription="point" transform="translate(111,202.5)" d="M2.7386127875258306,0A2.7386127875258306,2.7386127875258306,0,1,1,-2.7386127875258306,0A2.7386127875258306,2.7386127875258306,0,1,1,2.7386127875258306,0" stroke="#4c78a8" stroke-width="2" opacity="0"/><path aria-label="step: 38; loss: 0.07; rev: workspace" role="graphics-symbol" aria-roledescription="point" transform="translate(114,210)" d="M2.7386127875258306,0A2.7386127875258306,2.7386127875258306,0,1,1,-2.7386127875258306,0A2.7386127875258306,2.7386127875258306,0,1,1,2.7386127875258306,0" stroke="#4c78a8" stroke-width="2" opacity="0"/><path aria-label="step: 39; loss: 0.07; rev: workspace" role="graphics-symbol" aria-roledescription="point" transform="translate(117,210)" d="M2.7386127875258306,0A2.7386127875258306,2.7386127875258306,0,1,1,-2.7386127875258306,0A2.7386127875258306,2.7386127875258306,0,1,1,2.7386127875258306,0" stroke="#4c78a8" stroke-width="2" opacity="0"/><path aria-label="step: 40; loss: 0.08; rev: workspace" role="graphics-symbol" aria-roledescription="point" transform="translate(120,202.5)" d="M2.7386127875258306,0A2.7386127875258306,2.7386127875258306,0,1,1,-2.7386127875258306,0A2.7386127875258306,2.7386127875258306,0,1,1,2.7386127875258306,0" stroke="#4c78a8" stroke-width="2" opacity="0"/><path aria-label="step: 41; loss: 0.1; rev: workspace" role="graphics-symbol" aria-roledescription="point" transform="translate(122.99999999999999,187.49999999999997)" d="M2.7386127875258306,0A2.7386127875258306,2.7386127875258306,0,1,1,-2.7386127875258306,0A2.7386127875258306,2.7386127875258306,0,1,1,2.7386127875258306,0" stroke="#4c78a8" stroke-width="2" opacity="0"/><path aria-label="step: 42; loss: 0.1; rev: workspace" role="graphics-symbol" aria-roledescription="point" transform="translate(126,187.49999999999997)" d="M2.7386127875258306,0A2.7386127875258306,2.7386127875258306,0,1,1,-2.7386127875258306,0A2.7386127875258306,2.7386127875258306,0,1,1,2.7386127875258306,0" stroke="#4c78a8" stroke-width="2" opacity="0"/><path aria-label="step: 43; loss: 0.1; rev: workspace" role="graphics-symbol" aria-roledescription="point" transform="translate(129,187.49999999999997)" d="M2.7386127875258306,0A2.7386127875258306,2.7386127875258306,0,1,1,-2.7386127875258306,0A2.7386127875258306,2.7386127875258306,0,1,1,2.7386127875258306,0" stroke="#4c78a8" stroke-width="2" opacity="0"/><path aria-label="step: 44; loss: 0.07; rev: workspace" role="graphics-symbol" aria-roledescription="point" transform="translate(132,210)" d="M2.7386127875258306,0A2.7386127875258306,2.7386127875258306,0,1,1,-2.7386127875258306,0A2.7386127875258306,2.7386127875258306,0,1,1,2.7386127875258306,0" stroke="#4c78a8" stroke-width="2" opacity="0"/><path aria-label="step: 45; loss: 0.07; rev: workspace" role="graphics-symbol" aria-roledescription="point" transform="translate(135,210)" d="M2.7386127875258306,0A2.7386127875258306,2.7386127875258306,0,1,1,-2.7386127875258306,0A2.7386127875258306,2.7386127875258306,0,1,1,2.7386127875258306,0" stroke="#4c78a8" stroke-width="2" opacity="0"/><path aria-label="step: 46; loss: 0.06; rev: workspace" role="graphics-symbol" aria-roledescription="point" transform="translate(138,217.5)" d="M2.7386127875258306,0A2.7386127875258306,2.7386127875258306,0,1,1,-2.7386127875258306,0A2.7386127875258306,2.7386127875258306,0,1,1,2.7386127875258306,0" stroke="#4c78a8" stroke-width="2" opacity="0"/><path aria-label="step: 47; loss: 0.07; rev: workspace" role="graphics-symbol" aria-roledescription="point" transform="translate(141,210)" d="M2.7386127875258306,0A2.7386127875258306,2.7386127875258306,0,1,1,-2.7386127875258306,0A2.7386127875258306,2.7386127875258306,0,1,1,2.7386127875258306,0" stroke="#4c78a8" stroke-width="2" opacity="0"/><path aria-label="step: 48; loss: 0.06; rev: workspace" role="graphics-symbol" aria-roledescription="point" transform="translate(144,217.5)" d="M2.7386127875258306,0A2.7386127875258306,2.7386127875258306,0,1,1,-2.7386127875258306,0A2.7386127875258306,2.7386127875258306,0,1,1,2.7386127875258306,0" stroke="#4c78a8" stroke-width="2" opacity="0"/><path aria-label="step: 49; loss: 0.05; rev: workspace" role="graphics-symbol" aria-roledescription="point" transform="translate(147,225)" d="M2.7386127875258306,0A2.7386127875258306,2.7386127875258306,0,1,1,-2.7386127875258306,0A2.7386127875258306,2.7386127875258306,0,1,1,2.7386127875258306,0" stroke="#4c78a8" stroke-width="2" opacity="0"/><path aria-label="step: 50; loss: 0.06; rev: workspace" role="graphics-symbol" aria-roledescription="point" transform="translate(150,217.5)" d="M2.7386127875258306,0A2.7386127875258306,2.7386127875258306,0,1,1,-2.7386127875258306,0A2.7386127875258306,2.7386127875258306,0,1,1,2.7386127875258306,0" stroke="#4c78a8" stroke-width="2" opacity="0"/><path aria-label="step: 51; loss: 0.05; rev: workspace" role="graphics-symbol" aria-roledescription="point" transform="translate(153,225)" d="M2.7386127875258306,0A2.7386127875258306,2.7386127875258306,0,1,1,-2.7386127875258306,0A2.7386127875258306,2.7386127875258306,0,1,1,2.7386127875258306,0" stroke="#4c78a8" stroke-width="2" opacity="0"/><path aria-label="step: 52; loss: 0.05; rev: workspace" role="graphics-symbol" aria-roledescription="point" transform="translate(156,225)" d="M2.7386127875258306,0A2.7386127875258306,2.7386127875258306,0,1,1,-2.7386127875258306,0A2.7386127875258306,2.7386127875258306,0,1,1,2.7386127875258306,0" stroke="#4c78a8" stroke-width="2" opacity="0"/><path aria-label="step: 53; loss: 0.06; rev: workspace" role="graphics-symbol" aria-roledescription="point" transform="translate(159,217.5)" d="M2.7386127875258306,0A2.7386127875258306,2.7386127875258306,0,1,1,-2.7386127875258306,0A2.7386127875258306,2.7386127875258306,0,1,1,2.7386127875258306,0" stroke="#4c78a8" stroke-width="2" opacity="0"/><path aria-label="step: 54; loss: 0.04; rev: workspace" role="graphics-symbol" aria-roledescription="point" transform="translate(162,232.5)" d="M2.7386127875258306,0A2.7386127875258306,2.7386127875258306,0,1,1,-2.7386127875258306,0A2.7386127875258306,2.7386127875258306,0,1,1,2.7386127875258306,0" stroke="#4c78a8" stroke-width="2" opacity="0"/><path aria-label="step: 55; loss: 0.04; rev: workspace" role="graphics-symbol" aria-roledescription="point" transform="translate(165,232.5)" d="M2.7386127875258306,0A2.7386127875258306,2.7386127875258306,0,1,1,-2.7386127875258306,0A2.7386127875258306,2.7386127875258306,0,1,1,2.7386127875258306,0" stroke="#4c78a8" stroke-width="2" opacity="0"/><path aria-label="step: 56; loss: 0.05; rev: workspace" role="graphics-symbol" aria-roledescription="point" transform="translate(168.00000000000003,225)" d="M2.7386127875258306,0A2.7386127875258306,2.7386127875258306,0,1,1,-2.7386127875258306,0A2.7386127875258306,2.7386127875258306,0,1,1,2.7386127875258306,0" stroke="#4c78a8" stroke-width="2" opacity="0"/><path aria-label="step: 57; loss: 0.03; rev: workspace" role="graphics-symbol" aria-roledescription="point" transform="translate(170.99999999999997,240)" d="M2.7386127875258306,0A2.7386127875258306,2.7386127875258306,0,1,1,-2.7386127875258306,0A2.7386127875258306,2.7386127875258306,0,1,1,2.7386127875258306,0" stroke="#4c78a8" stroke-width="2" opacity="0"/><path aria-label="step: 58; loss: 0.05; rev: workspace" role="graphics-symbol" aria-roledescription="point" transform="translate(174,225)" d="M2.7386127875258306,0A2.7386127875258306,2.7386127875258306,0,1,1,-2.7386127875258306,0A2.7386127875258306,2.7386127875258306,0,1,1,2.7386127875258306,0" stroke="#4c78a8" stroke-width="2" opacity="0"/><path aria-label="step: 59; loss: 0.06; rev: workspace" role="graphics-symbol" aria-roledescription="point" transform="translate(177,217.5)" d="M2.7386127875258306,0A2.7386127875258306,2.7386127875258306,0,1,1,-2.7386127875258306,0A2.7386127875258306,2.7386127875258306,0,1,1,2.7386127875258306,0" stroke="#4c78a8" stroke-width="2" opacity="0"/><path aria-label="step: 60; loss: 0.04; rev: workspace" role="graphics-symbol" aria-roledescription="point" transform="translate(180,232.5)" d="M2.7386127875258306,0A2.7386127875258306,2.7386127875258306,0,1,1,-2.7386127875258306,0A2.7386127875258306,2.7386127875258306,0,1,1,2.7386127875258306,0" stroke="#4c78a8" stroke-width="2" opacity="0"/><path aria-label="step: 61; loss: 0.05; rev: workspace" role="graphics-symbol" aria-roledescription="point" transform="translate(183,225)" d="M2.7386127875258306,0A2.7386127875258306,2.7386127875258306,0,1,1,-2.7386127875258306,0A2.7386127875258306,2.7386127875258306,0,1,1,2.7386127875258306,0" stroke="#4c78a8" stroke-width="2" opacity="0"/><path aria-label="step: 62; loss: 0.05; rev: workspace" role="graphics-symbol" aria-roledescription="point" transform="translate(186,225)" d="M2.7386127875258306,0A2.7386127875258306,2.7386127875258306,0,1,1,-2.7386127875258306,0A2.7386127875258306,2.7386127875258306,0,1,1,2.7386127875258306,0" stroke="#4c78a8" stroke-width="2" opacity="0"/><path aria-label="step: 63; loss: 0.05; rev: workspace" role="graphics-symbol" aria-roledescription="point" transform="translate(189,225)" d="M2.7386127875258306,0A2.7386127875258306,2.7386127875258306,0,1,1,-2.7386127875258306,0A2.7386127875258306,2.7386127875258306,0,1,1,2.7386127875258306,0" stroke="#4c78a8" stroke-width="2" opacity="0"/><path aria-label="step: 64; loss: 0.02; rev: workspace" role="graphics-symbol" aria-roledescription="point" transform="translate(192,247.5)" d="M2.7386127875258306,0A2.7386127875258306,2.7386127875258306,0,1,1,-2.7386127875258306,0A2.7386127875258306,2.7386127875258306,0,1,1,2.7386127875258306,0" stroke="#4c78a8" stroke-width="2" opacity="0"/><path aria-label="step: 65; loss: 0.02; rev: workspace" role="graphics-symbol" aria-roledescription="point" transform="translate(195,247.5)" d="M2.7386127875258306,0A2.7386127875258306,2.7386127875258306,0,1,1,-2.7386127875258306,0A2.7386127875258306,2.7386127875258306,0,1,1,2.7386127875258306,0" stroke="#4c78a8" stroke-width="2" opacity="0"/><path aria-label="step: 66; loss: 0.04; rev: workspace" role="graphics-symbol" aria-roledescription="point" transform="translate(198,232.5)" d="M2.7386127875258306,0A2.7386127875258306,2.7386127875258306,0,1,1,-2.7386127875258306,0A2.7386127875258306,2.7386127875258306,0,1,1,2.7386127875258306,0" stroke="#4c78a8" stroke-width="2" opacity="0"/><path aria-label="step: 67; loss: 0.04; rev: workspace" role="graphics-symbol" aria-roledescription="point" transform="translate(201,232.5)" d="M2.7386127875258306,0A2.7386127875258306,2.7386127875258306,0,1,1,-2.7386127875258306,0A2.7386127875258306,2.7386127875258306,0,1,1,2.7386127875258306,0" stroke="#4c78a8" stroke-width="2" opacity="0"/><path aria-label="step: 68; loss: 0.02; rev: workspace" role="graphics-symbol" aria-roledescription="point" transform="translate(204.00000000000003,247.5)" d="M2.7386127875258306,0A2.7386127875258306,2.7386127875258306,0,1,1,-2.7386127875258306,0A2.7386127875258306,2.7386127875258306,0,1,1,2.7386127875258306,0" stroke="#4c78a8" stroke-width="2" opacity="0"/><path aria-label="step: 69; loss: 0.04; rev: workspace" role="graphics-symbol" aria-roledescription="point" transform="translate(206.99999999999997,232.5)" d="M2.7386127875258306,0A2.7386127875258306,2.7386127875258306,0,1,1,-2.7386127875258306,0A2.7386127875258306,2.7386127875258306,0,1,1,2.7386127875258306,0" stroke="#4c78a8" stroke-width="2" opacity="0"/><path aria-label="step: 70; loss: 0.02; rev: workspace" role="graphics-symbol" aria-roledescription="point" transform="translate(210,247.5)" d="M2.7386127875258306,0A2.7386127875258306,2.7386127875258306,0,1,1,-2.7386127875258306,0A2.7386127875258306,2.7386127875258306,0,1,1,2.7386127875258306,0" stroke="#4c78a8" stroke-width="2" opacity="0"/><path aria-label="step: 71; loss: 0.03; rev: workspace" role="graphics-symbol" aria-roledescription="point" transform="translate(213,240)" d="M2.7386127875258306,0A2.7386127875258306,2.7386127875258306,0,1,1,-2.7386127875258306,0A2.7386127875258306,2.7386127875258306,0,1,1,2.7386127875258306,0" stroke="#4c78a8" stroke-width="2" opacity="0"/><path aria-label="step: 72; loss: 0.01; rev: workspace" role="graphics-symbol" aria-roledescription="point" transform="translate(216,255)" d="M2.7386127875258306,0A2.7386127875258306,2.7386127875258306,0,1,1,-2.7386127875258306,0A2.7386127875258306,2.7386127875258306,0,1,1,2.7386127875258306,0" stroke="#4c78a8" stroke-width="2" opacity="0"/><path aria-label="step: 73; loss: 0.03; rev: workspace" role="graphics-symbol" aria-roledescription="point" transform="translate(219,240)" d="M2.7386127875258306,0A2.7386127875258306,2.7386127875258306,0,1,1,-2.7386127875258306,0A2.7386127875258306,2.7386127875258306,0,1,1,2.7386127875258306,0" stroke="#4c78a8" stroke-width="2" opacity="0"/><path aria-label="step: 74; loss: 0.02; rev: workspace" role="graphics-symbol" aria-roledescription="point" transform="translate(222,247.5)" d="M2.7386127875258306,0A2.7386127875258306,2.7386127875258306,0,1,1,-2.7386127875258306,0A2.7386127875258306,2.7386127875258306,0,1,1,2.7386127875258306,0" stroke="#4c78a8" stroke-width="2" opacity="0"/><path aria-label="step: 75; loss: 0.03; rev: workspace" role="graphics-symbol" aria-roledescription="point" transform="translate(225,240)" d="M2.7386127875258306,0A2.7386127875258306,2.7386127875258306,0,1,1,-2.7386127875258306,0A2.7386127875258306,2.7386127875258306,0,1,1,2.7386127875258306,0" stroke="#4c78a8" stroke-width="2" opacity="0"/><path aria-label="step: 76; loss: 0.02; rev: workspace" role="graphics-symbol" aria-roledescription="point" transform="translate(228,247.5)" d="M2.7386127875258306,0A2.7386127875258306,2.7386127875258306,0,1,1,-2.7386127875258306,0A2.7386127875258306,2.7386127875258306,0,1,1,2.7386127875258306,0" stroke="#4c78a8" stroke-width="2" opacity="0"/><path aria-label="step: 77; loss: 0.02; rev: workspace" role="graphics-symbol" aria-roledescription="point" transform="translate(231,247.5)" d="M2.7386127875258306,0A2.7386127875258306,2.7386127875258306,0,1,1,-2.7386127875258306,0A2.7386127875258306,2.7386127875258306,0,1,1,2.7386127875258306,0" stroke="#4c78a8" stroke-width="2" opacity="0"/><path aria-label="step: 78; loss: 0.01; rev: workspace" role="graphics-symbol" aria-roledescription="point" transform="translate(234,255)" d="M2.7386127875258306,0A2.7386127875258306,2.7386127875258306,0,1,1,-2.7386127875258306,0A2.7386127875258306,2.7386127875258306,0,1,1,2.7386127875258306,0" stroke="#4c78a8" stroke-width="2" opacity="0"/><path aria-label="step: 79; loss: 0.01; rev: workspace" role="graphics-symbol" aria-roledescription="point" transform="translate(237,255)" d="M2.7386127875258306,0A2.7386127875258306,2.7386127875258306,0,1,1,-2.7386127875258306,0A2.7386127875258306,2.7386127875258306,0,1,1,2.7386127875258306,0" stroke="#4c78a8" stroke-width="2" opacity="0"/><path aria-label="step: 80; loss: 0.02; rev: workspace" role="graphics-symbol" aria-roledescription="point" transform="translate(240,247.5)" d="M2.7386127875258306,0A2.7386127875258306,2.7386127875258306,0,1,1,-2.7386127875258306,0A2.7386127875258306,2.7386127875258306,0,1,1,2.7386127875258306,0" stroke="#4c78a8" stroke-width="2" opacity="0"/><path aria-label="step: 81; loss: 0.01; rev: workspace" role="graphics-symbol" aria-roledescription="point" transform="translate(243.00000000000003,255)" d="M2.7386127875258306,0A2.7386127875258306,2.7386127875258306,0,1,1,-2.7386127875258306,0A2.7386127875258306,2.7386127875258306,0,1,1,2.7386127875258306,0" stroke="#4c78a8" stroke-width="2" opacity="0"/><path aria-label="step: 82; loss: 0.02; rev: workspace" role="graphics-symbol" aria-roledescription="point" transform="translate(245.99999999999997,247.5)" d="M2.7386127875258306,0A2.7386127875258306,2.7386127875258306,0,1,1,-2.7386127875258306,0A2.7386127875258306,2.7386127875258306,0,1,1,2.7386127875258306,0" stroke="#4c78a8" stroke-width="2" opacity="0"/><path aria-label="step: 83; loss: 0.01; rev: workspace" role="graphics-symbol" aria-roledescription="point" transform="translate(249,255)" d="M2.7386127875258306,0A2.7386127875258306,2.7386127875258306,0,1,1,-2.7386127875258306,0A2.7386127875258306,2.7386127875258306,0,1,1,2.7386127875258306,0" stroke="#4c78a8" stroke-width="2" opacity="0"/><path aria-label="step: 84; loss: 0.01; rev: workspace" role="graphics-symbol" aria-roledescription="point" transform="translate(252,255)" d="M2.7386127875258306,0A2.7386127875258306,2.7386127875258306,0,1,1,-2.7386127875258306,0A2.7386127875258306,2.7386127875258306,0,1,1,2.7386127875258306,0" stroke="#4c78a8" stroke-width="2" opacity="0"/><path aria-label="step: 85; loss: −0.01; rev: workspace" role="graphics-symbol" aria-roledescription="point" transform="translate(255,270)" d="M2.7386127875258306,0A2.7386127875258306,2.7386127875258306,0,1,1,-2.7386127875258306,0A2.7386127875258306,2.7386127875258306,0,1,1,2.7386127875258306,0" stroke="#4c78a8" stroke-width="2" opacity="0"/><path aria-label="step: 86; loss: 0.01; rev: workspace" role="graphics-symbol" aria-roledescription="point" transform="translate(258,255)" d="M2.7386127875258306,0A2.7386127875258306,2.7386127875258306,0,1,1,-2.7386127875258306,0A2.7386127875258306,2.7386127875258306,0,1,1,2.7386127875258306,0" stroke="#4c78a8" stroke-width="2" opacity="0"/><path aria-label="step: 87; loss: 0.01; rev: workspace" role="graphics-symbol" aria-roledescription="point" transform="translate(261,255)" d="M2.7386127875258306,0A2.7386127875258306,2.7386127875258306,0,1,1,-2.7386127875258306,0A2.7386127875258306,2.7386127875258306,0,1,1,2.7386127875258306,0" stroke="#4c78a8" stroke-width="2" opacity="0"/><path aria-label="step: 88; loss: 0; rev: workspace" role="graphics-symbol" aria-roledescription="point" transform="translate(264,262.5)" d="M2.7386127875258306,0A2.7386127875258306,2.7386127875258306,0,1,1,-2.7386127875258306,0A2.7386127875258306,2.7386127875258306,0,1,1,2.7386127875258306,0" stroke="#4c78a8" stroke-width="2" opacity="0"/><path aria-label="step: 89; loss: −0.01; rev: workspace" role="graphics-symbol" aria-roledescription="point" transform="translate(267,270)" d="M2.7386127875258306,0A2.7386127875258306,2.7386127875258306,0,1,1,-2.7386127875258306,0A2.7386127875258306,2.7386127875258306,0,1,1,2.7386127875258306,0" stroke="#4c78a8" stroke-width="2" opacity="0"/><path aria-label="step: 90; loss: 0; rev: workspace" role="graphics-symbol" aria-roledescription="point" transform="translate(270,262.5)" d="M2.7386127875258306,0A2.7386127875258306,2.7386127875258306,0,1,1,-2.7386127875258306,0A2.7386127875258306,2.7386127875258306,0,1,1,2.7386127875258306,0" stroke="#4c78a8" stroke-width="2" opacity="0"/><path aria-label="step: 91; loss: −0.01; rev: workspace" role="graphics-symbol" aria-roledescription="point" transform="translate(273,270)" d="M2.7386127875258306,0A2.7386127875258306,2.7386127875258306,0,1,1,-2.7386127875258306,0A2.7386127875258306,2.7386127875258306,0,1,1,2.7386127875258306,0" stroke="#4c78a8" stroke-width="2" opacity="0"/><path aria-label="step: 92; loss: −0.02; rev: workspace" role="graphics-symbol" aria-roledescription="point" transform="translate(276,277.5)" d="M2.7386127875258306,0A2.7386127875258306,2.7386127875258306,0,1,1,-2.7386127875258306,0A2.7386127875258306,2.7386127875258306,0,1,1,2.7386127875258306,0" stroke="#4c78a8" stroke-width="2" opacity="0"/><path aria-label="step: 93; loss: 0; rev: workspace" role="graphics-symbol" aria-roledescription="point" transform="translate(279,262.5)" d="M2.7386127875258306,0A2.7386127875258306,2.7386127875258306,0,1,1,-2.7386127875258306,0A2.7386127875258306,2.7386127875258306,0,1,1,2.7386127875258306,0" stroke="#4c78a8" stroke-width="2" opacity="0"/><path aria-label="step: 94; loss: 0; rev: workspace" role="graphics-symbol" aria-roledescription="point" transform="translate(282,262.5)" d="M2.7386127875258306,0A2.7386127875258306,2.7386127875258306,0,1,1,-2.7386127875258306,0A2.7386127875258306,2.7386127875258306,0,1,1,2.7386127875258306,0" stroke="#4c78a8" stroke-width="2" opacity="0"/><path aria-label="step: 95; loss: −0.01; rev: workspace" role="graphics-symbol" aria-roledescription="point" transform="translate(285,270)" d="M2.7386127875258306,0A2.7386127875258306,2.7386127875258306,0,1,1,-2.7386127875258306,0A2.7386127875258306,2.7386127875258306,0,1,1,2.7386127875258306,0" stroke="#4c78a8" stroke-width="2" opacity="0"/><path aria-label="step: 96; loss: −0.01; rev: workspace" role="graphics-symbol" aria-roledescription="point" transform="translate(288,270)" d="M2.7386127875258306,0A2.7386127875258306,2.7386127875258306,0,1,1,-2.7386127875258306,0A2.7386127875258306,2.7386127875258306,0,1,1,2.7386127875258306,0" stroke="#4c78a8" stroke-width="2" opacity="0"/><path aria-label="step: 97; loss: −0.02; rev: workspace" role="graphics-symbol" aria-roledescription="point" transform="translate(291,277.5)" d="M2.7386127875258306,0A2.7386127875258306,2.7386127875258306,0,1,1,-2.7386127875258306,0A2.7386127875258306,2.7386127875258306,0,1,1,2.7386127875258306,0" stroke="#4c78a8" stroke-width="2" opacity="0"/><path aria-label="step: 98; loss: −0.01; rev: workspace" role="graphics-symbol" aria-roledescription="point" transform="translate(294,270)" d="M2.7386127875258306,0A2.7386127875258306,2.7386127875258306,0,1,1,-2.7386127875258306,0A2.7386127875258306,2.7386127875258306,0,1,1,2.7386127875258306,0" stroke="#4c78a8" stroke-width="2" opacity="0"/></g><g class="mark-path role-mark layer_0_layer_1_voronoi" role="graphics-symbol" aria-roledescription="path mark container"><path transform="translate(0,0)" d="M0,300L0,0L1.5000002074463834,0L1.5005852651594718,300Z" stroke-width="0.35"/><path transform="translate(0,0)" d="M4.499999796705546,0L4.499426448610979,300L1.5005852651594718,300L1.5000002074463834,0Z" stroke-width="0.35"/><path transform="translate(0,0)" d="M4.499426448610979,300L4.499999796705546,0L7.500000195073259,0L7.500550357061681,300Z" stroke-width="0.35"/><path transform="translate(0,0)" d="M10.499999817051812,0L10.499483851211249,300L7.500550357061681,300L7.500000195073259,0Z" stroke-width="0.35"/><path transform="translate(0,0)" d="M10.499483851211249,300L10.499999817051812,0L13.50000016716074,0L13.500471607922645,300Z" stroke-width="0.35"/><path transform="translate(0,0)" d="M16.49999985197167,0L16.499582370039757,300L13.500471607922645,300L13.50000016716074,0Z" stroke-width="0.35"/><path transform="translate(0,0)" d="M16.499582370039757,300L16.49999985197167,0L19.500000125932342,0L19.500355290894476,300Z" stroke-width="0.35"/><path transform="translate(0,0)" d="M22.499999898683427,0L22.49971415716489,300L19.500355290894476,300L19.500000125932342,0Z" stroke-width="0.35"/><path transform="translate(0,0)" d="M22.49971415716489,300L22.499999898683427,0L25.500000074672286,0L25.50021067172593,300Z" stroke-width="0.35"/><path transform="translate(0,0)" d="M28.49999995346604,0L28.499868714479927,300L25.50021067172593,300L25.500000074672286,0Z" stroke-width="0.35"/><path transform="translate(0,0)" d="M31.500000017463915,0L31.50004927065791,300L28.499868714479927,300L28.49999995346604,0Z" stroke-width="0.35"/><path transform="translate(0,0)" d="M34.50000001195554,0L34.50003372998242,300L31.50004927065791,300L31.500000017463915,0Z" stroke-width="0.35"/><path transform="translate(0,0)" d="M37.49999995886438,0L37.49988394473985,300L34.50003372998242,300L34.50000001195554,0Z" stroke-width="0.35"/><path transform="translate(0,0)" d="M40.50000006949267,0L40.500196058558544,300L37.49988394473985,300L37.49999995886438,0Z" stroke-width="0.35"/><path transform="translate(0,0)" d="M43.49999990354167,0L43.49972786366555,300L40.500196058558544,300L40.50000006949267,0Z" stroke-width="0.35"/><path transform="translate(0,0)" d="M46.50000012149402,0L46.50034276913824,300L43.49972786366555,300L43.49999990354167,0Z" stroke-width="0.35"/><path transform="translate(0,0)" d="M49.49999985590274,0L49.499593460705974,300L46.50034276913825,300L46.500000121494026,0Z" stroke-width="0.35"/><path transform="translate(0,0)" d="M52.500000163817184,0L52.50046217479837,300L49.499593460705974,300L49.49999985590274,0Z" stroke-width="0.35"/><path transform="translate(0,0)" d="M55.49999981974246,0L55.49949144230017,300L52.50046217479837,300L52.500000163817184,0Z" stroke-width="0.35"/><path transform="translate(0,0)" d="M58.50000019309071,0L58.50054476374953,300L55.49949144230017,300L55.49999981974246,0Z" stroke-width="0.35"/><path transform="translate(0,0)" d="M61.49999979794136,0L61.499429935193824,300L58.50054476374954,300L58.50000019309072,0Z" stroke-width="0.35"/><path transform="translate(0,0)" d="M64.50000020698272,0L64.50058395704069,300L61.49942993519382,300L61.499999797941356,0Z" stroke-width="0.35"/><path transform="translate(0,0)" d="M67.49999979223611,0L67.49941383906175,300L64.50058395704069,300L64.50000020698272,0Z" stroke-width="0.35"/><path transform="translate(0,0)" d="M67.49941383906175,300L67.49999979223611,0L70.5000002043866,0L70.50057663262295,300Z" stroke-width="0.35"/><path transform="translate(0,0)" d="M73.49999980308122,0L73.49944443618577,300L70.50057663262294,300L70.50000020438658,0Z" stroke-width="0.35"/><path transform="translate(0,0)" d="M73.49944443618575,300L73.49999980308121,0L76.50000018550915,0L76.50052337402951,300Z" stroke-width="0.35"/><path transform="translate(0,0)" d="M79.49999982961278,0L79.49951928928597,300L76.50052337402953,300L76.50000018550917,0Z" stroke-width="0.35"/><path transform="translate(0,0)" d="M79.49951928928598,300L79.49999982961279,0L82.50000015185422,0L82.50042842386854,300Z" stroke-width="0.35"/><path transform="translate(0,0)" d="M85.49999986971736,0L85.49963243565145,300L82.50042842386854,300L82.50000015185422,0Z" stroke-width="0.35"/><path transform="translate(0,0)" d="M85.49963243565145,300L85.49999986971736,0L88.5000001061027,0L88.50029934584094,300Z" stroke-width="0.35"/><path transform="translate(0,0)" d="M91.49999992020021,0L91.49977486211249,300L88.50029934584094,300L88.5000001061027,0Z" stroke-width="0.35"/><path transform="translate(0,0)" d="M91.49977486211249,300L91.49999992020021,0L94.50000005189914,0L94.50014642221237,300Z" stroke-width="0.35"/><path transform="translate(0,0)" d="M97.49999997703989,0L97.49993522302314,300L94.50014642221237,300L94.50000005189914,0Z" stroke-width="0.35"/><path transform="translate(0,0)" d="M100.49999999356136,0L100.49998183473879,300L97.49993522302314,300L97.49999997703989,0Z" stroke-width="0.35"/><path transform="translate(0,0)" d="M103.5000000357086,0L103.50010074405992,300L100.49998183473879,300L100.49999999356136,0Z" stroke-width="0.35"/><path transform="translate(0,0)" d="M106.49999993573647,0L106.49981869429125,300L103.50010074405992,300L103.5000000357086,0Z" stroke-width="0.35"/><path transform="translate(0,0)" d="M109.50000009153273,0L109.50025823983749,300L106.49981869429125,300L106.49999993573647,0Z" stroke-width="0.35"/><path transform="translate(0,0)" d="M112.49999988303072,0L112.49966999647408,300L109.5002582398375,300L109.50000009153274,0Z" stroke-width="0.35"/><path transform="translate(0,0)" d="M115.5000001400654,0L115.5003951642722,300L112.49966999647408,300L112.49999988303072,0Z" stroke-width="0.35"/><path transform="translate(0,0)" d="M118.49999983964267,0L118.49954758642451,300L115.5003951642722,300L115.5000001400654,0Z" stroke-width="0.35"/><path transform="translate(0,0)" d="M121.50000017744048,0L121.50050061001468,300L118.49954758642451,300L118.49999983964267,0Z" stroke-width="0.35"/><path transform="translate(0,0)" d="M124.49999980902854,0L124.49946121524998,300L121.50050061001468,300L121.50000017744048,0Z" stroke-width="0.35"/><path transform="translate(0,0)" d="M127.50000020068073,0L127.50056617733165,300L124.49946121524997,300L124.49999980902852,0Z" stroke-width="0.35"/><path transform="translate(0,0)" d="M130.499999793627,0L130.4994177632627,300L127.50056617733165,300L127.50000020068073,0Z" stroke-width="0.35"/><path transform="translate(0,0)" d="M133.50000020793482,0L133.50058664321938,300L130.49941776326273,300L130.49999979362704,0Z" stroke-width="0.35"/><path transform="translate(0,0)" d="M136.49999979466506,0L136.4994206918874,300L133.50058664321938,300L133.50000020793482,0Z" stroke-width="0.35"/><path transform="translate(0,0)" d="M139.50000019862497,0L139.50056037744932,300L136.4994206918874,300L136.49999979466506,0Z" stroke-width="0.35"/><path transform="translate(0,0)" d="M142.49999981206,0L142.49946976790605,300L139.50056037744932,300L139.50000019862497,0Z" stroke-width="0.35"/><path transform="translate(0,0)" d="M145.50000017349277,0L145.50048947240842,300L142.49946976790605,300L142.49999981206,0Z" stroke-width="0.35"/><path transform="translate(0,0)" d="M148.49999984442616,0L148.49956108201255,300L145.50048947240845,300L145.5000001734928,0Z" stroke-width="0.35"/><path transform="translate(0,0)" d="M148.49956108201255,300L148.49999984442616,0L151.5000001345403,0L151.50037957639884,300Z" stroke-width="0.35"/><path transform="translate(0,0)" d="M151.50037957639884,300L151.5000001345403,0L154.4999998891853,0L154.4996873602068,300Z" stroke-width="0.35"/><path transform="translate(0,0)" d="M154.4996873602068,300L154.4999998891853,0L157.5000000848705,0L157.50023944368263,300Z" stroke-width="0.35"/><path transform="translate(0,0)" d="M157.5002394436826,300L157.50000008487046,0L160.4999999427719,0L160.49983854322804,300Z" stroke-width="0.35"/><path transform="translate(0,0)" d="M160.49983854322804,300L160.4999999427719,0L163.5000000284399,0L163.50008023711928,300Z" stroke-width="0.35"/><path transform="translate(0,0)" d="M163.5000802371193,300L163.50000002843993,0L166.50000000091728,0L166.50000258787378,300Z" stroke-width="0.35"/><path transform="translate(0,0)" d="M169.4999999697439,0L169.4999146389492,300L166.50000258787378,300L166.50000000091728,0Z" stroke-width="0.35"/><path transform="translate(0,0)" d="M169.4999146389492,300L169.4999999697439,0L172.50000005898954,0L172.50016642636976,300Z" stroke-width="0.35"/><path transform="translate(0,0)" d="M175.49999991345805,0L175.4997558405531,300L172.50016642636976,300L172.50000005898954,0Z" stroke-width="0.35"/><path transform="translate(0,0)" d="M175.4997558405531,300L175.49999991345805,0L178.5000001123628,0L178.50031700736403,300Z" stroke-width="0.35"/><path transform="translate(0,0)" d="M181.499999864066,0L181.49961649165755,300L178.50031700736403,300L178.5000001123628,0Z" stroke-width="0.35"/><path transform="translate(0,0)" d="M181.49961649165758,300L181.49999986406604,0L184.5000001567852,0L184.50044233561204,300Z" stroke-width="0.35"/><path transform="translate(0,0)" d="M187.49999982550239,0L187.4995076926847,300L184.50044233561204,300L184.5000001567852,0Z" stroke-width="0.35"/><path transform="translate(0,0)" d="M187.4995076926847,300L187.49999982550239,0L190.50000018871816,0L190.50053242752662,300Z" stroke-width="0.35"/><path transform="translate(0,0)" d="M193.49999980083908,0L193.49943811050852,300L190.50053242752662,300L190.50000018871816,0Z" stroke-width="0.35"/><path transform="translate(0,0)" d="M193.49943811050852,300L193.49999980083908,0L196.5000002056179,0L196.50058010646796,300Z" stroke-width="0.35"/><path transform="translate(0,0)" d="M196.50058010646796,300L196.5000002056179,0L199.4999997920408,0L199.49941328805355,300Z" stroke-width="0.35"/><path transform="translate(0,0)" d="M199.49941328805355,300L199.4999997920408,0L202.50000020613822,0L202.50058157442106,300Z" stroke-width="0.35"/><path transform="translate(0,0)" d="M202.50058157442106,300L202.50000020613822,0L205.49999979980842,0L205.49943520273348,300Z" stroke-width="0.35"/><path transform="translate(0,0)" d="M205.49943520273348,300L205.49999979980842,0L208.50000019023767,0L208.50053671452417,300Z" stroke-width="0.35"/><path transform="translate(0,0)" d="M208.50053671452417,300L208.50000019023767,0L211.4999998235232,0L211.49950210890944,300Z" stroke-width="0.35"/><path transform="translate(0,0)" d="M211.49950210890947,300L211.49999982352324,0L214.50000015918297,0L214.50044910035467,300Z" stroke-width="0.35"/><path transform="translate(0,0)" d="M214.50044910035467,300L214.50000015918297,0L217.49999986129612,0L217.49960867692408,300Z" stroke-width="0.35"/><path transform="translate(0,0)" d="M217.49960867692408,300L217.49999986129612,0L220.50000011544788,0L220.50032571123978,300Z" stroke-width="0.35"/><path transform="translate(0,0)" d="M220.50032571123978,300L220.50000011544788,0L223.4999999101181,0L223.49974641764317,300Z" stroke-width="0.35"/><path transform="translate(0,0)" d="M223.49974641764314,300L223.49999991011808,0L226.5000000625163,0L226.5001763762775,300Z" stroke-width="0.35"/><path transform="translate(0,0)" d="M226.5001763762775,300L226.5000000625163,0L229.49999996610006,0L229.49990435869145,300Z" stroke-width="0.35"/><path transform="translate(0,0)" d="M229.49990435869145,300L229.49999996610006,0L232.50000000460477,0L232.50001299135857,300Z" stroke-width="0.35"/><path transform="translate(0,0)" d="M232.50001299135857,300L232.50000000460477,0L235.5000000247825,0L235.50006991851447,300Z" stroke-width="0.35"/><path transform="translate(0,0)" d="M235.50006991851447,300L235.5000000247825,0L238.4999999463264,0L238.4998485715614,300Z" stroke-width="0.35"/><path transform="translate(0,0)" d="M238.4998485715614,300L238.4999999463264,0L241.5000000814908,0L241.50022990863715,300Z" stroke-width="0.35"/><path transform="translate(0,0)" d="M244.49999989232364,0L244.49969621440027,300L241.50022990863715,300L241.5000000814908,0Z" stroke-width="0.35"/><path transform="translate(0,0)" d="M244.49969621440027,300L244.49999989232364,0L247.5000001317075,0L247.50037158427335,300Z" stroke-width="0.35"/><path transform="translate(0,0)" d="M250.49999984689828,0L250.49956805650766,300L247.50037158427335,300L247.5000001317075,0Z" stroke-width="0.35"/><path transform="translate(0,0)" d="M250.49956805650766,300L250.49999984689828,0L253.50000017143242,0L253.50048365958858,300Z" stroke-width="0.35"/><path transform="translate(0,0)" d="M256.4999998136688,0L256.499474306853,300L253.50048365958858,300L253.50000017143242,0Z" stroke-width="0.35"/><path transform="translate(0,0)" d="M256.499474306853,300L256.4999998136688,0L259.5000001975011,0L259.50055720673373,300Z" stroke-width="0.35"/><path transform="translate(0,0)" d="M262.4999997952824,0L262.49942243350694,300L259.50055720673373,300L259.5000001975011,0Z" stroke-width="0.35"/><path transform="translate(0,0)" d="M262.49942243350694,300L262.4999997952824,0L265.50000020783693,0L265.50058636703056,300Z" stroke-width="0.35"/><path transform="translate(0,0)" d="M268.49999979320364,0L268.49941656873034,300L265.50058636703056,300L265.50000020783693,0Z" stroke-width="0.35"/><path transform="translate(0,0)" d="M268.49941656873034,300L268.49999979320364,0L271.5000002016166,0L271.5005688176565,300Z" stroke-width="0.35"/><path transform="translate(0,0)" d="M274.4999998075982,0L274.4994571797823,300L271.5005688176565,300L271.5000002016166,0Z" stroke-width="0.35"/><path transform="translate(0,0)" d="M274.4994571797823,300L274.4999998075982,0L277.5000001793356,0L277.5005059566574,300Z" stroke-width="0.35"/><path transform="translate(0,0)" d="M280.4999998373193,0L280.4995410316753,300L277.5005059566574,300L277.5000001793356,0Z" stroke-width="0.35"/><path transform="translate(0,0)" d="M280.4995410316753,300L280.4999998373193,0L283.50000014276884,0L283.5004027915575,300Z" stroke-width="0.35"/><path transform="translate(0,0)" d="M286.4999998799996,0L286.49966144485194,300L283.5004027915575,300L283.50000014276884,0Z" stroke-width="0.35"/><path transform="translate(0,0)" d="M286.49966144485194,300L286.4999998799996,0L289.5000000948294,0L289.50026754044643,300Z" stroke-width="0.35"/><path transform="translate(0,0)" d="M292.4999999322391,0L292.4998088272634,300L289.50026754044643,300L289.5000000948294,0Z" stroke-width="0.35"/><path transform="translate(0,0)" d="M292.4998088272634,300L292.4999999322391,0L300,0L300,300Z" stroke-width="0.35"/></g><g class="mark-rule role-mark layer_1_layer_0_marks" role="graphics-symbol" aria-roledescription="rule mark container" pointer-events="none"/><g class="mark-text role-mark layer_1_layer_1_layer_0_marks" role="graphics-object" aria-roledescription="text mark container" pointer-events="none"/><g class="mark-group role-legend" role="graphics-symbol" aria-roledescription="legend" aria-label="Symbol legend titled 'rev' for fill color and stroke color with 1 value: workspace"><g transform="translate(318,0)"><path class="background" aria-hidden="true" d="M0,0h64v29h-64Z" pointer-events="none"/><g><g class="mark-group role-legend-entry"><g transform="translate(0,16)"><path class="background" aria-hidden="true" d="M0,0h0v0h0Z" pointer-events="none"/><g><g class="mark-group role-scope" role="graphics-object" aria-roledescription="group mark container"><g transform="translate(0,0)"><path class="background" aria-hidden="true" d="M0,0h63.7978515625v12.5h-63.7978515625Z" pointer-events="none" opacity="1"/><g><g class="mark-symbol role-legend-symbol" pointer-events="none"><path transform="translate(6,6)" d="M5,0A5,5,0,1,1,-5,0A5,5,0,1,1,5,0" fill="#4c78a8" stroke="#4c78a8" stroke-width="1.5" opacity="1"/></g><g class="mark-text role-legend-label" pointer-events="none"><text text-anchor="start" transform="translate(16,9)" font-family="sans-serif" font-size="10px" fill="#000" opacity="1">workspace</text></g></g><path class="foreground" aria-hidden="true" d="" pointer-events="none" display="none"/></g></g></g><path class="foreground" aria-hidden="true" d="" pointer-events="none" display="none"/></g></g><g class="mark-text role-legend-title" pointer-events="none"><text text-anchor="start" transform="translate(0,9)" font-family="sans-serif" font-size="11px" font-weight="bold" fill="#000" opacity="1">rev</text></g></g><path class="foreground" aria-hidden="true" d="" pointer-events="none" display="none"/></g></g><g class="mark-group role-title"><g transform="translate(150,-22)"><path class="background" aria-hidden="true" d="M0,0h0v0h0Z" pointer-events="none"/><g><g class="mark-text role-title-text" role="graphics-symbol" aria-roledescription="title" aria-label="Title text 'data.csv'" pointer-events="none"><text text-anchor="middle" transform="translate(0,10)" font-family="sans-serif" font-size="13px" font-weight="bold" fill="#000" opacity="1">data.csv</text></g></g><path class="foreground" aria-hidden="true" d="" pointer-events="none" display="none"/></g></g></g><path class="foreground" aria-hidden="true" d="" display="none"/></g></g></g></svg>