<svg class="marks" width="336" height="247" viewBox="0 0 330 242" version="1.1" xmlns="http://www.w3.org/2000/svg" xmlns:xlink="http://www.w3.org/1999/xlink"><rect width="330" height="242" style="fill: white;"></rect><g transform="translate(41,5)"><g class="mark-group role-frame root"><g transform="translate(0,0)"><path class="background" d="M0.5,0.5h200v200h-200Z" style="fill: none; stroke: #ddd;"></path><g><g class="mark-group role-axis"><g transform="translate(0.5,200.5)"><path class="background" d="M0,0h0v0h0Z" style="pointer-events: none; fill: none;"></path><g><g class="mark-rule role-axis-grid" style="pointer-events: none;"><line transform="translate(0,-200)" x2="0" y2="200" style="fill: none; stroke: #ddd; stroke-width: 1; opacity: 1;"></line><line transform="translate(40,-200)" x2="0" y2="200" style="fill: none; stroke: #ddd; stroke-width: 1; opacity: 1;"></line><line transform="translate(80,-200)" x2="0" y2="200" style="fill: none; stroke: #ddd; stroke-width: 1; opacity: 1;"></line><line transform="translate(120,-200)" x2="0" y2="200" style="fill: none; stroke: #ddd; stroke-width: 1; opacity: 1;"></line><line transform="translate(160,-200)" x2="0" y2="200" style="fill: none; stroke: #ddd; stroke-width: 1; opacity: 1;"></line><line transform="translate(200,-200)" x2="0" y2="200" style="fill: none; stroke: #ddd; stroke-width: 1; opacity: 1;"></line></g></g><path class="foreground" d="" style="pointer-events: none; display: none; fill: none;"></path></g></g><g class="mark-group role-axis"><g transform="translate(0.5,0.5)"><path class="background" d="M0,0h0v0h0Z" style="pointer-events: none; fill: none;"></path><g><g class="mark-rule role-axis-grid" style="pointer-events: none;"><line transform="translate(0,200)" x2="200" y2="0" style="fill: none; stroke: #ddd; stroke-width: 1; opacity: 1;"></line><line transform="translate(0,164)" x2="200" y2="0" style="fill: none; stroke: #ddd; stroke-width: 1; opacity: 1;"></line><line transform="translate(0,127)" x2="200" y2="0" style="fill: none; stroke: #ddd; stroke-width: 1; opacity: 1;"></line><line transform="translate(0,91)" x2="200" y2="0" style="fill: none; stroke: #ddd; stroke-width: 1; opacity: 1;"></line><line transform="translate(0,55)" x2="200" y2="0" style="fill: none; stroke: #ddd; stroke-width: 1; opacity: 1;"></line><line transform="translate(0,18)" x2="200" y2="0" style="fill: none; stroke: #ddd; stroke-width: 1; opacity: 1;"></line></g></g><path class="foreground" d="" style="pointer-events: none; display: none; fill: none;"></path></g></g><g class="mark-group role-axis"><g transform="translate(0.5,200.5)"><path class="background" d="M0,0h0v0h0Z" style="pointer-events: none; fill: none;"></path><g><g class="mark-rule role-axis-tick" style="pointer-events: none;"><line transform="translate(0,0)" x2="0" y2="5" style="fill: none; stroke: #888; stroke-width: 1; opacity: 1;"></line><line transform="translate(40,0)" x2="0" y2="5" style="fill: none; stroke: #888; stroke-width: 1; opacity: 1;"></line><line transform="translate(80,0)" x2="0" y2="5" style="fill: none; stroke: #888; stroke-width: 1; opacity: 1;"></line><line transform="translate(120,0)" x2="0" y2="5" style="fill: none; stroke: #888; stroke-width: 1; opacity: 1;"></line><line transform="translate(160,0)" x2="0" y2="5" style="fill: none; stroke: #888; stroke-width: 1; opacity: 1;"></line><line transform="translate(200,0)" x2="0" y2="5" style="fill: none; stroke: #888; stroke-width: 1; opacity: 1;"></line></g><g class="mark-text role-axis-label" style="pointer-events: none;"><text text-anchor="start" transform="translate(0,15)" style="font-family: sans-serif; font-size: 10px; fill: #000; opacity: 1;">0</text><text text-anchor="middle" transform="translate(40,15)" style="font-family: sans-serif; font-size: 10px; fill: #000; opacity: 1;">200</text><text text-anchor="middle" transform="translate(80,15)" style="font-family: sans-serif; font-size: 10px; fill: #000; opacity: 1;">400</text><text text-anchor="middle" transform="translate(120,15)" style="font-family: sans-serif; font-size: 10px; fill: #000; opacity: 1;">600</text><text text-anchor="middle" transform="translate(160,15)" style="font-family: sans-serif; font-size: 10px; fill: #000; opacity: 1;">800</text><text text-anchor="end" transform="translate(200,15)" style="font-family: sans-serif; font-size: 10px; fill: #000; opacity: 1;">1,000</text></g><g class="mark-rule role-axis-domain" style="pointer-events: none;"><line transform="translate(0,0)" x2="200" y2="0" style="fill: none; stroke: #888; stroke-width: 1; opacity: 1;"></line></g><g class="mark-text role-axis-title" style="pointer-events: none;"><text text-anchor="middle" transform="translate(100,30)" style="font-family: sans-serif; font-size: 11px; font-weight: bold; fill: #000; opacity: 1;">index</text></g></g><path class="foreground" d="" style="pointer-events: none; display: none; fill: none;"></path></g></g><g class="mark-group role-axis"><g transform="translate(0.5,0.5)"><path class="background" d="M0,0h0v0h0Z" style="pointer-events: none; fill: none;"></path><g><g class="mark-rule role-axis-tick" style="pointer-events: none;"><line transform="translate(0,200)" x2="-5" y2="0" style="fill: none; stroke: #888; stroke-width: 1; opacity: 1;"></line><line transform="translate(0,164)" x2="-5" y2="0" style="fill: none; stroke: #888; stroke-width: 1; opacity: 1;"></line><line transform="translate(0,127)" x2="-5" y2="0" style="fill: none; stroke: #888; stroke-width: 1; opacity: 1;"></line><line transform="translate(0,91)" x2="-5" y2="0" style="fill: none; stroke: #888; stroke-width: 1; opacity: 1;"></line><line transform="translate(0,55)" x2="-5" y2="0" style="fill: none; stroke: #888; stroke-width: 1; opacity: 1;"></line><line transform="translate(0,18)" x2="-5" y2="0" style="fill: none; stroke: #888; stroke-width: 1; opacity: 1;"></line></g><g class="mark-text role-axis-label" style="pointer-events: none;"><text text-anchor="end" transform="translate(-7,203)" style="font-family: sans-serif; font-size: 10px; fill: #000; opacity: 1;">0.2</text><text text-anchor="end" transform="translate(-7,166.63636363636363)" style="font-family: sans-serif; font-size: 10px; fill: #000; opacity: 1;">0.4</text><text text-anchor="end" transform="translate(-7,130.2727272727273)" style="font-family: sans-serif; font-size: 10px; fill: #000; opacity: 1;">0.6</text><text text-anchor="end" transform="translate(-7,93.90909090909089)" style="font-family: sans-serif; font-size: 10px; fill: #000; opacity: 1;">0.8</text><text text-anchor="end" transform="translate(-7,57.54545454545454)" style="font-family: sans-serif; font-size: 10px; fill: #000; opacity: 1;">1.0</text><text text-anchor="end" transform="translate(-7,21.181818181818187)" style="font-family: sans-serif; font-size: 10px; fill: #000; opacity: 1;">1.2</text></g><g class="mark-rule role-axis-domain" style="pointer-events: none;"><line transform="translate(0,200)" x2="0" y2="-200" style="fill: none; stroke: #888; stroke-width: 1; opacity: 1;"></line></g><g class="mark-text role-axis-title" style="pointer-events: none;"><text text-anchor="middle" transform="translate(-24.9013671875,100) rotate(-90) translate(0,-2)" style="font-family: sans-serif; font-size: 11px; font-weight: bold; fill: #000; opacity: 1;">y</text></g></g><path class="foreground" d="" style="pointer-events: none; display: none; fill: none;"></path></g></g><g class="mark-group role-scope pathgroup"><g transform="translate(0,0)"><path class="background" d="M0,0h200v200h-200Z" style="fill: none;"></path><g><g class="mark-line role-mark marks"><path d="M0,11.444247750779567L0.2,11.442748058560248L0.4,11.44134462310511L0.6,11.440037241496892L0.8,11.438825392117424L1,11.437708948178148L1.2,11.436688534653229L1.4000000000000001,11.435765370011296L1.6,11.434941140796596L1.7999999999999998,11.434217044464612L2,11.433593656731734L2.1999999999999997,11.433070988780635L2.4,11.432648253858368L2.6,11.432324041226515L2.8000000000000003,11.432097350006142L3,11.431967676451826L3.2,11.431934853131164L3.4000000000000004,11.43199889372395L3.5999999999999996,11.432160215795939L3.8,11.432418799473588L4,11.432774521806156L4.2,11.433227939980872L4.3999999999999995,11.433780150817041L4.6,11.43443206421113L4.8,11.435184540517174L5,11.436038374293789L5.2,11.43699389608106L5.4,11.438051216946054L5.6000000000000005,11.43921060781885L5.800000000000001,11.440472380166478L6,11.441836692640095L6.2,11.443303281795657L6.4,11.444872368642113L6.6000000000000005,11.446544735428365L6.800000000000001,11.44832076975819L7.000000000000001,11.450200613618321L7.199999999999999,11.452184222783579L7.3999999999999995,11.454271470255971L7.6,11.456462437159143L7.8,11.458757199400171L8,11.461156253005168L8.200000000000001,11.463659806715931L8.4,11.46626753513116L8.6,11.468979128339395L8.799999999999999,11.471794182253925L9,11.474712000135057L9.2,11.477731933047597L9.4,11.48085327663415L9.6,11.484075050462362L9.8,11.487396672586335L10,11.490818009365956L10.2,11.49433936604094L10.4,11.497960649093763L10.6,11.501681342633653L10.8,11.505500393887802L11,11.509416608865152L11.200000000000001,11.513428536445813L11.4,11.517534598123301L11.600000000000001,11.52173373965153L11.799999999999999,11.526025275504237L12,11.530408232435207L12.2,11.534881815956766L12.4,11.539445589631136L12.6,11.54409943653889L12.8,11.548842723233864L13,11.553674085610389L13.200000000000001,11.558591616669943L13.4,11.563593543880323L13.600000000000001,11.568678107468667L13.8,11.573843770116321L14.000000000000002,11.579089170760003L14.2,11.584413464887454L14.399999999999999,11.58981605910785L14.6,11.595296023232105L14.799999999999999,11.600852734359135L15,11.6064861588961L15.2,11.612196423882537L15.4,11.617983491159745L15.6,11.623847684893796L15.8,11.629789355962373L16,11.635808945590664L16.2,11.641906642662825L16.400000000000002,11.648082904850487L16.6,11.654337882475918L16.8,11.660671902202214L17,11.667085623851857L17.2,11.673579447954264L17.4,11.680154305843903L17.599999999999998,11.68681173278232L17.8,11.693552948457508L18,11.700378614041917L18.2,11.70728918330941L18.4,11.714284741234593L18.6,11.721365060616296L18.8,11.728529793679332L19,11.73577870313396L19.2,11.743111680369744L19.400000000000002,11.75052870821045L19.6,11.758029708065521L19.8,11.76561482442171L20,11.773283735810857L20.200000000000003,11.78103605299874L20.4,11.788871916725952L20.599999999999998,11.796791684693385L20.8,11.804795707441752L21,11.812884667052481L21.2,11.821059773309472L21.4,11.829322213596672L21.6,11.837673872899135L21.8,11.84611732827796L22,11.854654685705235L22.2,11.863287721845861L22.400000000000002,11.872018864070233L22.6,11.880851492300293L22.8,11.88978953360742L23,11.898837168081444L23.200000000000003,11.9079981041037L23.400000000000002,11.91727537126095L23.599999999999998,11.926671393798017L23.799999999999997,11.9361885322683L24,11.945828846640127L24.2,11.95559406038531L24.4,11.965486576871442L24.6,11.975509240311922L24.8,11.98566542614483L25,11.995959208659212L25.2,12.006395270550229L25.4,12.016978695438741L25.6,12.027714875580585L25.8,12.03861051309687L26,12.049674363730634L26.200000000000003,12.060917552754225L26.400000000000002,12.072352848750278L26.6,12.083995315958207L26.8,12.095862837606063L27,12.107977094647238L27.200000000000003,12.120363092947951L27.400000000000002,12.133049714436073L27.6,12.146068835512146L27.800000000000004,12.159455682818265L28.000000000000004,12.17324939856077L28.199999999999996,12.187493955014283L28.4,12.202236142898148L28.599999999999998,12.217525469921299L28.799999999999997,12.233413890359435L28.999999999999996,12.249954334757462L29.2,12.267196943358694L29.4,12.285185412274103L29.599999999999998,12.303953535278911L29.799999999999997,12.323517140649876L30,12.364746491052747L30.2,12.406800121065654L30.4,12.449678465129455L30.599999999999998,12.493396043391257L30.8,12.537975625212505L31,12.583432990799604L31.2,12.629781297239662L31.4,12.677035237908951L31.6,12.725206711742686L31.8,12.77430296552151L32,12.82433047516982L32.2,12.875306759213444L32.4,12.927261701367465L32.6,12.980230479544641L32.800000000000004,13.034247977379L33,13.089346862957463L33.2,13.14555672940676L33.4,13.202907749925807L33.6,13.261430798067941L33.800000000000004,13.321161143750126L34,13.382126841035458L34.2,13.444339106028425L34.4,13.50779644215856L34.599999999999994,13.572498838319458L34.8,13.638441244628762L35,13.70561737242979L35.199999999999996,13.774020174451419L35.4,13.843638032890437L35.6,13.914455215635257L35.8,13.986459228061253L36,14.059638449693068L36.199999999999996,14.133983554365436L36.4,14.209481669524692L36.6,14.286115696375145L36.8,14.363875025094309L37,14.442756643274857L37.2,14.522765339300502L37.4,14.603910660895036L37.6,14.686203461526048L37.8,14.769656917751162L38,14.854280377725937L38.2,14.940083589983754L38.4,15.027076594223754L38.6,15.115268336333564L38.800000000000004,15.204670665958698L39,15.295300750429952L39.2,15.387173782658682L39.4,15.48030228927546L39.6,15.574697927334524L39.800000000000004,15.670353755761113L40,15.76724305845989L40.2,15.865326284226944L40.400000000000006,15.964573051602482L40.6,16.064966337753205L40.8,16.16650329046765L41,16.2691891911108L41.199999999999996,16.37304077354349L41.4,16.478082075209024L41.6,16.584330592975903L41.8,16.6917906760506L42,16.800459015026604L42.199999999999996,16.910325332707842L42.4,17.02137766203926L42.6,17.133597015328974L42.8,17.246968496219715L43,17.36148866820455L43.2,17.477157117952235L43.4,17.59396433495224L43.6,17.711905150248143L43.8,17.83097926120987L44,17.951188812180206L44.2,18.07253532170119L44.4,18.19502026829205L44.6,18.3186459776403L44.800000000000004,18.443406836611143L45,18.569284579371548L45.2,18.696261924981037L45.4,18.82432657055213L45.6,18.953453012722264L45.800000000000004,19.08360835094807L46,19.21475329475748L46.2,19.346846755523316L46.400000000000006,19.479841364453286L46.6,19.613700538577227L46.800000000000004,19.748383907506263L47,19.88383933898261L47.199999999999996,20.02001123861561L47.4,20.156836762073137L47.599999999999994,20.294243166585503L47.8,20.432160906928587L48,20.570529373248057L48.199999999999996,20.709300052975756L48.4,20.848430763231242L48.6,20.987891396885907L48.8,21.127660356478195L49,21.267721156633314L49.2,21.408055348979516L49.4,21.548644441526243L49.6,21.689464624269217L49.8,21.830483948870526L50,21.97167618856963L50.2,22.113019695189394L50.4,22.25448354383799L50.6,22.396037902973887L50.8,22.537660364179345L51,22.679334000825445L51.2,22.82104149281874L51.4,22.962766426758808L51.6,23.104488476304397L51.800000000000004,23.246175474615562L52,23.387792459846324L52.2,23.52930491845391L52.400000000000006,23.670670753721446L52.6,23.811838059693535L52.800000000000004,23.952746751499966L53,24.09333190755043L53.2,24.233530527023927L53.400000000000006,24.373289544175258L53.6,24.512559364530695L53.800000000000004,24.65129678196949L54,24.789471919427754L54.2,24.92706907154274L54.400000000000006,25.064077033529752L54.6,25.20049246875371L54.800000000000004,25.33630890955112L55.00000000000001,25.471514555981933L55.2,25.606095987594223L55.400000000000006,25.740050857334772L55.60000000000001,25.873394305677056L55.800000000000004,26.006145777437027L56.00000000000001,26.138317853834224L56.2,26.269925220975686L56.39999999999999,26.40099168115526L56.599999999999994,26.531545992865535L56.8,26.661614223704923L56.99999999999999,26.791220820428595L57.199999999999996,26.92039212515649L57.4,27.049149311872277L57.599999999999994,27.177521598110776L57.8,27.305538745600224L57.99999999999999,27.43323376083446L58.199999999999996,27.560629195980702L58.4,27.687748702589545L58.599999999999994,27.814620932179636L58.8,27.94127737163372L59,28.067745950812583L59.199999999999996,28.194057016715L59.4,28.320239936707846L59.599999999999994,28.446312221210768L59.8,28.572292853838064L60,28.698200832581232L60.199999999999996,28.824061895810726L60.4,28.94989422249472L60.6,29.07571545609564L60.8,29.201547427824302L61,29.327414256245476L61.199999999999996,29.453336119829785L61.4,29.579323081816522L61.6,29.70537800500599L61.8,29.831499348663336L62,29.957678547813813L62.2,30.0839062633532L62.4,30.210177594078267L62.6,30.33648040539214L62.8,30.462795058816063L63,30.58910772996388L63.2,30.715417761515475L63.4,30.841723876981632L63.6,30.968019706095838L63.800000000000004,31.09430450099091L64,31.220580546685504L64.2,31.346845021216453L64.4,31.47309491406789L64.60000000000001,31.59933762446423L64.8,31.725581838690452L65,31.851833447201905L65.2,31.97809949333039L65.4,32.1043836229095L65.60000000000001,32.23069213321692L65.8,32.35703092971514L66,32.4834054536091L66.2,32.60982408271529L66.4,32.736298538736804L66.60000000000001,32.86283786211133L66.8,32.98944652914167L67,33.1161308722034L67.2,33.242897602947764L67.4,33.36975281869523L67.60000000000001,33.496706950580915L67.80000000000001,33.62376802159681L68,33.75094000237464L68.2,33.878224379247854L68.4,34.00561977444831L68.60000000000001,34.13311701825346L68.8,34.260696962120505L69,34.38833999323976L69.19999999999999,34.51602727471843L69.39999999999999,34.64374580160347L69.6,34.77149286565353L69.8,34.89927395746479L70,35.027109326148164L70.19999999999999,35.15502631328864L70.39999999999999,35.283050853703L70.6,35.411210842390076L70.8,35.539527855068776L71,35.668007420233174L71.2,35.79663926687371L71.39999999999999,35.92540212040958L71.6,36.05426238623362L71.8,36.18319040011182L72,36.312165295255824L72.2,36.44117504038156L72.39999999999999,36.57020787174956L72.6,36.69924746364812L72.8,36.82826819518756L73,36.957239292228294L73.2,37.08612632519737L73.4,37.214907432159116L73.6,37.34356236342724L73.8,37.47206572983759L74,37.60038482813633L74.2,37.728480621408835L74.4,37.856318261937716L74.6,37.98387217818626L74.8,38.11111822810433L75,38.238030015378996L75.2,38.36458574911714L75.4,38.49076109673355L75.6,38.616541442799246L75.8,38.74192503035607L76,38.86691279782397L76.2,38.99150980889434L76.4,39.1157136677444L76.6,39.23952201814811L76.8,39.36293781931117L77,39.48596942779403L77.2,39.608630321790386L77.4,39.73092804409228L77.60000000000001,39.85286253597693L77.8,39.974433094605175L78,40.09563689918421L78.2,40.216465334051875L78.4,40.336905520375744L78.60000000000001,40.45694415986103L78.8,40.57658041348067L79,40.69581669400777L79.2,40.8146588048061L79.4,40.93311468041571L79.60000000000001,41.05120412804835L79.80000000000001,41.16895221759902L80,41.28638530763291L80.2,41.403531456474084L80.4,41.52042256539845L80.60000000000001,41.637090226810905L80.80000000000001,41.7535613268289L81,41.869863049287616L81.2,41.98602401845586L81.39999999999999,42.102069298012125L81.6,42.21802535085495L81.8,42.33392716619857L82,42.44982063213732L82.19999999999999,42.565755752852596L82.39999999999999,42.68178861027418L82.6,42.79796635460671L82.8,42.91432316650508L83,43.03088617331361L83.2,43.14767832781952L83.39999999999999,43.26471067674875L83.6,43.3819983345846L83.8,43.499567033454014L84,43.617441627708175L84.2,43.73564316626042L84.39999999999999,43.85418208179737L84.6,43.97306645415158L84.8,44.09231672924187L85,44.21196813958419L85.2,44.332064382090785L85.39999999999999,44.452650222706616L85.6,44.573773013709925L85.8,44.69549382747775L86,44.81788166684522L86.2,44.94099819546391L86.4,45.064900562161924L86.6,45.189652573597236L86.8,45.31531849204404L87,45.441955785622355L87.2,45.56961065862646L87.4,45.69831968585427L87.6,45.82811770956254L87.8,45.959048280270906L88,46.09115013791776L88.2,46.22444706113369L88.4,46.35895138445114L88.6,46.49467185908185L88.8,46.63160669455677L89,46.769744735584105L89.2,46.909080250735855L89.4,47.0496040708559L89.60000000000001,47.191302248340094L89.8,47.334159597357825L90,47.478162050817076L90.2,47.62329642987106L90.4,47.769560118964314L90.60000000000001,47.91696083858321L90.8,48.06551066695548L91,48.21521380066582L91.2,48.3660782459155L91.4,48.518121088141754L91.60000000000001,48.671366613178236L91.8,48.825826849200624L92,48.98149985129048L92.2,49.13837809684365L92.4,49.29644876322266L92.60000000000001,49.4556946673683L92.80000000000001,49.616108698623876L93,49.77769088904142L93.2,49.94044156808515L93.4,50.104367262196156L93.60000000000001,50.269479700699925L93.8,50.43579730467363L94,50.603332482496285L94.19999999999999,50.7720858813768L94.39999999999999,50.942051332503226L94.6,51.11322295654075L94.8,51.285593112096464L95,51.4591574698362L95.19999999999999,51.63390968125188L95.39999999999999,51.80983130458561L95.6,51.986903113977355L95.8,52.16511312358549L96,52.34444885452578L96.2,52.52489074621502L96.39999999999999,52.706410092044756L96.6,52.88897084419597L96.8,53.072530829990704L97,53.25704366248225L97.2,53.44245937513694L97.39999999999999,53.62872080601122L97.6,53.81576780057819L97.8,54.00354478890159L98,54.19199677789659L98.2,54.38106772266775L98.4,54.57069554305565L98.6,54.76081572526312L98.8,54.951367474555404L99,55.1423003072953L99.2,55.333566296190575L99.4,55.525127245188635L99.6,55.71694940882617L99.8,55.90898555300101L100,56.101167633507096L100.2,56.29341303654971L100.4,56.4856467606367L100.6,56.67780384983643L100.8,56.86983060361215L101,57.061681633558116L101.2,57.253323676186966L101.4,57.44472765314641L101.6,57.63586859980339L101.8,57.82671664581669L102,58.01723620853421L102.2,58.20738750241405L102.4,58.39714348552045L102.60000000000001,58.58648381280798L102.8,58.77539257041944L103,58.963856056572375L103.2,59.15185999308683L103.4,59.33938980819509L103.60000000000001,59.52643123024368L103.8,59.71297187085478L104,59.898999632599434L104.2,60.08451285985912L104.4,60.2695216480313L104.60000000000001,60.45403291224811L104.80000000000001,60.63804767107117L105,60.821566271075646L105.2,61.00460419587497L105.4,61.18719361521032L105.60000000000001,61.3693747394457L105.80000000000001,61.55119269690918L106,61.732690970958906L106.2,61.91390457726476L106.4,62.09486179989534L106.60000000000001,62.275596581512225L106.80000000000001,62.45613495382063L107,62.63649583625202L107.2,62.81669490639712L107.4,62.99674554377985L107.60000000000001,63.17666295304112L107.80000000000001,63.35647115436964L108,63.53619756081541L108.2,63.71587091301563L108.4,63.89552244767853L108.60000000000001,64.07518655345909L108.80000000000001,64.25490793454007L109.00000000000001,64.4347409972178L109.2,64.6147334347989L109.4,64.79493612176444L109.60000000000001,64.97539647659649L109.80000000000001,65.15615083525826L110.00000000000001,65.33722880232374L110.2,65.5186603514471L110.4,65.70046518447312L110.60000000000001,65.88266157585436L110.80000000000001,66.06527567773762L111.00000000000001,66.24834354877842L111.20000000000002,66.43191400354934L111.4,66.61604488183484L111.60000000000001,66.80080547550745L111.80000000000001,66.98626200392121L112.00000000000001,67.17247177979004L112.20000000000002,67.3594880642369L112.4,67.54735608571276L112.6,67.73611670795981L112.79999999999998,67.9257966224998L112.99999999999999,68.11640879183993L113.19999999999999,68.30795951849638L113.39999999999999,68.50045144352221L113.6,68.69387241239144L113.79999999999998,68.88820905593494L113.99999999999999,69.08345628143813L114.19999999999999,69.27960945541149L114.39999999999999,69.47666971220625L114.6,69.67463454696995L114.8,69.87348978919374L114.99999999999999,70.07321101452051L115.19999999999999,70.27375853630761L115.39999999999999,70.47509135957148L115.6,70.67717075253086L115.8,70.87996685073156L115.99999999999999,71.08345200119331L116.19999999999999,71.28760817736845L116.39999999999999,71.49242855320269L116.6,71.69791303843122L116.8,71.90405740560762L117,72.11086506809947L117.19999999999999,72.31834281876164L117.39999999999999,72.52650002210532L117.6,72.73535727165267L117.8,72.94493527062818L118,73.15525523728653L118.19999999999999,73.3663371865342L118.39999999999999,73.57820307692045L118.6,73.79088142851704L118.8,74.0044075767755L119,74.21881726587993L119.19999999999999,74.43414238785732L119.39999999999999,74.65041473042591L119.6,74.86766116697474L119.8,75.0859034567554L120,75.3051562977261L120.19999999999999,75.52542730880134L120.39999999999999,75.74670947002306L120.6,75.96898527483545L120.8,76.19223515125024L121,76.41643351910561L121.2,76.64155592472059L121.39999999999999,76.86757295505863L121.6,77.0944443019703L121.8,77.32212228041895L122,77.55055957973616L122.2,77.7797161515201L122.39999999999999,78.00956149559627L122.6,78.24006793114091L122.8,78.47119506607085L123,78.70289882359786L123.2,78.93514028836317L123.4,79.1678822116722L123.6,79.40109473370009L123.8,79.63475617431757L124,79.86884694567127L124.2,80.10333950835285L124.4,80.33820821856801L124.6,80.57342696231053L124.8,80.80896610818904L125,81.0447949550261L125.2,81.28088580712847L125.4,81.51719962191015L125.6,81.75369365653307L125.8,81.99032157481679L126,82.22703726772482L126.2,82.46379976387679L126.4,82.70057077130394L126.6,82.93731883134595L126.8,83.17400972881957L127,83.41061673311512L127.2,83.64712511563792L127.4,83.88353169195202L127.60000000000001,84.11984333887771L127.8,84.35605687688366L128,84.59216617906196L128.2,84.8281705011476L128.4,85.06408242259931L128.6,85.29992544378271L128.8,85.5357232882975L129,85.77149226229253L129.20000000000002,86.0072377330491L129.4,86.24295768663863L129.6,86.47865348291081L129.8,86.71433082935842L130,86.95000121091869L130.20000000000002,87.185686752014L130.4,87.42140175515397L130.6,87.65715860776847L130.8,87.89296891681333L131,88.1288400883168L131.20000000000002,88.36477253645295L131.4,88.60076006261825L131.6,88.83678512318973L131.8,89.0728242676401L132,89.3088492559513L132.20000000000002,89.54483940676432L132.4,89.78077891832659L132.6,90.01665623146661L132.8,90.25245000663699L133,90.48813563546318L133.20000000000002,90.72369024235545L133.4,90.95910344157738L133.6,91.19437150095216L133.8,91.42949336540099L134,91.66446468849347L134.20000000000002,91.89927443677064L134.4,92.1339163626715L134.60000000000002,92.36838758382282L134.8,92.60269193021664L135,92.83683312929878L135.20000000000002,93.07081754281161L135.4,93.30465173180525L135.60000000000002,93.53834450357536L135.8,93.77190619385969L136,94.00535317780295L136.20000000000002,94.23871104834838L136.4,94.47200360522869L136.60000000000002,94.70525878755434L136.8,94.93851100667874L137,95.171806144041L137.20000000000002,95.40518966527569L137.4,95.6386986482002L137.6,95.87236843628332L137.79999999999998,96.10622716682428L138,96.34028807353945L138.2,96.57455548538958L138.39999999999998,96.80902142488029L138.6,97.04367272749596L138.79999999999998,97.2784965294766L139,97.51347433218707L139.2,97.74859939971405L139.39999999999998,97.98387376865301L139.6,98.21930902404496L139.79999999999998,98.4549115357293L140,98.69068775978438L140.2,98.92665200897257L140.39999999999998,99.16282032826227L140.6,99.39921023032794L140.79999999999998,99.63584407835329L141,99.87273683842896L141.2,100.10989873148561L141.4,100.34734269771587L141.6,100.5850869863662L141.79999999999998,100.82316282040367L142,101.06161449625563L142.2,101.3004926392048L142.4,101.53984821304162L142.6,101.77972844332311L142.79999999999998,102.02017550607674L143,102.26122472883208L143.2,102.50289731973766L143.4,102.74520057123028L143.6,102.98814011305817L143.79999999999998,103.23171663038104L144,103.47592866229797L144.2,103.72077786427418L144.4,103.96625461296259L144.6,104.2123498238499L144.79999999999998,104.45905818701195L145,104.70637480768681L145.2,104.95430338295546L145.4,105.20284329034202L145.6,105.45199822531453L145.79999999999998,105.70178493750602L146,105.95222712592386L146.2,106.20334216158423L146.4,106.45513601549025L146.6,106.70760994802613L146.8,106.96075969626074L147,107.21457337968263L147.2,107.46903680152258L147.4,107.72412711926653L147.6,107.97981932491179L147.8,108.23609235693894L148,108.4929344577406L148.2,108.75032724144873L148.4,109.00824296309919L148.6,109.26666158598826L148.8,109.52556714906166L149,109.78493212436638L149.2,110.04472492422694L149.4,110.3049086990461L149.6,110.56544558784161L149.8,110.82630117285215L150,111.08744274477719L150.2,111.34884549516863L150.4,111.61049779233565L150.6,111.87239569025978L150.8,112.13454625572687L151,112.39695967809679L151.2,112.65964688093308L151.4,112.92262092510867L151.6,113.18589436692714L151.8,113.44947856161139L152,113.71337286534069L152.2,113.97757184401338L152.4,114.24206181899007L152.6,114.50682801644913L152.8,114.77185603298491L153,115.03713708782071L153.2,115.30266243075921L153.4,115.56842039107624L153.6,115.83439311314987L153.8,116.10055919971947L154,116.36689454580309L154.20000000000002,116.63337666653888L154.4,116.89998101813086L154.6,117.16668659715049L154.8,117.43348267676046L155,117.7003682398996L155.20000000000002,117.96735140397834L155.4,118.23444633315312L155.6,118.50167906227303L155.8,118.76908622001994L156,119.03671299908412L156.20000000000002,119.30460706653902L156.4,119.57280873554907L156.6,119.8413567668461L156.8,120.11029146625147L157,120.37964734719391L157.20000000000002,120.64945326110173L157.4,120.91972586053204L157.6,121.19047913195648L157.8,121.46172860214818L158,121.73348418203098L158.20000000000002,122.00574746503054L158.4,122.27852365891347L158.6,122.55181641481042L158.8,122.82562978444935L159,123.09996773498379L159.20000000000002,123.3748253265854L159.4,123.65020358835027L159.60000000000002,123.92610572910993L159.8,124.20253175522235L160,124.47947512309266L160.20000000000002,124.75691781382672L160.4,125.03484277429173L160.60000000000002,125.3132337001985L160.8,125.5920863472892L161,125.87140613650716L161.20000000000002,126.15120808155149L161.4,126.43150248760237L161.60000000000002,126.71229165743401L161.8,126.99356610479641L162,127.27531074434081L162.20000000000002,127.55750958090957L162.4,127.84014949918962L162.6,128.12322668762275L162.79999999999998,128.40674812818838L163,128.6907139283691L163.2,128.97511791727646L163.39999999999998,129.25995239373083L163.6,129.54520473606615L163.79999999999998,129.83086528107225L164,130.11693111728L164.2,130.40340534677966L164.39999999999998,130.6902870914013L164.6,130.97756361098035L164.79999999999998,131.26521552779863L165,131.55321354708605L165.2,131.84152792838353L165.39999999999998,132.13012924717168L165.6,132.4189908865486L165.79999999999998,132.7080900688117L166,132.99740386197755L166.2,133.2869011698853L166.4,133.57654608650643L166.6,133.86630630993756L166.79999999999998,134.15614244773826L167,134.44601599326867L167.2,134.73589090767533L167.4,135.02573176039826L167.6,135.31551573813303L167.79999999999998,135.60523610336884L168,135.89489016785726L168.2,136.18447859402215L168.4,136.4740150506277L168.6,136.7635210794764L168.79999999999998,137.05302488019476L169,137.34255990696178L169.2,137.63215783293356L169.4,137.92184963214117L169.6,138.21166054254311L169.79999999999998,138.50160664694465L170,138.7917072015982L170.2,139.08499780212807L170.4,139.3778205138889L170.6,139.67033468392725L170.79999999999998,139.96267678412957L171,140.25496379226635L171.2,140.54729451800083L171.4,140.83974943229327L171.6,141.13239202952187L171.8,141.425270934183L172,141.71842237990154L172.2,142.01187313213273L172.4,142.30564326448604L172.6,142.59974655141642L172.8,142.89419160885777L173,143.18898307031432L173.2,143.4841230908918L173.4,143.77961166689838L173.6,144.07544603894604L173.8,144.37162225019387L174,144.66813418172865L174.2,144.96497411737593L174.4,145.26213406821705L174.6,145.5596055987312L174.8,145.85737987971066L175,146.15544848497103L175.2,146.45380232043178L175.4,146.7524324427526L175.6,147.0513301333386L175.8,147.35048597733012L176,147.6498903076164L176.2,147.9495339919344L176.4,148.24940907138554L176.6,148.5495086393879L176.8,148.84982679253662L177,149.15035814068668L177.2,149.45109709338635L177.4,149.75203858983167L177.6,150.05317785570185L177.8,150.3545102400501L178,150.65603054222638L178.2,150.95773369903887L178.4,151.259615119139L178.6,151.56166961223622L178.8,151.8638914593739L179,152.16627564664878L179.20000000000002,152.46881796516783L179.4,152.77151423701875L179.6,153.0743596687537L179.8,153.3773492888899L180,153.68047856352237L180.20000000000002,153.98374249112234L180.4,154.2871356277704L180.6,154.5906525287193L180.8,154.8942872576237L181,155.19803349574218L181.20000000000002,155.50188501162006L181.4,155.80583566874606L181.6,156.10987969300902L181.8,156.4140112449831L182,156.71822487770626L182.20000000000002,157.02251492524982L182.4,157.32687582583281L182.6,157.6313019112859L182.8,157.93578793823949L183,158.24032876156306L183.20000000000002,158.54491931870268L183.4,158.84955512753197L183.6,159.1542320051312L183.8,159.4589462792493L184,159.7636944385696L184.20000000000002,160.06847266167335L184.4,160.37327740864134L184.60000000000002,160.67810519251245L184.8,160.98295231106565L185,161.28781469155285L185.20000000000002,161.59268804392073L185.4,161.8975676218939L185.60000000000002,162.20244820756335L185.8,162.50732450990893L186,162.81219096808871L186.20000000000002,163.11704218298416L186.4,163.4218733301887L186.60000000000002,163.7266796776884L186.8,164.03145653839098L187,164.336199626648L187.20000000000002,164.64090472867875L187.4,164.94556794467707L187.6,165.25018510891275L187.79999999999998,165.5547519812429L188,165.85926459386968L188.2,166.1637193926169L188.39999999999998,166.46811250869047L188.6,166.77244004001312L188.79999999999998,167.0766981965766L189,167.38088363265757L189.2,167.68499360291548L189.39999999999998,167.98902559394858L189.6,168.2929773520893L189.79999999999998,168.5968466313665L190,168.90063122461638L190.2,169.2043293132991L190.39999999999998,169.5079393284353L190.6,169.81146010666706L190.79999999999998,170.11489020427814L191,170.41822759931307L191.2,170.72146973459633L191.4,171.0246142184473L191.6,171.32765924949737L191.79999999999998,171.6306036541667L192,171.93344677809165L192.2,172.23618800148282L192.4,172.53882702326592L192.6,172.8413632767444L192.79999999999998,173.1437958072568L193,173.44612398091908L193.2,173.74834765494285L193.4,174.05046731192763L193.6,174.35248388318522L193.79999999999998,174.65439795322672L194,174.95620939257526L194.2,175.25791764159177L194.4,175.55952248225486L194.6,175.86102412818227L194.79999999999998,176.16242267698567L195,176.46371876034732L195.2,176.7649136001598L195.4,177.06600887928596L195.6,177.36700678533893L195.79999999999998,177.6679101231141L196,177.96872219771967L196.2,178.2694467345315L196.4,178.57008762388753L196.6,178.870648640356L196.8,179.17113398352052L197,179.47154795006972L197.2,179.77189509811183L197.4,180.07217987371303L197.6,180.3724059025358L197.8,180.67257609277007L198,180.97269334072126L198.2,181.27275999226816L198.4,181.5727776899259L198.6,181.8727472902644L198.8,182.1726693925201L199,182.4725443061074L199.2,182.77237180374465L199.4,183.07215169396227L199.6,183.3718843998271L199.8,183.67157085374558" style="fill: none; stroke: #4c78a8; stroke-width: 2;"></path></g></g><path class="foreground" d="" style="display: none; fill: none;"></path></g></g><g class="mark-group role-legend"><g transform="translate(220,0)"><path class="background" d="M0,0h64v27h-64Z" style="pointer-events: none; fill: none;"></path><g><g class="mark-group role-legend-entry"><g transform="translate(0,16)"><path class="background" d="M0,0h0v0h0Z" style="pointer-events: none; fill: none;"></path><g><g class="mark-group role-scope"><g transform="translate(0,0)"><path class="background" d="M0,0h63.7978515625v11h-63.7978515625Z" style="pointer-events: none; fill: none; opacity: 1;"></path><g><g class="mark-symbol role-legend-symbol" style="pointer-events: none;"><path transform="translate(6,6)" d="M-5,0L5,0" style="fill: none; stroke: #4c78a8; stroke-width: 1.5; opacity: 1;"></path></g><g class="mark-text role-legend-label" style="pointer-events: none;"><text text-anchor="start" transform="translate(16,9)" style="font-family: sans-serif; font-size: 10px; fill: #000; opacity: 1;">workspace</text></g></g><path class="foreground" d="" style="pointer-events: none; display: none; fill: none;"></path></g></g></g><path class="foreground" d="" style="pointer-events: none; display: none; fill: none;"></path></g></g><g class="mark-text role-legend-title" style="pointer-events: none;"><text text-anchor="start" transform="translate(0,9)" style="font-family: sans-serif; font-size: 11px; font-weight: bold; fill: #000; opacity: 1;">rev</text></g></g><path class="foreground" d="" style="pointer-events: none; display: none; fill: none;"></path></g></g></g><path class="foreground" d="" style="display: none; fill: none;"></path></g></g></g></svg>