<svg xmlns="http://www.w3.org/2000/svg" xmlns:xlink="http://www.w3.org/1999/xlink" version="1.1" class="marks" width="300" height="242" viewBox="0 0 430 347"><rect width="430" height="347" fill="white"/><g fill="none" stroke-miterlimit="10" transform="translate(41,10)"><g class="mark-group role-frame root" role="graphics-object" aria-roledescription="group mark container"><g transform="translate(0,0)"><path class="background" aria-hidden="true" d="M0.5,0.5h300v300h-300Z" stroke="#ddd"/><g><g class="mark-group role-axis" aria-hidden="true"><g transform="translate(0.5,300.5)"><path class="background" aria-hidden="true" d="M0,0h0v0h0Z" pointer-events="none"/><g><g class="mark-rule role-axis-grid" pointer-events="none"><line transform="translate(0,-300)" x2="0" y2="300" stroke="#ddd" stroke-width="1" opacity="1"/><line transform="translate(30,-300)" x2="0" y2="300" stroke="#ddd" stroke-width="1" opacity="1"/><line transform="translate(60,-300)" x2="0" y2="300" stroke="#ddd" stroke-width="1" opacity="1"/><line transform="translate(90,-300)" x2="0" y2="300" stroke="#ddd" stroke-width="1" opacity="1"/><line transform="translate(120,-300)" x2="0" y2="300" stroke="#ddd" stroke-width="1" opacity="1"/><line transform="translate(150,-300)" x2="0" y2="300" stroke="#ddd" stroke-width="1" opacity="1"/><line transform="translate(180,-300)" x2="0" y2="300" stroke="#ddd" stroke-width="1" opacity="1"/><line transform="translate(210,-300)" x2="0" y2="300" stroke="#ddd" stroke-width="1" opacity="1"/><line transform="translate(240,-300)" x2="0" y2="300" stroke="#ddd" stroke-width="1" opacity="1"/><line transform="translate(270,-300)" x2="0" y2="300" stroke="#ddd" stroke-width="1" opacity="1"/><line transform="translate(300,-300)" x2="0" y2="300" stroke="#ddd" stroke-width="1" opacity="1"/></g></g><path class="foreground" aria-hidden="true" d="" pointer-events="none" display="none"/></g></g><g class="mark-group role-axis" aria-hidden="true"><g transform="translate(0.5,0.5)"><path class="background" aria-hidden="true" d="M0,0h0v0h0Z" pointer-events="none"/><g><g class="mark-rule role-axis-grid" pointer-events="none"><line transform="translate(0,300)" x2="300" y2="0" stroke="#ddd" stroke-width="1" opacity="1"/><line transform="translate(0,270)" x2="300" y2="0" stroke="#ddd" stroke-width="1" opacity="1"/><line transform="translate(0,240)" x2="300" y2="0" stroke="#ddd" stroke-width="1" opacity="1"/><line transform="translate(0,210)" x2="300" y2="0" stroke="#ddd" stroke-width="1" opacity="1"/><line transform="translate(0,180)" x2="300" y2="0" stroke="#ddd" stroke-width="1" opacity="1"/><line transform="translate(0,150)" x2="300" y2="0" stroke="#ddd" stroke-width="1" opacity="1"/><line transform="translate(0,120)" x2="300" y2="0" stroke="#ddd" stroke-width="1" opacity="1"/><line transform="translate(0,90)" x2="300" y2="0" stroke="#ddd" stroke-width="1" opacity="1"/><line transform="translate(0,60)" x2="300" y2="0" stroke="#ddd" stroke-width="1" opacity="1"/><line transform="translate(0,30)" x2="300" y2="0" stroke="#ddd" stroke-width="1" opacity="1"/><line transform="translate(0,0)" x2="300" y2="0" stroke="#ddd" stroke-width="1" opacity="1"/></g></g><path class="foreground" aria-hidden="true" d="" pointer-events="none" display="none"/></g></g><g class="mark-group role-axis" role="graphics-symbol" aria-roledescription="axis" aria-label="X-axis titled 'fpr' for a linear scale with values from 0.0 to 1.0"><g transform="translate(0.5,300.5)"><path class="background" aria-hidden="true" d="M0,0h0v0h0Z" pointer-events="none"/><g><g class="mark-rule role-axis-tick" pointer-events="none"><line transform="translate(0,0)" x2="0" y2="5" stroke="#888" stroke-width="1" opacity="1"/><line transform="translate(30,0)" x2="0" y2="5" stroke="#888" stroke-width="1" opacity="1"/><line transform="translate(60,0)" x2="0" y2="5" stroke="#888" stroke-width="1" opacity="1"/><line transform="translate(90,0)" x2="0" y2="5" stroke="#888" stroke-width="1" opacity="1"/><line transform="translate(120,0)" x2="0" y2="5" stroke="#888" stroke-width="1" opacity="1"/><line transform="translate(150,0)" x2="0" y2="5" stroke="#888" stroke-width="1" opacity="1"/><line transform="translate(180,0)" x2="0" y2="5" stroke="#888" stroke-width="1" opacity="1"/><line transform="translate(210,0)" x2="0" y2="5" stroke="#888" stroke-width="1" opacity="1"/><line transform="translate(240,0)" x2="0" y2="5" stroke="#888" stroke-width="1" opacity="1"/><line transform="translate(270,0)" x2="0" y2="5" stroke="#888" stroke-width="1" opacity="1"/><line transform="translate(300,0)" x2="0" y2="5" stroke="#888" stroke-width="1" opacity="1"/></g><g class="mark-text role-axis-label" pointer-events="none"><text text-anchor="start" transform="translate(0,15)" font-family="sans-serif" font-size="10px" fill="#000" opacity="1">0.0</text><text text-anchor="middle" transform="translate(30,15)" font-family="sans-serif" font-size="10px" fill="#000" opacity="1">0.1</text><text text-anchor="middle" transform="translate(60,15)" font-family="sans-serif" font-size="10px" fill="#000" opacity="1">0.2</text><text text-anchor="middle" transform="translate(90,15)" font-family="sans-serif" font-size="10px" fill="#000" opacity="1">0.3</text><text text-anchor="middle" transform="translate(120,15)" font-family="sans-serif" font-size="10px" fill="#000" opacity="1">0.4</text><text text-anchor="middle" transform="translate(150,15)" font-family="sans-serif" font-size="10px" fill="#000" opacity="1">0.5</text><text text-anchor="middle" transform="translate(180,15)" font-family="sans-serif" font-size="10px" fill="#000" opacity="1">0.6</text><text text-anchor="middle" transform="translate(210,15)" font-family="sans-serif" font-size="10px" fill="#000" opacity="1">0.7</text><text text-anchor="middle" transform="translate(240,15)" font-family="sans-serif" font-size="10px" fill="#000" opacity="1">0.8</text><text text-anchor="middle" transform="translate(270,15)" font-family="sans-serif" font-size="10px" fill="#000" opacity="1">0.9</text><text text-anchor="end" transform="translate(300,15)" font-family="sans-serif" font-size="10px" fill="#000" opacity="1">1.0</text></g><g class="mark-rule role-axis-domain" pointer-events="none"><line transform="translate(0,0)" x2="300" y2="0" stroke="#888" stroke-width="1" opacity="1"/></g><g class="mark-text role-axis-title" pointer-events="none"><text text-anchor="middle" transform="translate(150,30)" font-family="sans-serif" font-size="11px" font-weight="bold" fill="#000" opacity="1">fpr</text></g></g><path class="foreground" aria-hidden="true" d="" pointer-events="none" display="none"/></g></g><g class="mark-group role-axis" role="graphics-symbol" aria-roledescription="axis" aria-label="Y-axis titled 'tpr' for a linear scale with values from 0.0 to 1.0"><g transform="translate(0.5,0.5)"><path class="background" aria-hidden="true" d="M0,0h0v0h0Z" pointer-events="none"/><g><g class="mark-rule role-axis-tick" pointer-events="none"><line transform="translate(0,300)" x2="-5" y2="0" stroke="#888" stroke-width="1" opacity="1"/><line transform="translate(0,270)" x2="-5" y2="0" stroke="#888" stroke-width="1" opacity="1"/><line transform="translate(0,240)" x2="-5" y2="0" stroke="#888" stroke-width="1" opacity="1"/><line transform="translate(0,210)" x2="-5" y2="0" stroke="#888" stroke-width="1" opacity="1"/><line transform="translate(0,180)" x2="-5" y2="0" stroke="#888" stroke-width="1" opacity="1"/><line transform="translate(0,150)" x2="-5" y2="0" stroke="#888" stroke-width="1" opacity="1"/><line transform="translate(0,120)" x2="-5" y2="0" stroke="#888" stroke-width="1" opacity="1"/><line transform="translate(0,90)" x2="-5" y2="0" stroke="#888" stroke-width="1" opacity="1"/><line transform="translate(0,60)" x2="-5" y2="0" stroke="#888" stroke-width="1" opacity="1"/><line transform="translate(0,30)" x2="-5" y2="0" stroke="#888" stroke-width="1" opacity="1"/><line transform="translate(0,0)" x2="-5" y2="0" stroke="#888" stroke-width="1" opacity="1"/></g><g class="mark-text role-axis-label" pointer-events="none"><text text-anchor="end" transform="translate(-7,303)" font-family="sans-serif" font-size="10px" fill="#000" opacity="1">0.0</text><text text-anchor="end" transform="translate(-7,273)" font-family="sans-serif" font-size="10px" fill="#000" opacity="1">0.1</text><text text-anchor="end" transform="translate(-7,243)" font-family="sans-serif" font-size="10px" fill="#000" opacity="1">0.2</text><text text-anchor="end" transform="translate(-7,213)" font-family="sans-serif" font-size="10px" fill="#000" opacity="1">0.3</text><text text-anchor="end" transform="translate(-7,183)" font-family="sans-serif" font-size="10px" fill="#000" opacity="1">0.4</text><text text-anchor="end" transform="translate(-7,153)" font-family="sans-serif" font-size="10px" fill="#000" opacity="1">0.5</text><text text-anchor="end" transform="translate(-7,123)" font-family="sans-serif" font-size="10px" fill="#000" opacity="1">0.6</text><text text-anchor="end" transform="translate(-7,93.00000000000001)" font-family="sans-serif" font-size="10px" fill="#000" opacity="1">0.7</text><text text-anchor="end" transform="translate(-7,62.999999999999986)" font-family="sans-serif" font-size="10px" fill="#000" opacity="1">0.8</text><text text-anchor="end" transform="translate(-7,32.99999999999999)" font-family="sans-serif" font-size="10px" fill="#000" opacity="1">0.9</text><text text-anchor="end" transform="translate(-7,3)" font-family="sans-serif" font-size="10px" fill="#000" opacity="1">1.0</text></g><g class="mark-rule role-axis-domain" pointer-events="none"><line transform="translate(0,300)" x2="0" y2="-300" stroke="#888" stroke-width="1" opacity="1"/></g><g class="mark-text role-axis-title" pointer-events="none"><text text-anchor="middle" transform="translate(-24.9013671875,150) rotate(-90) translate(0,-2)" font-family="sans-serif" font-size="11px" font-weight="bold" fill="#000" opacity="1">tpr</text></g></g><path class="foreground" aria-hidden="true" d="" pointer-events="none" display="none"/></g></g><g class="mark-group role-scope layer_0_layer_0_pathgroup" role="graphics-object" aria-roledescription="group mark container"><g transform="translate(0,0)"><path class="background" aria-hidden="true" d="M0,0h300v300h-300Z"/><g><g class="mark-line role-mark layer_0_layer_0_marks" role="graphics-object" aria-roledescription="line mark container" pointer-events="none"><path aria-label="fpr: 0; tpr: 0; rev: workspace" role="graphics-symbol" aria-roledescription="line mark" d="M0,300L0,286.10223642172525L0,268.84984025559106L0,233.38658146964855L0,217.0926517571885L0,216.61341853035145L0.21770682148040638,202.2364217252396L0.21770682148040638,194.08945686900958L0.21770682148040638,183.54632587859425L0.43541364296081275,183.54632587859425L0.6531204644412191,174.44089456869008L0.6531204644412191,168.21086261980832L0.8708272859216255,161.50159744408947L1.5239477503628447,155.75079872204475L1.5239477503628447,154.79233226837061L1.741654571843251,148.08306709265176L1.741654571843251,141.85303514376997L1.9593613933236576,135.62300319488818L1.9593613933236576,135.14376996805112L2.39477503628447,129.87220447284346L2.830188679245283,125.5591054313099L3.7010159651669086,121.24600638977635L3.7010159651669086,120.28753993610225L4.571843251088534,115.49520766773162L4.571843251088534,115.01597444089457L5.224963715529753,111.66134185303514L5.44267053701016,111.66134185303514L5.660377358490566,104.95207667731631L5.660377358490566,104.47284345047922L7.184325108853411,100.63897763578275L7.402031930333817,100.63897763578275L7.402031930333817,100.15974440894567L8.055152394775037,91.05431309904152L9.143686502177069,88.17891373801918L9.143686502177069,87.6996805111821L10.2322206095791,83.86581469648563L10.88534107402032,80.03194888178913L11.973875181422352,74.76038338658148L13.933236574746008,69.00958466453673L13.933236574746008,68.5303514376997L14.586357039187227,68.5303514376997L17.198838896952104,64.69648562300318L17.416545718432513,64.69648562300318L20.246734397677795,61.34185303514377L23.294629898403482,57.98722044728435L25.907111756168362,53.674121405750796L25.907111756168362,52.71565495207666L26.124818577648767,52.71565495207666L30.04354136429608,48.881789137380196L30.261248185776488,48.881789137380196L33.9622641509434,46.00638977635783L34.1799709724238,46.00638977635783L34.1799709724238,45.527156549520775L34.61538461538462,45.527156549520775L37.6632801161103,44.08945686900959L37.88098693759071,44.08945686900959L43.97677793904209,41.21405750798722L44.847605224963715,41.21405750798722L48.548621190130625,39.29712460063899L48.548621190130625,38.817891373801906L49.41944847605225,38.817891373801906L54.208998548621196,37.38019169329072L54.426705370101594,37.38019169329072L54.426705370101594,36.90095846645367L61.82873730043541,34.50479233226839L62.91727140783745,34.50479233226839L69.88388969521044,31.629392971246016L70.53701015965167,31.629392971246016L70.53701015965167,31.150159744408935L78.1567489114659,30.191693290734833L79.02757619738752,30.191693290734833L79.02757619738752,29.71246006389775L79.46298984034833,29.71246006389775L79.46298984034833,29.2332268370607L89.25979680696662,25.87859424920128L89.91291727140784,25.87859424920128L92.3076923076923,25.87859424920128L92.74310595065312,25.87859424920128L92.74310595065312,25.399361022364232L92.96081277213354,25.399361022364232L92.96081277213354,24.920127795527147L104.06386066763424,21.56549520766773L104.49927431059507,21.56549520766773L104.71698113207546,21.086261980830677L122.5689404934688,18.69009584664536L122.78664731494919,18.69009584664536L122.78664731494919,18.21086261980831L123.22206095791002,18.21086261980831L123.43976777939042,18.21086261980831L139.3323657474601,16.293929712460077L139.76777939042088,16.293929712460077L139.76777939042088,15.814696485622992L156.966618287373,11.501597444089473L157.4020319303338,11.501597444089473L157.4020319303338,11.02236421725239L158.49056603773585,11.02236421725239L176.56023222060958,8.626198083067106L177.64876632801162,8.626198083067106L178.08417997097243,8.626198083067106L178.73730043541363,8.626198083067106L178.73730043541363,8.14696485623002L178.95500725689405,8.14696485623002L199.20174165457183,8.14696485623002L199.63715529753264,8.14696485623002L199.63715529753264,7.18849840255592L200.07256894049348,7.18849840255592L200.5079825834543,7.18849840255592L201.3788098693759,7.18849840255592L227.06821480406387,5.271565495207653L228.5921625544267,5.271565495207653L261.2481857764877,2.396166134185318L261.6835994194485,2.396166134185318L262.1190130624093,1.9169329073482344L262.5544267053701,1.9169329073482344L262.9898403483309,1.9169329073482344L263.6429608127721,1.9169329073482344L264.07837445573296,1.9169329073482344L264.2960812772134,1.9169329073482344L300,0" stroke="#4c78a8" stroke-width="2"/></g></g><path class="foreground" aria-hidden="true" d="" display="none"/></g></g><g class="mark-symbol role-mark layer_0_layer_1_marks" role="graphics-object" aria-roledescription="symbol mark container"><path aria-label="fpr: 0; tpr: 0; rev: workspace" role="graphics-symbol" aria-roledescription="point" transform="translate(0,300)" d="M2.7386127875258306,0A2.7386127875258306,2.7386127875258306,0,1,1,-2.7386127875258306,0A2.7386127875258306,2.7386127875258306,0,1,1,2.7386127875258306,0" stroke="#4c78a8" stroke-width="2" opacity="0"/><path aria-label="fpr: 0; tpr: 0.0463258785942; rev: workspace" role="graphics-symbol" aria-roledescription="point" transform="translate(0,286.10223642172525)" d="M2.7386127875258306,0A2.7386127875258306,2.7386127875258306,0,1,1,-2.7386127875258306,0A2.7386127875258306,2.7386127875258306,0,1,1,2.7386127875258306,0" stroke="#4c78a8" stroke-width="2" opacity="0"/><path aria-label="fpr: 0; tpr: 0.103833865815; rev: workspace" role="graphics-symbol" aria-roledescription="point" transform="translate(0,268.84984025559106)" d="M2.7386127875258306,0A2.7386127875258306,2.7386127875258306,0,1,1,-2.7386127875258306,0A2.7386127875258306,2.7386127875258306,0,1,1,2.7386127875258306,0" stroke="#4c78a8" stroke-width="2" opacity="0"/><path aria-label="fpr: 0; tpr: 0.222044728435; rev: workspace" role="graphics-symbol" aria-roledescription="point" transform="translate(0,233.38658146964855)" d="M2.7386127875258306,0A2.7386127875258306,2.7386127875258306,0,1,1,-2.7386127875258306,0A2.7386127875258306,2.7386127875258306,0,1,1,2.7386127875258306,0" stroke="#4c78a8" stroke-width="2" opacity="0"/><path aria-label="fpr: 0; tpr: 0.276357827476; rev: workspace" role="graphics-symbol" aria-roledescription="point" transform="translate(0,217.0926517571885)" d="M2.7386127875258306,0A2.7386127875258306,2.7386127875258306,0,1,1,-2.7386127875258306,0A2.7386127875258306,2.7386127875258306,0,1,1,2.7386127875258306,0" stroke="#4c78a8" stroke-width="2" opacity="0"/><path aria-label="fpr: 0; tpr: 0.277955271565; rev: workspace" role="graphics-symbol" aria-roledescription="point" transform="translate(0,216.61341853035145)" d="M2.7386127875258306,0A2.7386127875258306,2.7386127875258306,0,1,1,-2.7386127875258306,0A2.7386127875258306,2.7386127875258306,0,1,1,2.7386127875258306,0" stroke="#4c78a8" stroke-width="2" opacity="0"/><path aria-label="fpr: 0.000725689404935; tpr: 0.325878594249; rev: workspace" role="graphics-symbol" aria-roledescription="point" transform="translate(0.21770682148040638,202.2364217252396)" d="M2.7386127875258306,0A2.7386127875258306,2.7386127875258306,0,1,1,-2.7386127875258306,0A2.7386127875258306,2.7386127875258306,0,1,1,2.7386127875258306,0" stroke="#4c78a8" stroke-width="2" opacity="0"/><path aria-label="fpr: 0.000725689404935; tpr: 0.35303514377; rev: workspace" role="graphics-symbol" aria-roledescription="point" transform="translate(0.21770682148040638,194.08945686900958)" d="M2.7386127875258306,0A2.7386127875258306,2.7386127875258306,0,1,1,-2.7386127875258306,0A2.7386127875258306,2.7386127875258306,0,1,1,2.7386127875258306,0" stroke="#4c78a8" stroke-width="2" opacity="0"/><path aria-label="fpr: 0.000725689404935; tpr: 0.388178913738; rev: workspace" role="graphics-symbol" aria-roledescription="point" transform="translate(0.21770682148040638,183.54632587859425)" d="M2.7386127875258306,0A2.7386127875258306,2.7386127875258306,0,1,1,-2.7386127875258306,0A2.7386127875258306,2.7386127875258306,0,1,1,2.7386127875258306,0" stroke="#4c78a8" stroke-width="2" opacity="0"/><path aria-label="fpr: 0.00145137880987; tpr: 0.388178913738; rev: workspace" role="graphics-symbol" aria-roledescription="point" transform="translate(0.43541364296081275,183.54632587859425)" d="M2.7386127875258306,0A2.7386127875258306,2.7386127875258306,0,1,1,-2.7386127875258306,0A2.7386127875258306,2.7386127875258306,0,1,1,2.7386127875258306,0" stroke="#4c78a8" stroke-width="2" opacity="0"/><path aria-label="fpr: 0.0021770682148; tpr: 0.418530351438; rev: workspace" role="graphics-symbol" aria-roledescription="point" transform="translate(0.6531204644412191,174.44089456869008)" d="M2.7386127875258306,0A2.7386127875258306,2.7386127875258306,0,1,1,-2.7386127875258306,0A2.7386127875258306,2.7386127875258306,0,1,1,2.7386127875258306,0" stroke="#4c78a8" stroke-width="2" opacity="0"/><path aria-label="fpr: 0.0021770682148; tpr: 0.439297124601; rev: workspace" role="graphics-symbol" aria-roledescription="point" transform="translate(0.6531204644412191,168.21086261980832)" d="M2.7386127875258306,0A2.7386127875258306,2.7386127875258306,0,1,1,-2.7386127875258306,0A2.7386127875258306,2.7386127875258306,0,1,1,2.7386127875258306,0" stroke="#4c78a8" stroke-width="2" opacity="0"/><path aria-label="fpr: 0.00290275761974; tpr: 0.461661341853; rev: workspace" role="graphics-symbol" aria-roledescription="point" transform="translate(0.8708272859216255,161.50159744408947)" d="M2.7386127875258306,0A2.7386127875258306,2.7386127875258306,0,1,1,-2.7386127875258306,0A2.7386127875258306,2.7386127875258306,0,1,1,2.7386127875258306,0" stroke="#4c78a8" stroke-width="2" opacity="0"/><path aria-label="fpr: 0.00507982583454; tpr: 0.480830670927; rev: workspace" role="graphics-symbol" aria-roledescription="point" transform="translate(1.5239477503628447,155.75079872204475)" d="M2.7386127875258306,0A2.7386127875258306,2.7386127875258306,0,1,1,-2.7386127875258306,0A2.7386127875258306,2.7386127875258306,0,1,1,2.7386127875258306,0" stroke="#4c78a8" stroke-width="2" opacity="0"/><path aria-label="fpr: 0.00507982583454; tpr: 0.484025559105; rev: workspace" role="graphics-symbol" aria-roledescription="point" transform="translate(1.5239477503628447,154.79233226837061)" d="M2.7386127875258306,0A2.7386127875258306,2.7386127875258306,0,1,1,-2.7386127875258306,0A2.7386127875258306,2.7386127875258306,0,1,1,2.7386127875258306,0" stroke="#4c78a8" stroke-width="2" opacity="0"/><path aria-label="fpr: 0.00580551523948; tpr: 0.506389776358; rev: workspace" role="graphics-symbol" aria-roledescription="point" transform="translate(1.741654571843251,148.08306709265176)" d="M2.7386127875258306,0A2.7386127875258306,2.7386127875258306,0,1,1,-2.7386127875258306,0A2.7386127875258306,2.7386127875258306,0,1,1,2.7386127875258306,0" stroke="#4c78a8" stroke-width="2" opacity="0"/><path aria-label="fpr: 0.00580551523948; tpr: 0.527156549521; rev: workspace" role="graphics-symbol" aria-roledescription="point" transform="translate(1.741654571843251,141.85303514376997)" d="M2.7386127875258306,0A2.7386127875258306,2.7386127875258306,0,1,1,-2.7386127875258306,0A2.7386127875258306,2.7386127875258306,0,1,1,2.7386127875258306,0" stroke="#4c78a8" stroke-width="2" opacity="0"/><path aria-label="fpr: 0.00653120464441; tpr: 0.547923322684; rev: workspace" role="graphics-symbol" aria-roledescription="point" transform="translate(1.9593613933236576,135.62300319488818)" d="M2.7386127875258306,0A2.7386127875258306,2.7386127875258306,0,1,1,-2.7386127875258306,0A2.7386127875258306,2.7386127875258306,0,1,1,2.7386127875258306,0" stroke="#4c78a8" stroke-width="2" opacity="0"/><path aria-label="fpr: 0.00653120464441; tpr: 0.549520766773; rev: workspace" role="graphics-symbol" aria-roledescription="point" transform="translate(1.9593613933236576,135.14376996805112)" d="M2.7386127875258306,0A2.7386127875258306,2.7386127875258306,0,1,1,-2.7386127875258306,0A2.7386127875258306,2.7386127875258306,0,1,1,2.7386127875258306,0" stroke="#4c78a8" stroke-width="2" opacity="0"/><path aria-label="fpr: 0.00798258345428; tpr: 0.567092651757; rev: workspace" role="graphics-symbol" aria-roledescription="point" transform="translate(2.39477503628447,129.87220447284346)" d="M2.7386127875258306,0A2.7386127875258306,2.7386127875258306,0,1,1,-2.7386127875258306,0A2.7386127875258306,2.7386127875258306,0,1,1,2.7386127875258306,0" stroke="#4c78a8" stroke-width="2" opacity="0"/><path aria-label="fpr: 0.00943396226415; tpr: 0.581469648562; rev: workspace" role="graphics-symbol" aria-roledescription="point" transform="translate(2.830188679245283,125.5591054313099)" d="M2.7386127875258306,0A2.7386127875258306,2.7386127875258306,0,1,1,-2.7386127875258306,0A2.7386127875258306,2.7386127875258306,0,1,1,2.7386127875258306,0" stroke="#4c78a8" stroke-width="2" opacity="0"/><path aria-label="fpr: 0.0123367198839; tpr: 0.595846645367; rev: workspace" role="graphics-symbol" aria-roledescription="point" transform="translate(3.7010159651669086,121.24600638977635)" d="M2.7386127875258306,0A2.7386127875258306,2.7386127875258306,0,1,1,-2.7386127875258306,0A2.7386127875258306,2.7386127875258306,0,1,1,2.7386127875258306,0" stroke="#4c78a8" stroke-width="2" opacity="0"/><path aria-label="fpr: 0.0123367198839; tpr: 0.599041533546; rev: workspace" role="graphics-symbol" aria-roledescription="point" transform="translate(3.7010159651669086,120.28753993610225)" d="M2.7386127875258306,0A2.7386127875258306,2.7386127875258306,0,1,1,-2.7386127875258306,0A2.7386127875258306,2.7386127875258306,0,1,1,2.7386127875258306,0" stroke="#4c78a8" stroke-width="2" opacity="0"/><path aria-label="fpr: 0.0152394775036; tpr: 0.615015974441; rev: workspace" role="graphics-symbol" aria-roledescription="point" transform="translate(4.571843251088534,115.49520766773162)" d="M2.7386127875258306,0A2.7386127875258306,2.7386127875258306,0,1,1,-2.7386127875258306,0A2.7386127875258306,2.7386127875258306,0,1,1,2.7386127875258306,0" stroke="#4c78a8" stroke-width="2" opacity="0"/><path aria-label="fpr: 0.0152394775036; tpr: 0.61661341853; rev: workspace" role="graphics-symbol" aria-roledescription="point" transform="translate(4.571843251088534,115.01597444089457)" d="M2.7386127875258306,0A2.7386127875258306,2.7386127875258306,0,1,1,-2.7386127875258306,0A2.7386127875258306,2.7386127875258306,0,1,1,2.7386127875258306,0" stroke="#4c78a8" stroke-width="2" opacity="0"/><path aria-label="fpr: 0.0174165457184; tpr: 0.627795527157; rev: workspace" role="graphics-symbol" aria-roledescription="point" transform="translate(5.224963715529753,111.66134185303514)" d="M2.7386127875258306,0A2.7386127875258306,2.7386127875258306,0,1,1,-2.7386127875258306,0A2.7386127875258306,2.7386127875258306,0,1,1,2.7386127875258306,0" stroke="#4c78a8" stroke-width="2" opacity="0"/><path aria-label="fpr: 0.0181422351234; tpr: 0.627795527157; rev: workspace" role="graphics-symbol" aria-roledescription="point" transform="translate(5.44267053701016,111.66134185303514)" d="M2.7386127875258306,0A2.7386127875258306,2.7386127875258306,0,1,1,-2.7386127875258306,0A2.7386127875258306,2.7386127875258306,0,1,1,2.7386127875258306,0" stroke="#4c78a8" stroke-width="2" opacity="0"/><path aria-label="fpr: 0.0188679245283; tpr: 0.650159744409; rev: workspace" role="graphics-symbol" aria-roledescription="point" transform="translate(5.660377358490566,104.95207667731631)" d="M2.7386127875258306,0A2.7386127875258306,2.7386127875258306,0,1,1,-2.7386127875258306,0A2.7386127875258306,2.7386127875258306,0,1,1,2.7386127875258306,0" stroke="#4c78a8" stroke-width="2" opacity="0"/><path aria-label="fpr: 0.0188679245283; tpr: 0.651757188498; rev: workspace" role="graphics-symbol" aria-roledescription="point" transform="translate(5.660377358490566,104.47284345047922)" d="M2.7386127875258306,0A2.7386127875258306,2.7386127875258306,0,1,1,-2.7386127875258306,0A2.7386127875258306,2.7386127875258306,0,1,1,2.7386127875258306,0" stroke="#4c78a8" stroke-width="2" opacity="0"/><path aria-label="fpr: 0.0239477503628; tpr: 0.664536741214; rev: workspace" role="graphics-symbol" aria-roledescription="point" transform="translate(7.184325108853411,100.63897763578275)" d="M2.7386127875258306,0A2.7386127875258306,2.7386127875258306,0,1,1,-2.7386127875258306,0A2.7386127875258306,2.7386127875258306,0,1,1,2.7386127875258306,0" stroke="#4c78a8" stroke-width="2" opacity="0"/><path aria-label="fpr: 0.0246734397678; tpr: 0.664536741214; rev: workspace" role="graphics-symbol" aria-roledescription="point" transform="translate(7.402031930333817,100.63897763578275)" d="M2.7386127875258306,0A2.7386127875258306,2.7386127875258306,0,1,1,-2.7386127875258306,0A2.7386127875258306,2.7386127875258306,0,1,1,2.7386127875258306,0" stroke="#4c78a8" stroke-width="2" opacity="0"/><path aria-label="fpr: 0.0246734397678; tpr: 0.666134185304; rev: workspace" role="graphics-symbol" aria-roledescription="point" transform="translate(7.402031930333817,100.15974440894567)" d="M2.7386127875258306,0A2.7386127875258306,2.7386127875258306,0,1,1,-2.7386127875258306,0A2.7386127875258306,2.7386127875258306,0,1,1,2.7386127875258306,0" stroke="#4c78a8" stroke-width="2" opacity="0"/><path aria-label="fpr: 0.0268505079826; tpr: 0.696485623003; rev: workspace" role="graphics-symbol" aria-roledescription="point" transform="translate(8.055152394775037,91.05431309904152)" d="M2.7386127875258306,0A2.7386127875258306,2.7386127875258306,0,1,1,-2.7386127875258306,0A2.7386127875258306,2.7386127875258306,0,1,1,2.7386127875258306,0" stroke="#4c78a8" stroke-width="2" opacity="0"/><path aria-label="fpr: 0.0304789550073; tpr: 0.70607028754; rev: workspace" role="graphics-symbol" aria-roledescription="point" transform="translate(9.143686502177069,88.17891373801918)" d="M2.7386127875258306,0A2.7386127875258306,2.7386127875258306,0,1,1,-2.7386127875258306,0A2.7386127875258306,2.7386127875258306,0,1,1,2.7386127875258306,0" stroke="#4c78a8" stroke-width="2" opacity="0"/><path aria-label="fpr: 0.0304789550073; tpr: 0.707667731629; rev: workspace" role="graphics-symbol" aria-roledescription="point" transform="translate(9.143686502177069,87.6996805111821)" d="M2.7386127875258306,0A2.7386127875258306,2.7386127875258306,0,1,1,-2.7386127875258306,0A2.7386127875258306,2.7386127875258306,0,1,1,2.7386127875258306,0" stroke="#4c78a8" stroke-width="2" opacity="0"/><path aria-label="fpr: 0.0341074020319; tpr: 0.720447284345; rev: workspace" role="graphics-symbol" aria-roledescription="point" transform="translate(10.2322206095791,83.86581469648563)" d="M2.7386127875258306,0A2.7386127875258306,2.7386127875258306,0,1,1,-2.7386127875258306,0A2.7386127875258306,2.7386127875258306,0,1,1,2.7386127875258306,0" stroke="#4c78a8" stroke-width="2" opacity="0"/><path aria-label="fpr: 0.0362844702467; tpr: 0.733226837061; rev: workspace" role="graphics-symbol" aria-roledescription="point" transform="translate(10.88534107402032,80.03194888178913)" d="M2.7386127875258306,0A2.7386127875258306,2.7386127875258306,0,1,1,-2.7386127875258306,0A2.7386127875258306,2.7386127875258306,0,1,1,2.7386127875258306,0" stroke="#4c78a8" stroke-width="2" opacity="0"/><path aria-label="fpr: 0.0399129172714; tpr: 0.750798722045; rev: workspace" role="graphics-symbol" aria-roledescription="point" transform="translate(11.973875181422352,74.76038338658148)" d="M2.7386127875258306,0A2.7386127875258306,2.7386127875258306,0,1,1,-2.7386127875258306,0A2.7386127875258306,2.7386127875258306,0,1,1,2.7386127875258306,0" stroke="#4c78a8" stroke-width="2" opacity="0"/><path aria-label="fpr: 0.0464441219158; tpr: 0.769968051118; rev: workspace" role="graphics-symbol" aria-roledescription="point" transform="translate(13.933236574746008,69.00958466453673)" d="M2.7386127875258306,0A2.7386127875258306,2.7386127875258306,0,1,1,-2.7386127875258306,0A2.7386127875258306,2.7386127875258306,0,1,1,2.7386127875258306,0" stroke="#4c78a8" stroke-width="2" opacity="0"/><path aria-label="fpr: 0.0464441219158; tpr: 0.771565495208; rev: workspace" role="graphics-symbol" aria-roledescription="point" transform="translate(13.933236574746008,68.5303514376997)" d="M2.7386127875258306,0A2.7386127875258306,2.7386127875258306,0,1,1,-2.7386127875258306,0A2.7386127875258306,2.7386127875258306,0,1,1,2.7386127875258306,0" stroke="#4c78a8" stroke-width="2" opacity="0"/><path aria-label="fpr: 0.0486211901306; tpr: 0.771565495208; rev: workspace" role="graphics-symbol" aria-roledescription="point" transform="translate(14.586357039187227,68.5303514376997)" d="M2.7386127875258306,0A2.7386127875258306,2.7386127875258306,0,1,1,-2.7386127875258306,0A2.7386127875258306,2.7386127875258306,0,1,1,2.7386127875258306,0" stroke="#4c78a8" stroke-width="2" opacity="0"/><path aria-label="fpr: 0.0573294629898; tpr: 0.784345047923; rev: workspace" role="graphics-symbol" aria-roledescription="point" transform="translate(17.198838896952104,64.69648562300318)" d="M2.7386127875258306,0A2.7386127875258306,2.7386127875258306,0,1,1,-2.7386127875258306,0A2.7386127875258306,2.7386127875258306,0,1,1,2.7386127875258306,0" stroke="#4c78a8" stroke-width="2" opacity="0"/><path aria-label="fpr: 0.0580551523948; tpr: 0.784345047923; rev: workspace" role="graphics-symbol" aria-roledescription="point" transform="translate(17.416545718432513,64.69648562300318)" d="M2.7386127875258306,0A2.7386127875258306,2.7386127875258306,0,1,1,-2.7386127875258306,0A2.7386127875258306,2.7386127875258306,0,1,1,2.7386127875258306,0" stroke="#4c78a8" stroke-width="2" opacity="0"/><path aria-label="fpr: 0.0674891146589; tpr: 0.79552715655; rev: workspace" role="graphics-symbol" aria-roledescription="point" transform="translate(20.246734397677795,61.34185303514377)" d="M2.7386127875258306,0A2.7386127875258306,2.7386127875258306,0,1,1,-2.7386127875258306,0A2.7386127875258306,2.7386127875258306,0,1,1,2.7386127875258306,0" stroke="#4c78a8" stroke-width="2" opacity="0"/><path aria-label="fpr: 0.077648766328; tpr: 0.806709265176; rev: workspace" role="graphics-symbol" aria-roledescription="point" transform="translate(23.294629898403482,57.98722044728435)" d="M2.7386127875258306,0A2.7386127875258306,2.7386127875258306,0,1,1,-2.7386127875258306,0A2.7386127875258306,2.7386127875258306,0,1,1,2.7386127875258306,0" stroke="#4c78a8" stroke-width="2" opacity="0"/><path aria-label="fpr: 0.0863570391872; tpr: 0.821086261981; rev: workspace" role="graphics-symbol" aria-roledescription="point" transform="translate(25.907111756168362,53.674121405750796)" d="M2.7386127875258306,0A2.7386127875258306,2.7386127875258306,0,1,1,-2.7386127875258306,0A2.7386127875258306,2.7386127875258306,0,1,1,2.7386127875258306,0" stroke="#4c78a8" stroke-width="2" opacity="0"/><path aria-label="fpr: 0.0863570391872; tpr: 0.82428115016; rev: workspace" role="graphics-symbol" aria-roledescription="point" transform="translate(25.907111756168362,52.71565495207666)" d="M2.7386127875258306,0A2.7386127875258306,2.7386127875258306,0,1,1,-2.7386127875258306,0A2.7386127875258306,2.7386127875258306,0,1,1,2.7386127875258306,0" stroke="#4c78a8" stroke-width="2" opacity="0"/><path aria-label="fpr: 0.0870827285922; tpr: 0.82428115016; rev: workspace" role="graphics-symbol" aria-roledescription="point" transform="translate(26.124818577648767,52.71565495207666)" d="M2.7386127875258306,0A2.7386127875258306,2.7386127875258306,0,1,1,-2.7386127875258306,0A2.7386127875258306,2.7386127875258306,0,1,1,2.7386127875258306,0" stroke="#4c78a8" stroke-width="2" opacity="0"/><path aria-label="fpr: 0.100145137881; tpr: 0.837060702875; rev: workspace" role="graphics-symbol" aria-roledescription="point" transform="translate(30.04354136429608,48.881789137380196)" d="M2.7386127875258306,0A2.7386127875258306,2.7386127875258306,0,1,1,-2.7386127875258306,0A2.7386127875258306,2.7386127875258306,0,1,1,2.7386127875258306,0" stroke="#4c78a8" stroke-width="2" opacity="0"/><path aria-label="fpr: 0.100870827286; tpr: 0.837060702875; rev: workspace" role="graphics-symbol" aria-roledescription="point" transform="translate(30.261248185776488,48.881789137380196)" d="M2.7386127875258306,0A2.7386127875258306,2.7386127875258306,0,1,1,-2.7386127875258306,0A2.7386127875258306,2.7386127875258306,0,1,1,2.7386127875258306,0" stroke="#4c78a8" stroke-width="2" opacity="0"/><path aria-label="fpr: 0.11320754717; tpr: 0.846645367412; rev: workspace" role="graphics-symbol" aria-roledescription="point" transform="translate(33.9622641509434,46.00638977635783)" d="M2.7386127875258306,0A2.7386127875258306,2.7386127875258306,0,1,1,-2.7386127875258306,0A2.7386127875258306,2.7386127875258306,0,1,1,2.7386127875258306,0" stroke="#4c78a8" stroke-width="2" opacity="0"/><path aria-label="fpr: 0.113933236575; tpr: 0.846645367412; rev: workspace" role="graphics-symbol" aria-roledescription="point" transform="translate(34.1799709724238,46.00638977635783)" d="M2.7386127875258306,0A2.7386127875258306,2.7386127875258306,0,1,1,-2.7386127875258306,0A2.7386127875258306,2.7386127875258306,0,1,1,2.7386127875258306,0" stroke="#4c78a8" stroke-width="2" opacity="0"/><path aria-label="fpr: 0.113933236575; tpr: 0.848242811502; rev: workspace" role="graphics-symbol" aria-roledescription="point" transform="translate(34.1799709724238,45.527156549520775)" d="M2.7386127875258306,0A2.7386127875258306,2.7386127875258306,0,1,1,-2.7386127875258306,0A2.7386127875258306,2.7386127875258306,0,1,1,2.7386127875258306,0" stroke="#4c78a8" stroke-width="2" opacity="0"/><path aria-label="fpr: 0.115384615385; tpr: 0.848242811502; rev: workspace" role="graphics-symbol" aria-roledescription="point" transform="translate(34.61538461538462,45.527156549520775)" d="M2.7386127875258306,0A2.7386127875258306,2.7386127875258306,0,1,1,-2.7386127875258306,0A2.7386127875258306,2.7386127875258306,0,1,1,2.7386127875258306,0" stroke="#4c78a8" stroke-width="2" opacity="0"/><path aria-label="fpr: 0.125544267054; tpr: 0.85303514377; rev: workspace" role="graphics-symbol" aria-roledescription="point" transform="translate(37.6632801161103,44.08945686900959)" d="M2.7386127875258306,0A2.7386127875258306,2.7386127875258306,0,1,1,-2.7386127875258306,0A2.7386127875258306,2.7386127875258306,0,1,1,2.7386127875258306,0" stroke="#4c78a8" stroke-width="2" opacity="0"/><path aria-label="fpr: 0.126269956459; tpr: 0.85303514377; rev: workspace" role="graphics-symbol" aria-roledescription="point" transform="translate(37.88098693759071,44.08945686900959)" d="M2.7386127875258306,0A2.7386127875258306,2.7386127875258306,0,1,1,-2.7386127875258306,0A2.7386127875258306,2.7386127875258306,0,1,1,2.7386127875258306,0" stroke="#4c78a8" stroke-width="2" opacity="0"/><path aria-label="fpr: 0.146589259797; tpr: 0.862619808307; rev: workspace" role="graphics-symbol" aria-roledescription="point" transform="translate(43.97677793904209,41.21405750798722)" d="M2.7386127875258306,0A2.7386127875258306,2.7386127875258306,0,1,1,-2.7386127875258306,0A2.7386127875258306,2.7386127875258306,0,1,1,2.7386127875258306,0" stroke="#4c78a8" stroke-width="2" opacity="0"/><path aria-label="fpr: 0.149492017417; tpr: 0.862619808307; rev: workspace" role="graphics-symbol" aria-roledescription="point" transform="translate(44.847605224963715,41.21405750798722)" d="M2.7386127875258306,0A2.7386127875258306,2.7386127875258306,0,1,1,-2.7386127875258306,0A2.7386127875258306,2.7386127875258306,0,1,1,2.7386127875258306,0" stroke="#4c78a8" stroke-width="2" opacity="0"/><path aria-label="fpr: 0.1618287373; tpr: 0.869009584665; rev: workspace" role="graphics-symbol" aria-roledescription="point" transform="translate(48.548621190130625,39.29712460063899)" d="M2.7386127875258306,0A2.7386127875258306,2.7386127875258306,0,1,1,-2.7386127875258306,0A2.7386127875258306,2.7386127875258306,0,1,1,2.7386127875258306,0" stroke="#4c78a8" stroke-width="2" opacity="0"/><path aria-label="fpr: 0.1618287373; tpr: 0.870607028754; rev: workspace" role="graphics-symbol" aria-roledescription="point" transform="translate(48.548621190130625,38.817891373801906)" d="M2.7386127875258306,0A2.7386127875258306,2.7386127875258306,0,1,1,-2.7386127875258306,0A2.7386127875258306,2.7386127875258306,0,1,1,2.7386127875258306,0" stroke="#4c78a8" stroke-width="2" opacity="0"/><path aria-label="fpr: 0.16473149492; tpr: 0.870607028754; rev: workspace" role="graphics-symbol" aria-roledescription="point" transform="translate(49.41944847605225,38.817891373801906)" d="M2.7386127875258306,0A2.7386127875258306,2.7386127875258306,0,1,1,-2.7386127875258306,0A2.7386127875258306,2.7386127875258306,0,1,1,2.7386127875258306,0" stroke="#4c78a8" stroke-width="2" opacity="0"/><path aria-label="fpr: 0.180696661829; tpr: 0.875399361022; rev: workspace" role="graphics-symbol" aria-roledescription="point" transform="translate(54.208998548621196,37.38019169329072)" d="M2.7386127875258306,0A2.7386127875258306,2.7386127875258306,0,1,1,-2.7386127875258306,0A2.7386127875258306,2.7386127875258306,0,1,1,2.7386127875258306,0" stroke="#4c78a8" stroke-width="2" opacity="0"/><path aria-label="fpr: 0.181422351234; tpr: 0.875399361022; rev: workspace" role="graphics-symbol" aria-roledescription="point" transform="translate(54.426705370101594,37.38019169329072)" d="M2.7386127875258306,0A2.7386127875258306,2.7386127875258306,0,1,1,-2.7386127875258306,0A2.7386127875258306,2.7386127875258306,0,1,1,2.7386127875258306,0" stroke="#4c78a8" stroke-width="2" opacity="0"/><path aria-label="fpr: 0.181422351234; tpr: 0.876996805112; rev: workspace" role="graphics-symbol" aria-roledescription="point" transform="translate(54.426705370101594,36.90095846645367)" d="M2.7386127875258306,0A2.7386127875258306,2.7386127875258306,0,1,1,-2.7386127875258306,0A2.7386127875258306,2.7386127875258306,0,1,1,2.7386127875258306,0" stroke="#4c78a8" stroke-width="2" opacity="0"/><path aria-label="fpr: 0.206095791001; tpr: 0.884984025559; rev: workspace" role="graphics-symbol" aria-roledescription="point" transform="translate(61.82873730043541,34.50479233226839)" d="M2.7386127875258306,0A2.7386127875258306,2.7386127875258306,0,1,1,-2.7386127875258306,0A2.7386127875258306,2.7386127875258306,0,1,1,2.7386127875258306,0" stroke="#4c78a8" stroke-width="2" opacity="0"/><path aria-label="fpr: 0.209724238026; tpr: 0.884984025559; rev: workspace" role="graphics-symbol" aria-roledescription="point" transform="translate(62.91727140783745,34.50479233226839)" d="M2.7386127875258306,0A2.7386127875258306,2.7386127875258306,0,1,1,-2.7386127875258306,0A2.7386127875258306,2.7386127875258306,0,1,1,2.7386127875258306,0" stroke="#4c78a8" stroke-width="2" opacity="0"/><path aria-label="fpr: 0.232946298984; tpr: 0.894568690096; rev: workspace" role="graphics-symbol" aria-roledescription="point" transform="translate(69.88388969521044,31.629392971246016)" d="M2.7386127875258306,0A2.7386127875258306,2.7386127875258306,0,1,1,-2.7386127875258306,0A2.7386127875258306,2.7386127875258306,0,1,1,2.7386127875258306,0" stroke="#4c78a8" stroke-width="2" opacity="0"/><path aria-label="fpr: 0.235123367199; tpr: 0.894568690096; rev: workspace" role="graphics-symbol" aria-roledescription="point" transform="translate(70.53701015965167,31.629392971246016)" d="M2.7386127875258306,0A2.7386127875258306,2.7386127875258306,0,1,1,-2.7386127875258306,0A2.7386127875258306,2.7386127875258306,0,1,1,2.7386127875258306,0" stroke="#4c78a8" stroke-width="2" opacity="0"/><path aria-label="fpr: 0.235123367199; tpr: 0.896166134185; rev: workspace" role="graphics-symbol" aria-roledescription="point" transform="translate(70.53701015965167,31.150159744408935)" d="M2.7386127875258306,0A2.7386127875258306,2.7386127875258306,0,1,1,-2.7386127875258306,0A2.7386127875258306,2.7386127875258306,0,1,1,2.7386127875258306,0" stroke="#4c78a8" stroke-width="2" opacity="0"/><path aria-label="fpr: 0.260522496372; tpr: 0.899361022364; rev: workspace" role="graphics-symbol" aria-roledescription="point" transform="translate(78.1567489114659,30.191693290734833)" d="M2.7386127875258306,0A2.7386127875258306,2.7386127875258306,0,1,1,-2.7386127875258306,0A2.7386127875258306,2.7386127875258306,0,1,1,2.7386127875258306,0" stroke="#4c78a8" stroke-width="2" opacity="0"/><path aria-label="fpr: 0.263425253991; tpr: 0.899361022364; rev: workspace" role="graphics-symbol" aria-roledescription="point" transform="translate(79.02757619738752,30.191693290734833)" d="M2.7386127875258306,0A2.7386127875258306,2.7386127875258306,0,1,1,-2.7386127875258306,0A2.7386127875258306,2.7386127875258306,0,1,1,2.7386127875258306,0" stroke="#4c78a8" stroke-width="2" opacity="0"/><path aria-label="fpr: 0.263425253991; tpr: 0.900958466454; rev: workspace" role="graphics-symbol" aria-roledescription="point" transform="translate(79.02757619738752,29.71246006389775)" d="M2.7386127875258306,0A2.7386127875258306,2.7386127875258306,0,1,1,-2.7386127875258306,0A2.7386127875258306,2.7386127875258306,0,1,1,2.7386127875258306,0" stroke="#4c78a8" stroke-width="2" opacity="0"/><path aria-label="fpr: 0.264876632801; tpr: 0.900958466454; rev: workspace" role="graphics-symbol" aria-roledescription="point" transform="translate(79.46298984034833,29.71246006389775)" d="M2.7386127875258306,0A2.7386127875258306,2.7386127875258306,0,1,1,-2.7386127875258306,0A2.7386127875258306,2.7386127875258306,0,1,1,2.7386127875258306,0" stroke="#4c78a8" stroke-width="2" opacity="0"/><path aria-label="fpr: 0.264876632801; tpr: 0.902555910543; rev: workspace" role="graphics-symbol" aria-roledescription="point" transform="translate(79.46298984034833,29.2332268370607)" d="M2.7386127875258306,0A2.7386127875258306,2.7386127875258306,0,1,1,-2.7386127875258306,0A2.7386127875258306,2.7386127875258306,0,1,1,2.7386127875258306,0" stroke="#4c78a8" stroke-width="2" opacity="0"/><path aria-label="fpr: 0.297532656023; tpr: 0.913738019169; rev: workspace" role="graphics-symbol" aria-roledescription="point" transform="translate(89.25979680696662,25.87859424920128)" d="M2.7386127875258306,0A2.7386127875258306,2.7386127875258306,0,1,1,-2.7386127875258306,0A2.7386127875258306,2.7386127875258306,0,1,1,2.7386127875258306,0" stroke="#4c78a8" stroke-width="2" opacity="0"/><path aria-label="fpr: 0.299709724238; tpr: 0.913738019169; rev: workspace" role="graphics-symbol" aria-roledescription="point" transform="translate(89.91291727140784,25.87859424920128)" d="M2.7386127875258306,0A2.7386127875258306,2.7386127875258306,0,1,1,-2.7386127875258306,0A2.7386127875258306,2.7386127875258306,0,1,1,2.7386127875258306,0" stroke="#4c78a8" stroke-width="2" opacity="0"/><path aria-label="fpr: 0.307692307692; tpr: 0.913738019169; rev: workspace" role="graphics-symbol" aria-roledescription="point" transform="translate(92.3076923076923,25.87859424920128)" d="M2.7386127875258306,0A2.7386127875258306,2.7386127875258306,0,1,1,-2.7386127875258306,0A2.7386127875258306,2.7386127875258306,0,1,1,2.7386127875258306,0" stroke="#4c78a8" stroke-width="2" opacity="0"/><path aria-label="fpr: 0.309143686502; tpr: 0.913738019169; rev: workspace" role="graphics-symbol" aria-roledescription="point" transform="translate(92.74310595065312,25.87859424920128)" d="M2.7386127875258306,0A2.7386127875258306,2.7386127875258306,0,1,1,-2.7386127875258306,0A2.7386127875258306,2.7386127875258306,0,1,1,2.7386127875258306,0" stroke="#4c78a8" stroke-width="2" opacity="0"/><path aria-label="fpr: 0.309143686502; tpr: 0.915335463259; rev: workspace" role="graphics-symbol" aria-roledescription="point" transform="translate(92.74310595065312,25.399361022364232)" d="M2.7386127875258306,0A2.7386127875258306,2.7386127875258306,0,1,1,-2.7386127875258306,0A2.7386127875258306,2.7386127875258306,0,1,1,2.7386127875258306,0" stroke="#4c78a8" stroke-width="2" opacity="0"/><path aria-label="fpr: 0.309869375907; tpr: 0.915335463259; rev: workspace" role="graphics-symbol" aria-roledescription="point" transform="translate(92.96081277213354,25.399361022364232)" d="M2.7386127875258306,0A2.7386127875258306,2.7386127875258306,0,1,1,-2.7386127875258306,0A2.7386127875258306,2.7386127875258306,0,1,1,2.7386127875258306,0" stroke="#4c78a8" stroke-width="2" opacity="0"/><path aria-label="fpr: 0.309869375907; tpr: 0.916932907348; rev: workspace" role="graphics-symbol" aria-roledescription="point" transform="translate(92.96081277213354,24.920127795527147)" d="M2.7386127875258306,0A2.7386127875258306,2.7386127875258306,0,1,1,-2.7386127875258306,0A2.7386127875258306,2.7386127875258306,0,1,1,2.7386127875258306,0" stroke="#4c78a8" stroke-width="2" opacity="0"/><path aria-label="fpr: 0.346879535559; tpr: 0.928115015974; rev: workspace" role="graphics-symbol" aria-roledescription="point" transform="translate(104.06386066763424,21.56549520766773)" d="M2.7386127875258306,0A2.7386127875258306,2.7386127875258306,0,1,1,-2.7386127875258306,0A2.7386127875258306,2.7386127875258306,0,1,1,2.7386127875258306,0" stroke="#4c78a8" stroke-width="2" opacity="0"/><path aria-label="fpr: 0.348330914369; tpr: 0.928115015974; rev: workspace" role="graphics-symbol" aria-roledescription="point" transform="translate(104.49927431059507,21.56549520766773)" d="M2.7386127875258306,0A2.7386127875258306,2.7386127875258306,0,1,1,-2.7386127875258306,0A2.7386127875258306,2.7386127875258306,0,1,1,2.7386127875258306,0" stroke="#4c78a8" stroke-width="2" opacity="0"/><path aria-label="fpr: 0.349056603774; tpr: 0.929712460064; rev: workspace" role="graphics-symbol" aria-roledescription="point" transform="translate(104.71698113207546,21.086261980830677)" d="M2.7386127875258306,0A2.7386127875258306,2.7386127875258306,0,1,1,-2.7386127875258306,0A2.7386127875258306,2.7386127875258306,0,1,1,2.7386127875258306,0" stroke="#4c78a8" stroke-width="2" opacity="0"/><path aria-label="fpr: 0.408563134978; tpr: 0.937699680511; rev: workspace" role="graphics-symbol" aria-roledescription="point" transform="translate(122.5689404934688,18.69009584664536)" d="M2.7386127875258306,0A2.7386127875258306,2.7386127875258306,0,1,1,-2.7386127875258306,0A2.7386127875258306,2.7386127875258306,0,1,1,2.7386127875258306,0" stroke="#4c78a8" stroke-width="2" opacity="0"/><path aria-label="fpr: 0.409288824383; tpr: 0.937699680511; rev: workspace" role="graphics-symbol" aria-roledescription="point" transform="translate(122.78664731494919,18.69009584664536)" d="M2.7386127875258306,0A2.7386127875258306,2.7386127875258306,0,1,1,-2.7386127875258306,0A2.7386127875258306,2.7386127875258306,0,1,1,2.7386127875258306,0" stroke="#4c78a8" stroke-width="2" opacity="0"/><path aria-label="fpr: 0.409288824383; tpr: 0.939297124601; rev: workspace" role="graphics-symbol" aria-roledescription="point" transform="translate(122.78664731494919,18.21086261980831)" d="M2.7386127875258306,0A2.7386127875258306,2.7386127875258306,0,1,1,-2.7386127875258306,0A2.7386127875258306,2.7386127875258306,0,1,1,2.7386127875258306,0" stroke="#4c78a8" stroke-width="2" opacity="0"/><path aria-label="fpr: 0.410740203193; tpr: 0.939297124601; rev: workspace" role="graphics-symbol" aria-roledescription="point" transform="translate(123.22206095791002,18.21086261980831)" d="M2.7386127875258306,0A2.7386127875258306,2.7386127875258306,0,1,1,-2.7386127875258306,0A2.7386127875258306,2.7386127875258306,0,1,1,2.7386127875258306,0" stroke="#4c78a8" stroke-width="2" opacity="0"/><path aria-label="fpr: 0.411465892598; tpr: 0.939297124601; rev: workspace" role="graphics-symbol" aria-roledescription="point" transform="translate(123.43976777939042,18.21086261980831)" d="M2.7386127875258306,0A2.7386127875258306,2.7386127875258306,0,1,1,-2.7386127875258306,0A2.7386127875258306,2.7386127875258306,0,1,1,2.7386127875258306,0" stroke="#4c78a8" stroke-width="2" opacity="0"/><path aria-label="fpr: 0.464441219158; tpr: 0.945686900958; rev: workspace" role="graphics-symbol" aria-roledescription="point" transform="translate(139.3323657474601,16.293929712460077)" d="M2.7386127875258306,0A2.7386127875258306,2.7386127875258306,0,1,1,-2.7386127875258306,0A2.7386127875258306,2.7386127875258306,0,1,1,2.7386127875258306,0" stroke="#4c78a8" stroke-width="2" opacity="0"/><path aria-label="fpr: 0.465892597968; tpr: 0.945686900958; rev: workspace" role="graphics-symbol" aria-roledescription="point" transform="translate(139.76777939042088,16.293929712460077)" d="M2.7386127875258306,0A2.7386127875258306,2.7386127875258306,0,1,1,-2.7386127875258306,0A2.7386127875258306,2.7386127875258306,0,1,1,2.7386127875258306,0" stroke="#4c78a8" stroke-width="2" opacity="0"/><path aria-label="fpr: 0.465892597968; tpr: 0.947284345048; rev: workspace" role="graphics-symbol" aria-roledescription="point" transform="translate(139.76777939042088,15.814696485622992)" d="M2.7386127875258306,0A2.7386127875258306,2.7386127875258306,0,1,1,-2.7386127875258306,0A2.7386127875258306,2.7386127875258306,0,1,1,2.7386127875258306,0" stroke="#4c78a8" stroke-width="2" opacity="0"/><path aria-label="fpr: 0.523222060958; tpr: 0.961661341853; rev: workspace" role="graphics-symbol" aria-roledescription="point" transform="translate(156.966618287373,11.501597444089473)" d="M2.7386127875258306,0A2.7386127875258306,2.7386127875258306,0,1,1,-2.7386127875258306,0A2.7386127875258306,2.7386127875258306,0,1,1,2.7386127875258306,0" stroke="#4c78a8" stroke-width="2" opacity="0"/><path aria-label="fpr: 0.524673439768; tpr: 0.961661341853; rev: workspace" role="graphics-symbol" aria-roledescription="point" transform="translate(157.4020319303338,11.501597444089473)" d="M2.7386127875258306,0A2.7386127875258306,2.7386127875258306,0,1,1,-2.7386127875258306,0A2.7386127875258306,2.7386127875258306,0,1,1,2.7386127875258306,0" stroke="#4c78a8" stroke-width="2" opacity="0"/><path aria-label="fpr: 0.524673439768; tpr: 0.963258785942; rev: workspace" role="graphics-symbol" aria-roledescription="point" transform="translate(157.4020319303338,11.02236421725239)" d="M2.7386127875258306,0A2.7386127875258306,2.7386127875258306,0,1,1,-2.7386127875258306,0A2.7386127875258306,2.7386127875258306,0,1,1,2.7386127875258306,0" stroke="#4c78a8" stroke-width="2" opacity="0"/><path aria-label="fpr: 0.528301886792; tpr: 0.963258785942; rev: workspace" role="graphics-symbol" aria-roledescription="point" transform="translate(158.49056603773585,11.02236421725239)" d="M2.7386127875258306,0A2.7386127875258306,2.7386127875258306,0,1,1,-2.7386127875258306,0A2.7386127875258306,2.7386127875258306,0,1,1,2.7386127875258306,0" stroke="#4c78a8" stroke-width="2" opacity="0"/><path aria-label="fpr: 0.588534107402; tpr: 0.97124600639; rev: workspace" role="graphics-symbol" aria-roledescription="point" transform="translate(176.56023222060958,8.626198083067106)" d="M2.7386127875258306,0A2.7386127875258306,2.7386127875258306,0,1,1,-2.7386127875258306,0A2.7386127875258306,2.7386127875258306,0,1,1,2.7386127875258306,0" stroke="#4c78a8" stroke-width="2" opacity="0"/><path aria-label="fpr: 0.592162554427; tpr: 0.97124600639; rev: workspace" role="graphics-symbol" aria-roledescription="point" transform="translate(177.64876632801162,8.626198083067106)" d="M2.7386127875258306,0A2.7386127875258306,2.7386127875258306,0,1,1,-2.7386127875258306,0A2.7386127875258306,2.7386127875258306,0,1,1,2.7386127875258306,0" stroke="#4c78a8" stroke-width="2" opacity="0"/><path aria-label="fpr: 0.593613933237; tpr: 0.97124600639; rev: workspace" role="graphics-symbol" aria-roledescription="point" transform="translate(178.08417997097243,8.626198083067106)" d="M2.7386127875258306,0A2.7386127875258306,2.7386127875258306,0,1,1,-2.7386127875258306,0A2.7386127875258306,2.7386127875258306,0,1,1,2.7386127875258306,0" stroke="#4c78a8" stroke-width="2" opacity="0"/><path aria-label="fpr: 0.595791001451; tpr: 0.97124600639; rev: workspace" role="graphics-symbol" aria-roledescription="point" transform="translate(178.73730043541363,8.626198083067106)" d="M2.7386127875258306,0A2.7386127875258306,2.7386127875258306,0,1,1,-2.7386127875258306,0A2.7386127875258306,2.7386127875258306,0,1,1,2.7386127875258306,0" stroke="#4c78a8" stroke-width="2" opacity="0"/><path aria-label="fpr: 0.595791001451; tpr: 0.972843450479; rev: workspace" role="graphics-symbol" aria-roledescription="point" transform="translate(178.73730043541363,8.14696485623002)" d="M2.7386127875258306,0A2.7386127875258306,2.7386127875258306,0,1,1,-2.7386127875258306,0A2.7386127875258306,2.7386127875258306,0,1,1,2.7386127875258306,0" stroke="#4c78a8" stroke-width="2" opacity="0"/><path aria-label="fpr: 0.596516690856; tpr: 0.972843450479; rev: workspace" role="graphics-symbol" aria-roledescription="point" transform="translate(178.95500725689405,8.14696485623002)" d="M2.7386127875258306,0A2.7386127875258306,2.7386127875258306,0,1,1,-2.7386127875258306,0A2.7386127875258306,2.7386127875258306,0,1,1,2.7386127875258306,0" stroke="#4c78a8" stroke-width="2" opacity="0"/><path aria-label="fpr: 0.664005805515; tpr: 0.972843450479; rev: workspace" role="graphics-symbol" aria-roledescription="point" transform="translate(199.20174165457183,8.14696485623002)" d="M2.7386127875258306,0A2.7386127875258306,2.7386127875258306,0,1,1,-2.7386127875258306,0A2.7386127875258306,2.7386127875258306,0,1,1,2.7386127875258306,0" stroke="#4c78a8" stroke-width="2" opacity="0"/><path aria-label="fpr: 0.665457184325; tpr: 0.972843450479; rev: workspace" role="graphics-symbol" aria-roledescription="point" transform="translate(199.63715529753264,8.14696485623002)" d="M2.7386127875258306,0A2.7386127875258306,2.7386127875258306,0,1,1,-2.7386127875258306,0A2.7386127875258306,2.7386127875258306,0,1,1,2.7386127875258306,0" stroke="#4c78a8" stroke-width="2" opacity="0"/><path aria-label="fpr: 0.665457184325; tpr: 0.976038338658; rev: workspace" role="graphics-symbol" aria-roledescription="point" transform="translate(199.63715529753264,7.18849840255592)" d="M2.7386127875258306,0A2.7386127875258306,2.7386127875258306,0,1,1,-2.7386127875258306,0A2.7386127875258306,2.7386127875258306,0,1,1,2.7386127875258306,0" stroke="#4c78a8" stroke-width="2" opacity="0"/><path aria-label="fpr: 0.666908563135; tpr: 0.976038338658; rev: workspace" role="graphics-symbol" aria-roledescription="point" transform="translate(200.07256894049348,7.18849840255592)" d="M2.7386127875258306,0A2.7386127875258306,2.7386127875258306,0,1,1,-2.7386127875258306,0A2.7386127875258306,2.7386127875258306,0,1,1,2.7386127875258306,0" stroke="#4c78a8" stroke-width="2" opacity="0"/><path aria-label="fpr: 0.668359941945; tpr: 0.976038338658; rev: workspace" role="graphics-symbol" aria-roledescription="point" transform="translate(200.5079825834543,7.18849840255592)" d="M2.7386127875258306,0A2.7386127875258306,2.7386127875258306,0,1,1,-2.7386127875258306,0A2.7386127875258306,2.7386127875258306,0,1,1,2.7386127875258306,0" stroke="#4c78a8" stroke-width="2" opacity="0"/><path aria-label="fpr: 0.671262699565; tpr: 0.976038338658; rev: workspace" role="graphics-symbol" aria-roledescription="point" transform="translate(201.3788098693759,7.18849840255592)" d="M2.7386127875258306,0A2.7386127875258306,2.7386127875258306,0,1,1,-2.7386127875258306,0A2.7386127875258306,2.7386127875258306,0,1,1,2.7386127875258306,0" stroke="#4c78a8" stroke-width="2" opacity="0"/><path aria-label="fpr: 0.756894049347; tpr: 0.982428115016; rev: workspace" role="graphics-symbol" aria-roledescription="point" transform="translate(227.06821480406387,5.271565495207653)" d="M2.7386127875258306,0A2.7386127875258306,2.7386127875258306,0,1,1,-2.7386127875258306,0A2.7386127875258306,2.7386127875258306,0,1,1,2.7386127875258306,0" stroke="#4c78a8" stroke-width="2" opacity="0"/><path aria-label="fpr: 0.761973875181; tpr: 0.982428115016; rev: workspace" role="graphics-symbol" aria-roledescription="point" transform="translate(228.5921625544267,5.271565495207653)" d="M2.7386127875258306,0A2.7386127875258306,2.7386127875258306,0,1,1,-2.7386127875258306,0A2.7386127875258306,2.7386127875258306,0,1,1,2.7386127875258306,0" stroke="#4c78a8" stroke-width="2" opacity="0"/><path aria-label="fpr: 0.870827285922; tpr: 0.992012779553; rev: workspace" role="graphics-symbol" aria-roledescription="point" transform="translate(261.2481857764877,2.396166134185318)" d="M2.7386127875258306,0A2.7386127875258306,2.7386127875258306,0,1,1,-2.7386127875258306,0A2.7386127875258306,2.7386127875258306,0,1,1,2.7386127875258306,0" stroke="#4c78a8" stroke-width="2" opacity="0"/><path aria-label="fpr: 0.872278664731; tpr: 0.992012779553; rev: workspace" role="graphics-symbol" aria-roledescription="point" transform="translate(261.6835994194485,2.396166134185318)" d="M2.7386127875258306,0A2.7386127875258306,2.7386127875258306,0,1,1,-2.7386127875258306,0A2.7386127875258306,2.7386127875258306,0,1,1,2.7386127875258306,0" stroke="#4c78a8" stroke-width="2" opacity="0"/><path aria-label="fpr: 0.873730043541; tpr: 0.993610223642; rev: workspace" role="graphics-symbol" aria-roledescription="point" transform="translate(262.1190130624093,1.9169329073482344)" d="M2.7386127875258306,0A2.7386127875258306,2.7386127875258306,0,1,1,-2.7386127875258306,0A2.7386127875258306,2.7386127875258306,0,1,1,2.7386127875258306,0" stroke="#4c78a8" stroke-width="2" opacity="0"/><path aria-label="fpr: 0.875181422351; tpr: 0.993610223642; rev: workspace" role="graphics-symbol" aria-roledescription="point" transform="translate(262.5544267053701,1.9169329073482344)" d="M2.7386127875258306,0A2.7386127875258306,2.7386127875258306,0,1,1,-2.7386127875258306,0A2.7386127875258306,2.7386127875258306,0,1,1,2.7386127875258306,0" stroke="#4c78a8" stroke-width="2" opacity="0"/><path aria-label="fpr: 0.876632801161; tpr: 0.993610223642; rev: workspace" role="graphics-symbol" aria-roledescription="point" transform="translate(262.9898403483309,1.9169329073482344)" d="M2.7386127875258306,0A2.7386127875258306,2.7386127875258306,0,1,1,-2.7386127875258306,0A2.7386127875258306,2.7386127875258306,0,1,1,2.7386127875258306,0" stroke="#4c78a8" stroke-width="2" opacity="0"/><path aria-label="fpr: 0.878809869376; tpr: 0.993610223642; rev: workspace" role="graphics-symbol" aria-roledescription="point" transform="translate(263.6429608127721,1.9169329073482344)" d="M2.7386127875258306,0A2.7386127875258306,2.7386127875258306,0,1,1,-2.7386127875258306,0A2.7386127875258306,2.7386127875258306,0,1,1,2.7386127875258306,0" stroke="#4c78a8" stroke-width="2" opacity="0"/><path aria-label="fpr: 0.880261248186; tpr: 0.993610223642; rev: workspace" role="graphics-symbol" aria-roledescription="point" transform="translate(264.07837445573296,1.9169329073482344)" d="M2.7386127875258306,0A2.7386127875258306,2.7386127875258306,0,1,1,-2.7386127875258306,0A2.7386127875258306,2.7386127875258306,0,1,1,2.7386127875258306,0" stroke="#4c78a8" stroke-width="2" opacity="0"/><path aria-label="fpr: 0.880986937591; tpr: 0.993610223642; rev: workspace" role="graphics-symbol" aria-roledescription="point" transform="translate(264.2960812772134,1.9169329073482344)" d="M2.7386127875258306,0A2.7386127875258306,2.7386127875258306,0,1,1,-2.7386127875258306,0A2.7386127875258306,2.7386127875258306,0,1,1,2.7386127875258306,0" stroke="#4c78a8" stroke-width="2" opacity="0"/><path aria-label="fpr: 1; tpr: 1; rev: workspace" role="graphics-symbol" aria-roledescription="point" transform="translate(300,0)" d="M2.7386127875258306,0A2.7386127875258306,2.7386127875258306,0,1,1,-2.7386127875258306,0A2.7386127875258306,2.7386127875258306,0,1,1,2.7386127875258306,0" stroke="#4c78a8" stroke-width="2" opacity="0"/></g><g class="mark-path role-mark layer_0_layer_1_voronoi" role="graphics-symbol" aria-roledescription="path mark container"><path transform="translate(0,0)" stroke-width="0.35"/><path transform="translate(0,0)" stroke-width="0.35"/><path transform="translate(0,0)" stroke-width="0.35"/><path transform="translate(0,0)" d="M0.10885373472595443,0L0.10895131617264564,300L0,300L0,0Z" stroke-width="0.35"/><path transform="translate(0,0)" stroke-width="0.35"/><path transform="translate(0,0)" stroke-width="0.35"/><path transform="translate(0,0)" stroke-width="0.35"/><path transform="translate(0,0)" stroke-width="0.35"/><path transform="translate(0,0)" d="M0.10895131617264635,300L0.10885373472595514,0L0.3265611888828413,0L0.3268493265062271,300Z" stroke-width="0.35"/><path transform="translate(0,0)" d="M0.5442685978766981,0L0.5447336889992842,300L0.3268493265062272,300L0.3265611888828414,0Z" stroke-width="0.35"/><path transform="translate(0,0)" stroke-width="0.35"/><path transform="translate(0,0)" d="M0.544733688999285,300L0.5442685978766989,0L0.7619759339715695,0L0.7625960221074326,300Z" stroke-width="0.35"/><path transform="translate(0,0)" d="M0.7625960221074326,300L0.7619759339715695,0L1.1973901637867976,0L1.198213328519054,300Z" stroke-width="0.35"/><path transform="translate(0,0)" stroke-width="0.35"/><path transform="translate(0,0)" d="M1.198213328519053,300L1.1973901637867967,0L1.632804137616615,0L1.6337006353738421,300Z" stroke-width="0.35"/><path transform="translate(0,0)" stroke-width="0.35"/><path transform="translate(0,0)" d="M1.8505108489251074,0L1.851374163943218,300L1.633700635373842,300L1.6328041376166147,0Z" stroke-width="0.35"/><path transform="translate(0,0)" stroke-width="0.35"/><path transform="translate(0,0)" d="M1.851374163943218,300L1.8505108489251074,0L2.177070621948823,0L2.17780439487,300Z" stroke-width="0.35"/><path transform="translate(0,0)" d="M2.6124833363219535,0L2.612934046708939,300L2.1778043948699994,300L2.1770706219488227,0Z" stroke-width="0.35"/><path transform="translate(0,0)" d="M3.265601985751945,0L3.265494146911299,300L2.612934046708939,300L2.6124833363219535,0Z" stroke-width="0.35"/><path transform="translate(0,0)" d="M4.136427326868306,0L4.135696147388873,300L3.2654941469112986,300L3.2656019857519447,0Z" stroke-width="0.35"/><path transform="translate(0,0)" stroke-width="0.35"/><path transform="translate(0,0)" d="M4.898400690874087,0L4.897531853809608,300L4.135696147388873,300L4.136427326868306,0Z" stroke-width="0.35"/><path transform="translate(0,0)" stroke-width="0.35"/><path transform="translate(0,0)" d="M5.333814701567231,0L5.333084404021246,300L4.897531853809608,300L4.898400690874087,0Z" stroke-width="0.35"/><path transform="translate(0,0)" d="M5.5515219552975905,0L5.550921847352203,300L5.333084404021247,300L5.333814701567232,0Z" stroke-width="0.35"/><path transform="translate(0,0)" stroke-width="0.35"/><path transform="translate(0,0)" d="M5.550921847352203,300L5.5515219552975905,0L6.422351534746253,0L6.422464644819328,300Z" stroke-width="0.35"/><path transform="translate(0,0)" d="M6.422464644819328,300L6.422351534746253,0L7.293181045037969,0L7.293941685010818,300Z" stroke-width="0.35"/><path transform="translate(0,0)" stroke-width="0.35"/><path transform="translate(0,0)" d="M7.293941685010818,300L7.293181045037969,0L7.728594981699361,0L7.72947212926449,300Z" stroke-width="0.35"/><path transform="translate(0,0)" d="M7.729472129264491,300L7.728594981699362,0L8.599421334336325,0L8.600050477949441,300Z" stroke-width="0.35"/><path transform="translate(0,0)" stroke-width="0.35"/><path transform="translate(0,0)" d="M9.687952888200622,0L9.68773014369628,300L8.600050477949443,300L8.599421334336327,0Z" stroke-width="0.35"/><path transform="translate(0,0)" d="M9.68773014369628,300L9.687952888200622,0L10.55877826711852,0L10.55797718189964,300Z" stroke-width="0.35"/><path transform="translate(0,0)" d="M11.429605799179159,0L11.428828972041124,300L10.55797718189964,300L10.55877826711852,0Z" stroke-width="0.35"/><path transform="translate(0,0)" d="M11.428828972041124,300L11.429605799179159,0L12.953556509350676,0L12.953844524417926,300Z" stroke-width="0.35"/><path transform="translate(0,0)" stroke-width="0.35"/><path transform="translate(0,0)" d="M12.953844524417926,300L12.953556509350676,0L14.259799627083513,0L14.260677077064178,300Z" stroke-width="0.35"/><path transform="translate(0,0)" d="M15.89259782405592,0L15.892475732827092,300L14.260677077064178,300L14.259799627083513,0Z" stroke-width="0.35"/><path transform="translate(0,0)" d="M17.307689326696757,0L17.306791479007718,300L15.89247573282709,300L15.892597824055919,0Z" stroke-width="0.35"/><path transform="translate(0,0)" d="M17.306791479007718,300L17.307689326696757,0L18.831640049720786,0L18.83162879369747,300Z" stroke-width="0.35"/><path transform="translate(0,0)" d="M21.770682178764666,0L21.770811186296225,300L18.83162879369747,300L18.831640049720786,0Z" stroke-width="0.35"/><path transform="translate(0,0)" d="M24.60087042946063,0L24.60053316319205,300L21.77081118629623,300L21.77068217876467,0Z" stroke-width="0.35"/><path transform="translate(0,0)" stroke-width="0.35"/><path transform="translate(0,0)" d="M24.60053316319205,300L24.60087042946063,0L26.01596747154952,0L26.016661607625167,300Z" stroke-width="0.35"/><path transform="translate(0,0)" d="M28.08417975614662,0L28.084260102857318,300L26.016661607625167,300L26.01596747154952,0Z" stroke-width="0.35"/><path transform="translate(0,0)" d="M30.152391932469875,0L30.151535778331652,300L28.084260102857318,300L28.08417975614662,0Z" stroke-width="0.35"/><path transform="translate(0,0)" d="M30.151535778331652,300L30.152391932469875,0L32.11175563744301,0L32.11205528357637,300Z" stroke-width="0.35"/><path transform="translate(0,0)" d="M32.11205528357637,300L32.11175563744301,0L34.07111895573092,0L34.07153882960877,300Z" stroke-width="0.35"/><path transform="translate(0,0)" stroke-width="0.35"/><path transform="translate(0,0)" d="M34.39767826011958,0L34.39782037712924,300L34.07153882960877,300L34.07111895573092,0Z" stroke-width="0.35"/><path transform="translate(0,0)" d="M36.13933222526167,0L36.13874233761665,300L34.39782037712924,300L34.39767826011958,0Z" stroke-width="0.35"/><path transform="translate(0,0)" d="M36.13874233761664,300L36.13933222526166,0L37.77213374442485,0L37.77219927576188,300Z" stroke-width="0.35"/><path transform="translate(0,0)" d="M40.92888270134873,0L40.92888026841522,300L37.77219927576188,300L37.77213374442485,0Z" stroke-width="0.35"/><path transform="translate(0,0)" d="M40.92888026841522,300L40.92888270134873,0L44.41219271566372,0L44.41255607176414,300Z" stroke-width="0.35"/><path transform="translate(0,0)" d="M46.69811286546207,0L46.69830593611392,300L44.412556071764136,300L44.412192715663714,0Z" stroke-width="0.35"/><path transform="translate(0,0)" stroke-width="0.35"/><path transform="translate(0,0)" d="M48.9840322260809,0L48.9831966382493,300L46.69830593611392,300L46.69811286546207,0Z" stroke-width="0.35"/><path transform="translate(0,0)" d="M51.81422131130901,0L51.81447654506015,300L48.9831966382493,300L48.9840322260809,0Z" stroke-width="0.35"/><path transform="translate(0,0)" d="M54.317849603443136,0L54.31714002312817,300L51.81447654506016,300L51.81422131130902,0Z" stroke-width="0.35"/><path transform="translate(0,0)" stroke-width="0.35"/><path transform="translate(0,0)" d="M54.31714002312817,300L54.317849603443136,0L58.127718792671295,0L58.12758974392448,300Z" stroke-width="0.35"/><path transform="translate(0,0)" d="M62.37300321738555,0L62.372623984861164,300L58.12758974392448,300L58.127718792671295,0Z" stroke-width="0.35"/><path transform="translate(0,0)" d="M62.372623984861164,300L62.37300321738555,0L66.40058172246057,0L66.40061759061595,300Z" stroke-width="0.35"/><path transform="translate(0,0)" d="M66.40061759061595,300L66.40058172246057,0L70.21045245381191,0L70.21123851088686,300Z" stroke-width="0.35"/><path transform="translate(0,0)" stroke-width="0.35"/><path transform="translate(0,0)" d="M74.34688157962935,0L74.3470086468045,300L70.21123851088686,300L70.21045245381191,0Z" stroke-width="0.35"/><path transform="translate(0,0)" d="M78.59216241210505,0L78.59211679577999,300L74.34700864680448,300L74.34688157962934,0Z" stroke-width="0.35"/><path transform="translate(0,0)" stroke-width="0.35"/><path transform="translate(0,0)" d="M79.2452811196111,0L79.24470216680241,300L78.59211679577997,300L78.59216241210504,0Z" stroke-width="0.35"/><path transform="translate(0,0)" stroke-width="0.35"/><path transform="translate(0,0)" d="M79.24470216680241,300L79.2452811196111,0L84.36139357077273,0L84.36131314975634,300Z" stroke-width="0.35"/><path transform="translate(0,0)" d="M84.36131314975634,300L84.36139357077273,0L89.58635987695213,0L89.5872428179288,300Z" stroke-width="0.35"/><path transform="translate(0,0)" d="M91.11030478504361,0L91.11030190321685,300L89.5872428179288,300L89.58635987695213,0Z" stroke-width="0.35"/><path transform="translate(0,0)" d="M92.5253962335741,0L92.52451356466294,300L91.11030190321686,300L91.11030478504362,0Z" stroke-width="0.35"/><path transform="translate(0,0)" stroke-width="0.35"/><path transform="translate(0,0)" d="M92.85195642468767,0L92.85107191669991,300L92.52451356466294,300L92.5253962335741,0Z" stroke-width="0.35"/><path transform="translate(0,0)" stroke-width="0.35"/><path transform="translate(0,0)" d="M92.85107191669991,300L92.85195642468767,0L98.51233470780905,0L98.51243233883586,300Z" stroke-width="0.35"/><path transform="translate(0,0)" d="M104.28156581345314,0L104.28105501947728,300L98.51243233883588,300L98.51233470780906,0Z" stroke-width="0.35"/><path transform="translate(0,0)" d="M104.608125320811,0L104.60740230557955,300L104.28105501947728,300L104.28156581345314,0Z" stroke-width="0.35"/><path transform="translate(0,0)" d="M104.60740230557954,300L104.60812532081098,0L113.64295944560486,0L113.64298447663865,300Z" stroke-width="0.35"/><path transform="translate(0,0)" d="M122.67779344180379,0L122.67765416972384,300L113.64298447663865,300L113.64295944560486,0Z" stroke-width="0.35"/><path transform="translate(0,0)" d="M123.00435277797075,0L123.00393867727527,300L122.67765416972384,300L122.67779344180379,0Z" stroke-width="0.35"/><path transform="translate(0,0)" stroke-width="0.35"/><path transform="translate(0,0)" d="M123.33091221111196,0L123.33026238098022,300L123.00393867727527,300L123.00435277797075,0Z" stroke-width="0.35"/><path transform="translate(0,0)" d="M123.33026238098023,300L123.33091221111198,0L131.38606691052266,0L131.38600692565188,300Z" stroke-width="0.35"/><path transform="translate(0,0)" d="M139.55007540648205,0L139.55094037778656,300L131.38600692565188,300L131.38606691052266,0Z" stroke-width="0.35"/><path transform="translate(0,0)" d="M148.3672001689149,0L148.36714990506366,300L139.55094037778656,300L139.55007540648205,0Z" stroke-width="0.35"/><path transform="translate(0,0)" stroke-width="0.35"/><path transform="translate(0,0)" d="M148.36714990506368,300L148.36720016891493,0L157.1843254149562,0L157.18441872465158,300Z" stroke-width="0.35"/><path transform="translate(0,0)" d="M157.18441872465158,300L157.1843254149562,0L157.94630094016952,0L157.94695352810177,300Z" stroke-width="0.35"/><path transform="translate(0,0)" stroke-width="0.35"/><path transform="translate(0,0)" d="M157.94695352810177,300L157.94630094016952,0L167.52540149502812,0L167.52536920852077,300Z" stroke-width="0.35"/><path transform="translate(0,0)" d="M167.52536920852074,300L167.5254014950281,0L177.10450164271825,0L177.1052917694091,300Z" stroke-width="0.35"/><path transform="translate(0,0)" d="M177.1052917694091,300L177.10450164271825,0L177.86647588415806,0L177.86730949580323,300Z" stroke-width="0.35"/><path transform="translate(0,0)" d="M177.86730949580323,300L177.86647588415806,0L178.41074194543265,0L178.41128402513135,300Z" stroke-width="0.35"/><path transform="translate(0,0)" stroke-width="0.35"/><path transform="translate(0,0)" d="M178.84615451043015,0L178.8463545841859,300L178.41128402513135,300L178.41074194543265,0Z" stroke-width="0.35"/><path transform="translate(0,0)" d="M189.07837319137965,0L189.07834172246612,300L178.84635458418592,300L178.84615451043018,0Z" stroke-width="0.35"/><path transform="translate(0,0)" d="M199.41944555438863,0L199.4185549400373,300L189.07834172246612,300L189.07837319137965,0Z" stroke-width="0.35"/><path transform="translate(0,0)" stroke-width="0.35"/><path transform="translate(0,0)" d="M199.41855494003727,300L199.4194455543886,0L199.85485938146667,0L199.8540248917961,300Z" stroke-width="0.35"/><path transform="translate(0,0)" d="M199.85402489179606,300L199.85485938146664,0L200.29027371939313,0L200.28965107696988,300Z" stroke-width="0.35"/><path transform="translate(0,0)" d="M200.94339590474883,0L200.9432928056484,300L200.2896510769699,300L200.29027371939316,0Z" stroke-width="0.35"/><path transform="translate(0,0)" d="M214.22351395403885,0L214.2235247479233,300L200.9432928056484,300L200.94339590474883,0Z" stroke-width="0.35"/><path transform="translate(0,0)" d="M214.2235247479233,300L214.22351395403885,0L227.83019084512574,0L227.83100454102728,300Z" stroke-width="0.35"/><path transform="translate(0,0)" d="M244.92017446756228,0L244.9201784306458,300L227.83100454102728,300L227.83019084512574,0Z" stroke-width="0.35"/><path transform="translate(0,0)" d="M261.46589068041027,0L261.4653061488637,300L244.9201784306458,300L244.92017446756228,0Z" stroke-width="0.35"/><path transform="translate(0,0)" d="M261.9013035683291,0L261.9004888764215,300L261.46530614886365,300L261.4658906804102,0Z" stroke-width="0.35"/><path transform="translate(0,0)" d="M261.9004888764215,300L261.9013035683291,0L262.3367169549801,0L262.3358241318281,300Z" stroke-width="0.35"/><path transform="translate(0,0)" d="M262.3358241318281,300L262.3367169549801,0L262.77213088819093,0L262.7713265423409,300Z" stroke-width="0.35"/><path transform="translate(0,0)" d="M262.77132654234094,300L262.772130888191,0L263.3163990295974,0L263.31591646639333,300Z" stroke-width="0.35"/><path transform="translate(0,0)" d="M263.31591646639333,300L263.3163990295974,0L263.86066753726976,0L263.8606379738948,300Z" stroke-width="0.35"/><path transform="translate(0,0)" d="M263.8606379738948,300L263.86066753726976,0L264.1872287290896,0L264.1874885410197,300Z" stroke-width="0.35"/><path transform="translate(0,0)" d="M282.1480397262742,0L282.14806347812737,300L264.1874885410197,300L264.1872287290896,0Z" stroke-width="0.35"/><path transform="translate(0,0)" d="M300,0L300,300L282.14806347812737,300L282.1480397262742,0Z" stroke-width="0.35"/></g><g class="mark-rule role-mark layer_1_layer_0_marks" role="graphics-symbol" aria-roledescription="rule mark container" pointer-events="none"/><g class="mark-text role-mark layer_1_layer_1_layer_0_marks" role="graphics-object" aria-roledescription="text mark container" pointer-events="none"/><g class="mark-group role-legend" role="graphics-symbol" aria-roledescription="legend" aria-label="Symbol legend titled 'rev' for fill color and stroke color with 1 value: workspace"><g transform="translate(320,0)"><path class="background" aria-hidden="true" d="M0,0h64v29h-64Z" pointer-events="none"/><g><g class="mark-group role-legend-entry"><g transform="translate(0,16)"><path class="background" aria-hidden="true" d="M0,0h0v0h0Z" pointer-events="none"/><g><g class="mark-group role-scope" role="graphics-object" aria-roledescription="group mark container"><g transform="translate(0,0)"><path class="background" aria-hidden="true" d="M0,0h63.7978515625v12.5h-63.7978515625Z" pointer-events="none" opacity="1"/><g><g class="mark-symbol role-legend-symbol" pointer-events="none"><path transform="translate(6,6)" d="M5,0A5,5,0,1,1,-5,0A5,5,0,1,1,5,0" fill="#4c78a8" stroke="#4c78a8" stroke-width="1.5" opacity="1"/></g><g class="mark-text role-legend-label" pointer-events="none"><text text-anchor="start" transform="translate(16,9)" font-family="sans-serif" font-size="10px" fill="#000" opacity="1">workspace</text></g></g><path class="foreground" aria-hidden="true" d="" pointer-events="none" display="none"/></g></g></g><path class="foreground" aria-hidden="true" d="" pointer-events="none" display="none"/></g></g><g class="mark-text role-legend-title" pointer-events="none"><text text-anchor="start" transform="translate(0,9)" font-family="sans-serif" font-size="11px" font-weight="bold" fill="#000" opacity="1">rev</text></g></g><path class="foreground" aria-hidden="true" d="" pointer-events="none" display="none"/></g></g></g><path class="foreground" aria-hidden="true" d="" display="none"/></g></g></g></svg>
