<svg class="marks" width="406" height="214" viewBox="0 0 406 214" version="1.1" xmlns="http://www.w3.org/2000/svg" xmlns:xlink="http://www.w3.org/1999/xlink"><rect width="406" height="214" style="fill: white;"></rect><defs><linearGradient id="gradient_0" x1="0" x2="0" y1="1" y2="0"><stop offset="0" stop-color="rgb(239, 249, 189)"></stop><stop offset="0.0784313725490196" stop-color="rgb(223, 243, 182)"></stop><stop offset="0.17647058823529413" stop-color="rgb(196, 232, 181)"></stop><stop offset="0.27450980392156865" stop-color="rgb(158, 217, 184)"></stop><stop offset="0.37254901960784315" stop-color="rgb(117, 201, 189)"></stop><stop offset="0.47058823529411764" stop-color="rgb(80, 185, 193)"></stop><stop offset="0.5686274509803921" stop-color="rgb(52, 165, 193)"></stop><stop offset="0.6666666666666666" stop-color="rgb(37, 139, 187)"></stop><stop offset="0.7647058823529411" stop-color="rgb(33, 110, 175)"></stop><stop offset="0.8627450980392157" stop-color="rgb(34, 81, 161)"></stop><stop offset="0.9607843137254902" stop-color="rgb(31, 58, 142)"></stop><stop offset="1" stop-color="rgb(28, 49, 133)"></stop></linearGradient></defs><g transform="translate(67,47)"><g class="mark-group role-frame root"><g transform="translate(0,0)"><path class="background" d="M0,0h0v0h0Z" style="fill: none;"></path><g><g class="mark-group role-column-title facet-title"><g transform="translate(111,-21)"><path class="background" d="M0,0h0v0h0Z" style="fill: none;"></path><g><g class="mark-group role-title"><g transform="translate(0,-21)"><path class="background" d="M0,0h0v0h0Z" style="pointer-events: none; fill: none;"></path><g><g class="mark-text role-title-text" style="pointer-events: none;"><text text-anchor="middle" transform="translate(0,9)" style="font-family: sans-serif; font-size: 11px; font-weight: bold; fill: #000; opacity: 1;">rev</text></g></g><path class="foreground" d="" style="pointer-events: none; display: none; fill: none;"></path></g></g></g><path class="foreground" d="" style="display: none; fill: none;"></path></g></g><g class="mark-group role-row-header row_header"><g transform="translate(-1,0)"><path class="background" d="M0,0h0v100h0Z" style="fill: none;"></path><g><g class="mark-group role-axis"><g transform="translate(0.5,0.5)"><path class="background" d="M0,0h0v0h0Z" style="pointer-events: none; fill: none;"></path><g><g class="mark-rule role-axis-tick" style="pointer-events: none;"><line transform="translate(0,10)" x2="-5" y2="0" style="fill: none; stroke: #888; stroke-width: 1; opacity: 1;"></line><line transform="translate(0,30)" x2="-5" y2="0" style="fill: none; stroke: #888; stroke-width: 1; opacity: 1;"></line><line transform="translate(0,50)" x2="-5" y2="0" style="fill: none; stroke: #888; stroke-width: 1; opacity: 1;"></line><line transform="translate(0,70)" x2="-5" y2="0" style="fill: none; stroke: #888; stroke-width: 1; opacity: 1;"></line><line transform="translate(0,90)" x2="-5" y2="0" style="fill: none; stroke: #888; stroke-width: 1; opacity: 1;"></line></g><g class="mark-text role-axis-label" style="pointer-events: none;"><text text-anchor="end" transform="translate(-7,12.5)" style="font-family: sans-serif; font-size: 10px; fill: #000; opacity: 1;">bird</text><text text-anchor="end" transform="translate(-7,32.5)" style="font-family: sans-serif; font-size: 10px; fill: #000; opacity: 1;">cat</text><text text-anchor="end" transform="translate(-7,52.5)" style="font-family: sans-serif; font-size: 10px; fill: #000; opacity: 1;">dinosaur</text><text text-anchor="end" transform="translate(-7,72.5)" style="font-family: sans-serif; font-size: 10px; fill: #000; opacity: 1;">dog</text><text text-anchor="end" transform="translate(-7,92.5)" style="font-family: sans-serif; font-size: 10px; fill: #000; opacity: 1;">turtle</text></g><g class="mark-rule role-axis-domain" style="pointer-events: none;"><line transform="translate(0,0)" x2="0" y2="100" style="fill: none; stroke: #888; stroke-width: 1; opacity: 1;"></line></g><g class="mark-text role-axis-title" style="pointer-events: none;"><text text-anchor="middle" transform="translate(-49.359375,50) rotate(-90) translate(0,-2)" style="font-family: sans-serif; font-size: 11px; font-weight: bold; fill: #000; opacity: 1;">actual</text></g></g><path class="foreground" d="" style="pointer-events: none; display: none; fill: none;"></path></g></g></g><path class="foreground" d="" style="display: none; fill: none;"></path></g></g><g class="mark-group role-column-footer column_footer"><g transform="translate(0,101)"><path class="background" d="M0,0h100v0h-100Z" style="fill: none;"></path><g><g class="mark-group role-axis"><g transform="translate(0.5,0.5)"><path class="background" d="M0,0h0v0h0Z" style="pointer-events: none; fill: none;"></path><g><g class="mark-rule role-axis-tick" style="pointer-events: none;"><line transform="translate(10,0)" x2="0" y2="5" style="fill: none; stroke: #888; stroke-width: 1; opacity: 1;"></line><line transform="translate(30,0)" x2="0" y2="5" style="fill: none; stroke: #888; stroke-width: 1; opacity: 1;"></line><line transform="translate(50,0)" x2="0" y2="5" style="fill: none; stroke: #888; stroke-width: 1; opacity: 1;"></line><line transform="translate(70,0)" x2="0" y2="5" style="fill: none; stroke: #888; stroke-width: 1; opacity: 1;"></line><line transform="translate(90,0)" x2="0" y2="5" style="fill: none; stroke: #888; stroke-width: 1; opacity: 1;"></line></g><g class="mark-text role-axis-label" style="pointer-events: none;"><text text-anchor="end" transform="translate(9.5,7) rotate(270) translate(0,3)" style="font-family: sans-serif; font-size: 10px; fill: #000; opacity: 1;">bird</text><text text-anchor="end" transform="translate(29.5,7) rotate(270) translate(0,3)" style="font-family: sans-serif; font-size: 10px; fill: #000; opacity: 1;">cat</text><text text-anchor="end" transform="translate(49.5,7) rotate(270) translate(0,3)" style="font-family: sans-serif; font-size: 10px; fill: #000; opacity: 1;">dinosaur</text><text text-anchor="end" transform="translate(69.5,7) rotate(270) translate(0,3)" style="font-family: sans-serif; font-size: 10px; fill: #000; opacity: 1;">dog</text><text text-anchor="end" transform="translate(89.5,7) rotate(270) translate(0,3)" style="font-family: sans-serif; font-size: 10px; fill: #000; opacity: 1;">turtle</text></g><g class="mark-rule role-axis-domain" style="pointer-events: none;"><line transform="translate(0,0)" x2="100" y2="0" style="fill: none; stroke: #888; stroke-width: 1; opacity: 1;"></line></g><g class="mark-text role-axis-title" style="pointer-events: none;"><text text-anchor="middle" transform="translate(50,58.359375)" style="font-family: sans-serif; font-size: 11px; font-weight: bold; fill: #000; opacity: 1;">predicted</text></g></g><path class="foreground" d="" style="pointer-events: none; display: none; fill: none;"></path></g></g></g><path class="foreground" d="" style="display: none; fill: none;"></path></g><g transform="translate(122,101)"><path class="background" d="M0,0h100v0h-100Z" style="fill: none;"></path><g><g class="mark-group role-axis"><g transform="translate(0.5,0.5)"><path class="background" d="M0,0h0v0h0Z" style="pointer-events: none; fill: none;"></path><g><g class="mark-rule role-axis-tick" style="pointer-events: none;"><line transform="translate(10,0)" x2="0" y2="5" style="fill: none; stroke: #888; stroke-width: 1; opacity: 1;"></line><line transform="translate(30,0)" x2="0" y2="5" style="fill: none; stroke: #888; stroke-width: 1; opacity: 1;"></line><line transform="translate(50,0)" x2="0" y2="5" style="fill: none; stroke: #888; stroke-width: 1; opacity: 1;"></line><line transform="translate(70,0)" x2="0" y2="5" style="fill: none; stroke: #888; stroke-width: 1; opacity: 1;"></line><line transform="translate(90,0)" x2="0" y2="5" style="fill: none; stroke: #888; stroke-width: 1; opacity: 1;"></line></g><g class="mark-text role-axis-label" style="pointer-events: none;"><text text-anchor="end" transform="translate(9.5,7) rotate(270) translate(0,3)" style="font-family: sans-serif; font-size: 10px; fill: #000; opacity: 1;">bird</text><text text-anchor="end" transform="translate(29.5,7) rotate(270) translate(0,3)" style="font-family: sans-serif; font-size: 10px; fill: #000; opacity: 1;">cat</text><text text-anchor="end" transform="translate(49.5,7) rotate(270) translate(0,3)" style="font-family: sans-serif; font-size: 10px; fill: #000; opacity: 1;">dinosaur</text><text text-anchor="end" transform="translate(69.5,7) rotate(270) translate(0,3)" style="font-family: sans-serif; font-size: 10px; fill: #000; opacity: 1;">dog</text><text text-anchor="end" transform="translate(89.5,7) rotate(270) translate(0,3)" style="font-family: sans-serif; font-size: 10px; fill: #000; opacity: 1;">turtle</text></g><g class="mark-rule role-axis-domain" style="pointer-events: none;"><line transform="translate(0,0)" x2="100" y2="0" style="fill: none; stroke: #888; stroke-width: 1; opacity: 1;"></line></g><g class="mark-text role-axis-title" style="pointer-events: none;"><text text-anchor="middle" transform="translate(50,58.359375)" style="font-family: sans-serif; font-size: 11px; font-weight: bold; fill: #000; opacity: 1;">predicted</text></g></g><path class="foreground" d="" style="pointer-events: none; display: none; fill: none;"></path></g></g></g><path class="foreground" d="" style="display: none; fill: none;"></path></g></g><g class="mark-group role-scope cell"><g transform="translate(0,0)"><path class="background" d="M0.5,0.5h100v100h-100Z" style="fill: none; stroke: #ddd;"></path><g><g class="mark-rect role-mark child_marks"><path d="M20,20h20v20h-20Z" style="fill: rgb(35, 134, 185);"></path><path d="M40,20h20v20h-20Z" style="fill: rgb(235, 247, 187);"></path><path d="M80,20h20v20h-20Z" style="fill: rgb(239, 249, 189);"></path><path d="M0,20h20v20h-20Z" style="fill: rgb(239, 249, 189);"></path><path d="M0,0h20v20h-20Z" style="fill: rgb(35, 134, 185);"></path><path d="M20,0h20v20h-20Z" style="fill: rgb(239, 249, 189);"></path><path d="M80,0h20v20h-20Z" style="fill: rgb(239, 249, 189);"></path><path d="M40,0h20v20h-20Z" style="fill: rgb(239, 249, 189);"></path><path d="M60,0h20v20h-20Z" style="fill: rgb(239, 249, 189);"></path><path d="M60,60h20v20h-20Z" style="fill: rgb(35, 134, 185);"></path><path d="M80,60h20v20h-20Z" style="fill: rgb(239, 249, 189);"></path><path d="M40,60h20v20h-20Z" style="fill: rgb(231, 246, 185);"></path><path d="M80,80h20v20h-20Z" style="fill: rgb(35, 134, 185);"></path><path d="M60,80h20v20h-20Z" style="fill: rgb(239, 249, 189);"></path><path d="M20,80h20v20h-20Z" style="fill: rgb(239, 249, 189);"></path><path d="M0,80h20v20h-20Z" style="fill: rgb(235, 247, 187);"></path><path d="M40,40h20v20h-20Z" style="fill: rgb(35, 134, 185);"></path><path d="M80,40h20v20h-20Z" style="fill: rgb(235, 247, 187);"></path><path d="M60,40h20v20h-20Z" style="fill: rgb(239, 249, 189);"></path><path d="M0,40h20v20h-20Z" style="fill: rgb(239, 249, 189);"></path></g><g class="mark-group role-title"><g transform="translate(50,-20)"><path class="background" d="M0,0h0v0h0Z" style="pointer-events: none; fill: none;"></path><g><g class="mark-text role-title-text" style="pointer-events: none;"><text text-anchor="middle" transform="translate(0,8)" style="font-family: sans-serif; font-size: 10px; fill: #000; opacity: 1;">HEAD</text></g></g><path class="foreground" d="" style="pointer-events: none; display: none; fill: none;"></path></g></g></g><path class="foreground" d="" style="display: none; fill: none;"></path></g><g transform="translate(122,0)"><path class="background" d="M0.5,0.5h100v100h-100Z" style="fill: none; stroke: #ddd;"></path><g><g class="mark-rect role-mark child_marks"><path d="M20,20h20v20h-20Z" style="fill: rgb(33, 104, 172);"></path><path d="M40,20h20v20h-20Z" style="fill: rgb(235, 247, 187);"></path><path d="M80,20h20v20h-20Z" style="fill: rgb(239, 249, 189);"></path><path d="M0,20h20v20h-20Z" style="fill: rgb(239, 249, 189);"></path><path d="M0,0h20v20h-20Z" style="fill: rgb(28, 49, 133);"></path><path d="M20,0h20v20h-20Z" style="fill: rgb(239, 249, 189);"></path><path d="M80,0h20v20h-20Z" style="fill: rgb(239, 249, 189);"></path><path d="M40,0h20v20h-20Z" style="fill: rgb(239, 249, 189);"></path><path d="M60,0h20v20h-20Z" style="fill: rgb(239, 249, 189);"></path><path d="M20,60h20v20h-20Z" style="fill: rgb(227, 244, 184);"></path><path d="M40,60h20v20h-20Z" style="fill: rgb(219, 241, 180);"></path><path d="M60,60h20v20h-20Z" style="fill: rgb(57, 169, 193);"></path><path d="M80,60h20v20h-20Z" style="fill: rgb(239, 249, 189);"></path><path d="M60,80h20v20h-20Z" style="fill: rgb(219, 241, 180);"></path><path d="M40,80h20v20h-20Z" style="fill: rgb(219, 241, 180);"></path><path d="M80,80h20v20h-20Z" style="fill: rgb(80, 185, 193);"></path><path d="M20,80h20v20h-20Z" style="fill: rgb(239, 249, 189);"></path><path d="M0,80h20v20h-20Z" style="fill: rgb(235, 247, 187);"></path><path d="M40,40h20v20h-20Z" style="fill: rgb(134, 208, 187);"></path><path d="M80,40h20v20h-20Z" style="fill: rgb(208, 237, 180);"></path><path d="M0,40h20v20h-20Z" style="fill: rgb(219, 241, 180);"></path><path d="M60,40h20v20h-20Z" style="fill: rgb(208, 237, 180);"></path></g><g class="mark-group role-title"><g transform="translate(50,-20)"><path class="background" d="M0,0h0v0h0Z" style="pointer-events: none; fill: none;"></path><g><g class="mark-text role-title-text" style="pointer-events: none;"><text text-anchor="middle" transform="translate(0,8)" style="font-family: sans-serif; font-size: 10px; fill: #000; opacity: 1;">workspace</text></g></g><path class="foreground" d="" style="pointer-events: none; display: none; fill: none;"></path></g></g></g><path class="foreground" d="" style="display: none; fill: none;"></path></g></g><g class="mark-group role-legend"><g transform="translate(241,0)"><path class="background" d="M0,0h93v116h-93Z" style="pointer-events: none; fill: none;"></path><g><g class="mark-group role-legend-entry"><g transform="translate(0,16)"><path class="background" d="M0,0h0v0h0Z" style="pointer-events: none; fill: none;"></path><g><g class="mark-rect role-legend-gradient" style="pointer-events: none;"><path d="M0,0h16v100h-16Z" style="fill: url(#gradient_0); stroke: #ddd; stroke-width: 0; opacity: 1;"></path></g><g class="mark-text role-legend-label" style="pointer-events: none;"><text text-anchor="start" transform="translate(18,98)" style="font-family: sans-serif; font-size: 10px; fill: #000; opacity: 1;">1</text><text text-anchor="start" transform="translate(18,8)" style="font-family: sans-serif; font-size: 10px; fill: #000; opacity: 1;">52</text></g></g><path class="foreground" d="" style="pointer-events: none; display: none; fill: none;"></path></g></g><g class="mark-text role-legend-title" style="pointer-events: none;"><text text-anchor="start" transform="translate(0,9)" style="font-family: sans-serif; font-size: 11px; font-weight: bold; fill: #000; opacity: 1;">Count of Records</text></g></g><path class="foreground" d="" style="pointer-events: none; display: none; fill: none;"></path></g></g></g><path class="foreground" d="" style="display: none; fill: none;"></path></g></g></g></svg>