<?xml version="1.0" encoding="UTF-8"?>
<svg width="12px" height="12px" viewBox="0 0 12 12" version="1.1" xmlns="http://www.w3.org/2000/svg" xmlns:xlink="http://www.w3.org/1999/xlink">
    <!-- Generator: Sketch 50.2 (55047) - http://www.bohemiancoding.com/sketch -->
    <title>Fill 179</title>
    <desc>Created with Sketch.</desc>
    <defs></defs>
    <g id="Page-1" stroke="none" stroke-width="1" fill="none" fill-rule="evenodd">
        <g id="Landing-page" transform="translate(-248.000000, -517.000000)" fill="#B0B8C5">
            <g id="Github" transform="translate(120.000000, 513.000000)">
                <path d="M139.712603,8.246 C139.638603,8.04 139.404603,7.869 139.122603,7.869 L136.182603,7.869 L134.439603,4.371 C134.325603,4.142 134.111603,4 133.879603,4 C133.648603,4 133.435603,4.141 133.321603,4.368 L131.564603,7.869 L128.622603,7.869 C128.347603,7.869 128.115603,8.017 128.032603,8.246 C127.948603,8.478 128.029603,8.734 128.244603,8.913 L130.789603,11.035 L129.477603,14.974 L129.477603,14.976 C129.353603,15.351 129.513603,15.507 129.728603,15.766 C129.996603,15.766 130.141603,15.791 130.361603,15.639 L133.872603,13.229 L137.383603,15.639 C137.622603,15.804 137.779603,15.765 138.052603,15.749 C138.246603,15.481 138.384603,15.32 138.268603,14.976 L138.268603,14.974 L136.955603,11.035 L139.500603,8.913 C139.723603,8.728 139.784603,8.443 139.712603,8.246" id="Fill-179"></path>
            </g>
        </g>
    </g>
</svg>