<svg width="16" height="16" viewBox="0 0 16 16" fill="none" xmlns="http://www.w3.org/2000/svg">
<g clip-path="url(#clip0)">
<path d="M5.70498 9.06501L5.25137 8.3105C5.06103 7.99391 4.60494 7.98591 4.40362 8.29563L1.83856 12.2419C1.53757 12.7049 0.918188 12.8363 0.455129 12.5353C-0.00793085 12.2343 -0.139315 11.615 0.161673 11.1519L2.72674 7.20565C3.73331 5.65707 6.01379 5.69706 6.96544 7.27999L7.02787 7.38383L5.70498 9.06501Z" fill="#13ADC7"/>
<path d="M5.70498 9.06501L5.25137 8.3105C5.06103 7.99391 4.60494 7.98591 4.40362 8.29563L1.83856 12.2419C1.53757 12.7049 0.918188 12.8363 0.455129 12.5353C-0.00793085 12.2343 -0.139315 11.615 0.161673 11.1519L2.72674 7.20565C3.73331 5.65707 6.01379 5.69706 6.96544 7.27999L7.02787 7.38383L5.70498 9.06501Z" fill="url(#paint0_linear)" fill-opacity="0.5" style="mix-blend-mode: color-burn;"/>
<path d="M8.19652 9.32783L8.79008 10.3151C8.97787 10.6275 9.42601 10.6404 9.63153 10.3394L14.1742 3.68622C14.4856 3.23011 15.1078 3.11282 15.5639 3.42424C16.02 3.73566 16.1373 4.35786 15.8259 4.81397L11.2832 11.4672C10.2557 12.9722 8.01496 12.9074 7.076 11.3456L6.82617 10.9301L8.19652 9.32783Z" fill="#F46737"/>
<path d="M8.19652 9.32783L8.79008 10.3151C8.97787 10.6275 9.42601 10.6404 9.63153 10.3394L14.1742 3.68622C14.4856 3.23011 15.1078 3.11282 15.5639 3.42424C16.02 3.73566 16.1373 4.35786 15.8259 4.81397L11.2832 11.4672C10.2557 12.9722 8.01496 12.9074 7.076 11.3456L6.82617 10.9301L8.19652 9.32783Z" fill="url(#paint1_linear)" fill-opacity="0.5" style="mix-blend-mode: color-burn;"/>
<path d="M4.40332 8.29566L4.8984 7.56871C5.41737 6.8067 6.4901 6.48988 6.96514 7.28002L8.78985 10.3151C8.95915 10.5967 9.34006 10.635 9.56402 10.4192L9.11325 11.0729C8.59856 11.8192 7.54288 12.1226 7.07577 11.3456L5.25106 8.31052C5.06073 7.99394 4.60464 7.98594 4.40332 8.29566Z" fill="#945DD6"/>
<path d="M4.40332 8.29566L4.8984 7.56871C5.41737 6.8067 6.4901 6.48988 6.96514 7.28002L8.78985 10.3151C8.95915 10.5967 9.34006 10.635 9.56402 10.4192L9.11325 11.0729C8.59856 11.8192 7.54288 12.1226 7.07577 11.3456L5.25106 8.31052C5.06073 7.99394 4.60464 7.98594 4.40332 8.29566Z" fill="url(#paint2_linear)" fill-opacity="0.5" style="mix-blend-mode: multiply;"/>
</g>
<defs>
<linearGradient id="paint0_linear" x1="4.5" y1="4.24998" x2="1.875" y2="8.49998" gradientUnits="userSpaceOnUse">
<stop stop-color="#945DD6"/>
<stop offset="1" stop-color="#945DD6" stop-opacity="0"/>
</linearGradient>
<linearGradient id="paint1_linear" x1="11.2499" y1="7" x2="7.37494" y2="12.5" gradientUnits="userSpaceOnUse">
<stop stop-color="#945DD6" stop-opacity="0"/>
<stop offset="1" stop-color="#7B61FF"/>
</linearGradient>
<linearGradient id="paint2_linear" x1="5.12469" y1="7.12501" x2="8.37469" y2="11.75" gradientUnits="userSpaceOnUse">
<stop stop-color="#13ADC7"/>
<stop offset="0.495393" stop-color="#7B61FF" stop-opacity="0"/>
<stop offset="1" stop-color="#F46737"/>
</linearGradient>
<clipPath id="clip0">
<rect width="16" height="16" fill="white"/>
</clipPath>
</defs>
</svg>
