<svg width="80" height="64" viewBox="0 0 80 64" fill="none" xmlns="http://www.w3.org/2000/svg">
<path d="M44.0501 47.9476C42.3379 50.4287 38.9293 51.4671 36.9317 49.208C38.1342 50.5559 39.6279 51.6121 41.2995 52.2965C42.9712 52.9809 44.7768 53.2754 46.5792 53.1578C48.3817 53.0401 50.1337 52.5133 51.7022 51.6174C53.2706 50.7215 54.6144 49.48 55.6314 47.9872L77.2402 16.3349C77.9127 15.2927 78.1514 14.0291 77.9056 12.8133C77.6597 11.5976 76.9486 10.526 75.924 9.8271C74.8993 9.12814 73.6422 8.85712 72.4206 9.07181C71.199 9.28649 70.1095 9.96991 69.3846 10.9763C60.9636 23.3138 52.5188 35.6349 44.0501 47.9396V47.9476Z" fill="url(#paint0_linear)"/>
<path d="M22.909 32.9022L26.595 27.4881C28.2914 25.007 31.6682 23.9448 33.6896 26.1723C34.2048 26.743 34.6805 27.3772 35.0927 28.0747L43.7727 42.5097C43.9559 42.8166 44.2059 43.0782 44.5041 43.2752C44.8024 43.4722 45.1412 43.5994 45.4954 43.6474C45.8496 43.6953 46.21 43.6629 46.5499 43.5524C46.8898 43.4419 47.2004 43.2562 47.4587 43.0091L44.0501 47.9475C42.3379 50.4287 38.9293 51.4671 36.9317 49.2079C36.4561 48.661 36.0122 48.0664 35.6238 47.4085L26.9358 32.9815C26.729 32.6348 26.4372 32.3465 26.0881 32.1437C25.739 31.941 25.3441 31.8304 24.9404 31.8225C24.5368 31.8145 24.1378 31.9095 23.781 32.0984C23.4242 32.2873 23.1214 32.5639 22.901 32.9022H22.909Z" fill="url(#paint1_linear)"/>
<path d="M22.9724 32.8151L22.909 32.9023L10.7094 51.6733C10.0141 52.7127 8.9373 53.4365 7.71223 53.6879C6.48715 53.9393 5.21236 53.698 4.16385 53.0164C3.11534 52.3348 2.37749 51.2676 2.11004 50.0459C1.8426 48.8243 2.06709 47.5464 2.73491 46.489L14.9345 27.718C15.9246 26.1949 17.2504 24.9187 18.8102 23.9873C20.37 23.056 22.1223 22.4941 23.9329 22.3449C25.7435 22.1957 27.5641 22.463 29.2554 23.1265C30.9466 23.7899 32.4634 24.8318 33.6896 26.1723C31.6682 23.9528 28.2914 25.007 26.595 27.4882L22.9724 32.8151Z" fill="url(#paint2_linear)"/>
<defs>
<linearGradient id="paint0_linear" x1="57.4659" y1="31" x2="57.4659" y2="53.183" gradientUnits="userSpaceOnUse">
<stop stop-color="#F46837"/>
<stop offset="1" stop-color="#DD5236"/>
</linearGradient>
<linearGradient id="paint1_linear" x1="35.1799" y1="24.9554" x2="47.1835" y2="44.6712" gradientUnits="userSpaceOnUse">
<stop stop-color="#7E51C2"/>
<stop offset="0.22332" stop-color="#945DD6"/>
<stop offset="0.759788" stop-color="#945DD6"/>
<stop offset="1" stop-color="#7E51C2"/>
</linearGradient>
<linearGradient id="paint2_linear" x1="17.8448" y1="38" x2="17.8448" y2="53.785" gradientUnits="userSpaceOnUse">
<stop stop-color="#13ADC7"/>
<stop offset="1" stop-color="#1497B8"/>
</linearGradient>
</defs>
</svg>
