<?xml version="1.0" standalone="no"?>
<!DOCTYPE svg PUBLIC "-//W3C//DTD SVG 1.1//EN" "http://www.w3.org/Graphics/SVG/1.1/DTD/svg11.dtd" >
<svg xmlns="http://www.w3.org/2000/svg">
<metadata></metadata>
<defs>
<font id="brandon_grotesqueMdIt" horiz-adv-x="944" >
<font-face units-per-em="2048" ascent="1434" descent="-614" />
<missing-glyph horiz-adv-x="460" />
<glyph unicode="&#xfb01;" horiz-adv-x="1052" d="M33 -575l170 1224h-97q-15 0 -23.5 11.5t-6.5 27.5l14 92q1 17 13 28t26 11h96l37 254q26 182 129.5 281.5t261.5 99.5q81 0 157.5 -30.5t115.5 -61.5q11 -8 12 -23.5t-8 -27.5l-58 -92q-20 -31 -49 -11q-14 10 -37.5 21.5t-66.5 25t-80 13.5q-61 0 -111.5 -48.5 t-64.5 -146.5l-37 -254h496q13 0 21.5 -12t6.5 -27l-104 -741q-1 -15 -14 -27t-27 -12h-125q-14 0 -23 12t-6 27l84 610h-332l-170 -1224q-5 -39 -49 -39h-123q-14 0 -22.5 12t-5.5 27z" />
<glyph unicode="&#xfb02;" horiz-adv-x="1071" d="M31 -575l174 1226h-103q-13 0 -21.5 12t-6.5 27l12 90q3 17 14.5 28t26.5 11h100l37 254q27 181 139.5 281t258.5 100q44 0 85 -11.5t68.5 -28t48 -32.5t30.5 -28l9 -11l27 56q16 35 47 35h49q13 0 23 -12t8 -27l-191 -1356q-3 -15 -15.5 -27t-25.5 -12h-127 q-13 0 -21.5 12t-6.5 27l159 1118q-3 5 -9.5 15t-22.5 27.5t-35.5 32t-49 25.5t-61.5 11q-66 0 -120 -48.5t-68 -146.5l-37 -254h172q15 0 23.5 -11t7.5 -28l-15 -90q-2 -15 -13 -27t-26 -12h-172l-174 -1226q-1 -15 -14 -27t-27 -12h-131q-13 0 -20.5 11.5t-5.5 27.5z" />
<glyph horiz-adv-x="2048" />
<glyph horiz-adv-x="2048" />
<glyph unicode="&#xd;" horiz-adv-x="2048" />
<glyph unicode=" "  horiz-adv-x="460" />
<glyph unicode="&#x09;" horiz-adv-x="460" />
<glyph unicode="&#xa0;" horiz-adv-x="460" />
<glyph unicode="!" horiz-adv-x="602" d="M98 104q0 65 49.5 112.5t110.5 47.5q52 0 86.5 -36t34.5 -89q0 -65 -49 -112t-113 -47q-50 0 -84.5 36t-34.5 88zM246 590l20 571l33 234q1 15 13 27t26 12h172q13 0 23 -12t8 -27l-33 -230l-143 -575q-3 -12 -15 -22.5t-24 -10.5h-50q-12 0 -21 10.5t-9 22.5z" />
<glyph unicode="&#x22;" horiz-adv-x="638" d="M154 1065l47 330q1 15 13 27t26 12h125q18 0 25.5 -15t-1.5 -37l-113 -325q-12 -31 -36 -31h-58q-13 0 -21.5 12t-6.5 27zM459 1065l45 330q3 15 15.5 27t25.5 12h123q19 0 27 -15t-1 -37l-112 -325q-12 -31 -39 -31h-56q-14 0 -22.5 12t-5.5 27z" />
<glyph unicode="#" horiz-adv-x="1021" d="M63 430l3 19q1 17 13.5 27.5t26.5 10.5h144l92 347h-133q-13 0 -22 11.5t-7 26.5l2 19q1 15 14 27t27 12h144l125 471q3 13 13.5 23t22.5 10h25q15 0 23 -13t4 -32l-119 -459h287l120 471q3 12 16 22.5t25 10.5h19q17 0 25 -13t3 -32l-118 -459h120q14 0 22.5 -11.5 t6.5 -27.5l-2 -19q-2 -15 -13 -26.5t-26 -11.5h-133l-92 -347h123q29 0 26 -38l-2 -19q-2 -15 -14 -27t-25 -12h-137l-94 -358q-3 -13 -15 -23t-26 -10h-20q-17 0 -25.5 13t-3.5 32l94 346h-291l-94 -358q-3 -13 -15 -23t-24 -10h-18q-18 0 -26 13t-3 32l92 346h-129 q-15 0 -24 12t-7 27zM342 487h289l88 347h-287z" />
<glyph unicode="$" horiz-adv-x="1001" d="M35 178q2 13 14 29l64 82q13 19 33 21t32 -13q7 -9 34.5 -31.5t82 -53t106.5 -42.5l68 457q-71 34 -124 69.5t-101.5 86t-70.5 119t-13 149.5q14 166 128.5 279t295.5 122l10 66q1 17 13 27.5t26 10.5h20q14 0 24 -11t7 -27l-8 -68q159 -14 291 -117q12 -9 14.5 -28 t-12.5 -41l-70 -80q-13 -15 -30 -18t-29 8q-18 16 -75 44.5t-116 45.5l-65 -449q65 -35 115 -71t99 -87t76 -116t27 -140q0 -182 -118 -299t-318 -120l-31 -213q-6 -37 -43 -37q-20 0 -35 8t-12 29l31 213q-193 16 -326 159q-9 10 -12.5 17t-1.5 20zM367 1061 q0 -124 131 -205l57 410q-87 -11 -137.5 -72t-50.5 -133zM492 166q83 3 136.5 63.5t53.5 147.5q0 119 -131 209z" />
<glyph unicode="%" horiz-adv-x="1249" d="M138.5 17.5q-7.5 17.5 4.5 37.5l824 1358q14 21 32 21h84q20 0 27.5 -18t-4.5 -38l-827 -1358q-3 -7 -13 -13.5t-20 -6.5h-80q-20 0 -27.5 17.5zM145 1141q0 130 84 221.5t205 91.5q89 0 152 -70t63 -170q0 -130 -84.5 -221.5t-204.5 -91.5q-89 0 -152 70t-63 170z M295 1157q0 -47 23.5 -78.5t60.5 -31.5q48 0 84.5 44t36.5 105q0 44 -23.5 76.5t-60.5 32.5q-48 0 -84.5 -44t-36.5 -104zM614 219q0 130 84 221.5t205 91.5q89 0 152 -69.5t63 -169.5q0 -130 -84.5 -221.5t-204.5 -91.5q-89 0 -152 69.5t-63 169.5zM764 236q0 -47 23.5 -79 t60.5 -32q48 0 84.5 44t36.5 105q0 44 -23.5 76.5t-60.5 32.5q-48 0 -84.5 -44t-36.5 -103z" />
<glyph unicode="&#x26;" horiz-adv-x="1273" d="M119 311q0 67 20.5 129t47 104t69 84.5t70.5 63.5t67.5 47.5t44.5 30.5v4l-35 51q-52 74 -76 143.5t-12 153.5q8 61 36.5 118t75.5 106t120 78.5t160 29.5q128 0 212.5 -85t84.5 -204q0 -46 -13 -90t-38.5 -83t-50.5 -70t-62.5 -63.5t-59.5 -50t-57.5 -42.5t-40.5 -29 l205 -284q38 57 72 142t49 163q6 32 20.5 43t40.5 6l92 -19q34 -6 21 -63q-26 -108 -79 -220.5t-104 -182.5l152 -197q11 -16 15.5 -26t-0.5 -25t-25 -29l-68 -45q-21 -16 -39.5 -15.5t-34.5 23.5l-116 164q-30 -35 -67.5 -66t-90 -61t-122.5 -47.5t-148 -17.5 q-152 0 -244 96t-92 235zM317 342q0 -83 48 -135.5t124 -52.5q93 0 167.5 44t119.5 105l-246 352q-3 -3 -33.5 -25t-47 -35.5t-45.5 -44t-45 -57.5t-29 -67.5t-13 -83.5zM500 1120q-9 -59 5.5 -109t53.5 -104l33 -45q1 1 28.5 20.5t41 30t42 34.5t45 43.5t35.5 45.5t28 53 t9 54q0 62 -38.5 107.5t-104.5 45.5q-70 0 -118.5 -50.5t-59.5 -125.5z" />
<glyph unicode="'" horiz-adv-x="333" d="M154 1065l47 330q1 15 13 27t26 12h125q18 0 25.5 -15t-1.5 -37l-113 -325q-12 -31 -36 -31h-58q-13 0 -21.5 12t-6.5 27z" />
<glyph unicode="(" horiz-adv-x="663" d="M106 424q0 164 18.5 303.5t50.5 242.5t77 185t95.5 135.5t109.5 90t116 53.5t117 20q15 2 23.5 -6t7.5 -21l-8 -96q-3 -33 -27 -37q-71 -17 -129 -57.5t-97 -94t-68 -126t-45.5 -142t-26 -154.5t-12.5 -152.5t-3 -145.5q0 -366 199 -428q9 -3 14 -13.5t2 -23.5l-18 -90 q-7 -30 -39 -27q-49 2 -98 24t-96 68t-83 112t-58 164t-22 216z" />
<glyph unicode=")" horiz-adv-x="665" d="M-33 -127l6 90q4 28 27 35q80 20 143 67t103.5 115.5t68.5 145.5t42.5 172t20 180t5.5 182q0 177 -50 292.5t-151 143.5q-9 2 -14 12t-2 25l20 94q7 30 37 27q51 -4 99 -23.5t95.5 -63.5t83 -108.5t57.5 -165.5t22 -227q0 -228 -34.5 -407.5t-90.5 -293.5t-133.5 -188.5 t-157.5 -105t-168 -31.5q-32 0 -29 33z" />
<glyph unicode="*" horiz-adv-x="659" d="M114.5 995.5q1.5 15.5 14.5 22.5l174 100l-135 101q-11 8 -11.5 25t9.5 28l35 39q10 11 23 14.5t24 -4.5l119 -100l20 174q4 39 39 39h49q14 0 23 -12t6 -27l-29 -174l148 104q10 8 24.5 4t20.5 -16l20 -39q17 -31 -12 -51l-168 -105l135 -102q12 -9 12.5 -26t-8.5 -27 l-35 -39q-11 -13 -25 -17t-24 4l-117 103l-20 -172q-1 -15 -14 -27t-27 -12h-47q-17 0 -24.5 11.5t-4.5 27.5l27 174l-146 -101q-12 -9 -25.5 -5t-19.5 16l-24 41q-8 13 -6.5 28.5z" />
<glyph unicode="+" horiz-adv-x="1132" d="M186 666l11 86q1 18 13.5 28.5t27.5 10.5h274l43 317q1 15 14 26t27 11h102q14 0 23 -11t8 -26l-45 -317h274q13 0 22 -12t7 -27l-12 -86q-1 -17 -13 -28t-26 -11h-274l-46 -314q-1 -15 -12.5 -26t-25.5 -11h-105q-13 0 -22 11t-7 26l43 314h-272q-14 0 -23 12t-6 27z " />
<glyph unicode="," horiz-adv-x="491" d="M14 -342q-19 23 11 47q160 128 182 283l-8 -2q-8 -2 -21.5 -4t-27.5 -2q-51 0 -85 35.5t-34 88.5q0 64 50 112t118 48q56 0 97.5 -43t41.5 -135q0 -67 -19 -132.5t-46.5 -114t-64.5 -93t-67 -72t-59 -47.5q-27 -24 -45 0z" />
<glyph unicode="-" horiz-adv-x="751" d="M121 459l12 88q3 17 14.5 28t26.5 11h404q15 0 24 -11t6 -28l-12 -88q-1 -15 -13.5 -26t-27.5 -11h-403q-15 0 -24 11t-7 26z" />
<glyph unicode="." horiz-adv-x="462" d="M33 104q0 65 47.5 112.5t109.5 47.5q52 0 86.5 -36t34.5 -89q0 -65 -48 -112t-113 -47q-51 0 -84 35.5t-33 88.5z" />
<glyph unicode="/" horiz-adv-x="659" d="M-0.5 14.5q-8.5 14.5 0.5 36.5l553 1356q12 27 37 27h106q19 0 27.5 -15t-0.5 -37l-551 -1355q-12 -27 -37 -27h-108q-19 0 -27.5 14.5z" />
<glyph unicode="0" horiz-adv-x="1210" d="M147 522q0 269 67 469.5t198 312t313 111.5q118 0 203.5 -70.5t127.5 -191.5t42 -279q0 -268 -68.5 -469.5t-199.5 -313t-308 -111.5q-120 0 -206 71.5t-127.5 192.5t-41.5 278zM356 528q0 -168 50 -264t143 -96q103 0 180 89.5t117.5 247t40.5 361.5q0 167 -49 264 t-140 97q-157 0 -249.5 -194t-92.5 -505z" />
<glyph unicode="1" horiz-adv-x="675" d="M143 1098q-3 27 13 41l299 254h108q13 0 22 -12t7 -27l-186 -1315q-2 -15 -14 -27t-25 -12h-131q-15 0 -24 12t-7 27l147 1038l-166 -76q-14 -6 -24 -1.5t-12 16.5z" />
<glyph unicode="2" horiz-adv-x="989" d="M6 39l6 53l563 619q164 179 164 323q0 78 -45 134.5t-137 56.5q-63 0 -129.5 -46t-110.5 -96q-11 -13 -27.5 -12t-27.5 12l-65 74q-26 29 -2 57q11 13 23 26t52.5 48t81.5 59.5t104 45t126 20.5q165 0 261.5 -100.5t96.5 -245.5q0 -131 -50.5 -231t-160.5 -224l-389 -436 h438q13 0 22 -12t7 -27l-12 -98q-1 -15 -14 -27t-27 -12h-719q-14 0 -22.5 11.5t-6.5 27.5z" />
<glyph unicode="3" horiz-adv-x="1009" d="M28 187q3 15 13 24l84 68q27 24 51 -7q27 -37 90 -75.5t142 -38.5q98 0 170.5 67.5t72.5 177.5q0 88 -62.5 149.5t-180.5 61.5h-103q-35 0 -29 43l13 88q3 23 12.5 33t28.5 10h104q130 0 205.5 73.5t75.5 182.5q0 85 -47.5 133t-120.5 48q-35 0 -69.5 -11.5t-66 -34 t-46 -35t-37.5 -34.5q-12 -12 -26.5 -13t-25.5 11l-65 78q-23 26 2 59q13 16 40.5 38.5t74.5 54.5t113 53.5t134 21.5q150 0 250.5 -91t100.5 -237q0 -68 -23 -130.5t-60.5 -108t-77 -78t-79.5 -51.5v-6q66 -33 122 -115t56 -186q0 -183 -127.5 -306.5t-335.5 -123.5 q-75 0 -142 20.5t-112 51.5t-73 58.5t-43 51.5q-6 10 -3 25z" />
<glyph unicode="4" horiz-adv-x="1116" d="M6 344l17 123l806 936q12 12 29 12h82q14 0 23 -11t6 -28l-127 -905h149q15 0 23.5 -11t5.5 -26l-12 -86q-2 -15 -13 -27t-26 -12h-150l-35 -270q-3 -15 -15.5 -27t-25.5 -12h-129q-14 0 -22.5 12t-5.5 27l37 266h-588q-15 0 -23.5 12t-5.5 27zM244 475h409l82 567h-4z " />
<glyph unicode="5" horiz-adv-x="1015" d="M56.5 187q3.5 15 13.5 24l84 68q27 24 51 -7q26 -35 90 -72.5t143 -37.5q123 0 201 98.5t78 228.5q0 95 -54 157.5t-155 62.5h-275q-31 0 -44.5 21.5t-10.5 49.5l82 574q2 15 13 27t26 12h575q15 0 24 -12t7 -27l-14 -101q-2 -15 -14 -27t-27 -12h-426l-45 -325h174 q169 0 269 -106t100 -285q0 -141 -61 -259t-174.5 -188.5t-256.5 -70.5q-80 0 -148.5 20t-112.5 52t-69 58t-41 52q-6 10 -2.5 25z" />
<glyph unicode="6" horiz-adv-x="1040" d="M94 440q0 133 30.5 254t80 213.5t117 173.5t136.5 138t143.5 103.5t133.5 73t111 42.5q36 11 45 -25l24 -90q9 -39 -38 -57q-46 -19 -105.5 -51.5t-141.5 -86.5t-153 -130.5t-106 -157.5q17 9 45 19.5t80 22t100 11.5q152 0 253 -101.5t101 -281.5q0 -225 -134 -377.5 t-337 -152.5q-116 0 -204.5 63t-134.5 167t-46 230zM283.5 436q6.5 -74 27 -136.5t68 -103t110.5 -40.5q117 0 194 94t77 225q0 108 -55 178t-148 70q-51 0 -99 -17t-80.5 -42t-53 -47t-29.5 -39q-18 -68 -11.5 -142z" />
<glyph unicode="7" horiz-adv-x="913" d="M49 31l4 32l670 1149h-539q-13 0 -21.5 12t-6.5 27l14 103q1 15 14 27t27 12h758q13 0 22.5 -12t7.5 -27l-4 -33l-737 -1284q-19 -37 -53 -37h-123q-15 0 -25 9.5t-8 21.5z" />
<glyph unicode="8" horiz-adv-x="1093" d="M82 322q0 61 22 120t54 101.5t72 80t71 59t57 34.5v6q-58 37 -103.5 110t-45.5 166q0 182 127.5 298t320.5 116q152 0 253.5 -91t101.5 -235q0 -67 -23.5 -129.5t-61.5 -107.5t-76 -76.5t-77 -52.5l-2 -8q66 -36 122 -117t56 -184q0 -185 -131 -308.5t-356 -123.5 q-165 0 -273 98t-108 244zM297 338q0 -84 54.5 -137.5t131.5 -53.5q103 0 178.5 69t75.5 179q0 76 -49.5 139.5t-136.5 79.5q-112 -20 -183 -100.5t-71 -175.5zM412 1012q0 -81 42 -132.5t124 -68.5q104 23 165.5 91t61.5 159q0 79 -47.5 128.5t-122.5 49.5 q-87 0 -155 -66.5t-68 -160.5z" />
<glyph unicode="9" horiz-adv-x="1038" d="M127 895q0 225 134 377.5t337 152.5q116 0 204.5 -63t134.5 -167t46 -230q0 -133 -30.5 -254t-80 -213.5t-117 -173.5t-136.5 -138t-143.5 -103.5t-133.5 -73t-111 -42.5q-36 -11 -45 25l-24 90q-9 39 39 57q46 19 105.5 51.5t141.5 86.5t153 130.5t106 157.5 q-31 -16 -94 -34.5t-132 -18.5q-152 0 -253 101.5t-101 281.5zM317 930q0 -108 55 -178t148 -70q51 0 99 17t80.5 42t53 47t29.5 39q18 67 11.5 141.5t-27 137t-68 103t-110.5 40.5q-117 0 -194 -94t-77 -225z" />
<glyph unicode=":" horiz-adv-x="495" d="M57 94q0 61 44 105.5t102 44.5q46 0 76 -33.5t30 -81.5q0 -61 -43 -105t-100 -44q-46 0 -77.5 33.5t-31.5 80.5zM141 690q0 61 44 105.5t102 44.5q46 0 76 -33.5t30 -81.5q0 -61 -43 -105.5t-100 -44.5q-46 0 -77.5 34t-31.5 81z" />
<glyph unicode=";" horiz-adv-x="503" d="M30 -292q3 14 15 24l11 10q12 10 20 17t23 23t26 30t25.5 34.5t24.5 41t18 46.5t12 52q-6 -6 -45 -6q-44 0 -73.5 32.5t-29.5 77.5q0 58 42.5 100.5t101.5 42.5q49 0 85 -37t36 -120q0 -214 -220 -420q-27 -24 -45 -2l-22 31q-8 9 -5 23zM137 690q0 61 44 105.5t102 44.5 q46 0 76 -33.5t30 -81.5q0 -61 -43 -105.5t-100 -44.5q-46 0 -77.5 34t-31.5 81z" />
<glyph unicode="&#x3c;" horiz-adv-x="819" d="M29 465l2 12q3 21 22 33l701 436q17 11 31.5 2t11.5 -30l-17 -121q-3 -26 -22 -37l-467 -295v-2l385 -283q19 -14 14 -39l-16 -104q-3 -24 -19.5 -33t-31.5 4l-580 422q-17 10 -14 35z" />
<glyph unicode="=" horiz-adv-x="962" d="M115 311l14 90q3 16 14 27.5t25 11.5h586q15 0 24 -12t6 -27l-14 -90q-3 -16 -14 -27.5t-25 -11.5h-586q-15 0 -24 12t-6 27zM176 741l14 90q3 16 14 27.5t25 11.5h586q15 0 24.5 -12t6.5 -27l-15 -90q-3 -16 -13.5 -27.5t-24.5 -11.5h-586q-15 0 -24.5 12t-6.5 27z" />
<glyph unicode="&#x3e;" horiz-adv-x="819" d="M-2 35l12 127q3 23 23 35l461 284v4l-379 291q-16 12 -13 31l17 111q3 24 18.5 32t32.5 -4l578 -436q19 -14 14 -33l-4 -18q-3 -17 -21 -29l-698 -420q-19 -11 -31.5 -3.5t-9.5 28.5z" />
<glyph unicode="?" horiz-adv-x="880" d="M174 1255q138 166 323 194q33 5 66 5q129 0 216 -86.5t87 -206.5q0 -52 -15 -99t-34 -78.5t-54.5 -66t-59 -52.5t-64.5 -46q-59 -39 -88 -71.5t-35 -73.5l-10 -76q-6 -41 -43 -41h-123q-14 0 -22 11t-7 28l11 86q6 48 25.5 88t53 75t61.5 57.5t75 55.5q66 46 98.5 87 t32.5 100q0 55 -38 91t-91 36q-69 0 -134.5 -44t-109.5 -95q-11 -13 -24.5 -12t-24.5 12l-70 65q-29 26 -2 57zM201 104q0 65 47.5 112.5t109.5 47.5q53 0 87 -36t34 -89q0 -65 -48 -112t-112 -47q-52 0 -85 35.5t-33 88.5z" />
<glyph unicode="@" horiz-adv-x="1855" d="M57 324q0 239 72 447t200.5 359t316.5 237.5t411 86.5q157 0 290.5 -56t224.5 -153t142 -230t51 -286q0 -101 -16 -201.5t-54.5 -200.5t-94 -176t-142 -123.5t-192.5 -47.5q-165 0 -195 159h-10q-40 -68 -115 -113.5t-158 -45.5q-124 0 -200 100.5t-76 255.5 q0 219 119.5 361.5t283.5 142.5q43 0 81 -14t63.5 -36.5t38 -36.5t20.5 -26l29 59q14 33 45 33h47q13 0 23 -12t8 -27l-58 -405q-8 -72 -7.5 -118t15 -71.5t32.5 -35t46 -9.5q77 0 142.5 74.5t104 205t38.5 286.5q0 124 -33 229t-97.5 184.5t-168 124.5t-235.5 45 q-235 0 -420 -119t-289 -335.5t-104 -495.5q0 -217 97.5 -388t262.5 -255q15 -9 18 -20t-6 -31l-51 -92q-17 -31 -43 -19q-206 95 -331.5 308t-125.5 481zM705 344q2 -90 33.5 -139t90.5 -49q74 0 129.5 71.5t75.5 171.5l21 170q-2 4 -6 10t-18.5 22t-30.5 28.5t-42 22.5 t-53 10q-91 0 -145.5 -92.5t-54.5 -225.5z" />
<glyph unicode="A" horiz-adv-x="1234" d="M-63 16q-3 6 -3 14q0 11 7 23l761 1379q11 22 35 22h19q21 0 28 -22l371 -1379q1 -6 1 -11q0 -14 -8 -26q-12 -16 -32 -16h-123q-36 0 -43 31l-73 284h-564l-157 -284q-18 -31 -52 -31h-139q-21 0 -28 16zM399 487h430l-133 564h-8z" />
<glyph unicode="B" horiz-adv-x="1181" d="M119 39l190 1356q3 16 15 27.5t26 11.5h418q146 0 240 -94.5t94 -235.5q0 -68 -23 -130.5t-60.5 -109.5t-78 -81.5t-82.5 -57.5q34 -16 65 -39.5t60.5 -58.5t47.5 -84t18 -105q0 -189 -130 -313.5t-331 -124.5h-438q-15 0 -24 12q-7 10 -7 22v5zM348 188h248q93 0 160 72 t67 174q0 81 -53.5 137t-128.5 56h-229zM438 811h185q101 0 178.5 79t77.5 177q0 77 -42 125.5t-112 48.5h-227z" />
<glyph unicode="C" horiz-adv-x="1310" d="M117 635q0 170 61.5 322.5t166 261t248 172t300.5 63.5q134 0 234 -47.5t186 -142.5q8 -10 8 -23v-6q-2 -17 -14 -29l-84 -76q-15 -14 -30 -14q-17 0 -34 17q-48 52 -123 85t-155 33q-102 0 -200.5 -51t-171 -135t-117 -197.5t-44.5 -232.5q0 -189 100 -313.5t265 -124.5 q93 0 166 34.5t153 98.5q16 14 30 14q15 0 28 -16l81 -95q9 -11 6 -27.5t-14 -27.5q-106 -98 -226.5 -148t-236.5 -50q-172 0 -306 86.5t-205.5 235t-71.5 333.5z" />
<glyph unicode="D" horiz-adv-x="1406" d="M119 39l190 1356q1 15 13 27t26 12h428q157 0 285.5 -86.5t199 -229.5t70.5 -309q0 -164 -58.5 -313.5t-159 -258t-241 -173t-297.5 -64.5h-430q-13 0 -21 12q-6 9 -6 19q0 4 1 8zM348 195h230q142 0 262.5 78.5t192 218.5t71.5 309q0 190 -104.5 314t-274.5 124h-229z " />
<glyph unicode="E" horiz-adv-x="1118" d="M119 39l190 1356q1 15 13 27t26 12h744q14 0 22 -12q6 -9 6 -21v-6l-16 -115q-2 -15 -13 -27t-26 -12h-567l-60 -418h477q13 0 22 -12t7 -27l-16 -114q-3 -17 -14 -28t-25 -11h-477l-62 -441h568q13 0 21.5 -11.5t6.5 -26.5l-16 -113q-2 -15 -14 -27t-27 -12h-742 q-15 0 -23 12q-6 9 -6 19q0 4 1 8z" />
<glyph unicode="F" horiz-adv-x="1075" d="M119 39l190 1356q1 15 13 27t26 12h744q14 0 22 -12q6 -9 6 -21v-6l-16 -115q-2 -15 -13 -27t-26 -12h-567l-66 -473h475q13 0 22 -12t7 -27l-14 -113q-1 -15 -14 -26.5t-27 -11.5h-478l-75 -539q-2 -15 -14 -27t-25 -12h-142q-15 0 -23 12q-6 9 -6 19q0 4 1 8z" />
<glyph unicode="G" horiz-adv-x="1363" d="M117 616q0 177 61 333.5t165 266.5t247 174t303 64q134 0 234 -47.5t186 -142.5q8 -10 8 -23v-6q-2 -17 -14 -29l-82 -78q-15 -15 -31 -15t-33 17q-48 52 -124 86.5t-156 34.5q-103 0 -200.5 -49.5t-170 -131.5t-116.5 -194t-44 -231q0 -123 44.5 -226.5t129.5 -166 t193 -62.5q137 0 268 68l33 229h-168q-15 0 -23.5 11t-5.5 26l17 119q1 17 13.5 28t27.5 11h342q12 0 20 -10.5t8 -24.5l-67 -500q-4 -19 -21 -32q-8 -5 -23.5 -14.5t-65.5 -32.5t-102 -41t-129.5 -32.5t-152.5 -14.5q-164 0 -295.5 85.5t-203.5 230.5t-72 320z" />
<glyph unicode="H" horiz-adv-x="1456" d="M119 39l190 1356q3 15 15.5 27t25.5 12h144q15 0 23.5 -11.5t6.5 -27.5l-82 -572h643l80 572q3 16 15 27.5t26 11.5h144q14 0 22 -12q6 -9 7 -19q0 -4 -1 -8l-190 -1356q-2 -15 -14 -27t-25 -12h-143q-15 0 -24 12t-7 27l84 592h-643l-84 -592q-2 -15 -13 -27t-26 -12 h-143q-13 0 -23 12t-8 27z" />
<glyph unicode="I" horiz-adv-x="598" d="M119 39l190 1356q1 15 13 27t26 12h144q14 0 22 -12q6 -9 7 -19q0 -4 -1 -8l-190 -1356q-2 -15 -14 -27t-25 -12h-144q-15 0 -23 12q-6 9 -6 19q0 4 1 8z" />
<glyph unicode="J" horiz-adv-x="804" d="M-78 129q-4 9 -4 18q0 17 16 33l66 64q22 18 32.5 15.5t24.5 -19.5q23 -28 62 -50t88 -22q43 0 84.5 26t76 86.5t46.5 145.5l135 969q2 15 14 27t27 12h143q15 0 23 -12q7 -9 7 -19q0 -4 -1 -8l-135 -967q-61 -448 -428 -448q-56 0 -106.5 16.5t-84 42t-55 48.5t-31.5 42 z" />
<glyph unicode="K" horiz-adv-x="1218" d="M121 49l188 1335q3 21 17 35.5t34 14.5h129q19 0 30.5 -15t8.5 -35l-79 -567l559 590q24 27 55 27h164q25 0 31 -24q1 -5 1 -11q0 -19 -16 -37l-604 -623l451 -671q14 -20 2.5 -44t-39.5 -24h-148q-33 0 -51 27l-424 659l-90 -637q-3 -20 -17.5 -34.5t-33.5 -14.5h-129 q-20 0 -30 14q-9 12 -9 28v7z" />
<glyph unicode="L" horiz-adv-x="937" d="M119 39l190 1356q2 15 14 27t27 12h144q13 0 22.5 -12t7.5 -27l-170 -1205h486q16 0 24 -12q7 -9 6 -20v-6l-16 -113q-2 -15 -14 -27t-27 -12h-663q-15 0 -24 12q-7 10 -7 22v5z" />
<glyph unicode="M" horiz-adv-x="1636" d="M29 47l417 1376q3 13 13.5 22t23.5 9h29q25 0 29 -22l245 -1026h7l542 1026q11 22 35 22h29q11 0 19.5 -9.5t8.5 -21.5l29 -1376q0 -47 -39 -47h-139q-14 0 -23.5 11t-9.5 30l12 874h-1h-5l-467 -913q-11 -22 -34 -22h-33q-25 0 -29 22l-199 913h-8l-245 -882 q-9 -33 -39 -33h-140q-19 0 -27 12q-4 7 -4 17q0 8 3 18z" />
<glyph unicode="N" horiz-adv-x="1468" d="M119 39l194 1378q1 15 14 26t27 11h52l641 -1022h4l129 963q2 15 13 27t26 12h141q13 0 23 -12t8 -27l-195 -1379q-1 -15 -14 -25.5t-27 -10.5h-57l-641 1038h-2l-127 -979q-2 -15 -14 -27t-27 -12h-137q-13 0 -23 12t-8 27z" />
<glyph unicode="O" horiz-adv-x="1529" d="M115 614q0 174 60.5 330t164 267.5t246 177t301.5 65.5q162 0 293.5 -88.5t203.5 -235t72 -317.5q0 -173 -61 -328t-164.5 -265.5t-246 -175t-300.5 -64.5q-122 0 -229 51.5t-181 138t-116.5 202.5t-42.5 242zM330 641q0 -124 48 -228.5t136 -166.5t197 -62q101 0 198 48 t170 128.5t117.5 192.5t44.5 233q0 126 -47.5 231.5t-135.5 168.5t-198 63q-100 0 -197 -49t-170 -130.5t-118 -194.5t-45 -234z" />
<glyph unicode="P" horiz-adv-x="1128" d="M119 39l190 1356q2 15 14 27t27 12h426q100 0 182 -55.5t127 -146t45 -194.5q0 -139 -65 -258.5t-176 -189.5t-240 -70h-250l-67 -481q-2 -15 -15 -27t-30 -12h-137q-15 0 -24 12q-7 10 -7 22v5zM426 721h236q100 0 175.5 88t75.5 209q0 90 -50.5 150.5t-129.5 60.5h-235 z" />
<glyph unicode="Q" horiz-adv-x="1529" d="M115 614q0 174 62.5 330.5t167 267.5t247 176.5t297.5 65.5q162 0 293 -89t202.5 -235t71.5 -317q0 -257 -130 -467t-339 -303l172 -391q9 -22 -2.5 -40t-34.5 -18h-151q-31 0 -43 31l-142 363q-44 -8 -104 -8q-162 0 -293.5 88.5t-202.5 233t-71 312.5zM330 641 q0 -124 48 -228.5t136 -166.5t197 -62q101 0 198 48t170 128.5t117.5 192.5t44.5 233q0 126 -47.5 231.5t-135.5 168.5t-198 63q-100 0 -197 -49t-170 -130.5t-118 -194.5t-45 -234z" />
<glyph unicode="R" horiz-adv-x="1265" d="M119 39l190 1356q1 15 13 27t26 12h512q148 0 247 -113.5t99 -267.5q0 -165 -94.5 -298t-245.5 -175l183 -523q8 -21 -1.5 -39t-31.5 -18h-154q-29 0 -39 29l-151 530h-271l-73 -520q-2 -15 -14 -27t-25 -12h-142q-15 0 -23 12q-6 9 -6 19q0 4 1 8zM430 739h313 q93 0 169.5 84.5t76.5 200.5q0 87 -51 149t-125 62h-313z" />
<glyph unicode="S" horiz-adv-x="1030" d="M49 178q1 14 14 29l64 78q17 21 36 21q16 0 34 -15q69 -64 122 -91q67 -34 136 -34q96 0 163.5 63.5t67.5 153.5q0 75 -53.5 132t-169.5 126q-62 37 -108.5 74t-88.5 86t-64 110t-22 131q0 74 29 145t83.5 131.5t146 98t204.5 37.5q183 0 332 -119q15 -13 15 -31 q0 -15 -13 -38l-55 -74q-13 -19 -35 -22.5t-37 10.5q-31 26 -96 55t-133 29q-98 0 -164 -67t-66 -142q0 -70 47.5 -123t149.5 -111q57 -32 99 -60t88 -68t75.5 -81.5t48.5 -96.5t19 -116q0 -186 -130 -302.5t-344 -116.5q-75 0 -144 19.5t-117.5 50.5t-73.5 51.5t-43 39.5 q-10 11 -14 17q-3 5 -3 15v5z" />
<glyph unicode="T" horiz-adv-x="915" d="M121 1280l16 115q1 15 13 27t26 12h799q15 0 23 -12q7 -9 6 -21v-6l-17 -115q-2 -15 -13 -27t-26 -12h-293l-168 -1202q-1 -15 -14 -27t-27 -12h-143q-13 0 -23 12t-8 27l170 1202h-292q-14 -1 -22 11q-7 9 -7 22v6z" />
<glyph unicode="U" horiz-adv-x="1368" d="M172 535l121 860q3 15 15.5 27t25.5 12h147q15 0 23.5 -12t5.5 -27l-119 -846q-6 -40 -6 -76q0 -107 49 -184q65 -103 195 -103q131 0 225.5 102t116.5 257l121 850q2 15 13.5 27t24.5 12h148q14 0 23 -12q7 -9 7 -20q0 -4 -1 -7l-121 -860q-22 -156 -99.5 -281.5 t-204.5 -199.5t-282 -74q-100 0 -186.5 43.5t-145 117t-85.5 177.5q-17 65 -17 134q0 41 6 83z" />
<glyph unicode="V" horiz-adv-x="1236" d="M121 1384q-2 8 -2 14q0 12 6 22q9 14 29 14h155q11 0 19 -7.5t10 -15.5l240 -975h12l526 975q14 23 35 23h162q21 0 27 -17q2 -6 2 -13q0 -11 -7 -24l-762 -1378q-11 -22 -34 -22h-19q-19 0 -26 22z" />
<glyph unicode="W" horiz-adv-x="1683" d="M186 1384q-1 4 -1 8q-1 16 9 28q12 14 31 14h140q13 0 20.5 -8.5t9.5 -20.5l80 -899h8l432 926q9 22 35 22h33q9 0 18.5 -6.5t10.5 -15.5l164 -926h8l334 899q12 29 36 29h148q20 0 28 -14q4 -7 3 -15q0 -9 -4 -21l-543 -1376q-10 -28 -37 -28h-29q-24 0 -30 26l-183 959 h-8l-465 -963q-9 -22 -35 -22h-28q-12 0 -20.5 8t-10.5 20z" />
<glyph unicode="X" horiz-adv-x="1169" d="M-8 16q-2 5 -2 11q0 12 10 26l483 686l-280 645q-8 21 2 35.5t33 14.5h161q22 0 31 -25l193 -485h2l340 491q14 19 32 19h177q22 0 28 -16q2 -5 2 -9q0 -12 -10 -27l-461 -651l291 -678q9 -22 -2.5 -37.5t-34.5 -15.5h-149q-23 0 -29 18l-219 529h-4l-361 -529 q-11 -18 -35 -18h-165q-27 0 -33 16z" />
<glyph unicode="Y" horiz-adv-x="1073" d="M111 1380q-3 9 -3 17q0 11 6 21q10 16 31 16h146q25 0 35 -23l239 -520h4l394 520q19 23 41 23h161q23 0 28 -17q1 -4 1 -9q0 -13 -10 -28l-529 -688l-92 -653q-1 -15 -14 -27t-27 -12h-141q-15 0 -24 12t-7 27l92 651z" />
<glyph unicode="Z" horiz-adv-x="1017" d="M-10 39l4 37l747 1155v6h-495q-13 0 -22 12t-7 27l16 119q1 15 14 27t27 12h762q14 0 23 -12q7 -9 7 -20q0 -4 -1 -7l-4 -27l-742 -1167v-6h506q14 0 22.5 -11.5t6.5 -27.5l-16 -117q-2 -15 -14 -27t-27 -12h-779q-14 0 -22 12q-7 10 -6 21v6z" />
<glyph unicode="[" horiz-adv-x="653" d="M-16 -575l278 1970q2 15 14 27t25 12h397q13 0 22 -12t7 -27l-12 -90q-3 -17 -15 -28t-26 -11h-244l-242 -1715h244q14 0 23 -10.5t8 -25.5l-12 -90q-1 -15 -14 -27t-27 -12h-396q-13 0 -22.5 12t-7.5 27z" />
<glyph unicode="\" horiz-adv-x="655" d="M160 1382q-3 22 8.5 37t30.5 15h110q12 0 20.5 -8t10.5 -19l170 -1356q3 -21 -9.5 -36t-31.5 -15h-113q-9 0 -18 8.5t-10 18.5z" />
<glyph unicode="]" horiz-adv-x="655" d="M-117 -575l15 90q3 15 14.5 25.5t24.5 10.5h241l242 1715h-242q-14 0 -22.5 11t-5.5 28l12 90q2 15 14 27t25 12h397q13 0 22 -12t7 -27l-277 -1970q-3 -15 -15.5 -27t-25.5 -12h-395q-14 0 -24 12t-7 27z" />
<glyph unicode="^" horiz-adv-x="966" d="M100 817q-6 16 9 35l464 590q16 20 35 20h10q21 0 29 -20l289 -590q9 -20 -1.5 -35.5t-33.5 -15.5h-102q-21 0 -29 20l-182 383h-8l-293 -383q-16 -20 -35 -20h-123q-23 0 -29 16z" />
<glyph unicode="_" horiz-adv-x="759" d="M-53 -117l8 58q3 17 14.5 28t26.5 11h604q14 0 23 -11t6 -28l-8 -58q-1 -15 -13.5 -26t-27.5 -11h-603q-15 0 -23.5 11t-6.5 26z" />
<glyph unicode="`" horiz-adv-x="557" d="M170 1315l53 84q18 27 49 6l269 -186q8 -5 10.5 -16t-4.5 -23l-31 -54q-15 -24 -47 -8l-287 144q-34 16 -12 53z" />
<glyph unicode="a" d="M49 354q0 126 55.5 238.5t151 180t205.5 67.5q56 0 107.5 -23t74 -42t35.5 -36l27 52q14 28 38 28h62q13 0 22 -12q7 -10 7 -22v-5l-97 -741q-1 -15 -14 -27t-27 -12h-67q-24 0 -27 29l-6 61q-16 -16 -41.5 -36t-87.5 -47t-123 -27q-127 0 -211 108.5t-84 265.5zM244 356 q0 -89 40.5 -144.5t112.5 -55.5q35 0 70 17t58.5 41t37.5 42t19 27l34 286q-2 4 -6.5 10t-20 22t-33 28.5t-45.5 22.5t-58 10q-96 0 -152.5 -87.5t-56.5 -218.5z" />
<glyph unicode="b" horiz-adv-x="942" d="M57 39l191 1356q2 15 14 27t25 12h129q14 0 22.5 -12t5.5 -27l-84 -600q94 45 175 45q133 0 223 -107t90 -262q0 -201 -121.5 -346t-294.5 -145q-41 0 -79 11.5t-62.5 28.5t-43.5 34t-27 28l-9 12l-25 -59q-14 -35 -39 -35h-61q-14 0 -23 12q-7 9 -7 20q0 3 1 7zM287 295 q1 -12 9.5 -32.5t24.5 -45.5t45.5 -43t65.5 -18q92 0 157.5 89t65.5 208q0 89 -45 149t-118 60q-42 0 -82 -12.5t-59 -25.5l-19 -12z" />
<glyph unicode="c" horiz-adv-x="825" d="M49 350q0 100 37.5 191.5t99.5 156.5t145.5 103.5t172.5 38.5q82 0 147.5 -40t102.5 -106q4 -9 4 -19q0 -6 -1 -11q-4 -16 -18 -27l-73 -51q-29 -19 -48 8q-54 68 -129 68q-93 0 -168 -90.5t-75 -209.5q0 -91 41.5 -148.5t113.5 -57.5q30 0 56 9t49 29.5t32.5 31 t30.5 36.5q22 25 47 4l74 -57q14 -11 15 -26.5t-11 -30.5q-128 -172 -311 -172q-139 0 -236.5 106.5t-97.5 263.5z" />
<glyph unicode="d" horiz-adv-x="942" d="M49 344q0 209 128 352.5t308 143.5q84 0 162 -47l84 602q3 19 17.5 29t31.5 10h117q13 0 23 -12t8 -27l-191 -1356q-3 -15 -15.5 -27t-25.5 -12h-61q-21 0 -27 29l-12 61q-16 -16 -41.5 -36t-87.5 -47t-123 -27q-127 0 -211 106t-84 258zM244 367q0 -90 41 -150.5 t112 -60.5q35 0 70 17t58.5 41t37.5 42t19 27l43 331q-6 5 -17 13t-49 21.5t-80 13.5q-97 0 -166 -87t-69 -208z" />
<glyph unicode="e" horiz-adv-x="843" d="M49 346q0 131 56 243t162 181.5t239 69.5q120 0 197 -62t77 -172q0 -56 -25 -100.5t-68 -72t-97 -46t-116 -25.5t-120.5 -7t-115.5 7q-1 -14 -1 -27q0 -70 35 -122q42 -61 125 -61q84 0 166 57q20 12 28 13t21 -11l56 -76q22 -29 -11 -53q-126 -102 -288 -102 q-145 0 -232.5 105t-87.5 261zM268 500q62 -5 112 -5q216 0 216 101q0 38 -33 62t-78 24q-82 0 -139.5 -51t-77.5 -131z" />
<glyph unicode="f" horiz-adv-x="655" d="M33 -575l170 1224h-97q-15 0 -23.5 11.5t-6.5 27.5l14 92q1 17 13 28t26 11h96l37 254q27 186 128 283.5t251 97.5q68 0 122 -25.5t81 -56.5q8 -9 8 -22.5t-8 -24.5l-56 -86q-18 -28 -45 -10q-57 41 -116 41q-63 0 -106.5 -49t-57.5 -148l-37 -254h195q14 0 22.5 -11 t5.5 -28l-12 -92q-3 -16 -15 -27.5t-26 -11.5h-193l-170 -1224q-1 -15 -13.5 -27t-26.5 -12h-132q-13 0 -21 12q-7 10 -7 21v6z" />
<glyph unicode="g" horiz-adv-x="942" d="M25 -373q-12 18 -12 34q0 19 18 34l65 59q28 23 51 -4l9 -10q9 -11 13.5 -16t15.5 -16t20 -17.5t22.5 -16t26 -14.5t29 -8.5t32.5 -3.5q88 0 134.5 59.5t70.5 214.5l15 101q-19 -13 -72.5 -28t-110.5 -15q-131 0 -218 111t-87 265q0 126 55 237t152 179t211 68 q56 0 107.5 -23t74 -42t35.5 -36l27 52q14 28 39 28h61q13 0 22 -12q7 -10 7 -22v-5l-117 -858q-62 -454 -399 -454q-57 0 -107 15.5t-81.5 35t-57.5 45.5t-35.5 39.5t-15.5 23.5zM236 369q0 -90 45.5 -151.5t117.5 -61.5q43 0 84 14t61 28l19 15l49 342q-2 9 -11.5 24 t-26.5 35t-46.5 34t-64.5 14q-96 0 -161.5 -87.5t-65.5 -205.5z" />
<glyph unicode="h" horiz-adv-x="976" d="M57 39l191 1356q2 15 14 27t25 12h129q14 0 22.5 -12t5.5 -27l-90 -643q111 88 224 88q154 0 220 -107q48 -78 49 -194q0 -42 -7 -88l-58 -412q-1 -15 -14 -27t-27 -12h-123q-14 0 -22 11.5t-6 27.5l57 412q4 29 4 54q-1 61 -23 99q-32 54 -100 55q-66 0 -123.5 -45.5 t-80.5 -85.5l-70 -489q-7 -39 -43 -39h-125q-13 0 -22 12q-7 10 -7 22v5z" />
<glyph unicode="i" horiz-adv-x="458" d="M57 39l103 741q1 15 14 27t27 12h127q13 0 21.5 -12t6.5 -27l-104 -741q-1 -15 -14 -27t-27 -12h-125q-13 0 -22 12q-7 10 -7 22v5zM211 1257q0 55 39 95.5t92 40.5q44 0 73 -31t29 -76q0 -55 -41 -94t-96 -39q-42 0 -69 30t-27 74z" />
<glyph unicode="j" horiz-adv-x="460" d="M-376 -531q0 15 7 25l52 76q9 13 24 16t27 -6q46 -37 114 -37q64 0 108.5 51t59.5 152l146 1034q1 17 14 28t27 11h127q14 0 22.5 -11t7.5 -28l-145 -1034q-26 -187 -124.5 -284t-248.5 -97q-70 0 -126 25.5t-85 56.5q-7 7 -7 22zM213 1257q0 55 39 95.5t92 40.5 q44 0 73 -31t29 -76q0 -55 -40 -94t-95 -39q-43 0 -70.5 30t-27.5 74z" />
<glyph unicode="k" horiz-adv-x="901" d="M57 39l191 1356q2 15 14 27t25 12h129q13 0 21.5 -12t6.5 -27l-122 -887l296 287q28 24 54 24h162q22 -1 26 -21q1 -4 0 -7q0 -16 -12 -27l-346 -324l297 -387q12 -13 2.5 -33t-31.5 -20h-158q-18 0 -30 16l-277 381l-51 -358q-2 -15 -14 -27t-25 -12h-129q-13 0 -22 12 q-7 10 -7 22v5z" />
<glyph unicode="l" horiz-adv-x="456" d="M57 39l191 1356q1 15 14 27t27 12h125q14 0 22 -12q7 -10 7 -21q0 -3 -1 -6l-190 -1356q-2 -15 -14 -27t-25 -12h-127q-13 0 -22 12q-7 10 -7 22v5z" />
<glyph unicode="m" horiz-adv-x="1458" d="M57 39l103 741q2 16 12.5 27.5t28.5 11.5h59q26 0 29 -24l12 -70q15 15 34 30t53 36.5t79.5 35t93.5 13.5q152 0 221 -129q151 129 283 129q83 0 140.5 -31t84 -84t36.5 -123q4 -28 4 -59q0 -44 -9 -92l-57 -412q-2 -16 -13 -27.5t-28 -11.5h-121q-16 0 -24.5 11.5 t-6.5 27.5l57 418q5 32 5 60q1 55 -19 91q-28 54 -100 54q-38 0 -74 -13.5t-62.5 -34.5t-38 -32.5t-20.5 -22.5q0 -43 -8 -98l-57 -422q-3 -15 -15.5 -27t-25.5 -12h-115q-15 0 -23.5 12t-5.5 27l58 418q5 33 5 61q0 144 -122 144q-65 0 -115.5 -41.5t-72.5 -77.5l-72 -504 q-3 -15 -15.5 -27t-25.5 -12h-123q-14 0 -23 12q-7 9 -7 20q0 3 1 7z" />
<glyph unicode="n" horiz-adv-x="978" d="M57 39l103 741q2 16 13 27.5t28 11.5h61q10 0 17.5 -6.5t9.5 -17.5l14 -70q15 13 33 26.5t55.5 36.5t87 37.5t99.5 14.5q67 0 118 -20t81.5 -55.5t48.5 -84.5t20 -107q0 -10 -1 -21q0 -49 -5 -101l-58 -412q-1 -15 -14 -27t-27 -12h-125q-14 0 -22 11.5t-6 27.5l57 418 q4 31 4 58q0 57 -20 93q-30 54 -99 54q-37 0 -74.5 -14.5t-64 -36t-44 -39t-25.5 -29.5l-72 -504q-3 -21 -13.5 -30t-37.5 -9h-113q-14 0 -23 12q-7 9 -7 20q0 3 1 7z" />
<glyph unicode="o" horiz-adv-x="903" d="M49 354q0 130 57.5 241.5t159.5 178t223 66.5q136 0 228 -109.5t92 -261.5q0 -200 -127.5 -344.5t-312.5 -144.5q-133 0 -226.5 110t-93.5 264zM233 371q0 -90 45 -152.5t115 -62.5q92 0 162 87t70 206q0 90 -44.5 151.5t-115.5 61.5q-92 0 -162 -86t-70 -205z" />
<glyph unicode="p" d="M-29 -575l191 1355q2 16 13 27.5t28 11.5h63q23 0 29 -26l12 -54q25 29 94.5 65t149.5 36q133 0 216 -107t83 -262q0 -135 -57 -248t-155.5 -178t-215.5 -65q-55 0 -100 16.5t-66 32.5l-86 -604q-7 -39 -45 -39h-123q-13 0 -23 12t-8 27zM276 217q6 -7 17 -17t48.5 -27 t80.5 -17q96 0 165.5 87.5t69.5 209.5q0 89 -40.5 149t-112.5 60q-45 0 -89.5 -25t-64 -45t-28.5 -33z" />
<glyph unicode="q" horiz-adv-x="940" d="M49 346q0 131 54.5 244.5t151.5 181.5t212 68q56 0 107.5 -23t74 -42t35.5 -36l27 52q14 28 39 28h61q13 0 22 -12q7 -10 7 -22v-5l-191 -1355q-1 -15 -14 -27t-27 -12h-125q-38 0 -32 39l86 604q-22 -14 -74.5 -31.5t-108.5 -17.5q-125 0 -215 106.5t-90 259.5zM238 369 q0 -90 45.5 -151.5t117.5 -61.5q43 0 84 14t61 28l19 15l49 346q-3 10 -12 24.5t-26.5 33.5t-46.5 32t-64 13q-96 0 -161.5 -87.5t-65.5 -205.5z" />
<glyph unicode="r" horiz-adv-x="647" d="M57 39l103 741q2 16 12.5 27.5t26.5 11.5h61q9 0 17.5 -8t11.5 -20l14 -70q1 1 10.5 11t16 16.5t21 19t27 21t31.5 19t37 17t40.5 11t45.5 4.5q76 0 117 -27q14 -9 14 -22q0 -11 -10 -25l-57 -100q-19 -27 -47 -19q-40 10 -68 10q-16 0 -31.5 -4t-28 -9.5t-25 -14 t-21.5 -16t-18.5 -17.5t-14.5 -15.5t-11 -13t-7 -8.5l-74 -520q-3 -24 -18 -31.5t-44 -7.5h-102q-13 0 -22 12q-7 10 -7 22v5z" />
<glyph unicode="s" horiz-adv-x="694" d="M19 86q0 9 6 20l47 78q20 28 45 11q1 -1 11 -7t15.5 -9t17 -9t22.5 -9.5t25.5 -7.5t31.5 -6t36 -2q41 0 71 22t30 60q0 33 -25 58.5t-88 62.5q-86 51 -133 106.5t-47 133.5q0 47 17 90t51 80t93.5 59.5t135.5 22.5q132 0 215 -64q18 -14 18 -32q0 -13 -10 -27l-39 -70 q-9 -13 -24 -17.5t-25 1.5q-78 39 -149 39q-45 0 -69 -20t-24 -50q0 -31 22 -52t75 -52q45 -26 68 -40.5t55 -39.5t47.5 -47t27 -54t11.5 -69q0 -115 -83 -190.5t-231 -75.5q-78 0 -139.5 25.5t-97.5 57.5q-10 9 -10 23z" />
<glyph unicode="t" horiz-adv-x="669" d="M72 688l14 92q3 17 13.5 28t25.5 11h92l31 228q1 15 14 26.5t27 11.5l125 2q13 0 21.5 -11.5t6.5 -26.5l-32 -230h176q15 0 24 -11q7 -8 7 -20q0 -4 -1 -8l-14 -92q-3 -16 -14 -27.5t-25 -11.5h-178l-55 -403q-2 -17 -2 -30q0 -24 8 -35q13 -17 41 -17q35 0 106 37 q31 15 39 -19l23 -92q7 -28 -25 -49q-22 -14 -95 -37.5t-130 -23.5q-167 0 -167 176q0 31 5 67l60 426h-91q-15 0 -24 12q-7 9 -7 20q0 3 1 7z" />
<glyph unicode="u" horiz-adv-x="950" d="M87 216q-4 28 -4 57q0 45 9 94l58 413q3 15 15 27t25 12h125q13 0 23 -12t8 -27l-59 -418q-4 -30 -4 -55q-1 -59 21 -97q30 -54 99 -54q61 0 119 50t68 79l67 495q3 23 14 31t34 8h112q13 0 23 -12t8 -27l-105 -741q-2 -15 -14 -27t-27 -12h-59q-22 0 -29 33l-12 59 q-112 -112 -260 -112q-82 0 -138 30.5t-82 83t-35 122.5z" />
<glyph unicode="v" horiz-adv-x="784" d="M49 770q-2 7 -2 13q-1 11 7 21q12 14 32 15h111q23 0 30 -22l117 -469h2l260 471q11 20 39 20h119q20 -1 26 -15q2 -5 2 -10q0 -11 -8 -24l-440 -770q-16 -20 -35 -20h-8q-9 0 -18.5 6.5t-10.5 13.5z" />
<glyph unicode="w" horiz-adv-x="1159" d="M84 772q-1 4 -1 9q1 15 9 25q10 14 29 13h100q11 0 19.5 -7t9.5 -17l61 -433h2l269 457q13 21 32 21h13q24 0 28 -21l125 -459h2l179 435q11 24 45 24h104q19 1 24 -13q2 -5 2 -11q0 -11 -6 -25l-327 -770q-10 -20 -37 -20h-8q-25 0 -29 18l-147 526h-2l-308 -526 q-11 -18 -32 -18h-9q-25 0 -28 20z" />
<glyph unicode="x" horiz-adv-x="835" d="M-18 18q-1 4 -1 8q0 14 11 29l291 365l-187 346q-11 20 -0.5 36.5t35.5 16.5h113q36 0 47 -22l119 -246h2l178 246q16 22 51 22h137q22 1 28 -17q1 -4 2 -9q0 -14 -13 -29l-283 -344l188 -367q10 -20 -1 -36.5t-33 -16.5h-111q-29 0 -41 25l-125 264h-2l-203 -273 q-12 -16 -30 -16h-144q-23 0 -28 18z" />
<glyph unicode="y" horiz-adv-x="870" d="M-80 -600q-2 6 -2 12q0 11 8 25l330 606l-209 727q-6 21 4 35t31 14h119q21 0 28 -22l150 -549h2l295 549q12 22 45 22h119q23 0 30 -17q2 -5 2 -12q0 -11 -8 -24l-751 -1356q-12 -24 -35 -24h-129q-22 0 -29 14z" />
<glyph unicode="z" horiz-adv-x="692" d="M-6 39l2 20l377 580v6h-244q-13 0 -21 12t-6 27l13 96q1 17 13 28t26 11h477q22 1 29 -17q3 -6 3 -14q0 -12 -8 -24l-379 -586v-6h232q15 0 23 -11t6 -28l-13 -94q-2 -15 -14 -27t-27 -12h-460q-13 0 -22 12q-7 10 -7 22v5z" />
<glyph unicode="{" horiz-adv-x="739" d="M14 367l13 82q4 24 28 32q20 6 48.5 21.5t63.5 51.5t40 77l41 295q18 125 61 220.5t96 151t121.5 91.5t127 49t122.5 16q36 0 33 -35l-8 -84q-1 -16 -10 -25.5t-19 -11.5q-125 -24 -214.5 -120.5t-111.5 -251.5l-34 -244q-27 -188 -189 -272l-2 -9q10 -5 17.5 -9.5 t19 -13t20 -16.5t19.5 -21t18 -27t13.5 -33t9.5 -40.5t2.5 -48.5t-4.5 -57l-35 -246q-22 -155 40 -249t181 -119q10 -2 17 -12.5t4 -24.5l-19 -84q-3 -15 -15 -25t-26 -10q-60 2 -118 20.5t-112.5 60t-93 100t-55.5 147.5t-2 196l41 291q8 62 -28 101t-78 49q-26 6 -23 37z " />
<glyph unicode="|" horiz-adv-x="374" d="M-18 -578l294 2096q3 17 15 27.5t26 10.5h21q14 0 22 -10.5t5 -27.5l-293 -2096q-1 -15 -14 -25.5t-27 -10.5h-19q-14 0 -22.5 10.5t-7.5 25.5z" />
<glyph unicode="}" horiz-adv-x="739" d="M-115 -600l6 84q1 16 10.5 25.5t20.5 11.5q126 26 215 120t111 248l35 246q28 194 186 268l2 11q-52 33 -77 71q-53 78 -36 197l35 244q22 155 -40.5 251.5t-182.5 120.5q-26 6 -18 37l18 84q8 35 41 35q59 -2 117 -20t113.5 -59t94.5 -99.5t55.5 -149t0.5 -200.5 l-43 -295q-4 -31 8.5 -59.5t34 -47t38.5 -29t29 -14.5q24 -9 21 -32l-12 -82q-4 -29 -33 -37q-45 -10 -92.5 -49.5t-55.5 -100.5l-41 -291q-17 -124 -60.5 -218.5t-95.5 -148.5t-122 -89.5t-127 -48.5t-123 -19q-14 -2 -24 7.5t-9 27.5z" />
<glyph unicode="~" horiz-adv-x="1040" d="M74.5 526q0.5 15 9.5 25q6 8 16.5 20.5t43 44.5t66 56.5t80.5 44.5t91 20q94 0 182 -84q74 -69 125 -69q70 0 162 118q12 17 27.5 18.5t25.5 -11.5l60 -70q9 -9 8 -23.5t-10 -25.5q-6 -7 -16 -19.5t-42 -44.5t-64.5 -56t-79 -44t-89.5 -20q-108 0 -195 83 q-22 22 -33.5 32t-35 23t-46.5 13q-77 0 -161 -119q-10 -15 -26 -16.5t-26 10.5l-65 70q-8 9 -7.5 24z" />
<glyph unicode="&#xa1;" horiz-adv-x="464" d="M-51 -575l33 229l143 575q3 12 15 22.5t24 10.5h49q12 0 21.5 -10.5t9.5 -22.5l-21 -571l-33 -233q-2 -15 -13.5 -27t-24.5 -12h-172q-13 0 -23 12t-8 27zM111 680q0 65 48.5 112.5t112.5 47.5q50 0 84.5 -36.5t34.5 -88.5q0 -65 -49.5 -112.5t-110.5 -47.5q-52 0 -86 36 t-34 89z" />
<glyph unicode="&#xa2;" horiz-adv-x="780" d="M25 350q0 100 37.5 191.5t99.5 156.5t145 103.5t172 38.5q29 0 53 -6l33 86q6 15 20 22.5t27 3.5l21 -6q12 -3 17 -16.5t-1 -30.5l-35 -88q70 -36 115 -111q8 -13 3.5 -30t-17.5 -27l-74 -51q-28 -18 -47 8q-20 27 -43 41l-184 -479h10q30 0 56 9t49 29.5t32.5 31 t30.5 36.5q22 25 47 4l74 -57q14 -11 15 -26.5t-11 -30.5q-128 -172 -312 -172q-30 0 -57 6l-76 -199q-6 -15 -20 -23t-27 -4l-18 7q-13 5 -19 18t0 27l76 200q-87 44 -139.5 134.5t-52.5 203.5zM221 362q0 -119 64 -174l182 474h-2q-93 0 -168.5 -90.5t-75.5 -209.5z" />
<glyph unicode="&#xa3;" horiz-adv-x="942" d="M80 39l6 37q150 244 143 522h-82q-16 0 -23.5 11.5t-4.5 27.5l4 25q3 15 14 24.5t25 9.5h59q-18 153 -18 240q0 244 125.5 381t318.5 137q45 0 88.5 -11.5t73.5 -26t62 -38.5t45.5 -36.5t33.5 -32.5q10 -11 9 -26.5t-13 -27.5l-78 -77q-28 -28 -51 -4q-88 96 -184 96 q-98 0 -162.5 -82t-64.5 -225q0 -57 12.5 -156.5t13.5 -110.5h240q15 0 24 -11t6 -26l-4 -26q-3 -15 -14.5 -25t-26.5 -10h-221q0 -85 -23.5 -206t-64.5 -214h389q14 0 22 -11t7 -28l-14 -100q-3 -15 -14.5 -27t-24.5 -12h-602q-13 0 -23 12t-8 27z" />
<glyph unicode="&#xa4;" horiz-adv-x="894" d="M108.5 435q2.5 18 14.5 28l98 90q-17 64 -5.5 129.5t46.5 128.5l-69 92q-8 10 -6 28t14 27l67 56q12 9 26.5 9.5t22.5 -9.5l72 -90q55 33 112.5 34t104.5 -32l96 92q11 10 26 9.5t24 -11.5l57 -66q9 -10 7.5 -26.5t-13.5 -26.5l-96 -90q18 -61 8 -128t-45 -130l69 -90 q8 -10 6 -26.5t-14 -26.5l-67 -58q-11 -11 -25.5 -11.5t-22.5 9.5l-73 92q-57 -33 -116 -35t-108 31l-96 -92q-11 -10 -25.5 -9.5t-23.5 9.5l-59 66q-9 9 -6.5 27zM358 680q-6 -55 17 -92t67 -37q42 0 75.5 37.5t41.5 91.5q5 55 -19.5 92t-66.5 37q-44 0 -76.5 -37 t-38.5 -92z" />
<glyph unicode="&#xa5;" horiz-adv-x="1171" d="M164 1380q-8 20 3 37t32 17h145q25 0 35 -23l239 -520h5l393 520q19 23 41 23h162q23 0 27.5 -17t-9.5 -37l-528 -688l-15 -100h211q15 0 24 -12t7 -27l-4 -23q-1 -15 -13 -25.5t-26 -10.5h-213l-21 -148h211q15 0 24 -12t7 -27l-4 -22q-2 -15 -13 -26t-26 -11h-213 l-29 -209q-1 -15 -14 -27t-27 -12h-141q-15 0 -24 12t-7 27l29 209h-211q-13 0 -21.5 12t-6.5 27l2 20q3 16 14 27.5t24 11.5h213l21 148h-213q-13 0 -21 11.5t-6 26.5l2 21q3 15 14.5 27t24.5 12h213l15 98z" />
<glyph unicode="&#xa6;" horiz-adv-x="681" d="M139 -578l97 678q1 17 12.5 28t25.5 11h23q14 0 22 -11t5 -28l-95 -678q-3 -15 -15 -25.5t-26 -10.5h-18q-14 0 -23 10.5t-8 25.5zM338 840l96 678q1 16 14 27t27 11h21q14 0 21.5 -10.5t4.5 -27.5l-94 -678q-3 -15 -15 -26t-26 -11h-18q-14 0 -23 11t-8 26z" />
<glyph unicode="&#xa7;" horiz-adv-x="980" d="M-27 -283l54 72q28 40 65 10l9 -7q9 -8 18.5 -16.5t26.5 -21t34 -23.5t39 -22.5t43.5 -19.5t46.5 -13.5t49 -5.5q68 0 126.5 42.5t76.5 117.5q21 90 -30 159t-177 136q-276 143 -276 364q0 63 20.5 119.5t52.5 95.5t57 61.5t48 37.5q-32 27 -65 92t-33 154q0 55 15 110.5 t49 109t83 94.5t123.5 66t163.5 25q35 0 70 -4.5t62 -11.5t55 -17.5t47 -19.5t40 -21.5t30.5 -19t22.5 -16.5l13 -9q26 -26 4 -65l-57 -76q-26 -36 -64 -10q-135 90 -242 90q-96 0 -153.5 -60.5t-57.5 -130.5q0 -66 47 -119t142 -100q58 -29 100.5 -54.5t88 -61.5t74 -72.5 t47 -86t18.5 -104.5q0 -62 -22 -120.5t-55.5 -100t-59.5 -66.5t-48 -40q31 -23 66 -92.5t35 -163.5q0 -178 -129 -296t-330 -118q-69 0 -135 20t-113 50.5t-73 51.5t-42 38q-30 30 0 69zM279 518q0 -30 10.5 -56.5t22.5 -44.5t44 -43t50 -37t67.5 -42.5t71.5 -44.5 q5 3 12.5 8t27 23.5t34.5 40.5t27.5 58t12.5 75q0 68 -55 118.5t-180 118.5q-23 15 -41 23q-10 -6 -21.5 -16t-33 -33.5t-35.5 -62.5t-14 -85z" />
<glyph unicode="&#xa8;" horiz-adv-x="763" d="M158 1262q0 55 38.5 93t90.5 38q41 0 68.5 -30t27.5 -73q0 -53 -38.5 -91t-90.5 -38q-41 0 -68.5 29.5t-27.5 71.5zM524 1262q0 54 38 92.5t89 38.5q42 0 70.5 -30t28.5 -73q0 -53 -38.5 -91t-90.5 -38q-42 0 -69.5 29.5t-27.5 71.5z" />
<glyph unicode="&#xa9;" horiz-adv-x="1513" d="M109 621q0 167 62.5 321.5t166.5 266.5t247 178.5t298 66.5t285.5 -86.5t206 -234t75.5 -320.5q0 -168 -62 -322t-166 -265.5t-247.5 -177.5t-298.5 -66q-156 0 -286.5 86t-205.5 232.5t-75 320.5zM246 637q0 -141 57 -258t160.5 -186.5t232.5 -69.5q118 0 231 54 t197.5 144t136.5 215.5t52 260.5q0 142 -57 259t-161 186t-233 69q-118 0 -230.5 -53.5t-197.5 -143t-136.5 -215.5t-51.5 -262zM446 662q0 182 116.5 309t287.5 127q123 0 201 -78q10 -12 8.5 -28.5t-15.5 -30.5l-55 -58q-22 -25 -47 -4q-40 35 -115 35q-88 0 -151.5 -73.5 t-63.5 -176.5q0 -80 42.5 -135t111.5 -55q55 0 119 47q29 20 47 -4l47 -64q9 -12 6 -28.5t-16 -28.5q-94 -86 -228 -86q-121 0 -208 97.5t-87 234.5z" />
<glyph unicode="&#xaa;" horiz-adv-x="591" d="M123 1024q11 85 76.5 140t165.5 55q25 0 48 -4.5t33 -9.5l11 -5q14 70 6 102.5t-57 32.5q-28 0 -56 -5t-64 -15l-36 -10q-10 -3 -16.5 4t-8.5 22l-4 51q-3 25 21 35q7 4 31.5 12t70.5 16.5t90 8.5q61 0 97.5 -20t49 -56t14 -85t-8.5 -107l-45 -320q-1 -12 -10.5 -20 t-20.5 -8h-45q-17 0 -23 20q-6 42 -6 43l-12 -11q-12 -11 -14.5 -12.5t-14 -11.5t-17 -12.5t-17 -9.5t-20.5 -9.5t-21 -6.5t-25 -5.5t-27 -1.5q-76 0 -117 56t-28 147zM250 1026q-6 -39 11.5 -65.5t49.5 -26.5q67 0 117 76l12 90q-10 8 -35.5 16t-48.5 8q-42 0 -71 -27.5 t-35 -70.5z" />
<glyph unicode="&#xab;" horiz-adv-x="862" d="M49 397q-12 24 6 49l238 304q19 24 41 24h90q23 0 27.5 -19t-9.5 -44l-174 -301l74 -285q6 -26 -3.5 -44t-33.5 -18h-84q-15 0 -24 17zM397 397q-12 24 6 49l238 304q19 24 41 24h90q23 0 28 -19t-9 -44l-175 -301l74 -285q6 -26 -3.5 -44t-33.5 -18h-84q-15 0 -24 17z " />
<glyph unicode="&#xac;" horiz-adv-x="960" d="M70 668l12 86q2 15 14 27t25 12h717q14 0 23 -12.5t7 -26.5l-63 -441q-1 -15 -13 -26t-26 -11h-88q-14 0 -23 11t-8 26l45 316h-594q-13 0 -21.5 12t-6.5 27z" />
<glyph unicode="&#xad;" horiz-adv-x="643" d="M145 459l13 88q3 17 14.5 28t26.5 11h403q15 0 24.5 -11t6.5 -28l-12 -88q-1 -15 -13.5 -26t-27.5 -11h-404q-15 0 -24 11t-7 26z" />
<glyph unicode="&#xae;" horiz-adv-x="1513" d="M109 621q0 167 62.5 321.5t166.5 266.5t247 178.5t298 66.5t285.5 -86.5t206 -234t75.5 -320.5q0 -168 -62 -322t-166 -265.5t-247.5 -177.5t-298.5 -66q-156 0 -286.5 86t-205.5 232.5t-75 320.5zM246 637q0 -141 57 -258t160.5 -186.5t232.5 -69.5q118 0 231 54 t197.5 144t136.5 215.5t52 260.5q0 142 -57 259t-161 186t-233 69q-118 0 -230.5 -53.5t-197.5 -143t-136.5 -215.5t-51.5 -262zM492 383l94 672q2 15 14 27t27 12h276q80 0 138.5 -59t58.5 -148q0 -187 -174 -254q6 -25 29.5 -108.5t33.5 -125.5q6 -20 -7 -37.5t-32 -17.5 h-82q-10 0 -18 9t-10 20l-56 241h-114l-33 -231q-2 -15 -13 -27t-26 -12h-78q-15 0 -23 12t-5 27zM684 750h158q41 0 70.5 34.5t29.5 81.5q0 37 -20 60.5t-52 23.5h-157z" />
<glyph unicode="&#xaf;" horiz-adv-x="763" d="M78 1217l8 57q3 17 14.5 28t26.5 11h473q14 0 23 -11t6 -28l-8 -57q-1 -15 -13.5 -26t-27.5 -11h-471q-15 0 -24 11t-7 26z" />
<glyph unicode="&#xb0;" horiz-adv-x="608" d="M135 1141q0 130 84 221.5t205 91.5q89 0 152 -70t63 -170q0 -130 -84.5 -221.5t-204.5 -91.5q-89 0 -152 70t-63 170zM285 1157q0 -47 23.5 -78.5t60.5 -31.5q48 0 84 44t36 105q0 45 -23 77t-60 32q-48 0 -84.5 -44t-36.5 -104z" />
<glyph unicode="&#xb1;" horiz-adv-x="1089" d="M98 145l11 86q1 15 14 27t27 12h718q13 0 21 -12t6 -27l-12 -86q-2 -15 -13 -27t-24 -12h-719q-13 0 -22 12t-7 27zM188 803l13 86q1 15 14 27t27 12h270l43 303q1 15 13 26t26 11h104q13 0 22 -11t7 -26l-43 -303h274q13 0 22 -12t7 -27l-12 -86q-1 -15 -13 -27t-26 -12 h-274l-31 -225q-1 -15 -14 -26t-27 -11h-103q-14 0 -22.5 11t-7.5 26l32 225h-270q-13 0 -23 12t-8 27z" />
<glyph unicode="&#xb2;" horiz-adv-x="550" d="M150 1051l4 30l247 267q68 68 68 118q0 30 -19.5 52t-54.5 22q-49 0 -96 -51q-15 -15 -27 2l-36 61q-9 18 10 37q9 9 27 22.5t61.5 30.5t87.5 17q80 0 132 -47t52 -113q0 -55 -25.5 -103.5t-76.5 -103.5l-133 -149h168q17 0 14 -21l-10 -71q-4 -19 -19 -19h-358 q-19 0 -16 19z" />
<glyph unicode="&#xb3;" horiz-adv-x="532" d="M154 1087q-12 15 2 29l39 49q14 14 28 0q41 -41 101 -41q41 0 69.5 24.5t28.5 63.5q0 31 -23.5 52.5t-66.5 21.5h-53q-26 0 -23 23l6 57q3 25 31 25h55q45 0 74 24.5t29 61.5q0 30 -21 48.5t-51 18.5q-37 0 -88 -41q-16 -12 -27 2l-39 58q-13 17 6 30q2 1 13.5 10 t20 14.5t24.5 14t30.5 14t35.5 9.5t42 4q83 0 137 -44t54 -112q0 -58 -35.5 -98t-81.5 -59v-5q33 -15 61.5 -51t28.5 -84q0 -88 -66 -141t-173 -53q-101 0 -168 75z" />
<glyph unicode="&#xb4;" horiz-adv-x="557" d="M137 1188q-9 24 17 39l319 186q8 8 26 6t25 -20l35 -90q14 -35 -18 -49l-336 -148q-37 -16 -45 12z" />
<glyph unicode="&#xb5;" horiz-adv-x="980" d="M-25 -575l185 1355q3 15 15.5 27t25.5 12h125q13 0 22.5 -12t7.5 -27l-59 -418q-13 -99 18 -152.5t99 -53.5q61 0 118.5 50t67.5 79l68 495q3 24 13.5 31.5t33.5 7.5h112q13 0 23 -12t8 -27l-104 -741q-2 -15 -14 -27t-27 -12h-60q-21 0 -28 33l-13 59 q-112 -112 -260 -112q-58 0 -108 16l-78 -571q-1 -15 -14 -27t-27 -12h-121q-14 0 -23 12t-6 27z" />
<glyph unicode="&#xb6;" horiz-adv-x="1302" d="M102 948q0 127 59.5 240t157.5 179.5t207 66.5h834q13 0 22 -12t7 -27l-11 -68q-1 -17 -13 -28t-26 -11h-159l-262 -1863q-3 -16 -14.5 -27.5t-26.5 -11.5h-84q-14 0 -23 12t-6 27l262 1861h-262l-262 -1861q-1 -15 -14 -27t-27 -12h-82q-13 0 -22 12t-7 27l162 1150h-80 q-140 0 -235 108t-95 265z" />
<glyph unicode="&#xb7;" horiz-adv-x="481" d="M100 512q0 69 51.5 119.5t118.5 50.5q56 0 92.5 -38.5t36.5 -96.5q0 -67 -52 -117.5t-120 -50.5q-55 0 -91 39t-36 94z" />
<glyph unicode="&#xb8;" horiz-adv-x="456" d="M55 -461q-19 28 4 51l33 31q20 19 41 -2q29 -29 64 -29q34 0 59 30t25 71q0 84 -125 100q-18 4 -23.5 16t-3.5 23l25 170h114l-14 -113q73 -16 114.5 -63.5t41.5 -124.5q0 -95 -61.5 -163t-158.5 -68q-39 0 -77.5 20.5t-57.5 50.5z" />
<glyph unicode="&#xb9;" horiz-adv-x="385" d="M182 1460v56q0 13 15 22l149 100h84q6 0 10.5 -5.5t3.5 -12.5l-82 -569q0 -8 -5.5 -13.5t-12.5 -5.5h-100q-9 0 -14 5.5t-3 13.5l58 411l-88 -14q-15 -3 -15 12z" />
<glyph unicode="&#xba;" horiz-adv-x="600" d="M137 1057q0 181 75.5 288t209.5 107q89 0 141.5 -67.5t52.5 -182.5q0 -182 -75 -288.5t-209 -106.5q-93 0 -144 66.5t-51 183.5zM281 1063q0 -61 17.5 -96t49.5 -35q57 0 92 70.5t35 187.5q0 64 -18.5 100.5t-53.5 36.5q-56 0 -89 -73.5t-33 -190.5z" />
<glyph unicode="&#xbb;" horiz-adv-x="864" d="M21.5 82.5q-4.5 19.5 9.5 44.5l174 301l-74 285q-6 26 3.5 43.5t33.5 17.5h84q16 0 24 -16l148 -318q12 -24 -6 -49l-238 -303q-20 -25 -41 -25h-90q-23 0 -27.5 19.5zM369.5 82.5q-4.5 19.5 9.5 44.5l174 301l-74 285q-6 26 3.5 43.5t33.5 17.5h84q17 0 25 -16l147 -318 q12 -24 -6 -49l-238 -303q-20 -25 -41 -25h-90q-23 0 -27.5 19.5z" />
<glyph unicode="&#xbc;" horiz-adv-x="1275" d="M99.5 17.5q-7.5 17.5 4.5 37.5l824 1358q14 21 33 21h83q20 0 27.5 -18t-4.5 -38l-827 -1358q-3 -7 -13 -13.5t-20 -6.5h-80q-20 0 -27.5 17.5zM164 1255v56q0 14 14 22l150 101h84q6 0 10.5 -6t3.5 -13l-82 -569q0 -8 -5.5 -13.5t-12.5 -5.5h-101q-9 0 -13.5 5.5 t-2.5 13.5l57 411l-88 -14q-14 -3 -14 12zM627 135l12 82l358 383q6 6 15 6h65q6 0 11.5 -5.5t5.5 -12.5l-52 -365h72q7 0 11.5 -5t2.5 -11l-10 -70q-4 -18 -18 -18h-74l-12 -101q-4 -18 -23 -18h-90q-6 0 -11 5.5t-5 12.5l14 101h-258q-6 0 -10.5 5t-3.5 11zM780 223h138 l28 191z" />
<glyph unicode="&#xbd;" horiz-adv-x="1232" d="M99.5 17.5q-7.5 17.5 4.5 37.5l824 1358q14 21 33 21h83q20 0 27.5 -18t-4.5 -38l-827 -1358q-3 -7 -13 -13.5t-20 -6.5h-80q-20 0 -27.5 17.5zM164 1255v56q0 14 14 22l150 101h84q6 0 10.5 -6t3.5 -13l-82 -569q0 -8 -5.5 -13.5t-12.5 -5.5h-101q-9 0 -13.5 5.5 t-2.5 13.5l57 411l-88 -14q-14 -3 -14 12zM641 18l4 31l248 266q68 68 68 119q0 30 -19.5 52t-54.5 22q-49 0 -96 -51q-15 -15 -27 2l-37 61q-9 18 10 37q9 9 27 22.5t61.5 30.5t87.5 17q80 0 132.5 -47t52.5 -113q0 -55 -25.5 -103t-77.5 -104l-133 -149h168q18 0 14 -21 l-10 -72q-4 -18 -18 -18h-359q-19 0 -16 18z" />
<glyph unicode="&#xbe;" horiz-adv-x="1378" d="M121 883q-12 14 2 28l39 50q14 14 28 0q41 -41 101 -41q41 0 69.5 24.5t28.5 63.5q0 31 -23 52t-67 21h-53q-26 0 -23 23l6 57q3 25 31 25h55q45 0 74 24.5t29 61.5q0 30 -21 48.5t-51 18.5q-37 0 -88 -41q-16 -12 -27 2l-38 58q-5 6 -3.5 15.5t9.5 15.5q2 1 14 10 t19.5 14t24 14t31 14t35.5 9t42 4q83 0 136.5 -44t53.5 -112q0 -58 -35.5 -98t-81.5 -59v-4q33 -15 61.5 -51t28.5 -85q0 -88 -66 -141t-173 -53q-100 0 -168 76zM202 17.5q-7 17.5 5 37.5l823 1358q14 21 33 21h84q20 0 27 -18t-5 -38l-827 -1358q-3 -7 -13 -13.5t-20 -6.5 h-80q-20 0 -27 17.5zM729 135l12 82l359 383q6 6 14 6h66q6 0 11 -5.5t5 -12.5l-51 -365h72q7 0 11.5 -5t2.5 -11l-10 -70q-4 -18 -19 -18h-74l-12 -101q-4 -18 -22 -18h-90q-6 0 -11.5 5.5t-5.5 12.5l14 101h-258q-6 0 -10.5 5t-3.5 11zM883 223h137l29 191z" />
<glyph unicode="&#xbf;" horiz-adv-x="516" d="M-233 -342q0 52 15 99t34 78.5t54.5 66t59 52.5t64.5 46q59 39 88 71.5t35 73.5l10 76q6 41 43 41h123q14 0 22 -11t7 -28l-11 -86q-6 -48 -25.5 -88t-53 -75t-61.5 -57.5t-75 -55.5q-66 -46 -98.5 -87t-32.5 -100q0 -55 38 -91t91 -36q69 0 134 44.5t110 95.5 q11 13 24.5 12t24.5 -12l70 -66q29 -26 2 -57q-138 -166 -323 -194q-33 -5 -66 -5q-129 0 -216 86.5t-87 206.5zM154 680q0 65 47.5 112.5t111.5 47.5q52 0 85.5 -36t33.5 -89q0 -65 -48 -112.5t-110 -47.5q-53 0 -86.5 36t-33.5 89z" />
<glyph unicode="&#xc0;" horiz-adv-x="1234" d="M-63 16.5q-7 16.5 4 36.5l761 1379q11 22 35 22h19q21 0 28 -22l371 -1379q5 -20 -7 -36.5t-32 -16.5h-123q-36 0 -43 31l-73 284h-564l-157 -284q-18 -31 -52 -31h-139q-21 0 -28 16.5zM399 487h430l-133 564h-8zM602 1788l53 84q18 27 50 6l268 -186q8 -5 10.5 -16 t-4.5 -23l-31 -54q-15 -24 -47 -8l-287 144q-34 16 -12 53z" />
<glyph unicode="&#xc1;" horiz-adv-x="1234" d="M-63 16.5q-7 16.5 4 36.5l761 1379q11 22 35 22h19q21 0 28 -22l371 -1379q5 -20 -7 -36.5t-32 -16.5h-123q-36 0 -43 31l-73 284h-564l-157 -284q-18 -31 -52 -31h-139q-21 0 -28 16.5zM399 487h430l-133 564h-8zM578 1659q-9 25 16 39l319 186q8 8 26.5 6t25.5 -20 l34 -90q14 -35 -18 -49l-336 -148q-37 -16 -45 12z" />
<glyph unicode="&#xc2;" horiz-adv-x="1234" d="M-63 16.5q-7 16.5 4 36.5l761 1379q11 22 35 22h19q21 0 28 -22l371 -1379q5 -20 -7 -36.5t-32 -16.5h-123q-36 0 -43 31l-73 284h-564l-157 -284q-18 -31 -52 -31h-139q-21 0 -28 16.5zM399 487h430l-133 564h-8zM508 1632q-18 30 10 49l258 201q24 17 45 0l201 -201 q21 -21 4 -43l-37 -45q-12 -13 -20.5 -14.5t-26.5 10.5l-158 123l-202 -131q-20 -11 -27 -8.5t-18 18.5z" />
<glyph unicode="&#xc3;" horiz-adv-x="1234" d="M-63 16.5q-7 16.5 4 36.5l761 1379q11 22 35 22h19q21 0 28 -22l371 -1379q5 -20 -7 -36.5t-32 -16.5h-123q-36 0 -43 31l-73 284h-564l-157 -284q-18 -31 -52 -31h-139q-21 0 -28 16.5zM399 487h430l-133 564h-8zM502 1698q8 19 23 43t40.5 55.5t61.5 52.5t75 21 q36 0 65 -20.5t44 -45t33.5 -45t36.5 -20.5q20 0 38.5 16t26 28t21.5 38q9 17 23.5 22t27.5 -4l39 -29q30 -22 4 -65q-86 -154 -191 -154q-31 0 -60 21t-46 45.5t-37 45.5t-35 21q-20 0 -39 -18t-25.5 -30l-19.5 -36q-10 -19 -18.5 -24t-26.5 4l-53 31q-21 16 -8 47z" />
<glyph unicode="&#xc4;" horiz-adv-x="1234" d="M-63 16.5q-7 16.5 4 36.5l761 1379q11 22 35 22h19q21 0 28 -22l371 -1379q5 -20 -7 -36.5t-32 -16.5h-123q-36 0 -43 31l-73 284h-564l-157 -284q-18 -31 -52 -31h-139q-21 0 -28 16.5zM399 487h430l-133 564h-8zM455 1704q0 53 38.5 91t88.5 38q41 0 69.5 -29.5 t28.5 -70.5q0 -53 -40 -92t-91 -39q-41 0 -67.5 30t-26.5 72zM891 1704q0 53 38.5 91t88.5 38q41 0 69.5 -29.5t28.5 -70.5q0 -53 -40 -92t-91 -39q-41 0 -67.5 30t-26.5 72z" />
<glyph unicode="&#xc5;" horiz-adv-x="1234" d="M-63 16.5q-7 16.5 4 36.5l761 1379q11 22 35 22h19q21 0 28 -22l371 -1379q5 -20 -7 -36.5t-32 -16.5h-123q-36 0 -43 31l-73 284h-564l-157 -284q-18 -31 -52 -31h-139q-21 0 -28 16.5zM399 487h430l-133 564h-8zM586 1745q0 108 69 183t170 75q73 0 126 -58t53 -139 q0 -107 -70.5 -182.5t-171.5 -75.5q-73 0 -124.5 57.5t-51.5 139.5zM696 1761q0 -39 24 -69.5t58 -30.5q41 0 75 40t34 89q0 39 -22 66.5t-56 27.5q-43 0 -78 -36.5t-35 -86.5z" />
<glyph unicode="&#xc6;" horiz-adv-x="1683" d="M-89 16.5q-5 16.5 9 36.5l926 1317q24 34 43.5 49t46.5 15h721q13 0 22 -12t7 -27l-17 -115q-2 -15 -14 -27t-27 -12h-571l-60 -418h484q13 0 21.5 -12t6.5 -27l-16 -114q-3 -17 -15 -28t-26 -11h-481l-62 -441h572q15 0 23.5 -11.5t6.5 -26.5l-16 -113q-2 -15 -14 -27 t-27 -12h-743q-15 0 -24 12t-7 27l39 272h-387l-193 -284q-19 -27 -45 -27h-157q-21 0 -26 16.5zM459 487h284l82 564z" />
<glyph unicode="&#xc7;" horiz-adv-x="1310" d="M117 635q0 170 61.5 322.5t166 261t248 172t300.5 63.5q134 0 234 -47.5t186 -142.5q10 -12 8 -29t-14 -29l-84 -76q-31 -30 -64 3q-48 52 -123 85t-155 33q-102 0 -200.5 -51t-171 -135t-117 -197.5t-44.5 -232.5q0 -189 100 -313.5t265 -124.5q93 0 166 34.5t153 98.5 q34 28 58 -2l81 -95q9 -11 6 -27.5t-14 -27.5q-104 -98 -222.5 -147t-235.5 -51l-11 -93q73 -16 114.5 -63.5t41.5 -124.5q0 -95 -61 -163t-158 -68q-39 0 -77.5 20.5t-57.5 50.5q-19 28 4 51l32 31q20 19 41 -2q29 -29 64 -29q34 0 59 30t25 71q0 84 -125 100 q-18 4 -23.5 16t-3.5 23l23 160q-216 38 -345.5 216t-129.5 429z" />
<glyph unicode="&#xc8;" horiz-adv-x="1118" d="M119 39l190 1356q1 15 13 27t26 12h744q14 0 22 -11.5t6 -27.5l-16 -115q-2 -15 -13 -27t-26 -12h-567l-60 -418h477q13 0 22 -12t7 -27l-16 -114q-3 -17 -14 -28t-25 -11h-477l-62 -441h568q13 0 21.5 -11.5t6.5 -26.5l-16 -113q-2 -15 -14 -27t-27 -12h-742 q-15 0 -23 12t-5 27zM588 1788l53 84q18 27 49 6l268 -186q8 -5 11 -16t-4 -23l-31 -54q-15 -24 -47 -8l-287 144q-34 16 -12 53z" />
<glyph unicode="&#xc9;" horiz-adv-x="1118" d="M119 39l190 1356q1 15 13 27t26 12h744q14 0 22 -11.5t6 -27.5l-16 -115q-2 -15 -13 -27t-26 -12h-567l-60 -418h477q13 0 22 -12t7 -27l-16 -114q-3 -17 -14 -28t-25 -11h-477l-62 -441h568q13 0 21.5 -11.5t6.5 -26.5l-16 -113q-2 -15 -14 -27t-27 -12h-742 q-15 0 -23 12t-5 27zM563 1659q-9 24 17 39l319 186q8 8 26 6t25 -20l35 -90q14 -35 -18 -49l-336 -148q-37 -16 -45 12z" />
<glyph unicode="&#xca;" horiz-adv-x="1118" d="M119 39l190 1356q1 15 13 27t26 12h744q14 0 22 -11.5t6 -27.5l-16 -115q-2 -15 -13 -27t-26 -12h-567l-60 -418h477q13 0 22 -12t7 -27l-16 -114q-3 -17 -14 -28t-25 -11h-477l-62 -441h568q13 0 21.5 -11.5t6.5 -26.5l-16 -113q-2 -15 -14 -27t-27 -12h-742 q-15 0 -23 12t-5 27zM498 1632q-18 30 10 49l258 201q24 17 45 0l201 -201q21 -21 4 -43l-37 -45q-12 -13 -20.5 -14.5t-26.5 10.5l-158 123l-203 -131q-20 -11 -27 -8.5t-18 18.5z" />
<glyph unicode="&#xcb;" horiz-adv-x="1118" d="M119 39l190 1356q1 15 13 27t26 12h744q14 0 22 -11.5t6 -27.5l-16 -115q-2 -15 -13 -27t-26 -12h-567l-60 -418h477q13 0 22 -12t7 -27l-16 -114q-3 -17 -14 -28t-25 -11h-477l-62 -441h568q13 0 21.5 -11.5t6.5 -26.5l-16 -113q-2 -15 -14 -27t-27 -12h-742 q-15 0 -23 12t-5 27zM434 1704q0 53 38.5 91t88.5 38q41 0 69.5 -29.5t28.5 -70.5q0 -53 -40 -92t-91 -39q-41 0 -67.5 30t-26.5 72zM870 1704q0 53 38.5 91t88.5 38q41 0 70 -29.5t29 -70.5q0 -53 -40 -92t-91 -39q-41 0 -68 30t-27 72z" />
<glyph unicode="&#xcc;" horiz-adv-x="598" d="M119 39l190 1356q1 15 13 27t26 12h144q14 0 22.5 -12t5.5 -27l-190 -1356q-2 -15 -14 -27t-25 -12h-144q-14 0 -22.5 12t-5.5 27zM272 1788l54 84q18 27 49 6l268 -186q8 -5 10.5 -16t-4.5 -23l-31 -54q-15 -24 -47 -8l-286 144q-35 17 -13 53z" />
<glyph unicode="&#xcd;" horiz-adv-x="598" d="M119 39l190 1356q1 15 13 27t26 12h144q14 0 22.5 -12t5.5 -27l-190 -1356q-2 -15 -14 -27t-25 -12h-144q-14 0 -22.5 12t-5.5 27zM248 1659q-9 25 16 39l320 186q8 8 26 6t25 -20l35 -90q14 -35 -19 -49l-336 -148q-37 -16 -45 12z" />
<glyph unicode="&#xce;" horiz-adv-x="598" d="M119 39l190 1356q1 15 13 27t26 12h144q14 0 22.5 -12t5.5 -27l-190 -1356q-2 -15 -14 -27t-25 -12h-144q-14 0 -22.5 12t-5.5 27zM182 1632q-18 30 11 49l258 201q24 17 45 0l200 -201q21 -21 4 -43l-36 -45q-12 -13 -21 -14.5t-27 10.5l-157 123l-203 -131 q-20 -11 -27 -8.5t-18 18.5z" />
<glyph unicode="&#xcf;" horiz-adv-x="598" d="M119 39l190 1356q1 15 13 27t26 12h144q14 0 22.5 -12t5.5 -27l-190 -1356q-2 -15 -14 -27t-25 -12h-144q-14 0 -22.5 12t-5.5 27zM125 1704q0 53 38.5 91t88.5 38q41 0 69.5 -29.5t28.5 -70.5q0 -53 -40 -92t-91 -39q-41 0 -67.5 30t-26.5 72zM561 1704q0 53 38.5 91 t88.5 38q41 0 69.5 -29.5t28.5 -70.5q0 -53 -40 -92t-91 -39q-41 0 -67.5 30t-26.5 72z" />
<glyph unicode="&#xd0;" horiz-adv-x="1413" d="M127 39l86 620h-53q-13 0 -21.5 12t-5.5 27l4 21q3 16 13.5 27.5t23.5 11.5h53l90 637q1 15 13 27t26 12h428q157 0 285.5 -87t199 -229.5t70.5 -306.5q0 -219 -100 -405.5t-274 -296t-381 -109.5h-430q-13 0 -21.5 12t-5.5 27zM356 195h230q142 0 262.5 78.5t192 218.5 t71.5 309q0 190 -104.5 314t-274.5 124h-229l-68 -481h328q15 0 24.5 -12t6.5 -27l-4 -23q-3 -15 -14.5 -26t-26.5 -11h-328z" />
<glyph unicode="&#xd1;" horiz-adv-x="1468" d="M119 39l194 1378q1 15 14 26t27 11h52l641 -1022h4l129 963q2 15 13 27t26 12h141q13 0 23 -12t8 -27l-195 -1379q-1 -15 -14 -25.5t-27 -10.5h-57l-641 1038h-2l-127 -979q-2 -15 -14 -27t-27 -12h-137q-13 0 -23 12t-8 27zM598 1698q8 19 23.5 43.5t40.5 55.5t61.5 52 t75.5 21q36 0 64.5 -20.5t43.5 -45t33.5 -45t36.5 -20.5q20 0 38.5 16t26 28t21.5 38q9 17 23.5 22t27.5 -4l39 -29q30 -22 4 -65q-86 -154 -190 -154q-31 0 -60 21t-46.5 45.5t-37.5 45.5t-35 21q-6 0 -12.5 -2t-11.5 -4t-10.5 -7t-9 -8.5t-9 -10.5t-7.5 -10.5t-7 -12 t-6 -10.5t-5 -11l-5 -8q-10 -19 -19 -24t-27 4l-53 31q-21 16 -8 47z" />
<glyph unicode="&#xd2;" horiz-adv-x="1529" d="M115 614q0 174 60.5 330t164 267.5t246 177t301.5 65.5q162 0 293.5 -88.5t203.5 -235t72 -317.5q0 -173 -61 -328t-164.5 -265.5t-246 -175t-300.5 -64.5q-122 0 -229 51.5t-181 138t-116.5 202.5t-42.5 242zM330 641q0 -124 48 -228.5t136 -166.5t197 -62q101 0 198 48 t170 128.5t117.5 192.5t44.5 233q0 126 -47.5 231.5t-135.5 168.5t-198 63q-100 0 -197 -49t-170 -130.5t-118 -194.5t-45 -234zM737 1788l54 84q18 27 49 6l268 -186q8 -5 10.5 -16t-4.5 -23l-31 -54q-15 -24 -47 -8l-286 144q-35 17 -13 53z" />
<glyph unicode="&#xd3;" horiz-adv-x="1529" d="M115 614q0 174 60.5 330t164 267.5t246 177t301.5 65.5q162 0 293.5 -88.5t203.5 -235t72 -317.5q0 -173 -61 -328t-164.5 -265.5t-246 -175t-300.5 -64.5q-122 0 -229 51.5t-181 138t-116.5 202.5t-42.5 242zM330 641q0 -124 48 -228.5t136 -166.5t197 -62q101 0 198 48 t170 128.5t117.5 192.5t44.5 233q0 126 -47.5 231.5t-135.5 168.5t-198 63q-100 0 -197 -49t-170 -130.5t-118 -194.5t-45 -234zM713 1659q-9 25 16 39l320 186q8 8 26 6t25 -20l35 -90q14 -35 -19 -49l-336 -148q-37 -16 -45 12z" />
<glyph unicode="&#xd4;" horiz-adv-x="1529" d="M115 614q0 174 60.5 330t164 267.5t246 177t301.5 65.5q162 0 293.5 -88.5t203.5 -235t72 -317.5q0 -173 -61 -328t-164.5 -265.5t-246 -175t-300.5 -64.5q-122 0 -229 51.5t-181 138t-116.5 202.5t-42.5 242zM330 641q0 -124 48 -228.5t136 -166.5t197 -62q101 0 198 48 t170 128.5t117.5 192.5t44.5 233q0 126 -47.5 231.5t-135.5 168.5t-198 63q-100 0 -197 -49t-170 -130.5t-118 -194.5t-45 -234zM645 1632q-18 30 10 49l258 201q24 17 45 0l201 -201q21 -21 4 -43l-37 -45q-12 -13 -20.5 -14.5t-26.5 10.5l-157 123l-203 -131 q-20 -11 -27 -8.5t-18 18.5z" />
<glyph unicode="&#xd5;" horiz-adv-x="1529" d="M115 614q0 174 60.5 330t164 267.5t246 177t301.5 65.5q162 0 293.5 -88.5t203.5 -235t72 -317.5q0 -173 -61 -328t-164.5 -265.5t-246 -175t-300.5 -64.5q-122 0 -229 51.5t-181 138t-116.5 202.5t-42.5 242zM330 641q0 -124 48 -228.5t136 -166.5t197 -62q101 0 198 48 t170 128.5t117.5 192.5t44.5 233q0 126 -47.5 231.5t-135.5 168.5t-198 63q-100 0 -197 -49t-170 -130.5t-118 -194.5t-45 -234zM639 1698q8 19 23.5 43.5t40.5 55.5t61.5 52t75.5 21q36 0 64.5 -20.5t43.5 -45t33.5 -45t36.5 -20.5q20 0 38.5 16t26 28t21.5 38 q9 17 23.5 22t27.5 -4l39 -29q30 -22 4 -65q-86 -154 -190 -154q-31 0 -60 21t-46.5 45.5t-37.5 45.5t-35 21q-20 0 -39 -18t-25.5 -30l-19.5 -36q-10 -19 -18.5 -24t-26.5 4l-53 31q-21 16 -8 47z" />
<glyph unicode="&#xd6;" horiz-adv-x="1529" d="M115 614q0 174 60.5 330t164 267.5t246 177t301.5 65.5q162 0 293.5 -88.5t203.5 -235t72 -317.5q0 -173 -61 -328t-164.5 -265.5t-246 -175t-300.5 -64.5q-122 0 -229 51.5t-181 138t-116.5 202.5t-42.5 242zM330 641q0 -124 48 -228.5t136 -166.5t197 -62q101 0 198 48 t170 128.5t117.5 192.5t44.5 233q0 126 -47.5 231.5t-135.5 168.5t-198 63q-100 0 -197 -49t-170 -130.5t-118 -194.5t-45 -234zM594 1704q0 53 38.5 91t88.5 38q41 0 69.5 -29.5t28.5 -70.5q0 -53 -40 -92t-91 -39q-41 0 -67.5 30t-26.5 72zM1030 1704q0 53 38.5 91 t88.5 38q41 0 69.5 -29.5t28.5 -70.5q0 -53 -40 -92t-91 -39q-41 0 -67.5 30t-26.5 72z" />
<glyph unicode="&#xd7;" horiz-adv-x="907" d="M115 464q3 17 14 28l233 225l-163 219q-7 11 -5 27.5t13 27.5l61 53q12 10 27 10t24 -10l164 -219l232 230q11 10 24 9t23 -11l61 -70q9 -9 7 -25.5t-13 -27.5l-235 -232l166 -215q9 -11 6 -28.5t-15 -26.5l-63 -51q-12 -11 -26.5 -11.5t-22.5 9.5l-166 217l-232 -223 q-11 -10 -24.5 -9.5t-22.5 9.5l-61 69q-9 9 -6 26z" />
<glyph unicode="&#xd8;" horiz-adv-x="1529" d="M67.5 71.5q1.5 16.5 12.5 26.5l143 138q-108 164 -108 378q0 174 60.5 330t164 267.5t246 177t301.5 65.5q121 0 225.5 -50t181.5 -140l148 139q12 11 26 11t23 -11l12 -14q7 -11 5 -27t-13 -27l-147 -141q108 -168 108 -381q0 -173 -61 -328t-164.5 -265.5t-246 -175 t-300.5 -64.5q-122 0 -226.5 49t-181.5 137l-141 -137q-12 -10 -26 -9.5t-23 11.5l-12 14q-8 10 -6.5 26.5zM330 641q0 -137 57 -248l750 717q-110 139 -277 139q-100 0 -197 -49t-170 -130.5t-118 -194.5t-45 -234zM436 317q110 -133 275 -133q101 0 198 48t170 128.5 t117.5 192.5t44.5 233q0 136 -57 250z" />
<glyph unicode="&#xd9;" horiz-adv-x="1370" d="M174 535l121 860q3 15 15.5 27t25.5 12h147q15 0 23.5 -12t5.5 -27l-119 -846q-22 -157 43 -260t195 -103q131 0 225.5 102t116.5 257l121 850q2 15 14 27t25 12h147q14 0 23 -12t6 -27l-121 -860q-22 -156 -99.5 -281.5t-204.5 -199.5t-282 -74q-100 0 -186.5 43.5 t-145 117t-85.5 177t-11 217.5zM662 1788l53 84q18 27 49 6l268 -186q8 -5 10.5 -16t-4.5 -23l-30 -54q-15 -24 -47 -8l-287 144q-34 16 -12 53z" />
<glyph unicode="&#xda;" horiz-adv-x="1370" d="M174 535l121 860q3 15 15.5 27t25.5 12h147q15 0 23.5 -12t5.5 -27l-119 -846q-22 -157 43 -260t195 -103q131 0 225.5 102t116.5 257l121 850q2 15 14 27t25 12h147q14 0 23 -12t6 -27l-121 -860q-22 -156 -99.5 -281.5t-204.5 -199.5t-282 -74q-100 0 -186.5 43.5 t-145 117t-85.5 177t-11 217.5zM637 1659q-9 25 16 39l320 186q8 8 26 6t25 -20l35 -90q14 -35 -19 -49l-335 -148q-38 -16 -46 12z" />
<glyph unicode="&#xdb;" horiz-adv-x="1370" d="M174 535l121 860q3 15 15.5 27t25.5 12h147q15 0 23.5 -12t5.5 -27l-119 -846q-22 -157 43 -260t195 -103q131 0 225.5 102t116.5 257l121 850q2 15 14 27t25 12h147q14 0 23 -12t6 -27l-121 -860q-22 -156 -99.5 -281.5t-204.5 -199.5t-282 -74q-100 0 -186.5 43.5 t-145 117t-85.5 177t-11 217.5zM567 1632q-18 30 11 49l258 201q24 17 45 0l200 -201q21 -21 4 -43l-36 -45q-12 -13 -21 -14.5t-27 10.5l-157 123l-203 -131q-20 -11 -27 -8.5t-18 18.5z" />
<glyph unicode="&#xdc;" horiz-adv-x="1370" d="M174 535l121 860q3 15 15.5 27t25.5 12h147q15 0 23.5 -12t5.5 -27l-119 -846q-22 -157 43 -260t195 -103q131 0 225.5 102t116.5 257l121 850q2 15 14 27t25 12h147q14 0 23 -12t6 -27l-121 -860q-22 -156 -99.5 -281.5t-204.5 -199.5t-282 -74q-100 0 -186.5 43.5 t-145 117t-85.5 177t-11 217.5zM518 1704q0 53 38.5 91t88.5 38q41 0 69.5 -29.5t28.5 -70.5q0 -53 -40 -92t-91 -39q-41 0 -67.5 30t-26.5 72zM954 1704q0 53 38.5 91t88.5 38q41 0 70 -29.5t29 -70.5q0 -53 -40 -92t-91 -39q-41 0 -68 30t-27 72z" />
<glyph unicode="&#xdd;" horiz-adv-x="1075" d="M111 1380q-8 21 2.5 37.5t31.5 16.5h146q25 0 35 -23l239 -520h4l394 520q19 23 41 23h161q23 0 28 -17t-9 -37l-529 -688l-92 -653q-1 -15 -14 -27t-27 -12h-141q-15 0 -24 12t-7 27l92 651zM473 1659q-9 25 16 39l320 186q8 8 26 6t25 -20l35 -90q14 -35 -18 -49 l-336 -148q-37 -16 -45 12z" />
<glyph unicode="&#xde;" horiz-adv-x="1128" d="M119 39l190 1356q3 16 15 27.5t26 11.5h142q13 0 22.5 -12t7.5 -27l-33 -221h250q146 1 250.5 -116t104.5 -280q0 -105 -37 -200t-101 -165t-153.5 -111.5t-190.5 -41.5h-250l-30 -221q-3 -15 -15.5 -27t-25.5 -12h-141q-15 0 -24 12t-7 27zM391 461h238q99 0 176.5 88.5 t77.5 210.5q0 89 -52.5 150t-130.5 61h-237z" />
<glyph unicode="&#xdf;" horiz-adv-x="991" d="M-29 -575l199 1417q43 308 165.5 460t332.5 152q115 0 196.5 -69t81.5 -195q0 -70 -22.5 -135.5t-54 -112.5t-63.5 -87.5t-54.5 -77t-22.5 -64.5q0 -19 24 -57.5t53 -79t53 -103.5t24 -125q0 -162 -97 -265t-280 -103h-11q-24 0 -36 0.5t-28 3.5t-23 10.5t-7 19.5 q0 9 2 15l15 94q5 35 35 33q46 -4 75 -4q65 0 109.5 51.5t44.5 136.5q0 48 -25.5 98t-56.5 86t-56.5 81.5t-25.5 84.5q0 40 23 89.5t56 96t66.5 93.5t56.5 97t23 91q0 57 -31.5 90t-82.5 33q-201 0 -262 -440l-199 -1415q-1 -15 -14 -27t-27 -12h-127q-14 0 -22.5 11.5 t-6.5 27.5z" />
<glyph unicode="&#xe0;" d="M49 354q0 126 55.5 238.5t151 180t205.5 67.5q56 0 107.5 -23t74 -42t35.5 -36l27 52q14 28 38 28h62q13 0 22 -12t7 -27l-97 -741q-1 -15 -14 -27t-27 -12h-67q-24 0 -27 29l-6 61q-16 -16 -41.5 -36t-87.5 -47t-123 -27q-127 0 -211 108.5t-84 265.5zM244 356 q0 -89 40.5 -144.5t112.5 -55.5q35 0 70 17t58.5 41t37.5 42t19 27l34 286q-2 4 -6.5 10t-20 22t-33 28.5t-45.5 22.5t-58 10q-96 0 -152.5 -87.5t-56.5 -218.5zM365 1315l53 84q18 27 49 6l268 -186q8 -5 10.5 -16t-4.5 -23l-30 -54q-15 -24 -47 -8l-287 144q-34 16 -12 53 z" />
<glyph unicode="&#xe1;" d="M49 354q0 126 55.5 238.5t151 180t205.5 67.5q56 0 107.5 -23t74 -42t35.5 -36l27 52q14 28 38 28h62q13 0 22 -12t7 -27l-97 -741q-1 -15 -14 -27t-27 -12h-67q-24 0 -27 29l-6 61q-16 -16 -41.5 -36t-87.5 -47t-123 -27q-127 0 -211 108.5t-84 265.5zM244 356 q0 -89 40.5 -144.5t112.5 -55.5q35 0 70 17t58.5 41t37.5 42t19 27l34 286q-2 4 -6.5 10t-20 22t-33 28.5t-45.5 22.5t-58 10q-96 0 -152.5 -87.5t-56.5 -218.5zM328 1188q-9 25 16 39l320 186q8 8 26 6t25 -20l35 -90q14 -35 -19 -49l-336 -148q-37 -16 -45 12z" />
<glyph unicode="&#xe2;" d="M49 354q0 126 55.5 238.5t151 180t205.5 67.5q56 0 107.5 -23t74 -42t35.5 -36l27 52q14 28 38 28h62q13 0 22 -12t7 -27l-97 -741q-1 -15 -14 -27t-27 -12h-67q-24 0 -27 29l-6 61q-16 -16 -41.5 -36t-87.5 -47t-123 -27q-127 0 -211 108.5t-84 265.5zM244 356 q0 -89 40.5 -144.5t112.5 -55.5q35 0 70 17t58.5 41t37.5 42t19 27l34 286q-2 4 -6.5 10t-20 22t-33 28.5t-45.5 22.5t-58 10q-96 0 -152.5 -87.5t-56.5 -218.5zM260 1155q-18 30 10 49l258 201q24 17 45 0l201 -201q21 -21 4 -43l-37 -45q-12 -13 -20.5 -14.5t-26.5 10.5 l-157 123l-203 -131q-20 -11 -27 -8.5t-18 18.5z" />
<glyph unicode="&#xe3;" d="M49 354q0 126 55.5 238.5t151 180t205.5 67.5q56 0 107.5 -23t74 -42t35.5 -36l27 52q14 28 38 28h62q13 0 22 -12t7 -27l-97 -741q-1 -15 -14 -27t-27 -12h-67q-24 0 -27 29l-6 61q-16 -16 -41.5 -36t-87.5 -47t-123 -27q-127 0 -211 108.5t-84 265.5zM244 356 q0 -89 40.5 -144.5t112.5 -55.5q35 0 70 17t58.5 41t37.5 42t19 27l34 286q-2 4 -6.5 10t-20 22t-33 28.5t-45.5 22.5t-58 10q-96 0 -152.5 -87.5t-56.5 -218.5zM256 1241q8 19 23.5 43.5t40.5 55.5t61.5 52t75.5 21q36 0 64.5 -20.5t43.5 -45t33.5 -45t36.5 -20.5 q20 0 38.5 16t26 28t21.5 38q9 17 23.5 22t27.5 -4l39 -28q30 -23 4 -66q-85 -153 -190 -153q-31 0 -60 21t-46.5 45.5t-37.5 45.5t-35 21q-20 0 -39 -18t-25.5 -30l-19.5 -36q-10 -19 -18.5 -24t-26.5 3l-53 31q-21 16 -8 47z" />
<glyph unicode="&#xe4;" d="M49 354q0 126 55.5 238.5t151 180t205.5 67.5q56 0 107.5 -23t74 -42t35.5 -36l27 52q14 28 38 28h62q13 0 22 -12t7 -27l-97 -741q-1 -15 -14 -27t-27 -12h-67q-24 0 -27 29l-6 61q-16 -16 -41.5 -36t-87.5 -47t-123 -27q-127 0 -211 108.5t-84 265.5zM244 356 q0 -89 40.5 -144.5t112.5 -55.5q35 0 70 17t58.5 41t37.5 42t19 27l34 286q-2 4 -6.5 10t-20 22t-33 28.5t-45.5 22.5t-58 10q-96 0 -152.5 -87.5t-56.5 -218.5zM246 1262q0 55 38.5 93t90.5 38q41 0 68.5 -30t27.5 -73q0 -53 -38.5 -91t-90.5 -38q-41 0 -68.5 29.5 t-27.5 71.5zM612 1262q0 54 38 92.5t89 38.5q42 0 70.5 -30t28.5 -73q0 -53 -38.5 -91t-90.5 -38q-42 0 -69.5 29.5t-27.5 71.5z" />
<glyph unicode="&#xe5;" d="M49 354q0 126 55.5 238.5t151 180t205.5 67.5q56 0 107.5 -23t74 -42t35.5 -36l27 52q14 28 38 28h62q13 0 22 -12t7 -27l-97 -741q-1 -15 -14 -27t-27 -12h-67q-24 0 -27 29l-6 61q-16 -16 -41.5 -36t-87.5 -47t-123 -27q-127 0 -211 108.5t-84 265.5zM244 356 q0 -89 40.5 -144.5t112.5 -55.5q35 0 70 17t58.5 41t37.5 42t19 27l34 286q-2 4 -6.5 10t-20 22t-33 28.5t-45.5 22.5t-58 10q-96 0 -152.5 -87.5t-56.5 -218.5zM326 1196q0 108 69 183t170 75q72 0 125 -58t53 -139q0 -108 -70 -183t-171 -75q-73 0 -124.5 57.5 t-51.5 139.5zM436 1212q0 -39 24 -69.5t58 -30.5q41 0 75 40t34 89q0 39 -22 66.5t-56 27.5q-43 0 -78 -36.5t-35 -86.5z" />
<glyph unicode="&#xe6;" horiz-adv-x="1249" d="M16 211q0 136 89.5 221.5t234.5 85.5q36 0 73 -3t55 -6l19 -3q11 102 -3 138t-74 36q-70 0 -217 -41q-14 -3 -25.5 6.5t-11.5 24.5l-2 86q0 30 34 41q137 43 258 43q82 0 125 -29.5t68 -83.5q116 113 274 113q120 0 197.5 -62t77.5 -172q0 -67 -36 -117.5t-93.5 -76.5 t-129.5 -42t-145 -14.5t-139 6.5q-8 -88 34.5 -149t125.5 -61q84 0 166 57q20 12 28 13t21 -11l55 -76q22 -30 -10 -53q-126 -102 -289 -102q-162 0 -252 131q-43 -53 -115 -92t-165 -39q-99 0 -163.5 64t-64.5 167zM197 238q0 -52 28 -80.5t70 -28.5q54 0 95.5 32.5 t58.5 61.5l20 154q-47 14 -123 14q-60 0 -104.5 -42t-44.5 -111zM676 500q328 -29 328 96q0 38 -33 62t-78 24q-82 0 -139.5 -51t-77.5 -131z" />
<glyph unicode="&#xe7;" horiz-adv-x="825" d="M49 350q0 100 37.5 191.5t99.5 156.5t145.5 103.5t172.5 38.5q82 0 147.5 -40t102.5 -106q7 -14 3 -30t-18 -27l-73 -51q-29 -19 -48 8q-54 68 -129 68q-93 0 -168 -90.5t-75 -209.5q0 -91 41.5 -148.5t113.5 -57.5q30 0 56 9t49 29.5t32.5 31t30.5 36.5q22 25 47 4 l74 -57q14 -11 15 -26.5t-11 -30.5q-126 -169 -307 -172l-10 -93q73 -15 114 -63t41 -125q0 -95 -61 -163t-158 -68q-39 0 -77.5 20.5t-57.5 50.5q-19 28 4 51l33 31q19 19 41 -2q29 -29 63 -29t59 30t25 71q0 84 -124 100q-18 4 -23.5 16t-3.5 23l24 168q-101 36 -164 132 t-63 220z" />
<glyph unicode="&#xe8;" horiz-adv-x="843" d="M49 346q0 131 56 243t162 181.5t239 69.5q120 0 197 -62t77 -172q0 -56 -25 -100.5t-68 -72t-97 -46t-116 -25.5t-120.5 -7t-115.5 7q-8 -88 34 -149t125 -61q84 0 166 57q20 12 28 13t21 -11l56 -76q22 -29 -11 -53q-126 -102 -288 -102q-145 0 -232.5 105t-87.5 261z M268 500q328 -29 328 96q0 38 -33 62t-78 24q-82 0 -139.5 -51t-77.5 -131zM375 1315l53 84q18 27 49 6l268 -186q8 -5 11 -16t-4 -23l-31 -54q-15 -24 -47 -8l-287 144q-34 16 -12 53z" />
<glyph unicode="&#xe9;" horiz-adv-x="843" d="M49 346q0 131 56 243t162 181.5t239 69.5q120 0 197 -62t77 -172q0 -56 -25 -100.5t-68 -72t-97 -46t-116 -25.5t-120.5 -7t-115.5 7q-8 -88 34 -149t125 -61q84 0 166 57q20 12 28 13t21 -11l56 -76q22 -29 -11 -53q-126 -102 -288 -102q-145 0 -232.5 105t-87.5 261z M268 500q328 -29 328 96q0 38 -33 62t-78 24q-82 0 -139.5 -51t-77.5 -131zM352 1188q-9 24 17 39l319 186q8 8 26 6t25 -20l35 -90q14 -35 -18 -49l-336 -148q-37 -16 -45 12z" />
<glyph unicode="&#xea;" horiz-adv-x="843" d="M49 346q0 131 56 243t162 181.5t239 69.5q120 0 197 -62t77 -172q0 -56 -25 -100.5t-68 -72t-97 -46t-116 -25.5t-120.5 -7t-115.5 7q-8 -88 34 -149t125 -61q84 0 166 57q20 12 28 13t21 -11l56 -76q22 -29 -11 -53q-126 -102 -288 -102q-145 0 -232.5 105t-87.5 261z M268 500q328 -29 328 96q0 38 -33 62t-78 24q-82 0 -139.5 -51t-77.5 -131zM283 1155q-18 30 10 49l258 201q24 17 45 0l201 -201q21 -21 4 -43l-37 -45q-12 -13 -20.5 -14.5t-26.5 10.5l-158 123l-203 -131q-20 -11 -27 -8.5t-18 18.5z" />
<glyph unicode="&#xeb;" horiz-adv-x="843" d="M49 346q0 131 56 243t162 181.5t239 69.5q120 0 197 -62t77 -172q0 -56 -25 -100.5t-68 -72t-97 -46t-116 -25.5t-120.5 -7t-115.5 7q-8 -88 34 -149t125 -61q84 0 166 57q20 12 28 13t21 -11l56 -76q22 -29 -11 -53q-126 -102 -288 -102q-145 0 -232.5 105t-87.5 261z M268 500q328 -29 328 96q0 38 -33 62t-78 24q-82 0 -139.5 -51t-77.5 -131zM270 1262q0 55 38.5 93t90.5 38q41 0 69 -30t28 -73q0 -53 -38.5 -91t-90.5 -38q-41 0 -69 29.5t-28 71.5zM637 1262q0 54 38.5 92.5t88.5 38.5q42 0 70 -30t28 -73q0 -53 -38.5 -91t-90.5 -38 q-42 0 -69 29.5t-27 71.5z" />
<glyph unicode="&#xec;" horiz-adv-x="458" d="M57 39l103 741q3 15 15.5 27t25.5 12h125q13 0 22.5 -12t7.5 -27l-104 -741q-1 -15 -14 -27t-27 -12h-125q-14 0 -23 12t-6 27zM135 1315l53 84q18 27 50 6l268 -186q8 -5 10.5 -16t-4.5 -23l-31 -54q-15 -24 -47 -8l-287 144q-34 16 -12 53z" />
<glyph unicode="&#xed;" horiz-adv-x="458" d="M57 39l103 741q3 15 15.5 27t25.5 12h125q13 0 22.5 -12t7.5 -27l-104 -741q-1 -15 -14 -27t-27 -12h-125q-14 0 -23 12t-6 27zM111 1188q-9 25 16 39l319 186q8 8 26.5 6t25.5 -20l34 -90q14 -35 -18 -49l-336 -148q-37 -16 -45 12z" />
<glyph unicode="&#xee;" horiz-adv-x="458" d="M41 1155q-18 30 10 49l258 201q24 17 45 0l201 -201q21 -21 4 -43l-37 -45q-12 -13 -20.5 -14.5t-26.5 10.5l-158 123l-202 -131q-20 -11 -27 -8.5t-18 18.5zM57 39l103 741q3 15 15.5 27t25.5 12h125q13 0 22.5 -12t7.5 -27l-104 -741q-1 -15 -14 -27t-27 -12h-125 q-14 0 -23 12t-6 27z" />
<glyph unicode="&#xef;" horiz-adv-x="458" d="M31 1262q0 55 38.5 93t90.5 38q41 0 68.5 -30t27.5 -73q0 -53 -38.5 -91t-90.5 -38q-41 0 -68.5 29.5t-27.5 71.5zM57 39l103 741q3 15 15.5 27t25.5 12h125q13 0 22.5 -12t7.5 -27l-104 -741q-1 -15 -14 -27t-27 -12h-125q-14 0 -23 12t-6 27zM397 1262q0 54 38.5 92.5 t88.5 38.5q42 0 70.5 -30t28.5 -73q0 -53 -38.5 -91t-90.5 -38q-42 0 -69.5 29.5t-27.5 71.5z" />
<glyph unicode="&#xf0;" horiz-adv-x="1017" d="M53 387q0 114 40.5 212t105.5 161t144.5 98t160.5 35q67 0 128 -26t91 -50q-16 166 -164 311l-172 -104q-14 -7 -26.5 -3.5t-18.5 15.5l-8 19q-13 35 20 53l129 82q-67 57 -127 84q-39 16 -20 55l49 88q17 34 49 21q121 -52 236 -148l137 82q27 13 45 -16l10 -19 q8 -16 1.5 -29.5t-21.5 -21.5l-105 -63q87 -96 142 -236.5t55 -308.5q0 -142 -35 -268t-100.5 -222t-166.5 -152t-224 -56q-147 0 -251 119.5t-104 287.5zM240 406q0 -100 54.5 -171t137.5 -71q64 0 119.5 38.5t91 100t57.5 130.5t27 136q-4 17 -18.5 40.5t-39 51t-66 46 t-89.5 18.5q-108 0 -191 -94.5t-83 -224.5z" />
<glyph unicode="&#xf1;" horiz-adv-x="976" d="M57 39l103 741q2 16 13 27.5t28 11.5h61q10 0 17.5 -6.5t9.5 -17.5l14 -70q15 13 33 26.5t55.5 36.5t87 37.5t99.5 14.5q67 0 118 -20t81.5 -55.5t48.5 -84.5t19.5 -107t-5.5 -122l-58 -412q-1 -15 -14 -27t-27 -12h-125q-14 0 -22 11.5t-6 27.5l57 418q14 98 -16 151.5 t-99 53.5q-37 0 -74.5 -14.5t-64 -36t-44 -39t-25.5 -29.5l-72 -504q-3 -21 -13.5 -30t-37.5 -9h-113q-14 0 -23 12t-6 27zM315 1241q8 19 23.5 43.5t40.5 55.5t61.5 52t75.5 21q36 0 64.5 -20.5t43.5 -45t33.5 -45t36.5 -20.5q20 0 38.5 16t26 28t21.5 38q9 17 23.5 22 t27.5 -4l39 -28q30 -23 4 -66q-85 -153 -190 -153q-31 0 -60 21t-46 45.5t-37 45.5t-35 21q-20 0 -39 -18t-25.5 -30l-19.5 -36q-10 -19 -18.5 -24t-26.5 3l-53 31q-22 17 -9 47z" />
<glyph unicode="&#xf2;" horiz-adv-x="903" d="M49 354q0 130 57.5 241.5t159.5 178t223 66.5q136 0 228 -109.5t92 -261.5q0 -200 -127.5 -344.5t-312.5 -144.5q-133 0 -226.5 110t-93.5 264zM233 371q0 -90 45 -152.5t115 -62.5q92 0 162 87t70 206q0 90 -44.5 151.5t-115.5 61.5q-92 0 -162 -86t-70 -205zM362 1315 l54 84q18 27 49 6l268 -186q8 -5 10.5 -16t-4.5 -23l-30 -54q-15 -24 -47 -8l-287 144q-35 17 -13 53z" />
<glyph unicode="&#xf3;" horiz-adv-x="903" d="M49 354q0 130 57.5 241.5t159.5 178t223 66.5q136 0 228 -109.5t92 -261.5q0 -200 -127.5 -344.5t-312.5 -144.5q-133 0 -226.5 110t-93.5 264zM233 371q0 -90 45 -152.5t115 -62.5q92 0 162 87t70 206q0 90 -44.5 151.5t-115.5 61.5q-92 0 -162 -86t-70 -205zM338 1188 q-9 25 16 39l320 186q8 8 26 6t25 -20l35 -90q14 -35 -19 -49l-335 -148q-38 -16 -46 12z" />
<glyph unicode="&#xf4;" horiz-adv-x="903" d="M49 354q0 130 57.5 241.5t159.5 178t223 66.5q136 0 228 -109.5t92 -261.5q0 -200 -127.5 -344.5t-312.5 -144.5q-133 0 -226.5 110t-93.5 264zM233 371q0 -90 45 -152.5t115 -62.5q92 0 162 87t70 206q0 90 -44.5 151.5t-115.5 61.5q-92 0 -162 -86t-70 -205zM270 1155 q-18 30 11 49l258 201q24 17 45 0l200 -201q21 -21 4 -43l-36 -45q-12 -13 -20.5 -14.5t-26.5 10.5l-158 123l-203 -131q-20 -11 -27 -8.5t-18 18.5z" />
<glyph unicode="&#xf5;" horiz-adv-x="903" d="M49 354q0 130 57.5 241.5t159.5 178t223 66.5q136 0 228 -109.5t92 -261.5q0 -200 -127.5 -344.5t-312.5 -144.5q-133 0 -226.5 110t-93.5 264zM233 371q0 -90 45 -152.5t115 -62.5q92 0 162 87t70 206q0 90 -44.5 151.5t-115.5 61.5q-92 0 -162 -86t-70 -205zM264 1241 q8 19 23.5 43.5t40.5 55.5t61.5 52t75.5 21q36 0 64.5 -20.5t43.5 -45t33.5 -45t36.5 -20.5q20 0 38.5 16t26 28t21.5 38q9 17 23.5 22t27.5 -4l39 -28q30 -23 4 -66q-85 -153 -190 -153q-31 0 -60 21t-46 45.5t-37 45.5t-35 21q-20 0 -39 -18t-25.5 -30l-19.5 -36 q-10 -19 -18.5 -24t-26.5 3l-54 31q-21 16 -8 47z" />
<glyph unicode="&#xf6;" horiz-adv-x="903" d="M49 354q0 130 57.5 241.5t159.5 178t223 66.5q136 0 228 -109.5t92 -261.5q0 -200 -127.5 -344.5t-312.5 -144.5q-133 0 -226.5 110t-93.5 264zM233 371q0 -90 45 -152.5t115 -62.5q92 0 162 87t70 206q0 90 -44.5 151.5t-115.5 61.5q-92 0 -162 -86t-70 -205zM256 1262 q0 55 38.5 93t90.5 38q41 0 68.5 -30t27.5 -73q0 -53 -38.5 -91t-90.5 -38q-41 0 -68.5 29.5t-27.5 71.5zM623 1262q0 54 38.5 92.5t88.5 38.5q42 0 70 -30t28 -73q0 -53 -38.5 -91t-90.5 -38q-42 0 -69 29.5t-27 71.5z" />
<glyph unicode="&#xf7;" horiz-adv-x="978" d="M111 666l12 86q1 15 13 27t26 12h719q13 0 21.5 -12t6.5 -27l-12 -86q-1 -15 -13 -27t-26 -12h-719q-13 0 -21.5 12t-6.5 27zM330 322q0 60 41.5 102.5t97.5 42.5q45 0 74.5 -33t29.5 -80q0 -58 -42.5 -101.5t-96.5 -43.5q-45 0 -74.5 33t-29.5 80zM436 1077 q0 59 42.5 102.5t96.5 43.5q45 0 75 -33t30 -80q0 -58 -42.5 -101.5t-98.5 -43.5q-43 0 -73 33.5t-30 78.5z" />
<glyph unicode="&#xf8;" horiz-adv-x="903" d="M38.5 79.5q1.5 15.5 12.5 26.5l47 46q-49 93 -49 202q0 130 57.5 241.5t159.5 178t223 66.5q129 0 222 -103l51 51q10 12 25 12t22 -12l14 -14q10 -11 8 -26.5t-14 -26.5l-57 -55q49 -90 49 -197q0 -200 -127.5 -344.5t-312.5 -144.5q-129 0 -219 100l-44 -43 q-11 -10 -25.5 -9.5t-23.5 11.5l-10 14q-10 11 -8.5 26.5zM233 371q0 -46 11 -80l329 317q-44 54 -108 54q-92 0 -162 -86t-70 -205zM285 209q43 -53 108 -53q92 0 162 87t70 206q0 31 -11 77z" />
<glyph unicode="&#xf9;" horiz-adv-x="952" d="M89 216.5q-9 70.5 5 150.5l58 413q3 15 15.5 27t25.5 12h124q13 0 23 -12t8 -27l-59 -418q-13 -99 18 -152.5t99 -53.5q61 0 118.5 50t67.5 79l67 495q3 23 14 31t34 8h112q13 0 23 -12t8 -27l-105 -741q-2 -15 -13.5 -27t-26.5 -12h-60q-22 0 -29 33l-12 59 q-112 -112 -260 -112q-82 0 -138 30.5t-82 83t-35 123zM383 1315l53 84q18 27 49 6l269 -186q8 -5 10.5 -16t-4.5 -23l-31 -54q-15 -24 -47 -8l-287 144q-34 16 -12 53z" />
<glyph unicode="&#xfa;" horiz-adv-x="952" d="M89 216.5q-9 70.5 5 150.5l58 413q3 15 15.5 27t25.5 12h124q13 0 23 -12t8 -27l-59 -418q-13 -99 18 -152.5t99 -53.5q61 0 118.5 50t67.5 79l67 495q3 23 14 31t34 8h112q13 0 23 -12t8 -27l-105 -741q-2 -15 -13.5 -27t-26.5 -12h-60q-22 0 -29 33l-12 59 q-112 -112 -260 -112q-82 0 -138 30.5t-82 83t-35 123zM360 1188q-9 24 17 39l319 186q8 8 26.5 6t25.5 -20l34 -90q14 -35 -18 -49l-336 -148q-37 -16 -45 12z" />
<glyph unicode="&#xfb;" horiz-adv-x="952" d="M89 216.5q-9 70.5 5 150.5l58 413q3 15 15.5 27t25.5 12h124q13 0 23 -12t8 -27l-59 -418q-13 -99 18 -152.5t99 -53.5q61 0 118.5 50t67.5 79l67 495q3 23 14 31t34 8h112q13 0 23 -12t8 -27l-105 -741q-2 -15 -13.5 -27t-26.5 -12h-60q-22 0 -29 33l-12 59 q-112 -112 -260 -112q-82 0 -138 30.5t-82 83t-35 123zM291 1155q-18 30 10 49l258 201q24 17 45 0l201 -201q21 -21 4 -43l-37 -45q-12 -13 -20.5 -14.5t-26.5 10.5l-158 123l-202 -131q-20 -11 -27.5 -8.5t-18.5 18.5z" />
<glyph unicode="&#xfc;" horiz-adv-x="952" d="M89 216.5q-9 70.5 5 150.5l58 413q3 15 15.5 27t25.5 12h124q13 0 23 -12t8 -27l-59 -418q-13 -99 18 -152.5t99 -53.5q61 0 118.5 50t67.5 79l67 495q3 23 14 31t34 8h112q13 0 23 -12t8 -27l-105 -741q-2 -15 -13.5 -27t-26.5 -12h-60q-22 0 -29 33l-12 59 q-112 -112 -260 -112q-82 0 -138 30.5t-82 83t-35 123zM279 1262q0 55 38.5 93t90.5 38q41 0 68.5 -30t27.5 -73q0 -53 -38.5 -91t-90.5 -38q-41 0 -68.5 29.5t-27.5 71.5zM645 1262q0 54 38.5 92.5t88.5 38.5q42 0 70 -30t28 -73q0 -53 -38.5 -91t-90.5 -38q-42 0 -69 29.5 t-27 71.5z" />
<glyph unicode="&#xfd;" horiz-adv-x="870" d="M-79.5 -599.5q-6.5 14.5 5.5 36.5l330 606l-209 727q-6 21 4 35t31 14h119q21 0 28 -22l150 -549h2l295 549q12 22 45 22h119q23 0 29.5 -16.5t-5.5 -36.5l-751 -1356q-12 -24 -35 -24h-129q-22 0 -28.5 14.5zM309 1188q-9 24 17 39l319 186q8 8 26 6t25 -20l35 -90 q14 -35 -18 -49l-336 -148q-37 -16 -45 12z" />
<glyph unicode="&#xfe;" d="M-29 -578l279 1973q2 15 14 27t25 12h129q14 0 22.5 -12t5.5 -27l-86 -625q1 0 10.5 7t14.5 10.5t17.5 11t22 12t25 10.5t30 9t33.5 5.5t38 2.5q129 0 214 -107t85 -260q0 -210 -121.5 -350.5t-312.5 -140.5q-81 0 -160 55l-86 -613q-1 -15 -14 -26.5t-27 -11.5h-127 q-14 0 -23 11.5t-8 26.5zM283 225q59 -69 139 -69q98 0 166.5 87t68.5 210q0 89 -41.5 149t-115.5 60q-48 0 -89 -21.5t-57 -39t-24 -30.5z" />
<glyph unicode="&#xff;" horiz-adv-x="870" d="M-79.5 -599.5q-6.5 14.5 5.5 36.5l330 606l-209 727q-6 21 4 35t31 14h119q21 0 28 -22l150 -549h2l295 549q12 22 45 22h119q23 0 29.5 -16.5t-5.5 -36.5l-751 -1356q-12 -24 -35 -24h-129q-22 0 -28.5 14.5zM227 1262q0 55 38.5 93t90.5 38q41 0 69 -30t28 -73 q0 -53 -38.5 -91t-90.5 -38q-41 0 -69 29.5t-28 71.5zM594 1262q0 54 38 92.5t89 38.5q42 0 70 -30t28 -73q0 -53 -38.5 -91t-90.5 -38q-42 0 -69 29.5t-27 71.5z" />
<glyph unicode="&#x152;" horiz-adv-x="1828" d="M115 614q0 171 60 326t163 268t247 179.5t304 66.5q43 0 86 -5t65 -10l21 -5h741q14 0 22.5 -11.5t6.5 -27.5l-14 -115q-2 -15 -14 -27t-27 -12h-568l-59 -418h477q13 0 22 -12t7 -27l-15 -114q-1 -17 -14 -28t-27 -11h-477l-61 -441h567q15 0 23 -11t6 -27l-17 -113 q-2 -15 -13.5 -27t-24.5 -12h-744q-98 -20 -176 -20q-155 0 -285.5 84.5t-206 230.5t-75.5 319zM326 641q0 -191 110 -325t275 -134q79 0 141 21l143 1024q-68 22 -135 22q-100 0 -197.5 -49t-171.5 -130.5t-119.5 -194.5t-45.5 -234z" />
<glyph unicode="&#x153;" horiz-adv-x="1398" d="M49 356q0 129 60 240.5t161.5 177.5t218.5 66q77 0 141 -42t105 -112q65 69 149 111.5t179 42.5q120 0 197 -62t77 -172q0 -56 -25 -100.5t-68 -72t-97 -46t-116 -25.5t-120.5 -7t-115.5 7q-8 -88 34 -149t125 -61q84 0 166 57q20 12 28 13t21 -11l56 -76q22 -29 -11 -53 q-126 -102 -288 -102q-86 0 -153.5 39t-108.5 108q-61 -68 -138.5 -107.5t-156.5 -39.5q-134 0 -227 110.5t-93 265.5zM229 373q0 -91 46 -154t118 -63q91 0 161.5 89t70.5 208q0 88 -45.5 148.5t-114.5 60.5q-95 0 -165.5 -85t-70.5 -204zM825 500q328 -29 328 96 q0 38 -33 62t-78 24q-82 0 -139.5 -51t-77.5 -131z" />
<glyph unicode="&#x178;" horiz-adv-x="1075" d="M111 1380q-8 21 2.5 37.5t31.5 16.5h146q25 0 35 -23l239 -520h4l394 520q19 23 41 23h161q23 0 28 -17t-9 -37l-529 -688l-92 -653q-1 -15 -14 -27t-27 -12h-141q-15 0 -24 12t-7 27l92 651zM352 1704q0 53 38.5 91t88.5 38q41 0 70 -29.5t29 -70.5q0 -53 -40.5 -92 t-91.5 -39q-41 0 -67.5 30t-26.5 72zM788 1704q0 53 38.5 91t88.5 38q41 0 70 -29.5t29 -70.5q0 -53 -40 -92t-91 -39q-41 0 -68 30t-27 72z" />
<glyph unicode="&#x2c6;" horiz-adv-x="688" d="M121 1155q-18 30 10 49l258 201q24 17 45 0l201 -201q21 -21 4 -43l-37 -45q-12 -13 -20.5 -14.5t-26.5 10.5l-158 123l-202 -131q-20 -11 -27 -8.5t-18 18.5z" />
<glyph unicode="&#x2dc;" horiz-adv-x="700" d="M119 1241q8 19 23 43t40.5 55.5t61.5 52.5t75 21q36 0 65 -20.5t44 -45t33.5 -45t36.5 -20.5q20 0 38.5 16t26 28t21.5 38q9 17 23.5 22t27.5 -4l39 -28q30 -23 4 -66q-85 -153 -191 -153q-31 0 -60 21t-46 45.5t-37 45.5t-35 21q-20 0 -39 -18t-25.5 -30l-19.5 -36 q-10 -19 -18.5 -24t-26.5 3l-53 31q-21 16 -8 47z" />
<glyph unicode="&#x2000;" horiz-adv-x="1001" />
<glyph unicode="&#x2001;" horiz-adv-x="2003" />
<glyph unicode="&#x2002;" horiz-adv-x="1001" />
<glyph unicode="&#x2003;" horiz-adv-x="2003" />
<glyph unicode="&#x2004;" horiz-adv-x="667" />
<glyph unicode="&#x2005;" horiz-adv-x="500" />
<glyph unicode="&#x2006;" horiz-adv-x="333" />
<glyph unicode="&#x2007;" horiz-adv-x="333" />
<glyph unicode="&#x2008;" horiz-adv-x="250" />
<glyph unicode="&#x2009;" horiz-adv-x="400" />
<glyph unicode="&#x200a;" horiz-adv-x="111" />
<glyph unicode="&#x2010;" horiz-adv-x="751" d="M121 459l12 88q3 17 14.5 28t26.5 11h404q15 0 24 -11t6 -28l-12 -88q-1 -15 -13.5 -26t-27.5 -11h-403q-15 0 -24 11t-7 26z" />
<glyph unicode="&#x2011;" horiz-adv-x="751" d="M121 459l12 88q3 17 14.5 28t26.5 11h404q15 0 24 -11t6 -28l-12 -88q-1 -15 -13.5 -26t-27.5 -11h-403q-15 0 -24 11t-7 26z" />
<glyph unicode="&#x2012;" horiz-adv-x="751" d="M121 459l12 88q3 17 14.5 28t26.5 11h404q15 0 24 -11t6 -28l-12 -88q-1 -15 -13.5 -26t-27.5 -11h-403q-15 0 -24 11t-7 26z" />
<glyph unicode="&#x2013;" horiz-adv-x="1054" d="M135 479l8 49q3 17 14 28t25 11h715q15 0 24.5 -11t6.5 -28l-8 -49q-3 -16 -13.5 -26.5t-25.5 -10.5h-715q-15 0 -24.5 11t-6.5 26z" />
<glyph unicode="&#x2014;" horiz-adv-x="1460" d="M135 479l8 49q3 17 14 28t25 11h1121q15 0 24 -11t6 -28l-8 -49q-3 -16 -14 -26.5t-25 -10.5h-1120q-15 0 -24.5 11t-6.5 26z" />
<glyph unicode="&#x2018;" horiz-adv-x="397" d="M129 1018q0 215 219 420q27 24 45 2l23 -31q8 -9 5 -23t-15 -24l-12 -10q-11 -10 -19 -17t-23 -23t-26 -30t-25.5 -34.5t-24.5 -41t-18 -46.5t-12 -52q6 6 45 6q44 0 73 -32.5t29 -77.5q0 -59 -42.5 -101.5t-100.5 -42.5q-49 0 -85 37.5t-36 120.5z" />
<glyph unicode="&#x2019;" horiz-adv-x="393" d="M139 927.5q3 13.5 15 24.5q1 1 10 8.5t16 14t19.5 19t22.5 24.5t22.5 28t23 34t19.5 37.5t16 42.5t10 46q-6 -6 -45 -6q-43 0 -72.5 33t-29.5 78q0 59 42 101t101 42q49 0 85 -37.5t36 -120.5q0 -214 -219 -419q-27 -24 -45 -3l-23 31q-7 9 -4 22.5z" />
<glyph unicode="&#x201a;" horiz-adv-x="454" d="M3 -292q3 14 15 24l12 10q11 10 19 17t23 23t26 30t25.5 34.5t24.5 41t18 46.5t12 52q-6 -6 -45 -6q-44 0 -73 32.5t-29 77.5q0 58 42.5 100.5t100.5 42.5q49 0 85 -37t36 -120q0 -215 -219 -420q-27 -24 -45 -2l-23 31q-8 9 -5 23z" />
<glyph unicode="&#x201c;" horiz-adv-x="747" d="M129 1018q0 215 219 420q27 24 45 2l23 -31q8 -9 5 -23t-15 -24l-12 -10q-11 -10 -19 -17t-23 -23t-26 -30t-25.5 -34.5t-24.5 -41t-18 -46.5t-12 -52q6 6 45 6q44 0 73 -32.5t29 -77.5q0 -59 -42.5 -101.5t-100.5 -42.5q-49 0 -85 37.5t-36 120.5zM479 1018 q0 215 219 420q27 24 45 2l23 -31q8 -9 5 -23t-15 -24l-12 -10q-11 -10 -19 -17t-23 -23t-26 -30t-25.5 -34.5t-24.5 -41t-18 -46.5t-12 -52q6 6 45 6q44 0 73 -32.5t29 -77.5q0 -59 -42.5 -101.5t-100.5 -42.5q-49 0 -85 37.5t-36 120.5z" />
<glyph unicode="&#x201d;" horiz-adv-x="741" d="M139 927.5q3 13.5 15 24.5q1 1 10 8.5t16 14t19.5 19t22.5 24.5t22.5 28t23 34t19.5 37.5t16 42.5t10 46q-6 -6 -45 -6q-43 0 -72.5 33t-29.5 78q0 59 42 101t101 42q49 0 85 -37.5t36 -120.5q0 -214 -219 -419q-27 -24 -45 -3l-23 31q-7 9 -4 22.5zM489 928q3 14 15 24 l12 10q11 10 19 17t23 23t26 30t25.5 34.5t24.5 41t18 46.5t12 52q-6 -6 -46 -6q-43 0 -72.5 33t-29.5 78q0 59 42 101t101 42q49 0 85 -37.5t36 -120.5q0 -214 -219 -419q-27 -24 -45 -3l-22 31q-8 9 -5 23z" />
<glyph unicode="&#x201e;" horiz-adv-x="800" d="M3 -292q3 14 15 24l12 10q11 10 19 17t23 23t26 30t25.5 34.5t24.5 41t18 46.5t12 52q-6 -6 -45 -6q-44 0 -73 32.5t-29 77.5q0 58 42.5 100.5t100.5 42.5q49 0 85 -37t36 -120q0 -215 -219 -420q-27 -24 -45 -2l-23 31q-8 9 -5 23zM350 -292.5q3 13.5 15 24.5 q1 1 10 8.5t16 14t19.5 19t22.5 24.5t22.5 28t23 34t19.5 37.5t16 42.5t10 46q-6 -6 -45 -6q-44 0 -73 32.5t-29 77.5q0 58 42.5 100.5t100.5 42.5q49 0 85 -37t36 -120q0 -215 -219 -420q-27 -24 -45 -2l-23 31q-7 9 -4 22.5z" />
<glyph unicode="&#x2022;" horiz-adv-x="698" d="M119 430q0 111 80.5 194t181.5 83q86 0 143.5 -63.5t57.5 -154.5q0 -109 -82 -189.5t-189 -80.5q-82 0 -137 62t-55 149z" />
<glyph unicode="&#x2026;" horiz-adv-x="1208" d="M27 94q0 61 43.5 105.5t99.5 44.5q47 0 78 -33.5t31 -83.5q0 -59 -44 -103t-102 -44q-45 0 -75.5 33.5t-30.5 80.5zM414 94q0 61 43.5 105.5t99.5 44.5q47 0 78 -33.5t31 -83.5q0 -59 -44 -103t-102 -44q-45 0 -75.5 33.5t-30.5 80.5zM799 94q0 61 43.5 105.5t101.5 44.5 q46 0 76.5 -33.5t30.5 -81.5q0 -61 -43 -105t-101 -44q-46 0 -77 33.5t-31 80.5z" />
<glyph unicode="&#x202f;" horiz-adv-x="400" />
<glyph unicode="&#x2039;" horiz-adv-x="514" d="M49 397q-12 24 6 49l238 304q19 24 41 24h90q23 0 27.5 -19t-9.5 -44l-174 -301l74 -285q6 -26 -3.5 -44t-33.5 -18h-84q-15 0 -24 17z" />
<glyph unicode="&#x203a;" horiz-adv-x="516" d="M21.5 82.5q-4.5 19.5 9.5 44.5l174 301l-74 285q-6 26 3.5 43.5t33.5 17.5h84q16 0 24 -16l148 -318q12 -24 -6 -49l-238 -303q-20 -25 -41 -25h-90q-23 0 -27.5 19.5z" />
<glyph unicode="&#x205f;" horiz-adv-x="500" />
<glyph unicode="&#x20ac;" horiz-adv-x="1376" d="M68 553l4 20q3 16 13.5 27.5t23.5 11.5h73q-2 26 3 76t12 72h-68q-13 0 -21.5 12t-5.5 27l4 20q3 16 13.5 27.5t23.5 11.5h78q73 261 276 428.5t461 167.5q134 0 234 -47.5t186 -142.5q11 -12 9 -30t-15 -28l-96 -82q-31 -28 -53 0q-53 62 -129 94.5t-160 32.5 q-152 0 -284 -111t-195 -282h454q15 0 24.5 -12t6.5 -27l-4 -22q-3 -15 -14.5 -26t-26.5 -11h-469q-7 -27 -11 -75.5t-1 -72.5h387q15 0 24 -12t6 -27l-4 -22q-3 -15 -14.5 -26t-26.5 -11h-360q28 -144 125.5 -235t234.5 -91q84 0 156.5 36.5t159.5 105.5q11 10 24 10t19 -8 l92 -99q8 -11 4.5 -27.5t-14.5 -27.5q-210 -198 -475 -198q-227 0 -382.5 149.5t-181.5 384.5h-94q-13 0 -21 12t-5 27z" />
<glyph unicode="&#x2122;" horiz-adv-x="1329" d="M190 1346l9 49q3 16 14 27.5t25 11.5h370q15 0 24.5 -12t6.5 -27l-8 -49q-3 -17 -14 -28t-25 -11h-123l-66 -467q-2 -15 -13.5 -27t-24.5 -12h-60q-15 0 -23.5 12t-5.5 27l66 467h-121q-14 0 -24 11t-7 28zM625 848l174 565q12 31 41 31h6q23 0 28 -23l101 -407l219 407 q14 23 35 23h6q13 0 22 -9.5t9 -21.5l18 -567q0 -19 -12 -32t-29 -13h-59q-14 0 -22.5 10.5t-8.5 24.5l-4 297l-168 -320q-11 -18 -33 -18h-10q-26 0 -29 20l-71 318l-93 -299q-8 -33 -40 -33h-52q-18 0 -26 14t-2 33z" />
<glyph unicode="&#x25fc;" horiz-adv-x="819" d="M0 0v819h819v-819h-819z" />
<glyph unicode="&#xfb03;" horiz-adv-x="1591" d="M25 -575l180 1224h-99q-15 0 -23.5 11.5t-6.5 27.5l12 92q3 17 14.5 28t26.5 11h98l31 207q25 192 134.5 300t293.5 108q140 0 238 -88q105 108 268 108q81 0 157 -30.5t115 -61.5q11 -8 12 -23.5t-8 -27.5l-57 -92q-20 -31 -49 -11q-14 10 -37.5 21.5t-66.5 25t-80 13.5 q-63 0 -113 -49t-64 -148l-34 -252h493q13 0 22 -12t7 -27l-105 -741q-1 -15 -14 -27t-27 -12h-124q-14 0 -22.5 11.5t-6.5 27.5l84 610h-332l-180 -1224q-1 -15 -14 -27t-27 -12h-131q-14 0 -23 12t-6 27l180 1224h-335l-181 -1224q-1 -15 -14 -27t-27 -12h-131 q-14 0 -22.5 12t-5.5 27zM430 819h334l37 254q7 44 24 115q-15 26 -58.5 46.5t-96.5 20.5q-79 0 -137 -57t-74 -172z" />
<glyph unicode="&#xfb04;" horiz-adv-x="1611" d="M31 -575l172 1224h-101q-13 0 -21.5 12t-6.5 27l12 92q3 17 14.5 28t26.5 11h98l29 207q15 102 56 181.5t100 128t128.5 73.5t145.5 25q145 0 238 -88q105 108 280 108q44 0 85.5 -11.5t68.5 -28t48 -32.5t30 -28l10 -11l26 56q16 35 48 35h49q13 0 22.5 -12t7.5 -27 l-190 -1356q-3 -15 -15.5 -27t-25.5 -12h-127q-13 0 -22 12t-7 27l160 1118q-2 5 -9 15t-23.5 27.5t-36.5 32t-49.5 25.5t-61.5 11q-67 0 -122 -48.5t-69 -146.5l-36 -254h172q15 0 23.5 -11t6.5 -28l-14 -90q-2 -15 -13 -27t-26 -12h-172l-172 -1226q-1 -15 -14 -27 t-27 -12h-131q-14 0 -23 12t-6 27l172 1224h-336l-172 -1224q-1 -15 -14 -27t-27 -12h-131q-14 0 -22.5 12t-5.5 27zM426 819h336l37 254q9 59 26 115q-17 26 -60.5 46.5t-96.5 20.5q-78 0 -136.5 -57t-74.5 -172z" />
</font>
</defs>
</svg>
