<?xml version="1.0" standalone="no"?>
<!DOCTYPE svg PUBLIC "-//W3C//DTD SVG 1.1//EN" "http://www.w3.org/Graphics/SVG/1.1/DTD/svg11.dtd" >
<svg xmlns="http://www.w3.org/2000/svg">
<metadata></metadata>
<defs>
<font id="brandon_textbold" horiz-adv-x="1228" >
<font-face units-per-em="2048" ascent="1434" descent="-614" />
<missing-glyph horiz-adv-x="491" />
<glyph unicode="&#xfb01;" horiz-adv-x="1239" d="M66 762v139q0 20 12.5 32.5t32.5 12.5h98v98q0 190 105 300t300 110q104 0 201 -32t162 -68q14 -9 18 -28t-4 -34l-57 -125q-21 -44 -72 -18q-130 72 -246 72q-88 0 -119.5 -40.5t-31.5 -127.5v-107h602q19 0 32 -12.5t13 -32.5v-856q0 -19 -13 -32t-32 -13h-166 q-21 0 -33 13t-12 32v672h-391v-672q0 -21 -10.5 -31.5t-22 -12t-35.5 -1.5h-143q-19 0 -32 13t-13 32v672h-98q-20 0 -32.5 13.5t-12.5 31.5z" />
<glyph unicode="&#xfb02;" horiz-adv-x="1257" d="M63 758v141q0 19 13 33t33 14h102v82q0 197 115.5 311.5t306.5 114.5q96 0 178 -36t131 -91l27 64q16 43 55 43h55q18 0 31.5 -13.5t13.5 -31.5v-1344q0 -19 -13 -32t-32 -13h-166q-18 0 -31.5 13.5t-13.5 31.5v1034q-23 48 -83.5 95t-137.5 47q-91 0 -135.5 -51 t-44.5 -142v-82h176q19 0 32 -12.5t13 -32.5v-141q0 -17 -13 -30t-32 -13h-176v-672q0 -19 -13 -32t-32 -13h-168q-19 0 -31 13t-12 32v672h-102q-20 0 -33 12t-13 29z" />
<glyph horiz-adv-x="0" />
<glyph horiz-adv-x="0" />
<glyph horiz-adv-x="682" />
<glyph unicode="&#xd;" horiz-adv-x="0" />
<glyph unicode=" "  horiz-adv-x="491" />
<glyph unicode="&#x09;" horiz-adv-x="491" />
<glyph unicode="&#xa0;" horiz-adv-x="491" />
<glyph unicode="!" horiz-adv-x="544" d="M104 147q0 69 49.5 119.5t116.5 50.5q70 0 120 -50.5t50 -119.5t-50 -118t-120 -49q-68 0 -117 49t-49 118zM121 1161v234q0 15 12 27t27 12h225q15 0 27 -12t12 -27v-230l-80 -575q-2 -12 -14 -22.5t-25 -10.5h-65q-13 0 -25 10.5t-14 22.5z" />
<glyph unicode="&#x22;" horiz-adv-x="761" d="M104 1065v330q0 15 12 27t27 12h164q21 0 32 -15.5t5 -36.5l-84 -325q-3 -12 -14.5 -21.5t-22.5 -9.5h-80q-15 0 -27 12t-12 27zM455 1065v330q0 15 12 27t27 12h163q21 0 32 -15.5t5 -36.5l-84 -325q-3 -12 -14.5 -21.5t-22.5 -9.5h-79q-15 0 -27 12t-12 27z" />
<glyph unicode="#" horiz-adv-x="1173" d="M102 424v29q0 17 11 28t28 11h160l47 335h-147q-15 0 -27 12t-12 27v29q0 15 12 27t27 12h161l66 467q2 12 13 22.5t24 10.5h29q17 0 28 -13t8 -32l-61 -455h324l67 467q2 12 14 22.5t25 10.5h25q19 0 30.5 -13t8.5 -32l-66 -455h131q17 0 28 -11.5t11 -27.5v-29 q0 -16 -11 -27.5t-28 -11.5h-145l-47 -335h133q16 0 27.5 -11t11.5 -28v-29q0 -15 -12 -27t-27 -12h-150l-45 -352q-2 -14 -13 -23.5t-26 -9.5h-26q-19 0 -30 13t-9 32l45 340h-326l-47 -352q-1 -13 -13 -23t-26 -10h-24q-20 0 -31 13t-8 32l47 340h-146q-17 0 -28 11.5 t-11 27.5zM406 492h325l45 335h-323z" />
<glyph unicode="$" d="M149.5 165.5q-2.5 10.5 8.5 35.5l80 123q25 43 81 -5q107 -90 238 -110v399q-47 19 -83 35t-80 41t-76.5 50t-65.5 60.5t-53.5 74t-33.5 88.5t-13 106q0 75 24.5 140t72.5 118.5t127 88t181 42.5v66q0 17 11.5 27.5t27.5 10.5h27q16 0 27.5 -10.5t11.5 -27.5v-68 q82 -6 166 -35.5t124 -52.5t70 -45q15 -9 18.5 -30t-6.5 -38l-82 -119q-12 -17 -28 -21t-29 5q-131 90 -233 111v-375q65 -27 114 -51.5t111.5 -67t102.5 -88.5t68.5 -113.5t28.5 -144.5q0 -171 -112 -281t-313 -122v-213q0 -17 -11.5 -27t-29.5 -10q-64 0 -64 37v213 q-77 6 -147 25.5t-118.5 46.5t-76.5 47t-47 38q-16 16 -18.5 26.5zM401 1073q0 -59 36.5 -98.5t119.5 -83.5v334q-75 -9 -115.5 -50t-40.5 -102zM662 205q72 8 114.5 46t42.5 105q0 128 -157 209v-360z" />
<glyph unicode="%" horiz-adv-x="1419" d="M96 1178q0 115 80.5 195.5t196.5 80.5q114 0 195 -80.5t81 -195.5t-81 -196t-195 -81q-115 0 -196 80.5t-81 196.5zM264 55l703 1358q11 21 34 21h103q23 0 34.5 -18t0.5 -38l-707 -1358q-3 -7 -13.5 -13.5t-21.5 -6.5h-98q-23 0 -34 17.5t-1 37.5zM272 1178 q0 -41 30 -71t71 -30q40 0 69 30t29 71q0 40 -29 69t-69 29q-41 0 -71 -29t-30 -69zM770 256q0 115 81.5 195.5t195.5 80.5q116 0 197 -80.5t81 -195.5t-81 -195.5t-197 -80.5q-114 0 -195.5 80.5t-81.5 195.5zM946 256q0 -41 30 -70.5t71 -29.5q40 0 70 29.5t30 70.5 q0 40 -30 69t-70 29q-41 0 -71 -29t-30 -69z" />
<glyph unicode="&#x26;" horiz-adv-x="1388" d="M106 365q0 43 8 84t23.5 74.5t33 62.5t41.5 54t43.5 44t44 35.5t38.5 26t32 19.5t19 11v4l-43 47q-68 71 -103.5 140.5t-35.5 154.5q0 60 25 118t71.5 106.5t122 78t168.5 29.5q169 0 278 -97t109 -237q0 -59 -21 -114.5t-56.5 -98.5t-65.5 -71.5t-67 -56.5t-40 -31 l236 -238q50 101 73 227q7 35 21 48t47 3l113 -32q9 -2 15.5 -5.5t10.5 -8t7 -8.5t4 -10.5t2 -10.5t0 -11t-1.5 -9.5t-2 -9t-1.5 -7.5q-40 -168 -127 -326l183 -172q16 -16 22 -25.5t1.5 -28t-27.5 -40.5l-84 -86q-44 -40 -90 6l-148 150q-14 -17 -35 -35t-61.5 -44.5 t-88 -46t-117 -34t-144.5 -14.5q-191 0 -312 112t-121 273zM350 391q0 -84 61.5 -138t153.5 -54q158 0 264 120l-305 324q-1 0 -14.5 -8t-21 -13t-24 -16.5t-27 -22t-25.5 -26t-24.5 -33t-19 -38t-14 -45t-4.5 -50.5zM434 1122q0 -49 25.5 -88.5t81.5 -95.5l45 -45q1 1 12 7 t18 10t21 13t24 17t23.5 20t23.5 23t20.5 26t17 30t10.5 33t4 36q0 61 -48.5 107.5t-125.5 46.5q-69 0 -110.5 -40.5t-41.5 -99.5z" />
<glyph unicode="'" horiz-adv-x="411" d="M104 1065v330q0 15 12 27t27 12h164q21 0 32 -15.5t5 -36.5l-84 -325q-3 -12 -14.5 -21.5t-22.5 -9.5h-80q-15 0 -27 12t-12 27z" />
<glyph unicode="(" horiz-adv-x="694" d="M84 645q0 185 31 328.5t80 230.5t118 143.5t136 78.5t143 26q17 1 28 -8t11 -23l6 -135q1 -12 -6.5 -23.5t-18.5 -13.5q-146 -39 -211 -189.5t-65 -414.5q0 -265 64.5 -414t211.5 -188q13 -3 20 -14.5t5 -24.5l-6 -133q-3 -33 -39 -33q-53 4 -101.5 16t-101 39t-95.5 67 t-83 103t-67.5 143.5t-43.5 192.5t-16 246z" />
<glyph unicode=")" horiz-adv-x="694" d="M57 4q-2 13 5 24.5t20 14.5q147 39 211.5 188t64.5 414q0 264 -65 414.5t-211 189.5q-11 2 -18.5 13.5t-6.5 23.5l6 135q0 14 11 23t28 8q76 -4 143 -26t136 -78.5t118 -143.5t80 -230.5t31 -328.5q0 -134 -16 -246t-43.5 -192.5t-67.5 -143.5t-83 -103t-95.5 -67 t-101 -39t-101.5 -16q-36 0 -39 33z" />
<glyph unicode="*" horiz-adv-x="884" d="M133 968q3 16 17 25l169 103l-169 102q-13 9 -17 25.5t4 29.5q39 55 39 56q8 11 23.5 14t27.5 -6l148 -103l-4 181q0 15 12 27t27 12h65q15 0 27 -12t12 -27l-4 -181l147 105q12 8 29.5 5t24.5 -15l34 -56q9 -13 7 -29.5t-17 -25.5l-170 -102l170 -105q14 -9 17.5 -25 t-4.5 -28l-39 -55q-7 -13 -23.5 -17t-28.5 4l-147 103l4 -176q0 -15 -12 -27t-27 -12h-65q-15 0 -27 12t-12 27l4 178l-148 -103q-12 -9 -28.5 -5t-24.5 16l-35 55q-9 14 -6 30z" />
<glyph unicode="+" d="M172 651v115q0 15 12 27t27 12h307v309q0 15 12 26t27 11h115q15 0 27 -11t12 -26v-309h309q15 0 26 -12t11 -27v-115q0 -15 -11 -27t-26 -12h-309v-305q0 -15 -12 -26t-27 -11h-115q-15 0 -27 11t-12 26v305h-307q-15 0 -27 12t-12 27z" />
<glyph unicode="," horiz-adv-x="546" d="M82 184q0 71 50 118.5t126 47.5q89 0 147 -71.5t58 -198.5q0 -231 -164 -449q-23 -23 -47 -2l-64 45q-23 23 2 52q115 151 115 278q0 25 -6 43q-31 -22 -76 -22q-67 0 -104 45t-37 114z" />
<glyph unicode="-" horiz-adv-x="759" d="M113 430v137q0 17 11 28t28 11h456q17 0 28 -11t11 -28v-137q0 -15 -11 -26t-28 -11h-456q-17 0 -28 11t-11 26z" />
<glyph unicode="." horiz-adv-x="550" d="M80 172q0 80 57.5 138.5t136.5 58.5q80 0 138.5 -58.5t58.5 -138.5q0 -78 -59 -136.5t-138 -58.5t-136.5 58.5t-57.5 136.5z" />
<glyph unicode="/" horiz-adv-x="847" d="M113 51l401 1356q3 11 14 19t23 8h147q22 0 32.5 -15t4.5 -37l-399 -1355q-3 -10 -14.5 -18.5t-22.5 -8.5h-149q-21 0 -32 15t-5 36z" />
<glyph unicode="0" horiz-adv-x="1312" d="M125 717q0 348 139.5 542.5t390.5 194.5q253 0 393 -194.5t140 -542.5q0 -347 -140 -542t-393 -195q-251 0 -390.5 195t-139.5 542zM391 717q0 -233 71 -364.5t193 -131.5q124 0 195.5 131.5t71.5 364.5t-71.5 363t-195.5 130q-123 0 -193.5 -130t-70.5 -363z" />
<glyph unicode="1" horiz-adv-x="763" d="M70 1141q-1 17 2.5 25.5t17.5 19.5l262 221q30 27 72 27h106q17 0 28 -11.5t11 -27.5v-1354q0 -17 -11 -29t-28 -12h-180q-18 0 -29.5 11.5t-11.5 29.5v1010l-184 -41q-15 -3 -28.5 5t-14.5 23z" />
<glyph unicode="2" horiz-adv-x="1132" d="M86 41v20q0 27 16 48q207 254 531 682q106 128 106 233q0 77 -58 133.5t-165 56.5q-67 0 -128.5 -37t-106.5 -85q-13 -14 -29.5 -14t-28.5 14l-102 100q-10 10 -11 26t9 29q7 8 19.5 22t54.5 50t87.5 63t115 49.5t139.5 22.5q111 0 201 -33.5t148.5 -91.5t90 -133.5 t31.5 -161.5q0 -49 -9 -91t-33 -88.5t-41.5 -73.5t-58.5 -87q-31 -44 -81.5 -111.5t-84.5 -111t-105.5 -133.5t-86.5 -109v-4h450q17 0 29 -12t12 -27v-145q0 -17 -12 -29t-29 -12h-831q-17 0 -28 12t-11 29z" />
<glyph unicode="3" horiz-adv-x="1142" d="M98 166q-20 27 2 53l109 105q28 25 53 0q53 -53 113 -84t147 -31q97 0 160 54t63 136q0 103 -74.5 160t-215.5 57h-119q-17 0 -28 11t-11 30v134q0 43 39 43h119q126 0 194 53.5t68 138.5q0 84 -61.5 138.5t-143.5 54.5q-131 0 -213 -101q-11 -12 -27 -13t-30 11l-103 96 q-13 11 -12 27t12 29q26 33 60.5 62.5t83 59t114.5 47t138 17.5q124 0 225.5 -46.5t163 -135.5t61.5 -205q0 -65 -20 -121t-54 -95t-69 -65.5t-74 -44.5v-8q46 -17 88 -46t80.5 -70.5t62 -100.5t23.5 -125q0 -181 -134 -296t-351 -115q-274 0 -439 186z" />
<glyph unicode="4" horiz-adv-x="1306" d="M59 346v133q0 42 27 72l725 881q19 22 53 22h101q17 0 29 -12t12 -29v-889h168q18 0 29 -10.5t11 -26.5v-141q0 -16 -11 -28.5t-29 -12.5h-168l2 -264q0 -17 -12 -29t-29 -12h-174q-16 0 -28.5 12t-12.5 29v264h-652q-17 0 -29 12.5t-12 28.5zM342 518h418v510h-4 l-414 -506v-4z" />
<glyph unicode="5" horiz-adv-x="1157" d="M120 192.5q-1 13.5 19 32.5l105 105q27 23 51 2q41 -34 70 -54.5t86 -42.5t116 -22q105 0 174.5 74t69.5 176q0 101 -67 168t-187 67h-326q-30 0 -47.5 22.5t-17.5 51.5v623q0 16 11.5 27.5t29.5 11.5h665q17 0 29 -12t12 -27v-144q0 -17 -12 -29t-29 -12h-469v-280h183 q221 0 352 -129.5t131 -337.5q0 -98 -39 -187t-106.5 -154t-162.5 -103.5t-202 -38.5q-80 0 -152 17.5t-123 46.5t-85 56t-56 54q-22 25 -23 38.5z" />
<glyph unicode="6" horiz-adv-x="1189" d="M113 561q0 127 30 241t77 198.5t113 158.5t129.5 123t135 89.5t121.5 62t96 36.5q47 12 59 -28l50 -125q18 -45 -39 -62q-36 -11 -80 -30.5t-106 -55.5t-114.5 -78t-98 -103.5t-64.5 -127.5q31 20 102 40t138 20q81 0 156.5 -30t137 -85t99 -144t37.5 -198 q0 -131 -65 -242.5t-175 -176t-238 -64.5q-120 0 -216.5 46t-158 126t-94 184.5t-32.5 224.5zM367 530q0 -56 15 -110.5t43.5 -101t77 -75t109.5 -28.5q102 0 172 70.5t70 181.5q0 105 -71 176.5t-173 71.5q-94 0 -158 -58t-85 -127z" />
<glyph unicode="7" horiz-adv-x="1058" d="M86 1247v148q0 15 12 27t27 12h879q15 0 27.5 -12t12.5 -27t-8 -31l-620 -1307q-26 -57 -72 -57h-158q-51 0 -51 41q0 23 10 43l535 1118v4h-555q-15 0 -27 12t-12 29z" />
<glyph unicode="8" horiz-adv-x="1243" d="M121 383q0 126 75.5 215.5t180.5 136.5v8q-86 37 -151.5 123.5t-65.5 200.5q0 173 130.5 280t325.5 107q202 0 334.5 -106.5t132.5 -280.5q0 -110 -66.5 -196.5t-150.5 -125.5v-10q108 -45 182 -135.5t74 -216.5q0 -175 -138.5 -289t-367.5 -114q-222 0 -358.5 114 t-136.5 289zM401 389q0 -88 61 -141t161 -53q98 0 158.5 53t60.5 141q0 74 -58.5 136.5t-160.5 86.5q-102 -24 -162 -87t-60 -136zM430 1057q0 -151 193 -199q94 23 142 76t48 123q0 77 -54.5 128.5t-142.5 51.5q-82 0 -134 -52t-52 -128z" />
<glyph unicode="9" horiz-adv-x="1189" d="M98 971q0 199 141 341t336 142q120 0 217 -46.5t158.5 -126.5t94 -185t32.5 -224q0 -127 -30 -241t-77 -198.5t-113 -158.5t-130 -123.5t-135 -90t-121 -61.5t-96 -36q-47 -15 -60 29l-49 125q-17 42 39 61q36 11 80.5 30t106.5 55t114.5 78.5t98 103.5t63.5 126 q-34 -19 -104 -39t-136 -20q-81 0 -156.5 30t-137 86t-99 145t-37.5 198zM336 967q0 -102 71.5 -175t172.5 -73q95 0 158.5 57.5t84.5 126.5q0 56 -15 110t-43.5 100.5t-77 75t-109.5 28.5q-99 0 -170.5 -74.5t-71.5 -175.5z" />
<glyph unicode=":" horiz-adv-x="579" d="M119 147q0 72 49.5 121t120.5 49q72 0 122 -49t50 -121q0 -71 -50 -120.5t-122 -49.5q-71 0 -120.5 49.5t-49.5 120.5zM119 799q0 70 49.5 119t120.5 49q72 0 122 -49t50 -119q0 -72 -50 -121t-122 -49q-71 0 -120.5 49t-49.5 121z" />
<glyph unicode=";" horiz-adv-x="555" d="M106 143q0 65 45.5 107.5t114.5 42.5q79 0 132 -64.5t53 -179.5q0 -207 -148 -403q-23 -19 -43 -2l-57 41q-19 19 2 47q102 134 102 250q0 14 -4 38q-30 -20 -70 -20q-60 0 -93.5 40.5t-33.5 102.5zM113 799q0 71 49 119.5t121 48.5q71 0 119.5 -48.5t48.5 -119.5 q0 -72 -48.5 -121t-119.5 -49q-72 0 -121 49t-49 121z" />
<glyph unicode="&#x3c;" d="M190 465v10q0 9 6.5 19.5t14.5 15.5l711 434q20 12 38.5 2t18.5 -35v-143q0 -20 -18 -33l-441 -262l441 -254q18 -13 18 -33v-143q0 -25 -18.5 -35t-38.5 2l-711 420q-8 5 -14.5 15.5t-6.5 19.5z" />
<glyph unicode="=" d="M242 299v117q0 16 11 27.5t28 11.5h667q17 0 28 -11.5t11 -27.5v-117q0 -16 -11 -27.5t-28 -11.5h-667q-17 0 -28 11.5t-11 27.5zM242 731v115q0 16 11 27.5t28 11.5h667q17 0 28 -11.5t11 -27.5v-115q0 -16 -11 -27.5t-28 -11.5h-667q-17 0 -28 11.5t-11 27.5z" />
<glyph unicode="&#x3e;" d="M250 43v143q0 22 18 33l439 254l-439 262q-18 11 -18 33v143q0 25 18.5 35t38.5 -2l711 -434q8 -5 14 -15.5t6 -19.5v-10q0 -9 -6 -19.5t-14 -15.5l-711 -420q-20 -12 -38.5 -2t-18.5 35z" />
<glyph unicode="?" horiz-adv-x="1019" d="M94.5 1247.5q0.5 15.5 11.5 26.5q6 7 17 19.5t49 43.5t81 54.5t112.5 43t142.5 19.5q164 0 280.5 -98t116.5 -246q0 -58 -23 -110t-57.5 -87.5t-75 -70t-75 -60.5t-57.5 -56t-23 -58v-68q0 -19 -10.5 -31t-30.5 -12h-166q-16 0 -27.5 11t-11.5 28v86q0 54 29.5 103 t71.5 86t83.5 71.5t71 73.5t29.5 78q0 58 -45 97.5t-119 39.5q-43 0 -82 -13.5t-59.5 -29t-45.5 -37t-34 -27.5q-25 -15 -45 2l-97 95q-12 11 -11.5 26.5zM301 147q0 69 49.5 119.5t118.5 50.5t119.5 -50.5t50.5 -119.5t-50.5 -118t-119.5 -49t-118.5 49t-49.5 118z" />
<glyph unicode="@" horiz-adv-x="2078" d="M117 457q0 289 121.5 515.5t344 354t509.5 127.5q208 0 378 -65.5t282 -181.5t172.5 -274t60.5 -343q0 -103 -31.5 -200t-88.5 -175.5t-147 -126t-198 -47.5q-183 0 -244 160h-16q-35 -69 -105 -114.5t-162 -45.5q-159 0 -264.5 126t-105.5 306q0 185 106 306.5 t270 121.5q134 0 248 -121q4 12 10 31t9 26t9.5 18.5t14.5 15t21 7t32 3.5h35q16 0 27.5 -11t11.5 -28v-375q0 -126 33.5 -171.5t93.5 -45.5q97 0 154 95t57 235q0 142 -42.5 262t-124.5 210t-211.5 140.5t-293.5 50.5q-341 0 -542 -211.5t-201 -574.5q0 -245 135.5 -436.5 t358.5 -284.5q34 -15 22 -49l-49 -129q-14 -35 -45 -23q-284 103 -464.5 354.5t-180.5 567.5zM836 487q-6 -96 48 -161.5t130 -65.5q62 0 102 33.5t55 80.5t17 109v76q-9 44 -59 89.5t-117 45.5q-74 0 -123 -57.5t-53 -149.5z" />
<glyph unicode="A" horiz-adv-x="1368" d="M4 53l637 1379q11 22 35 22h20q24 0 35 -22l631 -1379q4 -9 4 -18q0 -11 -6 -19q-10 -16 -33 -16h-178q-23 0 -35.5 9.5t-23.5 31.5l-101 221h-612l-101 -221q-16 -41 -59 -41h-178q-23 0 -33 16q-6 9 -6 19q0 9 4 18zM477 489h412l-205 451h-6z" />
<glyph unicode="B" horiz-adv-x="1261" d="M174 39v1356q0 16 11 27.5t28 11.5h469q183 0 307.5 -109t124.5 -270q0 -108 -59 -192t-146 -128v-10q48 -17 89 -42.5t78 -64.5t58 -96.5t21 -126.5q0 -170 -128.5 -282.5t-317.5 -112.5h-496q-17 0 -28 11.5t-11 27.5zM438 242h252q77 0 128.5 53.5t51.5 132.5 q0 76 -51.5 127t-128.5 51h-252v-364zM438 831h224q76 0 124 53.5t48 131.5q0 77 -47.5 125.5t-124.5 48.5h-224v-359z" />
<glyph unicode="C" horiz-adv-x="1409" d="M90 715q0 151 58.5 288t157 235.5t235.5 157t288 58.5q152 0 270.5 -47t225.5 -143q13 -12 13.5 -29t-11.5 -29l-125 -129q-10 -12 -24.5 -12t-26.5 12q-65 57 -147 89t-168 32q-128 0 -233.5 -65t-164.5 -174.5t-59 -237.5q0 -194 132.5 -333.5t326.5 -139.5 q169 0 313 117q12 10 27 9.5t24 -9.5l127 -132q10 -10 10 -25q0 -18 -12 -30q-204 -198 -498 -198q-101 0 -197 26t-177 73t-149 114.5t-115.5 148.5t-74 176.5t-26.5 196.5z" />
<glyph unicode="D" horiz-adv-x="1505" d="M174 39v1356q0 15 11 27t26 12h485q145 0 278.5 -57t230 -153t153.5 -228t57 -277q0 -117 -36.5 -227t-103 -198t-155 -154.5t-198 -103t-226.5 -36.5h-485q-15 0 -26 12t-11 27zM438 250h234q201 0 331 130t130 339q0 208 -130 337.5t-331 129.5h-234v-936z" />
<glyph unicode="E" horiz-adv-x="1179" d="M174 39v1356q0 16 11 27.5t28 11.5h834q17 0 27.5 -11.5t10.5 -27.5v-168q0 -16 -10.5 -27.5t-27.5 -11.5h-607v-336h506q15 0 27 -12t12 -27v-170q0 -17 -11.5 -28t-27.5 -11h-506v-358h607q17 0 27.5 -11.5t10.5 -27.5v-168q0 -16 -10.5 -27.5t-27.5 -11.5h-834 q-17 0 -28 11.5t-11 27.5z" />
<glyph unicode="F" horiz-adv-x="1140" d="M174 39v1356q0 16 11 27.5t28 11.5h834q17 0 27.5 -11.5t10.5 -27.5v-168q0 -16 -10.5 -27.5t-27.5 -11.5h-607v-385h506q15 0 27 -12t12 -27v-168q0 -15 -12 -27t-27 -12h-506v-518q0 -15 -12 -27t-27 -12h-188q-17 0 -28 11.5t-11 27.5z" />
<glyph unicode="G" horiz-adv-x="1470" d="M90 715q0 151 58 288t156 235.5t234.5 157t286.5 58.5q136 0 265 -49.5t235 -140.5q12 -12 13 -29t-11 -29l-127 -133q-25 -25 -53 0q-134 119 -309 119q-125 0 -231.5 -65t-167 -174.5t-60.5 -235.5q0 -125 61 -233t167.5 -172t232.5 -64q112 0 243 51v174h-163 q-17 0 -28 11t-11 26v162q0 17 11 28t28 11h393q15 0 26 -12t11 -27v-525q0 -19 -17 -32q-9 -5 -25 -14t-68 -32t-108 -40.5t-140 -32t-167 -14.5q-150 0 -286.5 57.5t-234.5 155t-156 233.5t-58 287z" />
<glyph unicode="H" horiz-adv-x="1550" d="M174 39v1356q0 15 12 27t27 12h190q17 0 28 -11.5t11 -27.5v-543h668v543q0 16 11 27.5t28 11.5h188q15 0 27 -12t12 -27v-1356q0 -15 -12 -27t-27 -12h-188q-17 0 -28 11.5t-11 27.5v565h-668v-565q0 -16 -11 -27.5t-28 -11.5h-190q-15 0 -27 12t-12 27z" />
<glyph unicode="I" horiz-adv-x="616" d="M174 39v1356q0 15 12 27t27 12h190q15 0 27 -12t12 -27v-1356q0 -15 -12 -27t-27 -12h-190q-15 0 -27 12t-12 27z" />
<glyph unicode="J" horiz-adv-x="933" d="M29 129q-8 12 -8 24q0 14 12 27l106 109q15 14 30 14q16 0 32 -16q61 -66 135 -66q71 0 117.5 44.5t46.5 142.5v987q0 16 11 27.5t28 11.5h192q17 0 28 -11.5t11 -27.5v-987q0 -104 -33.5 -186.5t-92 -135t-136 -79.5t-168.5 -27q-190 0 -311 149z" />
<glyph unicode="K" horiz-adv-x="1314" d="M174 49v1335q0 21 14 35.5t35 14.5h180q20 0 35 -15t15 -35v-553l516 582q17 21 39 21h204q30 0 41.5 -25.5t-8.5 -48.5l-534 -602l573 -686q9 -12 9 -25q-1 -10 -5 -21q-12 -26 -41 -26h-223q-28 0 -37 14l-534 660v-625q0 -20 -15 -34.5t-35 -14.5h-180q-21 0 -35 14 t-14 35z" />
<glyph unicode="L" horiz-adv-x="1034" d="M174 39v1356q0 16 11 27.5t28 11.5h188q15 0 27 -12t12 -27v-1149h523q17 0 27.5 -11.5t10.5 -27.5v-168q0 -16 -10.5 -27.5t-27.5 -11.5h-750q-17 0 -28 11.5t-11 27.5z" />
<glyph unicode="M" horiz-adv-x="1794" d="M96 47l244 1376q4 31 37 31h33q24 0 34 -20l451 -967h6l451 967q10 20 34 20h33q33 0 37 -31l242 -1376q1 -6 1 -11q0 -13 -7 -23q-10 -13 -31 -13h-186q-13 0 -24.5 10t-14.5 21l-121 776h-6l-359 -805q-7 -22 -35 -22h-36q-24 0 -35 22l-363 805h-6l-119 -776 q-2 -11 -13 -21t-24 -10h-184q-20 0 -31 12q-9 10 -9 26q0 4 1 9z" />
<glyph unicode="N" horiz-adv-x="1558" d="M174 39v1378q0 15 12 26t27 11h31q21 0 35 -14l835 -891h4v846q0 16 11 27.5t28 11.5h189q15 0 26.5 -12t11.5 -27v-1379q0 -15 -11.5 -25.5t-26.5 -10.5h-29q-21 0 -35 14l-840 926h-4v-881q0 -16 -11 -27.5t-28 -11.5h-186q-15 0 -27 12t-12 27z" />
<glyph unicode="O" horiz-adv-x="1652" d="M90 715q0 101 26 197t73 177t114.5 149t148.5 115.5t176.5 74t196.5 26.5q202 0 371.5 -98.5t268 -268.5t98.5 -372t-98.5 -371t-268 -266.5t-371.5 -97.5q-151 0 -287.5 57.5t-234.5 155.5t-155.5 234.5t-57.5 287.5zM356 715q0 -193 138 -331t331 -138q127 0 235.5 63 t172 171t63.5 235t-63.5 236t-172 173t-235.5 64t-235 -64t-171 -173t-63 -236z" />
<glyph unicode="P" horiz-adv-x="1206" d="M174 39v1356q0 16 11 27.5t28 11.5h481q189 0 324 -133.5t135 -319.5q0 -190 -134.5 -325.5t-322.5 -135.5h-256v-481q0 -15 -12 -27t-27 -12h-188q-17 0 -28 11.5t-11 27.5zM440 770h246q86 0 144.5 61t58.5 152q0 85 -58.5 142t-144.5 57h-246v-412z" />
<glyph unicode="Q" horiz-adv-x="1652" d="M90 715q0 101 26 197t73 177t114.5 149t148.5 115.5t176.5 74t196.5 26.5q202 0 371.5 -98.5t268 -268.5t98.5 -372q0 -206 -109 -381t-291 -275l256 -403q13 -22 2.5 -42t-35.5 -20h-217q-7 0 -17.5 6.5t-14.5 14.5l-219 371q-50 -6 -93 -6q-151 0 -287.5 57.5 t-234.5 155.5t-155.5 234.5t-57.5 287.5zM356 715q0 -193 138 -331t331 -138q127 0 235.5 63t172 171t63.5 235t-63.5 236t-172 173t-235.5 64t-235 -64t-171 -173t-63 -236z" />
<glyph unicode="R" horiz-adv-x="1351" d="M174 39v1356q0 16 11 27.5t28 11.5h586q185 0 315.5 -129t130.5 -312q0 -138 -83 -248t-220 -165l281 -521q11 -20 0.5 -39.5t-35.5 -19.5h-215q-24 0 -33 18l-272 543h-228v-522q0 -15 -12 -27t-27 -12h-188q-17 0 -28 11.5t-11 27.5zM442 780h334q82 0 142.5 61.5 t60.5 147.5q0 81 -60.5 140t-142.5 59h-334v-408z" />
<glyph unicode="S" horiz-adv-x="1116" d="M95 164q-1 2 -1 5q0 12 10 32l74 127q11 20 34 23t36 -9q53 -40 89.5 -63t97 -43.5t122.5 -20.5q79 0 132.5 46t53.5 112q0 76 -63.5 133.5t-196.5 111.5q-81 33 -143 69.5t-120.5 89.5t-90 125t-31.5 159q0 71 27 138.5t80.5 125.5t145 93.5t208.5 35.5q73 0 144.5 -16 t125.5 -41.5t86 -44t54 -35.5q15 -9 19 -31t-7 -37l-78 -116q-13 -20 -32.5 -28t-39.5 3q-4 3 -26 16.5t-27 16.5l-25 15t-28 16t-26.5 13t-28.5 12.5t-27.5 9.5t-31.5 8t-30.5 4t-33.5 2q-84 0 -132 -41.5t-48 -102.5q0 -71 57 -124t184 -105q48 -19 86.5 -37t84.5 -43.5 t81 -52t69.5 -62.5t57 -75t36 -88.5t13.5 -104.5q0 -165 -131 -285t-340 -120q-266 0 -450 159q-17 13 -20 25z" />
<glyph unicode="T" horiz-adv-x="1079" d="M53 1227v168q0 16 11 27.5t28 11.5h895q17 0 28 -11.5t11 -27.5v-168q0 -16 -11 -27.5t-28 -11.5h-313v-1149q0 -15 -12 -27t-27 -12h-191q-15 0 -26.5 12t-11.5 27v1149h-314q-17 0 -28 11.5t-11 27.5z" />
<glyph unicode="U" horiz-adv-x="1460" d="M160 526v869q0 15 12 27t27 12h194q17 0 28 -11.5t11 -27.5v-854q0 -131 82 -213t215 -82t216 82t83 211v856q0 16 11 27.5t28 11.5h195q15 0 26.5 -12t11.5 -27v-869q0 -115 -44 -216.5t-119.5 -173.5t-181.5 -114t-226 -42q-159 0 -289.5 71t-205 196.5t-74.5 278.5z " />
<glyph unicode="V" horiz-adv-x="1361" d="M2 1380q-4 9 -4 18q0 10 6 19q10 17 33 17h209q26 0 35 -23l395 -881h10l395 881q9 23 35 23h209q23 0 33 -17q6 -9 6 -19q0 -9 -4 -18l-635 -1378q-11 -22 -35 -22h-20q-24 0 -35 22z" />
<glyph unicode="W" horiz-adv-x="1812" d="M45 1384q-2 8 -2 15q1 12 7 21q10 14 32 14h188q12 0 23 -9t14 -20l213 -817h8l326 844q7 22 35 22h37q28 0 35 -22l327 -844h8l209 817q3 11 14 20t23 9h189q22 0 32 -14q6 -9 6 -21q0 -7 -2 -15l-387 -1376q-3 -12 -14 -20t-23 -8h-32q-28 0 -35 22l-367 928h-10 l-362 -928q-11 -22 -35 -22h-33q-12 0 -23 8t-14 20z" />
<glyph unicode="X" horiz-adv-x="1273" d="M50 18q-5 9 -6 18q0 10 7 21l426 678l-409 641q-13 20 -2.5 39t36.5 19h238q19 0 33 -19l258 -434h8l264 434q9 19 33 19h238q26 0 36.5 -19t-2.5 -39l-411 -641l426 -678q6 -12 6 -22q-1 -9 -5 -17q-10 -18 -36 -18h-221q-26 0 -35 18l-293 469h-8l-287 -469 q-14 -18 -35 -18h-221q-26 0 -38 18z" />
<glyph unicode="Y" horiz-adv-x="1214" d="M4 1414q11 20 35 20h209q19 0 33 -19l327 -471l328 471q14 19 33 19h211q24 0 34 -20q5 -9 5 -18q0 -11 -7 -22l-473 -682v-653q0 -15 -12 -27t-27 -12h-188q-17 0 -28 11.5t-11 27.5v651l-467 684q-6 11 -6 21t4 19z" />
<glyph unicode="Z" horiz-adv-x="1101" d="M51 39q0 34 15 63l596 1076v8h-512q-15 0 -27 12t-12 27v170q0 15 12 27t27 12h856q15 0 26.5 -12t11.5 -27q0 -27 -18 -60l-584 -1083v-4h523q17 0 28 -11.5t11 -27.5v-170q0 -16 -11 -27.5t-28 -11.5h-875q-15 0 -27 12t-12 27z" />
<glyph unicode="[" horiz-adv-x="722" d="M133 -449v1844q0 15 12 27t27 12h463q15 0 27 -12t12 -27v-127q0 -17 -11.5 -28t-27.5 -11h-266v-1512h266q15 0 27 -10.5t12 -25.5v-130q0 -15 -12 -26.5t-27 -11.5h-463q-15 0 -27 11.5t-12 26.5z" />
<glyph unicode="\" horiz-adv-x="851" d="M111 1382q-6 22 4 37t32 15h156q12 0 23 -8t14 -19l401 -1356q6 -21 -4.5 -36t-31.5 -15h-158q-11 0 -22.5 8.5t-14.5 18.5z" />
<glyph unicode="]" horiz-adv-x="722" d="M49 -319q0 15 12 25.5t27 10.5h266v1512h-266q-16 0 -27.5 11t-11.5 28v127q0 15 12 27t27 12h463q15 0 27 -12t12 -27v-1844q0 -15 -12 -26.5t-27 -11.5h-463q-15 0 -27 11.5t-12 26.5v130z" />
<glyph unicode="^" horiz-adv-x="1073" d="M74.5 807q-10.5 19 1.5 39l426 596q12 20 35 20h10q23 0 35 -20l415 -596q12 -20 2 -39t-34 -19h-142q-18 0 -32 19l-252 346l-256 -346q-14 -19 -33 -19h-141q-24 0 -34.5 19z" />
<glyph unicode="_" horiz-adv-x="1234" d="M231 -59q0 17 11 28t28 11h695q17 0 28 -11t11 -28v-80q0 -15 -11 -26t-28 -11h-695q-17 0 -28 11t-11 26v80z" />
<glyph unicode="`" horiz-adv-x="618" d="M109 1294l57 105q7 13 23.5 14.5t29.5 -8.5l336 -199q10 -5 13.5 -16t-1.5 -23l-37 -73q-13 -29 -51 -13l-358 158q-32 16 -12 55z" />
<glyph unicode="a" horiz-adv-x="987" d="M66 301q0 130 100.5 213.5t275.5 83.5q43 0 88.5 -7t69.5 -13l25 -7v16q0 80 -27 120q-30 43 -104 43q-61 0 -142 -11t-125 -24q-22 -7 -36 5.5t-17 35.5l-20 106q-2 9 -2 17q0 31 32 41q14 6 57 16t120 20.5t147 10.5q108 0 179.5 -27t109.5 -83.5t52.5 -127 t14.5 -174.5v-510q0 -19 -13 -32t-32 -13h-69q-26 0 -41 33l-27 63q-123 -119 -297 -119q-143 0 -231 87t-88 237zM311 301q0 -61 36.5 -97t101.5 -36q57 0 107.5 34.5t61.5 65.5v140q-63 28 -139 28q-81 0 -124.5 -35.5t-43.5 -99.5z" />
<glyph unicode="b" horiz-adv-x="1153" d="M131 45v1344q0 17 14 31t31 14h166q18 0 31.5 -13.5t13.5 -31.5v-463q37 16 101.5 28.5t129.5 12.5q206 0 332.5 -141t126.5 -353q0 -134 -56.5 -247.5t-159 -181t-228.5 -67.5q-58 0 -112 14.5t-89.5 35.5t-62.5 42t-39 35l-13 15l-22 -74q-17 -45 -47 -45h-72 q-18 0 -31.5 13.5t-13.5 31.5zM387 342q19 -50 72.5 -90.5t136.5 -40.5q105 0 164 77.5t59 184.5t-62 183.5t-173 76.5q-53 0 -102 -13.5t-72 -26.5l-23 -13v-338z" />
<glyph unicode="c" horiz-adv-x="1007" d="M74 473q0 209 145 351.5t356 142.5q203 0 353 -160q14 -16 10 -34t-20 -34l-87 -94q-12 -13 -25 -13q-16 0 -36 19q-86 82 -188 82q-109 0 -179.5 -75t-70.5 -185q0 -112 69.5 -187t178.5 -75q48 0 89.5 18t62.5 37t48 49q11 12 29.5 14.5t30.5 -7.5l92 -78 q24 -21 24 -43q0 -13 -8 -25q-127 -199 -375 -199q-137 0 -251 64t-181 178t-67 254z" />
<glyph unicode="d" horiz-adv-x="1157" d="M74 473q0 138 57.5 250t165.5 178t246 66q122 0 227 -39v461q0 17 14 31t31 14h166q18 0 31.5 -13.5t13.5 -31.5v-1344q0 -19 -13 -32t-32 -13h-76q-32 0 -45 45l-24 74q-4 -6 -13 -15.5t-38.5 -34t-62.5 -43t-86.5 -34t-109.5 -15.5q-194 0 -323 140.5t-129 355.5z M338 473q0 -107 59 -184.5t164 -77.5q83 0 136.5 40.5t72.5 90.5v338q-9 6 -25 15t-67.5 23.5t-104.5 14.5q-111 0 -173 -76.5t-62 -183.5z" />
<glyph unicode="e" horiz-adv-x="1046" d="M74 473q0 133 60 245.5t170 180.5t247 68q186 0 310 -124t124 -315q0 -33 -4 -61q-1 -18 -15 -30.5t-30 -12.5h-606q2 -90 68.5 -154.5t166.5 -64.5q118 0 203 69q20 16 35 16t26 -16l80 -106q14 -15 14 -30q0 -17 -18 -32q-151 -129 -352 -129q-138 0 -248.5 67.5 t-170.5 180.5t-60 248zM344 592h383q-3 70 -54 117t-128 47q-84 0 -138 -46t-63 -118z" />
<glyph unicode="f" horiz-adv-x="806" d="M66 762v139q0 20 12.5 32.5t32.5 12.5h98v113q0 190 98.5 292.5t284.5 102.5q86 0 163 -29t115 -63q12 -7 16 -24q1 -5 1 -10q0 -11 -6 -19l-72 -125q-8 -14 -25 -18t-32 5q-28 18 -70.5 34t-77.5 16q-83 0 -111 -40t-28 -122v-113h258q20 0 32.5 -12.5t12.5 -32.5v-139 q0 -18 -12.5 -31.5t-32.5 -13.5h-258v-672q0 -19 -13 -32t-32 -13h-166q-19 0 -32 13t-13 32v672h-98q-20 0 -32.5 13.5t-12.5 31.5z" />
<glyph unicode="g" horiz-adv-x="1157" d="M74 471q0 215 129 355.5t323 140.5q56 0 109 -14.5t87.5 -35.5t61.5 -42t40 -35l12 -15l24 76q13 45 45 45h76q19 0 32 -13t13 -32v-911q0 -111 -37 -199.5t-102 -144.5t-149.5 -85.5t-182.5 -29.5q-104 0 -199 35.5t-141 71.5q-11 9 -14 25t4 28l61 133q6 14 23.5 17.5 t32.5 -5.5q126 -72 225 -72q115 0 169 49.5t54 176.5v26q-105 -39 -227 -39q-138 0 -246 66t-165.5 178t-57.5 250zM338 471q0 -107 62 -183.5t173 -76.5q53 0 102 13.5t72 26.5l23 13v338q-19 50 -72.5 90.5t-136.5 40.5q-105 0 -164 -77.5t-59 -184.5z" />
<glyph unicode="h" horiz-adv-x="1130" d="M131 45v1344q0 17 14 31t31 14h166q18 0 31.5 -13.5t13.5 -31.5v-502q92 80 242 80q383 0 383 -447v-475q0 -18 -13.5 -31.5t-31.5 -13.5h-166q-19 0 -32 13t-13 32v477q0 100 -44 155.5t-128 55.5q-79 0 -128 -44.5t-69 -121.5v-522q0 -45 -49 -45h-162 q-18 0 -31.5 13.5t-13.5 31.5z" />
<glyph unicode="i" horiz-adv-x="518" d="M94 1272q0 68 46.5 115t115.5 47t116.5 -47t47.5 -115t-47.5 -116t-116.5 -48q-68 0 -115 48t-47 116zM131 45v856q0 20 13.5 32.5t31.5 12.5h166q18 0 31.5 -12.5t13.5 -32.5v-856q0 -18 -13.5 -31.5t-31.5 -13.5h-166q-18 0 -31.5 13.5t-13.5 31.5z" />
<glyph unicode="j" horiz-adv-x="518" d="M-39 -367q-7 18 -7 34q0 32 32 48q32 18 52.5 32t44.5 39t36 60t12 80v975q0 20 13.5 32.5t31.5 12.5h166q18 0 31.5 -12.5t13.5 -32.5v-940q0 -102 -22 -180.5t-64 -132t-89.5 -88t-111.5 -62.5q-18 -10 -39 -10q-6 0 -13 1q-28 4 -38 30zM94 1272q0 68 46.5 115 t115.5 47t116.5 -47t47.5 -115t-47.5 -116t-116.5 -48q-68 0 -115 48t-47 116z" />
<glyph unicode="k" horiz-adv-x="1058" d="M131 45v1344q0 17 14 31t31 14h166q18 0 31.5 -13.5t13.5 -31.5v-801l326 330q32 28 59 28h193q29 0 38.5 -24.5t-8.5 -44.5l-374 -369l393 -440q13 -13 13 -28q1 -8 -3 -16q-10 -24 -39 -24h-201q-30 0 -41 18l-356 426v-399q0 -19 -13 -32t-32 -13h-166 q-18 0 -31.5 13.5t-13.5 31.5z" />
<glyph unicode="l" horiz-adv-x="522" d="M133 45v1344q0 17 14 31t31 14h166q17 0 31 -14t14 -31v-1344q0 -18 -13.5 -31.5t-31.5 -13.5h-166q-18 0 -31.5 13.5t-13.5 31.5z" />
<glyph unicode="m" horiz-adv-x="1695" d="M131 45v856q0 20 13.5 32.5t31.5 12.5h74q32 0 39 -26l35 -91q21 25 39.5 42t55 42.5t86 39.5t107.5 14q97 0 158.5 -34t124.5 -110q25 26 43.5 42.5t58.5 44t92 42.5t111 15q89 0 155.5 -22.5t108 -60.5t67 -95.5t35 -120t9.5 -140.5v-483q0 -19 -13.5 -32t-33.5 -13 h-164q-19 0 -32 13t-13 32v490q0 198 -164 198q-38 0 -70.5 -10t-51 -24.5t-31.5 -29t-18 -24.5l-5 -10q4 -47 4 -90v-500q0 -18 -13.5 -31.5t-31.5 -13.5h-168q-20 0 -32.5 13t-12.5 32v490q0 98 -35 148t-121 50q-78 0 -119 -41.5t-63 -105.5v-541q0 -18 -13.5 -31.5 t-31.5 -13.5h-166q-18 0 -31.5 13.5t-13.5 31.5z" />
<glyph unicode="n" horiz-adv-x="1132" d="M131 45v856q0 20 13.5 32.5t31.5 12.5h78q30 0 39 -28l35 -89q16 18 28 30t42 34.5t59.5 36.5t76.5 25.5t99 11.5q379 0 379 -432v-490q0 -18 -13.5 -31.5t-31.5 -13.5h-166q-19 0 -32 13t-13 32v490q0 198 -164 198q-84 0 -134 -43.5t-71 -103.5v-541q0 -26 -12.5 -35.5 t-46.5 -9.5h-152q-18 0 -31.5 13.5t-13.5 31.5z" />
<glyph unicode="o" horiz-adv-x="1114" d="M74 475q0 131 64.5 244.5t176.5 180.5t242 67q131 0 243 -67t177 -180.5t65 -244.5q0 -133 -65 -247.5t-177 -182.5t-243 -68q-98 0 -187.5 40t-154 107.5t-103 159t-38.5 191.5zM311 475q0 -109 72 -186.5t174 -77.5q103 0 175.5 77.5t72.5 186.5q0 107 -72.5 182.5 t-175.5 75.5t-174.5 -75.5t-71.5 -182.5z" />
<glyph unicode="p" horiz-adv-x="1159" d="M131 -442v1343q0 19 13 32t32 13h76q32 0 45 -45l25 -76q4 6 12.5 15.5t38 34t63 43t86.5 34t109 15.5q194 0 323 -140.5t129 -355.5q0 -138 -57.5 -250t-165.5 -178t-246 -66q-122 0 -227 39v-458q0 -17 -14 -31t-31 -14h-166q-18 0 -31.5 13.5t-13.5 31.5zM387 264 q9 -6 25 -15t67.5 -23.5t104.5 -14.5q111 0 173 76.5t62 183.5t-59 184.5t-164 77.5q-83 0 -136.5 -40.5t-72.5 -90.5v-338z" />
<glyph unicode="q" horiz-adv-x="1157" d="M74 471q0 215 129 355.5t323 140.5q56 0 109 -14.5t87.5 -35.5t61.5 -42t40 -35l12 -15l24 76q13 45 45 45h76q19 0 32 -13t13 -32v-1343q0 -18 -13.5 -31.5t-31.5 -13.5h-166q-17 0 -31 14t-14 31v458q-105 -39 -227 -39q-138 0 -246 66t-165.5 178t-57.5 250zM338 471 q0 -107 62 -183.5t173 -76.5q53 0 102 13.5t72 26.5l23 13v338q-19 50 -72.5 90.5t-136.5 40.5q-105 0 -164 -77.5t-59 -184.5z" />
<glyph unicode="r" horiz-adv-x="792" d="M131 45v856q0 20 13.5 32.5t31.5 12.5h76q29 0 41 -31l35 -92q22 31 51.5 59.5t89 56.5t125.5 28q90 0 144 -25q39 -18 39 -46q0 -10 -5 -22l-61 -139q-7 -17 -23 -22.5t-33 2.5q-41 18 -88 18q-68 0 -116 -32.5t-64 -65.5v-590q0 -45 -53 -45h-158q-18 0 -31.5 13.5 t-13.5 31.5z" />
<glyph unicode="s" horiz-adv-x="845" d="M78 690q0 116 88 196.5t252 80.5q172 0 280 -70q26 -21 26 -44q0 -11 -5 -22l-53 -108q-14 -23 -37 -23q-11 0 -23 5q-106 47 -188 47q-44 0 -67 -18t-23 -44q0 -30 29.5 -50t105.5 -52q64 -26 103.5 -45t84 -48t69 -60t40.5 -75.5t16 -99.5q0 -119 -96.5 -201 t-267.5 -82q-187 0 -310 86q-10 7 -14.5 21.5t2.5 30.5l62 123q8 17 23 21.5t32 -5.5q97 -61 209 -61q104 0 104 67q0 32 -42 63t-136 68q-138 53 -201 123t-63 176z" />
<glyph unicode="t" horiz-adv-x="798" d="M59 762v139q0 20 12 32.5t31 12.5h93v262q0 18 13.5 31.5t31.5 13.5h168q19 0 31 -13t12 -32v-262h221q19 0 32 -12.5t13 -32.5v-139q0 -18 -13.5 -31.5t-31.5 -13.5h-221v-426q0 -44 19.5 -61t57.5 -17q47 0 144 31q20 7 35 0t18 -25l27 -125q2 -7 2 -14q0 -26 -29 -41 q-32 -18 -116 -40t-150 -22q-76 0 -129.5 24t-82 68.5t-40.5 96t-12 117.5v434h-93q-18 0 -30.5 13.5t-12.5 31.5z" />
<glyph unicode="u" horiz-adv-x="1091" d="M121 399v502q0 20 13 32.5t32 12.5h166q19 0 32 -12.5t13 -32.5v-502q0 -96 37 -142t123 -46q37 0 67.5 15.5t50.5 42t32 56t18 62.5v514q0 27 10.5 36t40.5 9h159q19 0 32.5 -12.5t13.5 -32.5v-856q0 -19 -13.5 -32t-32.5 -13h-73q-33 0 -45 35l-27 80 q-133 -138 -293 -138q-86 0 -149.5 21.5t-102.5 57.5t-63 91.5t-32.5 115t-8.5 136.5z" />
<glyph unicode="v" horiz-adv-x="1005" d="M28 930q8 16 35 16h195q30 0 43 -26l197 -467h4l209 467q8 17 21 21.5t38 4.5h172q26 0 36 -16q4 -7 4 -16q0 -11 -7 -23l-426 -889q-17 -25 -41 -25h-12q-24 0 -41 25l-424 889q-6 12 -6 23q-1 9 3 16z" />
<glyph unicode="w" horiz-adv-x="1460" d="M53 893q-5 10 -5 18q0 10 7 19q12 16 37 16h160q11 0 24.5 -8t16.5 -20l143 -451h2l248 479q8 21 37 21h18q29 0 39 -21l246 -479h2l141 451q4 13 13 19.5t17 7.5t24 1h143q26 0 38 -16q8 -10 8 -22q0 -7 -3 -15l-291 -889q-8 -27 -43 -27h-8q-24 0 -39 23l-297 569h-2 l-297 -569q-12 -23 -37 -23h-12q-33 0 -41 27z" />
<glyph unicode="x" horiz-adv-x="1050" d="M46 24q-3 8 -3 16q0 15 10 30l301 411l-288 396q-19 23 -8 46t40 23h187q28 0 44.5 -6t32.5 -27l158 -247h4l162 247q22 33 72 33h200q30 0 38 -23q2 -7 2 -14q0 -16 -13 -32l-291 -392l293 -415q13 -16 13 -33q0 -7 -2 -13q-8 -24 -37 -24h-197q-41 0 -66 39l-174 260 h-4l-184 -281q-14 -18 -39 -18h-213q-30 0 -38 24z" />
<glyph unicode="y" horiz-adv-x="1021" d="M43 885q-4 11 -4 21q0 12 7 22q11 18 38 18h197q31 0 38 -26l170 -566h5l215 566q10 17 22 21.5t37 4.5h174q27 0 40 -18q6 -10 6 -22q0 -10 -5 -21l-557 -1344q-5 -11 -16.5 -19.5t-24.5 -8.5h-197q-27 0 -39.5 19t-1.5 44l191 479z" />
<glyph unicode="z" horiz-adv-x="835" d="M66 45q0 25 10 43l338 621v4h-285q-17 0 -30 14t-13 31v143q0 20 12.5 32.5t30.5 12.5h610q21 0 34 -12t13 -31q0 -10 -6 -22l-356 -645v-5h270q19 0 32 -13t13 -32v-141q0 -19 -13 -32t-32 -13h-583q-19 0 -32 13t-13 32z" />
<glyph unicode="{" horiz-adv-x="811" d="M39 416v100q0 27 29 35q16 4 45.5 18t63.5 48.5t34 74.5v240q0 94 17.5 170.5t46 129t70.5 92.5t85 63.5t96.5 38.5t97.5 20.5t95 7.5q38 3 41 -35l8 -129q1 -16 -8 -25.5t-21 -11.5q-64 -14 -111 -36t-85.5 -58.5t-58 -93.5t-19.5 -133v-195q0 -61 -23 -113.5t-56.5 -84 t-55 -47t-35.5 -21.5v-8q26 -11 50.5 -27.5t54 -46t47.5 -77t18 -105.5v-199q0 -76 19.5 -132t58 -91t85.5 -56t111 -34q32 -9 29 -39l-8 -129q-2 -15 -14 -25.5t-27 -9.5q-52 2 -95.5 7.5t-97 20t-96.5 37t-85 62t-70.5 91.5t-46 128t-17.5 170v232q0 61 -45.5 96t-95.5 43 q-12 2 -21.5 12t-9.5 25z" />
<glyph unicode="|" horiz-adv-x="364" d="M131 -451v1969q0 17 11.5 27.5t27.5 10.5h27q15 0 25.5 -10.5t10.5 -27.5v-1969q0 -15 -11.5 -25.5t-26.5 -10.5h-25q-15 0 -27 10.5t-12 25.5z" />
<glyph unicode="}" horiz-adv-x="811" d="M43 -346q-3 30 29 39q133 27 203.5 98t70.5 217v199q0 58 18 105.5t47.5 77t54 46t50.5 27.5v8q-14 6 -35.5 21.5t-55 47t-56.5 84t-23 113.5v195q0 76 -19.5 133t-58 93.5t-85.5 58.5t-111 36q-12 2 -21 11.5t-8 25.5l8 129q3 38 41 35q51 -2 95 -7.5t97.5 -20.5 t96.5 -38.5t85 -63.5t70.5 -92.5t46 -129t17.5 -170.5v-240q0 -40 34 -74.5t63.5 -48.5t45.5 -18q29 -8 29 -35v-100q0 -15 -9.5 -25t-21.5 -12q-50 -8 -95.5 -43t-45.5 -96v-232q0 -94 -17.5 -170.5t-46 -128.5t-70.5 -91.5t-85 -62.5t-96.5 -37.5t-97.5 -20t-95 -7.5 q-18 0 -28.5 9.5t-12.5 25.5z" />
<glyph unicode="~" horiz-adv-x="1114" d="M76 537q6 8 17 21.5t45 48.5t68.5 61.5t83 48.5t93.5 22q41 0 83 -15t62 -27.5t62 -41.5q3 -2 15.5 -10.5t17 -11.5t17 -10.5t19 -10.5t18.5 -8.5t21 -7.5t20 -4t21 -2q82 0 152 106q12 15 29 15.5t30 -11.5l86 -90q11 -9 12 -23.5t-8 -25.5q-6 -8 -16.5 -21.5 t-43.5 -48.5t-67 -61.5t-82 -48t-92 -21.5q-16 0 -31 1.5t-30 5.5t-26.5 7t-26.5 10t-23 10.5t-24 13.5t-21 13t-22.5 14.5t-20.5 13.5q-28 20 -41.5 28.5t-40 18.5t-51.5 10q-83 0 -152 -105q-11 -15 -28 -16t-29 12q-57 57 -92 90q-23 27 -4 50z" />
<glyph unicode="&#xa1;" horiz-adv-x="507" d="M86 799q0 69 50 118.5t120 49.5q68 0 117 -49.5t49 -118.5t-49.5 -119.5t-116.5 -50.5q-70 0 -120 50.5t-50 119.5zM102 -219l80 575q2 12 14 22.5t25 10.5h66q13 0 25 -10.5t14 -22.5l80 -571v-234q0 -15 -12 -26.5t-27 -11.5h-226q-15 0 -27 11.5t-12 26.5v230z" />
<glyph unicode="&#xa2;" horiz-adv-x="1112" d="M125 473q0 137 66.5 250.5t181.5 178.5t254 65q17 0 49 -4l26 98q5 18 22 27t34 2l28 -7q19 -3 28 -18t3 -35l-24 -94q97 -36 186 -129q14 -16 10 -34t-20 -34l-86 -94q-26 -30 -62 6q-51 47 -90 62l-135 -500q12 -2 35 -2q48 0 89.5 18t62.5 37t48 49q11 12 29.5 14.5 t30.5 -7.5l92 -78q38 -33 16 -68q-127 -199 -374 -199q-47 0 -90 9l-62 -232q-4 -17 -21 -26t-36 -4l-25 8q-18 3 -27 17.5t-6 33.5l64 235q-135 57 -216 178t-81 277zM383 473q0 -144 102 -217l127 475q-102 -6 -165.5 -79t-63.5 -179z" />
<glyph unicode="&#xa3;" d="M201 635v27q0 15 11 26.5t26 11.5h63q-4 15 -18.5 69.5t-21.5 84t-14 77.5t-7 89q0 198 124 316t310 118q67 0 125 -14.5t105 -43t68 -44t52 -43.5q12 -9 13 -25.5t-9 -28.5l-100 -120q-10 -14 -27.5 -15.5t-28.5 8.5q-12 11 -32 26.5t-72 42t-92 26.5q-74 0 -127 -53.5 t-53 -139.5q0 -60 36 -182t41 -148h238q17 0 28 -11.5t11 -26.5v-29q0 -15 -11 -26t-28 -11h-217q24 -198 -29 -369h402q15 0 26 -11t11 -28v-149q0 -15 -11 -27t-26 -12h-678q-15 0 -27 12t-12 27v37q128 243 76 520h-88q-15 0 -26 12t-11 27z" />
<glyph unicode="&#xa4;" horiz-adv-x="1009" d="M146 439q0 17 10 28l98 98q-25 58 -25 115q0 60 27 115l-98 98q-10 11 -10 28t10 27l82 80q10 10 27 10t28 -10l96 -96q57 26 115 26q55 0 115 -26l96 96q11 10 27 10t28 -10l80 -82q11 -11 11.5 -26.5t-9.5 -26.5l-96 -96q26 -63 26 -121q0 -60 -24 -113l96 -96 q10 -11 10 -27t-10 -28l-82 -80q-11 -11 -26.5 -11.5t-26.5 9.5l-98 98q-55 -27 -117 -27t-117 27l-98 -98q-11 -10 -28 -10t-27 10l-80 82q-10 10 -10 27zM399 680q0 -44 30.5 -74.5t74.5 -30.5q46 0 76 30.5t30 74.5q0 46 -30 76t-76 30q-44 0 -74.5 -30t-30.5 -76z" />
<glyph unicode="&#xa5;" d="M51.5 1414q10.5 20 34.5 20h211q19 0 33 -19l286 -471l287 471q14 19 33 19h209q24 0 34.5 -20t-1.5 -40l-433 -682v-96h224q17 0 28 -11.5t11 -27.5v-29q0 -15 -11 -25.5t-28 -10.5h-224v-142h224q17 0 28 -11.5t11 -27.5v-28q0 -15 -11 -26t-28 -11h-224v-207 q0 -15 -11.5 -27t-26.5 -12h-189q-17 0 -28 11.5t-11 27.5v207h-227q-15 0 -26 12t-11 27v26q0 15 11 27t26 12h227v142h-227q-15 0 -26 11.5t-11 26.5v27q0 15 11 27t26 12h227v94l-426 684q-12 20 -1.5 40z" />
<glyph unicode="&#xa6;" horiz-adv-x="380" d="M139 227q0 17 11.5 28t27.5 11h27q15 0 26 -11t11 -28v-678q0 -15 -12 -25.5t-27 -10.5h-25q-15 0 -27 10.5t-12 25.5v678zM139 840v678q0 17 11.5 27.5t27.5 10.5h27q15 0 26 -10.5t11 -27.5v-678q0 -15 -12 -26t-27 -11h-25q-15 0 -27 11t-12 26z" />
<glyph unicode="&#xa7;" horiz-adv-x="1148" d="M127.5 -317.5q0.5 12.5 11.5 28.5l64 109q28 48 71 16q1 0 33.5 -20.5t70 -41.5t92 -39t99.5 -18q70 0 122 36.5t52 103.5q0 43 -21 80t-59 66.5t-76.5 50.5t-88.5 42q-369 152 -369 418q0 155 147 279q-147 136 -147 290q0 69 25.5 133t76.5 118.5t138.5 87t199.5 32.5 q70 0 138.5 -15.5t121 -40.5t81.5 -42t51 -33q14 -8 19 -26.5t-5 -36.5l-84 -121q-25 -39 -68 -11q-155 103 -264 103q-82 0 -129 -39.5t-47 -91.5q0 -65 55.5 -116t175.5 -99q69 -27 119.5 -51.5t109.5 -63.5t96.5 -81.5t63 -103t25.5 -130.5q0 -86 -45.5 -159.5 t-103.5 -125.5q149 -137 149 -299q0 -157 -125 -269t-325 -112q-87 0 -165 18t-131.5 46.5t-82.5 48.5t-49 39q-12 12 -17.5 20t-5 20.5zM375 532q0 -33 13.5 -61t30.5 -47t57 -42.5t67.5 -37t86.5 -40.5q30 -14 46 -21q3 2 8.5 6t20 19t25 32t19.5 45.5t9 60.5 q0 145 -309 240l-6.5 -6.5t-10 -9.5t-12 -13t-13 -17.5t-12 -20.5t-10.5 -25t-7 -29t-3 -33z" />
<glyph unicode="&#xa8;" horiz-adv-x="847" d="M82 1260q0 63 42 105t105 42t106.5 -42t43.5 -105t-43.5 -106.5t-106.5 -43.5t-105 43.5t-42 106.5zM494 1260q0 63 42 105t105 42t106.5 -42t43.5 -105t-43.5 -106.5t-106.5 -43.5t-105 43.5t-42 106.5z" />
<glyph unicode="&#xa9;" horiz-adv-x="1697" d="M113 717q0 200 98.5 369.5t267.5 268.5t369 99t369.5 -99t268.5 -268.5t99 -369.5t-99 -369t-268.5 -267.5t-369.5 -98.5t-369 98.5t-267.5 267.5t-98.5 369zM272 717q0 -156 77.5 -288.5t210 -210t288.5 -77.5q157 0 289.5 77.5t209 210t76.5 288.5q0 118 -45.5 224.5 t-122 183t-183 122t-224.5 45.5q-156 0 -288.5 -76.5t-210 -209t-77.5 -289.5zM483 713q0 161 112 273t271 112q130 0 230 -78q14 -12 15 -28.5t-11 -30.5l-70 -78q-18 -24 -51 -4q-45 32 -111 32q-81 0 -134.5 -56.5t-53.5 -135.5q0 -82 53.5 -137.5t134.5 -55.5 q59 0 109 33q12 9 27 8t24 -12l74 -82q11 -12 10.5 -28.5t-12.5 -28.5q-102 -86 -234 -86q-158 0 -270.5 112.5t-112.5 270.5z" />
<glyph unicode="&#xaa;" horiz-adv-x="698" d="M74 1024q0 84 64.5 138.5t176.5 54.5q28 0 55.5 -4.5t41.5 -8.5l14 -4q0 61 -17 86t-69 25q-51 0 -160 -25q-29 -6 -35 31l-12 67q-6 28 19 39q15 7 79 19t127 12q131 0 182.5 -63.5t51.5 -200.5v-330q0 -12 -9 -20.5t-20 -8.5h-55q-18 0 -29 21q-2 7 -8 21.5t-8 21.5 q-25 -23 -44 -37.5t-57.5 -28.5t-82.5 -14q-90 0 -147.5 57.5t-57.5 151.5zM242 1026q0 -34 21 -57t56 -23q34 0 65 22t40 50v67q-10 9 -38.5 16t-53.5 7q-38 0 -64 -23.5t-26 -58.5z" />
<glyph unicode="&#xab;" horiz-adv-x="997" d="M80 459q-17 23 0 49l223 303q15 25 37 25h117q26 0 34.5 -19.5t-4.5 -44.5l-139 -285l133 -301q11 -25 3 -43t-33 -18h-127q-19 0 -31 16zM489 459q-17 23 0 49l224 303q15 25 37 25h116q26 0 35 -19.5t-4 -44.5l-139 -285l133 -301q11 -25 3 -43t-34 -18h-127 q-19 0 -31 16z" />
<glyph unicode="&#xac;" horiz-adv-x="1181" d="M135 653v115q0 15 12 27t27 12h805q16 0 27.5 -12.5t11.5 -26.5v-463q0 -15 -12 -26t-27 -11h-115q-15 0 -27 11t-12 26v309h-651q-15 0 -27 12t-12 27z" />
<glyph unicode="&#xad;" horiz-adv-x="759" d="M113 430v137q0 17 11 28t28 11h456q17 0 28 -11t11 -28v-137q0 -15 -11 -26t-28 -11h-456q-17 0 -28 11t-11 26z" />
<glyph unicode="&#xae;" horiz-adv-x="1697" d="M113 717q0 200 98.5 369.5t267.5 268.5t369 99t369.5 -99t268.5 -268.5t99 -369.5t-99 -369t-268.5 -267.5t-369.5 -98.5t-369 98.5t-267.5 267.5t-98.5 369zM272 717q0 -156 77.5 -288.5t210 -210t288.5 -77.5q157 0 289.5 77.5t209 210t76.5 288.5q0 118 -45.5 224.5 t-122 183t-183 122t-224.5 45.5q-156 0 -288.5 -76.5t-210 -209t-77.5 -289.5zM573 383v672q0 16 11 27.5t28 11.5h318q101 0 176.5 -69.5t75.5 -184.5q0 -156 -146 -228l94 -213q9 -22 -1.5 -38.5t-32.5 -16.5h-111q-11 0 -21.5 9t-15.5 20l-90 229h-106v-219 q0 -16 -11 -27.5t-28 -11.5h-101q-17 0 -28 11.5t-11 27.5zM745 754h162q36 0 60 24t24 60q0 37 -23.5 60.5t-60.5 23.5h-162v-168z" />
<glyph unicode="&#xaf;" horiz-adv-x="847" d="M123 1204v70q0 17 11 28t28 11h524q17 0 28 -11t11 -28v-70q0 -15 -11 -26t-28 -11h-524q-17 0 -28 11t-11 26z" />
<glyph unicode="&#xb0;" horiz-adv-x="692" d="M70 1178q0 116 80 196t196 80q114 0 195.5 -80.5t81.5 -195.5t-81.5 -196t-195.5 -81q-115 0 -195.5 80.5t-80.5 196.5zM242 1178q0 -41 31.5 -73t72.5 -32q40 0 70 32t30 73q0 40 -30 70t-70 30q-41 0 -72.5 -30t-31.5 -70z" />
<glyph unicode="&#xb1;" d="M172 135v115q0 15 12 27t27 12h807q15 0 26 -12t11 -27v-115q0 -15 -11 -27t-26 -12h-807q-15 0 -27 12t-12 27zM172 782v115q0 15 12 27t27 12h307v303q0 15 12 26t27 11h115q15 0 27 -11t12 -26v-303h307q15 0 26 -12t11 -27v-115q0 -15 -11 -27t-26 -12h-307v-211 q0 -15 -12 -25.5t-27 -10.5h-115q-15 0 -27 10.5t-12 25.5v211h-307q-15 0 -27 12t-12 27z" />
<glyph unicode="&#xb2;" horiz-adv-x="573" d="M55 1051v34l226 258q51 57 51 103q0 31 -23 51.5t-59 20.5q-26 0 -51 -13t-39 -28q-19 -13 -33 6l-45 63q-10 11 -10 21.5t16 21.5q84 70 193 70q97 0 157 -52t60 -137q0 -84 -76 -176l-111 -131h164q8 0 13.5 -5.5t5.5 -12.5v-94q0 -19 -19 -19h-399q-21 0 -21 19z" />
<glyph unicode="&#xb3;" horiz-adv-x="569" d="M63 1116l46 60q13 18 34 4l5 -4l15 -7.5t20.5 -9.5t26.5 -8.5t30 -3.5q40 0 63 17t23 46q0 30 -25.5 49t-71.5 19h-59q-31 0 -31 29v63q0 29 31 29h59q38 0 61 17.5t23 45.5t-21.5 45t-55.5 17q-43 0 -80 -33q-8 -6 -15.5 -5.5t-15.5 11.5l-49 59q-8 8 -8 19.5t10 17.5 q8 7 22 18t61.5 29.5t98.5 18.5q99 0 160 -46.5t61 -123.5q0 -51 -31.5 -88t-72.5 -55v-3q47 -18 85 -56.5t38 -98.5q0 -82 -68.5 -129t-171.5 -47q-119 0 -194 67q-17 17 -3 37z" />
<glyph unicode="&#xb4;" horiz-adv-x="618" d="M94 1167q-12 23 12 39l334 199q13 10 30 8.5t24 -14.5l59 -105q18 -40 -12 -55l-359 -158q-38 -15 -53 13z" />
<glyph unicode="&#xb5;" horiz-adv-x="1122" d="M162 420v481q0 20 13 32.5t32 12.5h166q19 0 32 -12.5t13 -32.5v-481q0 -209 160 -209q71 0 113 52t54 124v514q0 27 11 36t41 9h159q19 0 32 -12.5t13 -32.5v-856q0 -19 -13 -32t-32 -13h-73q-33 0 -45 35l-27 80q-4 -4 -27.5 -28.5t-41.5 -38t-50.5 -33t-76.5 -29 t-97 -9.5q-47 0 -100 11v-430q0 -18 -13.5 -31.5t-31.5 -13.5h-166q-18 0 -31.5 13.5t-13.5 31.5v862z" />
<glyph unicode="&#xb6;" horiz-adv-x="1562" d="M84 1006q0 176 115.5 302t281.5 126l934 -2q15 0 27 -12t12 -27v-95q0 -17 -11.5 -27.5t-27.5 -10.5h-160v-1709q0 -16 -10.5 -27t-27.5 -11h-111q-15 0 -27 11.5t-12 26.5v1709h-279v-1709q0 -15 -11.5 -26.5t-26.5 -11.5h-111q-15 0 -27 11.5t-12 26.5v1024h-90 q-175 0 -300.5 125.5t-125.5 305.5z" />
<glyph unicode="&#xb7;" horiz-adv-x="542" d="M86 524q0 78 54 133.5t128 55.5q78 0 133.5 -55.5t55.5 -133.5q0 -74 -55.5 -128t-133.5 -54q-74 0 -128 54t-54 128z" />
<glyph unicode="&#xb8;" horiz-adv-x="505" d="M74 -395l18 41q17 42 55 18q39 -33 89 -33q44 0 70 20.5t26 59.5q0 37 -26 57.5t-68 20.5q-17 0 -31 -4t-28.5 -10.5t-18.5 -7.5q-15 -6 -29 8t-6 28l100 203h133l-84 -133q21 6 43 6q73 0 124 -47.5t51 -130.5q0 -94 -69.5 -149.5t-176.5 -55.5q-110 0 -172 51 q-20 20 0 58z" />
<glyph unicode="&#xb9;" horiz-adv-x="423" d="M45 1520q0 11 14 22l152 96h104q8 0 13.5 -5.5t5.5 -12.5v-569q0 -7 -6 -13t-13 -6h-127q-9 0 -14.5 5.5t-5.5 13.5v395l-100 -8q-19 0 -19 18z" />
<glyph unicode="&#xba;" horiz-adv-x="675" d="M80 1130q0 154 67 239t193 85q125 0 190.5 -85t65.5 -239q0 -153 -66 -238t-190 -85q-126 0 -193 85t-67 238zM250 1130q0 -87 23.5 -133.5t66.5 -46.5q42 0 66 47t24 133q0 87 -24 134t-66 47q-43 0 -66.5 -47t-23.5 -134z" />
<glyph unicode="&#xbb;" horiz-adv-x="997" d="M94 816.5q9 19.5 35 19.5h117q22 0 37 -25l223 -303q17 -26 0 -49l-213 -318q-12 -16 -31 -16h-127q-26 0 -34 18t3 43l134 301l-140 285q-13 25 -4 44.5zM504 816.5q9 19.5 35 19.5h116q22 0 37 -25l223 -303q17 -26 0 -49l-213 -318q-12 -16 -30 -16h-127q-26 0 -34 18 t3 43l133 301l-139 285q-13 25 -4 44.5z" />
<glyph unicode="&#xbc;" horiz-adv-x="1421" d="M94 1315q0 10 15 22l151 97h105q7 0 12.5 -5.5t5.5 -13.5v-569q0 -8 -5.5 -13.5t-12.5 -5.5h-127q-9 0 -15 5.5t-6 13.5v395l-100 -8q-19 0 -19 18zM233 55l703 1358q10 21 35 21h102q23 0 34.5 -18t0.5 -38l-707 -1358q-10 -20 -34 -20h-99q-23 0 -34 17.5t-1 37.5z M770 133v105l334 362q6 6 16 6h84q8 0 13.5 -5.5t5.5 -12.5v-348h82q7 0 12.5 -5.5t5.5 -11.5v-88q0 -7 -5.5 -12.5t-12.5 -5.5h-82v-99q0 -7 -5.5 -12.5t-13.5 -5.5h-114q-8 0 -14.5 5.5t-6.5 12.5v99h-281q-7 0 -12.5 5t-5.5 11zM920 238h151v170z" />
<glyph unicode="&#xbd;" horiz-adv-x="1404" d="M94 1315q0 10 15 22l151 97h105q7 0 12.5 -5.5t5.5 -13.5v-569q0 -8 -5.5 -13.5t-12.5 -5.5h-127q-9 0 -15 5.5t-6 13.5v395l-100 -8q-19 0 -19 18zM233 55l703 1358q10 21 35 21h102q23 0 34.5 -18t0.5 -38l-707 -1358q-10 -20 -34 -20h-99q-23 0 -34 17.5t-1 37.5z M852 18v35l225 258q51 57 51 103q0 31 -22.5 51t-58.5 20q-26 0 -51.5 -13t-39.5 -28q-18 -12 -32 7l-45 63q-10 11 -10 21.5t16 21.5q84 70 192 70q97 0 157 -52t60 -137t-75 -176l-111 -131h164q8 0 13 -5.5t5 -12.5v-95q0 -18 -18 -18h-400q-20 0 -20 18z" />
<glyph unicode="&#xbe;" horiz-adv-x="1488" d="M111 911l45 60q13 18 34 4l6 -3q5 -4 14 -9t20.5 -9.5t26.5 -8t30 -3.5q40 0 63 17.5t23 46.5q0 30 -25.5 48.5t-71.5 18.5h-59q-31 0 -31 29v63q0 29 31 29h59q38 0 61 17.5t23 45.5t-21.5 45t-55.5 17q-43 0 -80 -33q-8 -6 -15.5 -5.5t-15.5 11.5l-49 60q-8 8 -8 19.5 t10 17.5q8 7 22 18t61.5 29t98.5 18q99 0 160 -46.5t61 -123.5q0 -51 -31.5 -88t-72.5 -55v-2q47 -18 85 -57t38 -99q0 -82 -68.5 -129t-171.5 -47q-119 0 -194 67q-17 17 -2 37zM303 55l703 1358q10 21 34 21h103q23 0 34.5 -18t0.5 -38l-707 -1358q-3 -7 -13.5 -13.5 t-21.5 -6.5h-98q-23 0 -34 17.5t-1 37.5zM840 133v105l334 362q6 6 16 6h84q8 0 13 -5t5 -13v-348h82q7 0 13 -5.5t6 -11.5v-88q0 -7 -5.5 -12.5t-13.5 -5.5h-82v-99q0 -8 -5 -13t-13 -5h-115q-8 0 -14 5.5t-6 12.5v99h-281q-7 0 -12.5 5t-5.5 11zM989 238h152v170z" />
<glyph unicode="&#xbf;" horiz-adv-x="989" d="M98 -166q0 50 17 95.5t44.5 79.5t61 64t67 55.5t61 49t44.5 48.5t17 50v68q0 19 10.5 31t30.5 12h165q16 0 27.5 -11t11.5 -28v-86q0 -54 -29.5 -103t-71 -86t-83 -71.5t-71 -73.5t-29.5 -78q0 -58 45 -97.5t119 -39.5q43 0 82 13.5t59.5 29t45.5 37t34 27.5q25 15 45 -2 l96 -94q12 -11 11.5 -27t-11.5 -27q-6 -7 -17 -19.5t-49 -43.5t-81 -54.5t-112 -43t-142 -19.5q-164 0 -281 98t-117 246zM365 799q0 69 50.5 118.5t119.5 49.5t118 -49.5t49 -118.5t-49 -119.5t-118 -50.5t-119.5 50.5t-50.5 119.5z" />
<glyph unicode="&#xc0;" horiz-adv-x="1368" d="M4 53l637 1379q11 22 35 22h20q24 0 35 -22l631 -1379q9 -20 -1.5 -36.5t-33.5 -16.5h-178q-23 0 -35.5 9.5t-23.5 31.5l-101 221h-612l-101 -221q-16 -41 -59 -41h-178q-23 0 -33.5 16.5t-1.5 36.5zM451 1752q-4 15 6 34l57 106q7 13 24 13.5t29 -7.5l336 -200 q9 -5 13 -15.5t-1 -23.5l-36 -72q-13 -30 -52 -14l-358 158q-14 6 -18 21zM477 489h412l-205 451h-6z" />
<glyph unicode="&#xc1;" horiz-adv-x="1368" d="M4 53l637 1379q11 22 35 22h20q24 0 35 -22l631 -1379q9 -20 -1.5 -36.5t-33.5 -16.5h-178q-23 0 -35.5 9.5t-23.5 31.5l-101 221h-612l-101 -221q-16 -41 -59 -41h-178q-23 0 -33.5 16.5t-1.5 36.5zM450 1682.5q4 10.5 13 15.5l336 200q37 23 53 -6l57 -106 q10 -19 6 -34t-18 -21l-358 -158q-39 -16 -52 14l-36 72q-5 13 -1 23.5zM477 489h412l-205 451h-6z" />
<glyph unicode="&#xc2;" horiz-adv-x="1368" d="M4 53l637 1379q11 22 35 22h20q24 0 35 -22l631 -1379q9 -20 -1.5 -36.5t-33.5 -16.5h-178q-23 0 -35.5 9.5t-23.5 31.5l-101 221h-612l-101 -221q-16 -41 -59 -41h-178q-23 0 -33.5 16.5t-1.5 36.5zM381 1672.5q4 10.5 14 17.5l267 206q20 17 43 0l266 -206 q10 -7 14 -17.5t-2 -21.5l-53 -76q-9 -13 -18.5 -14.5t-28.5 8.5l-199 125l-201 -125q-19 -10 -28.5 -8.5t-18.5 14.5l-53 76q-6 11 -2 21.5zM477 489h412l-205 451h-6z" />
<glyph unicode="&#xc3;" horiz-adv-x="1368" d="M4 53l637 1379q11 22 35 22h20q24 0 35 -22l631 -1379q9 -20 -1.5 -36.5t-33.5 -16.5h-178q-23 0 -35.5 9.5t-23.5 31.5l-101 221h-612l-101 -221q-16 -41 -59 -41h-178q-23 0 -33.5 16.5t-1.5 36.5zM363.5 1681q-3.5 15 1.5 25q12 23 18 33.5t29 41.5t43.5 48.5t54 33 t68.5 15.5q36 0 68 -17.5t52 -39t46.5 -39t52.5 -17.5q24 0 43 19t28.5 39t26 31t35.5 -5l57 -41q26 -20 2 -63q-1 -1 -8 -13.5t-10.5 -18t-12.5 -19t-15 -21.5t-17.5 -20.5t-21 -20t-23 -17t-27 -14.5t-30 -8.5t-33.5 -3.5q-36 0 -70 18t-56 39.5t-49 39.5t-49 18 q-24 0 -43 -19t-27.5 -39.5t-24.5 -32.5t-36 3l-59 43q-10 7 -13.5 22zM477 489h412l-205 451h-6z" />
<glyph unicode="&#xc4;" horiz-adv-x="1368" d="M4 53l637 1379q11 22 35 22h20q24 0 35 -22l631 -1379q9 -20 -1.5 -36.5t-33.5 -16.5h-178q-23 0 -35.5 9.5t-23.5 31.5l-101 221h-612l-101 -221q-16 -41 -59 -41h-178q-23 0 -33.5 16.5t-1.5 36.5zM281 1718q0 63 42 105.5t105 42.5t106.5 -42.5t43.5 -105.5 t-43.5 -106t-106.5 -43t-105 43t-42 106zM477 489h412l-205 451h-6zM786 1718q0 63 42.5 105.5t105.5 42.5t106 -42.5t43 -105.5t-43 -106t-106 -43t-105.5 43t-42.5 106z" />
<glyph unicode="&#xc5;" horiz-adv-x="1368" d="M4 53l637 1379q11 22 35 22h20q24 0 35 -22l631 -1379q9 -20 -1.5 -36.5t-33.5 -16.5h-178q-23 0 -35.5 9.5t-23.5 31.5l-101 221h-612l-101 -221q-16 -41 -59 -41h-178q-23 0 -33.5 16.5t-1.5 36.5zM451 1776q0 97 67 164t164 67q96 0 163.5 -67.5t67.5 -163.5 t-67.5 -164t-163.5 -68q-97 0 -164 67.5t-67 164.5zM477 489h412l-205 451h-6zM580 1776q0 -40 31 -71.5t71 -31.5q39 0 68.5 31.5t29.5 71.5t-29 69t-69 29t-71 -29.5t-31 -68.5z" />
<glyph unicode="&#xc6;" horiz-adv-x="1835" d="M-23.5 16.5q-6.5 16.5 5.5 36.5l821 1317q2 3 7.5 11.5t7 11t6.5 9t7 8.5l7 7t8.5 6.5t9 4.5t10.5 3.5t12 1.5t15 1h809q17 0 28 -11.5t11 -27.5v-168q0 -16 -11 -27.5t-28 -11.5h-612v-336h512q15 0 26.5 -12t11.5 -27v-170q0 -17 -11.5 -28t-26.5 -11h-512v-358h612 q17 0 28 -11.5t11 -27.5v-168q0 -16 -11 -27.5t-28 -11.5h-836q-17 0 -28 11.5t-11 27.5v223h-430l-145 -231q-21 -31 -51 -31h-195q-23 0 -29.5 16.5zM541 489h286v463z" />
<glyph unicode="&#xc7;" horiz-adv-x="1409" d="M90 715q0 151 58.5 288t157 235.5t235.5 157t288 58.5q152 0 270.5 -47t225.5 -143q13 -12 13.5 -29t-11.5 -29l-125 -129q-10 -12 -24.5 -12t-26.5 12q-65 57 -147 89t-168 32q-128 0 -233.5 -65t-164.5 -174.5t-59 -237.5q0 -194 132.5 -333.5t326.5 -139.5 q169 0 313 117q12 10 27 9.5t24 -9.5l127 -132q11 -11 10 -27.5t-12 -27.5q-201 -195 -487 -198l-68 -107q21 6 43 6q73 0 123.5 -47.5t50.5 -130.5q0 -94 -69.5 -149.5t-176.5 -55.5q-110 0 -172 51q-20 20 0 58l19 41q17 42 55 18q39 -33 88 -33q44 0 70 20.5t26 59.5 q0 37 -26 57.5t-68 20.5q-17 0 -31 -4t-28.5 -10.5t-18.5 -7.5q-15 -6 -28.5 8t-5.5 28l90 185q-267 40 -445 245.5t-178 481.5z" />
<glyph unicode="&#xc8;" horiz-adv-x="1179" d="M174 39v1356q0 16 11 27.5t28 11.5h834q17 0 27.5 -11.5t10.5 -27.5v-168q0 -16 -10.5 -27.5t-27.5 -11.5h-607v-336h506q15 0 27 -12t12 -27v-170q0 -17 -11.5 -28t-27.5 -11h-506v-358h607q17 0 27.5 -11.5t10.5 -27.5v-168q0 -16 -10.5 -27.5t-27.5 -11.5h-834 q-17 0 -28 11.5t-11 27.5zM410 1752q-4 15 6 34l57 106q7 13 24 13.5t29 -7.5l336 -200q9 -5 13 -15.5t-1 -23.5l-36 -72q-13 -30 -52 -14l-358 158q-14 6 -18 21z" />
<glyph unicode="&#xc9;" horiz-adv-x="1179" d="M174 39v1356q0 16 11 27.5t28 11.5h834q17 0 27.5 -11.5t10.5 -27.5v-168q0 -16 -10.5 -27.5t-27.5 -11.5h-607v-336h506q15 0 27 -12t12 -27v-170q0 -17 -11.5 -28t-27.5 -11h-506v-358h607q17 0 27.5 -11.5t10.5 -27.5v-168q0 -16 -10.5 -27.5t-27.5 -11.5h-834 q-17 0 -28 11.5t-11 27.5zM411 1682.5q4 10.5 13 15.5l336 200q37 23 53 -6l57 -106q10 -19 6 -34t-18 -21l-358 -158q-38 -16 -51 14l-37 72q-5 13 -1 23.5z" />
<glyph unicode="&#xca;" horiz-adv-x="1179" d="M174 39v1356q0 16 11 27.5t28 11.5h834q17 0 27.5 -11.5t10.5 -27.5v-168q0 -16 -10.5 -27.5t-27.5 -11.5h-607v-336h506q15 0 27 -12t12 -27v-170q0 -17 -11.5 -28t-27.5 -11h-506v-358h607q17 0 27.5 -11.5t10.5 -27.5v-168q0 -16 -10.5 -27.5t-27.5 -11.5h-834 q-17 0 -28 11.5t-11 27.5zM330 1672.5q4 10.5 14 17.5l266 206q20 17 43 0l267 -206q10 -7 14 -17.5t-2 -21.5l-53 -76q-17 -23 -48 -6l-198 125l-201 -125q-19 -10 -28.5 -8.5t-18.5 14.5l-53 76q-6 11 -2 21.5z" />
<glyph unicode="&#xcb;" horiz-adv-x="1179" d="M174 39v1356q0 16 11 27.5t28 11.5h834q17 0 27.5 -11.5t10.5 -27.5v-168q0 -16 -10.5 -27.5t-27.5 -11.5h-607v-336h506q15 0 27 -12t12 -27v-170q0 -17 -11.5 -28t-27.5 -11h-506v-358h607q17 0 27.5 -11.5t10.5 -27.5v-168q0 -16 -10.5 -27.5t-27.5 -11.5h-834 q-17 0 -28 11.5t-11 27.5zM240 1718q0 63 42 105.5t105 42.5t106.5 -42.5t43.5 -105.5t-43.5 -106t-106.5 -43t-105 43t-42 106zM745 1718q0 63 42.5 105.5t105.5 42.5t106 -42.5t43 -105.5t-43 -106t-106 -43t-105.5 43t-42.5 106z" />
<glyph unicode="&#xcc;" horiz-adv-x="616" d="M74 1752q-4 15 6 34l57 106q7 13 24 13.5t29 -7.5l336 -200q9 -5 13.5 -15.5t-0.5 -23.5l-37 -72q-13 -30 -51 -14l-359 158q-14 6 -18 21zM174 39v1356q0 15 12 27t27 12h190q15 0 27 -12t12 -27v-1356q0 -15 -12 -27t-27 -12h-190q-15 0 -27 12t-12 27z" />
<glyph unicode="&#xcd;" horiz-adv-x="616" d="M75 1682.5q4 10.5 13 15.5l336 200q37 23 53 -6l58 -106q10 -19 5.5 -34t-18.5 -21l-358 -158q-38 -16 -51 14l-37 72q-5 13 -1 23.5zM174 39v1356q0 15 12 27t27 12h190q15 0 27 -12t12 -27v-1356q0 -15 -12 -27t-27 -12h-190q-15 0 -27 12t-12 27z" />
<glyph unicode="&#xce;" horiz-adv-x="616" d="M2 1672.5q4 10.5 14 17.5l267 206q20 17 43 0l266 -206q10 -7 14 -17.5t-2 -21.5l-53 -76q-9 -13 -18.5 -14.5t-28.5 8.5l-199 125l-201 -125q-19 -10 -28.5 -8.5t-18.5 14.5l-53 76q-6 11 -2 21.5zM174 39v1356q0 15 12 27t27 12h190q15 0 27 -12t12 -27v-1356 q0 -15 -12 -27t-27 -12h-190q-15 0 -27 12t-12 27z" />
<glyph unicode="&#xcf;" horiz-adv-x="616" d="M-94 1718q0 63 42 105.5t105 42.5t106.5 -42.5t43.5 -105.5t-43.5 -106t-106.5 -43t-105 43t-42 106zM174 39v1356q0 15 12 27t27 12h190q15 0 27 -12t12 -27v-1356q0 -15 -12 -27t-27 -12h-190q-15 0 -27 12t-12 27zM412 1718q0 63 42 105.5t105 42.5t106.5 -42.5 t43.5 -105.5t-43.5 -106t-106.5 -43t-105 43t-42 106z" />
<glyph unicode="&#xd0;" horiz-adv-x="1505" d="M78 696v27q0 15 11 27t26 12h59v633q0 15 11 27t26 12h485q145 0 278.5 -57t230 -153t153.5 -228t57 -277q0 -117 -36.5 -227t-103 -198t-155 -154.5t-198 -103t-226.5 -36.5h-485q-15 0 -26 12t-11 27v618h-59q-15 0 -26 12t-11 27zM438 250h234q199 0 330 134t131 335 q0 200 -131 333.5t-330 133.5h-234v-424h338q17 0 28 -11.5t11 -27.5v-29q0 -15 -11 -26t-28 -11h-338v-407z" />
<glyph unicode="&#xd1;" horiz-adv-x="1558" d="M174 39v1378q0 15 12 26t27 11h31q21 0 35 -14l835 -891h4v846q0 16 11 27.5t28 11.5h189q15 0 26.5 -12t11.5 -27v-1379q0 -15 -11.5 -25.5t-26.5 -10.5h-29q-21 0 -35 14l-840 926h-4v-881q0 -16 -11 -27.5t-28 -11.5h-186q-15 0 -27 12t-12 27zM459.5 1681 q-3.5 15 1.5 25q12 23 18 33.5t29 41.5t43.5 48.5t54 33t68.5 15.5q36 0 68 -17.5t52 -39t46.5 -39t52.5 -17.5q24 0 43 19t28.5 39t26 31t35.5 -5l57 -41q26 -20 2 -63q-1 -1 -8 -13.5t-10.5 -18t-12.5 -19t-15 -21.5t-17.5 -20.5t-21 -20t-23 -17t-27 -14.5t-30 -8.5 t-33.5 -3.5q-36 0 -70 18t-56 39.5t-48.5 39.5t-48.5 18q-24 0 -43 -19t-28 -39.5t-25 -32.5t-36 3l-59 43q-10 7 -13.5 22z" />
<glyph unicode="&#xd2;" horiz-adv-x="1652" d="M90 715q0 101 26 197t73 177t114.5 149t148.5 115.5t176.5 74t196.5 26.5q202 0 371.5 -98.5t268 -268.5t98.5 -372t-98.5 -371t-268 -266.5t-371.5 -97.5q-151 0 -287.5 57.5t-234.5 155.5t-155.5 234.5t-57.5 287.5zM356 715q0 -193 138 -331t331 -138q127 0 235.5 63 t172 171t63.5 235t-63.5 236t-172 173t-235.5 64t-235 -64t-171 -173t-63 -236zM598 1752q-4 15 6 34l58 106q7 13 24 13.5t29 -7.5l336 -200q9 -5 13 -15.5t-1 -23.5l-37 -72q-13 -30 -51 -14l-359 158q-14 6 -18 21z" />
<glyph unicode="&#xd3;" horiz-adv-x="1652" d="M90 715q0 101 26 197t73 177t114.5 149t148.5 115.5t176.5 74t196.5 26.5q202 0 371.5 -98.5t268 -268.5t98.5 -372t-98.5 -371t-268 -266.5t-371.5 -97.5q-151 0 -287.5 57.5t-234.5 155.5t-155.5 234.5t-57.5 287.5zM356 715q0 -193 138 -331t331 -138q127 0 235.5 63 t172 171t63.5 235t-63.5 236t-172 173t-235.5 64t-235 -64t-171 -173t-63 -236zM595 1682.5q4 10.5 13 15.5l336 200q37 23 53 -6l58 -106q10 -19 5.5 -34t-18.5 -21l-358 -158q-38 -16 -51 14l-37 72q-5 13 -1 23.5z" />
<glyph unicode="&#xd4;" horiz-adv-x="1652" d="M90 715q0 101 26 197t73 177t114.5 149t148.5 115.5t176.5 74t196.5 26.5q202 0 371.5 -98.5t268 -268.5t98.5 -372t-98.5 -371t-268 -266.5t-371.5 -97.5q-151 0 -287.5 57.5t-234.5 155.5t-155.5 234.5t-57.5 287.5zM356 715q0 -193 138 -331t331 -138q127 0 235.5 63 t172 171t63.5 235t-63.5 236t-172 173t-235.5 64t-235 -64t-171 -173t-63 -236zM522.5 1672.5q4.5 10.5 14.5 17.5l266 206q20 17 43 0l266 -206q10 -7 14 -17.5t-2 -21.5l-53 -76q-9 -13 -18.5 -14.5t-28.5 8.5l-199 125l-200 -125q-19 -10 -28.5 -8.5t-18.5 14.5l-54 76 q-6 11 -1.5 21.5z" />
<glyph unicode="&#xd5;" horiz-adv-x="1652" d="M90 715q0 101 26 197t73 177t114.5 149t148.5 115.5t176.5 74t196.5 26.5q202 0 371.5 -98.5t268 -268.5t98.5 -372t-98.5 -371t-268 -266.5t-371.5 -97.5q-151 0 -287.5 57.5t-234.5 155.5t-155.5 234.5t-57.5 287.5zM356 715q0 -193 138 -331t331 -138q127 0 235.5 63 t172 171t63.5 235t-63.5 236t-172 173t-235.5 64t-235 -64t-171 -173t-63 -236zM508.5 1681q-3.5 15 1.5 25q12 23 18 33.5t29 41.5t43.5 48.5t54 33t68.5 15.5q36 0 68 -17.5t52 -39t46.5 -39t52.5 -17.5q24 0 43 19t28.5 39t26 31t35.5 -5l58 -41q26 -20 2 -63l-8 -13 q-8 -14 -10.5 -18.5t-12 -19t-16 -21.5t-18 -20t-21 -20.5t-23.5 -17t-27 -14.5t-29.5 -8.5t-33.5 -3.5q-36 0 -70 18t-56 39.5t-48.5 39.5t-48.5 18q-24 0 -43 -19t-27.5 -39.5t-24.5 -32.5t-36 3l-60 43q-10 7 -13.5 22z" />
<glyph unicode="&#xd6;" horiz-adv-x="1652" d="M90 715q0 101 26 197t73 177t114.5 149t148.5 115.5t176.5 74t196.5 26.5q202 0 371.5 -98.5t268 -268.5t98.5 -372t-98.5 -371t-268 -266.5t-371.5 -97.5q-151 0 -287.5 57.5t-234.5 155.5t-155.5 234.5t-57.5 287.5zM356 715q0 -193 138 -331t331 -138q127 0 235.5 63 t172 171t63.5 235t-63.5 236t-172 173t-235.5 64t-235 -64t-171 -173t-63 -236zM424 1718q0 63 42 105.5t105 42.5t106.5 -42.5t43.5 -105.5t-43.5 -106t-106.5 -43t-105 43t-42 106zM930 1718q0 63 42 105.5t105 42.5t106.5 -42.5t43.5 -105.5t-43.5 -106t-106.5 -43 t-105 43t-42 106z" />
<glyph unicode="&#xd7;" d="M252 467q0 17 10 27l217 217l-217 217q-10 10 -10 27t10 28l80 82q10 11 27 11t28 -11l217 -217l217 219q11 10 27 9.5t27 -11.5l82 -82q11 -11 11.5 -26.5t-9.5 -26.5l-217 -219l217 -217q10 -12 9.5 -28.5t-11.5 -27.5l-82 -80q-11 -11 -27 -11.5t-27 9.5l-217 219 l-217 -217q-11 -10 -27 -10t-26 10l-82 82q-10 10 -10 27z" />
<glyph unicode="&#xd8;" horiz-adv-x="1650" d="M90 715q0 101 26 197t73 177t114.5 149t148.5 115.5t176.5 74t196.5 26.5q135 0 260 -47.5t224 -132.5l139 137q10 11 26 11t27 -11l21 -20q10 -11 10 -26.5t-10 -27.5l-140 -139q86 -99 133.5 -222.5t47.5 -258.5q0 -202 -98.5 -371.5t-268 -267.5t-371.5 -98 q-283 0 -483 178l-133 -133q-11 -10 -26.5 -9.5t-26.5 11.5l-21 20q-11 11 -11.5 26.5t9.5 26.5l133 131q-176 205 -176 484zM356 715q0 -160 103 -291l661 659q-137 105 -295 105q-127 0 -235 -64t-171 -173t-63 -236zM532 348q130 -102 293 -102q193 0 332 139t139 332 q0 168 -104 291z" />
<glyph unicode="&#xd9;" horiz-adv-x="1460" d="M160 526v869q0 15 12 27t27 12h194q17 0 28 -11.5t11 -27.5v-854q0 -131 82 -213t215 -82t216 82t83 211v856q0 16 11 27.5t28 11.5h195q15 0 26.5 -12t11.5 -27v-869q0 -115 -44 -216.5t-119.5 -173.5t-181.5 -114t-226 -42q-159 0 -289.5 71t-205 196.5t-74.5 278.5z M498 1752q-4 15 6 34l57 106q7 13 24 13.5t29 -7.5l336 -200q9 -5 13.5 -15.5t-0.5 -23.5l-37 -72q-13 -30 -52 -14l-358 158q-14 6 -18 21z" />
<glyph unicode="&#xda;" horiz-adv-x="1460" d="M160 526v869q0 15 12 27t27 12h194q17 0 28 -11.5t11 -27.5v-854q0 -131 82 -213t215 -82t216 82t83 211v856q0 16 11 27.5t28 11.5h195q15 0 26.5 -12t11.5 -27v-869q0 -115 -44 -216.5t-119.5 -173.5t-181.5 -114t-226 -42q-159 0 -289.5 71t-205 196.5t-74.5 278.5z M503 1682.5q4 10.5 13 15.5l336 200q37 23 53 -6l58 -106q10 -19 5.5 -34t-18.5 -21l-358 -158q-38 -16 -51 14l-37 72q-5 13 -1 23.5z" />
<glyph unicode="&#xdb;" horiz-adv-x="1460" d="M160 526v869q0 15 12 27t27 12h194q17 0 28 -11.5t11 -27.5v-854q0 -131 82 -213t215 -82t216 82t83 211v856q0 16 11 27.5t28 11.5h195q15 0 26.5 -12t11.5 -27v-869q0 -115 -44 -216.5t-119.5 -173.5t-181.5 -114t-226 -42q-159 0 -289.5 71t-205 196.5t-74.5 278.5z M430 1672.5q4 10.5 14 17.5l267 206q20 17 43 0l266 -206q10 -7 14 -17.5t-2 -21.5l-53 -76q-9 -13 -18.5 -14.5t-28.5 8.5l-199 125l-201 -125q-19 -10 -28.5 -8.5t-18.5 14.5l-53 76q-6 11 -2 21.5z" />
<glyph unicode="&#xdc;" horiz-adv-x="1460" d="M160 526v869q0 15 12 27t27 12h194q17 0 28 -11.5t11 -27.5v-854q0 -131 82 -213t215 -82t216 82t83 211v856q0 16 11 27.5t28 11.5h195q15 0 26.5 -12t11.5 -27v-869q0 -115 -44 -216.5t-119.5 -173.5t-181.5 -114t-226 -42q-159 0 -289.5 71t-205 196.5t-74.5 278.5z M330 1718q0 63 42 105.5t105 42.5t106.5 -42.5t43.5 -105.5t-43.5 -106t-106.5 -43t-105 43t-42 106zM836 1718q0 63 42 105.5t105 42.5t106.5 -42.5t43.5 -105.5t-43.5 -106t-106.5 -43t-105 43t-42 106z" />
<glyph unicode="&#xdd;" horiz-adv-x="1214" d="M4.5 1414q10.5 20 34.5 20h209q19 0 33 -19l327 -471l328 471q14 19 33 19h211q24 0 34 -20t-2 -40l-473 -682v-653q0 -15 -12 -27t-27 -12h-188q-17 0 -28 11.5t-11 27.5v651l-467 684q-12 20 -1.5 40zM376 1682.5q4 10.5 13 15.5l336 200q37 23 53 -6l58 -106 q10 -19 5.5 -34t-18.5 -21l-358 -158q-38 -16 -51 14l-37 72q-5 13 -1 23.5z" />
<glyph unicode="&#xde;" horiz-adv-x="1206" d="M174 39v1356q0 16 11 27.5t28 11.5h188q15 0 27 -12t12 -27v-221h254q189 1 324 -133t135 -320q0 -190 -134.5 -325.5t-322.5 -135.5h-256v-221q0 -15 -12 -27t-27 -12h-188q-17 0 -28 11.5t-11 27.5zM440 510h238q87 0 149 61.5t62 151.5q0 84 -62 141.5t-149 57.5h-238 v-412z" />
<glyph unicode="&#xdf;" horiz-adv-x="1161" d="M131 43v797q0 298 133.5 456t378.5 158q93 0 176 -44t136 -128.5t53 -189.5q0 -58 -23 -116t-51 -96t-51 -82t-23 -77q0 -26 23.5 -54t57.5 -58.5t68 -67t57.5 -93.5t23.5 -124q0 -89 -31.5 -158t-84.5 -109t-116 -60t-133 -20q-92 0 -98 46l-21 145q-2 16 9.5 30 t29.5 13q66 -5 119 25.5t53 89.5q0 33 -16.5 63.5t-41.5 53t-54.5 49t-54.5 51t-41.5 60.5t-16.5 77q0 52 24 104.5t52.5 90.5t52.5 95t24 117q0 54 -38.5 94t-92.5 40q-35 0 -64 -8t-60.5 -32.5t-53 -65t-35.5 -112t-14 -167.5v-793q0 -17 -13 -30t-30 -13h-170 q-17 0 -30 13t-13 30z" />
<glyph unicode="&#xe0;" horiz-adv-x="987" d="M66 301q0 130 100.5 213.5t275.5 83.5q43 0 88.5 -7t69.5 -13l25 -7q3 93 -27 136t-104 43q-61 0 -142 -11t-125 -24q-22 -7 -36 5.5t-17 35.5l-20 106q-10 46 30 58q14 6 57 16t120 20.5t147 10.5q108 0 179.5 -27t109.5 -83.5t52.5 -127t14.5 -174.5v-510 q0 -19 -13 -32t-32 -13h-69q-26 0 -41 33l-27 63q-123 -119 -297 -119q-143 0 -231 87t-88 237zM306.5 1259.5q-4.5 13.5 4.5 34.5l58 105q7 13 23.5 14.5t29.5 -8.5l336 -199q10 -5 13.5 -16t-1.5 -23l-37 -73q-13 -29 -51 -13l-358 158q-13 7 -17.5 20.5zM311 301 q0 -61 36.5 -97t101.5 -36q57 0 107.5 34.5t61.5 65.5v140q-63 28 -139 28q-81 0 -124.5 -35.5t-43.5 -99.5z" />
<glyph unicode="&#xe1;" horiz-adv-x="987" d="M66 301q0 130 100.5 213.5t275.5 83.5q43 0 88.5 -7t69.5 -13l25 -7q3 93 -27 136t-104 43q-61 0 -142 -11t-125 -24q-22 -7 -36 5.5t-17 35.5l-20 106q-10 46 30 58q14 6 57 16t120 20.5t147 10.5q108 0 179.5 -27t109.5 -83.5t52.5 -127t14.5 -174.5v-510 q0 -19 -13 -32t-32 -13h-69q-26 0 -41 33l-27 63q-123 -119 -297 -119q-143 0 -231 87t-88 237zM311 301q0 -61 36.5 -97t101.5 -36q57 0 107.5 34.5t61.5 65.5v140q-63 28 -139 28q-81 0 -124.5 -35.5t-43.5 -99.5zM332 1167q-12 23 12 39l334 199q13 10 29.5 8.5 t23.5 -14.5l60 -105q8 -21 4 -35t-17 -20l-358 -158q-38 -15 -53 13z" />
<glyph unicode="&#xe2;" horiz-adv-x="987" d="M66 301q0 130 100.5 213.5t275.5 83.5q43 0 88.5 -7t69.5 -13l25 -7q3 93 -27 136t-104 43q-61 0 -142 -11t-125 -24q-22 -7 -36 5.5t-17 35.5l-20 106q-10 46 30 58q14 6 57 16t120 20.5t147 10.5q108 0 179.5 -27t109.5 -83.5t52.5 -127t14.5 -174.5v-510 q0 -19 -13 -32t-32 -13h-69q-26 0 -41 33l-27 63q-123 -119 -297 -119q-143 0 -231 87t-88 237zM201 1180.5q4 10.5 14 17.5l266 207q20 17 43 0l267 -207q10 -7 14 -17.5t-2 -21.5l-53 -76q-17 -23 -48 -6l-198 125l-201 -125q-19 -10 -28.5 -8.5t-18.5 14.5l-53 76 q-6 11 -2 21.5zM311 301q0 -61 36.5 -97t101.5 -36q57 0 107.5 34.5t61.5 65.5v140q-63 28 -139 28q-81 0 -124.5 -35.5t-43.5 -99.5z" />
<glyph unicode="&#xe3;" horiz-adv-x="987" d="M66 301q0 130 100.5 213.5t275.5 83.5q43 0 88.5 -7t69.5 -13l25 -7q3 93 -27 136t-104 43q-61 0 -142 -11t-125 -24q-22 -7 -36 5.5t-17 35.5l-20 106q-10 46 30 58q14 6 57 16t120 20.5t147 10.5q108 0 179.5 -27t109.5 -83.5t52.5 -127t14.5 -174.5v-510 q0 -19 -13 -32t-32 -13h-69q-26 0 -41 33l-27 63q-123 -119 -297 -119q-143 0 -231 87t-88 237zM189 1216q-4 15 1 25q12 23 18 33.5t29 41.5t43.5 48.5t54 33t68.5 15.5q36 0 68 -17.5t52.5 -39t47 -39t52.5 -17.5q24 0 43 19t28.5 39t26 31t35.5 -5l57 -41q26 -20 2 -63 l-8 -14q-8 -13 -10.5 -17.5t-12 -19t-16 -21.5t-18 -20t-21 -20.5t-23.5 -17t-27 -14.5t-29.5 -8.5t-33.5 -3.5q-36 0 -70 18t-56 39.5t-48.5 39.5t-48.5 18q-24 0 -43 -19t-27.5 -39.5t-24.5 -32.5t-36 3l-59 43q-10 7 -14 22zM311 301q0 -61 36.5 -97t101.5 -36 q57 0 107.5 34.5t61.5 65.5v140q-63 28 -139 28q-81 0 -124.5 -35.5t-43.5 -99.5z" />
<glyph unicode="&#xe4;" horiz-adv-x="987" d="M66 301q0 130 100.5 213.5t275.5 83.5q43 0 88.5 -7t69.5 -13l25 -7q3 93 -27 136t-104 43q-61 0 -142 -11t-125 -24q-22 -7 -36 5.5t-17 35.5l-20 106q-10 46 30 58q14 6 57 16t120 20.5t147 10.5q108 0 179.5 -27t109.5 -83.5t52.5 -127t14.5 -174.5v-510 q0 -19 -13 -32t-32 -13h-69q-26 0 -41 33l-27 63q-123 -119 -297 -119q-143 0 -231 87t-88 237zM154 1260q0 63 42 105t105 42t106.5 -42t43.5 -105t-43.5 -106.5t-106.5 -43.5t-105 43.5t-42 106.5zM311 301q0 -61 36.5 -97t101.5 -36q57 0 107.5 34.5t61.5 65.5v140 q-63 28 -139 28q-81 0 -124.5 -35.5t-43.5 -99.5zM565 1260q0 63 42.5 105t105.5 42t106 -42t43 -105t-43 -106.5t-106 -43.5t-105.5 43.5t-42.5 106.5z" />
<glyph unicode="&#xe5;" horiz-adv-x="987" d="M66 301q0 130 100.5 213.5t275.5 83.5q43 0 88.5 -7t69.5 -13l25 -7q3 93 -27 136t-104 43q-61 0 -142 -11t-125 -24q-22 -7 -36 5.5t-17 35.5l-20 106q-10 46 30 58q14 6 57 16t120 20.5t147 10.5q108 0 179.5 -27t109.5 -83.5t52.5 -127t14.5 -174.5v-510 q0 -19 -13 -32t-32 -13h-69q-26 0 -41 33l-27 63q-123 -119 -297 -119q-143 0 -231 87t-88 237zM281 1272q0 97 67 164t164 67q96 0 163.5 -67.5t67.5 -163.5t-67.5 -164t-163.5 -68q-97 0 -164 67.5t-67 164.5zM311 301q0 -61 36.5 -97t101.5 -36q57 0 107.5 34.5 t61.5 65.5v140q-63 28 -139 28q-81 0 -124.5 -35.5t-43.5 -99.5zM410 1272q0 -40 31 -71.5t71 -31.5q39 0 68.5 31.5t29.5 71.5t-29 69t-69 29t-71 -29.5t-31 -68.5z" />
<glyph unicode="&#xe6;" horiz-adv-x="1583" d="M68 301q0 128 98.5 212.5t267.5 84.5q43 0 89 -6t71 -12l24 -7q-3 97 -29.5 137t-101.5 40q-64 0 -138 -11t-118 -24q-19 -6 -34.5 4.5t-18.5 28.5l-24 126q-3 17 8 30t28 18q175 45 320 45q205 0 285 -103q124 103 284 103q185 0 315 -124t130 -315q0 -22 -1 -35.5 t-6 -31.5t-16.5 -27.5t-30.5 -9.5h-602q0 -82 65.5 -150.5t172.5 -68.5q117 0 207 74q12 10 26.5 10.5t28.5 -15.5l80 -104q27 -39 -4 -61q-60 -58 -156 -95t-207 -37q-105 0 -195.5 44t-156.5 122q-42 -58 -132 -112t-206 -54q-146 0 -234.5 87.5t-88.5 236.5zM313 301 q0 -61 36.5 -97t101.5 -36q57 0 108 34.5t62 65.5v140q-64 28 -140 28q-81 0 -124.5 -35.5t-43.5 -99.5zM883 592h383q-3 70 -54.5 117t-128.5 47q-84 0 -137.5 -45.5t-62.5 -118.5z" />
<glyph unicode="&#xe7;" horiz-adv-x="1007" d="M74 473q0 209 145 351.5t356 142.5q203 0 353 -160q14 -16 10 -34t-20 -34l-87 -94q-26 -29 -61 6q-86 82 -188 82q-109 0 -179.5 -75t-70.5 -185q0 -112 69.5 -187t178.5 -75q48 0 89.5 18t62.5 37t48 49q11 12 29.5 14.5t30.5 -7.5l92 -78q38 -33 16 -68 q-112 -175 -321 -196l-68 -107q21 6 43 6q73 0 123.5 -47.5t50.5 -130.5q0 -94 -69.5 -149.5t-176.5 -55.5q-110 0 -172 51q-20 20 0 58l19 41q17 42 55 18q38 -33 88 -33q44 0 70 20.5t26 59.5q0 37 -26 57.5t-68 20.5q-17 0 -31 -4t-28.5 -10.5t-18.5 -7.5q-15 -6 -28.5 8 t-5.5 28l88 181q-182 25 -303 161.5t-121 327.5z" />
<glyph unicode="&#xe8;" horiz-adv-x="1046" d="M74 473q0 133 60 245.5t170 180.5t247 68q186 0 310 -124t124 -315q0 -33 -4 -61q-1 -18 -15 -30.5t-30 -12.5h-606q2 -90 68.5 -154.5t166.5 -64.5q118 0 203 69q39 31 61 0l80 -106q29 -33 -4 -62q-151 -129 -352 -129q-138 0 -248.5 67.5t-170.5 180.5t-60 248z M344 592h383q-3 70 -54 117t-128 47q-84 0 -138 -46t-63 -118zM369 1294l57 105q7 13 23.5 14.5t29.5 -8.5l336 -199q10 -5 13.5 -16t-1.5 -23l-36 -73q-13 -29 -52 -13l-358 158q-32 16 -12 55z" />
<glyph unicode="&#xe9;" horiz-adv-x="1046" d="M74 473q0 133 60 245.5t170 180.5t247 68q186 0 310 -124t124 -315q0 -33 -4 -61q-1 -18 -15 -30.5t-30 -12.5h-606q2 -90 68.5 -154.5t166.5 -64.5q118 0 203 69q39 31 61 0l80 -106q29 -33 -4 -62q-151 -129 -352 -129q-138 0 -248.5 67.5t-170.5 180.5t-60 248z M342 1167q-12 23 12 39l334 199q13 10 29.5 8.5t23.5 -14.5l60 -105q8 -21 4 -35t-17 -20l-358 -158q-38 -15 -53 13zM344 592h383q-3 70 -54 117t-128 47q-84 0 -138 -46t-63 -118z" />
<glyph unicode="&#xea;" horiz-adv-x="1046" d="M74 473q0 133 60 245.5t170 180.5t247 68q186 0 310 -124t124 -315q0 -33 -4 -61q-1 -18 -15 -30.5t-30 -12.5h-606q2 -90 68.5 -154.5t166.5 -64.5q118 0 203 69q39 31 61 0l80 -106q29 -33 -4 -62q-151 -129 -352 -129q-138 0 -248.5 67.5t-170.5 180.5t-60 248z M250 1180.5q4 10.5 14 17.5l266 207q20 17 43 0l267 -207q10 -7 14 -17.5t-2 -21.5l-53 -76q-9 -13 -18.5 -14.5t-28.5 8.5l-199 125l-201 -125q-19 -10 -28.5 -8.5t-18.5 14.5l-53 76q-6 11 -2 21.5zM344 592h383q-3 70 -54 117t-128 47q-84 0 -138 -46t-63 -118z" />
<glyph unicode="&#xeb;" horiz-adv-x="1046" d="M74 473q0 133 60 245.5t170 180.5t247 68q186 0 310 -124t124 -315q0 -33 -4 -61q-1 -18 -15 -30.5t-30 -12.5h-606q2 -90 68.5 -154.5t166.5 -64.5q118 0 203 69q39 31 61 0l80 -106q29 -33 -4 -62q-151 -129 -352 -129q-138 0 -248.5 67.5t-170.5 180.5t-60 248z M203 1260q0 63 42 105t105 42t106.5 -42t43.5 -105t-43.5 -106.5t-106.5 -43.5t-105 43.5t-42 106.5zM344 592h383q-3 70 -54 117t-128 47q-84 0 -138 -46t-63 -118zM614 1260q0 63 42.5 105t105.5 42t106 -42t43 -105t-43 -106.5t-106 -43.5t-105.5 43.5t-42.5 106.5z" />
<glyph unicode="&#xec;" horiz-adv-x="518" d="M50.5 1259.5q-4.5 13.5 4.5 34.5l58 105q7 13 23.5 14.5t29.5 -8.5l336 -199q10 -5 13.5 -16t-1.5 -23l-37 -73q-13 -29 -51 -13l-358 158q-13 7 -17.5 20.5zM131 45v856q0 20 13.5 32.5t31.5 12.5h166q18 0 31.5 -12.5t13.5 -32.5v-856q0 -18 -13.5 -31.5t-31.5 -13.5 h-166q-18 0 -31.5 13.5t-13.5 31.5z" />
<glyph unicode="&#xed;" horiz-adv-x="518" d="M47 1167q-12 23 12 39l334 199q13 10 29.5 8.5t23.5 -14.5l60 -105q18 -40 -12 -55l-359 -158q-38 -15 -53 13zM131 45v856q0 20 13.5 32.5t31.5 12.5h166q18 0 31.5 -12.5t13.5 -32.5v-856q0 -18 -13.5 -31.5t-31.5 -13.5h-166q-18 0 -31.5 13.5t-13.5 31.5z" />
<glyph unicode="&#xee;" horiz-adv-x="518" d="M-28.5 1180.5q4.5 10.5 14.5 17.5l266 207q20 17 43 0l266 -207q10 -7 14 -17.5t-2 -21.5l-53 -76q-9 -13 -18.5 -14.5t-28.5 8.5l-199 125l-200 -125q-19 -10 -28.5 -8.5t-18.5 14.5l-54 76q-6 11 -1.5 21.5zM131 45v856q0 20 13.5 32.5t31.5 12.5h166q18 0 31.5 -12.5 t13.5 -32.5v-856q0 -18 -13.5 -31.5t-31.5 -13.5h-166q-18 0 -31.5 13.5t-13.5 31.5z" />
<glyph unicode="&#xef;" horiz-adv-x="518" d="M-84 1260q0 63 42 105t105 42t106.5 -42t43.5 -105t-43.5 -106.5t-106.5 -43.5t-105 43.5t-42 106.5zM131 45v856q0 20 13.5 32.5t31.5 12.5h166q18 0 31.5 -12.5t13.5 -32.5v-856q0 -18 -13.5 -31.5t-31.5 -13.5h-166q-18 0 -31.5 13.5t-13.5 31.5zM328 1260 q0 63 42 105t105 42t106.5 -42t43.5 -105t-43.5 -106.5t-106.5 -43.5t-105 43.5t-42 106.5z" />
<glyph unicode="&#xf0;" horiz-adv-x="1144" d="M76 463q0 109 37.5 198t99 144t137 85t156.5 30q67 0 137.5 -20t101.5 -40q-43 152 -221 279l-170 -99q-14 -7 -29.5 -3t-23.5 16l-14 26q-8 13 -4.5 30t16.5 24l123 69q-69 40 -139 64q-57 17 -39 61l49 125q12 41 59 29q158 -63 289 -150l145 84q15 7 31.5 2.5 t24.5 -18.5l14 -23q8 -15 4.5 -31.5t-16.5 -23.5l-111 -64q322 -271 322 -696q0 -120 -32.5 -224.5t-94 -184.5t-158.5 -126t-217 -46q-195 0 -336 142t-141 341zM313 467q0 -100 71.5 -174t170.5 -74q80 0 138 48.5t83 117t25 145.5q-21 69 -85 126t-159 57 q-101 0 -172.5 -72.5t-71.5 -173.5z" />
<glyph unicode="&#xf1;" horiz-adv-x="1132" d="M131 45v856q0 20 13.5 32.5t31.5 12.5h78q30 0 39 -28l35 -89q16 18 28 30t42 34.5t59.5 36.5t76.5 25.5t99 11.5q379 0 379 -432v-490q0 -18 -13.5 -31.5t-31.5 -13.5h-166q-19 0 -32 13t-13 32v490q0 198 -164 198q-84 0 -134 -43.5t-71 -103.5v-541q0 -26 -12.5 -35.5 t-46.5 -9.5h-152q-18 0 -31.5 13.5t-13.5 31.5zM281.5 1216q-3.5 15 1.5 25q12 23 18 33.5t29 41.5t43.5 48.5t54 33t68.5 15.5q36 0 68 -17.5t52 -39t46.5 -39t52.5 -17.5q24 0 43 19t28.5 39t26 31t35.5 -5l57 -41q26 -20 2 -63q-1 -1 -8 -13.5t-10.5 -18t-12.5 -19 t-15 -21.5t-17.5 -20.5t-21 -20t-23 -17t-27 -14.5t-30 -8.5t-33.5 -3.5q-36 0 -70 18t-56 39.5t-49 39.5t-49 18q-24 0 -43 -19t-27.5 -39.5t-24.5 -32.5t-36 3l-59 43q-10 7 -13.5 22z" />
<glyph unicode="&#xf2;" horiz-adv-x="1114" d="M74 475q0 131 64.5 244.5t176.5 180.5t242 67q131 0 243 -67t177 -180.5t65 -244.5q0 -133 -65 -247.5t-177 -182.5t-243 -68q-98 0 -187.5 40t-154 107.5t-103 159t-38.5 191.5zM311 475q0 -109 72 -186.5t174 -77.5q103 0 175.5 77.5t72.5 186.5q0 107 -72.5 182.5 t-175.5 75.5t-174.5 -75.5t-71.5 -182.5zM336 1294l57 105q7 13 23.5 14.5t29.5 -8.5l336 -199q10 -5 14 -16t-1 -23l-37 -73q-13 -29 -51 -13l-359 158q-32 16 -12 55z" />
<glyph unicode="&#xf3;" horiz-adv-x="1114" d="M74 475q0 131 64.5 244.5t176.5 180.5t242 67q131 0 243 -67t177 -180.5t65 -244.5q0 -133 -65 -247.5t-177 -182.5t-243 -68q-98 0 -187.5 40t-154 107.5t-103 159t-38.5 191.5zM311 475q0 -109 72 -186.5t174 -77.5q103 0 175.5 77.5t72.5 186.5q0 107 -72.5 182.5 t-175.5 75.5t-174.5 -75.5t-71.5 -182.5zM330 1167q-12 23 12 39l334 199q13 10 29.5 8.5t23.5 -14.5l59 -105q18 -40 -12 -55l-358 -158q-38 -15 -53 13z" />
<glyph unicode="&#xf4;" horiz-adv-x="1114" d="M74 475q0 131 64.5 244.5t176.5 180.5t242 67q131 0 243 -67t177 -180.5t65 -244.5q0 -133 -65 -247.5t-177 -182.5t-243 -68q-98 0 -187.5 40t-154 107.5t-103 159t-38.5 191.5zM256 1180.5q4 10.5 14 17.5l267 207q20 17 43 0l266 -207q10 -7 14 -17.5t-2 -21.5 l-53 -76q-9 -13 -18.5 -14.5t-28.5 8.5l-199 125l-201 -125q-19 -10 -28.5 -8.5t-18.5 14.5l-53 76q-6 11 -2 21.5zM311 475q0 -109 72 -186.5t174 -77.5q103 0 175.5 77.5t72.5 186.5q0 107 -72.5 182.5t-175.5 75.5t-174.5 -75.5t-71.5 -182.5z" />
<glyph unicode="&#xf5;" horiz-adv-x="1114" d="M74 475q0 131 64.5 244.5t176.5 180.5t242 67q131 0 243 -67t177 -180.5t65 -244.5q0 -133 -65 -247.5t-177 -182.5t-243 -68q-98 0 -187.5 40t-154 107.5t-103 159t-38.5 191.5zM240.5 1216q-3.5 15 1.5 25q12 23 18 33.5t29 41.5t43.5 48.5t54 33t68.5 15.5 q36 0 68 -17.5t52 -39t46.5 -39t52.5 -17.5q24 0 43 19t28.5 39t26 31t35.5 -5l57 -41q26 -20 2 -63q-1 -1 -8 -13.5t-10.5 -18t-12.5 -19t-15 -21.5t-17.5 -20.5t-21 -20t-23 -17t-27 -14.5t-30 -8.5t-33.5 -3.5q-36 0 -70 18t-56 39.5t-49 39.5t-49 18q-24 0 -43 -19 t-27.5 -39.5t-24.5 -32.5t-36 3l-59 43q-10 7 -13.5 22zM311 475q0 -109 72 -186.5t174 -77.5q103 0 175.5 77.5t72.5 186.5q0 107 -72.5 182.5t-175.5 75.5t-174.5 -75.5t-71.5 -182.5z" />
<glyph unicode="&#xf6;" horiz-adv-x="1114" d="M74 475q0 131 64.5 244.5t176.5 180.5t242 67q131 0 243 -67t177 -180.5t65 -244.5q0 -133 -65 -247.5t-177 -182.5t-243 -68q-98 0 -187.5 40t-154 107.5t-103 159t-38.5 191.5zM205 1260q0 63 42 105t105 42t106.5 -42t43.5 -105t-43.5 -106.5t-106.5 -43.5t-105 43.5 t-42 106.5zM311 475q0 -109 72 -186.5t174 -77.5q103 0 175.5 77.5t72.5 186.5q0 107 -72.5 182.5t-175.5 75.5t-174.5 -75.5t-71.5 -182.5zM616 1260q0 63 42.5 105t105.5 42t106 -42t43 -105t-43 -106.5t-106 -43.5t-105.5 43.5t-42.5 106.5z" />
<glyph unicode="&#xf7;" d="M172 651v115q0 15 12 27t27 12h807q15 0 26 -12t11 -27v-115q0 -15 -11 -27t-26 -12h-807q-15 0 -27 12t-12 27zM467 328q0 58 40.5 98.5t98.5 40.5q59 0 100.5 -40.5t41.5 -98.5t-42 -100t-100 -42t-98.5 41.5t-40.5 100.5zM467 1106q0 58 41.5 99.5t99.5 41.5 q59 0 100.5 -41.5t41.5 -99.5q0 -57 -42 -99t-100 -42t-99.5 42t-41.5 99z" />
<glyph unicode="&#xf8;" horiz-adv-x="1114" d="M74 475q0 131 64.5 244.5t176.5 180.5t242 67q177 0 315 -119l31 31q11 13 29 12.5t29 -12.5l22 -23q13 -12 13 -29t-13 -30l-35 -35q94 -131 94 -287q0 -133 -65 -247.5t-177 -182.5t-243 -68q-153 0 -285 97l-45 -45q-12 -11 -30.5 -10.5t-30.5 12.5l-21 22 q-12 12 -13 30t11 30l43 43q-112 141 -112 319zM311 475q0 -81 43 -149l353 354q-66 53 -150 53q-103 0 -174.5 -75.5t-71.5 -182.5zM438 244q58 -33 119 -33q103 0 175.5 77.5t72.5 186.5q0 56 -27 115z" />
<glyph unicode="&#xf9;" horiz-adv-x="1091" d="M121 399v502q0 20 13 32.5t32 12.5h166q19 0 32 -12.5t13 -32.5v-502q0 -96 37 -142t123 -46q37 0 67.5 15.5t50.5 42t32 56t18 62.5v514q0 27 10.5 36t40.5 9h159q19 0 32.5 -12.5t13.5 -32.5v-856q0 -19 -13.5 -32t-32.5 -13h-73q-33 0 -45 35l-27 80 q-133 -138 -293 -138q-86 0 -149.5 21.5t-102.5 57.5t-63 91.5t-32.5 115t-8.5 136.5zM308.5 1259.5q-4.5 13.5 4.5 34.5l58 105q7 13 23.5 14.5t29.5 -8.5l336 -199q10 -5 13.5 -16t-1.5 -23l-37 -73q-13 -29 -51 -13l-358 158q-13 7 -17.5 20.5z" />
<glyph unicode="&#xfa;" horiz-adv-x="1091" d="M121 399v502q0 20 13 32.5t32 12.5h166q19 0 32 -12.5t13 -32.5v-502q0 -96 37 -142t123 -46q37 0 67.5 15.5t50.5 42t32 56t18 62.5v514q0 27 10.5 36t40.5 9h159q19 0 32.5 -12.5t13.5 -32.5v-856q0 -19 -13.5 -32t-32.5 -13h-73q-33 0 -45 35l-27 80 q-133 -138 -293 -138q-86 0 -149.5 21.5t-102.5 57.5t-63 91.5t-32.5 115t-8.5 136.5zM307 1167q-12 23 12 39l334 199q13 10 30 8.5t24 -14.5l59 -105q18 -40 -12 -55l-359 -158q-38 -15 -53 13z" />
<glyph unicode="&#xfb;" horiz-adv-x="1091" d="M121 399v502q0 20 13 32.5t32 12.5h166q19 0 32 -12.5t13 -32.5v-502q0 -96 37 -142t123 -46q37 0 67.5 15.5t50.5 42t32 56t18 62.5v514q0 27 10.5 36t40.5 9h159q19 0 32.5 -12.5t13.5 -32.5v-856q0 -19 -13.5 -32t-32.5 -13h-73q-33 0 -45 35l-27 80 q-133 -138 -293 -138q-86 0 -149.5 21.5t-102.5 57.5t-63 91.5t-32.5 115t-8.5 136.5zM242 1180.5q4 10.5 14 17.5l266 207q20 17 43 0l266 -207q10 -7 14.5 -17.5t-1.5 -21.5l-53 -76q-17 -23 -48 -6l-198 125l-201 -125q-19 -10 -28.5 -8.5t-18.5 14.5l-53 76 q-6 11 -2 21.5z" />
<glyph unicode="&#xfc;" horiz-adv-x="1091" d="M121 399v502q0 20 13 32.5t32 12.5h166q19 0 32 -12.5t13 -32.5v-502q0 -96 37 -142t123 -46q37 0 67.5 15.5t50.5 42t32 56t18 62.5v514q0 27 10.5 36t40.5 9h159q19 0 32.5 -12.5t13.5 -32.5v-856q0 -19 -13.5 -32t-32.5 -13h-73q-33 0 -45 35l-27 80 q-133 -138 -293 -138q-86 0 -149.5 21.5t-102.5 57.5t-63 91.5t-32.5 115t-8.5 136.5zM186 1260q0 63 42.5 105t105.5 42t106 -42t43 -105t-43 -106.5t-106 -43.5t-105.5 43.5t-42.5 106.5zM598 1260q0 63 42 105t105 42t106.5 -42t43.5 -105t-43.5 -106.5t-106.5 -43.5 t-105 43.5t-42 106.5z" />
<glyph unicode="&#xfd;" horiz-adv-x="1021" d="M43 885q-9 25 2.5 43t38.5 18h197q31 0 38 -26l170 -566h5l215 566q10 17 22 21.5t37 4.5h174q27 0 39.5 -18.5t1.5 -42.5l-557 -1344q-5 -11 -16.5 -19.5t-24.5 -8.5h-197q-27 0 -39.5 19t-1.5 44l191 479zM326 1167q-12 23 12 39l334 199q13 10 29.5 8.5t23.5 -14.5 l59 -105q18 -40 -12 -55l-358 -158q-38 -15 -54 13z" />
<glyph unicode="&#xfe;" horiz-adv-x="1159" d="M131 -442v1831q0 17 14 31t31 14h166q18 0 31.5 -13.5t13.5 -31.5v-488q33 25 103 45.5t145 20.5q127 0 231 -67.5t161.5 -180.5t57.5 -246q0 -212 -136.5 -354t-336.5 -142q-59 0 -126.5 17t-98.5 37v-473q0 -19 -13 -32t-32 -13h-166q-18 0 -31.5 13.5t-13.5 31.5z M387 264q9 -6 25 -15t67.5 -23.5t104.5 -14.5q111 0 173 76.5t62 183.5t-59 184.5t-164 77.5q-70 0 -128.5 -38.5t-80.5 -80.5v-350z" />
<glyph unicode="&#xff;" horiz-adv-x="1021" d="M43 885q-9 25 2.5 43t38.5 18h197q31 0 38 -26l170 -566h5l215 566q10 17 22 21.5t37 4.5h174q27 0 39.5 -18.5t1.5 -42.5l-557 -1344q-5 -11 -16.5 -19.5t-24.5 -8.5h-197q-27 0 -39.5 19t-1.5 44l191 479zM174 1260q0 63 42.5 105t105.5 42t106 -42t43 -105t-43 -106.5 t-106 -43.5t-105.5 43.5t-42.5 106.5zM586 1260q0 63 42 105t105 42t106.5 -42t43.5 -105t-43.5 -106.5t-106.5 -43.5t-105 43.5t-42 106.5z" />
<glyph unicode="&#x152;" horiz-adv-x="1990" d="M90 715q0 101 26 197t73 177t114.5 149t148.5 115.5t176.5 74t196.5 26.5q49 0 99 -5t75 -10l25 -5h834q17 0 27.5 -11.5t10.5 -27.5v-168q0 -16 -10.5 -27.5t-27.5 -11.5h-607v-336h506q15 0 27 -12t12 -27v-170q0 -17 -11.5 -28t-27.5 -11h-506v-358h607 q17 0 27.5 -11.5t10.5 -27.5v-168q0 -16 -10.5 -27.5t-27.5 -11.5h-834q-115 -20 -199 -20q-151 0 -287.5 57.5t-234.5 155.5t-155.5 234.5t-57.5 287.5zM356 715q0 -127 63 -236t171 -173t235 -64q94 0 160 26v895q-82 29 -160 29q-127 0 -235 -65t-171 -175t-63 -237z" />
<glyph unicode="&#x153;" horiz-adv-x="1738" d="M74 477q0 98 38.5 188.5t103 156.5t154 105.5t187.5 39.5t188 -39.5t156 -108.5q132 148 336 148q182 0 311 -125t129 -316q0 -33 -4 -61q-1 -18 -15 -29.5t-30 -11.5h-604q5 -93 71 -156t165 -63q56 0 113 19.5t89 49.5q15 13 31 14.5t31 -14.5l80 -104q27 -38 -2 -61 q-62 -59 -157.5 -96t-205.5 -36q-210 3 -342 148q-65 -70 -153.5 -109t-186.5 -39q-130 0 -242 68.5t-176.5 183.5t-64.5 248zM311 475q0 -109 72 -186.5t174 -77.5q103 0 175.5 77.5t72.5 186.5q0 107 -72.5 182.5t-175.5 75.5t-174.5 -75.5t-71.5 -182.5zM1038 592h383 q-3 70 -54 117t-128 47q-84 0 -138 -46t-63 -118z" />
<glyph unicode="&#x178;" horiz-adv-x="1214" d="M4.5 1414q10.5 20 34.5 20h209q19 0 33 -19l327 -471l328 471q14 19 33 19h211q24 0 34 -20t-2 -40l-473 -682v-653q0 -15 -12 -27t-27 -12h-188q-17 0 -28 11.5t-11 27.5v651l-467 684q-12 20 -1.5 40zM207 1718q0 63 42 105.5t105 42.5t106.5 -42.5t43.5 -105.5 t-43.5 -106t-106.5 -43t-105 43t-42 106zM713 1718q0 63 42 105.5t105 42.5t106.5 -42.5t43.5 -105.5t-43.5 -106t-106.5 -43t-105 43t-42 106z" />
<glyph unicode="&#x192;" horiz-adv-x="788" d="M-138.5 -406.5q-2.5 14.5 3.5 25.5l78 127q7 12 21.5 15t27.5 -5q8 -8 43.5 -21.5t62.5 -13.5q60 0 102 46.5t42 136.5v702h-154q-17 0 -28 11.5t-11 27.5v135q0 17 11 28t28 11h154v223q0 195 109 303.5t286 108.5q130 0 227 -80q9 -9 12 -23.5t-4 -25.5l-75 -127 q-9 -12 -23 -15t-26 5q-11 9 -46.5 22t-62.5 13q-60 0 -100.5 -46.5t-40.5 -136.5v-221h204q17 0 28 -11t11 -28v-135q0 -16 -11 -27.5t-28 -11.5h-204v-704q0 -194 -111 -303t-287 -109q-130 0 -227 80q-9 9 -11.5 23.5z" />
<glyph unicode="&#x2c6;" horiz-adv-x="763" d="M74 1180.5q4 10.5 14 17.5l266 207q20 17 43 0l267 -207q10 -7 14 -17.5t-2 -21.5l-53 -76q-17 -23 -48 -6l-198 125l-201 -125q-19 -10 -28.5 -8.5t-18.5 14.5l-53 76q-6 11 -2 21.5z" />
<glyph unicode="&#x2c7;" horiz-adv-x="763" d="M76 1297.5q-4 10.5 2 21.5l53 76q9 13 18.5 14.5t28.5 -8.5l199 -125l201 125q19 10 28.5 8.5t18.5 -14.5l53 -76q6 -11 2 -21.5t-14 -17.5l-267 -207q-20 -17 -43 0l-266 207q-10 7 -14 17.5z" />
<glyph unicode="&#x2d8;" horiz-adv-x="708" d="M68 1323q-3 19 6.5 32t29.5 13h76q13 0 22.5 -8.5t12.5 -20.5q15 -49 52 -78.5t87 -29.5q44 0 81.5 31.5t53.5 76.5q3 12 13.5 20.5t21.5 8.5h80q18 0 28.5 -13t8.5 -32q-17 -104 -97.5 -173t-189.5 -69q-111 0 -191 69t-95 173z" />
<glyph unicode="&#x2d9;" horiz-adv-x="448" d="M63 1245q0 68 46.5 115t115.5 47t116.5 -47t47.5 -115t-47.5 -116t-116.5 -48q-68 0 -115 48t-47 116z" />
<glyph unicode="&#x2da;" horiz-adv-x="593" d="M66 1223q0 97 67 164t164 67q96 0 163.5 -67.5t67.5 -163.5q0 -97 -68 -164.5t-163 -67.5q-97 0 -164 67.5t-67 164.5zM195 1223q0 -40 31 -71.5t71 -31.5q39 0 68.5 31.5t29.5 71.5t-29 69t-69 29t-71 -29.5t-31 -68.5z" />
<glyph unicode="&#x2db;" horiz-adv-x="565" d="M47 -293q0 44 15 86t34.5 71.5t51 61t52 47t50.5 37.5l180 -4q-29 -19 -59 -43.5t-65 -59t-57 -75.5t-22 -78q0 -88 80 -88q60 0 125 57q14 12 27.5 7.5t13.5 -21.5l2 -100q0 -42 -31 -64q-78 -47 -182 -47q-103 0 -159 60t-56 153z" />
<glyph unicode="&#x2dc;" horiz-adv-x="778" d="M70.5 1216q-3.5 15 1.5 25q12 23 18 33.5t29 41.5t43.5 48.5t54 33t68.5 15.5q36 0 68 -17.5t52 -39t46.5 -39t52.5 -17.5q24 0 43 19t28.5 39t26 31t35.5 -5l57 -41q26 -20 2 -63q-1 -1 -8 -13.5t-10.5 -18t-12.5 -19t-15 -21.5t-17.5 -20.5t-21 -20t-23 -17t-27 -14.5 t-30 -8.5t-33.5 -3.5q-36 0 -70 18t-56 39.5t-49 39.5t-49 18q-24 0 -43 -19t-27.5 -39.5t-24.5 -32.5t-36 3l-59 43q-10 7 -13.5 22z" />
<glyph unicode="&#x2dd;" horiz-adv-x="802" d="M80 1106l76 289q12 39 39 39h155q28 0 38 -16t-1 -36l-160 -284q-15 -31 -37 -31h-71q-24 0 -34 11.5t-5 27.5zM420 1106l76 289q12 39 39 39h155q28 0 38.5 -16.5t-1.5 -35.5l-160 -284q-15 -31 -37 -31h-71q-24 0 -34 11.5t-5 27.5z" />
<glyph unicode="&#x3a9;" horiz-adv-x="1708" d="M117 729q0 151 58 286t156.5 231t235 152t287.5 56t287.5 -56t235 -152t156.5 -231t58 -286q0 -139 -62.5 -274.5t-160.5 -200.5h180q15 0 26 -11.5t11 -25.5v-180q0 -15 -11 -26t-26 -11h-553q-15 0 -24.5 11t-9.5 26v110q0 25 6.5 40t14 21t28.5 17q144 70 227.5 205.5 t83.5 284.5q0 125 -63 233.5t-171 173t-233 64.5q-191 0 -330 -140t-139 -331q0 -148 84 -283.5t227 -206.5q22 -11 30 -17t15 -21t7 -40v-110q0 -16 -10 -26.5t-27 -10.5h-551q-15 0 -26 11t-11 26v180q0 14 11 25.5t26 11.5h176q-97 65 -158 200.5t-61 274.5z" />
<glyph unicode="&#x3c0;" horiz-adv-x="1388" d="M41 758v147q0 17 11 29t28 12h1231q17 0 27 -11t10 -28v-149q0 -18 -10 -29.5t-27 -11.5h-201v-676q0 -17 -11 -29t-28 -12h-176q-16 0 -28.5 12t-12.5 29v676h-332v-676q0 -17 -12.5 -29t-28.5 -12h-174q-17 0 -29 12t-12 29v676h-186q-17 0 -28 12.5t-11 28.5z" />
<glyph unicode="&#x2000;" horiz-adv-x="1003" />
<glyph unicode="&#x2001;" horiz-adv-x="2007" />
<glyph unicode="&#x2002;" horiz-adv-x="1003" />
<glyph unicode="&#x2003;" horiz-adv-x="2007" />
<glyph unicode="&#x2004;" horiz-adv-x="669" />
<glyph unicode="&#x2005;" horiz-adv-x="501" />
<glyph unicode="&#x2006;" horiz-adv-x="334" />
<glyph unicode="&#x2007;" horiz-adv-x="334" />
<glyph unicode="&#x2008;" horiz-adv-x="250" />
<glyph unicode="&#x2009;" horiz-adv-x="401" />
<glyph unicode="&#x200a;" horiz-adv-x="111" />
<glyph unicode="&#x2010;" horiz-adv-x="759" d="M113 430v137q0 17 11 28t28 11h456q17 0 28 -11t11 -28v-137q0 -15 -11 -26t-28 -11h-456q-17 0 -28 11t-11 26z" />
<glyph unicode="&#x2011;" horiz-adv-x="759" d="M113 430v137q0 17 11 28t28 11h456q17 0 28 -11t11 -28v-137q0 -15 -11 -26t-28 -11h-456q-17 0 -28 11t-11 26z" />
<glyph unicode="&#x2012;" horiz-adv-x="759" d="M113 430v137q0 17 11 28t28 11h456q17 0 28 -11t11 -28v-137q0 -15 -11 -26t-28 -11h-456q-17 0 -28 11t-11 26z" />
<glyph unicode="&#x2013;" horiz-adv-x="1120" d="M117 467v76q0 17 11 28t28 11h809q17 0 28 -11t11 -28v-76q0 -15 -11 -26t-28 -11h-809q-17 0 -28 11t-11 26z" />
<glyph unicode="&#x2014;" horiz-adv-x="1570" d="M117 467v76q0 17 11 28t28 11h1259q17 0 28 -11t11 -28v-76q0 -15 -11 -26t-28 -11h-1259q-17 0 -28 11t-11 26z" />
<glyph unicode="&#x2018;" horiz-adv-x="493" d="M82 1036q0 209 147 404q7 10 20 10.5t23 -8.5l58 -41q21 -16 -2 -47q-103 -135 -103 -250q0 -15 4 -39q30 20 70 20q60 0 93.5 -40.5t33.5 -102.5q0 -64 -45.5 -106.5t-114.5 -42.5q-79 0 -131.5 64t-52.5 179z" />
<glyph unicode="&#x2019;" horiz-adv-x="485" d="M63 1305q0 64 45.5 106.5t114.5 42.5q79 0 132 -64.5t53 -179.5q0 -207 -148 -403q-15 -20 -43 -2l-57 41q-21 16 2 47q102 134 102 250q0 15 -4 39q-32 -21 -70 -21q-60 0 -93.5 41t-33.5 103z" />
<glyph unicode="&#x201a;" horiz-adv-x="512" d="M84 143q0 65 45.5 107.5t114.5 42.5q79 0 131.5 -64.5t52.5 -179.5q0 -208 -147 -403q-15 -20 -43 -2l-58 41q-21 16 2 47q103 135 103 250q0 14 -4 38q-30 -20 -70 -20q-60 0 -93.5 40.5t-33.5 102.5z" />
<glyph unicode="&#x201c;" horiz-adv-x="929" d="M82 1036q0 209 147 404q7 10 20 10.5t23 -8.5l58 -41q21 -16 -2 -47q-103 -135 -103 -250q0 -15 4 -39q30 20 70 20q60 0 93.5 -40.5t33.5 -102.5q0 -64 -45.5 -106.5t-114.5 -42.5q-79 0 -131.5 64t-52.5 179zM518 1036q0 208 148 404q7 10 20 10.5t23 -8.5l57 -41 q21 -16 -2 -47q-102 -134 -102 -250q0 -15 4 -39q30 20 69 20q60 0 93.5 -40.5t33.5 -102.5q0 -64 -45.5 -106.5t-114.5 -42.5q-79 0 -131.5 64t-52.5 179z" />
<glyph unicode="&#x201d;" horiz-adv-x="921" d="M63 1305q0 64 45.5 106.5t114.5 42.5q79 0 132 -64.5t53 -179.5q0 -207 -148 -403q-15 -20 -43 -2l-57 41q-21 16 2 47q102 134 102 250q0 15 -4 39q-32 -21 -70 -21q-60 0 -93.5 41t-33.5 103zM500 1305q0 65 45 107t114 42q79 0 132 -64.5t53 -179.5q0 -207 -148 -403 q-15 -20 -43 -2l-57 41q-21 16 2 47q102 134 102 250q0 15 -4 39q-32 -21 -69 -21q-60 0 -93.5 41t-33.5 103z" />
<glyph unicode="&#x201e;" horiz-adv-x="948" d="M84 143q0 65 45.5 107.5t114.5 42.5q79 0 131.5 -64.5t52.5 -179.5q0 -208 -147 -403q-15 -20 -43 -2l-58 41q-21 16 2 47q103 135 103 250q0 14 -4 38q-30 -20 -70 -20q-60 0 -93.5 40.5t-33.5 102.5zM520 143q0 65 45.5 107.5t114.5 42.5q79 0 131.5 -64.5t52.5 -179.5 q0 -208 -147 -403q-15 -20 -43 -2l-58 41q-21 16 2 47q103 135 103 250q0 14 -4 38q-30 -20 -70 -20q-60 0 -93.5 40.5t-33.5 102.5z" />
<glyph unicode="&#x2020;" d="M84 625v155q0 15 12 27t27 12h348v576q0 15 12 27t27 12h197q15 0 26.5 -12t11.5 -27v-576h363q15 0 26 -12t11 -27v-155q0 -15 -11 -27t-26 -12h-377l-65 -1041q0 -12 -12.5 -22t-26.5 -10h-37q-14 0 -26.5 10t-12.5 22l-66 1041h-362q-15 0 -27 12t-12 27z" />
<glyph unicode="&#x2021;" horiz-adv-x="1261" d="M100 856v156q0 15 12 27t27 12h348v344q0 15 12 27t27 12h197q15 0 27 -12t12 -27v-344h362q15 0 26 -12t11 -27v-156q0 -15 -11 -27t-26 -12h-362l-31 -584h332q15 0 26 -11.5t11 -26.5v-154q0 -15 -11 -27t-26 -12h-348l-33 -457q0 -12 -12.5 -22t-26.5 -10h-37 q-14 0 -26.5 10t-12.5 22l-35 457h-331q-15 0 -27 12t-12 27v154q0 15 12 26.5t27 11.5h317l-31 582v2h-348q-15 0 -27 12t-12 27z" />
<glyph unicode="&#x2022;" horiz-adv-x="798" d="M131 520q0 112 79 192.5t185 80.5q113 0 193 -80.5t80 -192.5q0 -108 -80.5 -186t-192.5 -78q-106 0 -185 78.5t-79 185.5z" />
<glyph unicode="&#x2026;" horiz-adv-x="1343" d="M84 127q0 61 42.5 104t102.5 43q62 0 106 -43t44 -104q0 -60 -44.5 -103.5t-105.5 -43.5q-60 0 -102.5 43.5t-42.5 103.5zM528 127q0 61 43 104t103 43q62 0 105.5 -43t43.5 -104q0 -60 -44 -103.5t-105 -43.5q-60 0 -103 43.5t-43 103.5zM965 127q0 61 42.5 104 t104.5 43t105 -43t43 -104q0 -60 -43.5 -103.5t-104.5 -43.5t-104 43.5t-43 103.5z" />
<glyph unicode="&#x202f;" horiz-adv-x="401" />
<glyph unicode="&#x2030;" horiz-adv-x="2037" d="M100 1178q0 115 80.5 195.5t196.5 80.5q114 0 195 -80.5t81 -195.5t-81 -196t-195 -81q-115 0 -196 80.5t-81 196.5zM268 55l703 1358q11 21 35 21h102q23 0 34.5 -18t0.5 -38l-707 -1358q-3 -7 -13.5 -13.5t-21.5 -6.5h-98q-23 0 -34 17.5t-1 37.5zM276 1178 q0 -41 30 -71t71 -30q40 0 69 30t29 71q0 40 -29 69t-69 29q-41 0 -71 -29t-30 -69zM774 256q0 115 81.5 195.5t195.5 80.5q116 0 197 -80.5t81 -195.5t-81 -195.5t-197 -80.5q-114 0 -195.5 80.5t-81.5 195.5zM950 256q0 -41 30 -70.5t71 -29.5q40 0 70 29.5t30 70.5 q0 40 -30 69t-70 29q-41 0 -71 -29t-30 -69zM1395 256q0 115 81 195.5t195 80.5q116 0 197.5 -80.5t81.5 -195.5t-81.5 -195.5t-197.5 -80.5q-114 0 -195 80.5t-81 195.5zM1573 256q0 -41 29 -70.5t69 -29.5q41 0 71 29.5t30 70.5q0 40 -30 69t-71 29q-40 0 -69 -29t-29 -69 z" />
<glyph unicode="&#x2039;" horiz-adv-x="587" d="M80 459q-17 23 0 49l223 303q15 25 37 25h117q26 0 34.5 -19.5t-4.5 -44.5l-139 -285l133 -301q11 -25 3 -43t-33 -18h-127q-19 0 -31 16z" />
<glyph unicode="&#x203a;" horiz-adv-x="587" d="M94 816.5q9 19.5 35 19.5h117q22 0 37 -25l223 -303q17 -26 0 -49l-213 -318q-12 -16 -31 -16h-127q-26 0 -34 18t3 43l134 301l-140 285q-13 25 -4 44.5z" />
<glyph unicode="&#x2044;" horiz-adv-x="245" d="M-313 17.5q-11 17.5 0 37.5l702 1358q11 21 35 21h102q23 0 34.5 -18t0.5 -38l-706 -1358q-3 -7 -13.5 -13.5t-21.5 -6.5h-99q-23 0 -34 17.5z" />
<glyph unicode="&#x205f;" horiz-adv-x="501" />
<glyph unicode="&#x20ac;" d="M70 551v27q0 15 10.5 26.5t25.5 11.5h78q-4 31 -4 99v41h-74q-15 0 -25.5 12t-10.5 27v28q0 15 10.5 27t25.5 12h84q17 123 62 228.5t114.5 187.5t170 129t219.5 47q233 0 393 -170q28 -31 2 -57l-104 -146q-11 -12 -28 -12.5t-28 12.5q-100 117 -229 117 q-105 0 -181 -91t-102 -245h406q17 0 28 -11.5t11 -27.5v-30q0 -15 -11 -26t-28 -11h-416v-35q0 -72 4 -105h330q17 0 28 -11.5t11 -26.5v-29q0 -15 -11 -26t-28 -11h-311q31 -123 99 -193.5t173 -70.5q37 0 67 6.5t60 25t41 26.5t43 34q12 10 27 9.5t24 -9.5l109 -137 q11 -11 10 -28t-12 -28q-95 -87 -185.5 -128.5t-191.5 -41.5q-222 0 -367.5 146t-189.5 389h-93q-15 0 -25.5 12t-10.5 27z" />
<glyph unicode="&#x2122;" horiz-adv-x="1597" d="M147 1321v74q0 15 12 27t27 12h420q17 0 28 -11.5t11 -27.5v-74q0 -17 -11 -28t-28 -11h-131v-455q0 -15 -12 -27t-27 -12h-80q-17 0 -28 11.5t-11 27.5v455h-131q-16 0 -27.5 11t-11.5 28zM713 836l106 577q4 31 39 31h8q26 0 35 -23l178 -379l183 379q10 23 34 23h9 q15 0 25.5 -9.5t12.5 -21.5l109 -579q3 -19 -8.5 -32.5t-30.5 -13.5h-80q-13 0 -24.5 10.5t-14.5 24.5l-45 256l-131 -278q-8 -19 -33 -19h-12q-25 0 -35 21l-125 276l-49 -258q-1 -12 -14 -22.5t-25 -10.5h-73q-20 0 -31 14.5t-8 33.5z" />
<glyph unicode="&#x2202;" horiz-adv-x="1202" d="M106 463q0 109 37.5 198t99 144t137.5 85t157 30q67 0 137.5 -20t101.5 -40q-19 66 -64.5 128.5t-98.5 106.5t-114 81.5t-106.5 58t-79.5 31.5q-57 17 -39 61l50 125q12 41 59 29q46 -15 96 -37t121 -63.5t135 -92t129.5 -125.5t113 -160.5t77.5 -200t30 -241.5 q0 -120 -32.5 -224.5t-94 -184.5t-158.5 -126t-218 -46q-127 0 -236.5 64.5t-174.5 176.5t-65 242zM344 461q0 -100 71 -174t169 -74q81 0 140.5 50t85.5 120t26 147q-20 68 -87.5 125.5t-162.5 57.5q-99 0 -170.5 -75t-71.5 -177z" />
<glyph unicode="&#x2206;" horiz-adv-x="1497" d="M84.5 22q-14.5 22 3.5 66l621 1346q10 20 32 20h19q23 0 33 -20l618 -1350q16 -31 5.5 -57.5t-46.5 -26.5h-1229q-42 0 -56.5 22zM438 244h623l-313 696h-3z" />
<glyph unicode="&#x220f;" horiz-adv-x="1591" d="M195 37v1360q0 15 10.5 26t25.5 11h1131q14 0 24.5 -11t10.5 -26v-1360q0 -15 -10.5 -26t-24.5 -11h-201q-15 0 -25 11t-10 26v1143h-659v-1143q0 -15 -11 -26t-26 -11h-199q-15 0 -25.5 11t-10.5 26z" />
<glyph unicode="&#x2211;" horiz-adv-x="1150" d="M104 37v82l570 606l-570 602v70q0 15 10 26t25 11h842q15 0 26 -11t11 -26v-180q0 -15 -11 -26t-26 -11h-442l342 -322q37 -32 37 -74v-114q0 -33 -37 -70l-342 -346h442q15 0 26 -11t11 -26v-180q0 -15 -11 -26t-26 -11h-842q-15 0 -25 11t-10 26z" />
<glyph unicode="&#x221a;" horiz-adv-x="1351" d="M49 772q-9 19 0 33t31 14h192q10 0 19.5 -7t11.5 -13l137 -314h11l417 926q3 8 13.5 15.5t21.5 7.5h385q15 0 25 -11t10 -26v-148q0 -15 -10 -26t-25 -11h-244l-559 -1210q-4 -9 -14 -15.5t-18 -6.5h-19q-8 0 -18.5 6.5t-14.5 15.5z" />
<glyph unicode="&#x221e;" horiz-adv-x="1259" d="M125 606q0 120 84 203.5t203 83.5q61 0 118.5 -32t96.5 -81q43 50 100.5 81.5t118.5 31.5q120 0 204.5 -83.5t84.5 -203.5q0 -119 -84.5 -203t-204.5 -84q-62 0 -119.5 31.5t-99.5 81.5q-39 -50 -96 -81.5t-119 -31.5q-118 0 -202.5 84.5t-84.5 202.5zM313 606 q0 -44 31 -75t74 -31q44 0 76 31t32 75t-32 75.5t-76 31.5q-43 0 -74 -31.5t-31 -75.5zM731 606q0 -44 31.5 -75t75.5 -31t76 31t32 75t-32 75.5t-76 31.5t-75.5 -31.5t-31.5 -75.5z" />
<glyph unicode="&#x222b;" horiz-adv-x="1017" d="M0.5 -406.5q-2.5 14.5 3.5 25.5l78 127q7 12 21.5 15t27.5 -5q8 -8 44 -21.5t63 -13.5q60 0 101.5 46.5t41.5 136.5v1138q0 195 109 303.5t286 108.5q131 0 228 -80q9 -9 12 -23.5t-4 -25.5l-76 -127q-9 -12 -23 -15t-26 5q-11 9 -46.5 22t-62.5 13q-60 0 -100.5 -46.5 t-40.5 -136.5v-1138q0 -194 -110.5 -303t-286.5 -109q-131 0 -228 80q-9 9 -11.5 23.5z" />
<glyph unicode="&#x2248;" d="M225.5 731.5q-1.5 12.5 5.5 20.5q5 7 13.5 18.5t35.5 40.5t55 51.5t68 41t78 18.5q21 0 40 -4t38 -14.5t29 -16.5t30.5 -21t24.5 -18q1 0 18.5 -12t23.5 -15t21 -11t28 -10.5t26 -2.5q62 0 117 96q19 25 47 4l75 -66q8 -8 8.5 -21t-6.5 -22q-4 -7 -12.5 -18t-34.5 -40 t-53.5 -51t-67 -40t-77.5 -18q-22 0 -42 4.5t-40 15t-30.5 17.5t-32 23t-25.5 19q-1 1 -11 7.5t-12.5 8t-11.5 7t-13 7t-12.5 5t-14.5 5t-14 2.5t-16 1q-64 0 -121 -94q-7 -13 -21.5 -14.5t-23.5 8.5l-79 68q-9 8 -10.5 20.5zM226 324.5q-2 11.5 5 21.5q5 7 13.5 18t35.5 40 t55 51.5t68 40.5t78 18q15 0 29.5 -2t28.5 -7.5t23.5 -9.5t23.5 -13.5t19 -13t20.5 -15t17.5 -13.5q1 0 18.5 -12t23.5 -15t21 -11t28 -10.5t26 -2.5q59 0 117 96q19 25 47 4l75 -65q8 -8 8.5 -21t-6.5 -22q-4 -7 -12.5 -18t-34.5 -40t-53.5 -51.5t-67 -40.5t-77.5 -18 q-22 0 -42.5 4.5t-40 15.5t-30.5 18t-31 22.5t-26 19.5q-1 1 -11 7.5t-12.5 8t-11.5 7t-13 7t-12.5 5t-14.5 5t-14 2.5t-16 1q-37 0 -69 -29.5t-52 -64.5q-7 -13 -21.5 -14t-23.5 10l-79 67q-8 8 -10 19.5z" />
<glyph unicode="&#x2260;" d="M240 299v117q0 16 11 27.5t28 11.5h231l108 237h-339q-17 0 -28 11.5t-11 27.5v115q0 16 11 27.5t28 11.5h430l71 153q6 15 22 20t29 -1l25 -13q15 -6 21 -20.5t-3 -28.5l-51 -110h123q17 0 28 -11.5t11 -27.5v-115q0 -16 -11 -27.5t-28 -11.5h-213l-108 -237h321 q17 0 28 -11.5t11 -27.5v-117q0 -16 -11 -27.5t-28 -11.5h-411l-70 -151q-6 -13 -22 -18t-29 1l-25 12q-14 6 -20 21.5t0 28.5l49 106h-139q-17 0 -28 11.5t-11 27.5z" />
<glyph unicode="&#x2264;" d="M156 135v115q0 15 12 27t27 12h806q15 0 26 -12t11 -27v-115q0 -15 -11 -27t-26 -12h-806q-15 0 -27 12t-12 27zM160 815v25q0 22 20 32l809 385q20 10 35.5 1.5t15.5 -31.5v-148q0 -22 -16 -28l-512 -217l512 -209q16 -10 16 -29v-150q0 -23 -16 -32t-35 2l-809 364 q-20 10 -20 35z" />
<glyph unicode="&#x2265;" d="M188 446v150q0 19 17 29l512 209l-512 217q-17 7 -17 28v148q0 23 16 31.5t36 -1.5l809 -385q20 -10 20 -32v-25q0 -25 -20 -35l-809 -364q-19 -11 -35.5 -2t-16.5 32zM190 135v115q0 15 11 27t26 12h807q15 0 27 -12t12 -27v-115q0 -15 -12 -27t-27 -12h-807 q-15 0 -26 12t-11 27z" />
<glyph unicode="&#x25ca;" horiz-adv-x="1331" d="M106 752q8 35 37 71l480 611q16 20 34 20h19q17 0 33 -20l481 -609q25 -33 34 -60t3 -58q-5 -32 -39 -78l-479 -629q-10 -20 -33 -20h-19q-20 0 -32 20l-492 639q-39 50 -27 113zM371 727l293 -405h4l293 405l-293 389h-4z" />
<glyph unicode="&#x25fc;" horiz-adv-x="942" d="M0 0v942h942v-942h-942z" />
<glyph unicode="&#xf8ff;" horiz-adv-x="1226" d="M102 61v1311q0 62 62 62h899q32 0 46.5 -15t14.5 -47v-1311q0 -32 -14.5 -46.5t-46.5 -14.5h-899q-32 0 -47 14.5t-15 46.5zM362 1071l46 -45q17 -11 34 0q1 1 15 14.5t20.5 19t23.5 17.5t31.5 17.5t36.5 10.5t45 5q59 0 92 -31t33 -75q0 -35 -21 -65t-50.5 -53 t-59 -47.5t-50.5 -59.5t-21 -77v-59q0 -10 8.5 -17.5t19.5 -7.5h74q31 0 31 27v53q0 23 16 44.5t40 39t51.5 40.5t51.5 46.5t40 59.5t16 78q0 99 -73 163t-183 64q-50 0 -96 -13t-75.5 -31.5t-52.5 -36.5t-33 -31l-10 -13q-16 -24 0 -37zM502 319q0 -40 29 -69t69 -29 q41 0 70.5 29t29.5 69t-29.5 69.5t-70.5 29.5q-40 0 -69 -29.5t-29 -69.5z" />
<glyph unicode="&#xfb03;" horiz-adv-x="1884" d="M63 762v139q0 20 13 32.5t33 12.5h102v39q0 188 122.5 318.5t309.5 130.5q171 0 301 -95q106 115 297 115q105 0 212.5 -33t168.5 -67q14 -9 18 -28t-4 -34l-53 -127q-21 -44 -72 -18q-133 74 -249 74q-89 0 -121.5 -41t-32.5 -127v-107h604q19 0 32 -12.5t13 -32.5v-856 q0 -19 -13 -32t-32 -13h-166q-21 0 -33 13t-12 32v672h-391v-666q0 -32 -13 -41.5t-44 -9.5h-156q-19 0 -32 13t-13 32v672h-385v-672q0 -19 -13 -32t-32 -13h-166q-19 0 -32 13t-13 32v672h-102q-20 0 -33 13.5t-13 31.5zM467 946h385v78q0 78 8 111q-29 27 -82.5 46 t-118.5 19q-101 0 -146.5 -59.5t-45.5 -155.5v-39z" />
<glyph unicode="&#xfb04;" horiz-adv-x="1898" d="M63 762v139q0 20 13 32.5t33 12.5h102v39q0 189 121.5 319t310.5 130q74 0 137.5 -17.5t93.5 -35t70 -46.5q52 56 135 87.5t164 31.5q117 0 203.5 -35.5t136.5 -91.5l27 64q16 43 55 43h55q18 0 31.5 -13.5t13.5 -31.5v-1344q0 -19 -13 -32t-32 -13h-166 q-18 0 -31.5 13.5t-13.5 31.5v1034q-23 48 -83.5 95t-137.5 47q-91 0 -135.5 -51t-44.5 -142v-82h176q19 0 32 -12.5t13 -32.5v-141q0 -17 -13 -30t-32 -13h-176v-672q0 -19 -13 -32t-32 -13h-166q-19 0 -32 13t-13 32v672h-385v-672q0 -19 -13 -32t-32 -13h-166 q-19 0 -32 13t-13 32v672h-102q-20 0 -33 13.5t-13 31.5zM467 946h385v78q0 78 8 111q-69 65 -201 65q-101 0 -146.5 -59.5t-45.5 -155.5v-39z" />
</font>
</defs>
</svg>
