<svg width="40" height="40" version="1.1" viewBox="0 0 40 40" xmlns="http://www.w3.org/2000/svg"><path d="M34.036 11.607c-.997.44-2.062.739-3.185.876a5.567 5.567 0 0 0 2.44-3.07 11.022 11.022 0 0 1-3.523 1.346 5.547 5.547 0 0 0-9.597 3.792c0 .436.046.86.144 1.267a15.72 15.72 0 0 1-11.436-5.804 5.563 5.563 0 0 0 1.724 7.414 5.411 5.411 0 0 1-2.52-.694v.07a5.552 5.552 0 0 0 4.45 5.442 5.596 5.596 0 0 1-1.46.194c-.355 0-.704-.034-1.043-.103a5.557 5.557 0 0 0 5.186 3.856A11.123 11.123 0 0 1 7 28.491 15.508 15.508 0 0 0 15.49 31c10.216 0 15.796-8.462 15.796-15.802 0-.24-.006-.48-.017-.715a11.294 11.294 0 0 0 2.767-2.876" fill="currentColor" fill-rule="evenodd" preserveAspectRatio=""/></svg>
