<svg width="24" height="24" viewBox="-2 -2 28 28" fill="none" xmlns="http://www.w3.org/2000/svg">
<path d="M23.4985 5.97041C23.2225 4.80119 22.4092 3.88035 21.3766 3.56785C19.505 3 12 3 12 3C12 3 4.49503 3 2.62336 3.56785C1.59077 3.8804 0.777523 4.80119 0.501503 5.97041C0 8.08968 0 12.5114 0 12.5114C0 12.5114 0 16.933 0.501503 19.0523C0.777523 20.2215 1.59077 21.104 2.62336 21.4165C4.49503 21.9843 12 21.9843 12 21.9843C12 21.9843 19.505 21.9843 21.3766 21.4165C22.4092 21.104 23.2225 20.2215 23.4985 19.0523C24 16.933 24 12.5114 24 12.5114C24 12.5114 24 8.08968 23.4985 5.97041ZM9.54544 16.5259V8.49681L15.8181 12.5115L9.54544 16.5259Z" fill="currentColor"/>
</svg>
