<?xml version="1.0" encoding="utf-8"?>
<!-- Generator: Adobe Illustrator 26.3.1, SVG Export Plug-In . SVG Version: 6.00 Build 0)  -->
<svg version="1.1" id="Layer_1" xmlns="http://www.w3.org/2000/svg" xmlns:xlink="http://www.w3.org/1999/xlink" x="0px" y="0px"
	 viewBox="0 0 185 201" style="enable-background:new 0 0 185 201;" xml:space="preserve">
<style type="text/css">
	.st0{fill:#7A04F0;}
</style>
<g>
	<polygon class="st0" points="124.7,0 60.8,0 0.2,142 64.1,142 	"/>
	<polygon class="st0" points="184.7,142 120.7,142 89.4,63 153.4,63 	"/>
	<circle class="st0" cx="146.2" cy="30.5" r="23.5"/>
</g>
<g>
	<path class="st0" d="M15.8,164.2h7.5l15.8,36.2h-8.6l-3.3-7.6H11.9l-3.3,7.6H0L15.8,164.2z M24.2,185.7l-4.6-10.9L15,185.7H24.2z"
		/>
	<path class="st0" d="M45.8,164.2h8.3v36.2h-8.3V164.2z"/>
	<path class="st0" d="M63,182.3c0-10.3,8.5-18.7,19.1-18.7c7.7,0,14.1,3.9,17.2,9.9l-7.3,3.9c-2.1-3.6-5.3-5.9-10-5.9
		c-6,0-10.8,5-10.8,10.9S76,193.1,82,193.1c4.6,0,7.9-2.3,10-5.9l7.3,3.9c-3.2,6-9.6,9.9-17.2,9.9C71.5,201,63,192.6,63,182.3z"/>
	<path class="st0" d="M104.6,182.3c0-10.3,8.5-18.7,19.1-18.7c10.5,0,19.1,8.4,19.1,18.7s-8.6,18.7-19.1,18.7
		C113.1,201,104.6,192.6,104.6,182.3z M134.4,182.3c0-5.9-4.7-10.9-10.7-10.9s-10.8,5-10.8,10.9s4.7,10.9,10.8,10.9
		C129.7,193.1,134.4,188.2,134.4,182.3z"/>
	<path class="st0" d="M177.9,200.4l-18-22.4v22.4h-8.3v-36.2h7.1l17.9,22.3v-22.3h8.3v36.2H177.9z"/>
</g>
</svg>
