<svg id="Layer_1" data-name="Layer 1" xmlns="http://www.w3.org/2000/svg" viewBox="0 0 191.8 267.5"><defs><style>.cls-1{fill:#ef463e;}</style></defs><title>LOGOS</title><path class="cls-1" d="M111.7,186.1H35v-3a2.85,2.85,0,0,1,0-1.3V53.3a53.3,53.3,0,0,1,106.6,0,100,100,0,0,1-5.4,32.3,53.22,53.22,0,0,1-24.5,100.5Zm-60.6-7h60.6a46.28,46.28,0,0,0,22-87c-7.1,17.4-19.1,34.4-35.8,50.8A262.28,262.28,0,0,1,51.1,179.1Zm-9-92.5v89.8c51.3-30.5,74.8-61.8,85.1-87.1a46.15,46.15,0,0,0-15.4-2.7Zm0-7h69.7a53,53,0,0,1,17.9,3.1,91.9,91.9,0,0,0,5-29.4,46.3,46.3,0,1,0-92.6,0V79.6Z"/><path class="cls-1" d="M0,230H14.6a20.07,20.07,0,0,1,4.2.5,11.23,11.23,0,0,1,3.7,1.6,8,8,0,0,1,2.6,2.9,8.3,8.3,0,0,1,1,4.3,7.48,7.48,0,0,1-1.8,5.2,10.05,10.05,0,0,1-4.7,3v.1a9.14,9.14,0,0,1,5.8,2.8,8.38,8.38,0,0,1,2.3,6.1,10.52,10.52,0,0,1-1.2,5.2,10.41,10.41,0,0,1-3.2,3.4,12.65,12.65,0,0,1-4.6,1.8,23.06,23.06,0,0,1-5.2.6H0V230Zm6.7,15.3h5.9a8.37,8.37,0,0,0,5.1-1.3,4.32,4.32,0,0,0,1.7-3.8,3.82,3.82,0,0,0-1.8-3.6,11.5,11.5,0,0,0-5.6-1.1H6.6l.1,9.8Zm0,16.6h6c.8,0,1.8-.1,2.8-.2a7.73,7.73,0,0,0,2.7-.8,6.84,6.84,0,0,0,2.1-1.7,5.1,5.1,0,0,0,.8-3c0-2-.7-3.4-2-4.1a12.15,12.15,0,0,0-6.1-1.2H6.7Z"/><path class="cls-1" d="M43.8,230h6.7v37.5H43.8Z"/><path class="cls-1" d="M68.3,230H75v31.6H91v5.9H68.3Z"/><path class="cls-1" d="M104.9,230h6.7v31.6h16v5.9H105l-.1-37.5Z"/><path class="cls-1" d="M141.5,230h6.7v37.5h-6.7Z"/><path class="cls-1" d="M166,230h24.9v5.8H172.7v9.5h17.2v5.6H172.7v10.6h19.1v5.9H166Z"/></svg>
