<svg width="40" height="40" viewBox="0 0 40 40" fill="none" xmlns="http://www.w3.org/2000/svg">
<g clip-path="url(#clip0)">
<path d="M26.9618 20.3064L20.4611 34.6709C20.3521 34.8756 20.1998 34.9758 20.0036 34.9758H19.7345C19.5387 34.9758 19.386 34.8756 19.2774 34.6709L12.5057 19.6139L14.9182 15.2846C15.1532 15.2846 15.3055 15.3851 15.3753 15.5895L19.8121 25.7152H19.9777L24.4145 15.5895C24.484 15.3851 24.6363 15.2846 24.8717 15.2846L26.9618 20.3064Z" fill="#945DD6"/>
<path d="M26.9618 20.3064L24.4884 25.7706C23.3303 24.0429 22.7948 22.0655 22.7948 19.867C22.7948 19.6625 22.7991 19.458 22.8077 19.2536L24.4145 15.5913C24.484 15.3869 24.6363 15.2864 24.8717 15.2864L26.9618 20.3064ZM15.3273 25.8885L12.5057 19.6139L14.9182 15.2846C15.1532 15.2846 15.3055 15.3851 15.3753 15.5895L17.069 19.4561L17.0952 19.7262C17.2911 22.0252 16.603 24.0976 15.3273 25.8874V25.8885Z" fill="#71548F"/>
<path d="M26.2796 26.8246C24.3727 24.9173 23.5017 22.6017 23.5017 19.867C23.5017 17.1323 24.3727 14.8075 26.2796 12.8825C28.1865 10.9575 30.4992 10 33.2117 10C35.7411 10 37.9284 10.8476 39.7734 12.5429C40.0476 12.8016 40.0565 13.0525 39.8037 13.309L37.6877 15.5211C37.4526 15.7386 37.2262 15.7386 37.0084 15.5211C35.9764 14.5935 34.7558 14.1291 33.3466 14.1279C31.827 14.1279 30.5614 14.6794 29.5498 15.7824C28.5354 16.884 28.0912 18.2077 28.0912 19.7562C28.0912 21.2887 28.5394 22.595 29.5627 23.6793C30.586 24.7636 31.8539 25.3035 33.3728 25.3035C34.7835 25.3035 35.9954 24.8666 37.0084 23.9927C37.261 23.7751 37.4961 23.7839 37.7139 24.0189L39.83 26.2876C40.065 26.5271 40.0565 26.771 39.8037 27.0267C37.9927 28.7941 35.7953 29.678 33.2117 29.6782C30.4992 29.6782 28.1885 28.7262 26.2796 26.822V26.8246Z" fill="#F46737"/>
<path d="M0.000333727 29.1017V10.5355C-0.00219018 10.4656 0.00962317 10.3959 0.0350458 10.3308C0.0604685 10.2656 0.098962 10.2064 0.148154 10.1567C0.189488 10.1079 0.240874 10.0687 0.298791 10.0416C0.356708 10.0146 0.419788 10.0004 0.483707 10H7.01922C9.70143 10.1959 11.7 10.9797 13.5418 12.8954C15.3836 14.8112 16.1239 16.9886 16.3589 19.7931C16.5854 22.4842 15.5012 24.8223 13.6638 26.747C11.8263 28.6716 9.60571 29.638 7.01922 29.638H0.483707C0.41973 29.6375 0.356615 29.6232 0.298694 29.596C0.240774 29.5688 0.189419 29.5294 0.148154 29.4805C0.098962 29.4308 0.0604685 29.3716 0.0350458 29.3064C0.00962317 29.2413 -0.00219018 29.1716 0.000333727 29.1017ZM4.18033 15.0466V25.4842H6.74945C8.25229 25.4842 9.49904 24.937 10.4897 23.8427C11.4803 22.7483 11.975 21.3984 11.9738 19.7931C11.9738 18.204 11.4775 16.8585 10.4893 15.765C9.50113 14.6715 8.25131 14.1235 6.74908 14.1235H4.18033V15.0473V15.0466Z" fill="#13ADC7"/>
</g>
<defs>
<clipPath id="clip0">
<rect width="40" height="40" fill="white"/>
</clipPath>
</defs>
</svg>
