<svg width="215" height="36" viewBox="0 0 215 36" fill="none" xmlns="http://www.w3.org/2000/svg">
<g clip-path="url(#clip0_18_8048)">
<path d="M169.365 13.218L159.603 34.2664H156.592L169.365 6.83789L182.137 34.2664H179.126L169.365 13.218Z" fill="#22211F"/>
<path d="M183.31 35.0295H178.613L169.365 15.0724L160.093 35.0677H155.396L169.365 5.05957L183.31 35.0295ZM179.593 33.5032H180.911L169.342 8.64651L157.772 33.5032H159.09L169.342 11.3711L179.593 33.5032Z" fill="#22211F"/>
<path d="M206.664 19.194C207.947 19.1919 209.178 18.6831 210.086 17.779C210.993 16.8749 211.504 15.6493 211.506 14.3707C211.504 13.0921 210.993 11.8664 210.086 10.9623C209.178 10.0582 207.947 9.54943 206.664 9.54741H195.646V6.83051H206.664C208.669 6.83051 210.593 7.62412 212.011 9.03675C213.429 10.4494 214.226 12.3653 214.226 14.363C214.226 16.3615 213.43 18.2782 212.012 19.6921C210.594 21.1059 208.67 21.9012 206.664 21.9032V19.1863V19.194Z" fill="#22211F"/>
<path d="M205.897 22.7045V18.4689H206.663C207.744 18.4649 208.779 18.0361 209.544 17.2758C210.309 16.5154 210.741 15.4851 210.747 14.4088C210.743 13.3333 210.312 12.3029 209.549 11.5424C208.785 10.7818 207.751 10.3527 206.671 10.3487H194.879V6.10547H206.663C208.871 6.1095 210.987 6.9848 212.548 8.53968C214.109 10.0946 214.988 12.2023 214.992 14.4012C214.988 16.6008 214.109 18.7093 212.549 20.2654C210.988 21.8215 208.872 22.6985 206.663 22.7045H205.897ZM207.429 19.9342V21.1324C209.088 20.9416 210.619 20.1506 211.73 18.9096C212.842 17.6687 213.458 16.0643 213.46 14.4012C213.458 12.6065 212.741 10.8858 211.467 9.61676C210.193 8.34769 208.465 7.63384 206.663 7.63182H196.411V8.82237H206.663C208.149 8.8284 209.572 9.41891 210.622 10.4653C211.673 11.5116 212.266 12.9291 212.272 14.4088C212.258 15.7501 211.761 17.042 210.873 18.0501C209.984 19.0582 208.763 19.7158 207.429 19.9037V19.9342Z" fill="#22211F"/>
<path d="M195.646 34.2666V31.5573H206.664C207.947 31.5553 209.178 31.0465 210.086 30.1424C210.993 29.2383 211.504 28.0127 211.506 26.7341C211.504 25.4555 210.993 24.2298 210.086 23.3257C209.178 22.4216 207.947 21.9128 206.664 21.9108H195.646V19.1939H206.664C207.657 19.1939 208.641 19.389 209.559 19.768C210.477 20.147 211.311 20.7025 212.014 21.4028C212.716 22.1031 213.273 22.9344 213.653 23.8491C214.032 24.7639 214.227 25.7443 214.226 26.7341C214.226 28.7318 213.429 30.6478 212.011 32.0604C210.593 33.473 208.669 34.2666 206.664 34.2666H195.646Z" fill="#22211F"/>
<path d="M206.663 35.0297H194.879V30.7941H206.663C207.743 30.7901 208.778 30.361 209.541 29.6005C210.305 28.84 210.735 27.8096 210.74 26.734C210.735 25.6585 210.305 24.628 209.541 23.8675C208.778 23.107 207.743 22.6779 206.663 22.6739H194.879V18.4307H206.663C208.872 18.4347 210.989 19.311 212.551 20.8676C214.112 22.4241 214.99 24.5338 214.992 26.734C214.99 28.9336 214.112 31.0424 212.55 32.5977C210.989 34.153 208.872 35.0277 206.663 35.0297ZM196.411 33.5034H206.663C208.465 33.5014 210.193 32.7875 211.467 31.5185C212.741 30.2494 213.458 28.5288 213.46 26.734C213.458 24.9386 212.741 23.2171 211.467 21.9468C210.193 20.6766 208.466 19.9611 206.663 19.957H196.411V21.1781H206.663C208.149 21.1841 209.572 21.7746 210.622 22.821C211.673 23.8673 212.266 25.2848 212.272 26.7645C212.266 28.2443 211.673 29.6617 210.622 30.7081C209.572 31.7544 208.149 32.345 206.663 32.351H196.411V33.5034Z" fill="#22211F"/>
<path d="M23.4618 0.030117C23.9599 -0.0156736 24.4656 0.030117 24.9942 0.030117C28.5878 0.030117 32.1814 0.030117 35.7749 0.030117C35.7749 4.08258 35.7749 8.12745 35.7749 12.1799C33.6679 12.1799 31.5608 12.1799 29.4537 12.1799C29.4537 10.2033 29.4537 8.22665 29.4537 6.25002H23.4695C23.4542 4.15129 23.4082 2.09832 23.4618 0.030117Z" fill="#05F4EA"/>
<path d="M17.6842 5.96808H0V12.0124H17.6842V5.96808Z" fill="#22211F"/>
<path d="M29.4763 29.2831H0V35.3274H29.4763V29.2831Z" fill="#22211F"/>
<path d="M0 5.96803L0 32.7327H6.06841L6.06841 5.96803H0Z" fill="#22211F"/>
<path d="M23.4003 18.0567V35.3275H29.4687V18.0567H23.4003Z" fill="#22211F"/>
<path d="M56.7842 34.2743V6.83813H59.5042V34.2743H56.7842Z" fill="#22211F"/>
<path d="M60.2708 35.0377H56.0107V6.0752H60.2708V35.0377ZM57.5432 33.5113H58.7383V7.60155H57.5432V33.5113Z" fill="#22211F"/>
<path d="M125.406 34.2667V6.83813H128.127V31.5574H143.98V34.2667H125.406Z" fill="#22211F"/>
<path d="M144.746 35.0301H124.641V6.0752H128.908V30.7944H144.761L144.746 35.0301ZM126.173 33.5037H143.214V32.3208H127.376V7.60155H126.188L126.173 33.5037Z" fill="#22211F"/>
<path d="M84.1453 14.0884V34.0989H81.0498V6.64746L100.611 26.6427L100.619 6.67036H103.714V34.0836L84.1453 14.0884Z" fill="#22211F"/>
<path d="M104.473 35.961L84.9117 15.9658V34.862H80.3145V4.77002L99.8759 24.7652V5.91478H104.473V35.961ZM81.8162 33.3357H83.3486V12.211L102.91 32.2062V7.44114H101.378V28.5277L81.8162 8.53247V33.3357Z" fill="#22211F"/>
</g>
<defs>
<clipPath id="clip0_18_8048">
<rect width="215" height="35.9609" fill="white"/>
</clipPath>
</defs>
</svg>
