<svg id="Layer_1" data-name="Layer 1" xmlns="http://www.w3.org/2000/svg" viewBox="0 0 966 212">
  <g>
    <g>
      <path d="M442.26678,169.317a13.36405,13.36405,0,0,1-13.1815,13.59449A13.57947,13.57947,0,0,1,415.492,169.317V111.64973c0-9.88734-3.50187-15.24156-11.7397-15.24156-11.53442,0-13.79976,10.29789-13.79976,17.5069V169.317a13.71368,13.71368,0,0,1-13.59327,13.59449A13.36405,13.36405,0,0,1,363.1778,169.317V111.64973c0-9.88734-3.50187-15.24156-11.7397-15.24156-11.53442,0-13.79976,10.91616-13.79976,18.12517V169.317c0,7.41673-5.56071,13.59449-13.1815,13.59449A13.58025,13.58025,0,0,1,310.86358,169.317V85.492a13.408,13.408,0,0,1,13.38677-13.59448c5.56194,0,12.15268,3.50187,12.15268,13.18149,5.149-8.85609,12.35674-13.79732,22.44936-13.79732,14.6233,0,21.214,8.03256,25.12769,15.85739,5.56071-9.67963,12.975-15.85739,25.53823-15.85739,21.62582,0,32.74847,17.91746,32.74847,39.74977Z" style="fill: #1d1929"/>
      <path d="M457.666,127.71484c0-31.30667,22.45058-56.43314,54.16779-56.43314,13.388,0,25.95123,5.5595,32.3367,15.23913,0-6.383,2.88361-14.41559,12.975-14.41559,8.03255,0,13.18149,5.97249,13.18149,13.59205v83.82738c0,7.61956-5.14894,13.592-13.18149,13.592-10.2979,0-12.975-8.65081-12.975-15.03384-5.9737,9.67962-17.7134,15.85738-32.3367,15.85738C480.32182,183.94025,457.666,159.22678,457.666,127.71484Zm56.22786-33.572c-17.91867,0-29.0401,14.6233-29.0401,33.572,0,18.94626,10.91615,33.36429,29.0401,33.36429,18.74221,0,29.2466-14.6233,29.2466-33.36429C543.14042,109.17668,532.636,94.14283,513.89382,94.14283Z" style="fill: #1d1929"/>
      <path d="M695.75034,169.317a13.59327,13.59327,0,1,1-27.18653,0V123.5947c0-17.5069-7.82728-29.45187-25.333-29.45187-17.50691,0-29.2466,15.24156-29.2466,32.74847V169.317a13.59388,13.59388,0,1,1-27.18776,0V86.52083c0-7.41429,6.179-14.005,13.59327-14.005,7.41551,0,13.59449,4.94367,13.59449,13.1815,6.59075-8.4431,18.33044-14.41559,34.60082-14.41559,28.83483,0,47.16527,18.741,47.16527,49.63467Z" style="fill: #1d1929"/>
      <path d="M754.301,72.31052h23.27411a11.73969,11.73969,0,0,1,0,23.47939H754.301v50.25537c0,9.06136,4.3254,13.79732,11.53442,13.79732,10.29789,0,11.32792-8.85609,19.77224-8.85609a11.74623,11.74623,0,0,1,11.945,12.15268c0,13.1815-16.88864,21.00878-31.71721,21.00878-24.09766,0-38.721-15.65456-38.721-41.194v-47.164h-15.8586a11.7397,11.7397,0,1,1,0-23.47939H754.301Z" style="fill: #1d1929"/>
      <path d="M840.18353,169.317a13.59388,13.59388,0,1,1-27.18776,0V85.905a13.59388,13.59388,0,1,1,27.18776,0Z" style="fill: #1d1929"/>
      <path d="M913.50163,183.94025c-19.567,0-39.751-7.61956-48.40058-16.88864a11.96124,11.96124,0,0,1-3.91364-8.64837,11.02116,11.02116,0,0,1,10.91616-11.12388,11.43085,11.43085,0,0,1,7.00252,2.88361c5.35544,4.94367,16.68214,12.77095,37.07265,12.77095,17.30041,0,23.47939-5.149,23.47939-12.358,0-4.7384-3.08888-9.26908-12.15146-11.12143-10.50439-2.26534-21.83109-3.70714-32.33548-5.97493-19.77225-4.736-30.48191-13.79732-30.48191-28.62833,0-17.09392,14.005-33.56957,49.22412-33.56957,14.82857,0,30.07014,3.29416,39.751,11.32671a10.74274,10.74274,0,0,1,3.91241,8.65081c0,6.38548-4.53068,10.2979-10.29789,10.2979-3.91364,0-5.97248-2.47062-10.70966-4.94368-4.73718-2.47061-12.56323-5.14894-23.27411-5.14894-13.79854,0-22.24286,4.94367-22.24286,11.32914,0,7.61956,6.38425,9.06137,17.91745,10.91616,5.9737,1.02881,13.18149,1.64708,19.97874,3.08888,12.358,2.26534,21.83231,4.736,29.0401,11.945a28.97224,28.97224,0,0,1,8.03255,20.39051C966.02112,174.67361,942.54173,183.94025,913.50163,183.94025Z" style="fill: #1d1929"/>
    </g>
    <g>
      <g>
        <g>
          <path d="M198.52853,79.62516c7.71693,13.7586,5.377,30.15994,1.955,41.99983-7.43758,24.5877-23.47511,61.52969-59.06106,83.1646l-.09719.059a18.737,18.737,0,0,1-19.30882.02053l-.132-.07955c-55.4603-33.468-62.05731-83.39668-62.05731-83.39691-1.607-12.17956-3.66338-27.76493,4.91733-41.712C88.45844,41.13613,177.15946,41.526,198.52853,79.62516Z" style="fill: #5cff85"/>
          <path d="M198.52853,79.62516c7.71693,13.7586,5.377,30.15994,1.955,41.99983-7.43758,24.5877-23.47511,61.52969-59.06106,83.1646l-.09719.059a18.737,18.737,0,0,1-19.30882.02053l-.132-.07955c-55.4603-33.468-62.05731-83.39668-62.05731-83.39691-1.607-12.17956-3.66338-27.76493,4.91733-41.712C88.45844,41.13613,177.15946,41.526,198.52853,79.62516Z" style="fill: none;stroke: #1d1929;stroke-miterlimit: 10;stroke-width: 7.507148775265771px"/>
        </g>
        <g>
          <ellipse cx="73.08536" cy="124.60278" rx="34.46337" ry="50.88984" transform="translate(-52.50981 53.23628) rotate(-30)" style="fill: #5cff85"/>
          <ellipse cx="73.08536" cy="124.60278" rx="34.46337" ry="50.88984" transform="translate(-52.50981 53.23628) rotate(-30)" style="fill: none;stroke: #1d1929;stroke-miterlimit: 10;stroke-width: 7.507148775265771px"/>
        </g>
        <g>
          <ellipse cx="189.99673" cy="124.60278" rx="50.88984" ry="34.46337" transform="translate(-12.91081 226.84338) rotate(-60)" style="fill: #5cff85"/>
          <ellipse cx="189.99673" cy="124.60278" rx="50.88984" ry="34.46337" transform="translate(-12.91081 226.84338) rotate(-60)" style="fill: none;stroke: #1d1929;stroke-miterlimit: 10;stroke-width: 7.507148775265771px"/>
        </g>
      </g>
      <path d="M132.56829,50.82a67.858,67.858,0,0,1,128.7239,0" style="fill: none;stroke: #1d1929;stroke-linecap: round;stroke-miterlimit: 10;stroke-width: 7.507148775265771px"/>
      <path d="M4.02112,50.82A68.37457,68.37457,0,0,1,69.92777,4.47953c28.33679.64124,52.13462,17.08313,61.39786,44.22709" style="fill: none;stroke: #1d1929;stroke-linecap: round;stroke-miterlimit: 10;stroke-width: 7.507148775265771px"/>
      <circle cx="197.68984" cy="117.02073" r="6.90119"/>
      <circle cx="65.06355" cy="117.02073" r="6.90119"/>
    </g>
  </g>
</svg>
