<svg version="1.1" viewBox="0.0 0.0 600.0 371.0" fill="none" stroke="none" stroke-linecap="square" stroke-miterlimit="10" width="600" height="371" xmlns:xlink="http://www.w3.org/1999/xlink" xmlns="http://www.w3.org/2000/svg"><path fill="#ffffff" d="M0 0L600.0 0L600.0 371.0L0 371.0L0 0Z" fill-rule="nonzero"/><path stroke="#333333" stroke-width="1.0" stroke-linecap="butt" d="M77.5 332.5L581.5 332.5" fill-rule="nonzero"/><path stroke="#cccccc" stroke-width="1.0" stroke-linecap="butt" d="M77.5 278.5L581.5 278.5" fill-rule="nonzero"/><path stroke="#cccccc" stroke-width="1.0" stroke-linecap="butt" d="M77.5 224.5L581.5 224.5" fill-rule="nonzero"/><path stroke="#cccccc" stroke-width="1.0" stroke-linecap="butt" d="M77.5 170.5L581.5 170.5" fill-rule="nonzero"/><path stroke="#cccccc" stroke-width="1.0" stroke-linecap="butt" d="M77.5 116.5L581.5 116.5" fill-rule="nonzero"/><path stroke="#cccccc" stroke-width="1.0" stroke-linecap="butt" d="M77.5 61.5L581.5 61.5" fill-rule="nonzero"/><clipPath id="id_0"><path d="M77.55 61.916668L581.45 61.916668L581.45 332.45L77.55 332.45L77.55 61.916668Z" clip-rule="nonzero"/></clipPath><path stroke="#000000" stroke-width="0.0" stroke-linecap="butt" stroke-opacity="0.0" clip-path="url(#id_0)" d="M194.0 332.0L119.0 332.0L119.0 84.0C119.0 82.89543 119.89543 82.0 121.0 82.0L192.0 82.0C193.10457 82.0 194.0 82.89543 194.0 84.0Z" fill-rule="nonzero"/><path fill="#4285f4" clip-path="url(#id_0)" d="M194.0 332.0L119.0 332.0L119.0 84.0C119.0 82.89543 119.89543 82.0 121.0 82.0L192.0 82.0C193.10457 82.0 194.0 82.89543 194.0 84.0Z" fill-rule="nonzero"/><path stroke="#000000" stroke-width="0.0" stroke-linecap="butt" stroke-opacity="0.0" clip-path="url(#id_0)" d="M310.0 332.0L235.0 332.0L235.0 165.0C235.0 163.89543 235.89543 163.0 237.0 163.0L308.0 163.0C309.10458 163.0 310.0 163.89543 310.0 165.0Z" fill-rule="nonzero"/><path fill="#4285f4" clip-path="url(#id_0)" d="M310.0 332.0L235.0 332.0L235.0 165.0C235.0 163.89543 235.89543 163.0 237.0 163.0L308.0 163.0C309.10458 163.0 310.0 163.89543 310.0 165.0Z" fill-rule="nonzero"/><path stroke="#000000" stroke-width="0.0" stroke-linecap="butt" stroke-opacity="0.0" clip-path="url(#id_0)" d="M425.0 332.0L350.0 332.0L350.0 98.0C350.0 96.89543 350.89542 96.0 352.0 96.0L423.0 96.0C424.10458 96.0 425.0 96.89543 425.0 98.0Z" fill-rule="nonzero"/><path fill="#4285f4" clip-path="url(#id_0)" d="M425.0 332.0L350.0 332.0L350.0 98.0C350.0 96.89543 350.89542 96.0 352.0 96.0L423.0 96.0C424.10458 96.0 425.0 96.89543 425.0 98.0Z" fill-rule="nonzero"/><path stroke="#000000" stroke-width="0.0" stroke-linecap="butt" stroke-opacity="0.0" clip-path="url(#id_0)" d="M541.0 332.0L466.0 332.0L466.0 269.0C466.0 267.89542 466.89542 267.0 468.0 267.0L539.0 267.0C540.10455 267.0 541.0 267.89542 541.0 269.0Z" fill-rule="nonzero"/><path fill="#4285f4" clip-path="url(#id_0)" d="M541.0 332.0L466.0 332.0L466.0 269.0C466.0 267.89542 466.89542 267.0 468.0 267.0L539.0 267.0C540.10455 267.0 541.0 267.89542 541.0 269.0Z" fill-rule="nonzero"/><path stroke="#4285f4" stroke-width="3.0" stroke-linejoin="round" stroke-linecap="round" d="M145.78125 96.14729L146.96875 96.14729L146.96875 97.02229L145.78125 97.02229L145.78125 99.00667L144.70312 99.00667L144.70312 97.02229L140.8125 97.02229L140.8125 96.38167L144.625 90.47542L145.78125 90.47542L145.78125 96.14729ZM142.04688 96.14729L144.70312 96.14729L144.70312 91.95979L144.5625 92.19417L142.04688 96.14729ZM148.34375 98.44417Q148.34375 98.16292 148.5 97.97542Q148.67188 97.78792 149.0 97.78792Q149.34375 97.78792 149.51562 97.97542Q149.6875 98.16292 149.6875 98.44417Q149.6875 98.70979 149.51562 98.89729Q149.34375 99.06917 149.0 99.06917Q148.67188 99.06917 148.5 98.89729Q148.34375 98.70979 148.34375 98.44417ZM155.46875 90.47542L155.46875 91.38167L155.26562 91.38167Q154.0 91.41292 153.25 92.14729Q152.5 92.86604 152.375 94.17854Q153.0625 93.41292 154.21875 93.41292Q155.32812 93.41292 156.0 94.19417Q156.67188 94.97542 156.67188 96.22542Q156.67188 97.53792 155.95312 98.33479Q155.23438 99.13167 154.01562 99.13167Q152.79688 99.13167 152.03125 98.19417Q151.28125 97.24104 151.28125 95.75667L151.28125 95.35042Q151.28125 92.99104 152.28125 91.74104Q153.28125 90.49104 155.26562 90.47542L155.46875 90.47542ZM154.04688 94.31917Q153.48438 94.31917 153.01562 94.64729Q152.54688 94.97542 152.35938 95.49104L152.35938 95.88167Q152.35938 96.94417 152.82812 97.58479Q153.3125 98.22542 154.01562 98.22542Q154.75 98.22542 155.17188 97.69417Q155.59375 97.14729 155.59375 96.27229Q155.59375 95.39729 155.17188 94.86604Q154.75 94.31917 154.04688 94.31917ZM163.79688 99.00667L158.20312 99.00667L158.20312 98.22542L161.15625 94.94417Q161.8125 94.19417 162.0625 93.74104Q162.3125 93.27229 162.3125 92.77229Q162.3125 92.10042 161.90625 91.67854Q161.51562 91.24104 160.82812 91.24104Q160.03125 91.24104 159.57812 91.70979Q159.125 92.16292 159.125 92.99104L158.04688 92.99104Q158.04688 91.80354 158.79688 91.08479Q159.5625 90.35042 160.82812 90.35042Q162.03125 90.35042 162.71875 90.97542Q163.40625 91.60042 163.40625 92.64729Q163.40625 93.89729 161.79688 95.64729L159.51562 98.11604L163.79688 98.11604L163.79688 99.00667ZM165.70312 94.72542L166.14062 90.47542L170.51562 90.47542L170.51562 91.47542L167.0625 91.47542L166.79688 93.80354Q167.4375 93.42854 168.23438 93.42854Q169.39062 93.42854 170.07812 94.20979Q170.76562 94.97542 170.76562 96.28792Q170.76562 97.60042 170.04688 98.36604Q169.34375 99.13167 168.0625 99.13167Q166.9375 99.13167 166.21875 98.50667Q165.5 97.86604 165.40625 96.75667L166.42188 96.75667Q166.53125 97.49104 166.95312 97.86604Q167.375 98.24104 168.0625 98.24104Q168.8125 98.24104 169.25 97.72542Q169.6875 97.20979 169.6875 96.30354Q169.6875 95.44417 169.21875 94.92854Q168.75 94.41292 167.96875 94.41292Q167.26562 94.41292 166.85938 94.70979L166.57812 94.94417L165.70312 94.72542Z" fill-rule="nonzero"/><path fill="#ffffff" d="M145.78125 96.14729L146.96875 96.14729L146.96875 97.02229L145.78125 97.02229L145.78125 99.00667L144.70312 99.00667L144.70312 97.02229L140.8125 97.02229L140.8125 96.38167L144.625 90.47542L145.78125 90.47542L145.78125 96.14729ZM142.04688 96.14729L144.70312 96.14729L144.70312 91.95979L144.5625 92.19417L142.04688 96.14729ZM148.34375 98.44417Q148.34375 98.16292 148.5 97.97542Q148.67188 97.78792 149.0 97.78792Q149.34375 97.78792 149.51562 97.97542Q149.6875 98.16292 149.6875 98.44417Q149.6875 98.70979 149.51562 98.89729Q149.34375 99.06917 149.0 99.06917Q148.67188 99.06917 148.5 98.89729Q148.34375 98.70979 148.34375 98.44417ZM155.46875 90.47542L155.46875 91.38167L155.26562 91.38167Q154.0 91.41292 153.25 92.14729Q152.5 92.86604 152.375 94.17854Q153.0625 93.41292 154.21875 93.41292Q155.32812 93.41292 156.0 94.19417Q156.67188 94.97542 156.67188 96.22542Q156.67188 97.53792 155.95312 98.33479Q155.23438 99.13167 154.01562 99.13167Q152.79688 99.13167 152.03125 98.19417Q151.28125 97.24104 151.28125 95.75667L151.28125 95.35042Q151.28125 92.99104 152.28125 91.74104Q153.28125 90.49104 155.26562 90.47542L155.46875 90.47542ZM154.04688 94.31917Q153.48438 94.31917 153.01562 94.64729Q152.54688 94.97542 152.35938 95.49104L152.35938 95.88167Q152.35938 96.94417 152.82812 97.58479Q153.3125 98.22542 154.01562 98.22542Q154.75 98.22542 155.17188 97.69417Q155.59375 97.14729 155.59375 96.27229Q155.59375 95.39729 155.17188 94.86604Q154.75 94.31917 154.04688 94.31917ZM163.79688 99.00667L158.20312 99.00667L158.20312 98.22542L161.15625 94.94417Q161.8125 94.19417 162.0625 93.74104Q162.3125 93.27229 162.3125 92.77229Q162.3125 92.10042 161.90625 91.67854Q161.51562 91.24104 160.82812 91.24104Q160.03125 91.24104 159.57812 91.70979Q159.125 92.16292 159.125 92.99104L158.04688 92.99104Q158.04688 91.80354 158.79688 91.08479Q159.5625 90.35042 160.82812 90.35042Q162.03125 90.35042 162.71875 90.97542Q163.40625 91.60042 163.40625 92.64729Q163.40625 93.89729 161.79688 95.64729L159.51562 98.11604L163.79688 98.11604L163.79688 99.00667ZM165.70312 94.72542L166.14062 90.47542L170.51562 90.47542L170.51562 91.47542L167.0625 91.47542L166.79688 93.80354Q167.4375 93.42854 168.23438 93.42854Q169.39062 93.42854 170.07812 94.20979Q170.76562 94.97542 170.76562 96.28792Q170.76562 97.60042 170.04688 98.36604Q169.34375 99.13167 168.0625 99.13167Q166.9375 99.13167 166.21875 98.50667Q165.5 97.86604 165.40625 96.75667L166.42188 96.75667Q166.53125 97.49104 166.95312 97.86604Q167.375 98.24104 168.0625 98.24104Q168.8125 98.24104 169.25 97.72542Q169.6875 97.20979 169.6875 96.30354Q169.6875 95.44417 169.21875 94.92854Q168.75 94.41292 167.96875 94.41292Q167.26562 94.41292 166.85938 94.70979L166.57812 94.94417L165.70312 94.72542Z" fill-rule="nonzero"/><path stroke="#4285f4" stroke-width="3.0" stroke-linejoin="round" stroke-linecap="round" d="M258.78125 175.4239L259.59375 175.4239Q260.375 175.40828 260.8125 175.01765Q261.25 174.62703 261.25 173.95515Q261.25 172.45515 259.75 172.45515Q259.04688 172.45515 258.625 172.8614Q258.21875 173.26765 258.21875 173.9239L257.125 173.9239Q257.125 172.90828 257.85938 172.2364Q258.60938 171.56453 259.75 171.56453Q260.95312 171.56453 261.64062 172.20515Q262.32812 172.84578 262.32812 173.9864Q262.32812 174.5489 261.96875 175.06453Q261.60938 175.58015 260.98438 175.84578Q261.6875 176.06453 262.0625 176.58015Q262.45312 177.09578 262.45312 177.84578Q262.45312 178.9864 261.70312 179.6739Q260.95312 180.34578 259.75 180.34578Q258.5625 180.34578 257.79688 179.68953Q257.04688 179.03328 257.04688 177.97078L258.14062 177.97078Q258.14062 178.64265 258.57812 179.0489Q259.01562 179.45515 259.76562 179.45515Q260.54688 179.45515 260.95312 179.0489Q261.375 178.62703 261.375 177.8614Q261.375 177.12703 260.92188 176.7364Q260.46875 176.33015 259.59375 176.31453L258.78125 176.31453L258.78125 175.4239ZM264.34375 179.65828Q264.34375 179.37703 264.5 179.18953Q264.67188 179.00203 265.0 179.00203Q265.34375 179.00203 265.51562 179.18953Q265.6875 179.37703 265.6875 179.65828Q265.6875 179.9239 265.51562 180.1114Q265.34375 180.28328 265.0 180.28328Q264.67188 180.28328 264.5 180.1114Q264.34375 179.9239 264.34375 179.65828ZM270.76562 180.22078L269.6875 180.22078L269.6875 173.00203L267.5 173.7989L267.5 172.81453L270.60938 171.64265L270.76562 171.64265L270.76562 180.22078ZM279.79688 180.22078L274.20312 180.22078L274.20312 179.43953L277.15625 176.15828Q277.8125 175.40828 278.0625 174.95515Q278.3125 174.4864 278.3125 173.9864Q278.3125 173.31453 277.90625 172.89265Q277.51562 172.45515 276.82812 172.45515Q276.03125 172.45515 275.57812 172.9239Q275.125 173.37703 275.125 174.20515L274.04688 174.20515Q274.04688 173.01765 274.79688 172.2989Q275.5625 171.56453 276.82812 171.56453Q278.03125 171.56453 278.71875 172.18953Q279.40625 172.81453 279.40625 173.8614Q279.40625 175.1114 277.79688 176.8614L275.51562 179.33015L279.79688 179.33015L279.79688 180.22078ZM285.78125 177.3614L286.96875 177.3614L286.96875 178.2364L285.78125 178.2364L285.78125 180.22078L284.70312 180.22078L284.70312 178.2364L280.8125 178.2364L280.8125 177.59578L284.625 171.68953L285.78125 171.68953L285.78125 177.3614ZM282.04688 177.3614L284.70312 177.3614L284.70312 173.1739L284.5625 173.40828L282.04688 177.3614Z" fill-rule="nonzero"/><path fill="#ffffff" d="M258.78125 175.4239L259.59375 175.4239Q260.375 175.40828 260.8125 175.01765Q261.25 174.62703 261.25 173.95515Q261.25 172.45515 259.75 172.45515Q259.04688 172.45515 258.625 172.8614Q258.21875 173.26765 258.21875 173.9239L257.125 173.9239Q257.125 172.90828 257.85938 172.2364Q258.60938 171.56453 259.75 171.56453Q260.95312 171.56453 261.64062 172.20515Q262.32812 172.84578 262.32812 173.9864Q262.32812 174.5489 261.96875 175.06453Q261.60938 175.58015 260.98438 175.84578Q261.6875 176.06453 262.0625 176.58015Q262.45312 177.09578 262.45312 177.84578Q262.45312 178.9864 261.70312 179.6739Q260.95312 180.34578 259.75 180.34578Q258.5625 180.34578 257.79688 179.68953Q257.04688 179.03328 257.04688 177.97078L258.14062 177.97078Q258.14062 178.64265 258.57812 179.0489Q259.01562 179.45515 259.76562 179.45515Q260.54688 179.45515 260.95312 179.0489Q261.375 178.62703 261.375 177.8614Q261.375 177.12703 260.92188 176.7364Q260.46875 176.33015 259.59375 176.31453L258.78125 176.31453L258.78125 175.4239ZM264.34375 179.65828Q264.34375 179.37703 264.5 179.18953Q264.67188 179.00203 265.0 179.00203Q265.34375 179.00203 265.51562 179.18953Q265.6875 179.37703 265.6875 179.65828Q265.6875 179.9239 265.51562 180.1114Q265.34375 180.28328 265.0 180.28328Q264.67188 180.28328 264.5 180.1114Q264.34375 179.9239 264.34375 179.65828ZM270.76562 180.22078L269.6875 180.22078L269.6875 173.00203L267.5 173.7989L267.5 172.81453L270.60938 171.64265L270.76562 171.64265L270.76562 180.22078ZM279.79688 180.22078L274.20312 180.22078L274.20312 179.43953L277.15625 176.15828Q277.8125 175.40828 278.0625 174.95515Q278.3125 174.4864 278.3125 173.9864Q278.3125 173.31453 277.90625 172.89265Q277.51562 172.45515 276.82812 172.45515Q276.03125 172.45515 275.57812 172.9239Q275.125 173.37703 275.125 174.20515L274.04688 174.20515Q274.04688 173.01765 274.79688 172.2989Q275.5625 171.56453 276.82812 171.56453Q278.03125 171.56453 278.71875 172.18953Q279.40625 172.81453 279.40625 173.8614Q279.40625 175.1114 277.79688 176.8614L275.51562 179.33015L279.79688 179.33015L279.79688 180.22078ZM285.78125 177.3614L286.96875 177.3614L286.96875 178.2364L285.78125 178.2364L285.78125 180.22078L284.70312 180.22078L284.70312 178.2364L280.8125 178.2364L280.8125 177.59578L284.625 171.68953L285.78125 171.68953L285.78125 177.3614ZM282.04688 177.3614L284.70312 177.3614L284.70312 173.1739L284.5625 173.40828L282.04688 177.3614Z" fill-rule="nonzero"/><path stroke="#4285f4" stroke-width="3.0" stroke-linejoin="round" stroke-linecap="round" d="M376.78125 109.457535L377.96875 109.457535L377.96875 110.332535L376.78125 110.332535L376.78125 112.31691L375.70312 112.31691L375.70312 110.332535L371.8125 110.332535L371.8125 109.69191L375.625 103.78566L376.78125 103.78566L376.78125 109.457535ZM373.04688 109.457535L375.70312 109.457535L375.70312 105.270035L375.5625 105.50441L373.04688 109.457535ZM379.34375 111.75441Q379.34375 111.47316 379.5 111.28566Q379.67188 111.09816 380.0 111.09816Q380.34375 111.09816 380.51562 111.28566Q380.6875 111.47316 380.6875 111.75441Q380.6875 112.020035 380.51562 112.207535Q380.34375 112.37941 380.0 112.37941Q379.67188 112.37941 379.5 112.207535Q379.34375 112.020035 379.34375 111.75441ZM383.78125 107.520035L384.59375 107.520035Q385.375 107.50441 385.8125 107.113785Q386.25 106.72316 386.25 106.051285Q386.25 104.551285 384.75 104.551285Q384.04688 104.551285 383.625 104.957535Q383.21875 105.363785 383.21875 106.020035L382.125 106.020035Q382.125 105.00441 382.85938 104.332535Q383.60938 103.66066 384.75 103.66066Q385.95312 103.66066 386.64062 104.301285Q387.32812 104.94191 387.32812 106.082535Q387.32812 106.645035 386.96875 107.16066Q386.60938 107.676285 385.98438 107.94191Q386.6875 108.16066 387.0625 108.676285Q387.45312 109.19191 387.45312 109.94191Q387.45312 111.082535 386.70312 111.770035Q385.95312 112.44191 384.75 112.44191Q383.5625 112.44191 382.79688 111.78566Q382.04688 111.12941 382.04688 110.06691L383.14062 110.06691Q383.14062 110.738785 383.57812 111.145035Q384.01562 111.551285 384.76562 111.551285Q385.54688 111.551285 385.95312 111.145035Q386.375 110.72316 386.375 109.957535Q386.375 109.22316 385.92188 108.832535Q385.46875 108.426285 384.59375 108.41066L383.78125 108.41066L383.78125 107.520035ZM394.71875 104.395035L391.1875 112.31691L390.04688 112.31691L393.5625 104.676285L388.95312 104.676285L388.95312 103.78566L394.71875 103.78566L394.71875 104.395035ZM400.35938 108.56691Q400.03125 108.97316 399.54688 109.22316Q399.07812 109.457535 398.51562 109.457535Q397.78125 109.457535 397.23438 109.09816Q396.6875 108.738785 396.39062 108.082535Q396.09375 107.41066 396.09375 106.613785Q396.09375 105.770035 396.40625 105.082535Q396.73438 104.395035 397.32812 104.03566Q397.9375 103.66066 398.73438 103.66066Q400.0 103.66066 400.71875 104.613785Q401.45312 105.56691 401.45312 107.19191L401.45312 107.50441Q401.45312 110.00441 400.46875 111.145035Q399.48438 112.28566 397.5 112.31691L397.28125 112.31691L397.28125 111.41066L397.51562 111.41066Q398.85938 111.37941 399.57812 110.707535Q400.29688 110.03566 400.35938 108.56691ZM398.6875 108.56691Q399.23438 108.56691 399.6875 108.238785Q400.15625 107.895035 400.375 107.41066L400.375 106.97316Q400.375 105.91066 399.90625 105.238785Q399.4375 104.56691 398.73438 104.56691Q398.01562 104.56691 397.57812 105.113785Q397.15625 105.66066 397.15625 106.56691Q397.15625 107.44191 397.5625 108.00441Q397.98438 108.56691 398.6875 108.56691Z" fill-rule="nonzero"/><path fill="#ffffff" d="M376.78125 109.457535L377.96875 109.457535L377.96875 110.332535L376.78125 110.332535L376.78125 112.31691L375.70312 112.31691L375.70312 110.332535L371.8125 110.332535L371.8125 109.69191L375.625 103.78566L376.78125 103.78566L376.78125 109.457535ZM373.04688 109.457535L375.70312 109.457535L375.70312 105.270035L375.5625 105.50441L373.04688 109.457535ZM379.34375 111.75441Q379.34375 111.47316 379.5 111.28566Q379.67188 111.09816 380.0 111.09816Q380.34375 111.09816 380.51562 111.28566Q380.6875 111.47316 380.6875 111.75441Q380.6875 112.020035 380.51562 112.207535Q380.34375 112.37941 380.0 112.37941Q379.67188 112.37941 379.5 112.207535Q379.34375 112.020035 379.34375 111.75441ZM383.78125 107.520035L384.59375 107.520035Q385.375 107.50441 385.8125 107.113785Q386.25 106.72316 386.25 106.051285Q386.25 104.551285 384.75 104.551285Q384.04688 104.551285 383.625 104.957535Q383.21875 105.363785 383.21875 106.020035L382.125 106.020035Q382.125 105.00441 382.85938 104.332535Q383.60938 103.66066 384.75 103.66066Q385.95312 103.66066 386.64062 104.301285Q387.32812 104.94191 387.32812 106.082535Q387.32812 106.645035 386.96875 107.16066Q386.60938 107.676285 385.98438 107.94191Q386.6875 108.16066 387.0625 108.676285Q387.45312 109.19191 387.45312 109.94191Q387.45312 111.082535 386.70312 111.770035Q385.95312 112.44191 384.75 112.44191Q383.5625 112.44191 382.79688 111.78566Q382.04688 111.12941 382.04688 110.06691L383.14062 110.06691Q383.14062 110.738785 383.57812 111.145035Q384.01562 111.551285 384.76562 111.551285Q385.54688 111.551285 385.95312 111.145035Q386.375 110.72316 386.375 109.957535Q386.375 109.22316 385.92188 108.832535Q385.46875 108.426285 384.59375 108.41066L383.78125 108.41066L383.78125 107.520035ZM394.71875 104.395035L391.1875 112.31691L390.04688 112.31691L393.5625 104.676285L388.95312 104.676285L388.95312 103.78566L394.71875 103.78566L394.71875 104.395035ZM400.35938 108.56691Q400.03125 108.97316 399.54688 109.22316Q399.07812 109.457535 398.51562 109.457535Q397.78125 109.457535 397.23438 109.09816Q396.6875 108.738785 396.39062 108.082535Q396.09375 107.41066 396.09375 106.613785Q396.09375 105.770035 396.40625 105.082535Q396.73438 104.395035 397.32812 104.03566Q397.9375 103.66066 398.73438 103.66066Q400.0 103.66066 400.71875 104.613785Q401.45312 105.56691 401.45312 107.19191L401.45312 107.50441Q401.45312 110.00441 400.46875 111.145035Q399.48438 112.28566 397.5 112.31691L397.28125 112.31691L397.28125 111.41066L397.51562 111.41066Q398.85938 111.37941 399.57812 110.707535Q400.29688 110.03566 400.35938 108.56691ZM398.6875 108.56691Q399.23438 108.56691 399.6875 108.238785Q400.15625 107.895035 400.375 107.41066L400.375 106.97316Q400.375 105.91066 399.90625 105.238785Q399.4375 104.56691 398.73438 104.56691Q398.01562 104.56691 397.57812 105.113785Q397.15625 105.66066 397.15625 106.56691Q397.15625 107.44191 397.5625 108.00441Q397.98438 108.56691 398.6875 108.56691Z" fill-rule="nonzero"/><path stroke="#4285f4" stroke-width="3.0" stroke-linejoin="round" stroke-linecap="round" d="M491.76562 283.34808L490.6875 283.34808L490.6875 276.12933L488.5 276.9262L488.5 275.94183L491.60938 274.76996L491.76562 274.76996L491.76562 283.34808ZM495.34375 282.78558Q495.34375 282.50433 495.5 282.31683Q495.67188 282.12933 496.0 282.12933Q496.34375 282.12933 496.51562 282.31683Q496.6875 282.50433 496.6875 282.78558Q496.6875 283.0512 496.51562 283.2387Q496.34375 283.41058 496.0 283.41058Q495.67188 283.41058 495.5 283.2387Q495.34375 283.0512 495.34375 282.78558ZM503.79688 283.34808L498.20312 283.34808L498.20312 282.56683L501.15625 279.28558Q501.8125 278.53558 502.0625 278.08246Q502.3125 277.6137 502.3125 277.1137Q502.3125 276.44183 501.90625 276.01996Q501.51562 275.58246 500.82812 275.58246Q500.03125 275.58246 499.57812 276.0512Q499.125 276.50433 499.125 277.33246L498.04688 277.33246Q498.04688 276.14496 498.79688 275.4262Q499.5625 274.69183 500.82812 274.69183Q502.03125 274.69183 502.71875 275.31683Q503.40625 275.94183 503.40625 276.9887Q503.40625 278.2387 501.79688 279.9887L499.51562 282.45746L503.79688 282.45746L503.79688 283.34808ZM508.76562 283.34808L507.6875 283.34808L507.6875 276.12933L505.5 276.9262L505.5 275.94183L508.60938 274.76996L508.76562 274.76996L508.76562 283.34808ZM517.3906 277.03558Q517.3906 277.6762 517.0469 278.1762Q516.7031 278.6762 516.1406 278.95746Q516.7969 279.2387 517.1875 279.8012Q517.5781 280.34808 517.5781 281.0512Q517.5781 282.14496 516.8281 282.81683Q516.09375 283.47308 514.875 283.47308Q513.6406 283.47308 512.8906 282.81683Q512.15625 282.14496 512.15625 281.0512Q512.15625 280.34808 512.53125 279.8012Q512.90625 279.2387 513.5781 278.95746Q513.0156 278.6762 512.6875 278.1762Q512.3594 277.6762 512.3594 277.03558Q512.3594 275.95746 513.0469 275.33246Q513.7344 274.69183 514.875 274.69183Q516.0 274.69183 516.6875 275.33246Q517.3906 275.95746 517.3906 277.03558ZM516.5 281.01996Q516.5 280.3012 516.0469 279.8637Q515.59375 279.41058 514.8594 279.41058Q514.125 279.41058 513.6719 279.8637Q513.2344 280.3012 513.2344 281.03558Q513.2344 281.75433 513.6719 282.1762Q514.1094 282.58246 514.875 282.58246Q515.625 282.58246 516.0625 282.16058Q516.5 281.7387 516.5 281.01996ZM514.875 275.58246Q514.2344 275.58246 513.8281 275.9887Q513.4375 276.37933 513.4375 277.06683Q513.4375 277.70746 513.8281 278.1137Q514.21875 278.51996 514.8594 278.51996Q515.5156 278.51996 515.90625 278.1137Q516.2969 277.70746 516.2969 277.06683Q516.2969 276.41058 515.8906 276.00433Q515.4844 275.58246 514.875 275.58246Z" fill-rule="nonzero"/><path fill="#ffffff" d="M491.76562 283.34808L490.6875 283.34808L490.6875 276.12933L488.5 276.9262L488.5 275.94183L491.60938 274.76996L491.76562 274.76996L491.76562 283.34808ZM495.34375 282.78558Q495.34375 282.50433 495.5 282.31683Q495.67188 282.12933 496.0 282.12933Q496.34375 282.12933 496.51562 282.31683Q496.6875 282.50433 496.6875 282.78558Q496.6875 283.0512 496.51562 283.2387Q496.34375 283.41058 496.0 283.41058Q495.67188 283.41058 495.5 283.2387Q495.34375 283.0512 495.34375 282.78558ZM503.79688 283.34808L498.20312 283.34808L498.20312 282.56683L501.15625 279.28558Q501.8125 278.53558 502.0625 278.08246Q502.3125 277.6137 502.3125 277.1137Q502.3125 276.44183 501.90625 276.01996Q501.51562 275.58246 500.82812 275.58246Q500.03125 275.58246 499.57812 276.0512Q499.125 276.50433 499.125 277.33246L498.04688 277.33246Q498.04688 276.14496 498.79688 275.4262Q499.5625 274.69183 500.82812 274.69183Q502.03125 274.69183 502.71875 275.31683Q503.40625 275.94183 503.40625 276.9887Q503.40625 278.2387 501.79688 279.9887L499.51562 282.45746L503.79688 282.45746L503.79688 283.34808ZM508.76562 283.34808L507.6875 283.34808L507.6875 276.12933L505.5 276.9262L505.5 275.94183L508.60938 274.76996L508.76562 274.76996L508.76562 283.34808ZM517.3906 277.03558Q517.3906 277.6762 517.0469 278.1762Q516.7031 278.6762 516.1406 278.95746Q516.7969 279.2387 517.1875 279.8012Q517.5781 280.34808 517.5781 281.0512Q517.5781 282.14496 516.8281 282.81683Q516.09375 283.47308 514.875 283.47308Q513.6406 283.47308 512.8906 282.81683Q512.15625 282.14496 512.15625 281.0512Q512.15625 280.34808 512.53125 279.8012Q512.90625 279.2387 513.5781 278.95746Q513.0156 278.6762 512.6875 278.1762Q512.3594 277.6762 512.3594 277.03558Q512.3594 275.95746 513.0469 275.33246Q513.7344 274.69183 514.875 274.69183Q516.0 274.69183 516.6875 275.33246Q517.3906 275.95746 517.3906 277.03558ZM516.5 281.01996Q516.5 280.3012 516.0469 279.8637Q515.59375 279.41058 514.8594 279.41058Q514.125 279.41058 513.6719 279.8637Q513.2344 280.3012 513.2344 281.03558Q513.2344 281.75433 513.6719 282.1762Q514.1094 282.58246 514.875 282.58246Q515.625 282.58246 516.0625 282.16058Q516.5 281.7387 516.5 281.01996ZM514.875 275.58246Q514.2344 275.58246 513.8281 275.9887Q513.4375 276.37933 513.4375 277.06683Q513.4375 277.70746 513.8281 278.1137Q514.21875 278.51996 514.8594 278.51996Q515.5156 278.51996 515.90625 278.1137Q516.2969 277.70746 516.2969 277.06683Q516.2969 276.41058 515.8906 276.00433Q515.4844 275.58246 514.875 275.58246Z" fill-rule="nonzero"/><path fill="#000000" d="M29.550013 254.24583L20.956263 254.24583L20.956263 250.43333Q20.956263 249.27708 21.190638 248.68333Q21.425013 248.08958 22.018763 247.73021Q22.596888 247.37083 23.300013 247.37083Q24.221888 247.37083 24.846888 247.96458Q25.471888 248.55833 25.643763 249.79271Q25.862513 249.33958 26.065638 249.10521Q26.518763 248.60521 27.206263 248.16771L29.550013 246.66771L29.550013 248.10521L27.768763 249.23021Q26.987513 249.73021 26.581263 250.05833Q26.175013 250.37083 26.018763 250.63646Q25.846888 250.88646 25.768763 251.15208Q25.737513 251.33958 25.737513 251.77708L25.737513 253.10521L29.550013 253.10521L29.550013 254.24583ZM24.753138 253.10521L24.753138 250.65208Q24.753138 249.88646 24.596888 249.44896Q24.425013 248.99583 24.081263 248.77708Q23.721888 248.54271 23.300013 248.54271Q22.690638 248.54271 22.300013 248.99583Q21.909388 249.43333 21.909388 250.38646L21.909388 253.10521L24.753138 253.10521ZM29.550013 241.30833L28.628138 241.30833Q29.690638 242.04271 29.690638 243.29271Q29.690638 243.83958 29.487513 244.32396Q29.268763 244.79271 28.956263 245.02708Q28.628138 245.26146 28.159388 245.35521Q27.862513 245.41771 27.175013 245.41771L23.331263 245.41771L23.331263 244.35521L26.784388 244.35521Q27.596888 244.35521 27.893763 244.29271Q28.300013 244.19896 28.550013 243.88646Q28.784388 243.55833 28.784388 243.07396Q28.784388 242.60521 28.550013 242.19896Q28.300013 241.77708 27.878138 241.60521Q27.456263 241.41771 26.659388 241.41771L23.331263 241.41771L23.331263 240.37083L29.550013 240.37083L29.550013 241.30833ZM29.550013 238.38646L23.331263 238.38646L23.331263 237.44896L24.206263 237.44896Q23.190638 236.76146 23.190638 235.46458Q23.190638 234.90208 23.393763 234.43333Q23.596888 233.94896 23.925013 233.71458Q24.253138 233.48021 24.690638 233.38646Q24.987513 233.33958 25.721888 233.33958L29.550013 233.33958L29.550013 234.38646L25.768763 234.38646Q25.112513 234.38646 24.800013 234.51146Q24.487513 234.63646 24.300013 234.94896Q24.096888 235.26146 24.096888 235.68333Q24.096888 236.35521 24.534388 236.85521Q24.956263 237.33958 26.143763 237.33958L29.550013 237.33958L29.550013 238.38646ZM28.612513 229.08958L29.534388 228.93333Q29.628138 229.38646 29.628138 229.73021Q29.628138 230.30833 29.456263 230.62083Q29.268763 230.93333 28.971888 231.07396Q28.675013 231.19896 27.721888 231.19896L24.143763 231.19896L24.143763 231.96458L23.331263 231.96458L23.331263 231.19896L21.784388 231.19896L21.159388 230.15208L23.331263 230.15208L23.331263 229.08958L24.143763 229.08958L24.143763 230.15208L27.784388 230.15208Q28.237513 230.15208 28.362513 230.10521Q28.487513 230.04271 28.565638 229.91771Q28.643763 229.79271 28.643763 229.55833Q28.643763 229.37083 28.612513 229.08958ZM22.175013 228.38646L20.956263 228.38646L20.956263 227.32396L22.175013 227.32396L22.175013 228.38646ZM29.550013 228.38646L23.331263 228.38646L23.331263 227.32396L29.550013 227.32396L29.550013 228.38646ZM29.550013 225.38646L23.331263 225.38646L23.331263 224.44896L24.206263 224.44896Q23.737513 224.15208 23.471888 223.66771Q23.190638 223.18333 23.190638 222.55833Q23.190638 221.87083 23.471888 221.43333Q23.753138 220.98021 24.268763 220.80833Q23.190638 220.05833 23.190638 218.88646Q23.190638 217.94896 23.706263 217.46458Q24.206263 216.96458 25.284388 216.96458L29.550013 216.96458L29.550013 218.01146L25.628138 218.01146Q25.003138 218.01146 24.721888 218.12083Q24.440638 218.21458 24.268763 218.48021Q24.096888 218.74583 24.096888 219.12083Q24.096888 219.77708 24.534388 220.21458Q24.971888 220.63646 25.940638 220.63646L29.550013 220.63646L29.550013 221.69896L25.503138 221.69896Q24.800013 221.69896 24.456263 221.96458Q24.096888 222.21458 24.096888 222.79271Q24.096888 223.24583 24.331263 223.62083Q24.565638 223.99583 25.018763 224.16771Q25.471888 224.33958 26.315638 224.33958L29.550013 224.33958L29.550013 225.38646ZM27.550013 211.13646L27.675013 210.04271Q28.628138 210.29271 29.159388 210.99583Q29.690638 211.69896 29.690638 212.77708Q29.690638 214.13646 28.846888 214.94896Q28.003138 215.74583 26.487513 215.74583Q24.925013 215.74583 24.065638 214.93333Q23.190638 214.12083 23.190638 212.83958Q23.190638 211.58958 24.034388 210.80833Q24.878138 210.01146 26.425013 210.01146Q26.518763 210.01146 26.706263 210.01146L26.706263 214.65208Q27.737513 214.58958 28.284388 214.07396Q28.815638 213.55833 28.815638 212.77708Q28.815638 212.19896 28.518763 211.79271Q28.206263 211.37083 27.550013 211.13646ZM25.846888 214.58958L25.846888 211.12083Q25.050013 211.18333 24.659388 211.51146Q24.050013 212.02708 24.050013 212.82396Q24.050013 213.55833 24.534388 214.05833Q25.018763 214.54271 25.846888 214.58958ZM32.08126 203.37083Q30.971888 204.24583 29.503138 204.85521Q28.018763 205.44896 26.440638 205.44896Q25.050013 205.44896 23.768763 205.01146Q22.284388 204.48021 20.815638 203.37083L20.815638 202.62083Q22.034388 203.32396 22.550013 203.55833Q23.362513 203.91771 24.237513 204.12083Q25.331263 204.37083 26.440638 204.37083Q29.268763 204.37083 32.08126 202.62083L32.08126 203.37083ZM27.690638 201.80833L27.534388 200.77708Q28.159388 200.68333 28.487513 200.29271Q28.815638 199.88646 28.815638 199.15208Q28.815638 198.43333 28.534388 198.08958Q28.237513 197.73021 27.831263 197.73021Q27.471888 197.73021 27.268763 198.04271Q27.128138 198.26146 26.909388 199.12083Q26.612513 200.27708 26.409388 200.73021Q26.190638 201.16771 25.815638 201.40208Q25.440638 201.63646 24.971888 201.63646Q24.565638 201.63646 24.206263 201.44896Q23.846888 201.26146 23.612513 200.93333Q23.440638 200.68333 23.315638 200.26146Q23.190638 199.83958 23.190638 199.33958Q23.190638 198.62083 23.409388 198.07396Q23.612513 197.51146 23.971888 197.24583Q24.331263 196.98021 24.925013 196.88646L25.065638 197.91771Q24.596888 197.98021 24.331263 198.32396Q24.050013 198.65208 24.050013 199.27708Q24.050013 199.99583 24.300013 200.30833Q24.534388 200.62083 24.862513 200.62083Q25.065638 200.62083 25.221888 200.49583Q25.393763 200.35521 25.503138 200.08958Q25.565638 199.93333 25.768763 199.15208Q26.081263 198.02708 26.268763 197.58958Q26.456263 197.15208 26.815638 196.90208Q27.175013 196.65208 27.721888 196.65208Q28.253138 196.65208 28.721888 196.96458Q29.175013 197.26146 29.440638 197.83958Q29.690638 198.41771 29.690638 199.15208Q29.690638 200.37083 29.190638 201.01146Q28.675013 201.63646 27.690638 201.80833ZM27.550013 191.13646L27.675013 190.04271Q28.628138 190.29271 29.159388 190.99583Q29.690638 191.69896 29.690638 192.77708Q29.690638 194.13646 28.846888 194.94896Q28.003138 195.74583 26.487513 195.74583Q24.925013 195.74583 24.065638 194.93333Q23.190638 194.12083 23.190638 192.83958Q23.190638 191.58958 24.034388 190.80833Q24.878138 190.01146 26.425013 190.01146Q26.518763 190.01146 26.706263 190.01146L26.706263 194.65208Q27.737513 194.58958 28.284388 194.07396Q28.815638 193.55833 28.815638 192.77708Q28.815638 192.19896 28.518763 191.79271Q28.206263 191.37083 27.550013 191.13646ZM25.846888 194.58958L25.846888 191.12083Q25.050013 191.18333 24.659388 191.51146Q24.050013 192.02708 24.050013 192.82396Q24.050013 193.55833 24.534388 194.05833Q25.018763 194.54271 25.846888 194.58958ZM27.268763 184.32396L27.409388 183.29271Q28.471888 183.46458 29.081263 184.16771Q29.690638 184.87083 29.690638 185.88646Q29.690638 187.16771 28.862513 187.94896Q28.018763 188.71458 26.456263 188.71458Q25.456263 188.71458 24.706263 188.38646Q23.940638 188.04271 23.565638 187.37083Q23.190638 186.68333 23.190638 185.87083Q23.190638 184.87083 23.706263 184.23021Q24.206263 183.57396 25.159388 183.38646L25.315638 184.41771Q24.690638 184.55833 24.378138 184.93333Q24.050013 185.30833 24.050013 185.83958Q24.050013 186.63646 24.628138 187.13646Q25.190638 187.63646 26.425013 187.63646Q27.690638 187.63646 28.253138 187.15208Q28.815638 186.66771 28.815638 185.90208Q28.815638 185.27708 28.440638 184.87083Q28.065638 184.44896 27.268763 184.32396ZM26.440638 182.77708Q24.706263 182.77708 23.878138 181.82396Q23.190638 181.02708 23.190638 179.87083Q23.190638 178.58958 24.034388 177.77708Q24.862513 176.94896 26.346888 176.94896Q27.550013 176.94896 28.237513 177.30833Q28.925013 177.66771 29.315638 178.37083Q29.690638 179.05833 29.690638 179.87083Q29.690638 181.16771 28.862513 181.98021Q28.018763 182.77708 26.440638 182.77708ZM26.440638 181.69896Q27.628138 181.69896 28.221888 181.18333Q28.815638 180.65208 28.815638 179.87083Q28.815638 179.07396 28.221888 178.55833Q27.628138 178.04271 26.409388 178.04271Q25.253138 178.04271 24.659388 178.57396Q24.065638 179.08958 24.065638 179.87083Q24.065638 180.65208 24.659388 181.18333Q25.237513 181.69896 26.440638 181.69896ZM29.550013 175.38646L23.331263 175.38646L23.331263 174.44896L24.206263 174.44896Q23.190638 173.76146 23.190638 172.46458Q23.190638 171.90208 23.393763 171.43333Q23.596888 170.94896 23.925013 170.71458Q24.253138 170.48021 24.690638 170.38646Q24.987513 170.33958 25.721888 170.33958L29.550013 170.33958L29.550013 171.38646L25.768763 171.38646Q25.112513 171.38646 24.800013 171.51146Q24.487513 171.63646 24.300013 171.94896Q24.096888 172.26146 24.096888 172.68333Q24.096888 173.35521 24.534388 173.85521Q24.956263 174.33958 26.143763 174.33958L29.550013 174.33958L29.550013 175.38646ZM29.550013 164.35521L28.768763 164.35521Q29.690638 164.94896 29.690638 166.08958Q29.690638 166.83958 29.284388 167.46458Q28.862513 168.08958 28.128138 168.43333Q27.393763 168.77708 26.440638 168.77708Q25.518763 168.77708 24.753138 168.46458Q23.987513 168.15208 23.596888 167.52708Q23.190638 166.90208 23.190638 166.13646Q23.190638 165.57396 23.425013 165.13646Q23.659388 164.69896 24.034388 164.41771L20.956263 164.41771L20.956263 163.37083L29.550013 163.37083L29.550013 164.35521ZM26.440638 167.68333Q27.643763 167.68333 28.237513 167.18333Q28.815638 166.68333 28.815638 165.99583Q28.815638 165.30833 28.253138 164.82396Q27.690638 164.33958 26.534388 164.33958Q25.253138 164.33958 24.659388 164.83958Q24.065638 165.32396 24.065638 166.04271Q24.065638 166.74583 24.643763 167.21458Q25.206263 167.68333 26.440638 167.68333ZM27.690638 161.80833L27.534388 160.77708Q28.159388 160.68333 28.487513 160.29271Q28.815638 159.88646 28.815638 159.15208Q28.815638 158.43333 28.534388 158.08958Q28.237513 157.73021 27.831263 157.73021Q27.471888 157.73021 27.268763 158.04271Q27.128138 158.26146 26.909388 159.12083Q26.612513 160.27708 26.409388 160.73021Q26.190638 161.16771 25.815638 161.40208Q25.440638 161.63646 24.971888 161.63646Q24.565638 161.63646 24.206263 161.44896Q23.846888 161.26146 23.612513 160.93333Q23.440638 160.68333 23.315638 160.26146Q23.190638 159.83958 23.190638 159.33958Q23.190638 158.62083 23.409388 158.07396Q23.612513 157.51146 23.971888 157.24583Q24.331263 156.98021 24.925013 156.88646L25.065638 157.91771Q24.596888 157.98021 24.331263 158.32396Q24.050013 158.65208 24.050013 159.27708Q24.050013 159.99583 24.300013 160.30833Q24.534388 160.62083 24.862513 160.62083Q25.065638 160.62083 25.221888 160.49583Q25.393763 160.35521 25.503138 160.08958Q25.565638 159.93333 25.768763 159.15208Q26.081263 158.02708 26.268763 157.58958Q26.456263 157.15208 26.815638 156.90208Q27.175013 156.65208 27.721888 156.65208Q28.253138 156.65208 28.721888 156.96458Q29.175013 157.26146 29.440638 157.83958Q29.690638 158.41771 29.690638 159.15208Q29.690638 160.37083 29.190638 161.01146Q28.675013 161.63646 27.690638 161.80833ZM32.08126 154.69896L32.08126 155.44896Q29.268763 153.69896 26.440638 153.69896Q25.346888 153.69896 24.253138 153.94896Q23.378138 154.15208 22.565638 154.51146Q22.050013 154.74583 20.815638 155.44896L20.815638 154.69896Q22.284388 153.60521 23.768763 153.07396Q25.050013 152.62083 26.440638 152.62083Q28.018763 152.62083 29.503138 153.23021Q30.971888 153.83958 32.08126 154.69896Z" fill-rule="nonzero"/><path fill="#000000" d="M65.05 332.21564Q65.05 330.6844 65.3625 329.7625Q65.675 328.825 66.28438 328.325Q66.90938 327.825 67.84688 327.825Q68.53438 327.825 69.05 328.10626Q69.58125 328.3875 69.925 328.91876Q70.26875 329.4344 70.45625 330.1844Q70.64375 330.9344 70.64375 332.21564Q70.64375 333.73126 70.33125 334.65314Q70.03438 335.575 69.40938 336.09064Q68.8 336.59064 67.84688 336.59064Q66.6125 336.59064 65.89375 335.7Q65.05 334.6375 65.05 332.21564ZM66.12813 332.21564Q66.12813 334.325 66.62813 335.02814Q67.12813 335.73126 67.84688 335.73126Q68.58125 335.73126 69.06563 335.02814Q69.56563 334.325 69.56563 332.21564Q69.56563 330.09064 69.06563 329.40314Q68.58125 328.7 67.83125 328.7Q67.1125 328.7 66.675 329.3094Q66.12813 330.09064 66.12813 332.21564Z" fill-rule="nonzero"/><path fill="#000000" d="M69.01875 282.34332L67.97188 282.34332L67.97188 275.62457Q67.58125 275.98395 66.95625 276.35895Q66.34688 276.71832 65.8625 276.8902L65.8625 275.87457Q66.7375 275.4527 67.39375 274.87457Q68.06563 274.28082 68.34688 273.71832L69.01875 273.71832L69.01875 282.34332Z" fill-rule="nonzero"/><path fill="#000000" d="M70.59688 227.22104L70.59688 228.23666L64.90938 228.23666Q64.90938 227.86166 65.03438 227.50229Q65.25313 226.92416 65.72188 226.36166Q66.20625 225.79916 67.1125 225.06479Q68.51875 223.90854 69.00313 223.23666Q69.50313 222.56479 69.50313 221.97104Q69.50313 221.34604 69.05 220.92416Q68.59688 220.48666 67.87813 220.48666Q67.1125 220.48666 66.65938 220.93979Q66.20625 221.39291 66.19063 222.20541L65.1125 222.09604Q65.22188 220.87729 65.94063 220.25229Q66.675 219.61166 67.90938 219.61166Q69.14375 219.61166 69.8625 220.29916Q70.58125 220.98666 70.58125 222.00229Q70.58125 222.51791 70.3625 223.01791Q70.15938 223.50229 69.65938 224.06479Q69.175 224.61166 68.05 225.56479Q67.09688 226.36166 66.81563 226.65854Q66.55 226.93979 66.37813 227.22104L70.59688 227.22104Z" fill-rule="nonzero"/><path fill="#000000" d="M65.05 171.86438L66.1125 171.72375Q66.28438 172.61438 66.72188 173.02063Q67.15938 173.41125 67.78438 173.41125Q68.53438 173.41125 69.05 172.89563Q69.56563 172.38 69.56563 171.61438Q69.56563 170.89563 69.08125 170.42688Q68.6125 169.9425 67.87813 169.9425Q67.58125 169.9425 67.12813 170.0675L67.25313 169.13Q67.3625 169.14563 67.425 169.14563Q68.09688 169.14563 68.62813 168.80188Q69.175 168.4425 69.175 167.70813Q69.175 167.13 68.78438 166.755Q68.39375 166.36438 67.76875 166.36438Q67.15938 166.36438 66.7375 166.755Q66.33125 167.14563 66.22188 167.91125L65.15938 167.72375Q65.34688 166.67688 66.03438 166.09875Q66.72188 165.505 67.7375 165.505Q68.44063 165.505 69.03438 165.8175Q69.62813 166.11438 69.94063 166.63Q70.25313 167.14563 70.25313 167.73938Q70.25313 168.28625 69.95625 168.755Q69.65938 169.20813 69.08125 169.47375Q69.83125 169.64563 70.25313 170.20813Q70.675 170.755 70.675 171.59875Q70.675 172.72375 69.84688 173.505Q69.03438 174.28625 67.78438 174.28625Q66.65938 174.28625 65.90938 173.61438Q65.15938 172.92688 65.05 171.86438Z" fill-rule="nonzero"/><path fill="#000000" d="M68.425 120.02333L68.425 117.96083L64.70625 117.96083L64.70625 116.99208L68.62813 111.42958L69.4875 111.42958L69.4875 116.99208L70.64375 116.99208L70.64375 117.96083L69.4875 117.96083L69.4875 120.02333L68.425 120.02333ZM68.425 116.99208L68.425 113.132706L65.7375 116.99208L68.425 116.99208Z" fill-rule="nonzero"/><path fill="#000000" d="M65.05 63.666664L66.15938 63.572914Q66.28438 64.385414 66.72188 64.791664Q67.175 65.197914 67.81563 65.197914Q68.56563 65.197914 69.09688 64.61979Q69.62813 64.041664 69.62813 63.104164Q69.62813 62.197914 69.1125 61.68229Q68.6125 61.15104 67.78438 61.15104Q67.28438 61.15104 66.8625 61.385414Q66.45625 61.61979 66.22188 61.979164L65.2375 61.854164L66.06563 57.447914L70.34688 57.447914L70.34688 58.447914L66.90938 58.447914L66.45625 60.760414Q67.22188 60.21354 68.06563 60.21354Q69.19063 60.21354 69.95625 60.99479Q70.7375 61.77604 70.7375 63.010414Q70.7375 64.166664 70.06563 65.02604Q69.2375 66.05729 67.81563 66.05729Q66.64375 66.05729 65.89375 65.40104Q65.15938 64.74479 65.05 63.666664Z" fill-rule="nonzero"/><path fill="#000000" d="M128.66325 349.45L128.66325 340.85626L131.632 340.85626Q132.632 340.85626 133.16325 340.98126Q133.89763 341.15314 134.41325 341.59064Q135.10075 342.16876 135.42888 343.075Q135.77263 343.96564 135.77263 345.10626Q135.77263 346.09064 135.53825 346.84064Q135.3195 347.59064 134.96013 348.09064Q134.60075 348.59064 134.16325 348.8719Q133.74138 349.15314 133.14763 349.3094Q132.55388 349.45 131.77263 349.45L128.66325 349.45ZM129.80388 348.4344L131.632 348.4344Q132.49138 348.4344 132.97575 348.27814Q133.46013 348.1219 133.74138 347.825Q134.14763 347.4344 134.36638 346.7469Q134.60075 346.0594 134.60075 345.09064Q134.60075 343.7469 134.14763 343.02814Q133.71013 342.29376 133.08513 342.04376Q132.61638 341.8719 131.61638 341.8719L129.80388 341.8719L129.80388 348.4344ZM140.11638 349.45L136.78825 340.85626L138.02263 340.85626L140.257 347.10626Q140.52263 347.85626 140.71013 348.5125Q140.91325 347.8094 141.17888 347.10626L143.49138 340.85626L144.64763 340.85626L141.28825 349.45L140.11638 349.45ZM151.80388 346.4344L152.92888 346.73126Q152.5695 348.1219 151.64763 348.85626Q150.72575 349.59064 149.382 349.59064Q147.99138 349.59064 147.11638 349.02814Q146.24138 348.46564 145.78825 347.40314Q145.33513 346.325 145.33513 345.09064Q145.33513 343.7469 145.85075 342.7469Q146.36638 341.7469 147.30388 341.23126Q148.257 340.71564 149.39763 340.71564Q150.67888 340.71564 151.55388 341.3719Q152.4445 342.02814 152.78825 343.21564L151.66325 343.48126Q151.36638 342.54376 150.78825 342.1219Q150.22575 341.6844 149.36638 341.6844Q148.382 341.6844 147.71013 342.16876Q147.05388 342.6375 146.77263 343.4344Q146.507 344.23126 146.507 345.09064Q146.507 346.1844 146.8195 346.9969Q147.14763 347.8094 147.8195 348.21564Q148.49138 348.6219 149.28825 348.6219Q150.24138 348.6219 150.89763 348.075Q151.5695 347.52814 151.80388 346.4344ZM161.21013 349.45L160.16325 349.45L160.16325 342.73126Q159.77263 343.09064 159.14763 343.46564Q158.53825 343.825 158.05388 343.9969L158.05388 342.98126Q158.92888 342.5594 159.58513 341.98126Q160.257 341.3875 160.53825 340.825L161.21013 340.825L161.21013 349.45ZM164.83513 349.45L164.83513 348.2469L166.03825 348.2469L166.03825 349.45L164.83513 349.45ZM167.24138 345.21564Q167.24138 343.6844 167.55388 342.7625Q167.86638 341.825 168.47575 341.325Q169.10075 340.825 170.03825 340.825Q170.72575 340.825 171.24138 341.10626Q171.77263 341.3875 172.11638 341.91876Q172.46013 342.4344 172.64763 343.1844Q172.83513 343.9344 172.83513 345.21564Q172.83513 346.73126 172.52263 347.65314Q172.22575 348.575 171.60075 349.09064Q170.99138 349.59064 170.03825 349.59064Q168.80388 349.59064 168.08513 348.7Q167.24138 347.6375 167.24138 345.21564ZM168.3195 345.21564Q168.3195 347.325 168.8195 348.02814Q169.3195 348.73126 170.03825 348.73126Q170.77263 348.73126 171.257 348.02814Q171.757 347.325 171.757 345.21564Q171.757 343.09064 171.257 342.40314Q170.77263 341.7 170.02263 341.7Q169.30388 341.7 168.86638 342.3094Q168.3195 343.09064 168.3195 345.21564ZM174.83513 349.45L174.83513 348.2469L176.03825 348.2469L176.03825 349.45L174.83513 349.45ZM177.24138 345.21564Q177.24138 343.6844 177.55388 342.7625Q177.86638 341.825 178.47575 341.325Q179.10075 340.825 180.03825 340.825Q180.72575 340.825 181.24138 341.10626Q181.77263 341.3875 182.11638 341.91876Q182.46013 342.4344 182.64763 343.1844Q182.83513 343.9344 182.83513 345.21564Q182.83513 346.73126 182.52263 347.65314Q182.22575 348.575 181.60075 349.09064Q180.99138 349.59064 180.03825 349.59064Q178.80388 349.59064 178.08513 348.7Q177.24138 347.6375 177.24138 345.21564ZM178.3195 345.21564Q178.3195 347.325 178.8195 348.02814Q179.3195 348.73126 180.03825 348.73126Q180.77263 348.73126 181.257 348.02814Q181.757 347.325 181.757 345.21564Q181.757 343.09064 181.257 342.40314Q180.77263 341.7 180.02263 341.7Q179.30388 341.7 178.86638 342.3094Q178.3195 343.09064 178.3195 345.21564Z" fill-rule="nonzero"/><path fill="#000000" d="M241.00233 349.45L241.00233 340.85626L243.97108 340.85626Q244.97108 340.85626 245.50233 340.98126Q246.23671 341.15314 246.75233 341.59064Q247.43983 342.16876 247.76796 343.075Q248.11171 343.96564 248.11171 345.10626Q248.11171 346.09064 247.87733 346.84064Q247.65858 347.59064 247.29921 348.09064Q246.93983 348.59064 246.50233 348.8719Q246.08046 349.15314 245.48671 349.3094Q244.89296 349.45 244.11171 349.45L241.00233 349.45ZM242.14296 348.4344L243.97108 348.4344Q244.83046 348.4344 245.31483 348.27814Q245.79921 348.1219 246.08046 347.825Q246.48671 347.4344 246.70546 346.7469Q246.93983 346.0594 246.93983 345.09064Q246.93983 343.7469 246.48671 343.02814Q246.04921 342.29376 245.42421 342.04376Q244.95546 341.8719 243.95546 341.8719L242.14296 341.8719L242.14296 348.4344ZM252.45546 349.45L249.12733 340.85626L250.36171 340.85626L252.59608 347.10626Q252.86171 347.85626 253.04921 348.5125Q253.25233 347.8094 253.51796 347.10626L255.83046 340.85626L256.9867 340.85626L253.62733 349.45L252.45546 349.45ZM264.14294 346.4344L265.26794 346.73126Q264.90857 348.1219 263.9867 348.85626Q263.06482 349.59064 261.72107 349.59064Q260.33044 349.59064 259.45544 349.02814Q258.58044 348.46564 258.12732 347.40314Q257.6742 346.325 257.6742 345.09064Q257.6742 343.7469 258.18982 342.7469Q258.70544 341.7469 259.64294 341.23126Q260.59607 340.71564 261.7367 340.71564Q263.01794 340.71564 263.89294 341.3719Q264.78357 342.02814 265.12732 343.21564L264.00232 343.48126Q263.70544 342.54376 263.12732 342.1219Q262.56482 341.6844 261.70544 341.6844Q260.72107 341.6844 260.0492 342.16876Q259.39294 342.6375 259.1117 343.4344Q258.84607 344.23126 258.84607 345.09064Q258.84607 346.1844 259.15857 346.9969Q259.4867 347.8094 260.15857 348.21564Q260.83044 348.6219 261.62732 348.6219Q262.58044 348.6219 263.2367 348.075Q263.90857 347.52814 264.14294 346.4344ZM269.58044 345.21564Q269.58044 343.6844 269.89294 342.7625Q270.20544 341.825 270.81482 341.325Q271.43982 340.825 272.37732 340.825Q273.06482 340.825 273.58044 341.10626Q274.1117 341.3875 274.45544 341.91876Q274.7992 342.4344 274.9867 343.1844Q275.1742 343.9344 275.1742 345.21564Q275.1742 346.73126 274.8617 347.65314Q274.56482 348.575 273.93982 349.09064Q273.33044 349.59064 272.37732 349.59064Q271.14294 349.59064 270.4242 348.7Q269.58044 347.6375 269.58044 345.21564ZM270.65857 345.21564Q270.65857 347.325 271.15857 348.02814Q271.65857 348.73126 272.37732 348.73126Q273.1117 348.73126 273.59607 348.02814Q274.09607 347.325 274.09607 345.21564Q274.09607 343.09064 273.59607 342.40314Q273.1117 341.7 272.3617 341.7Q271.64294 341.7 271.20544 342.3094Q270.65857 343.09064 270.65857 345.21564ZM277.1742 349.45L277.1742 348.2469L278.37732 348.2469L278.37732 349.45L277.1742 349.45ZM279.7367 347.46564L280.75232 347.3719Q280.87732 348.09064 281.2367 348.41876Q281.6117 348.73126 282.1742 348.73126Q282.65857 348.73126 283.01794 348.5125Q283.39294 348.27814 283.62732 347.91876Q283.8617 347.54376 284.01794 346.91876Q284.1742 346.27814 284.1742 345.6219Q284.1742 345.54376 284.1742 345.40314Q283.8617 345.90314 283.31482 346.23126Q282.76794 346.54376 282.12732 346.54376Q281.0492 346.54376 280.31482 345.77814Q279.58044 344.9969 279.58044 343.73126Q279.58044 342.41876 280.34607 341.6219Q281.12732 340.825 282.28357 340.825Q283.1117 340.825 283.7992 341.27814Q284.50232 341.73126 284.8617 342.575Q285.22107 343.40314 285.22107 344.98126Q285.22107 346.6219 284.8617 347.60626Q284.51794 348.575 283.7992 349.09064Q283.09607 349.59064 282.15857 349.59064Q281.14294 349.59064 280.50232 349.04376Q279.8617 348.48126 279.7367 347.46564ZM284.0492 343.66876Q284.0492 342.7625 283.56482 342.23126Q283.09607 341.7 282.40857 341.7Q281.70544 341.7 281.1742 342.27814Q280.65857 342.84064 280.65857 343.7625Q280.65857 344.575 281.15857 345.09064Q281.65857 345.60626 282.37732 345.60626Q283.1117 345.60626 283.58044 345.09064Q284.0492 344.575 284.0492 343.66876ZM290.5492 349.45L289.50232 349.45L289.50232 342.73126Q289.1117 343.09064 288.4867 343.46564Q287.87732 343.825 287.39294 343.9969L287.39294 342.98126Q288.26794 342.5594 288.9242 341.98126Q289.59607 341.3875 289.87732 340.825L290.5492 340.825L290.5492 349.45ZM294.1742 349.45L294.1742 348.2469L295.37732 348.2469L295.37732 349.45L294.1742 349.45ZM296.58044 345.21564Q296.58044 343.6844 296.89294 342.7625Q297.20544 341.825 297.81482 341.325Q298.43982 340.825 299.37732 340.825Q300.06482 340.825 300.58044 341.10626Q301.1117 341.3875 301.45544 341.91876Q301.7992 342.4344 301.9867 343.1844Q302.1742 343.9344 302.1742 345.21564Q302.1742 346.73126 301.8617 347.65314Q301.56482 348.575 300.93982 349.09064Q300.33044 349.59064 299.37732 349.59064Q298.14294 349.59064 297.4242 348.7Q296.58044 347.6375 296.58044 345.21564ZM297.65857 345.21564Q297.65857 347.325 298.15857 348.02814Q298.65857 348.73126 299.37732 348.73126Q300.1117 348.73126 300.59607 348.02814Q301.09607 347.325 301.09607 345.21564Q301.09607 343.09064 300.59607 342.40314Q300.1117 341.7 299.3617 341.7Q298.64294 341.7 298.20544 342.3094Q297.65857 343.09064 297.65857 345.21564Z" fill-rule="nonzero"/><path fill="#000000" d="M371.20078 349.45L371.20078 343.23126L372.1539 343.23126L372.1539 344.16876Q372.51328 343.5125 372.81015 343.3094Q373.12265 343.09064 373.49765 343.09064Q374.0289 343.09064 374.57578 343.41876L374.2164 344.40314Q373.82578 344.16876 373.45078 344.16876Q373.0914 344.16876 372.81015 344.3875Q372.54453 344.59064 372.43515 344.96564Q372.24765 345.52814 372.24765 346.1844L372.24765 349.45L371.20078 349.45ZM379.2789 347.16876L380.31015 347.3094Q380.13828 348.3719 379.43515 348.98126Q378.73203 349.59064 377.7164 349.59064Q376.43515 349.59064 375.6539 348.7625Q374.88828 347.91876 374.88828 346.35626Q374.88828 345.35626 375.2164 344.60626Q375.56015 343.84064 376.23203 343.46564Q376.91953 343.09064 377.73203 343.09064Q378.73203 343.09064 379.37265 343.60626Q380.0289 344.10626 380.2164 345.0594L379.18515 345.21564Q379.04453 344.59064 378.66953 344.27814Q378.29453 343.95 377.76328 343.95Q376.9664 343.95 376.4664 344.52814Q375.9664 345.09064 375.9664 346.325Q375.9664 347.59064 376.45078 348.15314Q376.93515 348.71564 377.70078 348.71564Q378.32578 348.71564 378.73203 348.34064Q379.1539 347.96564 379.2789 347.16876ZM381.18515 349.45L381.18515 340.85626L382.24765 340.85626L382.24765 349.45L381.18515 349.45ZM383.82578 346.34064Q383.82578 344.60626 384.7789 343.77814Q385.57578 343.09064 386.73203 343.09064Q388.01328 343.09064 388.82578 343.9344Q389.6539 344.7625 389.6539 346.2469Q389.6539 347.45 389.29453 348.1375Q388.93515 348.825 388.23203 349.21564Q387.54453 349.59064 386.73203 349.59064Q385.43515 349.59064 384.62265 348.7625Q383.82578 347.91876 383.82578 346.34064ZM384.9039 346.34064Q384.9039 347.52814 385.41953 348.1219Q385.95078 348.71564 386.73203 348.71564Q387.5289 348.71564 388.04453 348.1219Q388.56015 347.52814 388.56015 346.3094Q388.56015 345.15314 388.0289 344.5594Q387.51328 343.96564 386.73203 343.96564Q385.95078 343.96564 385.41953 344.5594Q384.9039 345.1375 384.9039 346.34064ZM391.2164 349.45L391.2164 343.23126L392.1539 343.23126L392.1539 344.10626Q392.8414 343.09064 394.13828 343.09064Q394.70078 343.09064 395.16953 343.29376Q395.6539 343.4969 395.88828 343.825Q396.12265 344.15314 396.2164 344.59064Q396.26328 344.8875 396.26328 345.6219L396.26328 349.45L395.2164 349.45L395.2164 345.66876Q395.2164 345.0125 395.0914 344.7Q394.9664 344.3875 394.6539 344.2Q394.3414 343.9969 393.91953 343.9969Q393.24765 343.9969 392.74765 344.4344Q392.26328 344.85626 392.26328 346.04376L392.26328 349.45L391.2164 349.45ZM402.4664 347.45L403.56015 347.575Q403.31015 348.52814 402.60703 349.0594Q401.9039 349.59064 400.82578 349.59064Q399.4664 349.59064 398.6539 348.7469Q397.85703 347.90314 397.85703 346.3875Q397.85703 344.825 398.66953 343.96564Q399.48203 343.09064 400.76328 343.09064Q402.01328 343.09064 402.79453 343.9344Q403.5914 344.77814 403.5914 346.325Q403.5914 346.41876 403.5914 346.60626L398.95078 346.60626Q399.01328 347.6375 399.5289 348.1844Q400.04453 348.71564 400.82578 348.71564Q401.4039 348.71564 401.81015 348.41876Q402.23203 348.10626 402.4664 347.45ZM399.01328 345.7469L402.48203 345.7469Q402.41953 344.95 402.0914 344.5594Q401.57578 343.95 400.7789 343.95Q400.04453 343.95 399.54453 344.4344Q399.06015 344.91876 399.01328 345.7469Z" fill-rule="nonzero"/><path fill="#000000" d="M446.53986 349.45L446.53986 343.23126L447.49298 343.23126L447.49298 344.16876Q447.85236 343.5125 448.14923 343.3094Q448.46173 343.09064 448.83673 343.09064Q449.36798 343.09064 449.91486 343.41876L449.55548 344.40314Q449.16486 344.16876 448.78986 344.16876Q448.43048 344.16876 448.14923 344.3875Q447.8836 344.59064 447.77423 344.96564Q447.58673 345.52814 447.58673 346.1844L447.58673 349.45L446.53986 349.45ZM454.61798 347.16876L455.64923 347.3094Q455.47736 348.3719 454.77423 348.98126Q454.0711 349.59064 453.05548 349.59064Q451.77423 349.59064 450.99298 348.7625Q450.22736 347.91876 450.22736 346.35626Q450.22736 345.35626 450.55548 344.60626Q450.89923 343.84064 451.5711 343.46564Q452.2586 343.09064 453.0711 343.09064Q454.0711 343.09064 454.71173 343.60626Q455.36798 344.10626 455.55548 345.0594L454.52423 345.21564Q454.3836 344.59064 454.0086 344.27814Q453.6336 343.95 453.10236 343.95Q452.30548 343.95 451.80548 344.52814Q451.30548 345.09064 451.30548 346.325Q451.30548 347.59064 451.78986 348.15314Q452.27423 348.71564 453.03986 348.71564Q453.66486 348.71564 454.0711 348.34064Q454.49298 347.96564 454.61798 347.16876ZM456.52423 349.45L456.52423 340.85626L457.58673 340.85626L457.58673 349.45L456.52423 349.45ZM459.16486 346.34064Q459.16486 344.60626 460.11798 343.77814Q460.91486 343.09064 462.0711 343.09064Q463.35236 343.09064 464.16486 343.9344Q464.99298 344.7625 464.99298 346.2469Q464.99298 347.45 464.6336 348.1375Q464.27423 348.825 463.5711 349.21564Q462.8836 349.59064 462.0711 349.59064Q460.77423 349.59064 459.96173 348.7625Q459.16486 347.91876 459.16486 346.34064ZM460.24298 346.34064Q460.24298 347.52814 460.7586 348.1219Q461.28986 348.71564 462.0711 348.71564Q462.86798 348.71564 463.3836 348.1219Q463.89923 347.52814 463.89923 346.3094Q463.89923 345.15314 463.36798 344.5594Q462.85236 343.96564 462.0711 343.96564Q461.28986 343.96564 460.7586 344.5594Q460.24298 345.1375 460.24298 346.34064ZM466.55548 349.45L466.55548 343.23126L467.49298 343.23126L467.49298 344.10626Q468.18048 343.09064 469.47736 343.09064Q470.03986 343.09064 470.5086 343.29376Q470.99298 343.4969 471.22736 343.825Q471.46173 344.15314 471.55548 344.59064Q471.60236 344.8875 471.60236 345.6219L471.60236 349.45L470.55548 349.45L470.55548 345.66876Q470.55548 345.0125 470.43048 344.7Q470.30548 344.3875 469.99298 344.2Q469.68048 343.9969 469.2586 343.9969Q468.58673 343.9969 468.08673 344.4344Q467.60236 344.85626 467.60236 346.04376L467.60236 349.45L466.55548 349.45ZM477.80548 347.45L478.89923 347.575Q478.64923 348.52814 477.9461 349.0594Q477.24298 349.59064 476.16486 349.59064Q474.80548 349.59064 473.99298 348.7469Q473.1961 347.90314 473.1961 346.3875Q473.1961 344.825 474.0086 343.96564Q474.8211 343.09064 476.10236 343.09064Q477.35236 343.09064 478.1336 343.9344Q478.93048 344.77814 478.93048 346.325Q478.93048 346.41876 478.93048 346.60626L474.28986 346.60626Q474.35236 347.6375 474.86798 348.1844Q475.3836 348.71564 476.16486 348.71564Q476.74298 348.71564 477.14923 348.41876Q477.5711 348.10626 477.80548 347.45ZM474.35236 345.7469L477.8211 345.7469Q477.7586 344.95 477.43048 344.5594Q476.91486 343.95 476.11798 343.95Q475.3836 343.95 474.8836 344.4344Q474.39923 344.91876 474.35236 345.7469ZM485.5711 351.98126Q484.6961 350.8719 484.08673 349.40314Q483.49298 347.91876 483.49298 346.34064Q483.49298 344.95 483.93048 343.66876Q484.46173 342.1844 485.5711 340.71564L486.3211 340.71564Q485.61798 341.9344 485.3836 342.45Q485.02423 343.2625 484.8211 344.1375Q484.5711 345.23126 484.5711 346.34064Q484.5711 349.16876 486.3211 351.98126L485.5711 351.98126ZM487.1336 346.8719L487.1336 345.8094L490.3836 345.8094L490.3836 346.8719L487.1336 346.8719ZM491.1336 346.8719L491.1336 345.8094L494.3836 345.8094L494.3836 346.8719L491.1336 346.8719ZM495.55548 349.45L495.55548 343.23126L496.49298 343.23126L496.49298 344.10626Q497.18048 343.09064 498.47736 343.09064Q499.03986 343.09064 499.5086 343.29376Q499.99298 343.4969 500.22736 343.825Q500.46173 344.15314 500.55548 344.59064Q500.60236 344.8875 500.60236 345.6219L500.60236 349.45L499.55548 349.45L499.55548 345.66876Q499.55548 345.0125 499.43048 344.7Q499.30548 344.3875 498.99298 344.2Q498.68048 343.9969 498.2586 343.9969Q497.58673 343.9969 497.08673 344.4344Q496.60236 344.85626 496.60236 346.04376L496.60236 349.45L495.55548 349.45ZM502.16486 346.34064Q502.16486 344.60626 503.11798 343.77814Q503.91486 343.09064 505.0711 343.09064Q506.35236 343.09064 507.16486 343.9344Q507.99298 344.7625 507.99298 346.2469Q507.99298 347.45 507.6336 348.1375Q507.27423 348.825 506.5711 349.21564Q505.8836 349.59064 505.0711 349.59064Q503.77423 349.59064 502.96173 348.7625Q502.16486 347.91876 502.16486 346.34064ZM503.24298 346.34064Q503.24298 347.52814 503.7586 348.1219Q504.28986 348.71564 505.0711 348.71564Q505.86798 348.71564 506.3836 348.1219Q506.89923 347.52814 506.89923 346.3094Q506.89923 345.15314 506.36798 344.5594Q505.85236 343.96564 505.0711 343.96564Q504.28986 343.96564 503.7586 344.5594Q503.24298 345.1375 503.24298 346.34064ZM509.1336 346.8719L509.1336 345.8094L512.3836 345.8094L512.3836 346.8719L509.1336 346.8719ZM515.85236 348.5125L516.0086 349.4344Q515.5555 349.52814 515.21173 349.52814Q514.6336 349.52814 514.3211 349.35626Q514.0086 349.16876 513.868 348.8719Q513.743 348.575 513.743 347.6219L513.743 344.04376L512.97736 344.04376L512.97736 343.23126L513.743 343.23126L513.743 341.6844L514.78986 341.0594L514.78986 343.23126L515.85236 343.23126L515.85236 344.04376L514.78986 344.04376L514.78986 347.6844Q514.78986 348.1375 514.83673 348.2625Q514.89923 348.3875 515.02423 348.46564Q515.14923 348.54376 515.3836 348.54376Q515.5711 348.54376 515.85236 348.5125ZM516.53986 349.45L516.53986 343.23126L517.493 343.23126L517.493 344.16876Q517.85236 343.5125 518.14923 343.3094Q518.46173 343.09064 518.83673 343.09064Q519.368 343.09064 519.91486 343.41876L519.5555 344.40314Q519.16486 344.16876 518.78986 344.16876Q518.4305 344.16876 518.14923 344.3875Q517.8836 344.59064 517.77423 344.96564Q517.58673 345.52814 517.58673 346.1844L517.58673 349.45L516.53986 349.45ZM524.618 348.6844Q524.02423 349.1844 523.47736 349.3875Q522.9461 349.59064 522.3211 349.59064Q521.28986 349.59064 520.743 349.09064Q520.1961 348.59064 520.1961 347.8094Q520.1961 347.35626 520.39923 346.98126Q520.60236 346.59064 520.9461 346.3719Q521.28986 346.1375 521.71173 346.02814Q522.0086 345.9344 522.64923 345.85626Q523.91486 345.71564 524.52423 345.4969Q524.52423 345.27814 524.52423 345.23126Q524.52423 344.575 524.22736 344.3094Q523.8211 343.96564 523.02423 343.96564Q522.28986 343.96564 521.9305 344.23126Q521.5711 344.48126 521.39923 345.1375L520.368 344.9969Q520.5086 344.34064 520.83673 343.9344Q521.16486 343.52814 521.77423 343.3094Q522.3836 343.09064 523.1805 343.09064Q523.97736 343.09064 524.47736 343.27814Q524.97736 343.46564 525.21173 343.7469Q525.4461 344.02814 525.53986 344.46564Q525.58673 344.73126 525.58673 345.4344L525.58673 346.84064Q525.58673 348.3094 525.64923 348.7Q525.72736 349.09064 525.9305 349.45L524.8211 349.45Q524.66486 349.1219 524.618 348.6844ZM524.52423 346.325Q523.9461 346.5594 522.8055 346.73126Q522.14923 346.825 521.8836 346.95Q521.618 347.0594 521.46173 347.27814Q521.3211 347.4969 521.3211 347.77814Q521.3211 348.2 521.6336 348.48126Q521.96173 348.7625 522.5711 348.7625Q523.1805 348.7625 523.64923 348.4969Q524.1336 348.23126 524.35236 347.7625Q524.52423 347.40314 524.52423 346.71564L524.52423 346.325ZM529.27423 349.45L526.91486 343.23126L528.02423 343.23126L529.368 346.95Q529.5711 347.5594 529.7586 348.2Q529.89923 347.71564 530.14923 347.02814L531.53986 343.23126L532.618 343.23126L530.2586 349.45L529.27423 349.45ZM537.8055 347.45L538.89923 347.575Q538.64923 348.52814 537.9461 349.0594Q537.243 349.59064 536.16486 349.59064Q534.8055 349.59064 533.993 348.7469Q533.1961 347.90314 533.1961 346.3875Q533.1961 344.825 534.0086 343.96564Q534.8211 343.09064 536.10236 343.09064Q537.35236 343.09064 538.1336 343.9344Q538.9305 344.77814 538.9305 346.325Q538.9305 346.41876 538.9305 346.60626L534.28986 346.60626Q534.35236 347.6375 534.868 348.1844Q535.3836 348.71564 536.16486 348.71564Q536.743 348.71564 537.14923 348.41876Q537.5711 348.10626 537.8055 347.45ZM534.35236 345.7469L537.8211 345.7469Q537.7586 344.95 537.4305 344.5594Q536.91486 343.95 536.118 343.95Q535.3836 343.95 534.8836 344.4344Q534.39923 344.91876 534.35236 345.7469ZM540.53986 349.45L540.53986 343.23126L541.493 343.23126L541.493 344.16876Q541.85236 343.5125 542.14923 343.3094Q542.46173 343.09064 542.83673 343.09064Q543.368 343.09064 543.91486 343.41876L543.5555 344.40314Q543.16486 344.16876 542.78986 344.16876Q542.4305 344.16876 542.14923 344.3875Q541.8836 344.59064 541.77423 344.96564Q541.58673 345.52814 541.58673 346.1844L541.58673 349.45L540.53986 349.45ZM544.1336 347.59064L545.16486 347.4344Q545.2586 348.0594 545.64923 348.3875Q546.0555 348.71564 546.78986 348.71564Q547.5086 348.71564 547.85236 348.4344Q548.21173 348.1375 548.21173 347.73126Q548.21173 347.3719 547.89923 347.16876Q547.6805 347.02814 546.8211 346.8094Q545.66486 346.5125 545.21173 346.3094Q544.77423 346.09064 544.53986 345.71564Q544.3055 345.34064 544.3055 344.8719Q544.3055 344.46564 544.493 344.10626Q544.6805 343.7469 545.0086 343.5125Q545.2586 343.34064 545.6805 343.21564Q546.10236 343.09064 546.60236 343.09064Q547.3211 343.09064 547.868 343.3094Q548.4305 343.5125 548.6961 343.8719Q548.96173 344.23126 549.0555 344.825L548.02423 344.96564Q547.96173 344.4969 547.618 344.23126Q547.28986 343.95 546.66486 343.95Q545.9461 343.95 545.6336 344.2Q545.3211 344.4344 545.3211 344.7625Q545.3211 344.96564 545.4461 345.1219Q545.58673 345.29376 545.85236 345.40314Q546.0086 345.46564 546.78986 345.66876Q547.91486 345.98126 548.35236 346.16876Q548.78986 346.35626 549.03986 346.71564Q549.28986 347.075 549.28986 347.6219Q549.28986 348.15314 548.97736 348.6219Q548.6805 349.075 548.10236 349.34064Q547.52423 349.59064 546.78986 349.59064Q545.5711 349.59064 544.9305 349.09064Q544.3055 348.575 544.1336 347.59064ZM554.8055 347.45L555.89923 347.575Q555.64923 348.52814 554.9461 349.0594Q554.243 349.59064 553.16486 349.59064Q551.8055 349.59064 550.993 348.7469Q550.1961 347.90314 550.1961 346.3875Q550.1961 344.825 551.0086 343.96564Q551.8211 343.09064 553.10236 343.09064Q554.35236 343.09064 555.1336 343.9344Q555.9305 344.77814 555.9305 346.325Q555.9305 346.41876 555.9305 346.60626L551.28986 346.60626Q551.35236 347.6375 551.868 348.1844Q552.3836 348.71564 553.16486 348.71564Q553.743 348.71564 554.14923 348.41876Q554.5711 348.10626 554.8055 347.45ZM551.35236 345.7469L554.8211 345.7469Q554.7586 344.95 554.4305 344.5594Q553.91486 343.95 553.118 343.95Q552.3836 343.95 551.8836 344.4344Q551.39923 344.91876 551.35236 345.7469ZM558.243 351.98126L557.493 351.98126Q559.243 349.16876 559.243 346.34064Q559.243 345.2469 558.993 344.15314Q558.78986 343.27814 558.4305 342.46564Q558.1961 341.95 557.493 340.71564L558.243 340.71564Q559.33673 342.1844 559.868 343.66876Q560.3211 344.95 560.3211 346.34064Q560.3211 347.91876 559.71173 349.40314Q559.10236 350.8719 558.243 351.98126Z" fill-rule="nonzero"/><path fill="#757575" d="M20.01875 37.55L20.01875 23.2375L21.909374 23.2375L21.909374 35.8625L28.95625 35.8625L28.95625 37.55L20.01875 37.55ZM30.221874 32.3625Q30.221874 29.4875 31.815624 28.096874Q33.159374 26.940624 35.08125 26.940624Q37.221874 26.940624 38.565624 28.346874Q39.925 29.753124 39.925 32.221874Q39.925 34.221874 39.33125 35.378124Q38.7375 36.51875 37.58125 37.159374Q36.440624 37.784374 35.08125 37.784374Q32.89375 37.784374 31.55 36.39375Q30.221874 34.9875 30.221874 32.3625ZM32.01875 32.3625Q32.01875 34.3625 32.878124 35.346874Q33.753124 36.33125 35.08125 36.33125Q36.39375 36.33125 37.253124 35.346874Q38.128124 34.346874 38.128124 32.3Q38.128124 30.378124 37.253124 29.39375Q36.378124 28.39375 35.08125 28.39375Q33.753124 28.39375 32.878124 29.39375Q32.01875 30.378124 32.01875 32.3625ZM48.64375 33.753124L50.3625 33.971874Q50.08125 35.76875 48.909374 36.784374Q47.753124 37.784374 46.05 37.784374Q43.925 37.784374 42.628124 36.39375Q41.33125 35.003124 41.33125 32.409374Q41.33125 30.721874 41.878124 29.471874Q42.440624 28.20625 43.58125 27.58125Q44.721874 26.940624 46.065624 26.940624Q47.753124 26.940624 48.815624 27.8Q49.89375 28.659374 50.20625 30.221874L48.4875 30.4875Q48.253124 29.440624 47.628124 28.925Q47.003124 28.39375 46.128124 28.39375Q44.8 28.39375 43.971874 29.346874Q43.14375 30.3 43.14375 32.346874Q43.14375 34.440624 43.940624 35.39375Q44.7375 36.33125 46.034374 36.33125Q47.065624 36.33125 47.753124 35.70625Q48.45625 35.065624 48.64375 33.753124ZM58.64375 36.26875Q57.659374 37.096874 56.753124 37.440624Q55.846874 37.784374 54.815624 37.784374Q53.1125 37.784374 52.190624 36.95625Q51.26875 36.1125 51.26875 34.815624Q51.26875 34.05 51.6125 33.425Q51.971874 32.8 52.534374 32.425Q53.096874 32.034374 53.8 31.83125Q54.315624 31.70625 55.3625 31.565624Q57.4875 31.315624 58.4875 30.971874Q58.503124 30.6125 58.503124 30.503124Q58.503124 29.440624 58.003124 28.9875Q57.33125 28.39375 56.003124 28.39375Q54.753124 28.39375 54.159374 28.83125Q53.58125 29.26875 53.3 30.378124L51.58125 30.14375Q51.815624 29.034374 52.346874 28.3625Q52.878124 27.675 53.89375 27.315624Q54.909374 26.940624 56.253124 26.940624Q57.58125 26.940624 58.409374 27.253124Q59.2375 27.565624 59.628124 28.05Q60.01875 28.51875 60.175 29.2375Q60.26875 29.690624 60.26875 30.8625L60.26875 33.20625Q60.26875 35.659374 60.378124 36.315624Q60.4875 36.95625 60.83125 37.55L58.9875 37.55Q58.721874 37.003124 58.64375 36.26875ZM58.4875 32.346874Q57.534374 32.7375 55.6125 33.003124Q54.534374 33.159374 54.08125 33.3625Q53.64375 33.55 53.39375 33.925Q53.14375 34.3 53.14375 34.76875Q53.14375 35.471874 53.675 35.940624Q54.20625 36.409374 55.2375 36.409374Q56.253124 36.409374 57.034374 35.971874Q57.83125 35.51875 58.20625 34.753124Q58.4875 34.14375 58.4875 32.9875L58.4875 32.346874ZM62.83125 37.55L62.83125 23.2375L64.58125 23.2375L64.58125 37.55L62.83125 37.55ZM79.59688 37.55L79.59688 36.2375Q78.6125 37.784374 76.69063 37.784374Q75.45625 37.784374 74.40938 37.096874Q73.37813 36.409374 72.8 35.190624Q72.2375 33.971874 72.2375 32.378124Q72.2375 30.815624 72.75313 29.55Q73.26875 28.284374 74.3 27.6125Q75.34688 26.940624 76.6125 26.940624Q77.55 26.940624 78.28438 27.346874Q79.01875 27.7375 79.4875 28.3625L79.4875 23.2375L81.22188 23.2375L81.22188 37.55L79.59688 37.55ZM74.03438 32.378124Q74.03438 34.3625 74.87813 35.346874Q75.72188 36.33125 76.8625 36.33125Q78.01875 36.33125 78.81563 35.39375Q79.62813 34.45625 79.62813 32.51875Q79.62813 30.39375 78.8 29.39375Q77.9875 28.39375 76.78438 28.39375Q75.6125 28.39375 74.81563 29.3625Q74.03438 30.315624 74.03438 32.378124ZM83.87813 25.253124L83.87813 23.2375L85.64375 23.2375L85.64375 25.253124L83.87813 25.253124ZM83.87813 37.55L83.87813 27.175L85.64375 27.175L85.64375 37.55L83.87813 37.55ZM87.84688 37.55L87.84688 27.175L89.425 27.175L89.425 28.753124Q90.03438 27.64375 90.55 27.3Q91.06563 26.940624 91.675 26.940624Q92.56563 26.940624 93.4875 27.503124L92.87813 29.14375Q92.2375 28.753124 91.59688 28.753124Q91.01875 28.753124 90.55 29.1125Q90.09688 29.45625 89.89375 30.065624Q89.6125 31.003124 89.6125 32.1125L89.6125 37.55L87.84688 37.55ZM101.97188 34.20625L103.78438 34.440624Q103.3625 36.01875 102.19063 36.909374Q101.03438 37.784374 99.22188 37.784374Q96.95625 37.784374 95.6125 36.39375Q94.28438 34.9875 94.28438 32.45625Q94.28438 29.83125 95.62813 28.39375Q96.97188 26.940624 99.12813 26.940624Q101.20625 26.940624 102.51875 28.3625Q103.84688 29.76875 103.84688 32.346874Q103.84688 32.503124 103.83125 32.815624L96.09688 32.815624Q96.19063 34.51875 97.06563 35.425Q97.94063 36.33125 99.2375 36.33125Q100.20625 36.33125 100.87813 35.83125Q101.56563 35.315624 101.97188 34.20625ZM96.19063 31.3625L101.9875 31.3625Q101.87813 30.065624 101.33125 29.409374Q100.4875 28.39375 99.14375 28.39375Q97.94063 28.39375 97.1125 29.20625Q96.28438 30.003124 96.19063 31.3625ZM112.64375 33.753124L114.3625 33.971874Q114.08125 35.76875 112.90938 36.784374Q111.75313 37.784374 110.05 37.784374Q107.925 37.784374 106.62813 36.39375Q105.33125 35.003124 105.33125 32.409374Q105.33125 30.721874 105.87813 29.471874Q106.44063 28.20625 107.58125 27.58125Q108.72188 26.940624 110.06563 26.940624Q111.75313 26.940624 112.81563 27.8Q113.89375 28.659374 114.20625 30.221874L112.4875 30.4875Q112.25313 29.440624 111.62813 28.925Q111.00313 28.39375 110.12813 28.39375Q108.8 28.39375 107.97188 29.346874Q107.14375 30.3 107.14375 32.346874Q107.14375 34.440624 107.94063 35.39375Q108.7375 36.33125 110.03438 36.33125Q111.06563 36.33125 111.75313 35.70625Q112.45625 35.065624 112.64375 33.753124ZM119.70625 35.971874L119.95625 37.534374Q119.22188 37.690624 118.62813 37.690624Q117.675 37.690624 117.14375 37.39375Q116.62813 37.08125 116.40938 36.596874Q116.19063 36.096874 116.19063 34.51875L116.19063 28.55L114.90938 28.55L114.90938 27.175L116.19063 27.175L116.19063 24.6125L117.94063 23.55L117.94063 27.175L119.70625 27.175L119.70625 28.55L117.94063 28.55L117.94063 34.6125Q117.94063 35.3625 118.03438 35.58125Q118.12813 35.784374 118.33125 35.925Q118.55 36.05 118.94063 36.05Q119.22188 36.05 119.70625 35.971874ZM121.22188 32.3625Q121.22188 29.4875 122.81563 28.096874Q124.15938 26.940624 126.08125 26.940624Q128.22188 26.940624 129.56563 28.346874Q130.925 29.753124 130.925 32.221874Q130.925 34.221874 130.33125 35.378124Q129.7375 36.51875 128.58125 37.159374Q127.44063 37.784374 126.08125 37.784374Q123.89375 37.784374 122.55 36.39375Q121.22188 34.9875 121.22188 32.3625ZM123.01875 32.3625Q123.01875 34.3625 123.87813 35.346874Q124.75313 36.33125 126.08125 36.33125Q127.39375 36.33125 128.25313 35.346874Q129.12813 34.346874 129.12813 32.3Q129.12813 30.378124 128.25313 29.39375Q127.37813 28.39375 126.08125 28.39375Q124.75313 28.39375 123.87813 29.39375Q123.01875 30.378124 123.01875 32.3625ZM132.84688 37.55L132.84688 27.175L134.425 27.175L134.425 28.753124Q135.03438 27.64375 135.55 27.3Q136.06563 26.940624 136.675 26.940624Q137.56563 26.940624 138.4875 27.503124L137.87813 29.14375Q137.2375 28.753124 136.59688 28.753124Q136.01875 28.753124 135.55 29.1125Q135.09688 29.45625 134.89375 30.065624Q134.6125 31.003124 134.6125 32.1125L134.6125 37.55L132.84688 37.55ZM139.78438 41.55L139.59688 39.89375Q140.175 40.05 140.59688 40.05Q141.19063 40.05 141.53438 39.846874Q141.89375 39.659374 142.1125 39.315624Q142.28438 39.05 142.65938 38.003124Q142.70625 37.846874 142.81563 37.565624L138.87813 27.175L140.76875 27.175L142.925 33.190624Q143.34688 34.33125 143.675 35.58125Q143.9875 34.378124 144.39375 33.221874L146.6125 27.175L148.37813 27.175L144.425 37.721874Q143.8 39.440624 143.44063 40.08125Q142.97188 40.95625 142.3625 41.346874Q141.76875 41.753124 140.925 41.753124Q140.40938 41.753124 139.78438 41.55ZM157.78438 37.55L154.6125 27.175L156.425 27.175L158.08125 33.159374L158.69063 35.39375Q158.7375 35.221874 159.22188 33.253124L160.87813 27.175L162.69063 27.175L164.2375 33.190624L164.75313 35.175L165.34688 33.175L167.12813 27.175L168.83125 27.175L165.59688 37.55L163.76875 37.55L162.1125 31.33125L161.72188 29.565624L159.6125 37.55L157.78438 37.55ZM168.55 37.8L172.70625 22.9875L174.1125 22.9875L169.97188 37.8L168.55 37.8ZM182.00313 37.55L180.2375 37.55L180.2375 26.346874Q179.6125 26.95625 178.58125 27.565624Q177.55 28.159374 176.72188 28.471874L176.72188 26.76875Q178.20625 26.08125 179.3 25.096874Q180.40938 24.096874 180.8625 23.175L182.00313 23.175L182.00313 37.55ZM193.28438 37.55L193.28438 28.55L191.7375 28.55L191.7375 27.175L193.28438 27.175L193.28438 26.08125Q193.28438 25.034374 193.47188 24.51875Q193.72188 23.83125 194.3625 23.409374Q195.00313 22.9875 196.15938 22.9875Q196.90938 22.9875 197.8 23.159374L197.53438 24.690624Q196.9875 24.596874 196.50313 24.596874Q195.70625 24.596874 195.3625 24.940624Q195.03438 25.284374 195.03438 26.221874L195.03438 27.175L197.06563 27.175L197.06563 28.55L195.03438 28.55L195.03438 37.55L193.28438 37.55ZM198.87813 25.253124L198.87813 23.2375L200.64375 23.2375L200.64375 25.253124L198.87813 25.253124ZM198.87813 37.55L198.87813 27.175L200.64375 27.175L200.64375 37.55L198.87813 37.55ZM202.83125 37.55L202.83125 23.2375L204.58125 23.2375L204.58125 37.55L202.83125 37.55ZM213.97188 34.20625L215.78438 34.440624Q215.3625 36.01875 214.19063 36.909374Q213.03438 37.784374 211.22188 37.784374Q208.95625 37.784374 207.6125 36.39375Q206.28438 34.9875 206.28438 32.45625Q206.28438 29.83125 207.62813 28.39375Q208.97188 26.940624 211.12813 26.940624Q213.20625 26.940624 214.51875 28.3625Q215.84688 29.76875 215.84688 32.346874Q215.84688 32.503124 215.83125 32.815624L208.09688 32.815624Q208.19063 34.51875 209.06563 35.425Q209.94063 36.33125 211.2375 36.33125Q212.20625 36.33125 212.87813 35.83125Q213.56563 35.315624 213.97188 34.20625ZM208.19063 31.3625L213.9875 31.3625Q213.87813 30.065624 213.33125 29.409374Q212.4875 28.39375 211.14375 28.39375Q209.94063 28.39375 209.1125 29.20625Q208.28438 30.003124 208.19063 31.3625ZM218.33125 37.55L218.33125 35.55L220.33125 35.55L220.33125 37.55Q220.33125 38.659374 219.94063 39.33125Q219.55 40.01875 218.70625 40.378124L218.20625 39.628124Q218.76875 39.39375 219.03438 38.909374Q219.3 38.440624 219.33125 37.55L218.33125 37.55ZM229.45625 32.95625L231.2375 32.8Q231.3625 33.8625 231.81563 34.55Q232.28438 35.2375 233.25313 35.675Q234.2375 36.096874 235.47188 36.096874Q236.55 36.096874 237.37813 35.784374Q238.20625 35.45625 238.6125 34.89375Q239.01875 34.33125 239.01875 33.659374Q239.01875 32.9875 238.62813 32.4875Q238.2375 31.9875 237.34688 31.64375Q236.76875 31.409374 234.78438 30.940624Q232.81563 30.471874 232.03438 30.05Q231.00313 29.51875 230.50313 28.721874Q230.00313 27.925 230.00313 26.940624Q230.00313 25.846874 230.6125 24.909374Q231.22188 23.971874 232.40938 23.4875Q233.59688 22.9875 235.03438 22.9875Q236.62813 22.9875 237.84688 23.503124Q239.06563 24.01875 239.70625 25.01875Q240.3625 26.003124 240.40938 27.26875L238.59688 27.409374Q238.45625 26.05 237.6125 25.3625Q236.76875 24.659374 235.1125 24.659374Q233.39375 24.659374 232.59688 25.3Q231.81563 25.925 231.81563 26.8Q231.81563 27.58125 232.37813 28.08125Q232.925 28.58125 235.2375 29.096874Q237.55 29.6125 238.40938 30.003124Q239.65938 30.58125 240.25313 31.471874Q240.84688 32.346874 240.84688 33.503124Q240.84688 34.64375 240.19063 35.659374Q239.53438 36.675 238.3 37.2375Q237.08125 37.8 235.55 37.8Q233.6125 37.8 232.3 37.2375Q230.9875 36.659374 230.2375 35.51875Q229.4875 34.378124 229.45625 32.95625ZM242.39375 33.76875L244.14375 33.534374Q244.45625 35.034374 245.175 35.690624Q245.90938 36.346874 246.95625 36.346874Q248.19063 36.346874 249.03438 35.4875Q249.89375 34.628124 249.89375 33.3625Q249.89375 32.14375 249.09688 31.3625Q248.31563 30.58125 247.09688 30.58125Q246.59688 30.58125 245.8625 30.76875L246.05 29.221874Q246.22188 29.253124 246.33125 29.253124Q247.45625 29.253124 248.34688 28.675Q249.25313 28.08125 249.25313 26.8625Q249.25313 25.89375 248.59688 25.253124Q247.94063 24.6125 246.90938 24.6125Q245.89375 24.6125 245.20625 25.26875Q244.51875 25.909374 244.33125 27.190624L242.56563 26.878124Q242.89375 25.1125 244.03438 24.14375Q245.175 23.175 246.87813 23.175Q248.05 23.175 249.03438 23.675Q250.01875 24.175 250.53438 25.05Q251.06563 25.925 251.06563 26.89375Q251.06563 27.815624 250.56563 28.58125Q250.06563 29.346874 249.09688 29.8Q250.3625 30.08125 251.06563 31.01875Q251.76875 31.940624 251.76875 33.315624Q251.76875 35.190624 250.39375 36.503124Q249.03438 37.8 246.94063 37.8Q245.05 37.8 243.8 36.675Q242.56563 35.55 242.39375 33.76875ZM261.4875 37.55L259.8625 37.55L259.8625 23.2375L261.6125 23.2375L261.6125 28.346874Q262.7375 26.940624 264.45624 26.940624Q265.40936 26.940624 266.26874 27.33125Q267.1281 27.721874 267.675 28.425Q268.22186 29.1125 268.53436 30.096874Q268.84686 31.08125 268.84686 32.20625Q268.84686 34.878124 267.53436 36.33125Q266.22186 37.784374 264.3781 37.784374Q262.53436 37.784374 261.4875 36.253124L261.4875 37.55ZM261.47186 32.284374Q261.47186 34.14375 261.97186 34.9875Q262.8156 36.33125 264.22186 36.33125Q265.3781 36.33125 266.20624 35.33125Q267.05 34.33125 267.05 32.346874Q267.05 30.315624 266.2375 29.3625Q265.4406 28.39375 264.3 28.39375Q263.14374 28.39375 262.3 29.39375Q261.47186 30.39375 261.47186 32.284374ZM277.65936 37.55L277.65936 36.01875Q276.45624 37.784374 274.3781 37.784374Q273.45624 37.784374 272.65936 37.440624Q271.8625 37.08125 271.47186 36.55Q271.09686 36.01875 270.9406 35.2375Q270.83124 34.721874 270.83124 33.596874L270.83124 27.175L272.58124 27.175L272.58124 32.925Q272.58124 34.3 272.6906 34.784374Q272.8625 35.471874 273.39374 35.878124Q273.9406 36.26875 274.72186 36.26875Q275.51874 36.26875 276.20624 35.8625Q276.90936 35.45625 277.1906 34.76875Q277.4875 34.065624 277.4875 32.7375L277.4875 27.175L279.2375 27.175L279.2375 37.55L277.65936 37.55ZM288.64374 33.753124L290.3625 33.971874Q290.08124 35.76875 288.90936 36.784374Q287.7531 37.784374 286.05 37.784374Q283.925 37.784374 282.6281 36.39375Q281.33124 35.003124 281.33124 32.409374Q281.33124 30.721874 281.8781 29.471874Q282.4406 28.20625 283.58124 27.58125Q284.72186 26.940624 286.0656 26.940624Q287.7531 26.940624 288.8156 27.8Q289.89374 28.659374 290.20624 30.221874L288.4875 30.4875Q288.2531 29.440624 287.6281 28.925Q287.0031 28.39375 286.1281 28.39375Q284.8 28.39375 283.97186 29.346874Q283.14374 30.3 283.14374 32.346874Q283.14374 34.440624 283.9406 35.39375Q284.7375 36.33125 286.03436 36.33125Q287.0656 36.33125 287.7531 35.70625Q288.45624 35.065624 288.64374 33.753124ZM291.8781 37.55L291.8781 23.2375L293.64374 23.2375L293.64374 31.39375L297.8 27.175L300.0656 27.175L296.1125 31.01875L300.47186 37.55L298.3 37.55L294.8781 32.253124L293.64374 33.440624L293.64374 37.55L291.8781 37.55ZM308.97186 34.20625L310.78436 34.440624Q310.3625 36.01875 309.1906 36.909374Q308.03436 37.784374 306.22186 37.784374Q303.95624 37.784374 302.6125 36.39375Q301.28436 34.9875 301.28436 32.45625Q301.28436 29.83125 302.6281 28.39375Q303.97186 26.940624 306.1281 26.940624Q308.20624 26.940624 309.51874 28.3625Q310.84686 29.76875 310.84686 32.346874Q310.84686 32.503124 310.83124 32.815624L303.09686 32.815624Q303.1906 34.51875 304.0656 35.425Q304.9406 36.33125 306.2375 36.33125Q307.20624 36.33125 307.8781 35.83125Q308.5656 35.315624 308.97186 34.20625ZM303.1906 31.3625L308.9875 31.3625Q308.8781 30.065624 308.33124 29.409374Q307.4875 28.39375 306.14374 28.39375Q304.9406 28.39375 304.1125 29.20625Q303.28436 30.003124 303.1906 31.3625ZM316.70624 35.971874L316.95624 37.534374Q316.22186 37.690624 315.6281 37.690624Q314.675 37.690624 314.14374 37.39375Q313.6281 37.08125 313.40936 36.596874Q313.1906 36.096874 313.1906 34.51875L313.1906 28.55L311.90936 28.55L311.90936 27.175L313.1906 27.175L313.1906 24.6125L314.9406 23.55L314.9406 27.175L316.70624 27.175L316.70624 28.55L314.9406 28.55L314.9406 34.6125Q314.9406 35.3625 315.03436 35.58125Q315.1281 35.784374 315.33124 35.925Q315.55 36.05 315.9406 36.05Q316.22186 36.05 316.70624 35.971874ZM326.78436 37.55L323.6125 27.175L325.425 27.175L327.08124 33.159374L327.6906 35.39375Q327.7375 35.221874 328.22186 33.253124L329.8781 27.175L331.6906 27.175L333.2375 33.190624L333.7531 35.175L334.34686 33.175L336.1281 27.175L337.83124 27.175L334.59686 37.55L332.76874 37.55L331.1125 31.33125L330.72186 29.565624L328.6125 37.55L326.78436 37.55ZM337.55 37.8L341.70624 22.9875L343.1125 22.9875L338.97186 37.8L337.55 37.8ZM351.0031 37.55L349.2375 37.55L349.2375 26.346874Q348.6125 26.95625 347.58124 27.565624Q346.55 28.159374 345.72186 28.471874L345.72186 26.76875Q347.20624 26.08125 348.3 25.096874Q349.40936 24.096874 349.8625 23.175L351.0031 23.175L351.0031 37.55ZM356.03436 37.55L356.03436 23.2375L358.89374 23.2375L362.26874 33.3625Q362.7375 34.784374 362.95624 35.4875Q363.20624 34.70625 363.72186 33.190624L367.14374 23.2375L369.6906 23.2375L369.6906 37.55L367.8781 37.55L367.8781 25.565624L363.70624 37.55L362.0031 37.55L357.8625 25.3625L357.8625 37.55L356.03436 37.55ZM382.70624 35.971874L382.95624 37.534374Q382.22186 37.690624 381.6281 37.690624Q380.675 37.690624 380.14374 37.39375Q379.6281 37.08125 379.40936 36.596874Q379.1906 36.096874 379.1906 34.51875L379.1906 28.55L377.90936 28.55L377.90936 27.175L379.1906 27.175L379.1906 24.6125L380.9406 23.55L380.9406 27.175L382.70624 27.175L382.70624 28.55L380.9406 28.55L380.9406 34.6125Q380.9406 35.3625 381.03436 35.58125Q381.1281 35.784374 381.33124 35.925Q381.55 36.05 381.9406 36.05Q382.22186 36.05 382.70624 35.971874ZM384.22186 32.3625Q384.22186 29.4875 385.8156 28.096874Q387.15936 26.940624 389.08124 26.940624Q391.22186 26.940624 392.5656 28.346874Q393.925 29.753124 393.925 32.221874Q393.925 34.221874 393.33124 35.378124Q392.7375 36.51875 391.58124 37.159374Q390.4406 37.784374 389.08124 37.784374Q386.89374 37.784374 385.55 36.39375Q384.22186 34.9875 384.22186 32.3625ZM386.01874 32.3625Q386.01874 34.3625 386.8781 35.346874Q387.7531 36.33125 389.08124 36.33125Q390.39374 36.33125 391.2531 35.346874Q392.1281 34.346874 392.1281 32.3Q392.1281 30.378124 391.2531 29.39375Q390.3781 28.39375 389.08124 28.39375Q387.7531 28.39375 386.8781 29.39375Q386.01874 30.378124 386.01874 32.3625ZM399.70624 35.971874L399.95624 37.534374Q399.22186 37.690624 398.6281 37.690624Q397.675 37.690624 397.14374 37.39375Q396.6281 37.08125 396.40936 36.596874Q396.1906 36.096874 396.1906 34.51875L396.1906 28.55L394.90936 28.55L394.90936 27.175L396.1906 27.175L396.1906 24.6125L397.9406 23.55L397.9406 27.175L399.70624 27.175L399.70624 28.55L397.9406 28.55L397.9406 34.6125Q397.9406 35.3625 398.03436 35.58125Q398.1281 35.784374 398.33124 35.925Q398.55 36.05 398.9406 36.05Q399.22186 36.05 399.70624 35.971874ZM408.64374 36.26875Q407.65936 37.096874 406.7531 37.440624Q405.84686 37.784374 404.8156 37.784374Q403.1125 37.784374 402.1906 36.95625Q401.26874 36.1125 401.26874 34.815624Q401.26874 34.05 401.6125 33.425Q401.97186 32.8 402.53436 32.425Q403.09686 32.034374 403.8 31.83125Q404.3156 31.70625 405.3625 31.565624Q407.4875 31.315624 408.4875 30.971874Q408.5031 30.6125 408.5031 30.503124Q408.5031 29.440624 408.0031 28.9875Q407.33124 28.39375 406.0031 28.39375Q404.7531 28.39375 404.15936 28.83125Q403.58124 29.26875 403.3 30.378124L401.58124 30.14375Q401.8156 29.034374 402.34686 28.3625Q402.8781 27.675 403.89374 27.315624Q404.90936 26.940624 406.2531 26.940624Q407.58124 26.940624 408.40936 27.253124Q409.2375 27.565624 409.6281 28.05Q410.01874 28.51875 410.175 29.2375Q410.26874 29.690624 410.26874 30.8625L410.26874 33.20625Q410.26874 35.659374 410.3781 36.315624Q410.4875 36.95625 410.83124 37.55L408.9875 37.55Q408.72186 37.003124 408.64374 36.26875ZM408.4875 32.346874Q407.53436 32.7375 405.6125 33.003124Q404.53436 33.159374 404.08124 33.3625Q403.64374 33.55 403.39374 33.925Q403.14374 34.3 403.14374 34.76875Q403.14374 35.471874 403.675 35.940624Q404.20624 36.409374 405.2375 36.409374Q406.2531 36.409374 407.03436 35.971874Q407.83124 35.51875 408.20624 34.753124Q408.4875 34.14375 408.4875 32.9875L408.4875 32.346874ZM412.83124 37.55L412.83124 23.2375L414.58124 23.2375L414.58124 37.55L412.83124 37.55ZM423.28436 37.55L423.28436 28.55L421.7375 28.55L421.7375 27.175L423.28436 27.175L423.28436 26.08125Q423.28436 25.034374 423.47186 24.51875Q423.72186 23.83125 424.3625 23.409374Q425.0031 22.9875 426.15936 22.9875Q426.90936 22.9875 427.8 23.159374L427.53436 24.690624Q426.9875 24.596874 426.5031 24.596874Q425.70624 24.596874 425.3625 24.940624Q425.03436 25.284374 425.03436 26.221874L425.03436 27.175L427.0656 27.175L427.0656 28.55L425.03436 28.55L425.03436 37.55L423.28436 37.55ZM428.8781 25.253124L428.8781 23.2375L430.64374 23.2375L430.64374 25.253124L428.8781 25.253124ZM428.8781 37.55L428.8781 27.175L430.64374 27.175L430.64374 37.55L428.8781 37.55ZM432.83124 37.55L432.83124 23.2375L434.58124 23.2375L434.58124 37.55L432.83124 37.55ZM443.97186 34.20625L445.78436 34.440624Q445.3625 36.01875 444.1906 36.909374Q443.03436 37.784374 441.22186 37.784374Q438.95624 37.784374 437.6125 36.39375Q436.28436 34.9875 436.28436 32.45625Q436.28436 29.83125 437.6281 28.39375Q438.97186 26.940624 441.1281 26.940624Q443.20624 26.940624 444.51874 28.3625Q445.84686 29.76875 445.84686 32.346874Q445.84686 32.503124 445.83124 32.815624L438.09686 32.815624Q438.1906 34.51875 439.0656 35.425Q439.9406 36.33125 441.2375 36.33125Q442.20624 36.33125 442.8781 35.83125Q443.5656 35.315624 443.97186 34.20625ZM438.1906 31.3625L443.9875 31.3625Q443.8781 30.065624 443.33124 29.409374Q442.4875 28.39375 441.14374 28.39375Q439.9406 28.39375 439.1125 29.20625Q438.28436 30.003124 438.1906 31.3625ZM447.15936 34.45625L448.90936 34.175Q449.05 35.221874 449.72186 35.784374Q450.39374 36.33125 451.59686 36.33125Q452.8 36.33125 453.3781 35.846874Q453.97186 35.346874 453.97186 34.690624Q453.97186 34.096874 453.45624 33.753124Q453.09686 33.51875 451.65936 33.159374Q449.72186 32.659374 448.97186 32.315624Q448.2375 31.95625 447.84686 31.33125Q447.45624 30.690624 447.45624 29.925Q447.45624 29.2375 447.76874 28.64375Q448.09686 28.05 448.64374 27.659374Q449.05 27.3625 449.7531 27.159374Q450.47186 26.940624 451.28436 26.940624Q452.5031 26.940624 453.425 27.3Q454.34686 27.64375 454.78436 28.253124Q455.22186 28.846874 455.39374 29.846874L453.675 30.08125Q453.55 29.284374 452.9875 28.846874Q452.425 28.39375 451.40936 28.39375Q450.1906 28.39375 449.675 28.8Q449.15936 29.190624 449.15936 29.721874Q449.15936 30.065624 449.3781 30.346874Q449.58124 30.628124 450.05 30.815624Q450.3156 30.909374 451.59686 31.253124Q453.47186 31.753124 454.20624 32.08125Q454.9406 32.39375 455.3625 33.003124Q455.78436 33.596874 455.78436 34.503124Q455.78436 35.378124 455.26874 36.159374Q454.7531 36.940624 453.78436 37.3625Q452.8156 37.784374 451.59686 37.784374Q449.58124 37.784374 448.51874 36.940624Q447.45624 36.096874 447.15936 34.45625Z" fill-rule="nonzero"/></svg>