<svg version="1.1" viewBox="0.0 0.0 600.0 371.0" fill="none" stroke="none" stroke-linecap="square" stroke-miterlimit="10" width="600" height="371" xmlns:xlink="http://www.w3.org/1999/xlink" xmlns="http://www.w3.org/2000/svg"><path fill="#ffffff" d="M0 0L600.0 0L600.0 371.0L0 371.0L0 0Z" fill-rule="nonzero"/><path stroke="#333333" stroke-width="1.0" stroke-linecap="butt" d="M77.5 332.5L581.5 332.5" fill-rule="nonzero"/><path stroke="#cccccc" stroke-width="1.0" stroke-linecap="butt" d="M77.5 264.5L581.5 264.5" fill-rule="nonzero"/><path stroke="#cccccc" stroke-width="1.0" stroke-linecap="butt" d="M77.5 197.5L581.5 197.5" fill-rule="nonzero"/><path stroke="#cccccc" stroke-width="1.0" stroke-linecap="butt" d="M77.5 129.5L581.5 129.5" fill-rule="nonzero"/><path stroke="#cccccc" stroke-width="1.0" stroke-linecap="butt" d="M77.5 61.5L581.5 61.5" fill-rule="nonzero"/><clipPath id="id_0"><path d="M77.55 61.916668L581.45 61.916668L581.45 332.45L77.55 332.45L77.55 61.916668Z" clip-rule="nonzero"/></clipPath><path stroke="#000000" stroke-width="0.0" stroke-linecap="butt" stroke-opacity="0.0" clip-path="url(#id_0)" d="M194.0 332.0L119.0 332.0L119.0 126.0C119.0 124.89543 119.89543 124.0 121.0 124.0L192.0 124.0C193.10457 124.0 194.0 124.89543 194.0 126.0Z" fill-rule="nonzero"/><path fill="#4285f4" clip-path="url(#id_0)" d="M194.0 332.0L119.0 332.0L119.0 126.0C119.0 124.89543 119.89543 124.0 121.0 124.0L192.0 124.0C193.10457 124.0 194.0 124.89543 194.0 126.0Z" fill-rule="nonzero"/><path stroke="#000000" stroke-width="0.0" stroke-linecap="butt" stroke-opacity="0.0" clip-path="url(#id_0)" d="M425.0 332.0L350.0 332.0L350.0 320.0C350.0 318.89542 350.89542 318.0 352.0 318.0L423.0 318.0C424.10458 318.0 425.0 318.89542 425.0 320.0Z" fill-rule="nonzero"/><path fill="#4285f4" clip-path="url(#id_0)" d="M425.0 332.0L350.0 332.0L350.0 320.0C350.0 318.89542 350.89542 318.0 352.0 318.0L423.0 318.0C424.10458 318.0 425.0 318.89542 425.0 320.0Z" fill-rule="nonzero"/><path stroke="#4285f4" stroke-width="3.0" stroke-linejoin="round" stroke-linecap="round" d="M141.96875 131.91098L141.96875 132.81723L141.76562 132.81723Q140.5 132.84848 139.75 133.58286Q139.0 134.3016 138.875 135.6141Q139.5625 134.84848 140.71875 134.84848Q141.82812 134.84848 142.5 135.62973Q143.17188 136.41098 143.17188 137.66098Q143.17188 138.97348 142.45312 139.77036Q141.73438 140.56723 140.51562 140.56723Q139.29688 140.56723 138.53125 139.62973Q137.78125 138.6766 137.78125 137.19223L137.78125 136.78598Q137.78125 134.4266 138.78125 133.1766Q139.78125 131.9266 141.76562 131.91098L141.96875 131.91098ZM140.54688 135.75473Q139.98438 135.75473 139.51562 136.08286Q139.04688 136.41098 138.85938 136.9266L138.85938 137.31723Q138.85938 138.37973 139.32812 139.02036Q139.8125 139.66098 140.51562 139.66098Q141.25 139.66098 141.67188 139.12973Q142.09375 138.58286 142.09375 137.70786Q142.09375 136.83286 141.67188 136.3016Q141.25 135.75473 140.54688 135.75473ZM148.26562 140.44223L147.1875 140.44223L147.1875 133.22348L145.0 134.02036L145.0 133.03598L148.10938 131.8641L148.26562 131.8641L148.26562 140.44223ZM157.21875 132.52036L153.6875 140.44223L152.54688 140.44223L156.0625 132.8016L151.45312 132.8016L151.45312 131.91098L157.21875 131.91098L157.21875 132.52036ZM158.84375 139.87973Q158.84375 139.59848 159.0 139.41098Q159.17188 139.22348 159.5 139.22348Q159.84375 139.22348 160.01562 139.41098Q160.1875 139.59848 160.1875 139.87973Q160.1875 140.14536 160.01562 140.33286Q159.84375 140.50473 159.5 140.50473Q159.17188 140.50473 159.0 140.33286Q158.84375 140.14536 158.84375 139.87973ZM166.28125 137.58286L167.46875 137.58286L167.46875 138.45786L166.28125 138.45786L166.28125 140.44223L165.20312 140.44223L165.20312 138.45786L161.3125 138.45786L161.3125 137.81723L165.125 131.91098L166.28125 131.91098L166.28125 137.58286ZM162.54688 137.58286L165.20312 137.58286L165.20312 133.39536L165.0625 133.62973L162.54688 137.58286ZM174.21875 132.52036L170.6875 140.44223L169.54688 140.44223L173.0625 132.8016L168.45312 132.8016L168.45312 131.91098L174.21875 131.91098L174.21875 132.52036Z" fill-rule="nonzero"/><path fill="#ffffff" d="M141.96875 131.91098L141.96875 132.81723L141.76562 132.81723Q140.5 132.84848 139.75 133.58286Q139.0 134.3016 138.875 135.6141Q139.5625 134.84848 140.71875 134.84848Q141.82812 134.84848 142.5 135.62973Q143.17188 136.41098 143.17188 137.66098Q143.17188 138.97348 142.45312 139.77036Q141.73438 140.56723 140.51562 140.56723Q139.29688 140.56723 138.53125 139.62973Q137.78125 138.6766 137.78125 137.19223L137.78125 136.78598Q137.78125 134.4266 138.78125 133.1766Q139.78125 131.9266 141.76562 131.91098L141.96875 131.91098ZM140.54688 135.75473Q139.98438 135.75473 139.51562 136.08286Q139.04688 136.41098 138.85938 136.9266L138.85938 137.31723Q138.85938 138.37973 139.32812 139.02036Q139.8125 139.66098 140.51562 139.66098Q141.25 139.66098 141.67188 139.12973Q142.09375 138.58286 142.09375 137.70786Q142.09375 136.83286 141.67188 136.3016Q141.25 135.75473 140.54688 135.75473ZM148.26562 140.44223L147.1875 140.44223L147.1875 133.22348L145.0 134.02036L145.0 133.03598L148.10938 131.8641L148.26562 131.8641L148.26562 140.44223ZM157.21875 132.52036L153.6875 140.44223L152.54688 140.44223L156.0625 132.8016L151.45312 132.8016L151.45312 131.91098L157.21875 131.91098L157.21875 132.52036ZM158.84375 139.87973Q158.84375 139.59848 159.0 139.41098Q159.17188 139.22348 159.5 139.22348Q159.84375 139.22348 160.01562 139.41098Q160.1875 139.59848 160.1875 139.87973Q160.1875 140.14536 160.01562 140.33286Q159.84375 140.50473 159.5 140.50473Q159.17188 140.50473 159.0 140.33286Q158.84375 140.14536 158.84375 139.87973ZM166.28125 137.58286L167.46875 137.58286L167.46875 138.45786L166.28125 138.45786L166.28125 140.44223L165.20312 140.44223L165.20312 138.45786L161.3125 138.45786L161.3125 137.81723L165.125 131.91098L166.28125 131.91098L166.28125 137.58286ZM162.54688 137.58286L165.20312 137.58286L165.20312 133.39536L165.0625 133.62973L162.54688 137.58286ZM174.21875 132.52036L170.6875 140.44223L169.54688 140.44223L173.0625 132.8016L168.45312 132.8016L168.45312 131.91098L174.21875 131.91098L174.21875 132.52036Z" fill-rule="nonzero"/><path stroke="#ffffff" stroke-width="3.0" stroke-linejoin="round" stroke-linecap="round" d="M373.28125 299.91116L374.46875 299.91116L374.46875 300.78616L373.28125 300.78616L373.28125 302.77054L372.20312 302.77054L372.20312 300.78616L368.3125 300.78616L368.3125 300.14554L372.125 294.2393L373.28125 294.2393L373.28125 299.91116ZM369.54688 299.91116L372.20312 299.91116L372.20312 295.72366L372.0625 295.95804L369.54688 299.91116ZM377.28125 297.97366L378.09375 297.97366Q378.875 297.95804 379.3125 297.5674Q379.75 297.1768 379.75 296.5049Q379.75 295.0049 378.25 295.0049Q377.54688 295.0049 377.125 295.41116Q376.71875 295.8174 376.71875 296.47366L375.625 296.47366Q375.625 295.45804 376.35938 294.78616Q377.10938 294.1143 378.25 294.1143Q379.45312 294.1143 380.14062 294.7549Q380.82812 295.39554 380.82812 296.53616Q380.82812 297.09866 380.46875 297.6143Q380.10938 298.1299 379.48438 298.39554Q380.1875 298.6143 380.5625 299.1299Q380.95312 299.64554 380.95312 300.39554Q380.95312 301.53616 380.20312 302.22366Q379.45312 302.89554 378.25 302.89554Q377.0625 302.89554 376.29688 302.2393Q375.54688 301.58304 375.54688 300.52054L376.64062 300.52054Q376.64062 301.1924 377.07812 301.59866Q377.51562 302.0049 378.26562 302.0049Q379.04688 302.0049 379.45312 301.59866Q379.875 301.1768 379.875 300.41116Q379.875 299.6768 379.42188 299.28616Q378.96875 298.8799 378.09375 298.8643L377.28125 298.8643L377.28125 297.97366ZM382.84375 302.20804Q382.84375 301.9268 383.0 301.7393Q383.17188 301.5518 383.5 301.5518Q383.84375 301.5518 384.01562 301.7393Q384.1875 301.9268 384.1875 302.20804Q384.1875 302.47366 384.01562 302.66116Q383.84375 302.83304 383.5 302.83304Q383.17188 302.83304 383.0 302.66116Q382.84375 302.47366 382.84375 302.20804ZM390.28125 299.91116L391.46875 299.91116L391.46875 300.78616L390.28125 300.78616L390.28125 302.77054L389.20312 302.77054L389.20312 300.78616L385.3125 300.78616L385.3125 300.14554L389.125 294.2393L390.28125 294.2393L390.28125 299.91116ZM386.54688 299.91116L389.20312 299.91116L389.20312 295.72366L389.0625 295.95804L386.54688 299.91116ZM398.0625 299.1299Q398.0625 301.03616 397.40625 301.97366Q396.76562 302.89554 395.375 302.89554Q394.01562 302.89554 393.35938 301.9893Q392.70312 301.08304 392.67188 299.27054L392.67188 297.83304Q392.67188 295.9424 393.3125 295.03616Q393.96875 294.1143 395.35938 294.1143Q396.73438 294.1143 397.39062 295.0049Q398.04688 295.8799 398.0625 297.72366L398.0625 299.1299ZM396.96875 297.64554Q396.96875 296.27054 396.57812 295.64554Q396.20312 295.0049 395.35938 295.0049Q394.53125 295.0049 394.14062 295.64554Q393.76562 296.27054 393.76562 297.5674L393.76562 299.3018Q393.76562 300.6768 394.15625 301.34866Q394.5625 302.0049 395.375 302.0049Q396.17188 302.0049 396.5625 301.3799Q396.95312 300.7549 396.96875 299.4268L396.96875 297.64554ZM403.85938 299.02054Q403.53125 299.4268 403.04688 299.6768Q402.57812 299.91116 402.01562 299.91116Q401.28125 299.91116 400.73438 299.5518Q400.1875 299.1924 399.89062 298.53616Q399.59375 297.8643 399.59375 297.0674Q399.59375 296.22366 399.90625 295.53616Q400.23438 294.84866 400.82812 294.4893Q401.4375 294.1143 402.23438 294.1143Q403.5 294.1143 404.21875 295.0674Q404.95312 296.02054 404.95312 297.64554L404.95312 297.95804Q404.95312 300.45804 403.96875 301.59866Q402.98438 302.7393 401.0 302.77054L400.78125 302.77054L400.78125 301.8643L401.01562 301.8643Q402.35938 301.83304 403.07812 301.16116Q403.79688 300.4893 403.85938 299.02054ZM402.1875 299.02054Q402.73438 299.02054 403.1875 298.6924Q403.65625 298.34866 403.875 297.8643L403.875 297.4268Q403.875 296.3643 403.40625 295.6924Q402.9375 295.02054 402.23438 295.02054Q401.51562 295.02054 401.07812 295.5674Q400.65625 296.1143 400.65625 297.02054Q400.65625 297.89554 401.0625 298.45804Q401.48438 299.02054 402.1875 299.02054Z" fill-rule="nonzero"/><path fill="#4285f4" d="M373.28125 299.91116L374.46875 299.91116L374.46875 300.78616L373.28125 300.78616L373.28125 302.77054L372.20312 302.77054L372.20312 300.78616L368.3125 300.78616L368.3125 300.14554L372.125 294.2393L373.28125 294.2393L373.28125 299.91116ZM369.54688 299.91116L372.20312 299.91116L372.20312 295.72366L372.0625 295.95804L369.54688 299.91116ZM377.28125 297.97366L378.09375 297.97366Q378.875 297.95804 379.3125 297.5674Q379.75 297.1768 379.75 296.5049Q379.75 295.0049 378.25 295.0049Q377.54688 295.0049 377.125 295.41116Q376.71875 295.8174 376.71875 296.47366L375.625 296.47366Q375.625 295.45804 376.35938 294.78616Q377.10938 294.1143 378.25 294.1143Q379.45312 294.1143 380.14062 294.7549Q380.82812 295.39554 380.82812 296.53616Q380.82812 297.09866 380.46875 297.6143Q380.10938 298.1299 379.48438 298.39554Q380.1875 298.6143 380.5625 299.1299Q380.95312 299.64554 380.95312 300.39554Q380.95312 301.53616 380.20312 302.22366Q379.45312 302.89554 378.25 302.89554Q377.0625 302.89554 376.29688 302.2393Q375.54688 301.58304 375.54688 300.52054L376.64062 300.52054Q376.64062 301.1924 377.07812 301.59866Q377.51562 302.0049 378.26562 302.0049Q379.04688 302.0049 379.45312 301.59866Q379.875 301.1768 379.875 300.41116Q379.875 299.6768 379.42188 299.28616Q378.96875 298.8799 378.09375 298.8643L377.28125 298.8643L377.28125 297.97366ZM382.84375 302.20804Q382.84375 301.9268 383.0 301.7393Q383.17188 301.5518 383.5 301.5518Q383.84375 301.5518 384.01562 301.7393Q384.1875 301.9268 384.1875 302.20804Q384.1875 302.47366 384.01562 302.66116Q383.84375 302.83304 383.5 302.83304Q383.17188 302.83304 383.0 302.66116Q382.84375 302.47366 382.84375 302.20804ZM390.28125 299.91116L391.46875 299.91116L391.46875 300.78616L390.28125 300.78616L390.28125 302.77054L389.20312 302.77054L389.20312 300.78616L385.3125 300.78616L385.3125 300.14554L389.125 294.2393L390.28125 294.2393L390.28125 299.91116ZM386.54688 299.91116L389.20312 299.91116L389.20312 295.72366L389.0625 295.95804L386.54688 299.91116ZM398.0625 299.1299Q398.0625 301.03616 397.40625 301.97366Q396.76562 302.89554 395.375 302.89554Q394.01562 302.89554 393.35938 301.9893Q392.70312 301.08304 392.67188 299.27054L392.67188 297.83304Q392.67188 295.9424 393.3125 295.03616Q393.96875 294.1143 395.35938 294.1143Q396.73438 294.1143 397.39062 295.0049Q398.04688 295.8799 398.0625 297.72366L398.0625 299.1299ZM396.96875 297.64554Q396.96875 296.27054 396.57812 295.64554Q396.20312 295.0049 395.35938 295.0049Q394.53125 295.0049 394.14062 295.64554Q393.76562 296.27054 393.76562 297.5674L393.76562 299.3018Q393.76562 300.6768 394.15625 301.34866Q394.5625 302.0049 395.375 302.0049Q396.17188 302.0049 396.5625 301.3799Q396.95312 300.7549 396.96875 299.4268L396.96875 297.64554ZM403.85938 299.02054Q403.53125 299.4268 403.04688 299.6768Q402.57812 299.91116 402.01562 299.91116Q401.28125 299.91116 400.73438 299.5518Q400.1875 299.1924 399.89062 298.53616Q399.59375 297.8643 399.59375 297.0674Q399.59375 296.22366 399.90625 295.53616Q400.23438 294.84866 400.82812 294.4893Q401.4375 294.1143 402.23438 294.1143Q403.5 294.1143 404.21875 295.0674Q404.95312 296.02054 404.95312 297.64554L404.95312 297.95804Q404.95312 300.45804 403.96875 301.59866Q402.98438 302.7393 401.0 302.77054L400.78125 302.77054L400.78125 301.8643L401.01562 301.8643Q402.35938 301.83304 403.07812 301.16116Q403.79688 300.4893 403.85938 299.02054ZM402.1875 299.02054Q402.73438 299.02054 403.1875 298.6924Q403.65625 298.34866 403.875 297.8643L403.875 297.4268Q403.875 296.3643 403.40625 295.6924Q402.9375 295.02054 402.23438 295.02054Q401.51562 295.02054 401.07812 295.5674Q400.65625 296.1143 400.65625 297.02054Q400.65625 297.89554 401.0625 298.45804Q401.48438 299.02054 402.1875 299.02054Z" fill-rule="nonzero"/><path fill="#000000" d="M29.550013 254.24583L20.956263 254.24583L20.956263 250.43333Q20.956263 249.27708 21.190638 248.68333Q21.425013 248.08958 22.018763 247.73021Q22.596888 247.37083 23.300013 247.37083Q24.221888 247.37083 24.846888 247.96458Q25.471888 248.55833 25.643763 249.79271Q25.862513 249.33958 26.065638 249.10521Q26.518763 248.60521 27.206263 248.16771L29.550013 246.66771L29.550013 248.10521L27.768763 249.23021Q26.987513 249.73021 26.581263 250.05833Q26.175013 250.37083 26.018763 250.63646Q25.846888 250.88646 25.768763 251.15208Q25.737513 251.33958 25.737513 251.77708L25.737513 253.10521L29.550013 253.10521L29.550013 254.24583ZM24.753138 253.10521L24.753138 250.65208Q24.753138 249.88646 24.596888 249.44896Q24.425013 248.99583 24.081263 248.77708Q23.721888 248.54271 23.300013 248.54271Q22.690638 248.54271 22.300013 248.99583Q21.909388 249.43333 21.909388 250.38646L21.909388 253.10521L24.753138 253.10521ZM29.550013 241.30833L28.628138 241.30833Q29.690638 242.04271 29.690638 243.29271Q29.690638 243.83958 29.487513 244.32396Q29.268763 244.79271 28.956263 245.02708Q28.628138 245.26146 28.159388 245.35521Q27.862513 245.41771 27.175013 245.41771L23.331263 245.41771L23.331263 244.35521L26.784388 244.35521Q27.596888 244.35521 27.893763 244.29271Q28.300013 244.19896 28.550013 243.88646Q28.784388 243.55833 28.784388 243.07396Q28.784388 242.60521 28.550013 242.19896Q28.300013 241.77708 27.878138 241.60521Q27.456263 241.41771 26.659388 241.41771L23.331263 241.41771L23.331263 240.37083L29.550013 240.37083L29.550013 241.30833ZM29.550013 238.38646L23.331263 238.38646L23.331263 237.44896L24.206263 237.44896Q23.190638 236.76146 23.190638 235.46458Q23.190638 234.90208 23.393763 234.43333Q23.596888 233.94896 23.925013 233.71458Q24.253138 233.48021 24.690638 233.38646Q24.987513 233.33958 25.721888 233.33958L29.550013 233.33958L29.550013 234.38646L25.768763 234.38646Q25.112513 234.38646 24.800013 234.51146Q24.487513 234.63646 24.300013 234.94896Q24.096888 235.26146 24.096888 235.68333Q24.096888 236.35521 24.534388 236.85521Q24.956263 237.33958 26.143763 237.33958L29.550013 237.33958L29.550013 238.38646ZM28.612513 229.08958L29.534388 228.93333Q29.628138 229.38646 29.628138 229.73021Q29.628138 230.30833 29.456263 230.62083Q29.268763 230.93333 28.971888 231.07396Q28.675013 231.19896 27.721888 231.19896L24.143763 231.19896L24.143763 231.96458L23.331263 231.96458L23.331263 231.19896L21.784388 231.19896L21.159388 230.15208L23.331263 230.15208L23.331263 229.08958L24.143763 229.08958L24.143763 230.15208L27.784388 230.15208Q28.237513 230.15208 28.362513 230.10521Q28.487513 230.04271 28.565638 229.91771Q28.643763 229.79271 28.643763 229.55833Q28.643763 229.37083 28.612513 229.08958ZM22.175013 228.38646L20.956263 228.38646L20.956263 227.32396L22.175013 227.32396L22.175013 228.38646ZM29.550013 228.38646L23.331263 228.38646L23.331263 227.32396L29.550013 227.32396L29.550013 228.38646ZM29.550013 225.38646L23.331263 225.38646L23.331263 224.44896L24.206263 224.44896Q23.737513 224.15208 23.471888 223.66771Q23.190638 223.18333 23.190638 222.55833Q23.190638 221.87083 23.471888 221.43333Q23.753138 220.98021 24.268763 220.80833Q23.190638 220.05833 23.190638 218.88646Q23.190638 217.94896 23.706263 217.46458Q24.206263 216.96458 25.284388 216.96458L29.550013 216.96458L29.550013 218.01146L25.628138 218.01146Q25.003138 218.01146 24.721888 218.12083Q24.440638 218.21458 24.268763 218.48021Q24.096888 218.74583 24.096888 219.12083Q24.096888 219.77708 24.534388 220.21458Q24.971888 220.63646 25.940638 220.63646L29.550013 220.63646L29.550013 221.69896L25.503138 221.69896Q24.800013 221.69896 24.456263 221.96458Q24.096888 222.21458 24.096888 222.79271Q24.096888 223.24583 24.331263 223.62083Q24.565638 223.99583 25.018763 224.16771Q25.471888 224.33958 26.315638 224.33958L29.550013 224.33958L29.550013 225.38646ZM27.550013 211.13646L27.675013 210.04271Q28.628138 210.29271 29.159388 210.99583Q29.690638 211.69896 29.690638 212.77708Q29.690638 214.13646 28.846888 214.94896Q28.003138 215.74583 26.487513 215.74583Q24.925013 215.74583 24.065638 214.93333Q23.190638 214.12083 23.190638 212.83958Q23.190638 211.58958 24.034388 210.80833Q24.878138 210.01146 26.425013 210.01146Q26.518763 210.01146 26.706263 210.01146L26.706263 214.65208Q27.737513 214.58958 28.284388 214.07396Q28.815638 213.55833 28.815638 212.77708Q28.815638 212.19896 28.518763 211.79271Q28.206263 211.37083 27.550013 211.13646ZM25.846888 214.58958L25.846888 211.12083Q25.050013 211.18333 24.659388 211.51146Q24.050013 212.02708 24.050013 212.82396Q24.050013 213.55833 24.534388 214.05833Q25.018763 214.54271 25.846888 214.58958ZM32.08126 203.37083Q30.971888 204.24583 29.503138 204.85521Q28.018763 205.44896 26.440638 205.44896Q25.050013 205.44896 23.768763 205.01146Q22.284388 204.48021 20.815638 203.37083L20.815638 202.62083Q22.034388 203.32396 22.550013 203.55833Q23.362513 203.91771 24.237513 204.12083Q25.331263 204.37083 26.440638 204.37083Q29.268763 204.37083 32.08126 202.62083L32.08126 203.37083ZM27.690638 201.80833L27.534388 200.77708Q28.159388 200.68333 28.487513 200.29271Q28.815638 199.88646 28.815638 199.15208Q28.815638 198.43333 28.534388 198.08958Q28.237513 197.73021 27.831263 197.73021Q27.471888 197.73021 27.268763 198.04271Q27.128138 198.26146 26.909388 199.12083Q26.612513 200.27708 26.409388 200.73021Q26.190638 201.16771 25.815638 201.40208Q25.440638 201.63646 24.971888 201.63646Q24.565638 201.63646 24.206263 201.44896Q23.846888 201.26146 23.612513 200.93333Q23.440638 200.68333 23.315638 200.26146Q23.190638 199.83958 23.190638 199.33958Q23.190638 198.62083 23.409388 198.07396Q23.612513 197.51146 23.971888 197.24583Q24.331263 196.98021 24.925013 196.88646L25.065638 197.91771Q24.596888 197.98021 24.331263 198.32396Q24.050013 198.65208 24.050013 199.27708Q24.050013 199.99583 24.300013 200.30833Q24.534388 200.62083 24.862513 200.62083Q25.065638 200.62083 25.221888 200.49583Q25.393763 200.35521 25.503138 200.08958Q25.565638 199.93333 25.768763 199.15208Q26.081263 198.02708 26.268763 197.58958Q26.456263 197.15208 26.815638 196.90208Q27.175013 196.65208 27.721888 196.65208Q28.253138 196.65208 28.721888 196.96458Q29.175013 197.26146 29.440638 197.83958Q29.690638 198.41771 29.690638 199.15208Q29.690638 200.37083 29.190638 201.01146Q28.675013 201.63646 27.690638 201.80833ZM27.550013 191.13646L27.675013 190.04271Q28.628138 190.29271 29.159388 190.99583Q29.690638 191.69896 29.690638 192.77708Q29.690638 194.13646 28.846888 194.94896Q28.003138 195.74583 26.487513 195.74583Q24.925013 195.74583 24.065638 194.93333Q23.190638 194.12083 23.190638 192.83958Q23.190638 191.58958 24.034388 190.80833Q24.878138 190.01146 26.425013 190.01146Q26.518763 190.01146 26.706263 190.01146L26.706263 194.65208Q27.737513 194.58958 28.284388 194.07396Q28.815638 193.55833 28.815638 192.77708Q28.815638 192.19896 28.518763 191.79271Q28.206263 191.37083 27.550013 191.13646ZM25.846888 194.58958L25.846888 191.12083Q25.050013 191.18333 24.659388 191.51146Q24.050013 192.02708 24.050013 192.82396Q24.050013 193.55833 24.534388 194.05833Q25.018763 194.54271 25.846888 194.58958ZM27.268763 184.32396L27.409388 183.29271Q28.471888 183.46458 29.081263 184.16771Q29.690638 184.87083 29.690638 185.88646Q29.690638 187.16771 28.862513 187.94896Q28.018763 188.71458 26.456263 188.71458Q25.456263 188.71458 24.706263 188.38646Q23.940638 188.04271 23.565638 187.37083Q23.190638 186.68333 23.190638 185.87083Q23.190638 184.87083 23.706263 184.23021Q24.206263 183.57396 25.159388 183.38646L25.315638 184.41771Q24.690638 184.55833 24.378138 184.93333Q24.050013 185.30833 24.050013 185.83958Q24.050013 186.63646 24.628138 187.13646Q25.190638 187.63646 26.425013 187.63646Q27.690638 187.63646 28.253138 187.15208Q28.815638 186.66771 28.815638 185.90208Q28.815638 185.27708 28.440638 184.87083Q28.065638 184.44896 27.268763 184.32396ZM26.440638 182.77708Q24.706263 182.77708 23.878138 181.82396Q23.190638 181.02708 23.190638 179.87083Q23.190638 178.58958 24.034388 177.77708Q24.862513 176.94896 26.346888 176.94896Q27.550013 176.94896 28.237513 177.30833Q28.925013 177.66771 29.315638 178.37083Q29.690638 179.05833 29.690638 179.87083Q29.690638 181.16771 28.862513 181.98021Q28.018763 182.77708 26.440638 182.77708ZM26.440638 181.69896Q27.628138 181.69896 28.221888 181.18333Q28.815638 180.65208 28.815638 179.87083Q28.815638 179.07396 28.221888 178.55833Q27.628138 178.04271 26.409388 178.04271Q25.253138 178.04271 24.659388 178.57396Q24.065638 179.08958 24.065638 179.87083Q24.065638 180.65208 24.659388 181.18333Q25.237513 181.69896 26.440638 181.69896ZM29.550013 175.38646L23.331263 175.38646L23.331263 174.44896L24.206263 174.44896Q23.190638 173.76146 23.190638 172.46458Q23.190638 171.90208 23.393763 171.43333Q23.596888 170.94896 23.925013 170.71458Q24.253138 170.48021 24.690638 170.38646Q24.987513 170.33958 25.721888 170.33958L29.550013 170.33958L29.550013 171.38646L25.768763 171.38646Q25.112513 171.38646 24.800013 171.51146Q24.487513 171.63646 24.300013 171.94896Q24.096888 172.26146 24.096888 172.68333Q24.096888 173.35521 24.534388 173.85521Q24.956263 174.33958 26.143763 174.33958L29.550013 174.33958L29.550013 175.38646ZM29.550013 164.35521L28.768763 164.35521Q29.690638 164.94896 29.690638 166.08958Q29.690638 166.83958 29.284388 167.46458Q28.862513 168.08958 28.128138 168.43333Q27.393763 168.77708 26.440638 168.77708Q25.518763 168.77708 24.753138 168.46458Q23.987513 168.15208 23.596888 167.52708Q23.190638 166.90208 23.190638 166.13646Q23.190638 165.57396 23.425013 165.13646Q23.659388 164.69896 24.034388 164.41771L20.956263 164.41771L20.956263 163.37083L29.550013 163.37083L29.550013 164.35521ZM26.440638 167.68333Q27.643763 167.68333 28.237513 167.18333Q28.815638 166.68333 28.815638 165.99583Q28.815638 165.30833 28.253138 164.82396Q27.690638 164.33958 26.534388 164.33958Q25.253138 164.33958 24.659388 164.83958Q24.065638 165.32396 24.065638 166.04271Q24.065638 166.74583 24.643763 167.21458Q25.206263 167.68333 26.440638 167.68333ZM27.690638 161.80833L27.534388 160.77708Q28.159388 160.68333 28.487513 160.29271Q28.815638 159.88646 28.815638 159.15208Q28.815638 158.43333 28.534388 158.08958Q28.237513 157.73021 27.831263 157.73021Q27.471888 157.73021 27.268763 158.04271Q27.128138 158.26146 26.909388 159.12083Q26.612513 160.27708 26.409388 160.73021Q26.190638 161.16771 25.815638 161.40208Q25.440638 161.63646 24.971888 161.63646Q24.565638 161.63646 24.206263 161.44896Q23.846888 161.26146 23.612513 160.93333Q23.440638 160.68333 23.315638 160.26146Q23.190638 159.83958 23.190638 159.33958Q23.190638 158.62083 23.409388 158.07396Q23.612513 157.51146 23.971888 157.24583Q24.331263 156.98021 24.925013 156.88646L25.065638 157.91771Q24.596888 157.98021 24.331263 158.32396Q24.050013 158.65208 24.050013 159.27708Q24.050013 159.99583 24.300013 160.30833Q24.534388 160.62083 24.862513 160.62083Q25.065638 160.62083 25.221888 160.49583Q25.393763 160.35521 25.503138 160.08958Q25.565638 159.93333 25.768763 159.15208Q26.081263 158.02708 26.268763 157.58958Q26.456263 157.15208 26.815638 156.90208Q27.175013 156.65208 27.721888 156.65208Q28.253138 156.65208 28.721888 156.96458Q29.175013 157.26146 29.440638 157.83958Q29.690638 158.41771 29.690638 159.15208Q29.690638 160.37083 29.190638 161.01146Q28.675013 161.63646 27.690638 161.80833ZM32.08126 154.69896L32.08126 155.44896Q29.268763 153.69896 26.440638 153.69896Q25.346888 153.69896 24.253138 153.94896Q23.378138 154.15208 22.565638 154.51146Q22.050013 154.74583 20.815638 155.44896L20.815638 154.69896Q22.284388 153.60521 23.768763 153.07396Q25.050013 152.62083 26.440638 152.62083Q28.018763 152.62083 29.503138 153.23021Q30.971888 153.83958 32.08126 154.69896Z" fill-rule="nonzero"/><path fill="#000000" d="M65.05 332.21564Q65.05 330.6844 65.3625 329.7625Q65.675 328.825 66.28438 328.325Q66.90938 327.825 67.84688 327.825Q68.53438 327.825 69.05 328.10626Q69.58125 328.3875 69.925 328.91876Q70.26875 329.4344 70.45625 330.1844Q70.64375 330.9344 70.64375 332.21564Q70.64375 333.73126 70.33125 334.65314Q70.03438 335.575 69.40938 336.09064Q68.8 336.59064 67.84688 336.59064Q66.6125 336.59064 65.89375 335.7Q65.05 334.6375 65.05 332.21564ZM66.12813 332.21564Q66.12813 334.325 66.62813 335.02814Q67.12813 335.73126 67.84688 335.73126Q68.58125 335.73126 69.06563 335.02814Q69.56563 334.325 69.56563 332.21564Q69.56563 330.09064 69.06563 329.40314Q68.58125 328.7 67.83125 328.7Q67.1125 328.7 66.675 329.3094Q66.12813 330.09064 66.12813 332.21564Z" fill-rule="nonzero"/><path fill="#000000" d="M56.596874 267.80106L56.596874 268.81668L50.909374 268.81668Q50.909374 268.44168 51.034374 268.0823Q51.253124 267.50418 51.721874 266.94168Q52.20625 266.37918 53.1125 265.6448Q54.51875 264.48856 55.003124 263.81668Q55.503124 263.1448 55.503124 262.55106Q55.503124 261.92606 55.05 261.50418Q54.596874 261.06668 53.878124 261.06668Q53.1125 261.06668 52.659374 261.5198Q52.20625 261.97293 52.190624 262.78543L51.1125 262.67606Q51.221874 261.4573 51.940624 260.8323Q52.675 260.19168 53.909374 260.19168Q55.14375 260.19168 55.8625 260.87918Q56.58125 261.56668 56.58125 262.5823Q56.58125 263.09793 56.3625 263.59793Q56.159374 264.0823 55.659374 264.6448Q55.175 265.19168 54.05 266.1448Q53.096874 266.94168 52.815624 267.23856Q52.55 267.5198 52.378124 267.80106L56.596874 267.80106ZM58.05 264.5823Q58.05 263.05106 58.3625 262.12918Q58.675 261.19168 59.284374 260.69168Q59.909374 260.19168 60.846874 260.19168Q61.534374 260.19168 62.05 260.47293Q62.58125 260.75418 62.925 261.28543Q63.26875 261.80106 63.45625 262.55106Q63.64375 263.30106 63.64375 264.5823Q63.64375 266.09793 63.33125 267.0198Q63.034374 267.94168 62.409374 268.4573Q61.8 268.9573 60.846874 268.9573Q59.6125 268.9573 58.89375 268.06668Q58.05 267.00418 58.05 264.5823ZM59.128124 264.5823Q59.128124 266.69168 59.628124 267.3948Q60.128124 268.09793 60.846874 268.09793Q61.58125 268.09793 62.065624 267.3948Q62.565624 266.69168 62.565624 264.5823Q62.565624 262.4573 62.065624 261.7698Q61.58125 261.06668 60.83125 261.06668Q60.1125 261.06668 59.675 261.67606Q59.128124 262.4573 59.128124 264.5823ZM65.05 264.5823Q65.05 263.05106 65.3625 262.12918Q65.675 261.19168 66.28438 260.69168Q66.90938 260.19168 67.84688 260.19168Q68.53438 260.19168 69.05 260.47293Q69.58125 260.75418 69.925 261.28543Q70.26875 261.80106 70.45625 262.55106Q70.64375 263.30106 70.64375 264.5823Q70.64375 266.09793 70.33125 267.0198Q70.03438 267.94168 69.40938 268.4573Q68.8 268.9573 67.84688 268.9573Q66.6125 268.9573 65.89375 268.06668Q65.05 267.00418 65.05 264.5823ZM66.12813 264.5823Q66.12813 266.69168 66.62813 267.3948Q67.12813 268.09793 67.84688 268.09793Q68.58125 268.09793 69.06563 267.3948Q69.56563 266.69168 69.56563 264.5823Q69.56563 262.4573 69.06563 261.7698Q68.58125 261.06668 67.83125 261.06668Q67.1125 261.06668 66.675 261.67606Q66.12813 262.4573 66.12813 264.5823Z" fill-rule="nonzero"/><path fill="#000000" d="M54.425 201.18333L54.425 199.12083L50.70625 199.12083L50.70625 198.15208L54.628124 192.58958L55.4875 192.58958L55.4875 198.15208L56.64375 198.15208L56.64375 199.12083L55.4875 199.12083L55.4875 201.18333L54.425 201.18333ZM54.425 198.15208L54.425 194.29271L51.7375 198.15208L54.425 198.15208ZM58.05 196.94896Q58.05 195.41771 58.3625 194.49583Q58.675 193.55833 59.284374 193.05833Q59.909374 192.55833 60.846874 192.55833Q61.534374 192.55833 62.05 192.83958Q62.58125 193.12083 62.925 193.65208Q63.26875 194.16771 63.45625 194.91771Q63.64375 195.66771 63.64375 196.94896Q63.64375 198.46458 63.33125 199.38646Q63.034374 200.30833 62.409374 200.82396Q61.8 201.32396 60.846874 201.32396Q59.6125 201.32396 58.89375 200.43333Q58.05 199.37083 58.05 196.94896ZM59.128124 196.94896Q59.128124 199.05833 59.628124 199.76146Q60.128124 200.46458 60.846874 200.46458Q61.58125 200.46458 62.065624 199.76146Q62.565624 199.05833 62.565624 196.94896Q62.565624 194.82396 62.065624 194.13646Q61.58125 193.43333 60.83125 193.43333Q60.1125 193.43333 59.675 194.04271Q59.128124 194.82396 59.128124 196.94896ZM65.05 196.94896Q65.05 195.41771 65.3625 194.49583Q65.675 193.55833 66.28438 193.05833Q66.90938 192.55833 67.84688 192.55833Q68.53438 192.55833 69.05 192.83958Q69.58125 193.12083 69.925 193.65208Q70.26875 194.16771 70.45625 194.91771Q70.64375 195.66771 70.64375 196.94896Q70.64375 198.46458 70.33125 199.38646Q70.03438 200.30833 69.40938 200.82396Q68.8 201.32396 67.84688 201.32396Q66.6125 201.32396 65.89375 200.43333Q65.05 199.37083 65.05 196.94896ZM66.12813 196.94896Q66.12813 199.05833 66.62813 199.76146Q67.12813 200.46458 67.84688 200.46458Q68.58125 200.46458 69.06563 199.76146Q69.56563 199.05833 69.56563 196.94896Q69.56563 194.82396 69.06563 194.13646Q68.58125 193.43333 67.83125 193.43333Q67.1125 193.43333 66.675 194.04271Q66.12813 194.82396 66.12813 196.94896Z" fill-rule="nonzero"/><path fill="#000000" d="M56.51875 127.06563L55.471874 127.14375Q55.33125 126.51875 55.08125 126.2375Q54.64375 125.78438 54.01875 125.78438Q53.51875 125.78438 53.128124 126.06563Q52.64375 126.44063 52.346874 127.14375Q52.065624 127.83125 52.05 129.1125Q52.425 128.53438 52.971874 128.25313Q53.534374 127.97188 54.14375 127.97188Q55.190624 127.97188 55.925 128.75313Q56.675 129.53438 56.675 130.75313Q56.675 131.56563 56.315624 132.26875Q55.971874 132.95625 55.3625 133.33125Q54.753124 133.69063 53.9875 133.69063Q52.659374 133.69063 51.83125 132.72188Q51.003124 131.75313 51.003124 129.53438Q51.003124 127.03438 51.925 125.90938Q52.721874 124.925 54.08125 124.925Q55.096874 124.925 55.7375 125.50313Q56.39375 126.06563 56.51875 127.06563ZM52.221874 130.76875Q52.221874 131.31563 52.440624 131.81563Q52.675 132.3 53.08125 132.56563Q53.503124 132.83125 53.971874 132.83125Q54.628124 132.83125 55.1125 132.3Q55.596874 131.75313 55.596874 130.83125Q55.596874 129.94063 55.1125 129.425Q54.64375 128.90938 53.925 128.90938Q53.20625 128.90938 52.70625 129.425Q52.221874 129.94063 52.221874 130.76875ZM58.05 129.31563Q58.05 127.78438 58.3625 126.8625Q58.675 125.925 59.284374 125.425Q59.909374 124.925 60.846874 124.925Q61.534374 124.925 62.05 125.20625Q62.58125 125.4875 62.925 126.01875Q63.26875 126.53438 63.45625 127.28438Q63.64375 128.03438 63.64375 129.31563Q63.64375 130.83125 63.33125 131.75313Q63.034374 132.675 62.409374 133.19063Q61.8 133.69063 60.846874 133.69063Q59.6125 133.69063 58.89375 132.8Q58.05 131.7375 58.05 129.31563ZM59.128124 129.31563Q59.128124 131.425 59.628124 132.12813Q60.128124 132.83125 60.846874 132.83125Q61.58125 132.83125 62.065624 132.12813Q62.565624 131.425 62.565624 129.31563Q62.565624 127.19063 62.065624 126.50313Q61.58125 125.8 60.83125 125.8Q60.1125 125.8 59.675 126.40938Q59.128124 127.19063 59.128124 129.31563ZM65.05 129.31563Q65.05 127.78438 65.3625 126.8625Q65.675 125.925 66.28438 125.425Q66.90938 124.925 67.84688 124.925Q68.53438 124.925 69.05 125.20625Q69.58125 125.4875 69.925 126.01875Q70.26875 126.53438 70.45625 127.28438Q70.64375 128.03438 70.64375 129.31563Q70.64375 130.83125 70.33125 131.75313Q70.03438 132.675 69.40938 133.19063Q68.8 133.69063 67.84688 133.69063Q66.6125 133.69063 65.89375 132.8Q65.05 131.7375 65.05 129.31563ZM66.12813 129.31563Q66.12813 131.425 66.62813 132.12813Q67.12813 132.83125 67.84688 132.83125Q68.58125 132.83125 69.06563 132.12813Q69.56563 131.425 69.56563 129.31563Q69.56563 127.19063 69.06563 126.50313Q68.58125 125.8 67.83125 125.8Q67.1125 125.8 66.675 126.40938Q66.12813 127.19063 66.12813 129.31563Z" fill-rule="nonzero"/><path fill="#000000" d="M52.675 61.260414Q52.01875 61.010414 51.690624 60.572914Q51.378124 60.11979 51.378124 59.510414Q51.378124 58.572914 52.05 57.93229Q52.7375 57.291664 53.846874 57.291664Q54.971874 57.291664 55.659374 57.947914Q56.346874 58.604164 56.346874 59.541664Q56.346874 60.135414 56.034374 60.572914Q55.721874 61.010414 55.08125 61.260414Q55.878124 61.510414 56.284374 62.08854Q56.690624 62.666664 56.690624 63.46354Q56.690624 64.55729 55.909374 65.30729Q55.14375 66.05729 53.8625 66.05729Q52.596874 66.05729 51.815624 65.30729Q51.034374 64.55729 51.034374 63.43229Q51.034374 62.58854 51.45625 62.02604Q51.89375 61.46354 52.675 61.260414ZM52.45625 59.46354Q52.45625 60.072914 52.846874 60.46354Q53.253124 60.854164 53.878124 60.854164Q54.4875 60.854164 54.878124 60.479164Q55.26875 60.08854 55.26875 59.52604Q55.26875 58.947914 54.8625 58.55729Q54.45625 58.15104 53.8625 58.15104Q53.253124 58.15104 52.846874 58.541664Q52.45625 58.93229 52.45625 59.46354ZM52.128124 63.43229Q52.128124 63.885414 52.33125 64.30729Q52.55 64.729164 52.971874 64.96354Q53.39375 65.197914 53.878124 65.197914Q54.628124 65.197914 55.1125 64.71354Q55.6125 64.229164 55.6125 63.479164Q55.6125 62.71354 55.1125 62.21354Q54.6125 61.71354 53.846874 61.71354Q53.096874 61.71354 52.6125 62.21354Q52.128124 62.697914 52.128124 63.43229ZM58.05 61.68229Q58.05 60.15104 58.3625 59.229164Q58.675 58.291664 59.284374 57.791664Q59.909374 57.291664 60.846874 57.291664Q61.534374 57.291664 62.05 57.572914Q62.58125 57.854164 62.925 58.385414Q63.26875 58.90104 63.45625 59.65104Q63.64375 60.40104 63.64375 61.68229Q63.64375 63.197914 63.33125 64.11979Q63.034374 65.041664 62.409374 65.55729Q61.8 66.05729 60.846874 66.05729Q59.6125 66.05729 58.89375 65.166664Q58.05 64.104164 58.05 61.68229ZM59.128124 61.68229Q59.128124 63.791664 59.628124 64.49479Q60.128124 65.197914 60.846874 65.197914Q61.58125 65.197914 62.065624 64.49479Q62.565624 63.791664 62.565624 61.68229Q62.565624 59.55729 62.065624 58.86979Q61.58125 58.166664 60.83125 58.166664Q60.1125 58.166664 59.675 58.77604Q59.128124 59.55729 59.128124 61.68229ZM65.05 61.68229Q65.05 60.15104 65.3625 59.229164Q65.675 58.291664 66.28438 57.791664Q66.90938 57.291664 67.84688 57.291664Q68.53438 57.291664 69.05 57.572914Q69.58125 57.854164 69.925 58.385414Q70.26875 58.90104 70.45625 59.65104Q70.64375 60.40104 70.64375 61.68229Q70.64375 63.197914 70.33125 64.11979Q70.03438 65.041664 69.40938 65.55729Q68.8 66.05729 67.84688 66.05729Q66.6125 66.05729 65.89375 65.166664Q65.05 64.104164 65.05 61.68229ZM66.12813 61.68229Q66.12813 63.791664 66.62813 64.49479Q67.12813 65.197914 67.84688 65.197914Q68.58125 65.197914 69.06563 64.49479Q69.56563 63.791664 69.56563 61.68229Q69.56563 59.55729 69.06563 58.86979Q68.58125 58.166664 67.83125 58.166664Q67.1125 58.166664 66.675 58.77604Q66.12813 59.55729 66.12813 61.68229Z" fill-rule="nonzero"/><path fill="#000000" d="M128.66325 349.45L128.66325 340.85626L131.632 340.85626Q132.632 340.85626 133.16325 340.98126Q133.89763 341.15314 134.41325 341.59064Q135.10075 342.16876 135.42888 343.075Q135.77263 343.96564 135.77263 345.10626Q135.77263 346.09064 135.53825 346.84064Q135.3195 347.59064 134.96013 348.09064Q134.60075 348.59064 134.16325 348.8719Q133.74138 349.15314 133.14763 349.3094Q132.55388 349.45 131.77263 349.45L128.66325 349.45ZM129.80388 348.4344L131.632 348.4344Q132.49138 348.4344 132.97575 348.27814Q133.46013 348.1219 133.74138 347.825Q134.14763 347.4344 134.36638 346.7469Q134.60075 346.0594 134.60075 345.09064Q134.60075 343.7469 134.14763 343.02814Q133.71013 342.29376 133.08513 342.04376Q132.61638 341.8719 131.61638 341.8719L129.80388 341.8719L129.80388 348.4344ZM140.11638 349.45L136.78825 340.85626L138.02263 340.85626L140.257 347.10626Q140.52263 347.85626 140.71013 348.5125Q140.91325 347.8094 141.17888 347.10626L143.49138 340.85626L144.64763 340.85626L141.28825 349.45L140.11638 349.45ZM151.80388 346.4344L152.92888 346.73126Q152.5695 348.1219 151.64763 348.85626Q150.72575 349.59064 149.382 349.59064Q147.99138 349.59064 147.11638 349.02814Q146.24138 348.46564 145.78825 347.40314Q145.33513 346.325 145.33513 345.09064Q145.33513 343.7469 145.85075 342.7469Q146.36638 341.7469 147.30388 341.23126Q148.257 340.71564 149.39763 340.71564Q150.67888 340.71564 151.55388 341.3719Q152.4445 342.02814 152.78825 343.21564L151.66325 343.48126Q151.36638 342.54376 150.78825 342.1219Q150.22575 341.6844 149.36638 341.6844Q148.382 341.6844 147.71013 342.16876Q147.05388 342.6375 146.77263 343.4344Q146.507 344.23126 146.507 345.09064Q146.507 346.1844 146.8195 346.9969Q147.14763 347.8094 147.8195 348.21564Q148.49138 348.6219 149.28825 348.6219Q150.24138 348.6219 150.89763 348.075Q151.5695 347.52814 151.80388 346.4344ZM161.21013 349.45L160.16325 349.45L160.16325 342.73126Q159.77263 343.09064 159.14763 343.46564Q158.53825 343.825 158.05388 343.9969L158.05388 342.98126Q158.92888 342.5594 159.58513 341.98126Q160.257 341.3875 160.53825 340.825L161.21013 340.825L161.21013 349.45ZM164.83513 349.45L164.83513 348.2469L166.03825 348.2469L166.03825 349.45L164.83513 349.45ZM167.24138 345.21564Q167.24138 343.6844 167.55388 342.7625Q167.86638 341.825 168.47575 341.325Q169.10075 340.825 170.03825 340.825Q170.72575 340.825 171.24138 341.10626Q171.77263 341.3875 172.11638 341.91876Q172.46013 342.4344 172.64763 343.1844Q172.83513 343.9344 172.83513 345.21564Q172.83513 346.73126 172.52263 347.65314Q172.22575 348.575 171.60075 349.09064Q170.99138 349.59064 170.03825 349.59064Q168.80388 349.59064 168.08513 348.7Q167.24138 347.6375 167.24138 345.21564ZM168.3195 345.21564Q168.3195 347.325 168.8195 348.02814Q169.3195 348.73126 170.03825 348.73126Q170.77263 348.73126 171.257 348.02814Q171.757 347.325 171.757 345.21564Q171.757 343.09064 171.257 342.40314Q170.77263 341.7 170.02263 341.7Q169.30388 341.7 168.86638 342.3094Q168.3195 343.09064 168.3195 345.21564ZM174.83513 349.45L174.83513 348.2469L176.03825 348.2469L176.03825 349.45L174.83513 349.45ZM177.24138 345.21564Q177.24138 343.6844 177.55388 342.7625Q177.86638 341.825 178.47575 341.325Q179.10075 340.825 180.03825 340.825Q180.72575 340.825 181.24138 341.10626Q181.77263 341.3875 182.11638 341.91876Q182.46013 342.4344 182.64763 343.1844Q182.83513 343.9344 182.83513 345.21564Q182.83513 346.73126 182.52263 347.65314Q182.22575 348.575 181.60075 349.09064Q180.99138 349.59064 180.03825 349.59064Q178.80388 349.59064 178.08513 348.7Q177.24138 347.6375 177.24138 345.21564ZM178.3195 345.21564Q178.3195 347.325 178.8195 348.02814Q179.3195 348.73126 180.03825 348.73126Q180.77263 348.73126 181.257 348.02814Q181.757 347.325 181.757 345.21564Q181.757 343.09064 181.257 342.40314Q180.77263 341.7 180.02263 341.7Q179.30388 341.7 178.86638 342.3094Q178.3195 343.09064 178.3195 345.21564Z" fill-rule="nonzero"/><path fill="#000000" d="M241.00233 349.45L241.00233 340.85626L243.97108 340.85626Q244.97108 340.85626 245.50233 340.98126Q246.23671 341.15314 246.75233 341.59064Q247.43983 342.16876 247.76796 343.075Q248.11171 343.96564 248.11171 345.10626Q248.11171 346.09064 247.87733 346.84064Q247.65858 347.59064 247.29921 348.09064Q246.93983 348.59064 246.50233 348.8719Q246.08046 349.15314 245.48671 349.3094Q244.89296 349.45 244.11171 349.45L241.00233 349.45ZM242.14296 348.4344L243.97108 348.4344Q244.83046 348.4344 245.31483 348.27814Q245.79921 348.1219 246.08046 347.825Q246.48671 347.4344 246.70546 346.7469Q246.93983 346.0594 246.93983 345.09064Q246.93983 343.7469 246.48671 343.02814Q246.04921 342.29376 245.42421 342.04376Q244.95546 341.8719 243.95546 341.8719L242.14296 341.8719L242.14296 348.4344ZM252.45546 349.45L249.12733 340.85626L250.36171 340.85626L252.59608 347.10626Q252.86171 347.85626 253.04921 348.5125Q253.25233 347.8094 253.51796 347.10626L255.83046 340.85626L256.9867 340.85626L253.62733 349.45L252.45546 349.45ZM264.14294 346.4344L265.26794 346.73126Q264.90857 348.1219 263.9867 348.85626Q263.06482 349.59064 261.72107 349.59064Q260.33044 349.59064 259.45544 349.02814Q258.58044 348.46564 258.12732 347.40314Q257.6742 346.325 257.6742 345.09064Q257.6742 343.7469 258.18982 342.7469Q258.70544 341.7469 259.64294 341.23126Q260.59607 340.71564 261.7367 340.71564Q263.01794 340.71564 263.89294 341.3719Q264.78357 342.02814 265.12732 343.21564L264.00232 343.48126Q263.70544 342.54376 263.12732 342.1219Q262.56482 341.6844 261.70544 341.6844Q260.72107 341.6844 260.0492 342.16876Q259.39294 342.6375 259.1117 343.4344Q258.84607 344.23126 258.84607 345.09064Q258.84607 346.1844 259.15857 346.9969Q259.4867 347.8094 260.15857 348.21564Q260.83044 348.6219 261.62732 348.6219Q262.58044 348.6219 263.2367 348.075Q263.90857 347.52814 264.14294 346.4344ZM269.58044 345.21564Q269.58044 343.6844 269.89294 342.7625Q270.20544 341.825 270.81482 341.325Q271.43982 340.825 272.37732 340.825Q273.06482 340.825 273.58044 341.10626Q274.1117 341.3875 274.45544 341.91876Q274.7992 342.4344 274.9867 343.1844Q275.1742 343.9344 275.1742 345.21564Q275.1742 346.73126 274.8617 347.65314Q274.56482 348.575 273.93982 349.09064Q273.33044 349.59064 272.37732 349.59064Q271.14294 349.59064 270.4242 348.7Q269.58044 347.6375 269.58044 345.21564ZM270.65857 345.21564Q270.65857 347.325 271.15857 348.02814Q271.65857 348.73126 272.37732 348.73126Q273.1117 348.73126 273.59607 348.02814Q274.09607 347.325 274.09607 345.21564Q274.09607 343.09064 273.59607 342.40314Q273.1117 341.7 272.3617 341.7Q271.64294 341.7 271.20544 342.3094Q270.65857 343.09064 270.65857 345.21564ZM277.1742 349.45L277.1742 348.2469L278.37732 348.2469L278.37732 349.45L277.1742 349.45ZM279.7367 347.46564L280.75232 347.3719Q280.87732 348.09064 281.2367 348.41876Q281.6117 348.73126 282.1742 348.73126Q282.65857 348.73126 283.01794 348.5125Q283.39294 348.27814 283.62732 347.91876Q283.8617 347.54376 284.01794 346.91876Q284.1742 346.27814 284.1742 345.6219Q284.1742 345.54376 284.1742 345.40314Q283.8617 345.90314 283.31482 346.23126Q282.76794 346.54376 282.12732 346.54376Q281.0492 346.54376 280.31482 345.77814Q279.58044 344.9969 279.58044 343.73126Q279.58044 342.41876 280.34607 341.6219Q281.12732 340.825 282.28357 340.825Q283.1117 340.825 283.7992 341.27814Q284.50232 341.73126 284.8617 342.575Q285.22107 343.40314 285.22107 344.98126Q285.22107 346.6219 284.8617 347.60626Q284.51794 348.575 283.7992 349.09064Q283.09607 349.59064 282.15857 349.59064Q281.14294 349.59064 280.50232 349.04376Q279.8617 348.48126 279.7367 347.46564ZM284.0492 343.66876Q284.0492 342.7625 283.56482 342.23126Q283.09607 341.7 282.40857 341.7Q281.70544 341.7 281.1742 342.27814Q280.65857 342.84064 280.65857 343.7625Q280.65857 344.575 281.15857 345.09064Q281.65857 345.60626 282.37732 345.60626Q283.1117 345.60626 283.58044 345.09064Q284.0492 344.575 284.0492 343.66876ZM290.5492 349.45L289.50232 349.45L289.50232 342.73126Q289.1117 343.09064 288.4867 343.46564Q287.87732 343.825 287.39294 343.9969L287.39294 342.98126Q288.26794 342.5594 288.9242 341.98126Q289.59607 341.3875 289.87732 340.825L290.5492 340.825L290.5492 349.45ZM294.1742 349.45L294.1742 348.2469L295.37732 348.2469L295.37732 349.45L294.1742 349.45ZM296.58044 345.21564Q296.58044 343.6844 296.89294 342.7625Q297.20544 341.825 297.81482 341.325Q298.43982 340.825 299.37732 340.825Q300.06482 340.825 300.58044 341.10626Q301.1117 341.3875 301.45544 341.91876Q301.7992 342.4344 301.9867 343.1844Q302.1742 343.9344 302.1742 345.21564Q302.1742 346.73126 301.8617 347.65314Q301.56482 348.575 300.93982 349.09064Q300.33044 349.59064 299.37732 349.59064Q298.14294 349.59064 297.4242 348.7Q296.58044 347.6375 296.58044 345.21564ZM297.65857 345.21564Q297.65857 347.325 298.15857 348.02814Q298.65857 348.73126 299.37732 348.73126Q300.1117 348.73126 300.59607 348.02814Q301.09607 347.325 301.09607 345.21564Q301.09607 343.09064 300.59607 342.40314Q300.1117 341.7 299.3617 341.7Q298.64294 341.7 298.20544 342.3094Q297.65857 343.09064 297.65857 345.21564Z" fill-rule="nonzero"/><path fill="#000000" d="M371.20078 349.45L371.20078 343.23126L372.1539 343.23126L372.1539 344.16876Q372.51328 343.5125 372.81015 343.3094Q373.12265 343.09064 373.49765 343.09064Q374.0289 343.09064 374.57578 343.41876L374.2164 344.40314Q373.82578 344.16876 373.45078 344.16876Q373.0914 344.16876 372.81015 344.3875Q372.54453 344.59064 372.43515 344.96564Q372.24765 345.52814 372.24765 346.1844L372.24765 349.45L371.20078 349.45ZM379.2789 347.16876L380.31015 347.3094Q380.13828 348.3719 379.43515 348.98126Q378.73203 349.59064 377.7164 349.59064Q376.43515 349.59064 375.6539 348.7625Q374.88828 347.91876 374.88828 346.35626Q374.88828 345.35626 375.2164 344.60626Q375.56015 343.84064 376.23203 343.46564Q376.91953 343.09064 377.73203 343.09064Q378.73203 343.09064 379.37265 343.60626Q380.0289 344.10626 380.2164 345.0594L379.18515 345.21564Q379.04453 344.59064 378.66953 344.27814Q378.29453 343.95 377.76328 343.95Q376.9664 343.95 376.4664 344.52814Q375.9664 345.09064 375.9664 346.325Q375.9664 347.59064 376.45078 348.15314Q376.93515 348.71564 377.70078 348.71564Q378.32578 348.71564 378.73203 348.34064Q379.1539 347.96564 379.2789 347.16876ZM381.18515 349.45L381.18515 340.85626L382.24765 340.85626L382.24765 349.45L381.18515 349.45ZM383.82578 346.34064Q383.82578 344.60626 384.7789 343.77814Q385.57578 343.09064 386.73203 343.09064Q388.01328 343.09064 388.82578 343.9344Q389.6539 344.7625 389.6539 346.2469Q389.6539 347.45 389.29453 348.1375Q388.93515 348.825 388.23203 349.21564Q387.54453 349.59064 386.73203 349.59064Q385.43515 349.59064 384.62265 348.7625Q383.82578 347.91876 383.82578 346.34064ZM384.9039 346.34064Q384.9039 347.52814 385.41953 348.1219Q385.95078 348.71564 386.73203 348.71564Q387.5289 348.71564 388.04453 348.1219Q388.56015 347.52814 388.56015 346.3094Q388.56015 345.15314 388.0289 344.5594Q387.51328 343.96564 386.73203 343.96564Q385.95078 343.96564 385.41953 344.5594Q384.9039 345.1375 384.9039 346.34064ZM391.2164 349.45L391.2164 343.23126L392.1539 343.23126L392.1539 344.10626Q392.8414 343.09064 394.13828 343.09064Q394.70078 343.09064 395.16953 343.29376Q395.6539 343.4969 395.88828 343.825Q396.12265 344.15314 396.2164 344.59064Q396.26328 344.8875 396.26328 345.6219L396.26328 349.45L395.2164 349.45L395.2164 345.66876Q395.2164 345.0125 395.0914 344.7Q394.9664 344.3875 394.6539 344.2Q394.3414 343.9969 393.91953 343.9969Q393.24765 343.9969 392.74765 344.4344Q392.26328 344.85626 392.26328 346.04376L392.26328 349.45L391.2164 349.45ZM402.4664 347.45L403.56015 347.575Q403.31015 348.52814 402.60703 349.0594Q401.9039 349.59064 400.82578 349.59064Q399.4664 349.59064 398.6539 348.7469Q397.85703 347.90314 397.85703 346.3875Q397.85703 344.825 398.66953 343.96564Q399.48203 343.09064 400.76328 343.09064Q402.01328 343.09064 402.79453 343.9344Q403.5914 344.77814 403.5914 346.325Q403.5914 346.41876 403.5914 346.60626L398.95078 346.60626Q399.01328 347.6375 399.5289 348.1844Q400.04453 348.71564 400.82578 348.71564Q401.4039 348.71564 401.81015 348.41876Q402.23203 348.10626 402.4664 347.45ZM399.01328 345.7469L402.48203 345.7469Q402.41953 344.95 402.0914 344.5594Q401.57578 343.95 400.7789 343.95Q400.04453 343.95 399.54453 344.4344Q399.06015 344.91876 399.01328 345.7469Z" fill-rule="nonzero"/><path fill="#000000" d="M446.53986 349.45L446.53986 343.23126L447.49298 343.23126L447.49298 344.16876Q447.85236 343.5125 448.14923 343.3094Q448.46173 343.09064 448.83673 343.09064Q449.36798 343.09064 449.91486 343.41876L449.55548 344.40314Q449.16486 344.16876 448.78986 344.16876Q448.43048 344.16876 448.14923 344.3875Q447.8836 344.59064 447.77423 344.96564Q447.58673 345.52814 447.58673 346.1844L447.58673 349.45L446.53986 349.45ZM454.61798 347.16876L455.64923 347.3094Q455.47736 348.3719 454.77423 348.98126Q454.0711 349.59064 453.05548 349.59064Q451.77423 349.59064 450.99298 348.7625Q450.22736 347.91876 450.22736 346.35626Q450.22736 345.35626 450.55548 344.60626Q450.89923 343.84064 451.5711 343.46564Q452.2586 343.09064 453.0711 343.09064Q454.0711 343.09064 454.71173 343.60626Q455.36798 344.10626 455.55548 345.0594L454.52423 345.21564Q454.3836 344.59064 454.0086 344.27814Q453.6336 343.95 453.10236 343.95Q452.30548 343.95 451.80548 344.52814Q451.30548 345.09064 451.30548 346.325Q451.30548 347.59064 451.78986 348.15314Q452.27423 348.71564 453.03986 348.71564Q453.66486 348.71564 454.0711 348.34064Q454.49298 347.96564 454.61798 347.16876ZM456.52423 349.45L456.52423 340.85626L457.58673 340.85626L457.58673 349.45L456.52423 349.45ZM459.16486 346.34064Q459.16486 344.60626 460.11798 343.77814Q460.91486 343.09064 462.0711 343.09064Q463.35236 343.09064 464.16486 343.9344Q464.99298 344.7625 464.99298 346.2469Q464.99298 347.45 464.6336 348.1375Q464.27423 348.825 463.5711 349.21564Q462.8836 349.59064 462.0711 349.59064Q460.77423 349.59064 459.96173 348.7625Q459.16486 347.91876 459.16486 346.34064ZM460.24298 346.34064Q460.24298 347.52814 460.7586 348.1219Q461.28986 348.71564 462.0711 348.71564Q462.86798 348.71564 463.3836 348.1219Q463.89923 347.52814 463.89923 346.3094Q463.89923 345.15314 463.36798 344.5594Q462.85236 343.96564 462.0711 343.96564Q461.28986 343.96564 460.7586 344.5594Q460.24298 345.1375 460.24298 346.34064ZM466.55548 349.45L466.55548 343.23126L467.49298 343.23126L467.49298 344.10626Q468.18048 343.09064 469.47736 343.09064Q470.03986 343.09064 470.5086 343.29376Q470.99298 343.4969 471.22736 343.825Q471.46173 344.15314 471.55548 344.59064Q471.60236 344.8875 471.60236 345.6219L471.60236 349.45L470.55548 349.45L470.55548 345.66876Q470.55548 345.0125 470.43048 344.7Q470.30548 344.3875 469.99298 344.2Q469.68048 343.9969 469.2586 343.9969Q468.58673 343.9969 468.08673 344.4344Q467.60236 344.85626 467.60236 346.04376L467.60236 349.45L466.55548 349.45ZM477.80548 347.45L478.89923 347.575Q478.64923 348.52814 477.9461 349.0594Q477.24298 349.59064 476.16486 349.59064Q474.80548 349.59064 473.99298 348.7469Q473.1961 347.90314 473.1961 346.3875Q473.1961 344.825 474.0086 343.96564Q474.8211 343.09064 476.10236 343.09064Q477.35236 343.09064 478.1336 343.9344Q478.93048 344.77814 478.93048 346.325Q478.93048 346.41876 478.93048 346.60626L474.28986 346.60626Q474.35236 347.6375 474.86798 348.1844Q475.3836 348.71564 476.16486 348.71564Q476.74298 348.71564 477.14923 348.41876Q477.5711 348.10626 477.80548 347.45ZM474.35236 345.7469L477.8211 345.7469Q477.7586 344.95 477.43048 344.5594Q476.91486 343.95 476.11798 343.95Q475.3836 343.95 474.8836 344.4344Q474.39923 344.91876 474.35236 345.7469ZM485.5711 351.98126Q484.6961 350.8719 484.08673 349.40314Q483.49298 347.91876 483.49298 346.34064Q483.49298 344.95 483.93048 343.66876Q484.46173 342.1844 485.5711 340.71564L486.3211 340.71564Q485.61798 341.9344 485.3836 342.45Q485.02423 343.2625 484.8211 344.1375Q484.5711 345.23126 484.5711 346.34064Q484.5711 349.16876 486.3211 351.98126L485.5711 351.98126ZM487.1336 346.8719L487.1336 345.8094L490.3836 345.8094L490.3836 346.8719L487.1336 346.8719ZM491.1336 346.8719L491.1336 345.8094L494.3836 345.8094L494.3836 346.8719L491.1336 346.8719ZM495.55548 349.45L495.55548 343.23126L496.49298 343.23126L496.49298 344.10626Q497.18048 343.09064 498.47736 343.09064Q499.03986 343.09064 499.5086 343.29376Q499.99298 343.4969 500.22736 343.825Q500.46173 344.15314 500.55548 344.59064Q500.60236 344.8875 500.60236 345.6219L500.60236 349.45L499.55548 349.45L499.55548 345.66876Q499.55548 345.0125 499.43048 344.7Q499.30548 344.3875 498.99298 344.2Q498.68048 343.9969 498.2586 343.9969Q497.58673 343.9969 497.08673 344.4344Q496.60236 344.85626 496.60236 346.04376L496.60236 349.45L495.55548 349.45ZM502.16486 346.34064Q502.16486 344.60626 503.11798 343.77814Q503.91486 343.09064 505.0711 343.09064Q506.35236 343.09064 507.16486 343.9344Q507.99298 344.7625 507.99298 346.2469Q507.99298 347.45 507.6336 348.1375Q507.27423 348.825 506.5711 349.21564Q505.8836 349.59064 505.0711 349.59064Q503.77423 349.59064 502.96173 348.7625Q502.16486 347.91876 502.16486 346.34064ZM503.24298 346.34064Q503.24298 347.52814 503.7586 348.1219Q504.28986 348.71564 505.0711 348.71564Q505.86798 348.71564 506.3836 348.1219Q506.89923 347.52814 506.89923 346.3094Q506.89923 345.15314 506.36798 344.5594Q505.85236 343.96564 505.0711 343.96564Q504.28986 343.96564 503.7586 344.5594Q503.24298 345.1375 503.24298 346.34064ZM509.1336 346.8719L509.1336 345.8094L512.3836 345.8094L512.3836 346.8719L509.1336 346.8719ZM515.85236 348.5125L516.0086 349.4344Q515.5555 349.52814 515.21173 349.52814Q514.6336 349.52814 514.3211 349.35626Q514.0086 349.16876 513.868 348.8719Q513.743 348.575 513.743 347.6219L513.743 344.04376L512.97736 344.04376L512.97736 343.23126L513.743 343.23126L513.743 341.6844L514.78986 341.0594L514.78986 343.23126L515.85236 343.23126L515.85236 344.04376L514.78986 344.04376L514.78986 347.6844Q514.78986 348.1375 514.83673 348.2625Q514.89923 348.3875 515.02423 348.46564Q515.14923 348.54376 515.3836 348.54376Q515.5711 348.54376 515.85236 348.5125ZM516.53986 349.45L516.53986 343.23126L517.493 343.23126L517.493 344.16876Q517.85236 343.5125 518.14923 343.3094Q518.46173 343.09064 518.83673 343.09064Q519.368 343.09064 519.91486 343.41876L519.5555 344.40314Q519.16486 344.16876 518.78986 344.16876Q518.4305 344.16876 518.14923 344.3875Q517.8836 344.59064 517.77423 344.96564Q517.58673 345.52814 517.58673 346.1844L517.58673 349.45L516.53986 349.45ZM524.618 348.6844Q524.02423 349.1844 523.47736 349.3875Q522.9461 349.59064 522.3211 349.59064Q521.28986 349.59064 520.743 349.09064Q520.1961 348.59064 520.1961 347.8094Q520.1961 347.35626 520.39923 346.98126Q520.60236 346.59064 520.9461 346.3719Q521.28986 346.1375 521.71173 346.02814Q522.0086 345.9344 522.64923 345.85626Q523.91486 345.71564 524.52423 345.4969Q524.52423 345.27814 524.52423 345.23126Q524.52423 344.575 524.22736 344.3094Q523.8211 343.96564 523.02423 343.96564Q522.28986 343.96564 521.9305 344.23126Q521.5711 344.48126 521.39923 345.1375L520.368 344.9969Q520.5086 344.34064 520.83673 343.9344Q521.16486 343.52814 521.77423 343.3094Q522.3836 343.09064 523.1805 343.09064Q523.97736 343.09064 524.47736 343.27814Q524.97736 343.46564 525.21173 343.7469Q525.4461 344.02814 525.53986 344.46564Q525.58673 344.73126 525.58673 345.4344L525.58673 346.84064Q525.58673 348.3094 525.64923 348.7Q525.72736 349.09064 525.9305 349.45L524.8211 349.45Q524.66486 349.1219 524.618 348.6844ZM524.52423 346.325Q523.9461 346.5594 522.8055 346.73126Q522.14923 346.825 521.8836 346.95Q521.618 347.0594 521.46173 347.27814Q521.3211 347.4969 521.3211 347.77814Q521.3211 348.2 521.6336 348.48126Q521.96173 348.7625 522.5711 348.7625Q523.1805 348.7625 523.64923 348.4969Q524.1336 348.23126 524.35236 347.7625Q524.52423 347.40314 524.52423 346.71564L524.52423 346.325ZM529.27423 349.45L526.91486 343.23126L528.02423 343.23126L529.368 346.95Q529.5711 347.5594 529.7586 348.2Q529.89923 347.71564 530.14923 347.02814L531.53986 343.23126L532.618 343.23126L530.2586 349.45L529.27423 349.45ZM537.8055 347.45L538.89923 347.575Q538.64923 348.52814 537.9461 349.0594Q537.243 349.59064 536.16486 349.59064Q534.8055 349.59064 533.993 348.7469Q533.1961 347.90314 533.1961 346.3875Q533.1961 344.825 534.0086 343.96564Q534.8211 343.09064 536.10236 343.09064Q537.35236 343.09064 538.1336 343.9344Q538.9305 344.77814 538.9305 346.325Q538.9305 346.41876 538.9305 346.60626L534.28986 346.60626Q534.35236 347.6375 534.868 348.1844Q535.3836 348.71564 536.16486 348.71564Q536.743 348.71564 537.14923 348.41876Q537.5711 348.10626 537.8055 347.45ZM534.35236 345.7469L537.8211 345.7469Q537.7586 344.95 537.4305 344.5594Q536.91486 343.95 536.118 343.95Q535.3836 343.95 534.8836 344.4344Q534.39923 344.91876 534.35236 345.7469ZM540.53986 349.45L540.53986 343.23126L541.493 343.23126L541.493 344.16876Q541.85236 343.5125 542.14923 343.3094Q542.46173 343.09064 542.83673 343.09064Q543.368 343.09064 543.91486 343.41876L543.5555 344.40314Q543.16486 344.16876 542.78986 344.16876Q542.4305 344.16876 542.14923 344.3875Q541.8836 344.59064 541.77423 344.96564Q541.58673 345.52814 541.58673 346.1844L541.58673 349.45L540.53986 349.45ZM544.1336 347.59064L545.16486 347.4344Q545.2586 348.0594 545.64923 348.3875Q546.0555 348.71564 546.78986 348.71564Q547.5086 348.71564 547.85236 348.4344Q548.21173 348.1375 548.21173 347.73126Q548.21173 347.3719 547.89923 347.16876Q547.6805 347.02814 546.8211 346.8094Q545.66486 346.5125 545.21173 346.3094Q544.77423 346.09064 544.53986 345.71564Q544.3055 345.34064 544.3055 344.8719Q544.3055 344.46564 544.493 344.10626Q544.6805 343.7469 545.0086 343.5125Q545.2586 343.34064 545.6805 343.21564Q546.10236 343.09064 546.60236 343.09064Q547.3211 343.09064 547.868 343.3094Q548.4305 343.5125 548.6961 343.8719Q548.96173 344.23126 549.0555 344.825L548.02423 344.96564Q547.96173 344.4969 547.618 344.23126Q547.28986 343.95 546.66486 343.95Q545.9461 343.95 545.6336 344.2Q545.3211 344.4344 545.3211 344.7625Q545.3211 344.96564 545.4461 345.1219Q545.58673 345.29376 545.85236 345.40314Q546.0086 345.46564 546.78986 345.66876Q547.91486 345.98126 548.35236 346.16876Q548.78986 346.35626 549.03986 346.71564Q549.28986 347.075 549.28986 347.6219Q549.28986 348.15314 548.97736 348.6219Q548.6805 349.075 548.10236 349.34064Q547.52423 349.59064 546.78986 349.59064Q545.5711 349.59064 544.9305 349.09064Q544.3055 348.575 544.1336 347.59064ZM554.8055 347.45L555.89923 347.575Q555.64923 348.52814 554.9461 349.0594Q554.243 349.59064 553.16486 349.59064Q551.8055 349.59064 550.993 348.7469Q550.1961 347.90314 550.1961 346.3875Q550.1961 344.825 551.0086 343.96564Q551.8211 343.09064 553.10236 343.09064Q554.35236 343.09064 555.1336 343.9344Q555.9305 344.77814 555.9305 346.325Q555.9305 346.41876 555.9305 346.60626L551.28986 346.60626Q551.35236 347.6375 551.868 348.1844Q552.3836 348.71564 553.16486 348.71564Q553.743 348.71564 554.14923 348.41876Q554.5711 348.10626 554.8055 347.45ZM551.35236 345.7469L554.8211 345.7469Q554.7586 344.95 554.4305 344.5594Q553.91486 343.95 553.118 343.95Q552.3836 343.95 551.8836 344.4344Q551.39923 344.91876 551.35236 345.7469ZM558.243 351.98126L557.493 351.98126Q559.243 349.16876 559.243 346.34064Q559.243 345.2469 558.993 344.15314Q558.78986 343.27814 558.4305 342.46564Q558.1961 341.95 557.493 340.71564L558.243 340.71564Q559.33673 342.1844 559.868 343.66876Q560.3211 344.95 560.3211 346.34064Q560.3211 347.91876 559.71173 349.40314Q559.10236 350.8719 558.243 351.98126Z" fill-rule="nonzero"/><path fill="#757575" d="M20.01875 37.55L20.01875 23.2375L21.909374 23.2375L21.909374 35.8625L28.95625 35.8625L28.95625 37.55L20.01875 37.55ZM30.221874 32.3625Q30.221874 29.4875 31.815624 28.096874Q33.159374 26.940624 35.08125 26.940624Q37.221874 26.940624 38.565624 28.346874Q39.925 29.753124 39.925 32.221874Q39.925 34.221874 39.33125 35.378124Q38.7375 36.51875 37.58125 37.159374Q36.440624 37.784374 35.08125 37.784374Q32.89375 37.784374 31.55 36.39375Q30.221874 34.9875 30.221874 32.3625ZM32.01875 32.3625Q32.01875 34.3625 32.878124 35.346874Q33.753124 36.33125 35.08125 36.33125Q36.39375 36.33125 37.253124 35.346874Q38.128124 34.346874 38.128124 32.3Q38.128124 30.378124 37.253124 29.39375Q36.378124 28.39375 35.08125 28.39375Q33.753124 28.39375 32.878124 29.39375Q32.01875 30.378124 32.01875 32.3625ZM48.64375 33.753124L50.3625 33.971874Q50.08125 35.76875 48.909374 36.784374Q47.753124 37.784374 46.05 37.784374Q43.925 37.784374 42.628124 36.39375Q41.33125 35.003124 41.33125 32.409374Q41.33125 30.721874 41.878124 29.471874Q42.440624 28.20625 43.58125 27.58125Q44.721874 26.940624 46.065624 26.940624Q47.753124 26.940624 48.815624 27.8Q49.89375 28.659374 50.20625 30.221874L48.4875 30.4875Q48.253124 29.440624 47.628124 28.925Q47.003124 28.39375 46.128124 28.39375Q44.8 28.39375 43.971874 29.346874Q43.14375 30.3 43.14375 32.346874Q43.14375 34.440624 43.940624 35.39375Q44.7375 36.33125 46.034374 36.33125Q47.065624 36.33125 47.753124 35.70625Q48.45625 35.065624 48.64375 33.753124ZM58.64375 36.26875Q57.659374 37.096874 56.753124 37.440624Q55.846874 37.784374 54.815624 37.784374Q53.1125 37.784374 52.190624 36.95625Q51.26875 36.1125 51.26875 34.815624Q51.26875 34.05 51.6125 33.425Q51.971874 32.8 52.534374 32.425Q53.096874 32.034374 53.8 31.83125Q54.315624 31.70625 55.3625 31.565624Q57.4875 31.315624 58.4875 30.971874Q58.503124 30.6125 58.503124 30.503124Q58.503124 29.440624 58.003124 28.9875Q57.33125 28.39375 56.003124 28.39375Q54.753124 28.39375 54.159374 28.83125Q53.58125 29.26875 53.3 30.378124L51.58125 30.14375Q51.815624 29.034374 52.346874 28.3625Q52.878124 27.675 53.89375 27.315624Q54.909374 26.940624 56.253124 26.940624Q57.58125 26.940624 58.409374 27.253124Q59.2375 27.565624 59.628124 28.05Q60.01875 28.51875 60.175 29.2375Q60.26875 29.690624 60.26875 30.8625L60.26875 33.20625Q60.26875 35.659374 60.378124 36.315624Q60.4875 36.95625 60.83125 37.55L58.9875 37.55Q58.721874 37.003124 58.64375 36.26875ZM58.4875 32.346874Q57.534374 32.7375 55.6125 33.003124Q54.534374 33.159374 54.08125 33.3625Q53.64375 33.55 53.39375 33.925Q53.14375 34.3 53.14375 34.76875Q53.14375 35.471874 53.675 35.940624Q54.20625 36.409374 55.2375 36.409374Q56.253124 36.409374 57.034374 35.971874Q57.83125 35.51875 58.20625 34.753124Q58.4875 34.14375 58.4875 32.9875L58.4875 32.346874ZM62.83125 37.55L62.83125 23.2375L64.58125 23.2375L64.58125 37.55L62.83125 37.55ZM79.59688 37.55L79.59688 36.2375Q78.6125 37.784374 76.69063 37.784374Q75.45625 37.784374 74.40938 37.096874Q73.37813 36.409374 72.8 35.190624Q72.2375 33.971874 72.2375 32.378124Q72.2375 30.815624 72.75313 29.55Q73.26875 28.284374 74.3 27.6125Q75.34688 26.940624 76.6125 26.940624Q77.55 26.940624 78.28438 27.346874Q79.01875 27.7375 79.4875 28.3625L79.4875 23.2375L81.22188 23.2375L81.22188 37.55L79.59688 37.55ZM74.03438 32.378124Q74.03438 34.3625 74.87813 35.346874Q75.72188 36.33125 76.8625 36.33125Q78.01875 36.33125 78.81563 35.39375Q79.62813 34.45625 79.62813 32.51875Q79.62813 30.39375 78.8 29.39375Q77.9875 28.39375 76.78438 28.39375Q75.6125 28.39375 74.81563 29.3625Q74.03438 30.315624 74.03438 32.378124ZM83.87813 25.253124L83.87813 23.2375L85.64375 23.2375L85.64375 25.253124L83.87813 25.253124ZM83.87813 37.55L83.87813 27.175L85.64375 27.175L85.64375 37.55L83.87813 37.55ZM87.84688 37.55L87.84688 27.175L89.425 27.175L89.425 28.753124Q90.03438 27.64375 90.55 27.3Q91.06563 26.940624 91.675 26.940624Q92.56563 26.940624 93.4875 27.503124L92.87813 29.14375Q92.2375 28.753124 91.59688 28.753124Q91.01875 28.753124 90.55 29.1125Q90.09688 29.45625 89.89375 30.065624Q89.6125 31.003124 89.6125 32.1125L89.6125 37.55L87.84688 37.55ZM101.97188 34.20625L103.78438 34.440624Q103.3625 36.01875 102.19063 36.909374Q101.03438 37.784374 99.22188 37.784374Q96.95625 37.784374 95.6125 36.39375Q94.28438 34.9875 94.28438 32.45625Q94.28438 29.83125 95.62813 28.39375Q96.97188 26.940624 99.12813 26.940624Q101.20625 26.940624 102.51875 28.3625Q103.84688 29.76875 103.84688 32.346874Q103.84688 32.503124 103.83125 32.815624L96.09688 32.815624Q96.19063 34.51875 97.06563 35.425Q97.94063 36.33125 99.2375 36.33125Q100.20625 36.33125 100.87813 35.83125Q101.56563 35.315624 101.97188 34.20625ZM96.19063 31.3625L101.9875 31.3625Q101.87813 30.065624 101.33125 29.409374Q100.4875 28.39375 99.14375 28.39375Q97.94063 28.39375 97.1125 29.20625Q96.28438 30.003124 96.19063 31.3625ZM112.64375 33.753124L114.3625 33.971874Q114.08125 35.76875 112.90938 36.784374Q111.75313 37.784374 110.05 37.784374Q107.925 37.784374 106.62813 36.39375Q105.33125 35.003124 105.33125 32.409374Q105.33125 30.721874 105.87813 29.471874Q106.44063 28.20625 107.58125 27.58125Q108.72188 26.940624 110.06563 26.940624Q111.75313 26.940624 112.81563 27.8Q113.89375 28.659374 114.20625 30.221874L112.4875 30.4875Q112.25313 29.440624 111.62813 28.925Q111.00313 28.39375 110.12813 28.39375Q108.8 28.39375 107.97188 29.346874Q107.14375 30.3 107.14375 32.346874Q107.14375 34.440624 107.94063 35.39375Q108.7375 36.33125 110.03438 36.33125Q111.06563 36.33125 111.75313 35.70625Q112.45625 35.065624 112.64375 33.753124ZM119.70625 35.971874L119.95625 37.534374Q119.22188 37.690624 118.62813 37.690624Q117.675 37.690624 117.14375 37.39375Q116.62813 37.08125 116.40938 36.596874Q116.19063 36.096874 116.19063 34.51875L116.19063 28.55L114.90938 28.55L114.90938 27.175L116.19063 27.175L116.19063 24.6125L117.94063 23.55L117.94063 27.175L119.70625 27.175L119.70625 28.55L117.94063 28.55L117.94063 34.6125Q117.94063 35.3625 118.03438 35.58125Q118.12813 35.784374 118.33125 35.925Q118.55 36.05 118.94063 36.05Q119.22188 36.05 119.70625 35.971874ZM121.22188 32.3625Q121.22188 29.4875 122.81563 28.096874Q124.15938 26.940624 126.08125 26.940624Q128.22188 26.940624 129.56563 28.346874Q130.925 29.753124 130.925 32.221874Q130.925 34.221874 130.33125 35.378124Q129.7375 36.51875 128.58125 37.159374Q127.44063 37.784374 126.08125 37.784374Q123.89375 37.784374 122.55 36.39375Q121.22188 34.9875 121.22188 32.3625ZM123.01875 32.3625Q123.01875 34.3625 123.87813 35.346874Q124.75313 36.33125 126.08125 36.33125Q127.39375 36.33125 128.25313 35.346874Q129.12813 34.346874 129.12813 32.3Q129.12813 30.378124 128.25313 29.39375Q127.37813 28.39375 126.08125 28.39375Q124.75313 28.39375 123.87813 29.39375Q123.01875 30.378124 123.01875 32.3625ZM132.84688 37.55L132.84688 27.175L134.425 27.175L134.425 28.753124Q135.03438 27.64375 135.55 27.3Q136.06563 26.940624 136.675 26.940624Q137.56563 26.940624 138.4875 27.503124L137.87813 29.14375Q137.2375 28.753124 136.59688 28.753124Q136.01875 28.753124 135.55 29.1125Q135.09688 29.45625 134.89375 30.065624Q134.6125 31.003124 134.6125 32.1125L134.6125 37.55L132.84688 37.55ZM139.78438 41.55L139.59688 39.89375Q140.175 40.05 140.59688 40.05Q141.19063 40.05 141.53438 39.846874Q141.89375 39.659374 142.1125 39.315624Q142.28438 39.05 142.65938 38.003124Q142.70625 37.846874 142.81563 37.565624L138.87813 27.175L140.76875 27.175L142.925 33.190624Q143.34688 34.33125 143.675 35.58125Q143.9875 34.378124 144.39375 33.221874L146.6125 27.175L148.37813 27.175L144.425 37.721874Q143.8 39.440624 143.44063 40.08125Q142.97188 40.95625 142.3625 41.346874Q141.76875 41.753124 140.925 41.753124Q140.40938 41.753124 139.78438 41.55ZM157.78438 37.55L154.6125 27.175L156.425 27.175L158.08125 33.159374L158.69063 35.39375Q158.7375 35.221874 159.22188 33.253124L160.87813 27.175L162.69063 27.175L164.2375 33.190624L164.75313 35.175L165.34688 33.175L167.12813 27.175L168.83125 27.175L165.59688 37.55L163.76875 37.55L162.1125 31.33125L161.72188 29.565624L159.6125 37.55L157.78438 37.55ZM168.55 37.8L172.70625 22.9875L174.1125 22.9875L169.97188 37.8L168.55 37.8ZM182.00313 37.55L180.2375 37.55L180.2375 26.346874Q179.6125 26.95625 178.58125 27.565624Q177.55 28.159374 176.72188 28.471874L176.72188 26.76875Q178.20625 26.08125 179.3 25.096874Q180.40938 24.096874 180.8625 23.175L182.00313 23.175L182.00313 37.55ZM187.03438 37.55L187.03438 23.2375L189.89375 23.2375L193.26875 33.3625Q193.7375 34.784374 193.95625 35.4875Q194.20625 34.70625 194.72188 33.190624L198.14375 23.2375L200.69063 23.2375L200.69063 37.55L198.87813 37.55L198.87813 25.565624L194.70625 37.55L193.00313 37.55L188.8625 25.3625L188.8625 37.55L187.03438 37.55ZM210.28438 37.55L210.28438 28.55L208.7375 28.55L208.7375 27.175L210.28438 27.175L210.28438 26.08125Q210.28438 25.034374 210.47188 24.51875Q210.72188 23.83125 211.3625 23.409374Q212.00313 22.9875 213.15938 22.9875Q213.90938 22.9875 214.8 23.159374L214.53438 24.690624Q213.9875 24.596874 213.50313 24.596874Q212.70625 24.596874 212.3625 24.940624Q212.03438 25.284374 212.03438 26.221874L212.03438 27.175L214.06563 27.175L214.06563 28.55L212.03438 28.55L212.03438 37.55L210.28438 37.55ZM215.87813 25.253124L215.87813 23.2375L217.64375 23.2375L217.64375 25.253124L215.87813 25.253124ZM215.87813 37.55L215.87813 27.175L217.64375 27.175L217.64375 37.55L215.87813 37.55ZM219.83125 37.55L219.83125 23.2375L221.58125 23.2375L221.58125 37.55L219.83125 37.55ZM230.97188 34.20625L232.78438 34.440624Q232.3625 36.01875 231.19063 36.909374Q230.03438 37.784374 228.22188 37.784374Q225.95625 37.784374 224.6125 36.39375Q223.28438 34.9875 223.28438 32.45625Q223.28438 29.83125 224.62813 28.39375Q225.97188 26.940624 228.12813 26.940624Q230.20625 26.940624 231.51875 28.3625Q232.84688 29.76875 232.84688 32.346874Q232.84688 32.503124 232.83125 32.815624L225.09688 32.815624Q225.19063 34.51875 226.06563 35.425Q226.94063 36.33125 228.2375 36.33125Q229.20625 36.33125 229.87813 35.83125Q230.56563 35.315624 230.97188 34.20625ZM225.19063 31.3625L230.9875 31.3625Q230.87813 30.065624 230.33125 29.409374Q229.4875 28.39375 228.14375 28.39375Q226.94063 28.39375 226.1125 29.20625Q225.28438 30.003124 225.19063 31.3625ZM234.15938 34.45625L235.90938 34.175Q236.05 35.221874 236.72188 35.784374Q237.39375 36.33125 238.59688 36.33125Q239.8 36.33125 240.37813 35.846874Q240.97188 35.346874 240.97188 34.690624Q240.97188 34.096874 240.45625 33.753124Q240.09688 33.51875 238.65938 33.159374Q236.72188 32.659374 235.97188 32.315624Q235.2375 31.95625 234.84688 31.33125Q234.45625 30.690624 234.45625 29.925Q234.45625 29.2375 234.76875 28.64375Q235.09688 28.05 235.64375 27.659374Q236.05 27.3625 236.75313 27.159374Q237.47188 26.940624 238.28438 26.940624Q239.50313 26.940624 240.425 27.3Q241.34688 27.64375 241.78438 28.253124Q242.22188 28.846874 242.39375 29.846874L240.675 30.08125Q240.55 29.284374 239.9875 28.846874Q239.425 28.39375 238.40938 28.39375Q237.19063 28.39375 236.675 28.8Q236.15938 29.190624 236.15938 29.721874Q236.15938 30.065624 236.37813 30.346874Q236.58125 30.628124 237.05 30.815624Q237.31563 30.909374 238.59688 31.253124Q240.47188 31.753124 241.20625 32.08125Q241.94063 32.39375 242.3625 33.003124Q242.78438 33.596874 242.78438 34.503124Q242.78438 35.378124 242.26875 36.159374Q241.75313 36.940624 240.78438 37.3625Q239.81563 37.784374 238.59688 37.784374Q236.58125 37.784374 235.51875 36.940624Q234.45625 36.096874 234.15938 34.45625ZM245.33125 37.55L245.33125 35.55L247.33125 35.55L247.33125 37.55Q247.33125 38.659374 246.94063 39.33125Q246.55 40.01875 245.70625 40.378124L245.20625 39.628124Q245.76875 39.39375 246.03438 38.909374Q246.3 38.440624 246.33125 37.55L245.33125 37.55ZM257.1281 37.55L257.1281 23.2375L267.4875 23.2375L267.4875 24.925L259.03436 24.925L259.03436 29.3L266.9406 29.3L266.9406 30.9875L259.03436 30.9875L259.03436 35.8625L267.8156 35.8625L267.8156 37.55L257.1281 37.55ZM269.8625 37.55L269.8625 27.175L271.4406 27.175L271.4406 28.628124Q271.925 27.878124 272.7375 27.409374Q273.55 26.940624 274.58124 26.940624Q275.7375 26.940624 276.47186 27.425Q277.20624 27.89375 277.51874 28.753124Q278.7531 26.940624 280.72186 26.940624Q282.26874 26.940624 283.09686 27.8Q283.925 28.659374 283.925 30.425L283.925 37.55L282.175 37.55L282.175 31.01875Q282.175 29.95625 282.0031 29.503124Q281.83124 29.034374 281.3781 28.753124Q280.9406 28.471874 280.33124 28.471874Q279.2375 28.471874 278.5031 29.20625Q277.78436 29.925 277.78436 31.51875L277.78436 37.55L276.03436 37.55L276.03436 30.815624Q276.03436 29.64375 275.59686 29.065624Q275.175 28.471874 274.1906 28.471874Q273.45624 28.471874 272.8156 28.8625Q272.1906 29.253124 271.90936 30.003124Q271.6281 30.753124 271.6281 32.175L271.6281 37.55L269.8625 37.55ZM286.8625 41.51875L286.8625 27.175L288.47186 27.175L288.47186 28.51875Q289.03436 27.7375 289.7375 27.346874Q290.45624 26.940624 291.47186 26.940624Q292.8 26.940624 293.8156 27.628124Q294.83124 28.315624 295.34686 29.565624Q295.8781 30.8 295.8781 32.284374Q295.8781 33.878124 295.3 35.159374Q294.7375 36.425 293.64374 37.1125Q292.55 37.784374 291.34686 37.784374Q290.47186 37.784374 289.76874 37.409374Q289.08124 37.034374 288.6281 36.471874L288.6281 41.51875L286.8625 41.51875ZM288.45624 32.425Q288.45624 34.425 289.26874 35.378124Q290.08124 36.33125 291.2375 36.33125Q292.40936 36.33125 293.2375 35.346874Q294.08124 34.3625 294.08124 32.26875Q294.08124 30.3 293.2531 29.315624Q292.4406 28.315624 291.3156 28.315624Q290.1906 28.315624 289.3156 29.378124Q288.45624 30.425 288.45624 32.425ZM301.70624 35.971874L301.95624 37.534374Q301.22186 37.690624 300.6281 37.690624Q299.675 37.690624 299.14374 37.39375Q298.6281 37.08125 298.40936 36.596874Q298.1906 36.096874 298.1906 34.51875L298.1906 28.55L296.90936 28.55L296.90936 27.175L298.1906 27.175L298.1906 24.6125L299.9406 23.55L299.9406 27.175L301.70624 27.175L301.70624 28.55L299.9406 28.55L299.9406 34.6125Q299.9406 35.3625 300.03436 35.58125Q300.1281 35.784374 300.33124 35.925Q300.55 36.05 300.9406 36.05Q301.22186 36.05 301.70624 35.971874ZM303.78436 41.55L303.59686 39.89375Q304.175 40.05 304.59686 40.05Q305.1906 40.05 305.53436 39.846874Q305.89374 39.659374 306.1125 39.315624Q306.28436 39.05 306.65936 38.003124Q306.70624 37.846874 306.8156 37.565624L302.8781 27.175L304.76874 27.175L306.925 33.190624Q307.34686 34.33125 307.675 35.58125Q307.9875 34.378124 308.39374 33.221874L310.6125 27.175L312.3781 27.175L308.425 37.721874Q307.8 39.440624 307.4406 40.08125Q306.97186 40.95625 306.3625 41.346874Q305.76874 41.753124 304.925 41.753124Q304.40936 41.753124 303.78436 41.55ZM319.45624 32.95625L321.2375 32.8Q321.3625 33.8625 321.8156 34.55Q322.28436 35.2375 323.2531 35.675Q324.2375 36.096874 325.47186 36.096874Q326.55 36.096874 327.3781 35.784374Q328.20624 35.45625 328.6125 34.89375Q329.01874 34.33125 329.01874 33.659374Q329.01874 32.9875 328.6281 32.4875Q328.2375 31.9875 327.34686 31.64375Q326.76874 31.409374 324.78436 30.940624Q322.8156 30.471874 322.03436 30.05Q321.0031 29.51875 320.5031 28.721874Q320.0031 27.925 320.0031 26.940624Q320.0031 25.846874 320.6125 24.909374Q321.22186 23.971874 322.40936 23.4875Q323.59686 22.9875 325.03436 22.9875Q326.6281 22.9875 327.84686 23.503124Q329.0656 24.01875 329.70624 25.01875Q330.3625 26.003124 330.40936 27.26875L328.59686 27.409374Q328.45624 26.05 327.6125 25.3625Q326.76874 24.659374 325.1125 24.659374Q323.39374 24.659374 322.59686 25.3Q321.8156 25.925 321.8156 26.8Q321.8156 27.58125 322.3781 28.08125Q322.925 28.58125 325.2375 29.096874Q327.55 29.6125 328.40936 30.003124Q329.65936 30.58125 330.2531 31.471874Q330.84686 32.346874 330.84686 33.503124Q330.84686 34.64375 330.1906 35.659374Q329.53436 36.675 328.3 37.2375Q327.08124 37.8 325.55 37.8Q323.6125 37.8 322.3 37.2375Q320.9875 36.659374 320.2375 35.51875Q319.4875 34.378124 319.45624 32.95625ZM332.39374 33.76875L334.14374 33.534374Q334.45624 35.034374 335.175 35.690624Q335.90936 36.346874 336.95624 36.346874Q338.1906 36.346874 339.03436 35.4875Q339.89374 34.628124 339.89374 33.3625Q339.89374 32.14375 339.09686 31.3625Q338.3156 30.58125 337.09686 30.58125Q336.59686 30.58125 335.8625 30.76875L336.05 29.221874Q336.22186 29.253124 336.33124 29.253124Q337.45624 29.253124 338.34686 28.675Q339.2531 28.08125 339.2531 26.8625Q339.2531 25.89375 338.59686 25.253124Q337.9406 24.6125 336.90936 24.6125Q335.89374 24.6125 335.20624 25.26875Q334.51874 25.909374 334.33124 27.190624L332.5656 26.878124Q332.89374 25.1125 334.03436 24.14375Q335.175 23.175 336.8781 23.175Q338.05 23.175 339.03436 23.675Q340.01874 24.175 340.53436 25.05Q341.0656 25.925 341.0656 26.89375Q341.0656 27.815624 340.5656 28.58125Q340.0656 29.346874 339.09686 29.8Q340.3625 30.08125 341.0656 31.01875Q341.76874 31.940624 341.76874 33.315624Q341.76874 35.190624 340.39374 36.503124Q339.03436 37.8 336.9406 37.8Q335.05 37.8 333.8 36.675Q332.5656 35.55 332.39374 33.76875ZM351.4875 37.55L349.8625 37.55L349.8625 23.2375L351.6125 23.2375L351.6125 28.346874Q352.7375 26.940624 354.45624 26.940624Q355.40936 26.940624 356.26874 27.33125Q357.1281 27.721874 357.675 28.425Q358.22186 29.1125 358.53436 30.096874Q358.84686 31.08125 358.84686 32.20625Q358.84686 34.878124 357.53436 36.33125Q356.22186 37.784374 354.3781 37.784374Q352.53436 37.784374 351.4875 36.253124L351.4875 37.55ZM351.47186 32.284374Q351.47186 34.14375 351.97186 34.9875Q352.8156 36.33125 354.22186 36.33125Q355.3781 36.33125 356.20624 35.33125Q357.05 34.33125 357.05 32.346874Q357.05 30.315624 356.2375 29.3625Q355.4406 28.39375 354.3 28.39375Q353.14374 28.39375 352.3 29.39375Q351.47186 30.39375 351.47186 32.284374ZM367.65936 37.55L367.65936 36.01875Q366.45624 37.784374 364.3781 37.784374Q363.45624 37.784374 362.65936 37.440624Q361.8625 37.08125 361.47186 36.55Q361.09686 36.01875 360.9406 35.2375Q360.83124 34.721874 360.83124 33.596874L360.83124 27.175L362.58124 27.175L362.58124 32.925Q362.58124 34.3 362.6906 34.784374Q362.8625 35.471874 363.39374 35.878124Q363.9406 36.26875 364.72186 36.26875Q365.51874 36.26875 366.20624 35.8625Q366.90936 35.45625 367.1906 34.76875Q367.4875 34.065624 367.4875 32.7375L367.4875 27.175L369.2375 27.175L369.2375 37.55L367.65936 37.55ZM378.64374 33.753124L380.3625 33.971874Q380.08124 35.76875 378.90936 36.784374Q377.7531 37.784374 376.05 37.784374Q373.925 37.784374 372.6281 36.39375Q371.33124 35.003124 371.33124 32.409374Q371.33124 30.721874 371.8781 29.471874Q372.4406 28.20625 373.58124 27.58125Q374.72186 26.940624 376.0656 26.940624Q377.7531 26.940624 378.8156 27.8Q379.89374 28.659374 380.20624 30.221874L378.4875 30.4875Q378.2531 29.440624 377.6281 28.925Q377.0031 28.39375 376.1281 28.39375Q374.8 28.39375 373.97186 29.346874Q373.14374 30.3 373.14374 32.346874Q373.14374 34.440624 373.9406 35.39375Q374.7375 36.33125 376.03436 36.33125Q377.0656 36.33125 377.7531 35.70625Q378.45624 35.065624 378.64374 33.753124ZM381.8781 37.55L381.8781 23.2375L383.64374 23.2375L383.64374 31.39375L387.8 27.175L390.0656 27.175L386.1125 31.01875L390.47186 37.55L388.3 37.55L384.8781 32.253124L383.64374 33.440624L383.64374 37.55L381.8781 37.55ZM398.97186 34.20625L400.78436 34.440624Q400.3625 36.01875 399.1906 36.909374Q398.03436 37.784374 396.22186 37.784374Q393.95624 37.784374 392.6125 36.39375Q391.28436 34.9875 391.28436 32.45625Q391.28436 29.83125 392.6281 28.39375Q393.97186 26.940624 396.1281 26.940624Q398.20624 26.940624 399.51874 28.3625Q400.84686 29.76875 400.84686 32.346874Q400.84686 32.503124 400.83124 32.815624L393.09686 32.815624Q393.1906 34.51875 394.0656 35.425Q394.9406 36.33125 396.2375 36.33125Q397.20624 36.33125 397.8781 35.83125Q398.5656 35.315624 398.97186 34.20625ZM393.1906 31.3625L398.9875 31.3625Q398.8781 30.065624 398.33124 29.409374Q397.4875 28.39375 396.14374 28.39375Q394.9406 28.39375 394.1125 29.20625Q393.28436 30.003124 393.1906 31.3625ZM406.70624 35.971874L406.95624 37.534374Q406.22186 37.690624 405.6281 37.690624Q404.675 37.690624 404.14374 37.39375Q403.6281 37.08125 403.40936 36.596874Q403.1906 36.096874 403.1906 34.51875L403.1906 28.55L401.90936 28.55L401.90936 27.175L403.1906 27.175L403.1906 24.6125L404.9406 23.55L404.9406 27.175L406.70624 27.175L406.70624 28.55L404.9406 28.55L404.9406 34.6125Q404.9406 35.3625 405.03436 35.58125Q405.1281 35.784374 405.33124 35.925Q405.55 36.05 405.9406 36.05Q406.22186 36.05 406.70624 35.971874Z" fill-rule="nonzero"/></svg>