<svg xmlns="http://www.w3.org/2000/svg" width="48" height="48" viewBox="0 0 48 48">
    <g fill="none" fill-rule="evenodd">
        <circle cx="24" cy="24" r="24" fill="#E4FBFF"/>
        <path fill="#13ADC7" d="M34.963 17.716c-.006-.02-.012-.04-.02-.06a.97.97 0 0 0-.107-.23l-.004-.007-.003-.006-1.991-2.998a1 1 0 0 0-1.666 1.106l.963 1.449-3.14-.002h-.014c-3.026 0-4.297 1.91-5.32 3.445-.915 1.375-1.655 2.46-3.458 2.54-.071-.003-.14-.008-.213-.008h-.002a.993.993 0 0 0-.213.023h-7.781a1 1 0 1 0 0 2h8.012c.102 0 .197-.008.295-.012 1.733.119 2.457 1.202 3.357 2.555 1.025 1.537 2.299 3.45 5.335 3.457l3.112.002-.965 1.44a1 1 0 1 0 1.662 1.115l2.003-2.992v-.002l.003-.003.002-.004a.983.983 0 0 0 .11-.234l.019-.06a1.06 1.06 0 0 0 .038-.253v-.004a1.028 1.028 0 0 0-.057-.317.972.972 0 0 0-.105-.226c-.002-.003-.002-.008-.005-.011l-1.994-3.004a1 1 0 1 0-1.668 1.106l.963 1.449-3.115-.002c-1.967-.004-2.72-1.135-3.673-2.566-.548-.823-1.171-1.751-2.093-2.44.924-.686 1.547-1.616 2.096-2.44.949-1.427 1.7-2.554 3.657-2.554h.01l3.135.002-.966 1.44a1.002 1.002 0 0 0 .83 1.558c.324 0 .64-.156.832-.443l2.004-2.992v-.002l.002-.003c.002-.001.002-.002.002-.004.048-.072.083-.151.112-.234l.017-.06a.93.93 0 0 0 .038-.254v-.003c0-.09-.015-.175-.036-.257"/>
    </g>
</svg>
