<svg xmlns="http://www.w3.org/2000/svg" width="48" height="48" viewBox="0 0 48 48">
    <g fill="none" fill-rule="evenodd">
        <circle cx="24" cy="24" r="24" fill="#FFE6DD"/>
        <path fill="#F46837" fill-rule="nonzero" d="M34 21.5a2.5 2.5 0 0 0-2.313 1.563H26.2l3.85-3.85a2.5 2.5 0 1 0-1.25-1.32l-3.863 3.857v-5.406A2.5 2.5 0 0 0 26.5 14a2.462 2.462 0 0 0-2.5-2.5 2.5 2.5 0 0 0-.919 4.819v5.425l-3.812-3.806a2.5 2.5 0 1 0-1.313 1.28l3.869 3.87h-5.488A2.5 2.5 0 0 0 11.5 24a2.462 2.462 0 0 0 2.5 2.5 2.5 2.5 0 0 0 2.337-1.538h5.388l-3.819 3.82a2.5 2.5 0 1 0 1.338 1.25l3.856-3.857v5.537a2.5 2.5 0 0 0-1.6 2.326A2.45 2.45 0 0 0 24 36.5a2.5 2.5 0 0 0 2.5-2.5 2.425 2.425 0 0 0-1.563-2.281V26.2l3.907 3.906a2.5 2.5 0 1 0 1.25-1.325l-3.825-3.825h5.412A2.444 2.444 0 0 0 34 26.5a2.5 2.5 0 0 0 2.5-2.5 2.462 2.462 0 0 0-2.5-2.5z"/>
        <path d="M9 9h30v30H9z"/>
    </g>
</svg>
