<svg xmlns="http://www.w3.org/2000/svg" width="48" height="48" viewBox="0 0 48 48">
    <g fill="none" fill-rule="evenodd">
        <circle cx="24" cy="24" r="24" fill="#E4FBFF"/>
        <path fill="#13ADC7" fill-rule="nonzero" d="M32.667 12.167H15.333A3.343 3.343 0 0 0 12 15.5v15.667C12 33 13.5 34.5 15.333 34.5h17.334C34.5 34.5 36 33 36 31.167V15.5c0-1.833-1.5-3.333-3.333-3.333zM15.333 13.5h17.334c1.1 0 2 .9 2 2v2.1H13.333v-2.1c0-1.1.9-2 2-2zm17.334 19.667H15.333c-1.1 0-2-.9-2-2V18.933h21.334v12.234c0 1.1-.9 2-2 2z"/>
        <path fill="#13ADC7" fill-rule="nonzero" d="M18 21.9c-.267-.233-.7-.233-.933.067-.234.266-.234.7.066.933l3.134 2.833-3.134 2.834a.676.676 0 0 0-.066.933c.233.267.666.3.933.067l3.667-3.334a.676.676 0 0 0 .066-.933l-.066-.067L18 21.9zM30.333 29h-7.1c-.366 0-.666.3-.666.667 0 .366.3.666.666.666h7.1c.367 0 .667-.3.667-.666 0-.367-.3-.667-.667-.667z"/>
    </g>
</svg>
