<svg xmlns="http://www.w3.org/2000/svg" width="48" height="48" viewBox="0 0 48 48">
    <g fill="none" fill-rule="evenodd">
        <circle cx="24" cy="24" r="24" fill="#EFE2FF"/>
        <path fill="#945DD6" d="M34.957 24.522h-3.13v-1.044h3.13v1.044zM24.522 34.957h-1.044v-3.13h1.044v3.13zM13.043 23.478h3.13v1.044h-3.13v-1.044zm10.435-10.435h1.044v3.13h-1.044v-3.13zm12 9.392h-3.652v-.522a.522.522 0 0 0-.522-.522H26.61v-4.695a.522.522 0 0 0-.522-.522h-.522v-3.652a.522.522 0 0 0-.522-.522h-2.086a.522.522 0 0 0-.522.522v3.652h-.522a.522.522 0 0 0-.522.522v4.695h-4.695a.522.522 0 0 0-.522.522v.522h-3.652a.522.522 0 0 0-.522.522v2.086c0 .288.234.522.522.522h3.652v.522c0 .288.234.522.522.522h4.695v4.695c0 .288.234.522.522.522h.522v3.652c0 .288.234.522.522.522h2.086a.522.522 0 0 0 .522-.522v-3.652h.522a.522.522 0 0 0 .522-.522V26.61h4.695a.522.522 0 0 0 .522-.522v-.522h3.652a.522.522 0 0 0 .522-.522v-2.086a.522.522 0 0 0-.522-.522z"/>
    </g>
</svg>
