<svg xmlns="http://www.w3.org/2000/svg" width="48" height="48" viewBox="0 0 48 48">
    <g fill="none" fill-rule="evenodd">
        <circle cx="24" cy="24" r="24" fill="#EFE2FF"/>
        <path fill="#945DD6" d="M37.744 25.122l-3.258-3.632a1.001 1.001 0 0 0-1.594.14l-2.574 4.145a1 1 0 0 0 1.7 1.055l.976-1.573a8.67 8.67 0 0 1-1.137 3.655c-1.146 1.976-2.978 3.365-5.158 3.912a1 1 0 1 0 .486 1.94c2.71-.68 4.983-2.402 6.402-4.85a10.652 10.652 0 0 0 1.43-4.836l1.24 1.38a1 1 0 0 0 1.488-1.336M31.046 19.195a.997.997 0 0 0 1.409.12.999.999 0 0 0 .12-1.409c-1.801-2.137-4.342-3.427-7.155-3.635a10.535 10.535 0 0 0-4.978.83l.687-1.695a1 1 0 0 0-1.854-.75l-1.832 4.522a1.004 1.004 0 0 0 .827 1.371l4.854.491a1.001 1.001 0 0 0 .201-1.991l-1.878-.189a8.65 8.65 0 0 1 3.826-.595c2.27.168 4.322 1.208 5.773 2.93M20.382 28.918a1 1 0 0 0-1.82.829l.8 1.758c-2.831-2.186-4.09-5.993-2.84-9.507a1 1 0 0 0-1.885-.67c-1.572 4.42.056 9.218 3.676 11.895l-1.79.258a1.002 1.002 0 1 0 .287 1.98l4.829-.7a.998.998 0 0 0 .765-1.405l-2.022-4.438z"/>
    </g>
</svg>
