<svg xmlns="http://www.w3.org/2000/svg" width="48" height="48" viewBox="0 0 48 48">
    <g fill="none" fill-rule="evenodd">
        <circle cx="24" cy="24" r="24" fill="#FFE6DD"/>
        <path fill="#F46837" d="M14.604 26.638l.866-1.888c.473-1.033 1.643-1.783 2.78-1.783H29c1.078 0 2.253.675 2.799 1.606l1.072 1.836c1.381-.642 3.13-2.026 3.13-4.942a5.458 5.458 0 0 0-1.685-3.96 5.44 5.44 0 0 0-3.689-1.535A7.534 7.534 0 0 0 24 11.967a7.5 7.5 0 0 0-7.427 6.512 4.223 4.223 0 0 0-3.004.94A4.232 4.232 0 0 0 12 22.717c0 1.258.382 2.271 1.136 3.012a4.1 4.1 0 0 0 1.469.91"/>
        <path fill="#F46837" d="M15.28 29.968l2.007-4.384c.148-.322.607-.616.963-.616H29c.373 0 .883.294 1.072.614l2.558 4.386H15.28zm14.72 4h-3a.5.5 0 1 1 0-1h3a.5.5 0 0 1 0 1zm3.871-3.857l-2.936-5.033c-.364-.622-1.215-1.11-1.935-1.11H18.25c-.74 0-1.563.526-1.87 1.2l-2.334 5.091v.006a.49.49 0 0 0-.046.203v2.5c0 1.653 1.345 3 3 3h14c1.654 0 3-1.347 3-3v-2.404c.006-.032.02-.063.02-.096a.499.499 0 0 0-.149-.357z"/>
    </g>
</svg>
