<?xml version="1.0" encoding="UTF-8" standalone="no"?>
<svg
   xmlns:dc="http://purl.org/dc/elements/1.1/"
   xmlns:cc="http://creativecommons.org/ns#"
   xmlns:rdf="http://www.w3.org/1999/02/22-rdf-syntax-ns#"
   xmlns:svg="http://www.w3.org/2000/svg"
   xmlns="http://www.w3.org/2000/svg"
   xmlns:sodipodi="http://sodipodi.sourceforge.net/DTD/sodipodi-0.dtd"
   xmlns:inkscape="http://www.inkscape.org/namespaces/inkscape"
   sodipodi:docname="studio_gray_icon.svg"
   id="svg136"
   version="1.1"
   viewBox="0 0 40 40"
   fill="none"
   inkscape:version="1.0.2 (e86c870, 2021-01-15)">
  <metadata
     id="metadata140">
    <rdf:RDF>
      <cc:Work
         rdf:about="">
        <dc:format>image/svg+xml</dc:format>
        <dc:type
           rdf:resource="http://purl.org/dc/dcmitype/StillImage" />
        <dc:title />
      </cc:Work>
    </rdf:RDF>
  </metadata>
  <sodipodi:namedview
     pagecolor="#ffffff"
     bordercolor="#666666"
     borderopacity="1"
     objecttolerance="10"
     gridtolerance="10"
     guidetolerance="10"
     inkscape:pageopacity="0"
     inkscape:pageshadow="2"
     inkscape:window-width="1514"
     inkscape:window-height="655"
     id="namedview138"
     showgrid="false"
     inkscape:zoom="17.375"
     inkscape:cx="20"
     inkscape:cy="20"
     inkscape:window-x="184"
     inkscape:window-y="81"
     inkscape:window-maximized="0"
     inkscape:current-layer="svg136"
     inkscape:document-rotation="0" />
  <g
     clip-path="url(#clip0)"
     id="g112">
    <path
       fill="#c1c1c1"
       d="M14.26 22.66l-1.13-1.88a1.25 1.25 0 00-2.12-.04L4.6 30.6a2.5 2.5 0 01-4.2-2.72l6.42-9.87a6.25 6.25 0 0110.6.19l.15.26-3.3 4.2z"
       id="path100" />
    <path
       fill="url(#linearGradient3753)"
       fill-opacity=".5"
       d="M14.26 22.66l-1.13-1.88a1.25 1.25 0 00-2.12-.04L4.6 30.6a2.5 2.5 0 01-4.2-2.72l6.42-9.87a6.25 6.25 0 0110.6.19l.15.26-3.3 4.2z"
       style="mix-blend-mode:color-burn"
       id="path102" />
    <path
       fill="#bcbcbc"
       d="M20.5 23.32l1.48 2.47c.46.78 1.59.81 2.1.06L35.44 9.22a2.5 2.5 0 014.12 2.81L28.21 28.67a6.25 6.25 0 01-10.52-.3l-.62-1.04 3.42-4.01z"
       id="path104" />
    <path
       fill="url(#linearGradient5170)"
       fill-opacity=".5"
       d="M20.5 23.32l1.48 2.47c.46.78 1.59.81 2.1.06L35.44 9.22a2.5 2.5 0 014.12 2.81L28.21 28.67a6.25 6.25 0 01-10.52-.3l-.62-1.04 3.42-4.01z"
       style="mix-blend-mode:color-burn"
       id="path106" />
    <path
       fill="#ababab"
       d="M11 20.74l1.25-1.82c1.3-1.9 3.98-2.7 5.16-.72l4.57 7.59c.42.7 1.37.8 1.93.26l-1.13 1.63c-1.28 1.87-3.92 2.63-5.09.68l-4.56-7.58a1.25 1.25 0 00-2.12-.04z"
       id="path108" />
    <path
       fill="url(#linearGradient2715)"
       fill-opacity=".5"
       d="M11 20.74l1.25-1.82c1.3-1.9 3.98-2.7 5.16-.72l4.57 7.59c.42.7 1.37.8 1.93.26l-1.13 1.63c-1.28 1.87-3.92 2.63-5.09.68l-4.56-7.58a1.25 1.25 0 00-2.12-.04z"
       style="mix-blend-mode:multiply"
       id="path110" />
  </g>
  <defs
     id="defs134">
    <linearGradient
       id="paint0_linear"
       x1="11.25"
       x2="4.69"
       y1="10.63"
       y2="21.25"
       gradientUnits="userSpaceOnUse">
      <stop
         stop-color="#945DD6"
         id="stop114" />
      <stop
         offset="1"
         stop-color="#945DD6"
         stop-opacity="0"
         id="stop116" />
    </linearGradient>
    <linearGradient
       id="paint1_linear"
       x1="28.13"
       x2="18.44"
       y1="17.5"
       y2="31.25"
       gradientUnits="userSpaceOnUse">
      <stop
         stop-color="#945DD6"
         stop-opacity="0"
         id="stop119" />
      <stop
         offset="1"
         stop-color="#7B61FF"
         id="stop121" />
    </linearGradient>
    <linearGradient
       id="paint2_linear"
       x1="12.81"
       x2="20.94"
       y1="17.81"
       y2="29.38"
       gradientUnits="userSpaceOnUse">
      <stop
         stop-color="#13ADC7"
         id="stop124" />
      <stop
         offset=".5"
         stop-color="#7B61FF"
         stop-opacity="0"
         id="stop126" />
      <stop
         offset="1"
         stop-color="#F46737"
         id="stop128" />
    </linearGradient>
    <clipPath
       id="clip0">
      <path
         fill="#ffffff"
         d="M0 4a4 4 0 014-4h32a4 4 0 014 4v32a4 4 0 01-4 4H4a4 4 0 01-4-4V4z"
         id="path131" />
    </clipPath>
    <linearGradient
       x1="11.25"
       x2="4.69"
       y1="10.63"
       y2="21.25"
       gradientUnits="userSpaceOnUse"
       id="linearGradient5255">
      <stop
         stop-color="#7b7b7b"
         id="stop286" />
      <stop
         offset="1"
         stop-color="#7b7b7b"
         stop-opacity="0"
         id="stop288" />
    </linearGradient>
    <linearGradient
       x1="28.13"
       x2="18.44"
       y1="17.5"
       y2="31.25"
       gradientUnits="userSpaceOnUse"
       id="linearGradient431">
      <stop
         stop-color="#7b7b7b"
         stop-opacity="0"
         id="stop291" />
      <stop
         offset="1"
         stop-color="#7b7b7b"
         id="stop293" />
    </linearGradient>
    <linearGradient
       x1="12.81"
       x2="20.94"
       y1="17.81"
       y2="29.38"
       gradientUnits="userSpaceOnUse"
       id="linearGradient5858">
      <stop
         stop-color="#828282"
         id="stop296" />
      <stop
         offset=".5"
         stop-color="#7b7b7b"
         stop-opacity="0"
         id="stop298" />
      <stop
         offset="1"
         stop-color="#8c8c8c"
         id="stop300" />
    </linearGradient>
    <linearGradient
       x1="11.25"
       x2="4.69"
       y1="10.63"
       y2="21.25"
       gradientUnits="userSpaceOnUse"
       id="linearGradient4960">
      <stop
         stop-color="#878787"
         id="stop677" />
      <stop
         offset="1"
         stop-color="#878787"
         stop-opacity="0"
         id="stop679" />
    </linearGradient>
    <linearGradient
       x1="28.13"
       x2="18.44"
       y1="17.5"
       y2="31.25"
       gradientUnits="userSpaceOnUse"
       id="linearGradient5632">
      <stop
         stop-color="#878787"
         stop-opacity="0"
         id="stop682" />
      <stop
         offset="1"
         stop-color="#878787"
         id="stop684" />
    </linearGradient>
    <linearGradient
       x1="12.81"
       x2="20.94"
       y1="17.81"
       y2="29.38"
       gradientUnits="userSpaceOnUse"
       id="linearGradient7272">
      <stop
         stop-color="#8e8e8e"
         id="stop687" />
      <stop
         offset=".5"
         stop-color="#878787"
         stop-opacity="0"
         id="stop689" />
      <stop
         offset="1"
         stop-color="#989898"
         id="stop691" />
    </linearGradient>
    <linearGradient
       x1="11.25"
       x2="4.69"
       y1="10.63"
       y2="21.25"
       gradientUnits="userSpaceOnUse"
       id="linearGradient105">
      <stop
         stop-color="#878787"
         id="stop753" />
      <stop
         offset="1"
         stop-color="#878787"
         stop-opacity="0"
         id="stop755" />
    </linearGradient>
    <linearGradient
       x1="28.13"
       x2="18.44"
       y1="17.5"
       y2="31.25"
       gradientUnits="userSpaceOnUse"
       id="linearGradient7955">
      <stop
         stop-color="#878787"
         stop-opacity="0"
         id="stop758" />
      <stop
         offset="1"
         stop-color="#878787"
         id="stop760" />
    </linearGradient>
    <linearGradient
       x1="12.81"
       x2="20.94"
       y1="17.81"
       y2="29.38"
       gradientUnits="userSpaceOnUse"
       id="linearGradient472">
      <stop
         stop-color="#8e8e8e"
         id="stop763" />
      <stop
         offset=".5"
         stop-color="#878787"
         stop-opacity="0"
         id="stop765" />
      <stop
         offset="1"
         stop-color="#989898"
         id="stop767" />
    </linearGradient>
    <linearGradient
       x1="11.25"
       x2="4.69"
       y1="10.63"
       y2="21.25"
       gradientUnits="userSpaceOnUse"
       id="linearGradient3318">
      <stop
         stop-color="#939393"
         id="stop836" />
      <stop
         offset="1"
         stop-color="#939393"
         stop-opacity="0"
         id="stop838" />
    </linearGradient>
    <linearGradient
       x1="28.13"
       x2="18.44"
       y1="17.5"
       y2="31.25"
       gradientUnits="userSpaceOnUse"
       id="linearGradient2142">
      <stop
         stop-color="#939393"
         stop-opacity="0"
         id="stop841" />
      <stop
         offset="1"
         stop-color="#939393"
         id="stop843" />
    </linearGradient>
    <linearGradient
       x1="12.81"
       x2="20.94"
       y1="17.81"
       y2="29.38"
       gradientUnits="userSpaceOnUse"
       id="linearGradient9081">
      <stop
         stop-color="#9a9a9a"
         id="stop846" />
      <stop
         offset=".5"
         stop-color="#939393"
         stop-opacity="0"
         id="stop848" />
      <stop
         offset="1"
         stop-color="#a4a4a4"
         id="stop850" />
    </linearGradient>
    <linearGradient
       x1="11.25"
       x2="4.69"
       y1="10.63"
       y2="21.25"
       gradientUnits="userSpaceOnUse"
       id="linearGradient5724">
      <stop
         stop-color="#9f9f9f"
         id="stop932" />
      <stop
         offset="1"
         stop-color="#9f9f9f"
         stop-opacity="0"
         id="stop934" />
    </linearGradient>
    <linearGradient
       x1="28.13"
       x2="18.44"
       y1="17.5"
       y2="31.25"
       gradientUnits="userSpaceOnUse"
       id="linearGradient1298">
      <stop
         stop-color="#9f9f9f"
         stop-opacity="0"
         id="stop937" />
      <stop
         offset="1"
         stop-color="#9f9f9f"
         id="stop939" />
    </linearGradient>
    <linearGradient
       x1="12.81"
       x2="20.94"
       y1="17.81"
       y2="29.38"
       gradientUnits="userSpaceOnUse"
       id="linearGradient8040">
      <stop
         stop-color="#a6a6a6"
         id="stop942" />
      <stop
         offset=".5"
         stop-color="#9f9f9f"
         stop-opacity="0"
         id="stop944" />
      <stop
         offset="1"
         stop-color="#b0b0b0"
         id="stop946" />
    </linearGradient>
    <linearGradient
       x1="11.25"
       x2="4.69"
       y1="10.63"
       y2="21.25"
       gradientUnits="userSpaceOnUse"
       id="linearGradient3753">
      <stop
         stop-color="#ababab"
         id="stop1038" />
      <stop
         offset="1"
         stop-color="#ababab"
         stop-opacity="0"
         id="stop1040" />
    </linearGradient>
    <linearGradient
       x1="28.13"
       x2="18.44"
       y1="17.5"
       y2="31.25"
       gradientUnits="userSpaceOnUse"
       id="linearGradient5170">
      <stop
         stop-color="#ababab"
         stop-opacity="0"
         id="stop1043" />
      <stop
         offset="1"
         stop-color="#ababab"
         id="stop1045" />
    </linearGradient>
    <linearGradient
       x1="12.81"
       x2="20.94"
       y1="17.81"
       y2="29.38"
       gradientUnits="userSpaceOnUse"
       id="linearGradient2715">
      <stop
         stop-color="#b2b2b2"
         id="stop1048" />
      <stop
         offset=".5"
         stop-color="#ababab"
         stop-opacity="0"
         id="stop1050" />
      <stop
         offset="1"
         stop-color="#bcbcbc"
         id="stop1052" />
    </linearGradient>
  </defs>
</svg>
