<svg width="256" height="256" viewBox="0 0 256 256" fill="none" xmlns="http://www.w3.org/2000/svg"><path d="M158.24 108.106C138.792 88.805 110.984 61.2 75.887 61.2 37.68 61.2 6.675 90.647 6.4 129.284v1.621h30.4c0-.207-.003-1.414 0-1.621C37.128 107.713 54.505 92 75.887 92c19.494 0 30.344 10.169 72.79 49.958a5662.181 5662.181 0 0 0 19.355 18.028c10.001 9.284 18.399 17.081 36.693 17.081 24.783 0 44.875-21.052 44.875-46.162v-1.621h-30.4v1.621c0 3.89-1.525 8.316-4.24 11.067a14.38 14.38 0 0 1-10.235 4.295c-10.07 0-24.032-14.894-33.866-25.384-4.099-4.376-8.368-8.555-12.619-12.777z" fill="url(#paint0_linear)"/><path d="M181.23 131.601c-3.703-3.606-7.245-7.384-10.371-10.718-3.392-3.619-6.898-7.105-10.415-10.59l3.023-2.893c1.58-1.412 3.09-2.816 4.567-4.184 9.999-9.286 18.397-17.083 36.691-17.083 23.978 0 44.875 20.457 44.875 43.151v1.621h-30.4v-1.621c0-9.726-10.354-12.349-14.475-12.349-6.871 0-15.55 6.928-23.495 14.666z" fill="url(#paint1_linear)"/><path d="M137.611 131.601c3.436 3.206 7.114 6.653 11.066 10.357 3.909 3.665 7.828 7.315 11.752 10.965l-2.189 2.171C138.795 174.395 110.984 202 75.887 202 37.509 202 6.4 169.783 6.4 130.905v-1.621h30.4v1.621c0 21.869 17.5 40.297 39.087 40.297 17.68 0 28.246-8.367 61.724-39.601z" fill="url(#paint2_linear)"/><defs><linearGradient id="paint0_linear" x1="96" y1="82.274" x2="180.288" y2="165.467" gradientUnits="userSpaceOnUse"><stop stop-color="#F46837"/><stop offset=".458" stop-color="#945DD6"/><stop offset="1" stop-color="#13ADC7"/></linearGradient><linearGradient id="paint1_linear" x1="171.067" y1="121.517" x2="201.999" y2="90.986" gradientUnits="userSpaceOnUse"><stop stop-color="#1497B8"/><stop offset=".453" stop-color="#13ADC7"/></linearGradient><linearGradient id="paint2_linear" x1="76.8" y1="132.527" x2="131.911" y2="186.922" gradientUnits="userSpaceOnUse"><stop stop-color="#F46837"/><stop offset=".583" stop-color="#945DD6"/><stop offset="1" stop-color="#7E51C2"/></linearGradient></defs></svg>