<svg xmlns="http://www.w3.org/2000/svg" width="48" height="48" viewBox="0 0 48 48">
    <g fill="none" fill-rule="evenodd">
        <circle cx="24" cy="24" r="24" fill="#E4FBFF"/>
        <path fill="#13ADC7" fill-rule="nonzero" d="M33.667 23c-1.24 0-2.308.685-2.881 1.69-.15-.01-.296-.023-.453-.023-3.413 0-6.652-2.6-7.833-5.819a3.308 3.308 0 0 0 1.167-2.515 3.335 3.335 0 0 0-6.667 0 3.32 3.32 0 0 0 1.667 2.872V30.13A3.317 3.317 0 0 0 17 33a3.335 3.335 0 0 0 3.333 3.333A3.335 3.335 0 0 0 23.667 33c0-1.23-.673-2.293-1.667-2.871v-5.997C24.192 26.451 27.218 28 30.333 28c.166 0 .303-.011.453-.016a3.322 3.322 0 0 0 2.88 1.683A3.336 3.336 0 0 0 37 26.333 3.335 3.335 0 0 0 33.667 23zM20.333 34.667a1.667 1.667 0 1 1 0-3.334 1.667 1.667 0 0 1 0 3.334zm0-16.667a1.666 1.666 0 1 1 0-3.332 1.666 1.666 0 0 1 0 3.332zm13.334 10a1.667 1.667 0 1 1 0-3.334 1.667 1.667 0 0 1 0 3.334z"/>
    </g>
</svg>
