<svg width="24" height="24" viewBox="-1 0 26 26" fill="none" xmlns="http://www.w3.org/2000/svg">
<path fill-rule="evenodd" clip-rule="evenodd" d="M5.15195 3H19.2231C19.5064 3.00072 19.7868 3.05725 20.0483 3.16634C20.3097 3.27543 20.5472 3.43496 20.747 3.63581C20.9468 3.83667 21.1051 4.07491 21.2129 4.33695C21.3206 4.59898 21.3757 4.87968 21.375 5.163V24L19.1158 22.0039L17.8459 20.8279L16.5008 19.5778L17.059 21.522H5.15195C3.96601 21.522 3.00001 20.556 3.00001 19.359V5.163C2.99928 4.87968 3.05437 4.59898 3.16212 4.33695C3.26987 4.07491 3.42818 3.83667 3.62801 3.63581C3.82783 3.43496 4.06527 3.27543 4.32674 3.16634C4.58822 3.05725 4.86863 3.00072 5.15195 3ZM14.4771 15.8608C14.791 16.2621 15.169 16.713 15.169 16.713C17.4507 16.6402 18.3513 15.1682 18.3812 15.1193C18.3817 15.1185 18.382 15.1181 18.382 15.1181C18.382 11.7371 16.87 8.99716 16.87 8.99716C15.3591 7.86205 13.92 7.8941 13.92 7.8941L13.773 8.06211C15.558 8.6081 16.3881 9.39505 16.3881 9.39505C14.779 8.5087 12.9277 8.1627 11.1071 8.40805C11.0553 8.40805 11.0103 8.41552 10.9609 8.4237C10.9502 8.42547 10.9393 8.42728 10.9281 8.42905C10.56 8.46111 9.66806 8.59816 8.54511 9.0911C8.15716 9.26905 7.92506 9.39505 7.92506 9.39505C7.92506 9.39505 8.79711 8.5661 10.6871 8.019L10.5821 7.893C10.5821 7.893 9.14416 7.86095 7.63216 8.99605C7.63216 8.99605 6.12016 11.736 6.12016 15.117C6.12016 15.117 7.00106 16.6389 9.32101 16.713C9.32101 16.713 9.71006 16.2388 10.0251 15.8409C8.69101 15.4419 8.18701 14.6019 8.18701 14.6019C8.18701 14.6019 8.29201 14.6749 8.48101 14.7788C8.49286 14.7928 8.50756 14.8041 8.52411 14.8119C8.5386 14.8218 8.55308 14.8289 8.56767 14.8362C8.58427 14.8444 8.60101 14.8527 8.61806 14.865C8.86469 15.0012 9.12064 15.1197 9.38401 15.2198C9.88338 15.4177 10.3999 15.5694 10.927 15.6729C12.3534 15.9469 13.829 15.7938 15.169 15.2331C15.537 15.096 15.946 14.8948 16.377 14.6119C16.377 14.6119 15.852 15.4718 14.4771 15.8608ZM9.21592 12.976C9.21592 12.3349 9.68787 11.8099 10.2869 11.8099C10.8849 11.8099 11.369 12.3338 11.3568 12.976C11.3568 13.6148 10.8849 14.142 10.2869 14.142C9.69892 14.142 9.21592 13.6148 9.21592 12.976ZM13.049 12.976C13.049 12.3349 13.5209 11.8099 14.12 11.8099C14.7179 11.8099 15.1888 12.3338 15.1899 12.976C15.1899 13.6148 14.7179 14.142 14.12 14.142C13.532 14.142 13.049 13.6148 13.049 12.976Z" fill="currentColor" />
</svg>
