<svg width="24" height="24" viewBox="-1 -2 26 26" fill="none" xmlns="http://www.w3.org/2000/svg">
<path d="M5.86487 19.5H1.8221V6.48085H5.86487V19.5ZM3.84131 4.70492C2.54856 4.70492 1.5 3.63413 1.5 2.34136C1.5 1.72039 1.74667 1.12486 2.18575 0.685768C2.62483 0.246678 3.22035 0 3.84131 0C4.46226 0 5.05778 0.246678 5.49686 0.685768C5.93594 1.12486 6.18261 1.72039 6.18261 2.34136C6.18261 3.63413 5.13362 4.70492 3.84131 4.70492ZM20.9956 19.5H16.9616V13.1624C16.9616 11.6519 16.9311 9.71496 14.8597 9.71496C12.7578 9.71496 12.4357 11.356 12.4357 13.0535V19.5H8.39725V6.48085H12.2746V8.25678H12.3312C12.8709 7.23388 14.1894 6.15439 16.1563 6.15439C20.2479 6.15439 21 8.84876 21 12.3484V19.5H20.9956Z" fill="currentColor" />
</svg>
