<svg height="40" viewBox="0 0 40 40" width="40" xmlns="http://www.w3.org/2000/svg"><path d="m29.954 7a3.036 3.036 0 0 1 3.046 3.027v26.364l-3.194-2.791-1.798-1.646-1.902-1.749.788 2.72h-16.848a3.036 3.036 0 0 1 -3.046-3.03v-19.868a3.036 3.036 0 0 1 3.046-3.027zm-12.262 6.783s-1.99-.045-4.08 1.554c0 0-2.09 3.864-2.09 8.63 0 0 1.22 2.147 4.428 2.25 0 0 .537-.666.972-1.228-1.843-.563-2.54-1.747-2.54-1.747s.145.104.406.252a.2.2 0 0 0 .058.044l.13.074c.364.207.727.37 1.06.503a12.01 12.01 0 0 0 2.135.637 9.977 9.977 0 0 0 3.76.015 9.417 9.417 0 0 0 2.105-.637 8.248 8.248 0 0 0 1.67-.873s-.726 1.214-2.628 1.761c.435.563.958 1.2.958 1.2 3.208-.104 4.442-2.25 4.442-2.25 0-4.767-2.09-8.63-2.09-8.63-1.888-1.445-3.694-1.549-4.026-1.555h-.054l-.203.237c2.468.77 3.615 1.88 3.615 1.88a11.672 11.672 0 0 0 -4.37-1.422 12.048 12.048 0 0 0 -2.932.03c-.088 0-.16.015-.247.03-.508.044-1.742.237-3.296.932-.537.252-.856.43-.856.43s1.205-1.17 3.818-1.94zm-.79 2.922c.967 0 1.747.848 1.73 1.882 0 1.034-.763 1.882-1.73 1.882-.949 0-1.729-.848-1.729-1.882s.763-1.882 1.73-1.882zm6.19 0c.966 0 1.73.848 1.73 1.882s-.764 1.882-1.73 1.882c-.95 0-1.73-.848-1.73-1.882s.763-1.882 1.73-1.882z" fill="#fff"/></svg>