<svg width="40" height="40" viewBox="0 0 40 40" fill="none" xmlns="http://www.w3.org/2000/svg">
<path fill-rule="evenodd" clip-rule="evenodd" d="M22.7263 27.6182L24.9437 25.4004L27.9171 28.3692L25.6845 30.587C24.7018 31.5689 23.3695 32.1204 21.9804 32.1204C20.5913 32.1204 19.259 31.5689 18.2763 30.587L13.8212 26.1363C12.8395 25.1534 12.2881 23.8209 12.2881 22.4315C12.2881 21.0422 12.8395 19.7097 13.8212 18.7268L18.3299 14.2163L21.2882 17.1902L16.7946 21.6856C16.6966 21.783 16.6189 21.8988 16.5658 22.0264C16.5128 22.154 16.4855 22.2908 16.4855 22.429C16.4855 22.5672 16.5128 22.704 16.5658 22.8316C16.6189 22.9592 16.6966 23.0751 16.7946 23.1725L21.2446 27.6182C21.4412 27.8145 21.7076 27.9248 21.9854 27.9248C22.2633 27.9248 22.5297 27.8145 22.7263 27.6182Z" fill="url(#paint0_linear_426_297)"/>
<path fill-rule="evenodd" clip-rule="evenodd" d="M35.7353 14.4738C35.6799 14.6048 35.6043 14.7157 35.5136 14.8115L24.8634 25.4635L27.8267 28.4323L38.4668 17.7853C39.4485 16.8024 39.9999 15.4699 39.9999 14.0806C39.9999 12.6913 39.4485 11.3588 38.4668 10.3759L34.0168 5.92012C33.034 4.93824 31.7018 4.38672 30.3127 4.38672C28.9236 4.38672 27.5913 4.93824 26.6085 5.92012L23.5037 9.01023L26.472 11.9791L29.5668 8.8839C29.7633 8.68753 30.0298 8.57722 30.3076 8.57722C30.5854 8.57722 30.8519 8.68753 31.0484 8.8839L35.4934 13.3296C35.6411 13.4758 35.742 13.6627 35.7833 13.8664C35.8246 14.0701 35.8043 14.2815 35.7252 14.4738H35.7303H35.7353Z" fill="url(#paint1_linear_426_297)"/>
<path d="M23.2413 18.3296L21.0235 20.547L21.0235 20.5621L18.7459 22.8232L21.7198 25.7915L26.2101 21.2929C27.192 20.3101 27.7435 18.9779 27.7435 17.5888C27.7435 16.1997 27.192 14.8674 26.2101 13.8846L21.7544 9.4296C20.7714 8.44789 19.4389 7.89646 18.0496 7.89646C16.6603 7.89646 15.3278 8.44789 14.3449 9.4296L8.70508 15.0691L11.6789 18.0324L17.3087 12.403C17.5053 12.2066 17.7718 12.0964 18.0496 12.0964C18.3275 12.0964 18.594 12.2066 18.7906 12.403L23.2413 16.8479C23.4377 17.0445 23.548 17.3109 23.548 17.5888C23.548 17.8666 23.4377 18.133 23.2413 18.3296Z" fill="url(#paint2_linear_426_297)"/>
<path d="M4.2754 25.5391C4.32581 25.4131 4.40645 25.2972 4.50222 25.2015L6.72506 22.979L6.72002 22.9689L9.69389 20.0056L11.7271 17.9834L8.75832 15.01L1.5334 22.2432C0.551523 23.226 -4.84383e-07 24.5582 -4.23664e-07 25.9473C-3.62945e-07 27.3364 0.551523 28.6687 1.5334 29.6515L5.98916 34.1065C6.97207 35.0882 8.30457 35.6396 9.69389 35.6396C11.0832 35.6396 12.4157 35.0882 13.3986 34.1065L16.4064 31.0941L13.4375 28.1308L10.4399 31.1281C10.3424 31.2261 10.2266 31.3038 10.099 31.3569C9.97142 31.4099 9.83459 31.4372 9.69641 31.4372C9.55822 31.4372 9.4214 31.4099 9.29381 31.3569C9.16622 31.3038 9.05037 31.2261 8.95294 31.1281L4.50222 26.6831C4.35535 26.5363 4.25538 26.3492 4.215 26.1456C4.17462 25.9419 4.19564 25.7308 4.2754 25.5391Z" fill="url(#paint3_linear_426_297)"/>
<defs>
<linearGradient id="paint0_linear_426_297" x1="34.1245" y1="9.50477" x2="17.1108" y2="26.2205" gradientUnits="userSpaceOnUse">
<stop stop-color="#F46837"/>
<stop offset="1" stop-color="#945DD6"/>
</linearGradient>
<linearGradient id="paint1_linear_426_297" x1="34.1364" y1="9.69736" x2="17.1107" y2="26.5128" gradientUnits="userSpaceOnUse">
<stop stop-color="#F46837"/>
<stop offset="1" stop-color="#945DD6"/>
</linearGradient>
<linearGradient id="paint2_linear_426_297" x1="5.6103" y1="30.3664" x2="22.6186" y2="14.0839" gradientUnits="userSpaceOnUse">
<stop stop-color="#13ADC7"/>
<stop offset="1" stop-color="#945DD6"/>
</linearGradient>
<linearGradient id="paint3_linear_426_297" x1="5.46419" y1="30.5123" x2="22.3261" y2="13.6449" gradientUnits="userSpaceOnUse">
<stop stop-color="#13ADC7"/>
<stop offset="1" stop-color="#945DD6"/>
</linearGradient>
</defs>
</svg>
