<svg viewBox="0 0 294 120" fill="none" xmlns="http://www.w3.org/2000/svg"><g clip-path="url(#prefix__clip0_1727_162836)"><path d="M161.503 53.923l-16.006 32.894h-.648l-17.08-35.195a42.804 42.804 0 013.445 14.082c.648 7.013-1.459 13.34-5.471 18.924l17.019 34.063c.426.742 1.013 1.113 1.824 1.113h1.013c.79 0 1.377-.352 1.803-1.095l17.302-34.47c-3.608-5.521-5.44-11.862-5.288-18.294 0-4.267.669-8.311 2.067-12.022h.02z" fill="url(#prefix__paint0_linear_1727_162836)"/><path d="M168.872 90.172c-6.833-6.805-10.01-15.039-10.01-24.775 0-9.772 3.14-18.043 10.01-24.904a33.789 33.789 0 0111.409-7.754 33.672 33.672 0 0113.542-2.538 34.069 34.069 0 0123.639 9.068c.997.927 1.016 1.854.111 2.726l-7.609 7.9c-.85.76-1.681.76-2.456 0a19.238 19.238 0 00-13.205-4.989 17.813 17.813 0 00-7.478 1.47 17.888 17.888 0 00-6.189 4.465 19.686 19.686 0 00-5.226 14.13 19.382 19.382 0 002.968 10.965 19.266 19.266 0 008.593 7.393 18.036 18.036 0 007.443 1.41c4.764.111 9.418-1.558 13.094-4.673.905-.78 1.754-.742 2.53.093l7.627 8.085c.85.853.813 1.724-.092 2.633a32.973 32.973 0 01-10.928 7.122 32.867 32.867 0 01-12.822 2.317 33.911 33.911 0 01-13.519-2.499 34.028 34.028 0 01-11.432-7.663v.018z" fill="url(#prefix__paint1_linear_1727_162836)"/><path d="M73.151 98.395v-66.28a1.821 1.821 0 01.558-1.357 1.597 1.597 0 011.208-.557h23.686c9.723.743 16.974 3.53 23.63 10.368 6.712 6.857 9.37 14.624 10.225 24.64.818 9.625-3.105 17.95-9.779 24.806a32.72 32.72 0 01-10.988 7.712 32.111 32.111 0 01-13.088 2.601H74.917a1.617 1.617 0 01-1.227-.557 1.821 1.821 0 01-.539-1.357v-.019zm15.152-50.17V85.5h9.315a17.669 17.669 0 0013.571-5.872 20.615 20.615 0 005.392-14.438c0-5.686-1.822-10.48-5.392-14.4a17.83 17.83 0 00-13.571-5.872h-9.296v3.307h-.019z" fill="url(#prefix__paint2_linear_1727_162836)"/></g><defs><linearGradient id="prefix__paint0_linear_1727_162836" x1="130.789" y1="80.836" x2="130.789" y2="101.246" gradientUnits="userSpaceOnUse"><stop stop-color="#7E51C2"/><stop offset="1" stop-color="#945DD6"/></linearGradient><linearGradient id="prefix__paint1_linear_1727_162836" x1="188.558" y1="65.305" x2="188.558" y2="100.315" gradientUnits="userSpaceOnUse"><stop stop-color="#F46837"/><stop offset="1" stop-color="#DD5236"/></linearGradient><linearGradient id="prefix__paint2_linear_1727_162836" x1="102.86" y1="65.357" x2="102.86" y2="100.346" gradientUnits="userSpaceOnUse"><stop stop-color="#13ADC7"/><stop offset="1" stop-color="#1497B8"/></linearGradient><clipPath id="prefix__clip0_1727_162836"><path fill="#fff" transform="translate(76.25)" d="M0 0h142v120H0z"/></clipPath></defs></svg>
