<svg viewBox="0 0 294 120" fill="none" xmlns="http://www.w3.org/2000/svg"><g clip-path="url(#prefix__clip0_1727_162815)"><path d="M133.234 54.157l-16.046 33.038h-.65L99.416 51.847a43.05 43.05 0 013.453 14.143c.65 7.043-1.463 13.397-5.484 19.006l17.061 34.211c.427.745 1.016 1.118 1.828 1.118h1.016c.792 0 1.381-.354 1.807-1.099l17.346-34.621c-3.617-5.545-5.454-11.913-5.301-18.373 0-4.286.67-8.348 2.072-12.075h.02z" fill="url(#prefix__paint0_linear_1727_162815)"/><path d="M140.622 90.564c-6.851-6.835-10.035-15.104-10.035-24.882 0-9.815 3.147-18.122 10.035-25.013a33.865 33.865 0 0111.437-7.787 33.707 33.707 0 0113.576-2.55 34.118 34.118 0 0123.698 9.108c1 .931 1.019 1.862.112 2.738l-7.628 7.934c-.852.763-1.685.763-2.463 0a19.264 19.264 0 00-13.238-5.01 17.829 17.829 0 00-7.496 1.477 17.924 17.924 0 00-6.205 4.483 19.724 19.724 0 00-4.028 6.57 19.813 19.813 0 00-1.211 7.622 19.49 19.49 0 002.976 11.012 19.322 19.322 0 008.614 7.426 18.052 18.052 0 007.461 1.415c4.777.112 9.443-1.564 13.127-4.693.907-.782 1.759-.745 2.537.093l7.646 8.12c.852.857.815 1.732-.092 2.645a33.055 33.055 0 01-10.956 7.153 32.891 32.891 0 01-12.854 2.327 33.953 33.953 0 01-13.553-2.51 34.114 34.114 0 01-11.46-7.696v.018z" fill="url(#prefix__paint1_linear_1727_162815)"/><path d="M44.66 98.823V32.254a1.831 1.831 0 01.56-1.362 1.6 1.6 0 011.211-.56h23.745c9.748.747 17.017 3.546 23.69 10.414 6.728 6.886 9.393 14.687 10.251 24.746.82 9.667-3.113 18.028-9.804 24.915a32.803 32.803 0 01-11.015 7.745 32.15 32.15 0 01-13.122 2.612H46.431a1.625 1.625 0 01-1.23-.56 1.823 1.823 0 01-.54-1.362v-.019zm15.19-50.388V85.87h9.339a17.686 17.686 0 0013.606-5.897 20.73 20.73 0 005.405-14.5c0-5.711-1.827-10.526-5.406-14.464a17.873 17.873 0 00-13.605-5.897h-9.32v3.322h-.018z" fill="url(#prefix__paint2_linear_1727_162815)"/><g filter="url(#prefix__filter0_dd_1727_162815)"><path fill-rule="evenodd" clip-rule="evenodd" d="M192.98 67.5a1 1 0 01-.836-1.55l18.553-28.227a.25.25 0 00-.003-.28l-18.013-26.092a1 1 0 01.823-1.568h17.677a1 1 0 01.822.43l9.106 13.148a.25.25 0 00.41 0l9.217-13.152c.188-.267.493-.426.819-.426h17.392a1 1 0 01.823 1.568l-17.956 25.967a.25.25 0 00-.004.278l18.461 28.358a1 1 0 01-.838 1.546h-17.697a1 1 0 01-.845-.464l-9.549-15.049a.25.25 0 00-.421 0l-9.66 15.053a1 1 0 01-.842.46H192.98zm27.961-23.632a.25.25 0 01.422.001l12.22 19.258h9.637l-16.668-25.604a.248.248 0 01.004-.279l15.966-23.089h-9.218l-11.806 16.847a.25.25 0 01-.41-.002l-11.667-16.845h-9.497l16.035 23.228a.25.25 0 01.004.28l-16.737 25.465h9.357l12.358-19.26z" fill="url(#prefix__paint3_linear_1727_162815)"/></g></g><defs><linearGradient id="prefix__paint0_linear_1727_162815" x1="102.443" y1="81.188" x2="102.443" y2="101.686" gradientUnits="userSpaceOnUse"><stop stop-color="#7E51C2"/><stop offset="1" stop-color="#945DD6"/></linearGradient><linearGradient id="prefix__paint1_linear_1727_162815" x1="160.357" y1="65.588" x2="160.357" y2="100.751" gradientUnits="userSpaceOnUse"><stop stop-color="#F46837"/><stop offset="1" stop-color="#DD5236"/></linearGradient><linearGradient id="prefix__paint2_linear_1727_162815" x1="74.444" y1="65.641" x2="74.444" y2="100.782" gradientUnits="userSpaceOnUse"><stop stop-color="#13ADC7"/><stop offset="1" stop-color="#1497B8"/></linearGradient><linearGradient id="prefix__paint3_linear_1727_162815" x1="221.201" y1="9.783" x2="221.201" y2="67.5" gradientUnits="userSpaceOnUse"><stop stop-color="#14ADC7"/><stop offset=".505" stop-color="#945DD6"/><stop offset="1" stop-color="#F46938"/></linearGradient><clipPath id="prefix__clip0_1727_162815"><path fill="#fff" transform="translate(41.75)" d="M0 0h210v120H0z"/></clipPath><filter id="prefix__filter0_dd_1727_162815" x="187.978" y="7.783" width="66.457" height="66.717" filterUnits="userSpaceOnUse" color-interpolation-filters="sRGB"><feFlood flood-opacity="0" result="BackgroundImageFix"/><feColorMatrix in="SourceAlpha" values="0 0 0 0 0 0 0 0 0 0 0 0 0 0 0 0 0 0 127 0" result="hardAlpha"/><feOffset/><feGaussianBlur stdDeviation="1"/><feColorMatrix values="0 0 0 0 0.180392 0 0 0 0 0.192157 0 0 0 0 0.215686 0 0 0 0.15 0"/><feBlend in2="BackgroundImageFix" result="effect1_dropShadow_1727_162815"/><feColorMatrix in="SourceAlpha" values="0 0 0 0 0 0 0 0 0 0 0 0 0 0 0 0 0 0 127 0" result="hardAlpha"/><feOffset dy="3"/><feGaussianBlur stdDeviation="2"/><feColorMatrix values="0 0 0 0 0.180392 0 0 0 0 0.192157 0 0 0 0 0.215686 0 0 0 0.1 0"/><feBlend in2="effect1_dropShadow_1727_162815" result="effect2_dropShadow_1727_162815"/><feBlend in="SourceGraphic" in2="effect2_dropShadow_1727_162815" result="shape"/></filter></defs></svg>
