<svg xmlns="http://www.w3.org/2000/svg" width="200" height="45" viewBox="0 0 153 35" fill="none"><g clip-path="url(#clip0_144_797)"><path d="M28.0825 23.8308C26.0911 21.86 25.1687 19.4713 25.1687 16.6543C25.1687 13.8211 26.0858 11.4218 28.0825 9.43485C29.0357 8.46541 30.1699 7.70175 31.4177 7.18928C32.6655 6.67681 34.0015 6.426 35.346 6.45175C37.8813 6.40924 40.3388 7.34649 42.227 9.07602C42.5152 9.3438 42.5204 9.61159 42.2584 9.86866L40.0416 12.1555C39.7953 12.3805 39.5542 12.3805 39.3289 12.1555C38.268 11.2043 36.8986 10.6908 35.4875 10.7149C33.8944 10.7149 32.5685 11.2826 31.5046 12.4287C30.9979 12.9743 30.6025 13.6176 30.3415 14.321C30.0806 15.0244 29.9594 15.7739 29.9848 16.5257C29.9848 18.111 30.4565 19.4606 31.5256 20.58C32.041 21.1273 32.6622 21.5589 33.3497 21.8475C34.0372 22.1361 34.7759 22.2753 35.519 22.2563C36.9072 22.2883 38.2601 21.8072 39.3289 20.9013C39.5909 20.6764 39.8372 20.6871 40.0626 20.9281L42.2846 23.2739C42.5309 23.5202 42.5204 23.7719 42.2584 24.0344C40.3987 25.8443 37.9135 26.8283 35.346 26.7711C34.0045 26.7979 32.6713 26.5511 31.4242 26.0454C30.177 25.5396 29.041 24.785 28.0825 23.8255V23.8308V23.8308Z" fill="url(#paint0_linear_144_797)"></path><path d="M0.537902 26.1819V7.00868C0.5355 6.93585 0.548274 6.86333 0.575379 6.79593C0.602484 6.72852 0.6433 6.66778 0.695121 6.61772C0.73888 6.56669 0.792906 6.52591 0.853506 6.49818C0.914106 6.47045 0.97985 6.45642 1.04624 6.45705H7.89576C10.7047 6.67128 12.801 7.47463 14.7295 9.45622C16.6686 11.4378 17.439 13.6872 17.6853 16.5792C17.9211 19.3642 16.7839 21.7742 14.8553 23.7558C13.9582 24.7155 12.8772 25.4761 11.6799 25.9903C10.4825 26.5044 9.19441 26.7611 7.89576 26.7443H1.04624C0.980008 26.7439 0.914579 26.7294 0.854126 26.7017C0.793673 26.6741 0.739521 26.6338 0.695121 26.5836C0.643163 26.5325 0.602311 26.4708 0.575223 26.4025C0.548135 26.3343 0.535419 26.2609 0.537902 26.1873V26.1819ZM4.91907 11.6681V22.449H7.61276C9.18495 22.449 10.4951 21.8813 11.5328 20.7513C12.5704 19.6231 13.1298 18.1216 13.0892 16.5739C13.0892 14.9297 12.5652 13.5426 11.5328 12.4125C11.0355 11.8604 10.4285 11.4233 9.75241 11.1305C9.07633 10.8377 8.34681 10.6959 7.61276 10.7148H4.91907V11.6681Z" fill="url(#paint1_linear_144_797)"></path><path d="M25.7192 13.1624L21.4743 22.6955H21.3013L16.7682 12.4983C17.2818 13.7194 17.5543 15.0583 17.6853 16.5739C17.8582 18.6091 17.2975 20.4407 16.2336 22.0581L20.7406 31.9286C20.8559 32.1428 21.0131 32.25 21.2227 32.25H21.5057C21.7154 32.25 21.8726 32.1482 21.9826 31.934L26.5734 21.9457C25.618 20.3542 25.1305 18.5156 25.1689 16.6489C25.1689 15.4064 25.3471 14.2389 25.7192 13.1624Z" fill="url(#paint2_linear_144_797)"></path></g><g clip-path="url(#clip1_144_797)"><path d="M108.158 21.3252C107.954 20.5953 107.597 19.9166 107.111 19.3334C106.874 18.1574 106.369 17.0544 105.535 16.355C105.016 15.8965 104.396 15.5663 103.724 15.3914C103.688 15.3838 103.65 15.3859 103.615 15.3976C103.58 15.4092 103.548 15.43 103.524 15.4577C103.499 15.4855 103.482 15.5192 103.475 15.5555C103.468 15.5917 103.471 15.6292 103.483 15.6641C103.693 16.2073 104.037 17.3291 103.884 18.2053C103.711 17.7882 103.483 17.3962 103.205 17.0398C102.813 16.5361 102.593 16.2551 102.712 15.6557C102.815 15.1354 103.511 14.7025 104.366 14.5547C104.401 14.5462 104.434 14.5286 104.46 14.5037C104.487 14.4788 104.506 14.4475 104.517 14.4128C104.527 14.3781 104.529 14.3412 104.521 14.3059C104.512 14.2706 104.495 14.238 104.47 14.2113C103.984 13.7763 102.978 13 101.794 13C100.139 13 99.2505 13.845 98.999 15.2624C98.7895 16.4674 99.1143 17.327 99.3532 17.9556C99.393 18.0555 99.4265 18.147 99.4559 18.2282C99.2631 18.0971 99.0368 17.9597 98.8042 17.8224C97.0963 16.8704 95.1675 16.3789 93.2092 16.3967C91.2516 16.3791 89.3234 16.8706 87.6163 17.8224C87.3753 17.9597 87.1574 18.0971 86.9646 18.2282C86.9939 18.147 87.0274 18.0555 87.0673 17.9556C87.3062 17.3312 87.6351 16.4674 87.4214 15.2624C87.1678 13.845 86.2815 13 84.626 13C83.4483 13 82.4341 13.7763 81.9563 14.2196C81.9316 14.2463 81.9143 14.2789 81.9061 14.3142C81.898 14.3496 81.8992 14.3864 81.9098 14.4211C81.9204 14.4558 81.9399 14.4872 81.9665 14.5121C81.993 14.5369 82.0256 14.5545 82.0611 14.5631C82.9161 14.7108 83.6118 15.1437 83.7145 15.6641C83.8339 16.2635 83.6139 16.5444 83.222 17.0481C82.9432 17.404 82.7148 17.7962 82.5431 18.2136C82.3901 17.3333 82.7401 16.2156 82.9433 15.6724C82.9558 15.6373 82.9586 15.5996 82.9515 15.5631C82.9443 15.5267 82.9275 15.4927 82.9027 15.4649C82.8779 15.4371 82.846 15.4164 82.8104 15.4049C82.7748 15.3934 82.7368 15.3916 82.7002 15.3997C82.0296 15.5755 81.4101 15.9056 80.8918 16.3634C80.0536 17.0627 79.5528 18.1658 79.316 19.3417C78.8294 19.9249 78.4723 20.6037 78.2683 21.3335C77.8701 23.0131 77.7444 24.8259 79.2301 26.5596C80.1815 27.671 81.707 28.2476 83.5929 28.2476C83.9832 28.3128 84.3639 28.4254 84.7266 28.5826C86.1746 29.1134 88.6012 30 93.2155 30C97.8297 30 100.258 29.1134 101.706 28.5826C102.069 28.4254 102.45 28.3128 102.84 28.2476C104.726 28.2476 106.249 27.671 107.203 26.5596C108.682 24.8259 108.557 23.0131 108.158 21.3252ZM102.834 27.2277C101.549 27.2277 99.6256 28.9802 93.2092 28.9802C86.7928 28.9802 84.8691 27.2277 83.5866 27.2277C78.4548 27.2277 79.031 22.4179 79.031 22.4179C79.031 22.4179 79.9824 24.8197 82.4006 24.8197C82.6936 24.819 82.9857 24.7883 83.2723 24.7281C83.2971 24.7213 83.319 24.7067 83.3346 24.6864C83.3501 24.6661 83.3586 24.6412 83.3586 24.6157C83.3586 24.5902 83.3501 24.5653 83.3346 24.545C83.319 24.5247 83.2971 24.5101 83.2723 24.5033C79.5339 23.394 79.5004 19.0566 81.7216 16.969C80.7829 20.936 83.5824 22.1723 84.6553 22.5073C84.6778 22.5136 84.7018 22.5124 84.7235 22.5039C84.7452 22.4954 84.7635 22.4801 84.7757 22.4603C84.7878 22.4404 84.793 22.4172 84.7906 22.3941C84.7882 22.3711 84.7782 22.3494 84.7622 22.3325C84.077 21.6228 82.497 19.6601 84.0351 17.6704C85.9629 15.1854 83.3939 14.23 83.3939 14.23C83.7912 14.0975 84.2069 14.0273 84.626 14.0219C85.3678 14.0219 86.206 14.2904 86.4093 15.4414C86.7886 17.5705 84.9424 18.3156 86.271 20.0327C86.279 20.0434 86.2894 20.0522 86.3014 20.0582C86.3134 20.0642 86.3267 20.0674 86.3401 20.0674C86.3536 20.0674 86.3669 20.0642 86.3789 20.0582C86.3909 20.0522 86.4013 20.0434 86.4093 20.0327C86.4093 20.0327 88.7143 17.4207 93.2092 17.4207C97.704 17.4207 100.003 20.0285 100.003 20.0285C100.011 20.0393 100.021 20.048 100.033 20.0541C100.045 20.0601 100.058 20.0632 100.072 20.0632C100.085 20.0632 100.099 20.0601 100.111 20.0541C100.123 20.048 100.133 20.0393 100.141 20.0285C101.476 18.3115 99.6235 17.5664 100.003 15.4372C100.212 14.2862 101.051 14.0178 101.786 14.0178C102.205 14.0231 102.621 14.0933 103.018 14.2259C103.018 14.2259 100.451 15.1812 102.375 17.6663C103.913 19.6518 102.337 21.6207 101.644 22.3284C101.628 22.3453 101.618 22.3669 101.615 22.39C101.613 22.413 101.618 22.4363 101.63 22.4561C101.642 22.4759 101.661 22.4913 101.682 22.4998C101.704 22.5083 101.728 22.5095 101.75 22.5032C102.825 22.1785 105.625 20.9318 104.684 16.9649C106.91 19.0462 106.87 23.3898 103.133 24.4991C103.109 24.5059 103.087 24.5206 103.071 24.5409C103.056 24.5612 103.047 24.586 103.047 24.6115C103.047 24.6371 103.056 24.6619 103.071 24.6822C103.087 24.7025 103.109 24.7172 103.133 24.7239C103.42 24.7841 103.712 24.8148 104.005 24.8155C106.419 24.8155 107.368 22.4137 107.368 22.4137C107.368 22.4137 107.966 27.2277 102.834 27.2277Z" fill="#353940"></path><path d="M88.9763 22.9902C88.9822 22.8694 88.9633 22.7488 88.9209 22.6355C88.8784 22.5222 88.8132 22.4187 88.7292 22.3311C88.6453 22.2436 88.5443 22.174 88.4324 22.1264C88.3206 22.0787 88.2001 22.0542 88.0784 22.0542C87.9567 22.0542 87.8363 22.0787 87.7244 22.1264C87.6125 22.174 87.5115 22.2436 87.4276 22.3311C87.3436 22.4187 87.2784 22.5222 87.236 22.6355C87.1935 22.7488 87.1746 22.8694 87.1805 22.9902C87.1805 23.4814 87.5828 23.627 88.0774 23.627C88.5719 23.627 88.9763 23.4876 88.9763 22.9902Z" fill="#353940"></path><path d="M99.24 22.9902C99.2459 22.8694 99.227 22.7488 99.1845 22.6355C99.1421 22.5222 99.0769 22.4187 98.9929 22.3311C98.909 22.2436 98.808 22.174 98.6961 22.1264C98.5842 22.0787 98.4638 22.0542 98.3421 22.0542C98.2204 22.0542 98.0999 22.0787 97.9881 22.1264C97.8762 22.174 97.7752 22.2436 97.6913 22.3311C97.6073 22.4187 97.5421 22.5222 97.4996 22.6355C97.4572 22.7488 97.4383 22.8694 97.4442 22.9902C97.4442 23.4814 97.8465 23.627 98.3431 23.627C98.8398 23.627 99.24 23.4876 99.24 22.9902Z" fill="#353940"></path><path d="M93.2092 26.5013C91.8338 26.4926 90.4821 26.1443 89.276 25.4877C89.2192 25.4541 89.1712 25.4077 89.1359 25.3523C89.1006 25.2968 89.079 25.2338 89.0729 25.1685C89.0667 25.1031 89.0762 25.0373 89.1006 24.9763C89.125 24.9153 89.1635 24.8609 89.2131 24.8175C89.276 24.7626 89.3545 24.7283 89.4378 24.7194C89.521 24.7104 89.6051 24.7273 89.6783 24.7675C90.4746 25.2067 91.7906 25.4752 93.2092 25.4752C94.6279 25.4752 95.9334 25.2067 96.7423 24.7675C96.8155 24.7273 96.8995 24.7104 96.9828 24.7194C97.0661 24.7283 97.1445 24.7626 97.2075 24.8175C97.257 24.8609 97.2956 24.9153 97.32 24.9763C97.3444 25.0373 97.3539 25.1031 97.3477 25.1685C97.3416 25.2338 97.32 25.2968 97.2847 25.3523C97.2494 25.4077 97.2014 25.4541 97.1446 25.4877C95.9378 26.1446 94.5854 26.4929 93.2092 26.5013Z" fill="#353940"></path><path d="M85.194 27.6772C84.6675 27.4683 84.2305 27.0843 83.9576 26.5907C83.9523 26.5811 83.9439 26.5735 83.9338 26.5691C83.9237 26.5647 83.9124 26.5638 83.9017 26.5664C83.8909 26.569 83.8814 26.575 83.8744 26.5836C83.8675 26.5921 83.8636 26.6027 83.8633 26.6136V26.7364C83.8632 26.8284 83.8414 26.9191 83.7995 27.0012C83.7577 27.0833 83.697 27.1544 83.6223 27.2089L83.5825 27.238L83.8633 27.2672L85.194 27.6772Z" fill="#353940"></path><path d="M101.218 27.6772C101.745 27.4683 102.183 27.0843 102.457 26.5907C102.462 26.5811 102.47 26.5735 102.481 26.5691C102.491 26.5647 102.502 26.5638 102.513 26.5664C102.523 26.569 102.533 26.575 102.54 26.5836C102.547 26.5921 102.551 26.6027 102.551 26.6136V26.7364C102.551 26.8284 102.573 26.9191 102.615 27.0012C102.657 27.0833 102.717 27.1544 102.792 27.2089L102.832 27.238L102.551 27.2672L101.218 27.6772Z" fill="#353940"></path><path d="M86.7278 19.7183C86.5079 19.9225 86.304 20.143 86.118 20.3781C86.1111 20.386 86.1018 20.3914 86.0915 20.3935C86.0812 20.3956 86.0705 20.3943 86.061 20.3899C86.0515 20.3854 86.0438 20.378 86.0389 20.3687C86.0341 20.3594 86.0324 20.3488 86.0342 20.3386C86.0614 20.2033 86.0887 20.0784 86.1096 19.9889C86.1286 19.9 86.1137 19.8073 86.0677 19.7287L85.9944 19.6101L86.7278 19.7183Z" fill="#353940"></path><path d="M99.6948 19.7183C99.9148 19.9225 100.119 20.143 100.305 20.3781C100.311 20.3872 100.321 20.3937 100.332 20.3965C100.342 20.3993 100.354 20.3983 100.364 20.3936C100.374 20.389 100.382 20.3809 100.387 20.3708C100.392 20.3608 100.393 20.3494 100.391 20.3386C100.361 20.2033 100.334 20.0784 100.313 19.9889C100.294 19.9 100.309 19.8073 100.355 19.7287L100.428 19.6101L99.6948 19.7183Z" fill="#353940"></path><path d="M115.359 27.1716V18.9297H117.203V27.1716H115.359Z" fill="#353940"></path><path d="M124.74 27.1714H122.896V26.7135C122.399 27.1416 121.756 27.365 121.098 27.3379C120.723 27.3435 120.352 27.2705 120.007 27.1238C119.663 26.9772 119.353 26.7601 119.099 26.4867C118.823 26.1936 118.607 25.849 118.466 25.4728C118.325 25.0966 118.26 24.6963 118.275 24.2951C118.261 23.8945 118.326 23.4951 118.467 23.1197C118.609 22.7443 118.823 22.4003 119.099 22.1076C119.352 21.8326 119.661 21.6139 120.006 21.4661C120.351 21.3183 120.723 21.2447 121.098 21.2501C121.755 21.2239 122.398 21.4471 122.896 21.8745V21.4166H124.74V27.1714ZM122.475 25.369C122.746 25.0785 122.896 24.6972 122.896 24.3013C122.896 23.9054 122.746 23.5241 122.475 23.2336C122.347 23.0998 122.192 22.9937 122.021 22.9221C121.85 22.8504 121.665 22.8148 121.479 22.8173C121.292 22.8117 121.105 22.8459 120.932 22.9176C120.759 22.9894 120.603 23.0972 120.476 23.2336C120.209 23.5262 120.068 23.911 120.084 24.3055C120.067 24.7014 120.207 25.0882 120.476 25.3815C120.604 25.5178 120.759 25.6255 120.932 25.6973C121.105 25.769 121.292 25.8033 121.479 25.7977C121.666 25.7981 121.851 25.7602 122.022 25.6864C122.193 25.6126 122.348 25.5046 122.475 25.369Z" fill="#353940"></path><path d="M130.249 27.1716L128.363 25.0903H128.03V27.1716H126.197V18.9297H128.041V23.3837H128.292L130.123 21.4252H132.349L129.813 24.1621L132.613 27.1716H130.249Z" fill="#353940"></path><path d="M138.65 24.7676H134.411C134.47 25.0793 134.627 25.3643 134.859 25.5814C135.077 25.7776 135.362 25.8841 135.656 25.879C135.903 25.8964 136.15 25.8431 136.367 25.7254C136.585 25.6077 136.764 25.4306 136.884 25.2151L138.52 25.546C138.307 26.1027 137.916 26.5749 137.408 26.8905C136.876 27.2015 136.268 27.358 135.651 27.3421C135.251 27.351 134.854 27.2803 134.481 27.1341C134.109 26.9879 133.77 26.7692 133.485 26.4909C133.191 26.2075 132.96 25.866 132.807 25.4885C132.654 25.1111 132.582 24.706 132.596 24.2993C132.583 23.8933 132.655 23.489 132.808 23.1123C132.961 22.7356 133.191 22.3948 133.485 22.1118C133.771 21.831 134.111 21.6104 134.485 21.4631C134.86 21.3158 135.26 21.2448 135.662 21.2544C136.052 21.2445 136.439 21.3131 136.802 21.4562C137.164 21.5993 137.494 21.8138 137.77 22.0869C138.058 22.3779 138.284 22.7236 138.435 23.1034C138.585 23.4832 138.657 23.8892 138.646 24.2972L138.65 24.7676ZM134.918 22.9902C134.687 23.1502 134.52 23.3849 134.444 23.6541H136.829C136.765 23.3869 136.611 23.1492 136.393 22.9797C136.183 22.826 135.927 22.7455 135.666 22.7508C135.398 22.7506 135.136 22.8343 134.918 22.9902Z" fill="#353940"></path><path d="M141.626 22.7821H145.242V24.4305H141.626V27.1778H139.723V19.502H145.685V21.167H141.626V22.7821Z" fill="#353940"></path><path d="M151.835 19.9203C152.113 20.109 152.351 20.3502 152.535 20.6302C152.719 20.9101 152.846 21.2234 152.908 21.552L151.041 21.9288C150.988 21.6118 150.815 21.327 150.557 21.1337C150.307 20.9479 150.003 20.8491 149.691 20.8527C149.423 20.8409 149.159 20.9202 148.943 21.0775C148.854 21.14 148.781 21.2229 148.731 21.3193C148.681 21.4157 148.655 21.5227 148.656 21.6311C148.656 21.9683 148.866 22.1806 149.285 22.2722L150.888 22.6281C152.294 22.9403 152.999 23.6854 153 24.8634C153.015 25.2201 152.939 25.5749 152.78 25.895C152.621 26.2151 152.383 26.4902 152.088 26.6949C151.422 27.1478 150.626 27.3762 149.819 27.3464C149.012 27.3721 148.216 27.1599 147.531 26.7365C147.231 26.5511 146.978 26.3009 146.79 26.0047C146.602 25.7085 146.483 25.3738 146.443 25.0257L148.409 24.6428C148.593 25.3962 149.1 25.7736 149.928 25.775C150.222 25.7939 150.515 25.7211 150.766 25.5669C150.861 25.5045 150.939 25.4194 150.993 25.3194C151.046 25.2194 151.073 25.1077 151.072 24.9945C151.08 24.8348 151.025 24.6784 150.917 24.5595C150.758 24.427 150.564 24.3431 150.358 24.3181L148.744 23.9747C147.361 23.6625 146.669 22.9222 146.669 21.7539C146.657 21.4149 146.727 21.0779 146.873 20.7712C147.018 20.4644 147.236 20.1969 147.508 19.9911C148.066 19.5568 148.803 19.3396 149.718 19.3396C150.467 19.3107 151.207 19.5136 151.835 19.9203Z" fill="#353940"></path></g><path d="M57.4609 26.8484V16.3484C57.4609 16.2546 57.4922 16.1739 57.5547 16.1062C57.6224 16.0333 57.7031 15.9968 57.7969 15.9968H58.2734C58.362 15.9968 58.4427 16.0333 58.5156 16.1062C58.5885 16.1791 58.625 16.2598 58.625 16.3484V20.114C58.6875 20.0776 58.7734 20.0333 58.8828 19.9812C58.9974 19.9291 59.2318 19.8614 59.5859 19.7781C59.9453 19.6895 60.3073 19.6453 60.6719 19.6453C61.3906 19.6453 62.0156 19.8171 62.5469 20.1609C63.0833 20.5046 63.487 20.9656 63.7578 21.5437C64.0286 22.1166 64.1641 22.7651 64.1641 23.489C64.1641 24.1869 64.0208 24.8328 63.7344 25.4265C63.4479 26.0203 63.0495 26.4942 62.5391 26.8484C62.0286 27.2026 61.4661 27.3796 60.8516 27.3796C60.5703 27.3796 60.2969 27.3458 60.0312 27.2781C59.7708 27.2156 59.5521 27.1375 59.375 27.0437C59.1979 26.95 59.0417 26.8562 58.9062 26.7625C58.7708 26.6635 58.6719 26.5802 58.6094 26.5125L58.5156 26.4187L58.4219 26.8953C58.3854 27.0984 58.2786 27.2 58.1016 27.2H57.8125C57.7135 27.2 57.6302 27.1661 57.5625 27.0984C57.4948 27.0307 57.4609 26.9473 57.4609 26.8484ZM58.625 25.0906C58.6458 25.1218 58.6745 25.1661 58.7109 25.2234C58.7526 25.2755 58.8411 25.3718 58.9766 25.5125C59.1172 25.6531 59.263 25.7755 59.4141 25.8796C59.5651 25.9838 59.7578 26.0802 59.9922 26.1687C60.2318 26.2572 60.4766 26.3015 60.7266 26.3015C61.1589 26.3015 61.5469 26.1687 61.8906 25.9031C62.2396 25.6322 62.5052 25.2859 62.6875 24.864C62.8698 24.4421 62.9609 23.989 62.9609 23.5046C62.9609 22.7234 62.7422 22.0645 62.3047 21.5281C61.8724 20.9916 61.2708 20.7234 60.5 20.7234C60.1979 20.7234 59.8906 20.7625 59.5781 20.8406C59.2656 20.9135 59.0286 20.989 58.8672 21.0671L58.625 21.1843V25.0906ZM67.9609 27.1843L65.25 20.2078C65.2031 20.0828 65.2031 19.9864 65.25 19.9187C65.3021 19.8458 65.3984 19.8093 65.5391 19.8093H66.2109C66.3724 19.8093 66.4792 19.877 66.5312 20.0125L68.6328 25.8875H68.6641L71.1562 20.0125C71.2083 19.877 71.3151 19.8093 71.4766 19.8093H72.0703C72.2161 19.8093 72.3151 19.8484 72.3672 19.9265C72.4193 20.0046 72.4167 20.1036 72.3594 20.2234L67.7344 30.7859C67.7083 30.8432 67.6641 30.8927 67.6016 30.9343C67.5391 30.9812 67.4766 31.0046 67.4141 31.0046H66.8359C66.6901 31.0046 66.5885 30.963 66.5312 30.8796C66.474 30.7963 66.474 30.6895 66.5312 30.5593L67.9609 27.1843Z" fill="#353940"></path><defs><linearGradient id="paint0_linear_144_797" x1="33.8155" y1="16.6257" x2="33.8155" y2="26.7735" gradientUnits="userSpaceOnUse"><stop stop-color="#F46837"></stop><stop offset="1" stop-color="#DD5236"></stop></linearGradient><linearGradient id="paint1_linear_144_797" x1="9.12681" y1="16.6256" x2="9.12681" y2="26.745" gradientUnits="userSpaceOnUse"><stop stop-color="#13ADC7"></stop><stop offset="1" stop-color="#1497B8"></stop></linearGradient><linearGradient id="paint2_linear_144_797" x1="17.5697" y1="22.5169" x2="17.5697" y2="32.1571" gradientUnits="userSpaceOnUse"><stop stop-color="#7E51C2"></stop><stop offset="1" stop-color="#945DD6"></stop></linearGradient><clipPath id="clip0_144_797"><rect width="43" height="34.4" fill="white"></rect></clipPath><clipPath id="clip1_144_797"><rect width="75" height="17" fill="white" transform="translate(78 13)"></rect></clipPath></defs></svg>
