<svg xmlns="http://www.w3.org/2000/svg" width="150" height="30" viewBox="0 0 133 25" fill="none"><g clip-path="url(#clip0_144_797)"><path d="M88.1585 13.3252C87.9544 12.5953 87.5973 11.9166 87.1107 11.3334C86.8739 10.1574 86.3689 9.05436 85.5349 8.35504C85.0164 7.89647 84.396 7.56627 83.7244 7.39141C83.688 7.38378 83.6502 7.3859 83.615 7.39756C83.5797 7.40921 83.5481 7.42999 83.5236 7.45774C83.4991 7.48549 83.4824 7.51923 83.4754 7.55549C83.4683 7.59174 83.4711 7.62921 83.4834 7.66405C83.693 8.20727 84.0366 9.32909 83.8836 10.2053C83.7111 9.78824 83.4828 9.39619 83.2047 9.03979C82.8128 8.53612 82.5928 8.25514 82.7123 7.65573C82.8149 7.13541 83.5106 6.7025 84.3656 6.55473C84.4011 6.5462 84.4337 6.52862 84.4602 6.50373C84.4868 6.47883 84.5063 6.44748 84.5169 6.41279C84.5275 6.37809 84.5288 6.34125 84.5206 6.30591C84.5124 6.27057 84.4951 6.23796 84.4704 6.21131C83.9842 5.77632 82.9784 5 81.7944 5C80.139 5 79.2505 5.845 78.999 7.26237C78.7895 8.46743 79.1143 9.32701 79.3532 9.95556C79.393 10.0555 79.4265 10.147 79.4559 10.2282C79.2631 10.0971 79.0368 9.95972 78.8042 9.82236C77.0963 8.87045 75.1675 8.37894 73.2092 8.39667C71.2516 8.37911 69.3234 8.87062 67.6163 9.82236C67.3753 9.95972 67.1574 10.0971 66.9646 10.2282C66.9939 10.147 67.0274 10.0555 67.0673 9.95556C67.3062 9.33117 67.6351 8.46743 67.4214 7.26237C67.1678 5.845 66.2815 5 64.626 5C63.4483 5 62.4341 5.77632 61.9563 6.21964C61.9316 6.24629 61.9143 6.2789 61.9061 6.31423C61.898 6.34957 61.8992 6.38641 61.9098 6.42111C61.9204 6.45581 61.9399 6.48716 61.9665 6.51205C61.993 6.53695 62.0256 6.55453 62.0611 6.56305C62.9161 6.71082 63.6118 7.14373 63.7145 7.66405C63.8339 8.26347 63.6139 8.54444 63.222 9.04811C62.9432 9.40402 62.7148 9.79617 62.5431 10.2136C62.3901 9.33325 62.7401 8.2156 62.9433 7.67238C62.9558 7.63734 62.9586 7.59962 62.9515 7.56314C62.9443 7.52665 62.9275 7.49273 62.9027 7.4649C62.8779 7.43708 62.846 7.41636 62.8104 7.40489C62.7748 7.39343 62.7368 7.39165 62.7002 7.39973C62.0296 7.57548 61.4101 7.9056 60.8918 8.36337C60.0536 9.06268 59.5528 10.1658 59.316 11.3417C58.8294 11.9249 58.4723 12.6037 58.2683 13.3335C57.8701 15.0131 57.7444 16.8259 59.2301 18.5596C60.1815 19.671 61.707 20.2476 63.5929 20.2476C63.9832 20.3128 64.3639 20.4254 64.7266 20.5826C66.1746 21.1134 68.6012 22 73.2155 22C77.8297 22 80.2584 21.1134 81.7064 20.5826C82.0691 20.4254 82.4498 20.3128 82.8401 20.2476C84.726 20.2476 86.2495 19.671 87.2029 18.5596C88.6823 16.8259 88.5566 15.0131 88.1585 13.3252ZM82.8338 19.2277C81.5493 19.2277 79.6256 20.9802 73.2092 20.9802C66.7928 20.9802 64.8691 19.2277 63.5866 19.2277C58.4548 19.2277 59.031 14.4179 59.031 14.4179C59.031 14.4179 59.9824 16.8197 62.4006 16.8197C62.6936 16.819 62.9857 16.7883 63.2723 16.7281C63.2971 16.7213 63.319 16.7067 63.3346 16.6864C63.3501 16.6661 63.3586 16.6412 63.3586 16.6157C63.3586 16.5902 63.3501 16.5653 63.3346 16.545C63.319 16.5247 63.2971 16.5101 63.2723 16.5033C59.5339 15.394 59.5004 11.0566 61.7216 8.96903C60.7829 12.936 63.5824 14.1723 64.6553 14.5073C64.6778 14.5136 64.7018 14.5124 64.7235 14.5039C64.7452 14.4954 64.7635 14.4801 64.7757 14.4603C64.7878 14.4404 64.793 14.4172 64.7906 14.3941C64.7882 14.3711 64.7782 14.3494 64.7622 14.3325C64.077 13.6228 62.497 11.6601 64.0351 9.67042C65.9629 7.18536 63.3939 6.23004 63.3939 6.23004C63.7912 6.09748 64.2069 6.02726 64.626 6.02191C65.3678 6.02191 66.206 6.2904 66.4093 7.44136C66.7886 9.57052 64.9424 10.3156 66.271 12.0327C66.279 12.0434 66.2894 12.0522 66.3014 12.0582C66.3134 12.0642 66.3267 12.0674 66.3401 12.0674C66.3536 12.0674 66.3669 12.0642 66.3789 12.0582C66.3909 12.0522 66.4013 12.0434 66.4093 12.0327C66.4093 12.0327 68.7143 9.42067 73.2092 9.42067C77.704 9.42067 80.0028 12.0285 80.0028 12.0285C80.0108 12.0393 80.0212 12.048 80.0332 12.0541C80.0452 12.0601 80.0585 12.0632 80.0719 12.0632C80.0854 12.0632 80.0987 12.0601 80.1107 12.0541C80.1227 12.048 80.1331 12.0393 80.1411 12.0285C81.4759 10.3115 79.6235 9.56636 80.0028 7.43719C80.2123 6.28624 81.0505 6.01775 81.786 6.01775C82.2052 6.02309 82.6209 6.09331 83.0182 6.22588C83.0182 6.22588 80.4512 7.1812 82.3749 9.66626C83.913 11.6518 82.3372 13.6207 81.6436 14.3284C81.6276 14.3453 81.6176 14.3669 81.6152 14.39C81.6127 14.413 81.618 14.4363 81.6301 14.4561C81.6422 14.4759 81.6606 14.4913 81.6823 14.4998C81.704 14.5083 81.7279 14.5095 81.7504 14.5032C82.8254 14.1785 85.625 12.9318 84.6841 8.96486C86.9095 11.0462 86.8697 15.3898 83.1335 16.4991C83.1087 16.5059 83.0868 16.5206 83.0712 16.5409C83.0556 16.5612 83.0472 16.586 83.0472 16.6115C83.0472 16.6371 83.0556 16.6619 83.0712 16.6822C83.0868 16.7025 83.1087 16.7172 83.1335 16.7239C83.4201 16.7841 83.7122 16.8148 84.0052 16.8155C86.4192 16.8155 87.3685 14.4137 87.3685 14.4137C87.3685 14.4137 87.9657 19.2277 82.8338 19.2277Z" fill="white"></path><path d="M68.9763 14.9902C68.9822 14.8694 68.9633 14.7488 68.9209 14.6355C68.8784 14.5222 68.8132 14.4187 68.7292 14.3311C68.6453 14.2436 68.5443 14.174 68.4324 14.1264C68.3206 14.0787 68.2001 14.0542 68.0784 14.0542C67.9567 14.0542 67.8363 14.0787 67.7244 14.1264C67.6125 14.174 67.5115 14.2436 67.4276 14.3311C67.3436 14.4187 67.2784 14.5222 67.236 14.6355C67.1935 14.7488 67.1746 14.8694 67.1805 14.9902C67.1805 15.4814 67.5828 15.627 68.0774 15.627C68.5719 15.627 68.9763 15.4876 68.9763 14.9902Z" fill="white"></path><path d="M79.24 14.9902C79.2459 14.8694 79.227 14.7488 79.1845 14.6355C79.1421 14.5222 79.0769 14.4187 78.9929 14.3311C78.909 14.2436 78.808 14.174 78.6961 14.1264C78.5842 14.0787 78.4638 14.0542 78.3421 14.0542C78.2204 14.0542 78.0999 14.0787 77.9881 14.1264C77.8762 14.174 77.7752 14.2436 77.6913 14.3311C77.6073 14.4187 77.5421 14.5222 77.4996 14.6355C77.4572 14.7488 77.4383 14.8694 77.4442 14.9902C77.4442 15.4814 77.8465 15.627 78.3431 15.627C78.8398 15.627 79.24 15.4876 79.24 14.9902Z" fill="white"></path><path d="M73.2092 18.5014C71.8338 18.4928 70.4821 18.1444 69.276 17.4878C69.2192 17.4543 69.1712 17.4079 69.1359 17.3524C69.1006 17.2969 69.079 17.2339 69.0729 17.1686C69.0667 17.1033 69.0762 17.0374 69.1006 16.9764C69.125 16.9154 69.1635 16.861 69.2131 16.8176C69.276 16.7627 69.3545 16.7284 69.4378 16.7195C69.521 16.7106 69.6051 16.7274 69.6783 16.7677C70.4746 17.2068 71.7906 17.4753 73.2092 17.4753C74.6279 17.4753 75.9334 17.2068 76.7423 16.7677C76.8155 16.7274 76.8995 16.7106 76.9828 16.7195C77.0661 16.7284 77.1445 16.7627 77.2075 16.8176C77.257 16.861 77.2956 16.9154 77.32 16.9764C77.3444 17.0374 77.3539 17.1033 77.3477 17.1686C77.3416 17.2339 77.32 17.2969 77.2847 17.3524C77.2494 17.4079 77.2014 17.4543 77.1446 17.4878C75.9378 18.1447 74.5854 18.493 73.2092 18.5014Z" fill="white"></path><path d="M65.194 19.6773C64.6675 19.4684 64.2305 19.0844 63.9576 18.5909C63.9523 18.5813 63.9439 18.5737 63.9338 18.5693C63.9237 18.5649 63.9124 18.5639 63.9017 18.5665C63.8909 18.5691 63.8814 18.5751 63.8744 18.5837C63.8675 18.5922 63.8636 18.6028 63.8633 18.6138V18.7366C63.8632 18.8285 63.8414 18.9192 63.7995 19.0013C63.7577 19.0834 63.697 19.1545 63.6223 19.209L63.5825 19.2381L63.8633 19.2673L65.194 19.6773Z" fill="white"></path><path d="M81.2183 19.6773C81.7452 19.4684 82.1829 19.0844 82.4567 18.5909C82.462 18.5813 82.4704 18.5737 82.4805 18.5693C82.4906 18.5649 82.5019 18.5639 82.5127 18.5665C82.5234 18.5691 82.533 18.5751 82.5399 18.5837C82.5468 18.5922 82.5507 18.6028 82.551 18.6138V18.7366C82.5511 18.8285 82.5729 18.9192 82.6148 19.0013C82.6566 19.0834 82.7173 19.1545 82.792 19.209L82.8318 19.2381L82.551 19.2673L81.2183 19.6773Z" fill="white"></path><path d="M66.7278 11.7185C66.5079 11.9226 66.304 12.1432 66.118 12.3782C66.1111 12.3861 66.1018 12.3915 66.0915 12.3936C66.0812 12.3957 66.0705 12.3945 66.061 12.39C66.0515 12.3855 66.0438 12.3781 66.0389 12.3688C66.0341 12.3596 66.0324 12.349 66.0342 12.3387C66.0614 12.2034 66.0887 12.0785 66.1096 11.989C66.1286 11.9001 66.1137 11.8074 66.0677 11.7289L65.9944 11.6102L66.7278 11.7185Z" fill="white"></path><path d="M79.6948 11.7185C79.9148 11.9226 80.1186 12.1432 80.3046 12.3782C80.3112 12.3873 80.3207 12.3938 80.3315 12.3966C80.3424 12.3995 80.3539 12.3985 80.364 12.3938C80.3742 12.3891 80.3824 12.381 80.3873 12.371C80.3921 12.3609 80.3933 12.3495 80.3905 12.3387C80.3612 12.2034 80.334 12.0785 80.313 11.989C80.294 11.9001 80.3089 11.8074 80.3549 11.7289L80.4282 11.6102L79.6948 11.7185Z" fill="white"></path><path d="M95.3586 19.1715V10.9296H97.2027V19.1715H95.3586Z" fill="white"></path><path d="M104.74 19.1715H102.896V18.7136C102.399 19.1418 101.756 19.3651 101.098 19.338C100.723 19.3436 100.352 19.2706 100.007 19.124C99.6628 18.9773 99.3533 18.7602 99.099 18.4868C98.8226 18.1938 98.6074 17.8492 98.4661 17.473C98.3247 17.0968 98.2599 16.6964 98.2755 16.2952C98.2608 15.8947 98.326 15.4952 98.4674 15.1198C98.6087 14.7444 98.8234 14.4005 99.099 14.1077C99.3523 13.8327 99.6615 13.614 100.006 13.4662C100.351 13.3184 100.723 13.2448 101.098 13.2502C101.755 13.224 102.398 13.4472 102.896 13.8746V13.4167H104.74V19.1715ZM102.475 17.3691C102.746 17.0786 102.896 16.6973 102.896 16.3014C102.896 15.9055 102.746 15.5242 102.475 15.2337C102.347 15.0999 102.192 14.9938 102.021 14.9222C101.85 14.8506 101.665 14.8149 101.479 14.8175C101.292 14.8118 101.105 14.846 100.932 14.9178C100.759 14.9896 100.603 15.0973 100.476 15.2337C100.209 15.5263 100.068 15.9111 100.084 16.3056C100.067 16.7016 100.207 17.0883 100.476 17.3816C100.604 17.5179 100.759 17.6256 100.932 17.6974C101.105 17.7692 101.292 17.8034 101.479 17.7979C101.666 17.7982 101.851 17.7603 102.022 17.6865C102.193 17.6128 102.348 17.5047 102.475 17.3691Z" fill="white"></path><path d="M110.249 19.1715L108.363 17.0902H108.03V19.1715H106.197V10.9296H108.041V15.3835H108.292L110.123 13.425H112.349L109.813 16.1619L112.613 19.1715H110.249Z" fill="white"></path><path d="M118.65 16.7676H114.411C114.47 17.0793 114.627 17.3643 114.859 17.5814C115.077 17.7776 115.362 17.8841 115.656 17.879C115.903 17.8964 116.15 17.8431 116.367 17.7254C116.585 17.6077 116.764 17.4306 116.884 17.2151L118.52 17.546C118.307 18.1027 117.916 18.5749 117.408 18.8905C116.876 19.2015 116.268 19.358 115.651 19.3421C115.251 19.351 114.854 19.2803 114.481 19.1341C114.109 18.9879 113.77 18.7692 113.485 18.4909C113.191 18.2075 112.96 17.866 112.807 17.4885C112.654 17.1111 112.582 16.706 112.596 16.2993C112.583 15.8933 112.655 15.489 112.808 15.1123C112.961 14.7356 113.191 14.3948 113.485 14.1118C113.771 13.831 114.111 13.6104 114.485 13.4631C114.86 13.3158 115.26 13.2448 115.662 13.2544C116.052 13.2445 116.439 13.3131 116.802 13.4562C117.164 13.5993 117.494 13.8138 117.77 14.0869C118.058 14.3779 118.284 14.7236 118.435 15.1034C118.585 15.4832 118.657 15.8892 118.646 16.2972L118.65 16.7676ZM114.918 14.9902C114.687 15.1502 114.52 15.3849 114.444 15.6541H116.829C116.765 15.3869 116.611 15.1492 116.393 14.9797C116.183 14.826 115.927 14.7455 115.666 14.7508C115.398 14.7506 115.136 14.8343 114.918 14.9902Z" fill="white"></path><path d="M121.626 14.7821H125.242V16.4305H121.626V19.1778H119.723V11.502H125.685V13.167H121.626V14.7821Z" fill="white"></path><path d="M131.835 11.9203C132.113 12.109 132.351 12.3502 132.535 12.6302C132.719 12.9101 132.846 13.2234 132.908 13.552L131.041 13.9288C130.988 13.6118 130.815 13.327 130.557 13.1337C130.307 12.9479 130.003 12.8491 129.691 12.8527C129.423 12.8409 129.159 12.9202 128.943 13.0775C128.854 13.14 128.781 13.2229 128.731 13.3193C128.681 13.4157 128.655 13.5227 128.656 13.6311C128.656 13.9683 128.866 14.1806 129.285 14.2722L130.888 14.6281C132.294 14.9403 132.999 15.6854 133 16.8634C133.015 17.2201 132.939 17.5749 132.78 17.895C132.621 18.2151 132.383 18.4902 132.088 18.6949C131.422 19.1478 130.626 19.3762 129.819 19.3464C129.012 19.3721 128.216 19.1599 127.531 18.7365C127.231 18.5511 126.978 18.3009 126.79 18.0047C126.602 17.7085 126.483 17.3738 126.443 17.0257L128.409 16.6428C128.593 17.3962 129.1 17.7736 129.928 17.775C130.222 17.7939 130.515 17.7211 130.766 17.5669C130.861 17.5045 130.939 17.4194 130.993 17.3194C131.046 17.2194 131.073 17.1077 131.072 16.9945C131.08 16.8348 131.025 16.6784 130.917 16.5595C130.758 16.427 130.564 16.3431 130.358 16.3181L128.744 15.9747C127.361 15.6625 126.669 14.9222 126.669 13.7539C126.657 13.4149 126.727 13.0779 126.873 12.7712C127.018 12.4644 127.236 12.1969 127.508 11.9911C128.066 11.5568 128.803 11.3396 129.718 11.3396C130.467 11.3107 131.207 11.5136 131.835 11.9203Z" fill="white"></path></g><path d="M37.4609 18.8484V8.34839C37.4609 8.25464 37.4922 8.17391 37.5547 8.1062C37.6224 8.03328 37.7031 7.99683 37.7969 7.99683H38.2734C38.362 7.99683 38.4427 8.03328 38.5156 8.1062C38.5885 8.17912 38.625 8.25985 38.625 8.34839V12.114C38.6875 12.0776 38.7734 12.0333 38.8828 11.9812C38.9974 11.9291 39.2318 11.8614 39.5859 11.7781C39.9453 11.6895 40.3073 11.6453 40.6719 11.6453C41.3906 11.6453 42.0156 11.8171 42.5469 12.1609C43.0833 12.5046 43.487 12.9656 43.7578 13.5437C44.0286 14.1166 44.1641 14.7651 44.1641 15.489C44.1641 16.1869 44.0208 16.8328 43.7344 17.4265C43.4479 18.0203 43.0495 18.4942 42.5391 18.8484C42.0286 19.2026 41.4661 19.3796 40.8516 19.3796C40.5703 19.3796 40.2969 19.3458 40.0312 19.2781C39.7708 19.2156 39.5521 19.1375 39.375 19.0437C39.1979 18.95 39.0417 18.8562 38.9062 18.7625C38.7708 18.6635 38.6719 18.5802 38.6094 18.5125L38.5156 18.4187L38.4219 18.8953C38.3854 19.0984 38.2786 19.2 38.1016 19.2H37.8125C37.7135 19.2 37.6302 19.1661 37.5625 19.0984C37.4948 19.0307 37.4609 18.9473 37.4609 18.8484ZM38.625 17.0906C38.6458 17.1218 38.6745 17.1661 38.7109 17.2234C38.7526 17.2755 38.8411 17.3718 38.9766 17.5125C39.1172 17.6531 39.263 17.7755 39.4141 17.8796C39.5651 17.9838 39.7578 18.0802 39.9922 18.1687C40.2318 18.2572 40.4766 18.3015 40.7266 18.3015C41.1589 18.3015 41.5469 18.1687 41.8906 17.9031C42.2396 17.6322 42.5052 17.2859 42.6875 16.864C42.8698 16.4421 42.9609 15.989 42.9609 15.5046C42.9609 14.7234 42.7422 14.0645 42.3047 13.5281C41.8724 12.9916 41.2708 12.7234 40.5 12.7234C40.1979 12.7234 39.8906 12.7625 39.5781 12.8406C39.2656 12.9135 39.0286 12.989 38.8672 13.0671L38.625 13.1843V17.0906ZM47.9609 19.1843L45.25 12.2078C45.2031 12.0828 45.2031 11.9864 45.25 11.9187C45.3021 11.8458 45.3984 11.8093 45.5391 11.8093H46.2109C46.3724 11.8093 46.4792 11.877 46.5312 12.0125L48.6328 17.8875H48.6641L51.1562 12.0125C51.2083 11.877 51.3151 11.8093 51.4766 11.8093H52.0703C52.2161 11.8093 52.3151 11.8484 52.3672 11.9265C52.4193 12.0046 52.4167 12.1036 52.3594 12.2234L47.7344 22.7859C47.7083 22.8432 47.6641 22.8927 47.6016 22.9343C47.5391 22.9812 47.4766 23.0046 47.4141 23.0046H46.8359C46.6901 23.0046 46.5885 22.963 46.5312 22.8796C46.474 22.7963 46.474 22.6895 46.5312 22.5593L47.9609 19.1843Z" fill="white"></path><path d="M20.2457 17.1804C18.81 15.7596 18.145 14.0375 18.145 12.0066C18.145 9.96413 18.8062 8.23438 20.2457 6.80193C20.9329 6.10303 21.7506 5.55249 22.6501 5.18303C23.5497 4.81358 24.5128 4.63276 25.4822 4.65132C27.3099 4.62067 29.0816 5.29636 30.4428 6.54324C30.6506 6.73629 30.6544 6.92934 30.4655 7.11467L28.8674 8.76334C28.6898 8.92551 28.516 8.92551 28.3535 8.76334C27.5887 8.0776 26.6015 7.70736 25.5842 7.72472C24.4356 7.72472 23.4797 8.13399 22.7128 8.96026C22.3474 9.35361 22.0624 9.81738 21.8743 10.3245C21.6862 10.8316 21.5987 11.372 21.6171 11.914C21.6171 13.0568 21.9572 14.0298 22.7279 14.8368C23.0995 15.2313 23.5473 15.5425 24.0429 15.7506C24.5386 15.9587 25.0712 16.059 25.6068 16.0453C26.6076 16.0684 27.583 15.7215 28.3535 15.0684C28.5424 14.9063 28.72 14.914 28.8825 15.0878L30.4844 16.7789C30.662 16.9565 30.6544 17.138 30.4655 17.3272C29.1248 18.632 27.3331 19.3414 25.4822 19.3002C24.515 19.3194 23.5539 19.1416 22.6548 18.777C21.7557 18.4124 20.9367 17.8683 20.2457 17.1766V17.1804V17.1804Z" fill="url(#paint0_linear_144_797)"></path><path d="M0.387671 18.8754V5.05285C0.385939 5.00035 0.395148 4.94806 0.414689 4.89947C0.43423 4.85088 0.463656 4.80709 0.501015 4.771C0.532562 4.73421 0.571511 4.70481 0.615199 4.68482C0.658887 4.66483 0.706284 4.65471 0.75415 4.65517H5.69217C7.71725 4.80961 9.2285 5.38877 10.6189 6.81736C12.0168 8.24595 12.5722 9.86759 12.7497 11.9526C12.9197 13.9603 12.0999 15.6978 10.7095 17.1264C10.0627 17.8182 9.28348 18.3666 8.42027 18.7373C7.55706 19.1079 6.62841 19.293 5.69217 19.2808H0.75415C0.706398 19.2805 0.659229 19.2701 0.615646 19.2502C0.572063 19.2302 0.533024 19.2012 0.501015 19.165C0.463556 19.1282 0.434105 19.0837 0.414576 19.0345C0.395048 18.9852 0.385881 18.9324 0.387671 18.8793V18.8754ZM3.54619 8.41197V16.1843H5.48815C6.62159 16.1843 7.56612 15.775 8.3142 14.9603C9.06226 14.147 9.46557 13.0645 9.4363 11.9487C9.4363 10.7634 9.05849 9.76334 8.3142 8.94866C7.95571 8.5506 7.51809 8.23546 7.03069 8.02437C6.54328 7.81328 6.01735 7.7111 5.48815 7.7247H3.54619V8.41197Z" fill="url(#paint1_linear_144_797)"></path><path d="M18.5416 9.48915L15.4813 16.3618H15.3566L12.0885 9.01038C12.4588 9.8907 12.6552 10.856 12.7497 11.9486C12.8743 13.4158 12.4701 14.7363 11.7031 15.9024L14.9523 23.0183C15.0354 23.1727 15.1488 23.2499 15.2999 23.2499H15.5039C15.6551 23.2499 15.7684 23.1766 15.8477 23.0221L19.1574 15.8213C18.4686 14.674 18.1171 13.3484 18.1448 12.0027C18.1448 11.1069 18.2733 10.2652 18.5416 9.48915Z" fill="url(#paint2_linear_144_797)"></path><defs><linearGradient id="paint0_linear_144_797" x1="24.3788" y1="11.986" x2="24.3788" y2="19.3019" gradientUnits="userSpaceOnUse"><stop stop-color="#F46837"></stop><stop offset="1" stop-color="#DD5236"></stop></linearGradient><linearGradient id="paint1_linear_144_797" x1="6.57968" y1="11.986" x2="6.57968" y2="19.2814" gradientUnits="userSpaceOnUse"><stop stop-color="#13ADC7"></stop><stop offset="1" stop-color="#1497B8"></stop></linearGradient><linearGradient id="paint2_linear_144_797" x1="12.6663" y1="16.2331" x2="12.6663" y2="23.183" gradientUnits="userSpaceOnUse"><stop stop-color="#7E51C2"></stop><stop offset="1" stop-color="#945DD6"></stop></linearGradient><clipPath id="clip0_144_797"><rect width="75" height="17" fill="white" transform="translate(58 5)"></rect></clipPath></defs></svg>
