<svg width="16" height="16" viewBox="0 0 16 16" fill="none" xmlns="http://www.w3.org/2000/svg">
<path fill-rule="evenodd" clip-rule="evenodd" d="M11.659 2.92678C11.8165 2.76929 11.705 2.5 11.4822 2.5H9.25C9.11193 2.5 9 2.38807 9 2.25V0.75C9 0.611929 9.11193 0.5 9.25 0.5H14.5H15.25C15.3881 0.5 15.5 0.611929 15.5 0.75V1.5V6.75C15.5 6.88807 15.3881 7 15.25 7H13.75C13.6119 7 13.5 6.88807 13.5 6.75V4.51777C13.5 4.29504 13.2307 4.1835 13.0732 4.34099L6.88388 10.5303C6.78625 10.628 6.62796 10.628 6.53033 10.5303L5.46967 9.46967C5.37204 9.37204 5.37204 9.21375 5.46967 9.11612L11.659 2.92678ZM1.5 4.5C1.5 2.84315 2.84315 1.5 4.5 1.5H6.75C6.88807 1.5 7 1.61193 7 1.75V3.25C7 3.38807 6.88807 3.5 6.75 3.5H4.5C3.94772 3.5 3.5 3.94772 3.5 4.5V11.5C3.5 12.0523 3.94772 12.5 4.5 12.5H11.5C12.0523 12.5 12.5 12.0523 12.5 11.5V9.25C12.5 9.11193 12.6119 9 12.75 9H14.25C14.3881 9 14.5 9.11193 14.5 9.25V11.5C14.5 13.1569 13.1569 14.5 11.5 14.5H4.5C2.84315 14.5 1.5 13.1569 1.5 11.5V4.5Z" fill="#0F1624" fill-opacity="0.5"/>
</svg>
