<svg width="24" height="24" viewBox="0 0 24 24" fill="none" xmlns="http://www.w3.org/2000/svg">
<path d="M19.3977 4.39404C19.0395 3.02282 17.4049 2.53908 16.4039 3.50807L12.3876 7.3959C11.9886 7.7821 11.3698 7.7821 10.9709 7.3959L6.95459 3.50807C5.95359 2.53908 4.31893 3.02282 3.96071 4.39404L2.27452 10.8486C1.35134 14.3825 2.81091 18.1218 5.84353 19.9921C7.21603 20.8385 8.77167 21.3085 10.3642 21.3604C10.4087 21.3619 10.4454 21.3246 10.4454 21.2783C10.4454 21.2487 10.4607 21.2214 10.4855 21.2067L12.2057 20.1864C12.2437 20.1638 12.2846 20.1467 12.3264 20.1333C13.1354 19.8735 13.6911 19.0959 13.6911 18.2117C13.6911 18.1168 13.6086 18.0451 13.5182 18.059C13.2072 18.1068 12.8921 18.1311 12.5755 18.1311H10.6601C9.52499 18.1311 8.41091 17.8134 7.43509 17.2116C5.6054 16.0832 4.72478 13.8272 5.28177 11.6951L6.17894 8.26078C6.28129 7.869 6.74833 7.73079 7.03434 8.00764L8.84574 9.76113C10.4416 11.3059 12.9169 11.3059 14.5127 9.76113L16.3241 8.00764C16.6101 7.73079 17.0772 7.869 17.1795 8.26078L18.0452 11.5744C18.0985 11.7784 18.1389 11.9836 18.1668 12.1888C18.1985 12.4219 18.3563 12.6172 18.5695 12.6977C19.1385 12.9126 19.6413 13.2709 20.0371 13.7305C20.3935 14.1443 21.2622 14.0982 21.3049 13.545C21.3765 12.6171 21.2973 11.6655 21.0524 10.728L19.3977 4.39404Z" fill="url(#paint0_linear_2_9)"/>
<path d="M14.7297 16.2444C14.7297 15.1311 15.7414 14.0883 17.0666 14.0883C18.066 14.0883 18.8842 14.9122 18.8842 16.1097C18.8842 17.3071 18.066 18.131 17.0666 18.131C16.2061 18.131 15.5086 18.855 15.5086 19.7481C15.5086 20.6412 16.2061 21.3652 17.0666 21.3652C19.939 21.3652 22 18.9312 22 16.1097C22 13.2882 19.939 10.8541 17.0666 10.8541C14.3365 10.8541 11.6139 13.0337 11.6139 16.2444V17.3225C11.6139 17.3241 11.6139 17.3257 11.6138 17.3273L11.6139 19.2092C11.6139 20.1673 11.0117 20.9795 10.1787 21.2603C10.1203 21.2799 10.1244 21.3652 10.1857 21.3652H10.8349C12.9859 21.3652 14.7297 19.5552 14.7297 17.3225V16.2444Z" fill="url(#paint1_linear_2_9)"/>
<defs>
<linearGradient id="paint0_linear_2_9" x1="9.9261" y1="19.6091" x2="4.98884" y2="11.4151" gradientUnits="userSpaceOnUse">
<stop stop-color="#7E51C2"/>
<stop offset="0.176285" stop-color="#945DD6"/>
<stop offset="1" stop-color="#13ADC7"/>
</linearGradient>
<linearGradient id="paint1_linear_2_9" x1="16.1524" y1="14.0883" x2="14.8751" y2="19.1757" gradientUnits="userSpaceOnUse">
<stop stop-color="#F46837"/>
<stop offset="1" stop-color="#DD5236"/>
</linearGradient>
</defs>
</svg>
