<svg viewBox="0 0 256 256" width="256" height="257" fill="none" xmlns="http://www.w3.org/2000/svg"><path d="M140.96 179.614c-5.479 8.155-16.386 11.568-22.778 4.142a38.063 38.063 0 0 0 13.977 10.152 37.15 37.15 0 0 0 16.895 2.83 37.315 37.315 0 0 0 16.393-5.062 38.468 38.468 0 0 0 12.573-11.932l69.149-104.035a15.984 15.984 0 0 0 2.129-11.575c-.787-3.996-3.062-7.518-6.341-9.816a14.9 14.9 0 0 0-11.211-2.482c-3.909.706-7.395 2.952-9.715 6.26a37993.996 37993.996 0 0 1-81.071 121.491v.027Z" fill="url(#a)"/><path d="m73.309 130.162 11.795-17.795c5.428-8.155 16.234-11.646 22.703-4.325a38.724 38.724 0 0 1 4.49 6.253l27.776 47.445a7.723 7.723 0 0 0 2.34 2.516 7.476 7.476 0 0 0 3.172 1.223 7.42 7.42 0 0 0 3.375-.312 7.57 7.57 0 0 0 2.908-1.786l-10.908 16.232c-5.479 8.155-16.386 11.569-22.778 4.143-1.522-1.798-2.943-3.752-4.186-5.914l-27.801-47.419a7.714 7.714 0 0 0-2.713-2.754 7.463 7.463 0 0 0-3.673-1.056 7.447 7.447 0 0 0-3.71.907 7.689 7.689 0 0 0-2.816 2.642h.026Z" fill="url(#b)"/><path d="m73.512 129.876-.203.286-39.039 61.697c-2.225 3.417-5.67 5.796-9.59 6.622-3.921.826-8 .033-11.356-2.207-3.355-2.241-5.716-5.748-6.572-9.764a15.99 15.99 0 0 1 2-11.691l39.038-61.696a38.54 38.54 0 0 1 12.403-12.262 37.37 37.37 0 0 1 16.392-5.399c5.794-.49 11.62.388 17.032 2.569a38.069 38.069 0 0 1 14.19 10.011c-6.469-7.295-17.275-3.83-22.703 4.325l-11.592 17.509Z" fill="url(#c)"/><defs><linearGradient id="a" x1="183.891" y1="123.91" x2="183.891" y2="196.821" gradientUnits="userSpaceOnUse"><stop stop-color="#F46837"/><stop offset="1" stop-color="#DD5236"/></linearGradient><linearGradient id="b" x1="112.576" y1="104.042" x2="152.506" y2="167.895" gradientUnits="userSpaceOnUse"><stop stop-color="#7E51C2"/><stop offset=".223" stop-color="#945DD6"/><stop offset=".76" stop-color="#945DD6"/><stop offset="1" stop-color="#7E51C2"/></linearGradient><linearGradient id="c" x1="57.103" y1="146.918" x2="57.103" y2="198.8" gradientUnits="userSpaceOnUse"><stop stop-color="#13ADC7"/><stop offset="1" stop-color="#1497B8"/></linearGradient></defs></svg>