<svg width="160" height="160" viewBox="0 0 160 160" fill="none" xmlns="http://www.w3.org/2000/svg"><path d="M104.493 104.673c-7.41-7.333-10.842-16.221-10.842-26.703 0-10.542 3.413-19.47 10.842-26.863a37.272 37.272 0 0 1 12.411-8.356 36.612 36.612 0 0 1 14.616-2.744c9.434-.158 18.578 3.329 25.604 9.764 1.073.997 1.092 1.993.117 2.95l-8.249 8.509c-.916.837-1.813.837-2.652 0-3.947-3.54-9.042-5.45-14.293-5.36-5.928 0-10.862 2.112-14.82 6.376a21.151 21.151 0 0 0-4.328 7.042 21.497 21.497 0 0 0-1.327 8.203c0 5.899 1.755 10.92 5.733 15.086a19.92 19.92 0 0 0 6.787 4.716 19.554 19.554 0 0 0 8.072 1.521c5.165.12 10.199-1.67 14.176-5.041.975-.837 1.892-.798 2.73.1l8.269 8.728c.916.916.877 1.853-.098 2.829-6.92 6.735-16.167 10.396-25.721 10.184a36.874 36.874 0 0 1-14.593-2.701 37.518 37.518 0 0 1-12.434-8.26v.02z" fill="#2E3137"/><path fill-rule="evenodd" clip-rule="evenodd" d="M2.001 42.08a1.95 1.95 0 0 1 .14-.792c.1-.251.252-.477.445-.663a1.72 1.72 0 0 1 .59-.445c.225-.103.47-.156.717-.153h25.486c10.452.797 18.252 3.786 25.428 11.16C62.022 58.56 64.89 66.93 65.805 77.69c.878 10.362-3.354 19.33-10.53 26.703a35.185 35.185 0 0 1-11.815 8.314 34.519 34.519 0 0 1-14.08 2.806H3.892a1.733 1.733 0 0 1-.715-.158 1.778 1.778 0 0 1-.592-.44 1.953 1.953 0 0 1-.446-.673 1.994 1.994 0 0 1-.139-.801V42.079zm16.302 57.452h10.023c5.85 0 10.725-2.113 14.586-6.317 3.861-4.198 5.943-9.785 5.792-15.544 0-6.118-1.95-11.28-5.792-15.484a19.175 19.175 0 0 0-6.624-4.77 18.808 18.808 0 0 0-7.962-1.547H18.303v43.662z" fill="#2E3137"/><path d="M96.718 99.944c.402.599.482 1.364.18 2.02l-15.103 32.86c-.41.797-.994 1.176-1.774 1.176h-1.053c-.78 0-1.365-.399-1.794-1.196l-14.822-32.46a2.068 2.068 0 0 1 .213-2.054c4.38-6.164 6.457-13.182 6.249-20.605-.016-.573.862-.797 1.094-.273l9.352 21.036h.644l9.708-21.802c.227-.509 1.04-.32 1.04.237 0 7.453 1.88 14.83 6.066 21.06z" fill="#2E3137"/></svg>