<svg width="40px" height="40px" viewBox="0 0 40 40" version="1.1" xmlns="http://www.w3.org/2000/svg">
    <rect fill="#00AAF3" x="0" y="0" width="40" height="40" rx="20"></rect>
    <path d="M32.1205,13.133 C31.3045,13.49375 30.433,13.7375 29.51425,13.85 C30.45175,13.2875 31.17325,12.3965 31.51075,11.3375 C30.634,11.858 29.66425,12.2375 28.6285,12.43925 C27.79825,11.55275 26.617,11 25.31425,11 C22.80625,11 20.77675,13.034 20.77675,15.542 C20.77675,15.89825 20.81425,16.2455 20.89375,16.5785 C17.1205,16.391 13.77325,14.58125 11.5375,11.8295 C11.14825,12.5 10.92325,13.283 10.92325,14.1125 C10.92325,15.6875 11.7295,17.0795 12.94825,17.8955 C12.19825,17.87675 11.4955,17.6705 10.88575,17.32775 L10.88575,17.38475 C10.88575,19.5875 12.45175,21.4205 14.52775,21.8375 C14.14825,21.94025 13.7455,21.9965 13.333,21.9965 C13.042,21.9965 12.75625,21.96875 12.4795,21.9125 C13.05625,23.717 14.73475,25.0295 16.72225,25.067 C15.1705,26.28575 13.21075,27.0125 11.083,27.0125 C10.717,27.0125 10.35625,26.98925 10,26.94725 C12.00175,28.25 14.3875,29 16.9465,29 C25.3045,29 29.8705,22.07675 29.8705,16.0715 C29.8705,15.875 29.86525,15.67775 29.85625,15.48575 C30.742,14.84375 31.51075,14.04725 32.1205,13.133" fill="#FFFFFF"></path>
</svg>