<svg height="32" viewBox="0 0 32 32" width="32" xmlns="http://www.w3.org/2000/svg"><path d="m17 8v4h-1.241l-2.184 6h8.425l-2-5h6c1.6568542 0 3 1.3431458 3 3 1.1045695 0 2 .8954305 2 2v2c0 1.0543618-.8158778 1.9181651-1.8507377 1.9945143l-.1492623.0054857v6c0 1.6568542-1.3431458 3-3 3h-20c-1.65685425 0-3-1.3431458-3-3v-6c-1.1045695 0-2-.8954305-2-2v-2c0-1.0543618.81587779-1.9181651 1.85073766-1.9945143l.14926234-.0054857c0-1.6568542 1.34314575-3 3-3h6l-2 5h2.512l2.488-6.837v-3.163zm7 18c-.5522847 0-1 .4477153-1 1s.4477153 1 1 1 1-.4477153 1-1-.4477153-1-1-1zm-16 0c-.55228475 0-1 .4477153-1 1s.44771525 1 1 1 1-.4477153 1-1-.44771525-1-1-1zm12 0h-8c-.5522847 0-1 .4477153-1 1s.4477153 1 1 1h8c.5522847 0 1-.4477153 1-1s-.4477153-1-1-1zm2-3c-.5522847 0-1 .4477153-1 1s.4477153 1 1 1 1-.4477153 1-1-.4477153-1-1-1zm-4 0c-.5522847 0-1 .4477153-1 1s.4477153 1 1 1 1-.4477153 1-1-.4477153-1-1-1zm-4 0c-.5522847 0-1 .4477153-1 1s.4477153 1 1 1 1-.4477153 1-1-.4477153-1-1-1zm-4 0c-.55228475 0-1 .4477153-1 1s.44771525 1 1 1c.5522847 0 1-.4477153 1-1s-.4477153-1-1-1zm-2-3c-.55228475 0-1 .4477153-1 1s.44771525 1 1 1 1-.4477153 1-1-.44771525-1-1-1zm4 0c-.5522847 0-1 .4477153-1 1s.4477153 1 1 1 1-.4477153 1-1-.4477153-1-1-1zm4 0c-.5522847 0-1 .4477153-1 1s.4477153 1 1 1 1-.4477153 1-1-.4477153-1-1-1zm4 0c-.5522847 0-1 .4477153-1 1s.4477153 1 1 1 1-.4477153 1-1-.4477153-1-1-1zm4 0c-.5522847 0-1 .4477153-1 1s.4477153 1 1 1 1-.4477153 1-1-.4477153-1-1-1zm-1-19c1.1045695 0 2 .8954305 2 2v9h-2v-8c0-.51283584-.3860402-.93550716-.8833789-.99327227l-.1166211-.00672773h-12c-.51283584 0-.93550716.38604019-.99327227.88337887l-.00672773.11662113v8h-2v-9c0-1.1045695.8954305-2 2-2z" fill="#838d93" fill-rule="evenodd"/></svg>