<svg height="64" viewBox="0 0 64 64" width="64" xmlns="http://www.w3.org/2000/svg"><g fill="none" stroke="#955dd6" stroke-linejoin="round" stroke-width="2"><path d="m34.2335911 48.2858921-10.5325422 4.2099417 3.7068855-6.4565747c-2.3400674-1.8353551-3.4079344-4.8656001-3.4079344-9.5392591 0-9.5983256 3.8349311-11.9708368 15.6559627-11.9995908l.3440373-.0004092c12.1470897 0 16 2.3117462 16 12s-3.8529103 12-16 12c-2.4197413 0-4.2100284-.0599062-5.7664089-.2141079z" transform="matrix(-1 0 0 1 80 0)"/><path d="m19.2335911 36.7858921-10.53254225 4.2099417 3.70688555-6.4565747c-2.3400674-1.8353551-3.4079344-4.8656001-3.4079344-9.5392591 0-9.5983256 3.8349311-11.9708368 15.6559627-11.9995908l.3440373-.0004092c12.1470897 0 16 2.3117462 16 12s-3.8529103 12-16 12c-2.4197412 0-4.2100284-.0599062-5.7664089-.2141079z"/></g></svg>