<?xml version="1.0" encoding="utf-8"?>
<!-- Generator: Adobe Illustrator 24.1.0, SVG Export Plug-In . SVG Version: 6.00 Build 0)  -->
<svg version="1.1" id="Layer_1" xmlns="http://www.w3.org/2000/svg" xmlns:xlink="http://www.w3.org/1999/xlink" x="0px" y="0px"
	 viewBox="0 0 322.1 185" style="enable-background:new 0 0 322.1 185;" xml:space="preserve">
<style type="text/css">
	.st0{fill:#FFFFFF;}
</style>
<g>
	<path d="M318.8,95.8c0,2.5,0,4.9,0,7.4c-0.1,0.3-0.2,0.6-0.2,0.9c-0.5,3.1-0.8,6.2-1.5,9.2c-2.3,9.7-6.9,18.3-13.6,25.6
		c-5.4,5.9-11.7,10.4-19,13.6c-9.5,4.2-19.5,5.8-29.8,4.6c-8.3-1-15.8-4-23-8c-10.2-5.8-19.3-13.1-28-21c-0.8-0.8-1.3-0.8-2.2,0
		c-4.9,4.7-9.7,9.3-14.7,13.9c-9,8.4-18.3,16.4-28.3,23.5c-10.3,7.4-21.1,13.8-32.9,18.4c-14,5.5-28.5,7.8-43.5,6.2
		c-12-1.3-23.4-4.8-34.1-10.6c-18.2-10-31.5-24.5-40-43.4c-5.9-13.2-8.4-27-7.6-41.4c0.3-5.9,1.1-11.7,2.5-17.4
		C8.4,56.2,20,38.9,37.8,25.8C53.9,14,72,8.3,91.9,8.3c5.1,0,10.2,0.6,15.2,1.5c13.7,2.3,26.2,7.8,38,14.9
		c15.7,9.4,29.6,21.1,42.9,33.5c4.5,4.2,8.9,8.5,13.4,12.9c0.7,0.7,1.2,0.6,1.9,0c3.4-3,6.8-6,10.3-8.8c8.4-6.8,17.3-12.8,27.4-16.9
		c9.2-3.7,18.7-4.8,28.4-3.3c14,2.2,25.7,8.5,35.1,19.2c7.1,8.1,11.5,17.5,13.4,28C318.2,91.4,318.5,93.6,318.8,95.8z M91.5,150.6
		c6.8,0.1,13.3-1.5,19.6-3.9c9-3.5,17-8.5,24.8-14.2c13.2-9.6,25-20.8,36.7-32.1c0.8-0.7,0.6-1.2-0.1-1.8
		c-4.1-3.8-8.2-7.7-12.3-11.6c-7.1-6.7-14.5-13-22.3-18.9c-7.7-5.8-15.8-11-24.7-14.8c-11.3-4.9-22.8-6.4-34.8-3.2
		C53.2,56.9,37,81.7,41.1,107.5C44.9,132.3,66.4,150.6,91.5,150.6z M261.1,81.4c-2.7,0-5.2,0.9-7.5,2.1c-7.9,3.9-14.6,9.6-21.2,15.3
		c-0.8,0.7-0.5,1.3,0.1,1.8c3.1,2.5,6.2,5.2,9.4,7.6c4.5,3.4,9.1,6.6,14.4,8.6c2,0.7,4,1.1,6.1,0.9c10.8-1.4,17.7-10.4,16.2-21.1
		C277.3,88.2,269.6,81.5,261.1,81.4z"/>
	<path class="st0" d="M318.8,95.8c-0.3-2.2-0.6-4.3-0.9-6.5c-1.9-10.6-6.3-20-13.4-28c-9.3-10.6-21.1-17-35.1-19.2
		c-9.8-1.5-19.2-0.4-28.4,3.3c-10.1,4.1-19,10.1-27.4,16.9c-3.5,2.8-6.9,5.8-10.3,8.8c-0.7,0.6-1.2,0.7-1.9,0
		c-4.4-4.3-8.8-8.6-13.4-12.9c-13.3-12.4-27.2-24.1-42.9-33.5c-11.8-7.1-24.3-12.6-38-14.9c-5-0.9-10.1-1.5-15.2-1.5
		C72,8.3,53.9,14,37.8,25.8C20,38.9,8.4,56.2,2.9,77.6C1.5,83.3,0.7,89.1,0.4,95c-0.7,14.4,1.8,28.2,7.6,41.4
		c8.4,18.9,21.8,33.4,40,43.4c10.6,5.8,22,9.3,34.1,10.6c15,1.6,29.5-0.8,43.5-6.2c11.8-4.6,22.6-11,32.9-18.4
		c10-7.2,19.3-15.2,28.3-23.5c4.9-4.6,9.8-9.3,14.7-13.9c0.8-0.8,1.3-0.8,2.2,0c8.7,7.9,17.7,15.2,28,21c7.2,4,14.8,7,23,8
		c10.3,1.2,20.3-0.5,29.8-4.6c7.3-3.2,13.7-7.8,19-13.6c6.7-7.3,11.4-15.9,13.6-25.6c0.7-3,1-6.1,1.5-9.2c0-0.3,0.1-0.6,0.2-0.9
		c0,29.3,0,58.6,0,87.8c-106.3,0-212.5,0-318.8,0C0,130,0,69,0,7.9c106.3,0,212.5,0,318.8,0C318.8,37.2,318.8,66.5,318.8,95.8z"/>
	<path class="st0" d="M91.5,150.6c-25.1,0-46.5-18.3-50.4-43.1C37,81.7,53.2,56.9,78.4,50.1c12-3.2,23.6-1.7,34.8,3.2
		c8.9,3.8,17,9,24.7,14.8c7.8,5.9,15.2,12.2,22.3,18.9c4.1,3.8,8.2,7.7,12.3,11.6c0.7,0.6,0.8,1.1,0.1,1.8
		c-11.7,11.3-23.6,22.5-36.7,32.1c-7.7,5.6-15.8,10.7-24.8,14.2C104.8,149.1,98.3,150.8,91.5,150.6z"/>
	<path class="st0" d="M261.1,81.4c8.5,0,16.2,6.8,17.4,15.2c1.5,10.7-5.4,19.7-16.2,21.1c-2.1,0.3-4.1-0.1-6.1-0.9
		c-5.3-2-10-5.2-14.4-8.6c-3.2-2.5-6.2-5.1-9.4-7.6c-0.7-0.6-1-1.1-0.1-1.8c6.6-5.7,13.3-11.4,21.2-15.3
		C255.9,82.4,258.4,81.4,261.1,81.4z"/>
</g>
</svg>
