<?xml version="1.0" encoding="utf-8"?>
<!-- Generator: Adobe Illustrator 24.1.0, SVG Export Plug-In . SVG Version: 6.00 Build 0)  -->
<svg version="1.1" id="Layer_1" xmlns="http://www.w3.org/2000/svg" xmlns:xlink="http://www.w3.org/1999/xlink" x="0px" y="0px"
	 viewBox="0 0 330 330" style="enable-background:new 0 0 330 330;" xml:space="preserve">
<style type="text/css">
	.st0{fill:#FFFFFF;stroke:#000000;stroke-width:10;stroke-miterlimit:10;}
	.st1{fill:none;stroke:#000000;stroke-width:10;stroke-miterlimit:10;}
</style>
<path class="st0" d="M5.6,169c0.2,2.3,0.4,4.6,0.7,6.9c1.1,9.5,3.7,18.7,7.7,27.4c5,10.8,11.8,20.3,20.5,28.5
	c10.9,10.2,23.5,17.3,37.9,21.3c9.1,2.5,18.3,3.7,27.7,3.3c10.2-0.4,20.1-2.6,29.6-6.2c12.4-4.7,23.6-11.4,34.3-19.1
	c9-6.5,17.4-13.6,25.6-21.1c5.7-5.3,11.3-10.7,17-16c1.2-1.1,1.2-1.1,2.4-0.1c5.1,4.3,10.1,8.7,15.4,12.7c7.9,6,16.4,11,25.9,14.1
	c10.5,3.4,21.1,3.3,31.6,0.3c10.6-2.9,19.6-8.5,27-16.6c8.3-9.1,13.3-19.8,14.8-32.1c1.5-12.1-0.5-23.5-6.2-34.3
	c-5.3-10.1-12.9-17.9-22.7-23.5c-7.5-4.3-15.5-6.7-24.1-7.4c-8.2-0.7-16.1,0.6-23.8,3.5c-10.3,4-19.3,10.1-27.8,17
	c-3.4,2.8-6.7,5.7-10,8.5c-1.4,1.2-1.4,1.2-2.7-0.1c-7.1-6.6-14.1-13.4-21.4-19.9c-10.8-9.6-22.1-18.5-34.5-25.9
	c-12.2-7.2-25-12.8-39.1-15.1c-4.8-0.8-9.8-1.3-14.6-1.3C77.1,74,59,79.7,43,91.5c-15.4,11.4-26.3,26.1-32.5,44.2
	c-2.7,8-4.4,16.2-4.7,24.6C5.8,160.7,5.6,198.2,5.6,169z"/>
<path class="st1" d="M96.8,216.1c-14.6-0.2-27-5.5-37-16c-8-8.3-12.5-18.4-13.7-29.9c-2.4-23.9,11.9-45.9,34.6-53.6
	c11.6-3.9,23.1-3.4,34.6,0.9c9.1,3.5,17.4,8.4,25.2,14.1c7.8,5.6,15.1,11.7,22.1,18.2c5.1,4.7,10.1,9.5,15.2,14.2
	c0.7,0.6,0.8,1.1,0.1,1.8c-11.7,11.3-23.5,22.5-36.7,32.1c-8,5.8-16.3,11-25.7,14.5C109.5,214.7,103.3,216.2,96.8,216.1z"/>
<path class="st1" d="M284.1,164.4c0,9.9-6.8,17.5-15.8,18.8c-4.2,0.6-7.8-1-11.3-2.9c-6.8-3.7-12.8-8.6-18.5-13.7
	c-1.7-1.5-1.6-1.5,0.1-3.1c5-4.4,10.2-8.6,15.9-12.1c2.4-1.4,5-2.8,7.6-3.7c5.7-2,10.8-0.3,15.3,3.3
	C282,154.6,283.9,159.4,284.1,164.4z"/>
</svg>
