<?xml version="1.0" encoding="UTF-8"?>
<svg width="318.55" height="182.3" version="1.1" viewBox="0 0 318.55 182.3" xml:space="preserve" xmlns="http://www.w3.org/2000/svg" xmlns:cc="http://creativecommons.org/ns#" xmlns:dc="http://purl.org/dc/elements/1.1/" xmlns:rdf="http://www.w3.org/1999/02/22-rdf-syntax-ns#"><metadata><rdf:RDF><cc:Work rdf:about=""><dc:format>image/svg+xml</dc:format><dc:type rdf:resource="http://purl.org/dc/dcmitype/StillImage"/><dc:title/></cc:Work></rdf:RDF></metadata>
<style type="text/css">
	.st0{fill:#FFFFFF;}
</style>
<path d="m318.55 87.5v7.4c-0.1 0.3-0.2 0.6-0.2 0.9-0.5 3.1-0.8 6.2-1.5 9.2-2.3 9.7-6.9 18.3-13.6 25.6-5.4 5.9-11.7 10.4-19 13.6-9.5 4.2-19.5 5.8-29.8 4.6-8.3-1-15.8-4-23-8-10.2-5.8-19.3-13.1-28-21-0.8-0.8-1.3-0.8-2.2 0-4.9 4.7-9.7 9.3-14.7 13.9-9 8.4-18.3 16.4-28.3 23.5-10.3 7.4-21.1 13.8-32.9 18.4-14 5.5-28.5 7.8-43.5 6.2-12-1.3-23.4-4.8-34.1-10.6-18.2-10-31.5-24.5-40-43.4-5.9-13.2-8.4-27-7.6-41.4 0.3-5.9 1.1-11.7 2.5-17.4 5.5-21.1 17.1-38.4 34.9-51.5 16.1-11.8 34.2-17.5 54.1-17.5 5.1 0 10.2 0.6 15.2 1.5 13.7 2.3 26.2 7.8 38 14.9 15.7 9.4 29.6 21.1 42.9 33.5 4.5 4.2 8.9 8.5 13.4 12.9 0.7 0.7 1.2 0.6 1.9 0 3.4-3 6.8-6 10.3-8.8 8.4-6.8 17.3-12.8 27.4-16.9 9.2-3.7 18.7-4.8 28.4-3.3 14 2.2 25.7 8.5 35.1 19.2 7.1 8.1 11.5 17.5 13.4 28 0.3 2.1 0.6 4.3 0.9 6.5zm-227.3 54.8c6.8 0.1 13.3-1.5 19.6-3.9 9-3.5 17-8.5 24.8-14.2 13.2-9.6 25-20.8 36.7-32.1 0.8-0.7 0.6-1.2-0.1-1.8-4.1-3.8-8.2-7.7-12.3-11.6-7.1-6.7-14.5-13-22.3-18.9-7.7-5.8-15.8-11-24.7-14.8-11.3-4.9-22.8-6.4-34.8-3.2-25.2 6.8-41.4 31.6-37.3 57.4 3.8 24.8 25.3 43.1 50.4 43.1zm169.6-69.2c-2.7 0-5.2 0.9-7.5 2.1-7.9 3.9-14.6 9.6-21.2 15.3-0.8 0.7-0.5 1.3 0.1 1.8 3.1 2.5 6.2 5.2 9.4 7.6 4.5 3.4 9.1 6.6 14.4 8.6 2 0.7 4 1.1 6.1 0.9 10.8-1.4 17.7-10.4 16.2-21.1-1.3-8.4-9-15.1-17.5-15.2z" fill="currentColor"/>
</svg>
