<svg version="1.1" viewBox="0.0 0.0 600.0 371.0" fill="none" stroke="none" stroke-linecap="square" stroke-miterlimit="10" width="600" height="371" xmlns:xlink="http://www.w3.org/1999/xlink" xmlns="http://www.w3.org/2000/svg"><path fill="#ffffff" d="M0 0L600.0 0L600.0 371.0L0 371.0L0 0Z" fill-rule="nonzero"/><path stroke="#333333" stroke-width="1.0" stroke-linecap="butt" d="M77.5 332.5L581.5 332.5" fill-rule="nonzero"/><path stroke="#cccccc" stroke-width="1.0" stroke-linecap="butt" d="M77.5 271.5L581.5 271.5" fill-rule="nonzero"/><path stroke="#cccccc" stroke-width="1.0" stroke-linecap="butt" d="M77.5 209.5L581.5 209.5" fill-rule="nonzero"/><path stroke="#cccccc" stroke-width="1.0" stroke-linecap="butt" d="M77.5 148.5L581.5 148.5" fill-rule="nonzero"/><path stroke="#cccccc" stroke-width="1.0" stroke-linecap="butt" d="M77.5 86.5L581.5 86.5" fill-rule="nonzero"/><path stroke="#cccccc" stroke-width="1.0" stroke-linecap="butt" d="M77.5 25.5L581.5 25.5" fill-rule="nonzero"/><clipPath id="id_0"><path d="M77.55 25.55L581.45 25.55L581.45 332.45L77.55 332.45L77.55 25.55Z" clip-rule="nonzero"/></clipPath><path stroke="#000000" stroke-width="0.0" stroke-linecap="butt" stroke-opacity="0.0" clip-path="url(#id_0)" d="M194.0 332.0L119.0 332.0L119.0 140.0C119.0 138.89543 119.89543 138.0 121.0 138.0L192.0 138.0C193.10457 138.0 194.0 138.89543 194.0 140.0Z" fill-rule="nonzero"/><path fill="#4285f4" clip-path="url(#id_0)" d="M194.0 332.0L119.0 332.0L119.0 140.0C119.0 138.89543 119.89543 138.0 121.0 138.0L192.0 138.0C193.10457 138.0 194.0 138.89543 194.0 140.0Z" fill-rule="nonzero"/><path stroke="#000000" stroke-width="0.0" stroke-linecap="butt" stroke-opacity="0.0" clip-path="url(#id_0)" d="M310.0 332.0L235.0 332.0L235.0 153.0C235.0 151.89543 235.89543 151.0 237.0 151.0L308.0 151.0C309.10458 151.0 310.0 151.89543 310.0 153.0Z" fill-rule="nonzero"/><path fill="#4285f4" clip-path="url(#id_0)" d="M310.0 332.0L235.0 332.0L235.0 153.0C235.0 151.89543 235.89543 151.0 237.0 151.0L308.0 151.0C309.10458 151.0 310.0 151.89543 310.0 153.0Z" fill-rule="nonzero"/><path stroke="#000000" stroke-width="0.0" stroke-linecap="butt" stroke-opacity="0.0" clip-path="url(#id_0)" d="M425.0 332.0L350.0 332.0L350.0 66.0C350.0 64.89543 350.89542 64.0 352.0 64.0L423.0 64.0C424.10458 64.0 425.0 64.89543 425.0 66.0Z" fill-rule="nonzero"/><path fill="#4285f4" clip-path="url(#id_0)" d="M425.0 332.0L350.0 332.0L350.0 66.0C350.0 64.89543 350.89542 64.0 352.0 64.0L423.0 64.0C424.10458 64.0 425.0 64.89543 425.0 66.0Z" fill-rule="nonzero"/><path stroke="#000000" stroke-width="0.0" stroke-linecap="butt" stroke-opacity="0.0" clip-path="url(#id_0)" d="M541.0 332.0L466.0 332.0L466.0 260.0C466.0 258.89542 466.89542 258.0 468.0 258.0L539.0 258.0C540.10455 258.0 541.0 258.89542 541.0 260.0Z" fill-rule="nonzero"/><path fill="#4285f4" clip-path="url(#id_0)" d="M541.0 332.0L466.0 332.0L466.0 260.0C466.0 258.89542 466.89542 258.0 468.0 258.0L539.0 258.0C540.10455 258.0 541.0 258.89542 541.0 260.0Z" fill-rule="nonzero"/><path stroke="#4285f4" stroke-width="3.0" stroke-linejoin="round" stroke-linecap="round" d="M142.78125 149.75577L143.59375 149.75577Q144.375 149.74014 144.8125 149.34952Q145.25 148.9589 145.25 148.28702Q145.25 146.78702 143.75 146.78702Q143.04688 146.78702 142.625 147.19327Q142.21875 147.59952 142.21875 148.25577L141.125 148.25577Q141.125 147.24014 141.85938 146.56827Q142.60938 145.8964 143.75 145.8964Q144.95312 145.8964 145.64062 146.53702Q146.32812 147.17764 146.32812 148.31827Q146.32812 148.88077 145.96875 149.3964Q145.60938 149.91202 144.98438 150.17764Q145.6875 150.3964 146.0625 150.91202Q146.45312 151.42764 146.45312 152.17764Q146.45312 153.31827 145.70312 154.00577Q144.95312 154.67764 143.75 154.67764Q142.5625 154.67764 141.79688 154.0214Q141.04688 153.36514 141.04688 152.30264L142.14062 152.30264Q142.14062 152.97452 142.57812 153.38077Q143.01562 153.78702 143.76562 153.78702Q144.54688 153.78702 144.95312 153.38077Q145.375 152.9589 145.375 152.19327Q145.375 151.4589 144.92188 151.06827Q144.46875 150.66202 143.59375 150.6464L142.78125 150.6464L142.78125 149.75577ZM148.34375 153.99014Q148.34375 153.7089 148.5 153.5214Q148.67188 153.3339 149.0 153.3339Q149.34375 153.3339 149.51562 153.5214Q149.6875 153.7089 149.6875 153.99014Q149.6875 154.25577 149.51562 154.44327Q149.34375 154.61514 149.0 154.61514Q148.67188 154.61514 148.5 154.44327Q148.34375 154.25577 148.34375 153.99014ZM154.76562 154.55264L153.6875 154.55264L153.6875 147.3339L151.5 148.13077L151.5 147.1464L154.60938 145.97452L154.76562 145.97452L154.76562 154.55264ZM163.71875 146.63077L160.1875 154.55264L159.04688 154.55264L162.5625 146.91202L157.95312 146.91202L157.95312 146.0214L163.71875 146.0214L163.71875 146.63077ZM170.79688 154.55264L165.20312 154.55264L165.20312 153.7714L168.15625 150.49014Q168.8125 149.74014 169.0625 149.28702Q169.3125 148.81827 169.3125 148.31827Q169.3125 147.6464 168.90625 147.22452Q168.51562 146.78702 167.82812 146.78702Q167.03125 146.78702 166.57812 147.25577Q166.125 147.7089 166.125 148.53702L165.04688 148.53702Q165.04688 147.34952 165.79688 146.63077Q166.5625 145.8964 167.82812 145.8964Q169.03125 145.8964 169.71875 146.5214Q170.40625 147.1464 170.40625 148.19327Q170.40625 149.44327 168.79688 151.19327L166.51562 153.66202L170.79688 153.66202L170.79688 154.55264Z" fill-rule="nonzero"/><path fill="#ffffff" d="M142.78125 149.75577L143.59375 149.75577Q144.375 149.74014 144.8125 149.34952Q145.25 148.9589 145.25 148.28702Q145.25 146.78702 143.75 146.78702Q143.04688 146.78702 142.625 147.19327Q142.21875 147.59952 142.21875 148.25577L141.125 148.25577Q141.125 147.24014 141.85938 146.56827Q142.60938 145.8964 143.75 145.8964Q144.95312 145.8964 145.64062 146.53702Q146.32812 147.17764 146.32812 148.31827Q146.32812 148.88077 145.96875 149.3964Q145.60938 149.91202 144.98438 150.17764Q145.6875 150.3964 146.0625 150.91202Q146.45312 151.42764 146.45312 152.17764Q146.45312 153.31827 145.70312 154.00577Q144.95312 154.67764 143.75 154.67764Q142.5625 154.67764 141.79688 154.0214Q141.04688 153.36514 141.04688 152.30264L142.14062 152.30264Q142.14062 152.97452 142.57812 153.38077Q143.01562 153.78702 143.76562 153.78702Q144.54688 153.78702 144.95312 153.38077Q145.375 152.9589 145.375 152.19327Q145.375 151.4589 144.92188 151.06827Q144.46875 150.66202 143.59375 150.6464L142.78125 150.6464L142.78125 149.75577ZM148.34375 153.99014Q148.34375 153.7089 148.5 153.5214Q148.67188 153.3339 149.0 153.3339Q149.34375 153.3339 149.51562 153.5214Q149.6875 153.7089 149.6875 153.99014Q149.6875 154.25577 149.51562 154.44327Q149.34375 154.61514 149.0 154.61514Q148.67188 154.61514 148.5 154.44327Q148.34375 154.25577 148.34375 153.99014ZM154.76562 154.55264L153.6875 154.55264L153.6875 147.3339L151.5 148.13077L151.5 147.1464L154.60938 145.97452L154.76562 145.97452L154.76562 154.55264ZM163.71875 146.63077L160.1875 154.55264L159.04688 154.55264L162.5625 146.91202L157.95312 146.91202L157.95312 146.0214L163.71875 146.0214L163.71875 146.63077ZM170.79688 154.55264L165.20312 154.55264L165.20312 153.7714L168.15625 150.49014Q168.8125 149.74014 169.0625 149.28702Q169.3125 148.81827 169.3125 148.31827Q169.3125 147.6464 168.90625 147.22452Q168.51562 146.78702 167.82812 146.78702Q167.03125 146.78702 166.57812 147.25577Q166.125 147.7089 166.125 148.53702L165.04688 148.53702Q165.04688 147.34952 165.79688 146.63077Q166.5625 145.8964 167.82812 145.8964Q169.03125 145.8964 169.71875 146.5214Q170.40625 147.1464 170.40625 148.19327Q170.40625 149.44327 168.79688 151.19327L166.51562 153.66202L170.79688 153.66202L170.79688 154.55264Z" fill-rule="nonzero"/><path stroke="#4285f4" stroke-width="3.0" stroke-linejoin="round" stroke-linecap="round" d="M262.79688 168.05624L257.20312 168.05624L257.20312 167.275L260.15625 163.99374Q260.8125 163.24374 261.0625 162.79062Q261.3125 162.32187 261.3125 161.82187Q261.3125 161.15 260.90625 160.72812Q260.51562 160.29062 259.82812 160.29062Q259.03125 160.29062 258.57812 160.75937Q258.125 161.2125 258.125 162.04062L257.04688 162.04062Q257.04688 160.85312 257.79688 160.13437Q258.5625 159.4 259.82812 159.4Q261.03125 159.4 261.71875 160.025Q262.40625 160.65 262.40625 161.69687Q262.40625 162.94687 260.79688 164.69687L258.51562 167.16562L262.79688 167.16562L262.79688 168.05624ZM264.34375 167.49374Q264.34375 167.2125 264.5 167.025Q264.67188 166.8375 265.0 166.8375Q265.34375 166.8375 265.51562 167.025Q265.6875 167.2125 265.6875 167.49374Q265.6875 167.75937 265.51562 167.94687Q265.34375 168.11874 265.0 168.11874Q264.67188 168.11874 264.5 167.94687Q264.34375 167.75937 264.34375 167.49374ZM271.35938 164.30624Q271.03125 164.7125 270.54688 164.9625Q270.07812 165.19687 269.51562 165.19687Q268.78125 165.19687 268.23438 164.8375Q267.6875 164.47812 267.39062 163.82187Q267.09375 163.15 267.09375 162.35312Q267.09375 161.50937 267.40625 160.82187Q267.73438 160.13437 268.32812 159.775Q268.9375 159.4 269.73438 159.4Q271.0 159.4 271.71875 160.35312Q272.45312 161.30624 272.45312 162.93124L272.45312 163.24374Q272.45312 165.74374 271.46875 166.88437Q270.48438 168.025 268.5 168.05624L268.28125 168.05624L268.28125 167.15L268.51562 167.15Q269.85938 167.11874 270.57812 166.44687Q271.29688 165.775 271.35938 164.30624ZM269.6875 164.30624Q270.23438 164.30624 270.6875 163.97812Q271.15625 163.63437 271.375 163.15L271.375 162.7125Q271.375 161.65 270.90625 160.97812Q270.4375 160.30624 269.73438 160.30624Q269.01562 160.30624 268.57812 160.85312Q268.15625 161.4 268.15625 162.30624Q268.15625 163.18124 268.5625 163.74374Q268.98438 164.30624 269.6875 164.30624ZM274.70312 163.775L275.14062 159.525L279.51562 159.525L279.51562 160.525L276.0625 160.525L275.79688 162.85312Q276.4375 162.47812 277.23438 162.47812Q278.39062 162.47812 279.07812 163.25937Q279.76562 164.025 279.76562 165.3375Q279.76562 166.65 279.04688 167.41562Q278.34375 168.18124 277.0625 168.18124Q275.9375 168.18124 275.21875 167.55624Q274.5 166.91562 274.40625 165.80624L275.42188 165.80624Q275.53125 166.54062 275.95312 166.91562Q276.375 167.29062 277.0625 167.29062Q277.8125 167.29062 278.25 166.775Q278.6875 166.25937 278.6875 165.35312Q278.6875 164.49374 278.21875 163.97812Q277.75 163.4625 276.96875 163.4625Q276.26562 163.4625 275.85938 163.75937L275.57812 163.99374L274.70312 163.775ZM286.79688 168.05624L281.20312 168.05624L281.20312 167.275L284.15625 163.99374Q284.8125 163.24374 285.0625 162.79062Q285.3125 162.32187 285.3125 161.82187Q285.3125 161.15 284.90625 160.72812Q284.51562 160.29062 283.82812 160.29062Q283.03125 160.29062 282.57812 160.75937Q282.125 161.2125 282.125 162.04062L281.04688 162.04062Q281.04688 160.85312 281.79688 160.13437Q282.5625 159.4 283.82812 159.4Q285.03125 159.4 285.71875 160.025Q286.40625 160.65 286.40625 161.69687Q286.40625 162.94687 284.79688 164.69687L282.51562 167.16562L286.79688 167.16562L286.79688 168.05624Z" fill-rule="nonzero"/><path fill="#ffffff" d="M262.79688 168.05624L257.20312 168.05624L257.20312 167.275L260.15625 163.99374Q260.8125 163.24374 261.0625 162.79062Q261.3125 162.32187 261.3125 161.82187Q261.3125 161.15 260.90625 160.72812Q260.51562 160.29062 259.82812 160.29062Q259.03125 160.29062 258.57812 160.75937Q258.125 161.2125 258.125 162.04062L257.04688 162.04062Q257.04688 160.85312 257.79688 160.13437Q258.5625 159.4 259.82812 159.4Q261.03125 159.4 261.71875 160.025Q262.40625 160.65 262.40625 161.69687Q262.40625 162.94687 260.79688 164.69687L258.51562 167.16562L262.79688 167.16562L262.79688 168.05624ZM264.34375 167.49374Q264.34375 167.2125 264.5 167.025Q264.67188 166.8375 265.0 166.8375Q265.34375 166.8375 265.51562 167.025Q265.6875 167.2125 265.6875 167.49374Q265.6875 167.75937 265.51562 167.94687Q265.34375 168.11874 265.0 168.11874Q264.67188 168.11874 264.5 167.94687Q264.34375 167.75937 264.34375 167.49374ZM271.35938 164.30624Q271.03125 164.7125 270.54688 164.9625Q270.07812 165.19687 269.51562 165.19687Q268.78125 165.19687 268.23438 164.8375Q267.6875 164.47812 267.39062 163.82187Q267.09375 163.15 267.09375 162.35312Q267.09375 161.50937 267.40625 160.82187Q267.73438 160.13437 268.32812 159.775Q268.9375 159.4 269.73438 159.4Q271.0 159.4 271.71875 160.35312Q272.45312 161.30624 272.45312 162.93124L272.45312 163.24374Q272.45312 165.74374 271.46875 166.88437Q270.48438 168.025 268.5 168.05624L268.28125 168.05624L268.28125 167.15L268.51562 167.15Q269.85938 167.11874 270.57812 166.44687Q271.29688 165.775 271.35938 164.30624ZM269.6875 164.30624Q270.23438 164.30624 270.6875 163.97812Q271.15625 163.63437 271.375 163.15L271.375 162.7125Q271.375 161.65 270.90625 160.97812Q270.4375 160.30624 269.73438 160.30624Q269.01562 160.30624 268.57812 160.85312Q268.15625 161.4 268.15625 162.30624Q268.15625 163.18124 268.5625 163.74374Q268.98438 164.30624 269.6875 164.30624ZM274.70312 163.775L275.14062 159.525L279.51562 159.525L279.51562 160.525L276.0625 160.525L275.79688 162.85312Q276.4375 162.47812 277.23438 162.47812Q278.39062 162.47812 279.07812 163.25937Q279.76562 164.025 279.76562 165.3375Q279.76562 166.65 279.04688 167.41562Q278.34375 168.18124 277.0625 168.18124Q275.9375 168.18124 275.21875 167.55624Q274.5 166.91562 274.40625 165.80624L275.42188 165.80624Q275.53125 166.54062 275.95312 166.91562Q276.375 167.29062 277.0625 167.29062Q277.8125 167.29062 278.25 166.775Q278.6875 166.25937 278.6875 165.35312Q278.6875 164.49374 278.21875 163.97812Q277.75 163.4625 276.96875 163.4625Q276.26562 163.4625 275.85938 163.75937L275.57812 163.99374L274.70312 163.775ZM286.79688 168.05624L281.20312 168.05624L281.20312 167.275L284.15625 163.99374Q284.8125 163.24374 285.0625 162.79062Q285.3125 162.32187 285.3125 161.82187Q285.3125 161.15 284.90625 160.72812Q284.51562 160.29062 283.82812 160.29062Q283.03125 160.29062 282.57812 160.75937Q282.125 161.2125 282.125 162.04062L281.04688 162.04062Q281.04688 160.85312 281.79688 160.13437Q282.5625 159.4 283.82812 159.4Q285.03125 159.4 285.71875 160.025Q286.40625 160.65 286.40625 161.69687Q286.40625 162.94687 284.79688 164.69687L282.51562 167.16562L286.79688 167.16562L286.79688 168.05624Z" fill-rule="nonzero"/><path stroke="#4285f4" stroke-width="3.0" stroke-linejoin="round" stroke-linecap="round" d="M376.78125 77.607605L377.96875 77.607605L377.96875 78.482605L376.78125 78.482605L376.78125 80.46698L375.70312 80.46698L375.70312 78.482605L371.8125 78.482605L371.8125 77.84198L375.625 71.93573L376.78125 71.93573L376.78125 77.607605ZM373.04688 77.607605L375.70312 77.607605L375.70312 73.420105L375.5625 73.65448L373.04688 77.607605ZM379.34375 79.90448Q379.34375 79.62323 379.5 79.43573Q379.67188 79.24823 380.0 79.24823Q380.34375 79.24823 380.51562 79.43573Q380.6875 79.62323 380.6875 79.90448Q380.6875 80.170105 380.51562 80.357605Q380.34375 80.52948 380.0 80.52948Q379.67188 80.52948 379.5 80.357605Q379.34375 80.170105 379.34375 79.90448ZM383.78125 75.670105L384.59375 75.670105Q385.375 75.65448 385.8125 75.263855Q386.25 74.87323 386.25 74.201355Q386.25 72.701355 384.75 72.701355Q384.04688 72.701355 383.625 73.107605Q383.21875 73.513855 383.21875 74.170105L382.125 74.170105Q382.125 73.15448 382.85938 72.482605Q383.60938 71.81073 384.75 71.81073Q385.95312 71.81073 386.64062 72.451355Q387.32812 73.09198 387.32812 74.232605Q387.32812 74.795105 386.96875 75.31073Q386.60938 75.826355 385.98438 76.09198Q386.6875 76.31073 387.0625 76.826355Q387.45312 77.34198 387.45312 78.09198Q387.45312 79.232605 386.70312 79.920105Q385.95312 80.59198 384.75 80.59198Q383.5625 80.59198 382.79688 79.93573Q382.04688 79.27948 382.04688 78.21698L383.14062 78.21698Q383.14062 78.888855 383.57812 79.295105Q384.01562 79.701355 384.76562 79.701355Q385.54688 79.701355 385.95312 79.295105Q386.375 78.87323 386.375 78.107605Q386.375 77.37323 385.92188 76.982605Q385.46875 76.576355 384.59375 76.56073L383.78125 76.56073L383.78125 75.670105ZM394.71875 72.545105L391.1875 80.46698L390.04688 80.46698L393.5625 72.826355L388.95312 72.826355L388.95312 71.93573L394.71875 71.93573L394.71875 72.545105ZM400.35938 76.71698Q400.03125 77.12323 399.54688 77.37323Q399.07812 77.607605 398.51562 77.607605Q397.78125 77.607605 397.23438 77.24823Q396.6875 76.888855 396.39062 76.232605Q396.09375 75.56073 396.09375 74.763855Q396.09375 73.920105 396.40625 73.232605Q396.73438 72.545105 397.32812 72.18573Q397.9375 71.81073 398.73438 71.81073Q400.0 71.81073 400.71875 72.763855Q401.45312 73.71698 401.45312 75.34198L401.45312 75.65448Q401.45312 78.15448 400.46875 79.295105Q399.48438 80.43573 397.5 80.46698L397.28125 80.46698L397.28125 79.56073L397.51562 79.56073Q398.85938 79.52948 399.57812 78.857605Q400.29688 78.18573 400.35938 76.71698ZM398.6875 76.71698Q399.23438 76.71698 399.6875 76.388855Q400.15625 76.045105 400.375 75.56073L400.375 75.12323Q400.375 74.06073 399.90625 73.388855Q399.4375 72.71698 398.73438 72.71698Q398.01562 72.71698 397.57812 73.263855Q397.15625 73.81073 397.15625 74.71698Q397.15625 75.59198 397.5625 76.15448Q397.98438 76.71698 398.6875 76.71698Z" fill-rule="nonzero"/><path fill="#ffffff" d="M376.78125 77.607605L377.96875 77.607605L377.96875 78.482605L376.78125 78.482605L376.78125 80.46698L375.70312 80.46698L375.70312 78.482605L371.8125 78.482605L371.8125 77.84198L375.625 71.93573L376.78125 71.93573L376.78125 77.607605ZM373.04688 77.607605L375.70312 77.607605L375.70312 73.420105L375.5625 73.65448L373.04688 77.607605ZM379.34375 79.90448Q379.34375 79.62323 379.5 79.43573Q379.67188 79.24823 380.0 79.24823Q380.34375 79.24823 380.51562 79.43573Q380.6875 79.62323 380.6875 79.90448Q380.6875 80.170105 380.51562 80.357605Q380.34375 80.52948 380.0 80.52948Q379.67188 80.52948 379.5 80.357605Q379.34375 80.170105 379.34375 79.90448ZM383.78125 75.670105L384.59375 75.670105Q385.375 75.65448 385.8125 75.263855Q386.25 74.87323 386.25 74.201355Q386.25 72.701355 384.75 72.701355Q384.04688 72.701355 383.625 73.107605Q383.21875 73.513855 383.21875 74.170105L382.125 74.170105Q382.125 73.15448 382.85938 72.482605Q383.60938 71.81073 384.75 71.81073Q385.95312 71.81073 386.64062 72.451355Q387.32812 73.09198 387.32812 74.232605Q387.32812 74.795105 386.96875 75.31073Q386.60938 75.826355 385.98438 76.09198Q386.6875 76.31073 387.0625 76.826355Q387.45312 77.34198 387.45312 78.09198Q387.45312 79.232605 386.70312 79.920105Q385.95312 80.59198 384.75 80.59198Q383.5625 80.59198 382.79688 79.93573Q382.04688 79.27948 382.04688 78.21698L383.14062 78.21698Q383.14062 78.888855 383.57812 79.295105Q384.01562 79.701355 384.76562 79.701355Q385.54688 79.701355 385.95312 79.295105Q386.375 78.87323 386.375 78.107605Q386.375 77.37323 385.92188 76.982605Q385.46875 76.576355 384.59375 76.56073L383.78125 76.56073L383.78125 75.670105ZM394.71875 72.545105L391.1875 80.46698L390.04688 80.46698L393.5625 72.826355L388.95312 72.826355L388.95312 71.93573L394.71875 71.93573L394.71875 72.545105ZM400.35938 76.71698Q400.03125 77.12323 399.54688 77.37323Q399.07812 77.607605 398.51562 77.607605Q397.78125 77.607605 397.23438 77.24823Q396.6875 76.888855 396.39062 76.232605Q396.09375 75.56073 396.09375 74.763855Q396.09375 73.920105 396.40625 73.232605Q396.73438 72.545105 397.32812 72.18573Q397.9375 71.81073 398.73438 71.81073Q400.0 71.81073 400.71875 72.763855Q401.45312 73.71698 401.45312 75.34198L401.45312 75.65448Q401.45312 78.15448 400.46875 79.295105Q399.48438 80.43573 397.5 80.46698L397.28125 80.46698L397.28125 79.56073L397.51562 79.56073Q398.85938 79.52948 399.57812 78.857605Q400.29688 78.18573 400.35938 76.71698ZM398.6875 76.71698Q399.23438 76.71698 399.6875 76.388855Q400.15625 76.045105 400.375 75.56073L400.375 75.12323Q400.375 74.06073 399.90625 73.388855Q399.4375 72.71698 398.73438 72.71698Q398.01562 72.71698 397.57812 73.263855Q397.15625 73.81073 397.15625 74.71698Q397.15625 75.59198 397.5625 76.15448Q397.98438 76.71698 398.6875 76.71698Z" fill-rule="nonzero"/><path stroke="#4285f4" stroke-width="3.0" stroke-linejoin="round" stroke-linecap="round" d="M491.76562 274.48917L490.6875 274.48917L490.6875 267.27042L488.5 268.0673L488.5 267.08292L491.60938 265.91104L491.76562 265.91104L491.76562 274.48917ZM495.34375 273.92667Q495.34375 273.64542 495.5 273.45792Q495.67188 273.27042 496.0 273.27042Q496.34375 273.27042 496.51562 273.45792Q496.6875 273.64542 496.6875 273.92667Q496.6875 274.1923 496.51562 274.3798Q496.34375 274.55167 496.0 274.55167Q495.67188 274.55167 495.5 274.3798Q495.34375 274.1923 495.34375 273.92667ZM503.79688 274.48917L498.20312 274.48917L498.20312 273.70792L501.15625 270.42667Q501.8125 269.67667 502.0625 269.22354Q502.3125 268.7548 502.3125 268.2548Q502.3125 267.58292 501.90625 267.16104Q501.51562 266.72354 500.82812 266.72354Q500.03125 266.72354 499.57812 267.1923Q499.125 267.64542 499.125 268.47354L498.04688 268.47354Q498.04688 267.28604 498.79688 266.5673Q499.5625 265.83292 500.82812 265.83292Q502.03125 265.83292 502.71875 266.45792Q503.40625 267.08292 503.40625 268.1298Q503.40625 269.3798 501.79688 271.1298L499.51562 273.59854L503.79688 273.59854L503.79688 274.48917ZM508.76562 274.48917L507.6875 274.48917L507.6875 267.27042L505.5 268.0673L505.5 267.08292L508.60938 265.91104L508.76562 265.91104L508.76562 274.48917ZM517.3906 268.17667Q517.3906 268.8173 517.0469 269.3173Q516.7031 269.8173 516.1406 270.09854Q516.7969 270.3798 517.1875 270.9423Q517.5781 271.48917 517.5781 272.1923Q517.5781 273.28604 516.8281 273.95792Q516.09375 274.61417 514.875 274.61417Q513.6406 274.61417 512.8906 273.95792Q512.15625 273.28604 512.15625 272.1923Q512.15625 271.48917 512.53125 270.9423Q512.90625 270.3798 513.5781 270.09854Q513.0156 269.8173 512.6875 269.3173Q512.3594 268.8173 512.3594 268.17667Q512.3594 267.09854 513.0469 266.47354Q513.7344 265.83292 514.875 265.83292Q516.0 265.83292 516.6875 266.47354Q517.3906 267.09854 517.3906 268.17667ZM516.5 272.16104Q516.5 271.4423 516.0469 271.0048Q515.59375 270.55167 514.8594 270.55167Q514.125 270.55167 513.6719 271.0048Q513.2344 271.4423 513.2344 272.17667Q513.2344 272.89542 513.6719 273.3173Q514.1094 273.72354 514.875 273.72354Q515.625 273.72354 516.0625 273.30167Q516.5 272.8798 516.5 272.16104ZM514.875 266.72354Q514.2344 266.72354 513.8281 267.1298Q513.4375 267.52042 513.4375 268.20792Q513.4375 268.84854 513.8281 269.2548Q514.21875 269.66104 514.8594 269.66104Q515.5156 269.66104 515.90625 269.2548Q516.2969 268.84854 516.2969 268.20792Q516.2969 267.55167 515.8906 267.14542Q515.4844 266.72354 514.875 266.72354Z" fill-rule="nonzero"/><path fill="#ffffff" d="M491.76562 274.48917L490.6875 274.48917L490.6875 267.27042L488.5 268.0673L488.5 267.08292L491.60938 265.91104L491.76562 265.91104L491.76562 274.48917ZM495.34375 273.92667Q495.34375 273.64542 495.5 273.45792Q495.67188 273.27042 496.0 273.27042Q496.34375 273.27042 496.51562 273.45792Q496.6875 273.64542 496.6875 273.92667Q496.6875 274.1923 496.51562 274.3798Q496.34375 274.55167 496.0 274.55167Q495.67188 274.55167 495.5 274.3798Q495.34375 274.1923 495.34375 273.92667ZM503.79688 274.48917L498.20312 274.48917L498.20312 273.70792L501.15625 270.42667Q501.8125 269.67667 502.0625 269.22354Q502.3125 268.7548 502.3125 268.2548Q502.3125 267.58292 501.90625 267.16104Q501.51562 266.72354 500.82812 266.72354Q500.03125 266.72354 499.57812 267.1923Q499.125 267.64542 499.125 268.47354L498.04688 268.47354Q498.04688 267.28604 498.79688 266.5673Q499.5625 265.83292 500.82812 265.83292Q502.03125 265.83292 502.71875 266.45792Q503.40625 267.08292 503.40625 268.1298Q503.40625 269.3798 501.79688 271.1298L499.51562 273.59854L503.79688 273.59854L503.79688 274.48917ZM508.76562 274.48917L507.6875 274.48917L507.6875 267.27042L505.5 268.0673L505.5 267.08292L508.60938 265.91104L508.76562 265.91104L508.76562 274.48917ZM517.3906 268.17667Q517.3906 268.8173 517.0469 269.3173Q516.7031 269.8173 516.1406 270.09854Q516.7969 270.3798 517.1875 270.9423Q517.5781 271.48917 517.5781 272.1923Q517.5781 273.28604 516.8281 273.95792Q516.09375 274.61417 514.875 274.61417Q513.6406 274.61417 512.8906 273.95792Q512.15625 273.28604 512.15625 272.1923Q512.15625 271.48917 512.53125 270.9423Q512.90625 270.3798 513.5781 270.09854Q513.0156 269.8173 512.6875 269.3173Q512.3594 268.8173 512.3594 268.17667Q512.3594 267.09854 513.0469 266.47354Q513.7344 265.83292 514.875 265.83292Q516.0 265.83292 516.6875 266.47354Q517.3906 267.09854 517.3906 268.17667ZM516.5 272.16104Q516.5 271.4423 516.0469 271.0048Q515.59375 270.55167 514.8594 270.55167Q514.125 270.55167 513.6719 271.0048Q513.2344 271.4423 513.2344 272.17667Q513.2344 272.89542 513.6719 273.3173Q514.1094 273.72354 514.875 273.72354Q515.625 273.72354 516.0625 273.30167Q516.5 272.8798 516.5 272.16104ZM514.875 266.72354Q514.2344 266.72354 513.8281 267.1298Q513.4375 267.52042 513.4375 268.20792Q513.4375 268.84854 513.8281 269.2548Q514.21875 269.66104 514.8594 269.66104Q515.5156 269.66104 515.90625 269.2548Q516.2969 268.84854 516.2969 268.20792Q516.2969 267.55167 515.8906 267.14542Q515.4844 266.72354 514.875 266.72354Z" fill-rule="nonzero"/><path fill="#000000" d="M29.550013 236.0625L20.956263 236.0625L20.956263 232.25Q20.956263 231.09375 21.190638 230.5Q21.425013 229.90625 22.018763 229.54688Q22.596888 229.1875 23.300013 229.1875Q24.221888 229.1875 24.846888 229.78125Q25.471888 230.375 25.643763 231.60938Q25.862513 231.15625 26.065638 230.92188Q26.518763 230.42188 27.206263 229.98438L29.550013 228.48438L29.550013 229.92188L27.768763 231.04688Q26.987513 231.54688 26.581263 231.875Q26.175013 232.1875 26.018763 232.45312Q25.846888 232.70312 25.768763 232.96875Q25.737513 233.15625 25.737513 233.59375L25.737513 234.92188L29.550013 234.92188L29.550013 236.0625ZM24.753138 234.92188L24.753138 232.46875Q24.753138 231.70312 24.596888 231.26562Q24.425013 230.8125 24.081263 230.59375Q23.721888 230.35938 23.300013 230.35938Q22.690638 230.35938 22.300013 230.8125Q21.909388 231.25 21.909388 232.20312L21.909388 234.92188L24.753138 234.92188ZM29.550013 223.125L28.628138 223.125Q29.690638 223.85938 29.690638 225.10938Q29.690638 225.65625 29.487513 226.14062Q29.268763 226.60938 28.956263 226.84375Q28.628138 227.07812 28.159388 227.17188Q27.862513 227.23438 27.175013 227.23438L23.331263 227.23438L23.331263 226.17188L26.784388 226.17188Q27.596888 226.17188 27.893763 226.10938Q28.300013 226.01562 28.550013 225.70312Q28.784388 225.375 28.784388 224.89062Q28.784388 224.42188 28.550013 224.01562Q28.300013 223.59375 27.878138 223.42188Q27.456263 223.23438 26.659388 223.23438L23.331263 223.23438L23.331263 222.1875L29.550013 222.1875L29.550013 223.125ZM29.550013 220.20312L23.331263 220.20312L23.331263 219.26562L24.206263 219.26562Q23.190638 218.57812 23.190638 217.28125Q23.190638 216.71875 23.393763 216.25Q23.596888 215.76562 23.925013 215.53125Q24.253138 215.29688 24.690638 215.20312Q24.987513 215.15625 25.721888 215.15625L29.550013 215.15625L29.550013 216.20312L25.768763 216.20312Q25.112513 216.20312 24.800013 216.32812Q24.487513 216.45312 24.300013 216.76562Q24.096888 217.07812 24.096888 217.5Q24.096888 218.17188 24.534388 218.67188Q24.956263 219.15625 26.143763 219.15625L29.550013 219.15625L29.550013 220.20312ZM28.612513 210.90625L29.534388 210.75Q29.628138 211.20312 29.628138 211.54688Q29.628138 212.125 29.456263 212.4375Q29.268763 212.75 28.971888 212.89062Q28.675013 213.01562 27.721888 213.01562L24.143763 213.01562L24.143763 213.78125L23.331263 213.78125L23.331263 213.01562L21.784388 213.01562L21.159388 211.96875L23.331263 211.96875L23.331263 210.90625L24.143763 210.90625L24.143763 211.96875L27.784388 211.96875Q28.237513 211.96875 28.362513 211.92188Q28.487513 211.85938 28.565638 211.73438Q28.643763 211.60938 28.643763 211.375Q28.643763 211.1875 28.612513 210.90625ZM22.175013 210.20312L20.956263 210.20312L20.956263 209.14062L22.175013 209.14062L22.175013 210.20312ZM29.550013 210.20312L23.331263 210.20312L23.331263 209.14062L29.550013 209.14062L29.550013 210.20312ZM29.550013 207.20312L23.331263 207.20312L23.331263 206.26562L24.206263 206.26562Q23.737513 205.96875 23.471888 205.48438Q23.190638 205.0 23.190638 204.375Q23.190638 203.6875 23.471888 203.25Q23.753138 202.79688 24.268763 202.625Q23.190638 201.875 23.190638 200.70312Q23.190638 199.76562 23.706263 199.28125Q24.206263 198.78125 25.284388 198.78125L29.550013 198.78125L29.550013 199.82812L25.628138 199.82812Q25.003138 199.82812 24.721888 199.9375Q24.440638 200.03125 24.268763 200.29688Q24.096888 200.5625 24.096888 200.9375Q24.096888 201.59375 24.534388 202.03125Q24.971888 202.45312 25.940638 202.45312L29.550013 202.45312L29.550013 203.51562L25.503138 203.51562Q24.800013 203.51562 24.456263 203.78125Q24.096888 204.03125 24.096888 204.60938Q24.096888 205.0625 24.331263 205.4375Q24.565638 205.8125 25.018763 205.98438Q25.471888 206.15625 26.315638 206.15625L29.550013 206.15625L29.550013 207.20312ZM27.550013 192.95312L27.675013 191.85938Q28.628138 192.10938 29.159388 192.8125Q29.690638 193.51562 29.690638 194.59375Q29.690638 195.95312 28.846888 196.76562Q28.003138 197.5625 26.487513 197.5625Q24.925013 197.5625 24.065638 196.75Q23.190638 195.9375 23.190638 194.65625Q23.190638 193.40625 24.034388 192.625Q24.878138 191.82812 26.425013 191.82812Q26.518763 191.82812 26.706263 191.82812L26.706263 196.46875Q27.737513 196.40625 28.284388 195.89062Q28.815638 195.375 28.815638 194.59375Q28.815638 194.01562 28.518763 193.60938Q28.206263 193.1875 27.550013 192.95312ZM25.846888 196.40625L25.846888 192.9375Q25.050013 193.0 24.659388 193.32812Q24.050013 193.84375 24.050013 194.64062Q24.050013 195.375 24.534388 195.875Q25.018763 196.35938 25.846888 196.40625ZM32.08126 185.1875Q30.971888 186.0625 29.503138 186.67188Q28.018763 187.26562 26.440638 187.26562Q25.050013 187.26562 23.768763 186.82812Q22.284388 186.29688 20.815638 185.1875L20.815638 184.4375Q22.034388 185.14062 22.550013 185.375Q23.362513 185.73438 24.237513 185.9375Q25.331263 186.1875 26.440638 186.1875Q29.268763 186.1875 32.08126 184.4375L32.08126 185.1875ZM27.690638 183.625L27.534388 182.59375Q28.159388 182.5 28.487513 182.10938Q28.815638 181.70312 28.815638 180.96875Q28.815638 180.25 28.534388 179.90625Q28.237513 179.54688 27.831263 179.54688Q27.471888 179.54688 27.268763 179.85938Q27.128138 180.07812 26.909388 180.9375Q26.612513 182.09375 26.409388 182.54688Q26.190638 182.98438 25.815638 183.21875Q25.440638 183.45312 24.971888 183.45312Q24.565638 183.45312 24.206263 183.26562Q23.846888 183.07812 23.612513 182.75Q23.440638 182.5 23.315638 182.07812Q23.190638 181.65625 23.190638 181.15625Q23.190638 180.4375 23.409388 179.89062Q23.612513 179.32812 23.971888 179.0625Q24.331263 178.79688 24.925013 178.70312L25.065638 179.73438Q24.596888 179.79688 24.331263 180.14062Q24.050013 180.46875 24.050013 181.09375Q24.050013 181.8125 24.300013 182.125Q24.534388 182.4375 24.862513 182.4375Q25.065638 182.4375 25.221888 182.3125Q25.393763 182.17188 25.503138 181.90625Q25.565638 181.75 25.768763 180.96875Q26.081263 179.84375 26.268763 179.40625Q26.456263 178.96875 26.815638 178.71875Q27.175013 178.46875 27.721888 178.46875Q28.253138 178.46875 28.721888 178.78125Q29.175013 179.07812 29.440638 179.65625Q29.690638 180.23438 29.690638 180.96875Q29.690638 182.1875 29.190638 182.82812Q28.675013 183.45312 27.690638 183.625ZM27.550013 172.95312L27.675013 171.85938Q28.628138 172.10938 29.159388 172.8125Q29.690638 173.51562 29.690638 174.59375Q29.690638 175.95312 28.846888 176.76562Q28.003138 177.5625 26.487513 177.5625Q24.925013 177.5625 24.065638 176.75Q23.190638 175.9375 23.190638 174.65625Q23.190638 173.40625 24.034388 172.625Q24.878138 171.82812 26.425013 171.82812Q26.518763 171.82812 26.706263 171.82812L26.706263 176.46875Q27.737513 176.40625 28.284388 175.89062Q28.815638 175.375 28.815638 174.59375Q28.815638 174.01562 28.518763 173.60938Q28.206263 173.1875 27.550013 172.95312ZM25.846888 176.40625L25.846888 172.9375Q25.050013 173.0 24.659388 173.32812Q24.050013 173.84375 24.050013 174.64062Q24.050013 175.375 24.534388 175.875Q25.018763 176.35938 25.846888 176.40625ZM27.268763 166.14062L27.409388 165.10938Q28.471888 165.28125 29.081263 165.98438Q29.690638 166.6875 29.690638 167.70312Q29.690638 168.98438 28.862513 169.76562Q28.018763 170.53125 26.456263 170.53125Q25.456263 170.53125 24.706263 170.20312Q23.940638 169.85938 23.565638 169.1875Q23.190638 168.5 23.190638 167.6875Q23.190638 166.6875 23.706263 166.04688Q24.206263 165.39062 25.159388 165.20312L25.315638 166.23438Q24.690638 166.375 24.378138 166.75Q24.050013 167.125 24.050013 167.65625Q24.050013 168.45312 24.628138 168.95312Q25.190638 169.45312 26.425013 169.45312Q27.690638 169.45312 28.253138 168.96875Q28.815638 168.48438 28.815638 167.71875Q28.815638 167.09375 28.440638 166.6875Q28.065638 166.26562 27.268763 166.14062ZM26.440638 164.59375Q24.706263 164.59375 23.878138 163.64062Q23.190638 162.84375 23.190638 161.6875Q23.190638 160.40625 24.034388 159.59375Q24.862513 158.76562 26.346888 158.76562Q27.550013 158.76562 28.237513 159.125Q28.925013 159.48438 29.315638 160.1875Q29.690638 160.875 29.690638 161.6875Q29.690638 162.98438 28.862513 163.79688Q28.018763 164.59375 26.440638 164.59375ZM26.440638 163.51562Q27.628138 163.51562 28.221888 163.0Q28.815638 162.46875 28.815638 161.6875Q28.815638 160.89062 28.221888 160.375Q27.628138 159.85938 26.409388 159.85938Q25.253138 159.85938 24.659388 160.39062Q24.065638 160.90625 24.065638 161.6875Q24.065638 162.46875 24.659388 163.0Q25.237513 163.51562 26.440638 163.51562ZM29.550013 157.20312L23.331263 157.20312L23.331263 156.26562L24.206263 156.26562Q23.190638 155.57812 23.190638 154.28125Q23.190638 153.71875 23.393763 153.25Q23.596888 152.76562 23.925013 152.53125Q24.253138 152.29688 24.690638 152.20312Q24.987513 152.15625 25.721888 152.15625L29.550013 152.15625L29.550013 153.20312L25.768763 153.20312Q25.112513 153.20312 24.800013 153.32812Q24.487513 153.45312 24.300013 153.76562Q24.096888 154.07812 24.096888 154.5Q24.096888 155.17188 24.534388 155.67188Q24.956263 156.15625 26.143763 156.15625L29.550013 156.15625L29.550013 157.20312ZM29.550013 146.17188L28.768763 146.17188Q29.690638 146.76562 29.690638 147.90625Q29.690638 148.65625 29.284388 149.28125Q28.862513 149.90625 28.128138 150.25Q27.393763 150.59375 26.440638 150.59375Q25.518763 150.59375 24.753138 150.28125Q23.987513 149.96875 23.596888 149.34375Q23.190638 148.71875 23.190638 147.95312Q23.190638 147.39062 23.425013 146.95312Q23.659388 146.51562 24.034388 146.23438L20.956263 146.23438L20.956263 145.1875L29.550013 145.1875L29.550013 146.17188ZM26.440638 149.5Q27.643763 149.5 28.237513 149.0Q28.815638 148.5 28.815638 147.8125Q28.815638 147.125 28.253138 146.64062Q27.690638 146.15625 26.534388 146.15625Q25.253138 146.15625 24.659388 146.65625Q24.065638 147.14062 24.065638 147.85938Q24.065638 148.5625 24.643763 149.03125Q25.206263 149.5 26.440638 149.5ZM27.690638 143.625L27.534388 142.59375Q28.159388 142.5 28.487513 142.10938Q28.815638 141.70312 28.815638 140.96875Q28.815638 140.25 28.534388 139.90625Q28.237513 139.54688 27.831263 139.54688Q27.471888 139.54688 27.268763 139.85938Q27.128138 140.07812 26.909388 140.9375Q26.612513 142.09375 26.409388 142.54688Q26.190638 142.98438 25.815638 143.21875Q25.440638 143.45312 24.971888 143.45312Q24.565638 143.45312 24.206263 143.26562Q23.846888 143.07812 23.612513 142.75Q23.440638 142.5 23.315638 142.07812Q23.190638 141.65625 23.190638 141.15625Q23.190638 140.4375 23.409388 139.89062Q23.612513 139.32812 23.971888 139.0625Q24.331263 138.79688 24.925013 138.70312L25.065638 139.73438Q24.596888 139.79688 24.331263 140.14062Q24.050013 140.46875 24.050013 141.09375Q24.050013 141.8125 24.300013 142.125Q24.534388 142.4375 24.862513 142.4375Q25.065638 142.4375 25.221888 142.3125Q25.393763 142.17188 25.503138 141.90625Q25.565638 141.75 25.768763 140.96875Q26.081263 139.84375 26.268763 139.40625Q26.456263 138.96875 26.815638 138.71875Q27.175013 138.46875 27.721888 138.46875Q28.253138 138.46875 28.721888 138.78125Q29.175013 139.07812 29.440638 139.65625Q29.690638 140.23438 29.690638 140.96875Q29.690638 142.1875 29.190638 142.82812Q28.675013 143.45312 27.690638 143.625ZM32.08126 136.51562L32.08126 137.26562Q29.268763 135.51562 26.440638 135.51562Q25.346888 135.51562 24.253138 135.76562Q23.378138 135.96875 22.565638 136.32812Q22.050013 136.5625 20.815638 137.26562L20.815638 136.51562Q22.284388 135.42188 23.768763 134.89062Q25.050013 134.4375 26.440638 134.4375Q28.018763 134.4375 29.503138 135.04688Q30.971888 135.65625 32.08126 136.51562Z" fill-rule="nonzero"/><path fill="#000000" d="M65.05 332.21564Q65.05 330.6844 65.3625 329.7625Q65.675 328.825 66.28438 328.325Q66.90938 327.825 67.84688 327.825Q68.53438 327.825 69.05 328.10626Q69.58125 328.3875 69.925 328.91876Q70.26875 329.4344 70.45625 330.1844Q70.64375 330.9344 70.64375 332.21564Q70.64375 333.73126 70.33125 334.65314Q70.03438 335.575 69.40938 336.09064Q68.8 336.59064 67.84688 336.59064Q66.6125 336.59064 65.89375 335.7Q65.05 334.6375 65.05 332.21564ZM66.12813 332.21564Q66.12813 334.325 66.62813 335.02814Q67.12813 335.73126 67.84688 335.73126Q68.58125 335.73126 69.06563 335.02814Q69.56563 334.325 69.56563 332.21564Q69.56563 330.09064 69.06563 329.40314Q68.58125 328.7 67.83125 328.7Q67.1125 328.7 66.675 329.3094Q66.12813 330.09064 66.12813 332.21564Z" fill-rule="nonzero"/><path fill="#000000" d="M69.01875 275.07L67.97188 275.07L67.97188 268.35126Q67.58125 268.71063 66.95625 269.08563Q66.34688 269.445 65.8625 269.61688L65.8625 268.60126Q66.7375 268.17938 67.39375 267.60126Q68.06563 267.0075 68.34688 266.445L69.01875 266.445L69.01875 275.07Z" fill-rule="nonzero"/><path fill="#000000" d="M70.59688 212.67438L70.59688 213.69L64.90938 213.69Q64.90938 213.315 65.03438 212.95563Q65.25313 212.3775 65.72188 211.815Q66.20625 211.2525 67.1125 210.51813Q68.51875 209.36188 69.00313 208.69Q69.50313 208.01813 69.50313 207.42438Q69.50313 206.79938 69.05 206.3775Q68.59688 205.94 67.87813 205.94Q67.1125 205.94 66.65938 206.39313Q66.20625 206.84625 66.19063 207.65875L65.1125 207.54938Q65.22188 206.33063 65.94063 205.70563Q66.675 205.065 67.90938 205.065Q69.14375 205.065 69.8625 205.7525Q70.58125 206.44 70.58125 207.45563Q70.58125 207.97125 70.3625 208.47125Q70.15938 208.95563 69.65938 209.51813Q69.175 210.065 68.05 211.01813Q67.09688 211.815 66.81563 212.11188Q66.55 212.39313 66.37813 212.67438L70.59688 212.67438Z" fill-rule="nonzero"/><path fill="#000000" d="M65.05 150.04437L66.1125 149.90375Q66.28438 150.79437 66.72188 151.20062Q67.15938 151.59125 67.78438 151.59125Q68.53438 151.59125 69.05 151.07562Q69.56563 150.56 69.56563 149.79437Q69.56563 149.07562 69.08125 148.60687Q68.6125 148.1225 67.87813 148.1225Q67.58125 148.1225 67.12813 148.2475L67.25313 147.31Q67.3625 147.32562 67.425 147.32562Q68.09688 147.32562 68.62813 146.98187Q69.175 146.6225 69.175 145.88812Q69.175 145.31 68.78438 144.935Q68.39375 144.54437 67.76875 144.54437Q67.15938 144.54437 66.7375 144.935Q66.33125 145.32562 66.22188 146.09125L65.15938 145.90375Q65.34688 144.85687 66.03438 144.27875Q66.72188 143.685 67.7375 143.685Q68.44063 143.685 69.03438 143.9975Q69.62813 144.29437 69.94063 144.81Q70.25313 145.32562 70.25313 145.91937Q70.25313 146.46625 69.95625 146.935Q69.65938 147.38812 69.08125 147.65375Q69.83125 147.82562 70.25313 148.38812Q70.675 148.935 70.675 149.77875Q70.675 150.90375 69.84688 151.685Q69.03438 152.46625 67.78438 152.46625Q66.65938 152.46625 65.90938 151.79437Q65.15938 151.10687 65.05 150.04437Z" fill-rule="nonzero"/><path fill="#000000" d="M68.425 90.93L68.425 88.8675L64.70625 88.8675L64.70625 87.89875L68.62813 82.33625L69.4875 82.33625L69.4875 87.89875L70.64375 87.89875L70.64375 88.8675L69.4875 88.8675L69.4875 90.93L68.425 90.93ZM68.425 87.89875L68.425 84.039375L65.7375 87.89875L68.425 87.89875Z" fill-rule="nonzero"/><path fill="#000000" d="M65.05 27.3L66.15938 27.20625Q66.28438 28.01875 66.72188 28.425Q67.175 28.83125 67.81563 28.83125Q68.56563 28.83125 69.09688 28.253124Q69.62813 27.675 69.62813 26.7375Q69.62813 25.83125 69.1125 25.315624Q68.6125 24.784374 67.78438 24.784374Q67.28438 24.784374 66.8625 25.01875Q66.45625 25.253124 66.22188 25.6125L65.2375 25.4875L66.06563 21.08125L70.34688 21.08125L70.34688 22.08125L66.90938 22.08125L66.45625 24.39375Q67.22188 23.846874 68.06563 23.846874Q69.19063 23.846874 69.95625 24.628124Q70.7375 25.409374 70.7375 26.64375Q70.7375 27.8 70.06563 28.659374Q69.2375 29.690624 67.81563 29.690624Q66.64375 29.690624 65.89375 29.034374Q65.15938 28.378124 65.05 27.3Z" fill-rule="nonzero"/><path fill="#000000" d="M128.66325 349.45L128.66325 340.85626L131.632 340.85626Q132.632 340.85626 133.16325 340.98126Q133.89763 341.15314 134.41325 341.59064Q135.10075 342.16876 135.42888 343.075Q135.77263 343.96564 135.77263 345.10626Q135.77263 346.09064 135.53825 346.84064Q135.3195 347.59064 134.96013 348.09064Q134.60075 348.59064 134.16325 348.8719Q133.74138 349.15314 133.14763 349.3094Q132.55388 349.45 131.77263 349.45L128.66325 349.45ZM129.80388 348.4344L131.632 348.4344Q132.49138 348.4344 132.97575 348.27814Q133.46013 348.1219 133.74138 347.825Q134.14763 347.4344 134.36638 346.7469Q134.60075 346.0594 134.60075 345.09064Q134.60075 343.7469 134.14763 343.02814Q133.71013 342.29376 133.08513 342.04376Q132.61638 341.8719 131.61638 341.8719L129.80388 341.8719L129.80388 348.4344ZM140.11638 349.45L136.78825 340.85626L138.02263 340.85626L140.257 347.10626Q140.52263 347.85626 140.71013 348.5125Q140.91325 347.8094 141.17888 347.10626L143.49138 340.85626L144.64763 340.85626L141.28825 349.45L140.11638 349.45ZM151.80388 346.4344L152.92888 346.73126Q152.5695 348.1219 151.64763 348.85626Q150.72575 349.59064 149.382 349.59064Q147.99138 349.59064 147.11638 349.02814Q146.24138 348.46564 145.78825 347.40314Q145.33513 346.325 145.33513 345.09064Q145.33513 343.7469 145.85075 342.7469Q146.36638 341.7469 147.30388 341.23126Q148.257 340.71564 149.39763 340.71564Q150.67888 340.71564 151.55388 341.3719Q152.4445 342.02814 152.78825 343.21564L151.66325 343.48126Q151.36638 342.54376 150.78825 342.1219Q150.22575 341.6844 149.36638 341.6844Q148.382 341.6844 147.71013 342.16876Q147.05388 342.6375 146.77263 343.4344Q146.507 344.23126 146.507 345.09064Q146.507 346.1844 146.8195 346.9969Q147.14763 347.8094 147.8195 348.21564Q148.49138 348.6219 149.28825 348.6219Q150.24138 348.6219 150.89763 348.075Q151.5695 347.52814 151.80388 346.4344ZM161.21013 349.45L160.16325 349.45L160.16325 342.73126Q159.77263 343.09064 159.14763 343.46564Q158.53825 343.825 158.05388 343.9969L158.05388 342.98126Q158.92888 342.5594 159.58513 341.98126Q160.257 341.3875 160.53825 340.825L161.21013 340.825L161.21013 349.45ZM164.83513 349.45L164.83513 348.2469L166.03825 348.2469L166.03825 349.45L164.83513 349.45ZM167.24138 345.21564Q167.24138 343.6844 167.55388 342.7625Q167.86638 341.825 168.47575 341.325Q169.10075 340.825 170.03825 340.825Q170.72575 340.825 171.24138 341.10626Q171.77263 341.3875 172.11638 341.91876Q172.46013 342.4344 172.64763 343.1844Q172.83513 343.9344 172.83513 345.21564Q172.83513 346.73126 172.52263 347.65314Q172.22575 348.575 171.60075 349.09064Q170.99138 349.59064 170.03825 349.59064Q168.80388 349.59064 168.08513 348.7Q167.24138 347.6375 167.24138 345.21564ZM168.3195 345.21564Q168.3195 347.325 168.8195 348.02814Q169.3195 348.73126 170.03825 348.73126Q170.77263 348.73126 171.257 348.02814Q171.757 347.325 171.757 345.21564Q171.757 343.09064 171.257 342.40314Q170.77263 341.7 170.02263 341.7Q169.30388 341.7 168.86638 342.3094Q168.3195 343.09064 168.3195 345.21564ZM174.83513 349.45L174.83513 348.2469L176.03825 348.2469L176.03825 349.45L174.83513 349.45ZM177.24138 345.21564Q177.24138 343.6844 177.55388 342.7625Q177.86638 341.825 178.47575 341.325Q179.10075 340.825 180.03825 340.825Q180.72575 340.825 181.24138 341.10626Q181.77263 341.3875 182.11638 341.91876Q182.46013 342.4344 182.64763 343.1844Q182.83513 343.9344 182.83513 345.21564Q182.83513 346.73126 182.52263 347.65314Q182.22575 348.575 181.60075 349.09064Q180.99138 349.59064 180.03825 349.59064Q178.80388 349.59064 178.08513 348.7Q177.24138 347.6375 177.24138 345.21564ZM178.3195 345.21564Q178.3195 347.325 178.8195 348.02814Q179.3195 348.73126 180.03825 348.73126Q180.77263 348.73126 181.257 348.02814Q181.757 347.325 181.757 345.21564Q181.757 343.09064 181.257 342.40314Q180.77263 341.7 180.02263 341.7Q179.30388 341.7 178.86638 342.3094Q178.3195 343.09064 178.3195 345.21564Z" fill-rule="nonzero"/><path fill="#000000" d="M241.00233 349.45L241.00233 340.85626L243.97108 340.85626Q244.97108 340.85626 245.50233 340.98126Q246.23671 341.15314 246.75233 341.59064Q247.43983 342.16876 247.76796 343.075Q248.11171 343.96564 248.11171 345.10626Q248.11171 346.09064 247.87733 346.84064Q247.65858 347.59064 247.29921 348.09064Q246.93983 348.59064 246.50233 348.8719Q246.08046 349.15314 245.48671 349.3094Q244.89296 349.45 244.11171 349.45L241.00233 349.45ZM242.14296 348.4344L243.97108 348.4344Q244.83046 348.4344 245.31483 348.27814Q245.79921 348.1219 246.08046 347.825Q246.48671 347.4344 246.70546 346.7469Q246.93983 346.0594 246.93983 345.09064Q246.93983 343.7469 246.48671 343.02814Q246.04921 342.29376 245.42421 342.04376Q244.95546 341.8719 243.95546 341.8719L242.14296 341.8719L242.14296 348.4344ZM252.45546 349.45L249.12733 340.85626L250.36171 340.85626L252.59608 347.10626Q252.86171 347.85626 253.04921 348.5125Q253.25233 347.8094 253.51796 347.10626L255.83046 340.85626L256.9867 340.85626L253.62733 349.45L252.45546 349.45ZM264.14294 346.4344L265.26794 346.73126Q264.90857 348.1219 263.9867 348.85626Q263.06482 349.59064 261.72107 349.59064Q260.33044 349.59064 259.45544 349.02814Q258.58044 348.46564 258.12732 347.40314Q257.6742 346.325 257.6742 345.09064Q257.6742 343.7469 258.18982 342.7469Q258.70544 341.7469 259.64294 341.23126Q260.59607 340.71564 261.7367 340.71564Q263.01794 340.71564 263.89294 341.3719Q264.78357 342.02814 265.12732 343.21564L264.00232 343.48126Q263.70544 342.54376 263.12732 342.1219Q262.56482 341.6844 261.70544 341.6844Q260.72107 341.6844 260.0492 342.16876Q259.39294 342.6375 259.1117 343.4344Q258.84607 344.23126 258.84607 345.09064Q258.84607 346.1844 259.15857 346.9969Q259.4867 347.8094 260.15857 348.21564Q260.83044 348.6219 261.62732 348.6219Q262.58044 348.6219 263.2367 348.075Q263.90857 347.52814 264.14294 346.4344ZM269.58044 345.21564Q269.58044 343.6844 269.89294 342.7625Q270.20544 341.825 270.81482 341.325Q271.43982 340.825 272.37732 340.825Q273.06482 340.825 273.58044 341.10626Q274.1117 341.3875 274.45544 341.91876Q274.7992 342.4344 274.9867 343.1844Q275.1742 343.9344 275.1742 345.21564Q275.1742 346.73126 274.8617 347.65314Q274.56482 348.575 273.93982 349.09064Q273.33044 349.59064 272.37732 349.59064Q271.14294 349.59064 270.4242 348.7Q269.58044 347.6375 269.58044 345.21564ZM270.65857 345.21564Q270.65857 347.325 271.15857 348.02814Q271.65857 348.73126 272.37732 348.73126Q273.1117 348.73126 273.59607 348.02814Q274.09607 347.325 274.09607 345.21564Q274.09607 343.09064 273.59607 342.40314Q273.1117 341.7 272.3617 341.7Q271.64294 341.7 271.20544 342.3094Q270.65857 343.09064 270.65857 345.21564ZM277.1742 349.45L277.1742 348.2469L278.37732 348.2469L278.37732 349.45L277.1742 349.45ZM279.7367 347.46564L280.75232 347.3719Q280.87732 348.09064 281.2367 348.41876Q281.6117 348.73126 282.1742 348.73126Q282.65857 348.73126 283.01794 348.5125Q283.39294 348.27814 283.62732 347.91876Q283.8617 347.54376 284.01794 346.91876Q284.1742 346.27814 284.1742 345.6219Q284.1742 345.54376 284.1742 345.40314Q283.8617 345.90314 283.31482 346.23126Q282.76794 346.54376 282.12732 346.54376Q281.0492 346.54376 280.31482 345.77814Q279.58044 344.9969 279.58044 343.73126Q279.58044 342.41876 280.34607 341.6219Q281.12732 340.825 282.28357 340.825Q283.1117 340.825 283.7992 341.27814Q284.50232 341.73126 284.8617 342.575Q285.22107 343.40314 285.22107 344.98126Q285.22107 346.6219 284.8617 347.60626Q284.51794 348.575 283.7992 349.09064Q283.09607 349.59064 282.15857 349.59064Q281.14294 349.59064 280.50232 349.04376Q279.8617 348.48126 279.7367 347.46564ZM284.0492 343.66876Q284.0492 342.7625 283.56482 342.23126Q283.09607 341.7 282.40857 341.7Q281.70544 341.7 281.1742 342.27814Q280.65857 342.84064 280.65857 343.7625Q280.65857 344.575 281.15857 345.09064Q281.65857 345.60626 282.37732 345.60626Q283.1117 345.60626 283.58044 345.09064Q284.0492 344.575 284.0492 343.66876ZM290.5492 349.45L289.50232 349.45L289.50232 342.73126Q289.1117 343.09064 288.4867 343.46564Q287.87732 343.825 287.39294 343.9969L287.39294 342.98126Q288.26794 342.5594 288.9242 341.98126Q289.59607 341.3875 289.87732 340.825L290.5492 340.825L290.5492 349.45ZM294.1742 349.45L294.1742 348.2469L295.37732 348.2469L295.37732 349.45L294.1742 349.45ZM296.58044 345.21564Q296.58044 343.6844 296.89294 342.7625Q297.20544 341.825 297.81482 341.325Q298.43982 340.825 299.37732 340.825Q300.06482 340.825 300.58044 341.10626Q301.1117 341.3875 301.45544 341.91876Q301.7992 342.4344 301.9867 343.1844Q302.1742 343.9344 302.1742 345.21564Q302.1742 346.73126 301.8617 347.65314Q301.56482 348.575 300.93982 349.09064Q300.33044 349.59064 299.37732 349.59064Q298.14294 349.59064 297.4242 348.7Q296.58044 347.6375 296.58044 345.21564ZM297.65857 345.21564Q297.65857 347.325 298.15857 348.02814Q298.65857 348.73126 299.37732 348.73126Q300.1117 348.73126 300.59607 348.02814Q301.09607 347.325 301.09607 345.21564Q301.09607 343.09064 300.59607 342.40314Q300.1117 341.7 299.3617 341.7Q298.64294 341.7 298.20544 342.3094Q297.65857 343.09064 297.65857 345.21564Z" fill-rule="nonzero"/><path fill="#000000" d="M371.20078 349.45L371.20078 343.23126L372.1539 343.23126L372.1539 344.16876Q372.51328 343.5125 372.81015 343.3094Q373.12265 343.09064 373.49765 343.09064Q374.0289 343.09064 374.57578 343.41876L374.2164 344.40314Q373.82578 344.16876 373.45078 344.16876Q373.0914 344.16876 372.81015 344.3875Q372.54453 344.59064 372.43515 344.96564Q372.24765 345.52814 372.24765 346.1844L372.24765 349.45L371.20078 349.45ZM379.2789 347.16876L380.31015 347.3094Q380.13828 348.3719 379.43515 348.98126Q378.73203 349.59064 377.7164 349.59064Q376.43515 349.59064 375.6539 348.7625Q374.88828 347.91876 374.88828 346.35626Q374.88828 345.35626 375.2164 344.60626Q375.56015 343.84064 376.23203 343.46564Q376.91953 343.09064 377.73203 343.09064Q378.73203 343.09064 379.37265 343.60626Q380.0289 344.10626 380.2164 345.0594L379.18515 345.21564Q379.04453 344.59064 378.66953 344.27814Q378.29453 343.95 377.76328 343.95Q376.9664 343.95 376.4664 344.52814Q375.9664 345.09064 375.9664 346.325Q375.9664 347.59064 376.45078 348.15314Q376.93515 348.71564 377.70078 348.71564Q378.32578 348.71564 378.73203 348.34064Q379.1539 347.96564 379.2789 347.16876ZM381.18515 349.45L381.18515 340.85626L382.24765 340.85626L382.24765 349.45L381.18515 349.45ZM383.82578 346.34064Q383.82578 344.60626 384.7789 343.77814Q385.57578 343.09064 386.73203 343.09064Q388.01328 343.09064 388.82578 343.9344Q389.6539 344.7625 389.6539 346.2469Q389.6539 347.45 389.29453 348.1375Q388.93515 348.825 388.23203 349.21564Q387.54453 349.59064 386.73203 349.59064Q385.43515 349.59064 384.62265 348.7625Q383.82578 347.91876 383.82578 346.34064ZM384.9039 346.34064Q384.9039 347.52814 385.41953 348.1219Q385.95078 348.71564 386.73203 348.71564Q387.5289 348.71564 388.04453 348.1219Q388.56015 347.52814 388.56015 346.3094Q388.56015 345.15314 388.0289 344.5594Q387.51328 343.96564 386.73203 343.96564Q385.95078 343.96564 385.41953 344.5594Q384.9039 345.1375 384.9039 346.34064ZM391.2164 349.45L391.2164 343.23126L392.1539 343.23126L392.1539 344.10626Q392.8414 343.09064 394.13828 343.09064Q394.70078 343.09064 395.16953 343.29376Q395.6539 343.4969 395.88828 343.825Q396.12265 344.15314 396.2164 344.59064Q396.26328 344.8875 396.26328 345.6219L396.26328 349.45L395.2164 349.45L395.2164 345.66876Q395.2164 345.0125 395.0914 344.7Q394.9664 344.3875 394.6539 344.2Q394.3414 343.9969 393.91953 343.9969Q393.24765 343.9969 392.74765 344.4344Q392.26328 344.85626 392.26328 346.04376L392.26328 349.45L391.2164 349.45ZM402.4664 347.45L403.56015 347.575Q403.31015 348.52814 402.60703 349.0594Q401.9039 349.59064 400.82578 349.59064Q399.4664 349.59064 398.6539 348.7469Q397.85703 347.90314 397.85703 346.3875Q397.85703 344.825 398.66953 343.96564Q399.48203 343.09064 400.76328 343.09064Q402.01328 343.09064 402.79453 343.9344Q403.5914 344.77814 403.5914 346.325Q403.5914 346.41876 403.5914 346.60626L398.95078 346.60626Q399.01328 347.6375 399.5289 348.1844Q400.04453 348.71564 400.82578 348.71564Q401.4039 348.71564 401.81015 348.41876Q402.23203 348.10626 402.4664 347.45ZM399.01328 345.7469L402.48203 345.7469Q402.41953 344.95 402.0914 344.5594Q401.57578 343.95 400.7789 343.95Q400.04453 343.95 399.54453 344.4344Q399.06015 344.91876 399.01328 345.7469Z" fill-rule="nonzero"/><path fill="#000000" d="M446.53986 349.45L446.53986 343.23126L447.49298 343.23126L447.49298 344.16876Q447.85236 343.5125 448.14923 343.3094Q448.46173 343.09064 448.83673 343.09064Q449.36798 343.09064 449.91486 343.41876L449.55548 344.40314Q449.16486 344.16876 448.78986 344.16876Q448.43048 344.16876 448.14923 344.3875Q447.8836 344.59064 447.77423 344.96564Q447.58673 345.52814 447.58673 346.1844L447.58673 349.45L446.53986 349.45ZM454.61798 347.16876L455.64923 347.3094Q455.47736 348.3719 454.77423 348.98126Q454.0711 349.59064 453.05548 349.59064Q451.77423 349.59064 450.99298 348.7625Q450.22736 347.91876 450.22736 346.35626Q450.22736 345.35626 450.55548 344.60626Q450.89923 343.84064 451.5711 343.46564Q452.2586 343.09064 453.0711 343.09064Q454.0711 343.09064 454.71173 343.60626Q455.36798 344.10626 455.55548 345.0594L454.52423 345.21564Q454.3836 344.59064 454.0086 344.27814Q453.6336 343.95 453.10236 343.95Q452.30548 343.95 451.80548 344.52814Q451.30548 345.09064 451.30548 346.325Q451.30548 347.59064 451.78986 348.15314Q452.27423 348.71564 453.03986 348.71564Q453.66486 348.71564 454.0711 348.34064Q454.49298 347.96564 454.61798 347.16876ZM456.52423 349.45L456.52423 340.85626L457.58673 340.85626L457.58673 349.45L456.52423 349.45ZM459.16486 346.34064Q459.16486 344.60626 460.11798 343.77814Q460.91486 343.09064 462.0711 343.09064Q463.35236 343.09064 464.16486 343.9344Q464.99298 344.7625 464.99298 346.2469Q464.99298 347.45 464.6336 348.1375Q464.27423 348.825 463.5711 349.21564Q462.8836 349.59064 462.0711 349.59064Q460.77423 349.59064 459.96173 348.7625Q459.16486 347.91876 459.16486 346.34064ZM460.24298 346.34064Q460.24298 347.52814 460.7586 348.1219Q461.28986 348.71564 462.0711 348.71564Q462.86798 348.71564 463.3836 348.1219Q463.89923 347.52814 463.89923 346.3094Q463.89923 345.15314 463.36798 344.5594Q462.85236 343.96564 462.0711 343.96564Q461.28986 343.96564 460.7586 344.5594Q460.24298 345.1375 460.24298 346.34064ZM466.55548 349.45L466.55548 343.23126L467.49298 343.23126L467.49298 344.10626Q468.18048 343.09064 469.47736 343.09064Q470.03986 343.09064 470.5086 343.29376Q470.99298 343.4969 471.22736 343.825Q471.46173 344.15314 471.55548 344.59064Q471.60236 344.8875 471.60236 345.6219L471.60236 349.45L470.55548 349.45L470.55548 345.66876Q470.55548 345.0125 470.43048 344.7Q470.30548 344.3875 469.99298 344.2Q469.68048 343.9969 469.2586 343.9969Q468.58673 343.9969 468.08673 344.4344Q467.60236 344.85626 467.60236 346.04376L467.60236 349.45L466.55548 349.45ZM477.80548 347.45L478.89923 347.575Q478.64923 348.52814 477.9461 349.0594Q477.24298 349.59064 476.16486 349.59064Q474.80548 349.59064 473.99298 348.7469Q473.1961 347.90314 473.1961 346.3875Q473.1961 344.825 474.0086 343.96564Q474.8211 343.09064 476.10236 343.09064Q477.35236 343.09064 478.1336 343.9344Q478.93048 344.77814 478.93048 346.325Q478.93048 346.41876 478.93048 346.60626L474.28986 346.60626Q474.35236 347.6375 474.86798 348.1844Q475.3836 348.71564 476.16486 348.71564Q476.74298 348.71564 477.14923 348.41876Q477.5711 348.10626 477.80548 347.45ZM474.35236 345.7469L477.8211 345.7469Q477.7586 344.95 477.43048 344.5594Q476.91486 343.95 476.11798 343.95Q475.3836 343.95 474.8836 344.4344Q474.39923 344.91876 474.35236 345.7469ZM485.5711 351.98126Q484.6961 350.8719 484.08673 349.40314Q483.49298 347.91876 483.49298 346.34064Q483.49298 344.95 483.93048 343.66876Q484.46173 342.1844 485.5711 340.71564L486.3211 340.71564Q485.61798 341.9344 485.3836 342.45Q485.02423 343.2625 484.8211 344.1375Q484.5711 345.23126 484.5711 346.34064Q484.5711 349.16876 486.3211 351.98126L485.5711 351.98126ZM487.1336 346.8719L487.1336 345.8094L490.3836 345.8094L490.3836 346.8719L487.1336 346.8719ZM491.1336 346.8719L491.1336 345.8094L494.3836 345.8094L494.3836 346.8719L491.1336 346.8719ZM495.55548 349.45L495.55548 343.23126L496.49298 343.23126L496.49298 344.10626Q497.18048 343.09064 498.47736 343.09064Q499.03986 343.09064 499.5086 343.29376Q499.99298 343.4969 500.22736 343.825Q500.46173 344.15314 500.55548 344.59064Q500.60236 344.8875 500.60236 345.6219L500.60236 349.45L499.55548 349.45L499.55548 345.66876Q499.55548 345.0125 499.43048 344.7Q499.30548 344.3875 498.99298 344.2Q498.68048 343.9969 498.2586 343.9969Q497.58673 343.9969 497.08673 344.4344Q496.60236 344.85626 496.60236 346.04376L496.60236 349.45L495.55548 349.45ZM502.16486 346.34064Q502.16486 344.60626 503.11798 343.77814Q503.91486 343.09064 505.0711 343.09064Q506.35236 343.09064 507.16486 343.9344Q507.99298 344.7625 507.99298 346.2469Q507.99298 347.45 507.6336 348.1375Q507.27423 348.825 506.5711 349.21564Q505.8836 349.59064 505.0711 349.59064Q503.77423 349.59064 502.96173 348.7625Q502.16486 347.91876 502.16486 346.34064ZM503.24298 346.34064Q503.24298 347.52814 503.7586 348.1219Q504.28986 348.71564 505.0711 348.71564Q505.86798 348.71564 506.3836 348.1219Q506.89923 347.52814 506.89923 346.3094Q506.89923 345.15314 506.36798 344.5594Q505.85236 343.96564 505.0711 343.96564Q504.28986 343.96564 503.7586 344.5594Q503.24298 345.1375 503.24298 346.34064ZM509.1336 346.8719L509.1336 345.8094L512.3836 345.8094L512.3836 346.8719L509.1336 346.8719ZM515.85236 348.5125L516.0086 349.4344Q515.5555 349.52814 515.21173 349.52814Q514.6336 349.52814 514.3211 349.35626Q514.0086 349.16876 513.868 348.8719Q513.743 348.575 513.743 347.6219L513.743 344.04376L512.97736 344.04376L512.97736 343.23126L513.743 343.23126L513.743 341.6844L514.78986 341.0594L514.78986 343.23126L515.85236 343.23126L515.85236 344.04376L514.78986 344.04376L514.78986 347.6844Q514.78986 348.1375 514.83673 348.2625Q514.89923 348.3875 515.02423 348.46564Q515.14923 348.54376 515.3836 348.54376Q515.5711 348.54376 515.85236 348.5125ZM516.53986 349.45L516.53986 343.23126L517.493 343.23126L517.493 344.16876Q517.85236 343.5125 518.14923 343.3094Q518.46173 343.09064 518.83673 343.09064Q519.368 343.09064 519.91486 343.41876L519.5555 344.40314Q519.16486 344.16876 518.78986 344.16876Q518.4305 344.16876 518.14923 344.3875Q517.8836 344.59064 517.77423 344.96564Q517.58673 345.52814 517.58673 346.1844L517.58673 349.45L516.53986 349.45ZM524.618 348.6844Q524.02423 349.1844 523.47736 349.3875Q522.9461 349.59064 522.3211 349.59064Q521.28986 349.59064 520.743 349.09064Q520.1961 348.59064 520.1961 347.8094Q520.1961 347.35626 520.39923 346.98126Q520.60236 346.59064 520.9461 346.3719Q521.28986 346.1375 521.71173 346.02814Q522.0086 345.9344 522.64923 345.85626Q523.91486 345.71564 524.52423 345.4969Q524.52423 345.27814 524.52423 345.23126Q524.52423 344.575 524.22736 344.3094Q523.8211 343.96564 523.02423 343.96564Q522.28986 343.96564 521.9305 344.23126Q521.5711 344.48126 521.39923 345.1375L520.368 344.9969Q520.5086 344.34064 520.83673 343.9344Q521.16486 343.52814 521.77423 343.3094Q522.3836 343.09064 523.1805 343.09064Q523.97736 343.09064 524.47736 343.27814Q524.97736 343.46564 525.21173 343.7469Q525.4461 344.02814 525.53986 344.46564Q525.58673 344.73126 525.58673 345.4344L525.58673 346.84064Q525.58673 348.3094 525.64923 348.7Q525.72736 349.09064 525.9305 349.45L524.8211 349.45Q524.66486 349.1219 524.618 348.6844ZM524.52423 346.325Q523.9461 346.5594 522.8055 346.73126Q522.14923 346.825 521.8836 346.95Q521.618 347.0594 521.46173 347.27814Q521.3211 347.4969 521.3211 347.77814Q521.3211 348.2 521.6336 348.48126Q521.96173 348.7625 522.5711 348.7625Q523.1805 348.7625 523.64923 348.4969Q524.1336 348.23126 524.35236 347.7625Q524.52423 347.40314 524.52423 346.71564L524.52423 346.325ZM529.27423 349.45L526.91486 343.23126L528.02423 343.23126L529.368 346.95Q529.5711 347.5594 529.7586 348.2Q529.89923 347.71564 530.14923 347.02814L531.53986 343.23126L532.618 343.23126L530.2586 349.45L529.27423 349.45ZM537.8055 347.45L538.89923 347.575Q538.64923 348.52814 537.9461 349.0594Q537.243 349.59064 536.16486 349.59064Q534.8055 349.59064 533.993 348.7469Q533.1961 347.90314 533.1961 346.3875Q533.1961 344.825 534.0086 343.96564Q534.8211 343.09064 536.10236 343.09064Q537.35236 343.09064 538.1336 343.9344Q538.9305 344.77814 538.9305 346.325Q538.9305 346.41876 538.9305 346.60626L534.28986 346.60626Q534.35236 347.6375 534.868 348.1844Q535.3836 348.71564 536.16486 348.71564Q536.743 348.71564 537.14923 348.41876Q537.5711 348.10626 537.8055 347.45ZM534.35236 345.7469L537.8211 345.7469Q537.7586 344.95 537.4305 344.5594Q536.91486 343.95 536.118 343.95Q535.3836 343.95 534.8836 344.4344Q534.39923 344.91876 534.35236 345.7469ZM540.53986 349.45L540.53986 343.23126L541.493 343.23126L541.493 344.16876Q541.85236 343.5125 542.14923 343.3094Q542.46173 343.09064 542.83673 343.09064Q543.368 343.09064 543.91486 343.41876L543.5555 344.40314Q543.16486 344.16876 542.78986 344.16876Q542.4305 344.16876 542.14923 344.3875Q541.8836 344.59064 541.77423 344.96564Q541.58673 345.52814 541.58673 346.1844L541.58673 349.45L540.53986 349.45ZM544.1336 347.59064L545.16486 347.4344Q545.2586 348.0594 545.64923 348.3875Q546.0555 348.71564 546.78986 348.71564Q547.5086 348.71564 547.85236 348.4344Q548.21173 348.1375 548.21173 347.73126Q548.21173 347.3719 547.89923 347.16876Q547.6805 347.02814 546.8211 346.8094Q545.66486 346.5125 545.21173 346.3094Q544.77423 346.09064 544.53986 345.71564Q544.3055 345.34064 544.3055 344.8719Q544.3055 344.46564 544.493 344.10626Q544.6805 343.7469 545.0086 343.5125Q545.2586 343.34064 545.6805 343.21564Q546.10236 343.09064 546.60236 343.09064Q547.3211 343.09064 547.868 343.3094Q548.4305 343.5125 548.6961 343.8719Q548.96173 344.23126 549.0555 344.825L548.02423 344.96564Q547.96173 344.4969 547.618 344.23126Q547.28986 343.95 546.66486 343.95Q545.9461 343.95 545.6336 344.2Q545.3211 344.4344 545.3211 344.7625Q545.3211 344.96564 545.4461 345.1219Q545.58673 345.29376 545.85236 345.40314Q546.0086 345.46564 546.78986 345.66876Q547.91486 345.98126 548.35236 346.16876Q548.78986 346.35626 549.03986 346.71564Q549.28986 347.075 549.28986 347.6219Q549.28986 348.15314 548.97736 348.6219Q548.6805 349.075 548.10236 349.34064Q547.52423 349.59064 546.78986 349.59064Q545.5711 349.59064 544.9305 349.09064Q544.3055 348.575 544.1336 347.59064ZM554.8055 347.45L555.89923 347.575Q555.64923 348.52814 554.9461 349.0594Q554.243 349.59064 553.16486 349.59064Q551.8055 349.59064 550.993 348.7469Q550.1961 347.90314 550.1961 346.3875Q550.1961 344.825 551.0086 343.96564Q551.8211 343.09064 553.10236 343.09064Q554.35236 343.09064 555.1336 343.9344Q555.9305 344.77814 555.9305 346.325Q555.9305 346.41876 555.9305 346.60626L551.28986 346.60626Q551.35236 347.6375 551.868 348.1844Q552.3836 348.71564 553.16486 348.71564Q553.743 348.71564 554.14923 348.41876Q554.5711 348.10626 554.8055 347.45ZM551.35236 345.7469L554.8211 345.7469Q554.7586 344.95 554.4305 344.5594Q553.91486 343.95 553.118 343.95Q552.3836 343.95 551.8836 344.4344Q551.39923 344.91876 551.35236 345.7469ZM558.243 351.98126L557.493 351.98126Q559.243 349.16876 559.243 346.34064Q559.243 345.2469 558.993 344.15314Q558.78986 343.27814 558.4305 342.46564Q558.1961 341.95 557.493 340.71564L558.243 340.71564Q559.33673 342.1844 559.868 343.66876Q560.3211 344.95 560.3211 346.34064Q560.3211 347.91876 559.71173 349.40314Q559.10236 350.8719 558.243 351.98126Z" fill-rule="nonzero"/></svg>