<svg height="32" viewBox="0 0 32 32" width="32" xmlns="http://www.w3.org/2000/svg"><path d="m26.175 1c1.695 0 3.075 1.38 3.075 3.09v26.91l-3.225-2.85-1.815-1.68-1.92-1.785.795 2.775h-17.01c-1.695 0-3.075-1.38-3.075-3.09v-20.28c0-1.71 1.38-3.09 3.075-3.09zm-12.345 6.98987535s-2.055-.04487535-4.215 1.57512465c0 0-2.16 3.915-2.16 8.745 0 0 1.26 2.175 4.575 2.28 0 0 .555-.675 1.005-1.245-1.905-.57-2.625-1.77-2.625-1.77s.15.105.42.255c.015.015.03.03.06.045.045.03.09.045.135.075.375.21.75.375 1.095.51.615.24 1.35.48 2.205.645 1.125.21 2.445.285 3.885.015.705-.12 1.425-.33 2.175-.645.525-.195 1.11-.48 1.725-.885 0 0-.75 1.23-2.715 1.785.45.57.99 1.215.99 1.215 3.315-.105 4.59-2.28 4.59-2.28 0-4.83-2.16-8.745-2.16-8.745-2.025-1.51875-3.9577148-1.57423065-4.191394-1.57523312l-.023606.00010847-.21.24012465c2.55.78 3.735 1.905 3.735 1.905-1.56-.855-3.09-1.275-4.515-1.44-1.08-.12-2.115-.09-3.03.03-.09 0-.165.015-.255.03-.525.045-1.8.24-3.405.945-.555.255-.885.435-.885.435s1.245-1.185 3.945-1.965zm-.42 5.59512465c.855 0 1.545.75 1.53 1.665 0 .915-.675 1.665-1.53 1.665-.84 0-1.53-.75-1.53-1.665s.675-1.665 1.53-1.665zm5.475 0c.855 0 1.53.75 1.53 1.665s-.675 1.665-1.53 1.665c-.84 0-1.53-.75-1.53-1.665s.675-1.665 1.53-1.665z" fill="#838d93"/></svg>