<svg height="32" viewBox="0 0 32 32" width="32" xmlns="http://www.w3.org/2000/svg"><path d="m9.63293087 29.3966471 16.97026713-2.6421584c.7639723-.1189454 1.3909531-.6675864 1.6102143-1.4090217l.0243363-.0822937v1.0278389c0 .9841471-.7159708 1.8220358-1.6880749 1.9755259l-17.31192512 2.7334619-6-24c-.15849905-.53515625-.23774858-1.05273437-.23774858-1.55273438 0-.5.07924953-.98242187.23774858-1.44726562l4.06325142-.642 3.699 16.642 1.1544966-1.1816406 1.6843262.7861328-3.6428228-16.7034922 10.2335292-1.61549167c1.0234784-.16160186 2.0009049.48523387 2.2522101 1.49045468l5.0260565 20.10422599c.2678975 1.0715898-.3836239 2.1574588-1.4552137 2.4253563-.057168.014292-.1149398.0260504-.1731461.0352409l-16.84168742 2.6592138z" fill="#838d93" fill-rule="evenodd"/></svg>