<svg height="40" viewBox="0 0 40 40" width="40" xmlns="http://www.w3.org/2000/svg"><g fill="#fff" fill-rule="evenodd"><rect height="24" opacity=".6" rx="1" width="26" x="7" y="9"/><rect height="4" rx="1" width="4" x="15.5" y="14"/><rect height="4" rx="1" width="4" x="20.5" y="14"/><rect height="4" rx="1" width="4" x="25.5" y="14"/><rect height="4" rx="1" width="4" x="10.5" y="19"/><rect height="4" rx="1" width="4" x="15.5" y="19"/><rect height="4" rx="1" width="4" x="20.5" y="19"/><rect height="4" rx="1" width="4" x="25.5" y="19"/><rect height="4" rx="1" width="4" x="10.5" y="24"/><rect height="4" rx="1" width="4" x="15.5" y="24"/><rect height="4" rx="1" width="4" x="20.5" y="24"/><rect height="6" rx="1" width="2" x="11.5" y="6"/><rect height="6" rx="1" width="2" x="26.5" y="6"/></g></svg>